<svg width="16" height="16" viewBox="0 0 16 16" fill="none" xmlns="http://www.w3.org/2000/svg">
<path d="M6.86674 14C6.97833 14.203 7.14237 14.3722 7.34173 14.4901C7.5411 14.608 7.76846 14.6702 8.00007 14.6702C8.23169 14.6702 8.45905 14.608 8.65841 14.4901C8.85777 14.3722 9.02182 14.203 9.13341 14M2.66671 1.33334C1.86671 2.46668 1.33337 3.80001 1.33337 5.33334M14.6667 5.33334C14.6667 3.80001 14.1334 2.46668 13.3334 1.33334M4.00004 5.33334C4.00004 4.27248 4.42147 3.25506 5.17161 2.50492C5.92176 1.75477 6.93917 1.33334 8.00004 1.33334C9.06091 1.33334 10.0783 1.75477 10.8285 2.50492C11.5786 3.25506 12 4.27248 12 5.33334C12 10 14 11.3333 14 11.3333H2.00004C2.00004 11.3333 4.00004 10 4.00004 5.33334Z" stroke="black" stroke-opacity="0.5" stroke-width="2" stroke-linecap="round" stroke-linejoin="round"/>
</svg>
