<svg width="97" height="26" viewBox="0 0 97 26" fill="none" xmlns="http://www.w3.org/2000/svg">
<rect width="97" height="26" rx="13" fill="#D2F0E5"/>
<circle cx="14.5" cy="12.5" r="2.5" fill="#1DB27B"/>
<path d="M28.74 14.11L29.35 15.31C29.1367 15.55 28.82 15.7467 28.4 15.9C27.9867 16.0467 27.5433 16.12 27.07 16.12C25.9833 16.12 25.1 15.79 24.42 15.13C23.74 14.4567 23.4 13.58 23.4 12.5C23.4 11.4467 23.72 10.58 24.36 9.9C25 9.22 25.9 8.88 27.06 8.88C27.5 8.88 27.91 8.94667 28.29 9.08C28.67 9.21333 28.9733 9.39 29.2 9.61L28.49 10.81C28.0233 10.5233 27.5467 10.38 27.06 10.38C26.4933 10.38 26.0233 10.5667 25.65 10.94C25.2833 11.3067 25.1 11.8267 25.1 12.5C25.1 13.1133 25.2967 13.6233 25.69 14.03C26.0833 14.4233 26.5933 14.62 27.22 14.62C27.78 14.62 28.2867 14.45 28.74 14.11ZM29.75 12.5C29.75 11.4667 30.0933 10.6067 30.78 9.92C31.4733 9.22667 32.37 8.88 33.47 8.88C34.5633 8.88 35.4533 9.21 36.14 9.87C36.84 10.53 37.19 11.4067 37.19 12.5C37.19 13.5533 36.8367 14.42 36.13 15.1C35.43 15.78 34.5433 16.12 33.47 16.12C32.3833 16.12 31.49 15.79 30.79 15.13C30.0967 14.47 29.75 13.5933 29.75 12.5ZM31.45 12.5C31.45 13.0933 31.6467 13.5967 32.04 14.01C32.4267 14.4167 32.9033 14.62 33.47 14.62C34.11 14.62 34.6067 14.4233 34.96 14.03C35.3133 13.6233 35.49 13.1133 35.49 12.5C35.49 11.8667 35.2967 11.3567 34.91 10.97C34.5167 10.5767 34.0367 10.38 33.47 10.38C32.8833 10.38 32.4 10.5767 32.02 10.97C31.64 11.3633 31.45 11.8733 31.45 12.5ZM40.1922 16H38.5922V9H40.2022L42.3622 11.95L44.4022 9H45.9122V16H44.3122V11.54L42.3622 14.27H42.1322L40.1922 11.57V16ZM49.4133 13.62V16H47.8133V9C48.1199 9 48.4566 8.99667 48.8233 8.99C49.1966 8.98333 49.5733 8.98 49.9533 8.98C50.9399 8.98 51.6599 9.2 52.1133 9.64C52.5599 10.0667 52.7833 10.62 52.7833 11.3C52.7833 11.9533 52.5466 12.51 52.0733 12.97C51.5999 13.4233 50.9733 13.65 50.1933 13.65C49.8466 13.65 49.5866 13.64 49.4133 13.62ZM50.1133 10.48C50.1066 10.48 50.0766 10.4833 50.0233 10.49C49.9699 10.49 49.8866 10.4933 49.7733 10.5C49.6599 10.5 49.5399 10.5 49.4133 10.5V12.1C49.6933 12.1333 49.9366 12.15 50.1433 12.15C50.4166 12.15 50.6399 12.08 50.8133 11.94C50.9933 11.7933 51.0833 11.5767 51.0833 11.29C51.0833 10.75 50.7599 10.48 50.1133 10.48ZM58.6328 16H54.1828V9H55.7828V14.5H58.6328V16ZM63.982 16H59.732V9H63.882V10.5H61.332V11.73H63.582V13.23H61.332V14.5H63.982V16ZM66.884 10.5H64.784V9H70.584V10.5H68.484V16H66.884V10.5ZM75.9301 16H71.6801V9H75.8301V10.5H73.2801V11.73H75.5301V13.23H73.2801V14.5H75.9301V16ZM77.702 16H77.532V9H77.672C77.972 9 78.3054 8.99667 78.672 8.99C78.812 8.99 78.9654 8.99 79.132 8.99C79.3054 8.98333 79.4387 8.98 79.532 8.98C79.6254 8.97333 79.6954 8.97 79.742 8.97C81.0554 8.97 82.0387 9.29667 82.692 9.95C83.3454 10.6033 83.672 11.4333 83.672 12.44C83.672 13.4733 83.322 14.33 82.622 15.01C81.9287 15.6833 80.942 16.02 79.662 16.02C79.402 16.02 79.112 16.0167 78.792 16.01C78.472 16.0033 78.1087 16 77.702 16ZM79.722 10.47C79.462 10.47 79.2654 10.48 79.132 10.5V14.5C79.3187 14.5133 79.512 14.52 79.712 14.52C80.4187 14.52 80.972 14.3367 81.372 13.97C81.772 13.6033 81.972 13.0933 81.972 12.44C81.972 11.82 81.7687 11.3367 81.362 10.99C80.9554 10.6433 80.4087 10.47 79.722 10.47Z" fill="#1DB27B"/>
</svg>
