<svg width="95" height="26" viewBox="0 0 95 26" fill="none" xmlns="http://www.w3.org/2000/svg">
<rect width="95" height="26" rx="13" fill="#E8EEFC"/>
<circle cx="14.5" cy="12.5" r="2.5" fill="#2E66E2"/>
<path d="M26.47 14.08C26.47 13.7867 26.1267 13.4767 25.44 13.15C25.24 13.0633 25.0633 12.9833 24.91 12.91C24.7633 12.83 24.5967 12.7233 24.41 12.59C24.23 12.45 24.08 12.3067 23.96 12.16C23.8467 12.0133 23.7467 11.83 23.66 11.61C23.58 11.39 23.5433 11.1533 23.55 10.9C23.55 10.34 23.7567 9.86333 24.17 9.47C24.5833 9.07667 25.13 8.88 25.81 8.88C26.7033 8.88 27.39 9.13667 27.87 9.65L27.01 10.85C26.8167 10.67 26.6467 10.5467 26.5 10.48C26.36 10.4133 26.1767 10.38 25.95 10.38C25.73 10.38 25.5567 10.4267 25.43 10.52C25.31 10.6133 25.25 10.74 25.25 10.9C25.25 11.08 25.32 11.24 25.46 11.38C25.6067 11.52 25.7867 11.6367 26 11.73C26.22 11.8167 26.4567 11.9267 26.71 12.06C26.9633 12.1933 27.1967 12.3367 27.41 12.49C27.63 12.6367 27.81 12.8467 27.95 13.12C28.0967 13.3867 28.17 13.7 28.17 14.06C28.17 14.66 27.94 15.1533 27.48 15.54C27.0333 15.9267 26.4633 16.12 25.77 16.12C25.2633 16.12 24.7833 16.0167 24.33 15.81C23.87 15.6033 23.56 15.3233 23.4 14.97L24.31 13.88C24.49 14.1133 24.7167 14.2967 24.99 14.43C25.2633 14.5567 25.5367 14.62 25.81 14.62C26.0167 14.62 26.1767 14.5733 26.29 14.48C26.41 14.38 26.47 14.2467 26.47 14.08ZM34.4064 14.11L35.0164 15.31C34.8031 15.55 34.4864 15.7467 34.0664 15.9C33.6531 16.0467 33.2097 16.12 32.7364 16.12C31.6497 16.12 30.7664 15.79 30.0864 15.13C29.4064 14.4567 29.0664 13.58 29.0664 12.5C29.0664 11.4467 29.3864 10.58 30.0264 9.9C30.6664 9.22 31.5664 8.88 32.7264 8.88C33.1664 8.88 33.5764 8.94667 33.9564 9.08C34.3364 9.21333 34.6397 9.39 34.8664 9.61L34.1564 10.81C33.6897 10.5233 33.2131 10.38 32.7264 10.38C32.1597 10.38 31.6897 10.5667 31.3164 10.94C30.9497 11.3067 30.7664 11.8267 30.7664 12.5C30.7664 13.1133 30.9631 13.6233 31.3564 14.03C31.7497 14.4233 32.2597 14.62 32.8864 14.62C33.4464 14.62 33.9531 14.45 34.4064 14.11ZM41.9691 16H40.3691V13.18H37.8191V16H36.2191V9H37.8191V11.68H40.3691V9H41.9691V16ZM48.118 16H43.868V9H48.018V10.5H45.468V11.73H47.718V13.23H45.468V14.5H48.118V16ZM49.8899 16H49.7199V9H49.8599C50.1599 9 50.4933 8.99667 50.8599 8.99C50.9999 8.99 51.1533 8.99 51.3199 8.99C51.4933 8.98333 51.6266 8.98 51.7199 8.98C51.8133 8.97333 51.8833 8.97 51.9299 8.97C53.2433 8.97 54.2266 9.29667 54.8799 9.95C55.5333 10.6033 55.8599 11.4333 55.8599 12.44C55.8599 13.4733 55.5099 14.33 54.8099 15.01C54.1166 15.6833 53.1299 16.02 51.8499 16.02C51.5899 16.02 51.2999 16.0167 50.9799 16.01C50.6599 16.0033 50.2966 16 49.8899 16ZM51.9099 10.47C51.6499 10.47 51.4533 10.48 51.3199 10.5V14.5C51.5066 14.5133 51.6999 14.52 51.8999 14.52C52.6066 14.52 53.1599 14.3367 53.5599 13.97C53.9599 13.6033 54.1599 13.0933 54.1599 12.44C54.1599 11.82 53.9566 11.3367 53.5499 10.99C53.1433 10.6433 52.5966 10.47 51.9099 10.47ZM61.4713 9H63.0713V13.11C63.0713 14.1167 62.798 14.87 62.2513 15.37C61.7113 15.87 61.0313 16.12 60.2113 16.12C59.278 16.12 58.538 15.8567 57.9913 15.33C57.438 14.7967 57.1613 14.0333 57.1613 13.04V9H58.7613V12.7C58.7613 13.98 59.2447 14.62 60.2113 14.62C60.658 14.62 60.978 14.47 61.1713 14.17C61.3713 13.87 61.4713 13.41 61.4713 12.79V9ZM69.3211 16H64.8711V9H66.4711V14.5H69.3211V16ZM74.6703 16H70.4203V9H74.5703V10.5H72.0203V11.73H74.2703V13.23H72.0203V14.5H74.6703V16ZM76.4423 16H76.2723V9H76.4123C76.7123 9 77.0456 8.99667 77.4123 8.99C77.5523 8.99 77.7056 8.99 77.8723 8.99C78.0456 8.98333 78.1789 8.98 78.2723 8.98C78.3656 8.97333 78.4356 8.97 78.4823 8.97C79.7956 8.97 80.7789 9.29667 81.4323 9.95C82.0856 10.6033 82.4123 11.4333 82.4123 12.44C82.4123 13.4733 82.0623 14.33 81.3623 15.01C80.6689 15.6833 79.6823 16.02 78.4023 16.02C78.1423 16.02 77.8523 16.0167 77.5323 16.01C77.2123 16.0033 76.8489 16 76.4423 16ZM78.4623 10.47C78.2023 10.47 78.0056 10.48 77.8723 10.5V14.5C78.0589 14.5133 78.2523 14.52 78.4523 14.52C79.1589 14.52 79.7123 14.3367 80.1123 13.97C80.5123 13.6033 80.7123 13.0933 80.7123 12.44C80.7123 11.82 80.5089 11.3367 80.1023 10.99C79.6956 10.6433 79.1489 10.47 78.4623 10.47Z" fill="#2E66E2"/>
</svg>
