<svg width="94" height="26" viewBox="0 0 94 26" fill="none" xmlns="http://www.w3.org/2000/svg">
<rect width="94" height="26" rx="13" fill="#FDE9E9"/>
<circle cx="14.5" cy="12.5" r="2.5" fill="#EA3A3A"/>
<path d="M28.74 14.11L29.35 15.31C29.1367 15.55 28.82 15.7467 28.4 15.9C27.9867 16.0467 27.5433 16.12 27.07 16.12C25.9833 16.12 25.1 15.79 24.42 15.13C23.74 14.4567 23.4 13.58 23.4 12.5C23.4 11.4467 23.72 10.58 24.36 9.9C25 9.22 25.9 8.88 27.06 8.88C27.5 8.88 27.91 8.94667 28.29 9.08C28.67 9.21333 28.9733 9.39 29.2 9.61L28.49 10.81C28.0233 10.5233 27.5467 10.38 27.06 10.38C26.4933 10.38 26.0233 10.5667 25.65 10.94C25.2833 11.3067 25.1 11.8267 25.1 12.5C25.1 13.1133 25.2967 13.6233 25.69 14.03C26.0833 14.4233 26.5933 14.62 27.22 14.62C27.78 14.62 28.2867 14.45 28.74 14.11ZM31.2627 16H29.6527L32.5627 9H33.9927L36.9027 16H35.1927L34.6127 14.53H31.8427L31.2627 16ZM34.0127 13.03L33.2327 11.05L32.4427 13.03H34.0127ZM43.9988 9V16H42.7188L39.3988 11.8V16H37.8988V9H39.1788L42.4988 13.22V9H43.9988ZM50.7392 14.11L51.3492 15.31C51.1359 15.55 50.8192 15.7467 50.3992 15.9C49.9859 16.0467 49.5426 16.12 49.0692 16.12C47.9826 16.12 47.0992 15.79 46.4192 15.13C45.7392 14.4567 45.3992 13.58 45.3992 12.5C45.3992 11.4467 45.7192 10.58 46.3592 9.9C46.9992 9.22 47.8992 8.88 49.0592 8.88C49.4992 8.88 49.9092 8.94667 50.2892 9.08C50.6692 9.21333 50.9726 9.39 51.1992 9.61L50.4892 10.81C50.0226 10.5233 49.5459 10.38 49.0592 10.38C48.4926 10.38 48.0226 10.5667 47.6492 10.94C47.2826 11.3067 47.0992 11.8267 47.0992 12.5C47.0992 13.1133 47.2959 13.6233 47.6892 14.03C48.0826 14.4233 48.5926 14.62 49.2192 14.62C49.7792 14.62 50.2859 14.45 50.7392 14.11ZM56.802 16H52.552V9H56.702V10.5H54.152V11.73H56.402V13.23H54.152V14.5H56.802V16ZM62.8539 16H58.4039V9H60.0039V14.5H62.8539V16ZM68.4031 16H63.9531V9H65.5531V14.5H68.4031V16ZM73.7523 16H69.5023V9H73.6523V10.5H71.1023V11.73H73.3523V13.23H71.1023V14.5H73.7523V16ZM75.5243 16H75.3543V9H75.4943C75.7943 9 76.1276 8.99667 76.4943 8.99C76.6343 8.99 76.7876 8.99 76.9543 8.99C77.1276 8.98333 77.261 8.98 77.3543 8.98C77.4476 8.97333 77.5176 8.97 77.5643 8.97C78.8776 8.97 79.861 9.29667 80.5143 9.95C81.1676 10.6033 81.4943 11.4333 81.4943 12.44C81.4943 13.4733 81.1443 14.33 80.4443 15.01C79.751 15.6833 78.7643 16.02 77.4843 16.02C77.2243 16.02 76.9343 16.0167 76.6143 16.01C76.2943 16.0033 75.931 16 75.5243 16ZM77.5443 10.47C77.2843 10.47 77.0876 10.48 76.9543 10.5V14.5C77.141 14.5133 77.3343 14.52 77.5343 14.52C78.241 14.52 78.7943 14.3367 79.1943 13.97C79.5943 13.6033 79.7943 13.0933 79.7943 12.44C79.7943 11.82 79.591 11.3367 79.1843 10.99C78.7776 10.6433 78.231 10.47 77.5443 10.47Z" fill="#EA3A3A"/>
</svg>
