<svg width="9" height="14" viewBox="0 0 9 14" fill="none" xmlns="http://www.w3.org/2000/svg">
<path d="M8.99935 9.50016C8.99935 10.6557 8.59379 11.6391 7.78268 12.4502C6.97157 13.2613 5.98824 13.6668 4.83268 13.6668C3.67713 13.6668 2.69379 13.2613 1.88268 12.4502C1.07157 11.6391 0.666016 10.6557 0.666016 9.50016V3.3335C0.666016 2.50016 0.957682 1.79183 1.54102 1.2085C2.12435 0.625163 2.83268 0.333496 3.66602 0.333496C4.49935 0.333496 5.20768 0.625163 5.79102 1.2085C6.37435 1.79183 6.66602 2.50016 6.66602 3.3335V9.16683C6.66602 9.67794 6.48824 10.1113 6.13268 10.4668C5.77713 10.8224 5.34379 11.0002 4.83268 11.0002C4.32157 11.0002 3.88824 10.8224 3.53268 10.4668C3.17713 10.1113 2.99935 9.67794 2.99935 9.16683V3.00016H4.33268V9.16683C4.33268 9.31127 4.3799 9.43072 4.47435 9.52516C4.56879 9.61961 4.68824 9.66683 4.83268 9.66683C4.97713 9.66683 5.09657 9.61961 5.19102 9.52516C5.28546 9.43072 5.33268 9.31127 5.33268 9.16683V3.3335C5.32157 2.86683 5.15768 2.47239 4.84102 2.15016C4.52435 1.82794 4.13268 1.66683 3.66602 1.66683C3.19935 1.66683 2.8049 1.82794 2.48268 2.15016C2.16046 2.47239 1.99935 2.86683 1.99935 3.3335V9.50016C1.98824 10.2891 2.26046 10.9585 2.81602 11.5085C3.37157 12.0585 4.04379 12.3335 4.83268 12.3335C5.61046 12.3335 6.27157 12.0585 6.81602 11.5085C7.36046 10.9585 7.64379 10.2891 7.66602 9.50016V3.00016H8.99935V9.50016Z" fill="black" fill-opacity="0.5"/>
</svg>
