<svg width="16" height="16" viewBox="0 0 16 16" fill="none" xmlns="http://www.w3.org/2000/svg">
<path d="M2.4425 4.57143V10.0714C2.4425 10.9382 3.15461 11.6429 4.03047 11.6429H14.3523C15.2281 11.6429 15.9402 10.9382 15.9402 10.0714V4.57143C15.9402 3.70469 15.2281 3 14.3523 3H4.03047C3.15461 3 2.4425 3.70469 2.4425 4.57143ZM4.03047 8.5C4.90634 8.5 5.61844 9.20469 5.61844 10.0714H4.03047V8.5ZM5.61844 4.57143C5.61844 5.43817 4.90634 6.14286 4.03047 6.14286V4.57143H5.61844ZM14.3523 8.5V10.0714H12.7643C12.7643 9.20469 13.4764 8.5 14.3523 8.5ZM12.7643 4.57143H14.3523V6.14286C13.4764 6.14286 12.7643 5.43817 12.7643 4.57143ZM7.20641 7.32143C7.20641 6.80047 7.41554 6.30084 7.78779 5.93247C8.16005 5.56409 8.66493 5.35714 9.19137 5.35714C9.71782 5.35714 10.2227 5.56409 10.595 5.93247C10.9672 6.30084 11.1763 6.80047 11.1763 7.32143C11.1763 7.84239 10.9672 8.34201 10.595 8.71039C10.2227 9.07876 9.71782 9.28571 9.19137 9.28571C8.66493 9.28571 8.16005 9.07876 7.78779 8.71039C7.41554 8.34201 7.20641 7.84239 7.20641 7.32143ZM1.25152 5.16071C1.25152 4.83415 0.986036 4.57143 0.656036 4.57143C0.326036 4.57143 0.0605469 4.83415 0.0605469 5.16071V11.0536C0.0605469 12.6815 1.39295 14 3.03799 14H12.9628C13.2928 14 13.5583 13.7373 13.5583 13.4107C13.5583 13.0842 13.2928 12.8214 12.9628 12.8214H3.03799C2.05047 12.8214 1.25152 12.0308 1.25152 11.0536V5.16071Z" fill="black" fill-opacity="0.5"/>
</svg>
