<svg width="28" height="28" viewBox="0 0 28 28" fill="none" xmlns="http://www.w3.org/2000/svg">
<path d="M20.3667 2.555C28.7297 7.97909 30.0921 17.4443 25.0857 23.4766C20.0793 29.5089 8.54074 29.1905 2.23677 24.3998C-4.0672 19.6092 4.9222 14.953 5.2461 7.97907C5.57001 1.0051 12.0036 -2.86908 20.3667 2.555Z" fill="#F7AD30"/>
<g clip-path="url(#clip0_1740_58006)">
<path d="M19.0909 22C19.5818 20.5047 20.5994 19.2297 21.6068 17.9594C21.8727 17.6266 22.1386 17.2937 22.3943 16.9562C23.4068 15.6203 24 14.0031 24 12.2547C24 7.69375 19.9705 4 15 4C10.0295 4 6 7.69375 6 12.25C6 13.9984 6.59318 15.6203 7.60568 16.9516C7.86136 17.2891 8.12727 17.6219 8.39318 17.9547C9.40568 19.225 10.4233 20.5047 10.9091 21.9953H19.0909V22ZM15 28C17.2602 28 19.0909 26.3219 19.0909 24.25V23.5H10.9091V24.25C10.9091 26.3219 12.7398 28 15 28ZM10.9091 12.25C10.9091 12.6625 10.5409 13 10.0909 13C9.64091 13 9.27273 12.6625 9.27273 12.25C9.27273 9.34844 11.8347 7 15 7C15.45 7 15.8182 7.3375 15.8182 7.75C15.8182 8.1625 15.45 8.5 15 8.5C12.7398 8.5 10.9091 10.1781 10.9091 12.25Z" fill="black"/>
</g>
<defs>
<clipPath id="clip0_1740_58006">
<rect width="24" height="24" fill="white" transform="translate(3 3.5)"/>
</clipPath>
</defs>
</svg>
