<svg width="16.000000" height="16.000000" viewBox="0 0 16 16" fill="none" xmlns="http://www.w3.org/2000/svg" xmlns:xlink="http://www.w3.org/1999/xlink">
	<desc>
			Created with Pixso.
	</desc>
	<defs>
		<clipPath id="clip14_7495">
			<rect id="Property 1=add appointment" rx="0.000000" width="15.000000" height="15.000000" transform="translate(0.500000 0.500000)" fill="white" fill-opacity="0"/>
		</clipPath>
	</defs>
	<rect id="Property 1=add appointment" rx="0.000000" width="15.000000" height="15.000000" transform="translate(0.500000 0.500000)" fill="#FFFFFF" fill-opacity="0"/>
	<g clip-path="url(#clip14_7495)">
		<path id="Vector" d="M5.33 1.33L5.33 4M10.66 1.33L10.66 4M14 8.66L14 4C14 3.64 13.85 3.3 13.6 3.05C13.35 2.8 13.02 2.66 12.66 2.66L3.33 2.66C2.97 2.66 2.64 2.8 2.39 3.05C2.14 3.3 2 3.64 2 4L2 13.33C2 13.68 2.14 14.02 2.39 14.27C2.64 14.52 2.97 14.66 3.33 14.66L8.66 14.66M2 6.66L14 6.66M10.66 12.66L14.66 12.66M12.66 10.66L12.66 14.66" stroke="#FFFFFF" stroke-opacity="1.000000" stroke-width="2.000000" stroke-linejoin="round" stroke-linecap="round"/>
	</g>
</svg>
