<svg width="9.000000" height="9.000000" viewBox="0 0 9 9" fill="none" xmlns="http://www.w3.org/2000/svg" xmlns:xlink="http://www.w3.org/1999/xlink">
	<desc>
			Created with Pixso.
	</desc>
	<defs/>
	<path id="call" d="M8.47 9C7.43 9 6.4 8.77 5.38 8.31C4.37 7.86 3.44 7.22 2.61 6.38C1.77 5.55 1.13 4.62 0.68 3.61C0.22 2.59 0 1.56 0 0.52C0 0.37 0.05 0.25 0.15 0.15C0.25 0.04 0.37 0 0.52 0L2.55 0C2.66 0 2.77 0.03 2.86 0.11C2.95 0.19 3 0.29 3.02 0.4L3.34 2.15C3.36 2.28 3.36 2.39 3.33 2.48C3.31 2.57 3.26 2.65 3.19 2.72L1.98 3.95C2.15 4.25 2.35 4.55 2.58 4.84C2.81 5.13 3.06 5.4 3.33 5.67C3.59 5.93 3.86 6.17 4.15 6.39C4.43 6.61 4.73 6.81 5.05 7L6.22 5.82C6.3 5.75 6.39 5.69 6.51 5.65C6.63 5.61 6.75 5.6 6.87 5.62L8.59 5.97C8.71 6 8.81 6.06 8.88 6.15C8.96 6.24 9 6.34 9 6.45L9 8.47C9 8.62 8.94 8.75 8.84 8.84C8.75 8.95 8.62 9 8.47 9ZM1.51 3L2.33 2.17L2.12 1L1.01 1C1.05 1.34 1.11 1.67 1.18 2.01C1.26 2.34 1.37 2.67 1.51 3ZM5.98 7.47C6.31 7.61 6.64 7.72 6.98 7.81C7.31 7.89 7.65 7.95 8 7.97L8 6.87L6.82 6.63L5.98 7.47Z" fill="#F7AD30" fill-opacity="1.000000" fill-rule="nonzero"/>
</svg>
