<svg width="16" height="14" viewBox="0 0 16 14" fill="none" xmlns="http://www.w3.org/2000/svg">
<path d="M0.59082 0.578125C0.705354 0.432646 0.901764 0.392399 1.06055 0.470703L1.12598 0.511719L3.08594 2.02637L3.09766 2.01172L3.08301 2.03125H9.20508C9.85419 2.03125 10.3807 2.55699 10.3809 3.20605V7.66602L10.3887 7.67188L11.1885 8.28906L11.2197 8.31348V4.85352L13.9512 2.96973C14.4712 2.61333 15.1805 2.97767 15.1807 3.59863V10.0234C15.1807 10.4468 14.8451 10.7479 14.4688 10.7822L14.4189 10.7861L14.458 10.8164L15.833 11.8789C15.9786 11.9912 16.0205 12.1893 15.9414 12.3467L15.9004 12.4121H15.8994L15.4102 13.0439C15.2957 13.1896 15.0993 13.2296 14.9404 13.1514L14.875 13.1113L10.4121 9.66113L1.08008 2.44629L0.166992 1.74121C0.021432 1.62892 -0.0188753 1.43234 0.0595703 1.27344L0.100586 1.20801L0.59082 0.578125ZM9.91309 11.3486C9.71472 11.4995 9.47136 11.5918 9.20508 11.5918H1.99512C1.34596 11.5917 0.819336 11.0652 0.819336 10.416V4.31738L9.91309 11.3486Z" fill="black" stroke="black" stroke-width="0.0390625"/>
</svg>
