<svg width="20" height="21" viewBox="0 0 20 21" fill="none" xmlns="http://www.w3.org/2000/svg">
<path d="M10 20.3105C8.61667 20.3105 7.31667 20.048 6.1 19.523C4.88333 18.998 3.825 18.2855 2.925 17.3855C2.025 16.4855 1.3125 15.4272 0.7875 14.2105C0.2625 12.9939 0 11.6939 0 10.3105C0 8.92721 0.2625 7.62721 0.7875 6.41055C1.3125 5.19388 2.025 4.13555 2.925 3.23555C3.825 2.33555 4.88333 1.62305 6.1 1.09805C7.31667 0.573047 8.61667 0.310547 10 0.310547C11.3833 0.310547 12.6833 0.573047 13.9 1.09805C15.1167 1.62305 16.175 2.33555 17.075 3.23555C17.975 4.13555 18.6875 5.19388 19.2125 6.41055C19.7375 7.62721 20 8.92721 20 10.3105C20 11.6939 19.7375 12.9939 19.2125 14.2105C18.6875 15.4272 17.975 16.4855 17.075 17.3855C16.175 18.2855 15.1167 18.998 13.9 19.523C12.6833 20.048 11.3833 20.3105 10 20.3105ZM10 18.3105C10.9 18.3105 11.7667 18.1647 12.6 17.873C13.4333 17.5814 14.2 17.1605 14.9 16.6105L3.7 5.41055C3.15 6.11055 2.72917 6.87721 2.4375 7.71055C2.14583 8.54388 2 9.41055 2 10.3105C2 12.5439 2.775 14.4355 4.325 15.9855C5.875 17.5355 7.76667 18.3105 10 18.3105ZM16.3 15.2105C16.85 14.5105 17.2708 13.7439 17.5625 12.9105C17.8542 12.0772 18 11.2105 18 10.3105C18 8.07721 17.225 6.18555 15.675 4.63555C14.125 3.08555 12.2333 2.31055 10 2.31055C9.1 2.31055 8.23333 2.45638 7.4 2.74805C6.56667 3.03971 5.8 3.46055 5.1 4.01055L16.3 15.2105Z" fill="black"/>
</svg>
