<svg width="14" height="14" viewBox="0 0 14 14" fill="none" xmlns="http://www.w3.org/2000/svg">
<path d="M10.5003 12.25C10.5003 11.0123 10.0087 9.82534 9.13349 8.95017C8.25832 8.075 7.07134 7.58333 5.83366 7.58333M5.83366 7.58333C4.59598 7.58333 3.409 8.075 2.53383 8.95017C1.65866 9.82534 1.16699 11.0123 1.16699 12.25M5.83366 7.58333C7.44449 7.58333 8.75033 6.2775 8.75033 4.66667C8.75033 3.05584 7.44449 1.75 5.83366 1.75C4.22283 1.75 2.91699 3.05584 2.91699 4.66667C2.91699 6.2775 4.22283 7.58333 5.83366 7.58333ZM12.8337 11.6666C12.8337 9.7008 11.667 7.87497 10.5004 6.99997C10.8838 6.71225 11.1905 6.33444 11.3932 5.89996C11.5959 5.46548 11.6883 4.98774 11.6624 4.50902C11.6364 4.0303 11.4928 3.56535 11.2444 3.15534C10.9959 2.74532 10.6502 2.40287 10.2379 2.1583" stroke="black" stroke-width="2" stroke-linecap="round" stroke-linejoin="round"/>
</svg>
