<svg width="12" height="13" viewBox="0 0 12 13" fill="none" xmlns="http://www.w3.org/2000/svg">
<path fill-rule="evenodd" clip-rule="evenodd" d="M5.625 4.25L6.375 4.25L6.375 6.34467L7.76516 7.73484L7.23483 8.26517L5.625 6.65533L5.625 4.25Z" fill="#2E66E2" stroke="#2E66E2" stroke-width="0.2"/>
<path fill-rule="evenodd" clip-rule="evenodd" d="M6 10.25C8.07107 10.25 9.75 8.57107 9.75 6.5C9.75 4.42893 8.07107 2.75 6 2.75C3.92893 2.75 2.25 4.42893 2.25 6.5C2.25 8.57107 3.92893 10.25 6 10.25ZM6 11C8.48528 11 10.5 8.98528 10.5 6.5C10.5 4.01472 8.48528 2 6 2C3.51472 2 1.5 4.01472 1.5 6.5C1.5 8.98528 3.51472 11 6 11Z" fill="#2E66E2" stroke="#2E66E2" stroke-width="0.2"/>
</svg>
