<svg width="22.009888" height="22.002441" viewBox="0 0 22.0099 22.0024" fill="none" xmlns="http://www.w3.org/2000/svg" xmlns:xlink="http://www.w3.org/1999/xlink">
	<desc>
			Created with Pixso.
	</desc>
	<defs/>
	<path id="Vector" d="M4.79 10.3L0.99 21L11.69 17.21M2.99 2L3 2M20.99 7L21 7M13.99 1L14 1M20.99 19L21 19M20.99 1L18.75 1.75C18.12 1.96 17.57 2.39 17.22 2.96C16.86 3.53 16.71 4.2 16.79 4.87C16.89 5.73 16.22 6.5 15.34 6.5L14.96 6.5C14.1 6.5 13.36 7.1 13.2 7.94L12.99 9M20.99 12L20.17 11.67C19.31 11.33 18.35 11.87 18.19 12.78C18.08 13.48 17.47 14 16.76 14L15.99 14M9.99 1L10.32 1.82C10.66 2.68 10.12 3.64 9.21 3.8C8.51 3.9 7.99 4.52 7.99 5.23L7.99 6M11.99 17C11.16 17.83 8.92 16.93 6.99 15C5.06 13.07 4.16 10.83 4.99 10C5.82 9.17 8.06 10.07 9.99 12C11.92 13.93 12.83 16.17 11.99 17Z" stroke="#000000" stroke-opacity="0.500000" stroke-width="2.000000" stroke-linejoin="round" stroke-linecap="round"/>
</svg>
