<svg width="22.000549" height="22.000488" viewBox="0 0 22.0005 22.0005" fill="none" xmlns="http://www.w3.org/2000/svg" xmlns:xlink="http://www.w3.org/1999/xlink">
	<desc>
			Created with Pixso.
	</desc>
	<defs/>
	<path id="Vector" d="M8.41 13.58C8.16 13.33 7.84 13.15 7.49 13.06L1.36 11.48C1.25 11.45 1.16 11.38 1.1 11.3C1.03 11.21 1 11.1 1 11C1 10.89 1.03 10.78 1.1 10.69C1.16 10.61 1.25 10.54 1.36 10.51L7.49 8.93C7.84 8.84 8.16 8.66 8.41 8.41C8.66 8.16 8.84 7.84 8.93 7.5L10.51 1.36C10.54 1.26 10.6 1.16 10.69 1.1C10.78 1.03 10.88 1 10.99 1C11.1 1 11.21 1.03 11.3 1.1C11.38 1.16 11.45 1.26 11.48 1.36L13.06 7.5C13.15 7.84 13.33 8.16 13.58 8.41C13.83 8.66 14.15 8.84 14.49 8.93L20.63 10.51C20.73 10.54 20.83 10.61 20.89 10.69C20.96 10.78 21 10.89 21 11C21 11.1 20.96 11.21 20.89 11.3C20.83 11.39 20.73 11.45 20.63 11.48L14.49 13.06C14.15 13.15 13.83 13.33 13.58 13.58C13.33 13.83 13.15 14.15 13.06 14.5L11.47 20.63C11.45 20.74 11.38 20.83 11.3 20.89C11.21 20.96 11.1 21 10.99 21C10.88 21 10.78 20.96 10.69 20.89C10.6 20.83 10.54 20.74 10.51 20.63L8.93 14.5C8.84 14.15 8.66 13.83 8.41 13.58ZM18.99 2L18.99 6M20.99 4L16.99 4M2.99 16L2.99 18M3.99 17L1.99 17" stroke="#000000" stroke-opacity="0.500000" stroke-width="2.000000" stroke-linejoin="round" stroke-linecap="round"/>
</svg>
