<svg width="22.000000" height="20.000000" viewBox="0 0 22 20" fill="none" xmlns="http://www.w3.org/2000/svg" xmlns:xlink="http://www.w3.org/1999/xlink">
	<desc>
			Created with Pixso.
	</desc>
	<defs/>
	<path id="Vector" d="M17 5L17 3C17 2.46 16.78 1.96 16.41 1.58C16.03 1.21 15.53 1 15 1L3 1C2.46 1 1.96 1.21 1.58 1.58C1.21 1.96 1 2.46 1 3L1 10C1 10.53 1.21 11.03 1.58 11.41C1.96 11.78 2.46 12 3 12L11 12M9 16L9 12.04L9 15.19M6 16L11 16M19 9C20.1 9 21 9.89 21 11L21 17C21 18.1 20.1 19 19 19L17 19C15.89 19 15 18.1 15 17L15 11C15 9.89 15.89 9 17 9L19 9Z" stroke="#000000" stroke-opacity="0.500000" stroke-width="2.000000" stroke-linejoin="round" stroke-linecap="round"/>
</svg>
