<svg width="21.999939" height="20.000000" viewBox="0 0 21.9999 20" fill="none" xmlns="http://www.w3.org/2000/svg" xmlns:xlink="http://www.w3.org/1999/xlink">
	<desc>
			Created with Pixso.
	</desc>
	<defs/>
	<path id="Vector" d="M17.99 6L20.99 14C20.12 14.65 19.08 15 17.99 15C16.91 15 15.86 14.65 14.99 14L17.99 6ZM3.99 6L6.99 14C6.12 14.65 5.07 15 3.99 15C2.91 15 1.86 14.65 0.99 14L3.99 6ZM5.99 19L15.99 19M10.99 1L10.99 19M1.99 5L3.99 5C5.99 5 8.99 4 10.99 3C12.99 4 15.99 5 17.99 5L19.99 5" stroke="#000000" stroke-opacity="0.500000" stroke-width="2.000000" stroke-linejoin="round" stroke-linecap="round"/>
</svg>
