<svg width="22.007324" height="20.000000" viewBox="0 0 22.0073 20" fill="none" xmlns="http://www.w3.org/2000/svg" xmlns:xlink="http://www.w3.org/1999/xlink">
	<desc>
			Created with Pixso.
	</desc>
	<defs/>
	<path id="Vector" d="M11 11L11.01 11M15 5L15 3C15 2.46 14.79 1.96 14.41 1.58C14.04 1.21 13.53 1 13 1L9 1C8.47 1 7.96 1.21 7.58 1.58C7.21 1.96 7 2.46 7 3L7 5M21 12C18.03 13.95 14.55 15 11 15C7.44 15 3.97 13.95 1 12M19 5C20.1 5 21 5.89 21 7L21 17C21 18.1 20.1 19 19 19L3 19C1.89 19 1 18.1 1 17L1 7C1 5.89 1.89 5 3 5L19 5Z" stroke="#000000" stroke-opacity="0.500000" stroke-width="2.000000" stroke-linejoin="round" stroke-linecap="round"/>
</svg>
