<svg width="20.000000" height="20.000000" viewBox="0 0 20 20" fill="none" xmlns="http://www.w3.org/2000/svg" xmlns:xlink="http://www.w3.org/1999/xlink">
	<desc>
			Created with Pixso.
	</desc>
	<defs/>
	<path id="Vector" d="M12.58 1.58C12.21 1.96 12 2.46 12 3L12 9C12 9.53 12.21 10.03 12.58 10.41C12.96 10.78 13.46 11 14 11C14.26 11 14.51 11.1 14.7 11.29C14.89 11.48 15 11.73 15 12L15 13C15 13.53 14.78 14.03 14.41 14.41C14.03 14.78 13.53 15 13 15C12.73 15 12.48 15.1 12.29 15.29C12.1 15.48 12 15.73 12 16L12 18C12 18.26 12.1 18.51 12.29 18.7C12.48 18.89 12.73 19 13 19C14.59 19 16.11 18.36 17.24 17.24C18.36 16.11 19 14.59 19 13L19 3C19 2.46 18.78 1.96 18.41 1.58C18.03 1.21 17.53 1 17 1L14 1C13.46 1 12.96 1.21 12.58 1.58ZM1.58 1.58C1.21 1.96 1 2.46 1 3L1 9C1 9.53 1.21 10.03 1.58 10.41C1.96 10.78 2.46 11 3 11C3.26 11 3.51 11.1 3.7 11.29C3.89 11.48 4 11.73 4 12L4 13C4 13.53 3.78 14.03 3.41 14.41C3.03 14.78 2.53 15 2 15C1.73 15 1.48 15.1 1.29 15.29C1.1 15.48 1 15.73 1 16L1 18C1 18.26 1.1 18.51 1.29 18.7C1.48 18.89 1.73 19 2 19C3.59 19 5.11 18.36 6.24 17.24C7.36 16.11 8 14.59 8 13L8 3C8 2.46 7.78 1.96 7.41 1.58C7.03 1.21 6.53 1 6 1L3 1C2.46 1 1.96 1.21 1.58 1.58Z" stroke="#000000" stroke-opacity="0.500000" stroke-width="2.000000" stroke-linejoin="round"/>
</svg>
