<svg width="22" height="19" viewBox="0 0 22 19" fill="none" xmlns="http://www.w3.org/2000/svg">
<path d="M1 7.0001V3.0001C1 2.46966 1.21071 1.96096 1.58579 1.58588C1.96086 1.21081 2.46957 1.0001 3 1.0001H6.9C7.23449 0.996817 7.56445 1.07748 7.8597 1.23472C8.15495 1.39195 8.40604 1.62072 8.59 1.9001L9.4 3.1001C9.58211 3.37663 9.83003 3.60362 10.1215 3.7607C10.413 3.91778 10.7389 4.00004 11.07 4.0001H19C19.5304 4.0001 20.0391 4.21081 20.4142 4.58588C20.7893 4.96096 21 5.46966 21 6.0001V16.0001C21 16.5305 20.7893 17.0392 20.4142 17.4143C20.0391 17.7894 19.5304 18.0001 19 18.0001H3C2.46957 18.0001 1.96086 17.7894 1.58579 17.4143C1.21071 17.0392 1 16.5305 1 16.0001V13.0001C1 12.4697 1.21071 11.961 1.58579 11.5859C1.96086 11.2108 2.46957 11.0001 3 11.0001H10M10 11.0001L7 14M10 11.0001L7 8" stroke="black" stroke-opacity="0.5" stroke-width="2" stroke-linecap="round" stroke-linejoin="round"/>
</svg>
