<svg width="84" height="26" viewBox="0 0 84 26" fill="none" xmlns="http://www.w3.org/2000/svg">
<rect width="84" height="26" rx="13" fill="#FEF6E8"/>
<circle cx="14.5" cy="12.5" r="2.5" fill="#F7AD30"/>
<path d="M30 9V16H28.72L25.4 11.8V16H23.9V9H25.18L28.5 13.22V9H30ZM31.4004 12.5C31.4004 11.4667 31.7437 10.6067 32.4304 9.92C33.1237 9.22667 34.0204 8.88 35.1204 8.88C36.2137 8.88 37.1037 9.21 37.7904 9.87C38.4904 10.53 38.8404 11.4067 38.8404 12.5C38.8404 13.5533 38.4871 14.42 37.7804 15.1C37.0804 15.78 36.1937 16.12 35.1204 16.12C34.0337 16.12 33.1404 15.79 32.4404 15.13C31.7471 14.47 31.4004 13.5933 31.4004 12.5ZM33.1004 12.5C33.1004 13.0933 33.2971 13.5967 33.6904 14.01C34.0771 14.4167 34.5537 14.62 35.1204 14.62C35.7604 14.62 36.2571 14.4233 36.6104 14.03C36.9637 13.6233 37.1404 13.1133 37.1404 12.5C37.1404 11.8667 36.9471 11.3567 36.5604 10.97C36.1671 10.5767 35.6871 10.38 35.1204 10.38C34.5337 10.38 34.0504 10.5767 33.6704 10.97C33.2904 11.3633 33.1004 11.8733 33.1004 12.5ZM41.2398 10.5H39.1398V9H44.9398V10.5H42.8398V16H41.2398V10.5ZM49.7379 13.62V16H48.1379V9C48.4446 9 48.7812 8.99667 49.1479 8.99C49.5212 8.98333 49.8979 8.98 50.2779 8.98C51.2646 8.98 51.9846 9.2 52.4379 9.64C52.8846 10.0667 53.1079 10.62 53.1079 11.3C53.1079 11.9533 52.8712 12.51 52.3979 12.97C51.9246 13.4233 51.2979 13.65 50.5179 13.65C50.1712 13.65 49.9112 13.64 49.7379 13.62ZM50.4379 10.48C50.4312 10.48 50.4012 10.4833 50.3479 10.49C50.2946 10.49 50.2112 10.4933 50.0979 10.5C49.9846 10.5 49.8646 10.5 49.7379 10.5V12.1C50.0179 12.1333 50.2612 12.15 50.4679 12.15C50.7412 12.15 50.9646 12.08 51.1379 11.94C51.3179 11.7933 51.4079 11.5767 51.4079 11.29C51.4079 10.75 51.0846 10.48 50.4379 10.48ZM54.5729 16H52.9629L55.8729 9H57.3029L60.2129 16H58.5029L57.9229 14.53H55.1529L54.5729 16ZM57.3229 13.03L56.5429 11.05L55.7529 13.03H57.3229ZM62.909 16H61.309V9H62.909V16ZM65.0825 16H64.9125V9H65.0525C65.3525 9 65.6858 8.99667 66.0525 8.99C66.1925 8.99 66.3458 8.99 66.5125 8.99C66.6858 8.98333 66.8192 8.98 66.9125 8.98C67.0058 8.97333 67.0758 8.97 67.1225 8.97C68.4358 8.97 69.4192 9.29667 70.0725 9.95C70.7258 10.6033 71.0525 11.4333 71.0525 12.44C71.0525 13.4733 70.7025 14.33 70.0025 15.01C69.3092 15.6833 68.3225 16.02 67.0425 16.02C66.7825 16.02 66.4925 16.0167 66.1725 16.01C65.8525 16.0033 65.4892 16 65.0825 16ZM67.1025 10.47C66.8425 10.47 66.6458 10.48 66.5125 10.5V14.5C66.6992 14.5133 66.8925 14.52 67.0925 14.52C67.7992 14.52 68.3525 14.3367 68.7525 13.97C69.1525 13.6033 69.3525 13.0933 69.3525 12.44C69.3525 11.82 69.1492 11.3367 68.7425 10.99C68.3358 10.6433 67.7892 10.47 67.1025 10.47Z" fill="#F7AD30"/>
</svg>
