<svg width="90" height="26" viewBox="0 0 90 26" fill="none" xmlns="http://www.w3.org/2000/svg">
<rect width="90" height="26" rx="13" fill="#E8EEFC"/>
<circle cx="14.5" cy="12.5" r="2.5" fill="#2E66E2"/>
<path d="M25.5 13.55V16H23.9V9C24.28 9 24.7 8.99667 25.16 8.99C25.62 8.98333 25.9933 8.98 26.28 8.98C28.0067 8.98 28.87 9.72667 28.87 11.22C28.87 12.18 28.4767 12.8533 27.69 13.24L29.73 16H27.79L26.09 13.55H25.5ZM26.2 10.48C26.1933 10.48 26.1633 10.4833 26.11 10.49C26.0567 10.49 25.9733 10.4933 25.86 10.5C25.7467 10.5 25.6267 10.5 25.5 10.5V12.05H26.08C26.8067 12.05 27.17 11.78 27.17 11.24C27.17 10.7333 26.8467 10.48 26.2 10.48ZM34.9785 16H30.7285V9H34.8785V10.5H32.3285V11.73H34.5785V13.23H32.3285V14.5H34.9785V16ZM38.1805 16H36.5805V9H40.6305V10.5H38.1805V11.98H40.3305V13.48H38.1805V16ZM46.242 9H47.842V13.11C47.842 14.1167 47.5687 14.87 47.022 15.37C46.482 15.87 45.802 16.12 44.982 16.12C44.0487 16.12 43.3087 15.8567 42.762 15.33C42.2087 14.7967 41.932 14.0333 41.932 13.04V9H43.532V12.7C43.532 13.98 44.0154 14.62 44.982 14.62C45.4287 14.62 45.7487 14.47 45.942 14.17C46.142 13.87 46.242 13.41 46.242 12.79V9ZM55.7418 9V16H54.4618L51.1418 11.8V16H49.6418V9H50.9218L54.2418 13.22V9H55.7418ZM57.8122 16H57.6422V9H57.7822C58.0822 9 58.4155 8.99667 58.7822 8.99C58.9222 8.99 59.0755 8.99 59.2422 8.99C59.4155 8.98333 59.5489 8.98 59.6422 8.98C59.7355 8.97333 59.8055 8.97 59.8522 8.97C61.1655 8.97 62.1489 9.29667 62.8022 9.95C63.4555 10.6033 63.7822 11.4333 63.7822 12.44C63.7822 13.4733 63.4322 14.33 62.7322 15.01C62.0389 15.6833 61.0522 16.02 59.7722 16.02C59.5122 16.02 59.2222 16.0167 58.9022 16.01C58.5822 16.0033 58.2189 16 57.8122 16ZM59.8322 10.47C59.5722 10.47 59.3755 10.48 59.2422 10.5V14.5C59.4289 14.5133 59.6222 14.52 59.8222 14.52C60.5289 14.52 61.0822 14.3367 61.4822 13.97C61.8822 13.6033 62.0822 13.0933 62.0822 12.44C62.0822 11.82 61.8789 11.3367 61.4722 10.99C61.0655 10.6433 60.5189 10.47 59.8322 10.47ZM69.4336 16H65.1836V9H69.3336V10.5H66.7836V11.73H69.0336V13.23H66.7836V14.5H69.4336V16ZM71.2055 16H71.0355V9H71.1755C71.4755 9 71.8089 8.99667 72.1755 8.99C72.3155 8.99 72.4689 8.99 72.6355 8.99C72.8089 8.98333 72.9422 8.98 73.0355 8.98C73.1289 8.97333 73.1989 8.97 73.2455 8.97C74.5589 8.97 75.5422 9.29667 76.1955 9.95C76.8489 10.6033 77.1755 11.4333 77.1755 12.44C77.1755 13.4733 76.8255 14.33 76.1255 15.01C75.4322 15.6833 74.4455 16.02 73.1655 16.02C72.9055 16.02 72.6155 16.0167 72.2955 16.01C71.9755 16.0033 71.6122 16 71.2055 16ZM73.2255 10.47C72.9655 10.47 72.7689 10.48 72.6355 10.5V14.5C72.8222 14.5133 73.0155 14.52 73.2155 14.52C73.9222 14.52 74.4755 14.3367 74.8755 13.97C75.2755 13.6033 75.4755 13.0933 75.4755 12.44C75.4755 11.82 75.2722 11.3367 74.8655 10.99C74.4589 10.6433 73.9122 10.47 73.2255 10.47Z" fill="#2E66E2"/>
</svg>
