<svg width="15" height="15" viewBox="0 0 15 15" fill="none" xmlns="http://www.w3.org/2000/svg">
<path d="M0.875 9.83496H4.75C5.15214 9.83496 5.47559 10.1584 5.47559 10.5605V14.4355C5.47559 14.6283 5.31777 14.7861 5.125 14.7861H3.875C3.68223 14.7861 3.52441 14.6283 3.52441 14.4355V11.7861H0.875C0.682234 11.7861 0.524414 11.6283 0.524414 11.4355V10.1855C0.524414 9.99278 0.682234 9.83496 0.875 9.83496ZM10.25 9.83496H14.125C14.3178 9.83496 14.4756 9.99278 14.4756 10.1855V11.4355C14.4756 11.6283 14.3178 11.7861 14.125 11.7861H11.4756V14.4355C11.4756 14.6283 11.3178 14.7861 11.125 14.7861H9.875C9.68223 14.7861 9.52441 14.6283 9.52441 14.4355V10.5605C9.52441 10.1584 9.84786 9.83496 10.25 9.83496ZM3.875 0.834961H5.125C5.31777 0.834961 5.47559 0.99278 5.47559 1.18555V5.06055C5.47559 5.46269 5.15214 5.78613 4.75 5.78613H0.875C0.682234 5.78613 0.524414 5.62831 0.524414 5.43555V4.18555C0.524414 3.99278 0.682234 3.83496 0.875 3.83496H3.52441V1.18555C3.52441 0.99278 3.68223 0.834961 3.875 0.834961ZM9.875 0.834961H11.125C11.3178 0.834961 11.4756 0.99278 11.4756 1.18555V3.83496H14.125C14.3178 3.83496 14.4756 3.99278 14.4756 4.18555V5.43555C14.4756 5.62831 14.3178 5.78613 14.125 5.78613H10.25C9.84786 5.78613 9.52441 5.46269 9.52441 5.06055V1.18555C9.52441 0.99278 9.68223 0.834961 9.875 0.834961Z" fill="black" stroke="black" stroke-width="0.0488281"/>
</svg>
