<svg width="17" height="16" viewBox="0 0 17 16" fill="none" xmlns="http://www.w3.org/2000/svg">
<path d="M8.33301 0.25C4.0531 0.25 0.583008 3.72134 0.583008 8C0.583008 12.2812 4.0531 15.75 8.33301 15.75C12.6129 15.75 16.083 12.2812 16.083 8C16.083 3.72134 12.6129 0.25 8.33301 0.25ZM8.33301 3.6875C9.05788 3.6875 9.64551 4.27513 9.64551 5C9.64551 5.72487 9.05788 6.3125 8.33301 6.3125C7.60813 6.3125 7.02051 5.72487 7.02051 5C7.02051 4.27513 7.60813 3.6875 8.33301 3.6875ZM10.083 11.625C10.083 11.8321 9.9151 12 9.70801 12H6.95801C6.75091 12 6.58301 11.8321 6.58301 11.625V10.875C6.58301 10.6679 6.75091 10.5 6.95801 10.5H7.33301V8.5H6.95801C6.75091 8.5 6.58301 8.33209 6.58301 8.125V7.375C6.58301 7.16791 6.75091 7 6.95801 7H8.95801C9.1651 7 9.33301 7.16791 9.33301 7.375V10.5H9.70801C9.9151 10.5 10.083 10.6679 10.083 10.875V11.625Z" fill="black" fill-opacity="0.3"/>
</svg>
