<svg width="14" height="14" viewBox="0 0 14 14" fill="none" xmlns="http://www.w3.org/2000/svg">
<path d="M13.5 12H12.7684L8.68375 0.677812C8.61646 0.480106 8.48897 0.308427 8.31915 0.186865C8.14933 0.0653032 7.94572 -4.15642e-05 7.73688 1.98351e-08H6.26312C6.05428 -4.15642e-05 5.85067 0.0653032 5.68085 0.186865C5.51103 0.308427 5.38354 0.480106 5.31625 0.677812L1.23156 12H0.5C0.367392 12 0.240215 12.0527 0.146447 12.1464C0.0526784 12.2402 0 12.3674 0 12.5L0 13.5C0 13.6326 0.0526784 13.7598 0.146447 13.8536C0.240215 13.9473 0.367392 14 0.5 14H4.5C4.63261 14 4.75979 13.9473 4.85355 13.8536C4.94732 13.7598 5 13.6326 5 13.5V12.5C5 12.3674 4.94732 12.2402 4.85355 12.1464C4.75979 12.0527 4.63261 12 4.5 12H3.88812L4.61625 10H9.38375L10.1119 12H9.5C9.36739 12 9.24021 12.0527 9.14645 12.1464C9.05268 12.2402 9 12.3674 9 12.5V13.5C9 13.6326 9.05268 13.7598 9.14645 13.8536C9.24021 13.9473 9.36739 14 9.5 14H13.5C13.6326 14 13.7598 13.9473 13.8536 13.8536C13.9473 13.7598 14 13.6326 14 13.5V12.5C14 12.3674 13.9473 12.2402 13.8536 12.1464C13.7598 12.0527 13.6326 12 13.5 12ZM5.52656 7.5L7 3.45344L8.47344 7.5H5.52656Z" fill="black" fill-opacity="0.5"/>
<path d="M6.2627 0.0244141H7.7373C7.94089 0.0244621 8.13914 0.0885275 8.30469 0.207031C8.42887 0.295927 8.53015 0.411958 8.60059 0.545898L8.66016 0.685547L8.66113 0.686523L12.7451 12.0078L12.751 12.0244H13.5C13.6261 12.0244 13.7467 12.0749 13.8359 12.1641C13.9251 12.2533 13.9756 12.3739 13.9756 12.5V13.5C13.9756 13.6261 13.9251 13.7467 13.8359 13.8359C13.7467 13.9251 13.6261 13.9756 13.5 13.9756H9.5C9.37387 13.9756 9.25325 13.9251 9.16406 13.8359C9.07487 13.7467 9.02441 13.6261 9.02441 13.5V12.5C9.02441 12.3739 9.07487 12.2533 9.16406 12.1641C9.25325 12.0749 9.37387 12.0244 9.5 12.0244H10.1465L10.1348 11.9912L9.40625 9.99121L9.40039 9.97559H4.59961L4.59375 9.99121L3.86523 11.9912L3.85352 12.0244H4.5C4.62613 12.0244 4.74675 12.0749 4.83594 12.1641C4.92513 12.2533 4.97559 12.3739 4.97559 12.5V13.5C4.97559 13.6261 4.92513 13.7467 4.83594 13.8359C4.74675 13.9251 4.62613 13.9756 4.5 13.9756H0.5C0.373867 13.9756 0.253252 13.9251 0.164062 13.8359C0.074873 13.7467 0.0244141 13.6261 0.0244141 13.5V12.5C0.0244141 12.3739 0.074873 12.2533 0.164062 12.1641C0.253252 12.0749 0.373867 12.0244 0.5 12.0244H1.24902L1.25488 12.0078L5.33887 0.686523L5.33984 0.685547C5.40551 0.492779 5.52972 0.325571 5.69531 0.207031C5.81946 0.118163 5.96188 0.0596395 6.11133 0.0361328L6.2627 0.0244141ZM6.97754 3.44531L5.50391 7.49121L5.49121 7.52441H8.50879L8.49609 7.49121L7.02246 3.44531L7 3.38184L6.97754 3.44531Z" stroke="black" stroke-opacity="0.5" stroke-width="0.0488281"/>
</svg>
