<svg width="29" height="28" viewBox="0 0 29 28" fill="none" xmlns="http://www.w3.org/2000/svg">
<path d="M20.6167 2.555C28.9797 7.97909 30.3421 17.4443 25.3357 23.4766C20.3293 29.5089 8.79074 29.1905 2.48677 24.3998C-3.8172 19.6092 5.1722 14.953 5.4961 7.97907C5.82001 1.0051 12.2536 -2.86908 20.6167 2.555Z" fill="#F7AD30"/>
<g clip-path="url(#clip0_3041_12887)">
<path d="M25.4734 3.5H5.02187C4.04219 3.5 3.25 4.27344 3.25 5.22969V25.7656C3.25 26.7219 4.04219 27.5 5.02187 27.5H25.4734C26.4531 27.5 27.25 26.7219 27.25 25.7703V5.22969C27.25 4.27344 26.4531 3.5 25.4734 3.5ZM10.3703 23.9516H6.80781V12.4953H10.3703V23.9516ZM8.58906 10.9344C7.44531 10.9344 6.52188 10.0109 6.52188 8.87187C6.52188 7.73281 7.44531 6.80937 8.58906 6.80937C9.72813 6.80937 10.6516 7.73281 10.6516 8.87187C10.6516 10.0062 9.72813 10.9344 8.58906 10.9344ZM23.7016 23.9516H20.1437V18.3828C20.1437 17.0562 20.1203 15.3453 18.2922 15.3453C16.4406 15.3453 16.1594 16.7937 16.1594 18.2891V23.9516H12.6063V12.4953H16.0187V14.0609H16.0656C16.5391 13.1609 17.7016 12.2094 19.4313 12.2094C23.0359 12.2094 23.7016 14.5813 23.7016 17.6656V23.9516Z" fill="black"/>
</g>
<defs>
<clipPath id="clip0_3041_12887">
<rect width="24" height="24" fill="white" transform="translate(3.25 3.5)"/>
</clipPath>
</defs>
</svg>
