<svg width="12" height="13" viewBox="0 0 12 13" fill="none" xmlns="http://www.w3.org/2000/svg">
<path fill-rule="evenodd" clip-rule="evenodd" d="M6 2C5.07174 2 4.1815 2.36875 3.52513 3.02513C2.86875 3.6815 2.5 4.57174 2.5 5.5C2.5 6.57966 3.10834 7.74333 3.89887 8.78199C4.66301 9.78598 5.53985 10.599 6 10.9983C6.46015 10.599 7.33699 9.78598 8.10113 8.78199C8.89166 7.74333 9.5 6.57966 9.5 5.5C9.5 4.57174 9.13125 3.6815 8.47487 3.02513C7.8185 2.36875 6.92826 2 6 2ZM2.81802 2.31802C3.66193 1.47411 4.80653 1 6 1C7.19347 1 8.33807 1.47411 9.18198 2.31802C10.0259 3.16193 10.5 4.30653 10.5 5.5C10.5 6.91684 9.72359 8.30142 8.89687 9.38763C8.05856 10.4891 7.10486 11.3656 6.62727 11.7779C6.61875 11.7853 6.60999 11.7924 6.601 11.7991C6.42772 11.9294 6.2168 11.9999 6 11.9999C5.7832 11.9999 5.57228 11.9294 5.399 11.7991C5.39001 11.7924 5.38125 11.7853 5.37273 11.7779C4.89514 11.3656 3.94144 10.4891 3.10313 9.38763C2.27641 8.30142 1.5 6.91684 1.5 5.5C1.5 4.30653 1.97411 3.16193 2.81802 2.31802ZM6 4.5C5.44772 4.5 5 4.94772 5 5.5C5 6.05228 5.44772 6.5 6 6.5C6.55228 6.5 7 6.05228 7 5.5C7 4.94772 6.55228 4.5 6 4.5ZM4 5.5C4 4.39543 4.89543 3.5 6 3.5C7.10457 3.5 8 4.39543 8 5.5C8 6.60457 7.10457 7.5 6 7.5C4.89543 7.5 4 6.60457 4 5.5Z" fill="#2E66E2"/>
</svg>
