<svg width="15" height="15" viewBox="0 0 15 15" fill="none" xmlns="http://www.w3.org/2000/svg">
<path d="M5.33203 6.99999H5.3387M7.9987 6.99999H8.00536M10.6654 6.99999H10.672M5.26536 12.3334C6.53775 12.9861 8.00142 13.1629 9.39262 12.8319C10.7838 12.5009 12.0111 11.6839 12.8532 10.5281C13.6953 9.37237 14.097 7.95383 13.9858 6.52813C13.8745 5.10243 13.2578 3.76333 12.2466 2.75215C11.2354 1.74096 9.89629 1.12419 8.47059 1.01297C7.04489 0.901742 5.62635 1.30339 4.47058 2.14552C3.31481 2.98765 2.49783 4.21489 2.16685 5.6061C1.83587 6.9973 2.01266 8.46097 2.66536 9.73335L1.33203 13.6667L5.26536 12.3334Z" stroke="#2E66E2" stroke-width="2" stroke-linecap="round" stroke-linejoin="round"/>
</svg>
