<svg width="17" height="14" viewBox="0 0 17 14" fill="none" xmlns="http://www.w3.org/2000/svg">
<path d="M8.5 0.429688C9.81471 0.429688 10.8809 1.49583 10.8809 2.81055V6.81055C10.8808 7.06892 10.827 7.31224 10.75 7.5459L10.7451 7.55957L10.7559 7.56738L11.4199 8.08105L11.4395 8.0957L11.4502 8.07324C11.6201 7.68609 11.7197 7.26133 11.7197 6.81055V5.61035C11.7197 5.40026 11.8896 5.22969 12.0996 5.22949H12.5C12.7102 5.2295 12.8809 5.40015 12.8809 5.61035V6.81055C12.8808 7.53227 12.6961 8.20714 12.3828 8.80469L12.376 8.81934L12.3887 8.8291L16.333 11.877V11.8779C16.4782 11.9909 16.5196 12.1881 16.4414 12.3467L16.4004 12.4121L15.9092 13.0439C15.7961 13.189 15.5991 13.23 15.4404 13.1514L15.375 13.1104L0.666016 1.74219C0.520998 1.62914 0.480198 1.43188 0.558594 1.27344L0.599609 1.20801L1.09082 0.576172C1.20364 0.431243 1.40093 0.390381 1.55957 0.46875L1.625 0.509766L6.08789 3.95996L6.12012 3.98438V2.81055C6.12012 1.49591 7.18539 0.429811 8.5 0.429688ZM7.91992 11.1396L7.90234 11.1367C5.71237 10.8345 4.11919 8.84628 4.11914 6.61426V6.48145L5.38281 7.45996C5.67781 8.71089 6.64327 9.74074 7.91895 9.97754L8.17871 10.0146C8.35127 10.0313 8.51786 10.0196 8.68262 10.0098L9.89941 10.9502C9.64099 11.0382 9.37486 11.1084 9.09766 11.1465L9.08008 11.1484V12.0293H10.5C10.7102 12.0293 10.8809 12.2 10.8809 12.4102V12.8105C10.8806 13.0206 10.7101 13.1904 10.5 13.1904H6.5C6.28992 13.1904 6.11935 13.0206 6.11914 12.8105V12.4102C6.11914 12.1999 6.28979 12.0293 6.5 12.0293H7.91992V11.1396Z" fill="black" stroke="black" stroke-width="0.0390625"/>
</svg>
