<svg width="44" height="45" viewBox="0 0 44 45" fill="none" xmlns="http://www.w3.org/2000/svg">
<path d="M32.4167 26.6667H32.4375M11.5833 12.0833H36.5833C37.6884 12.0833 38.7482 12.5223 39.5296 13.3037C40.311 14.0851 40.75 15.1449 40.75 16.25V37.0833C40.75 38.1884 40.311 39.2482 39.5296 40.0296C38.7482 40.811 37.6884 41.25 36.5833 41.25H7.41667C6.3116 41.25 5.25179 40.811 4.47039 40.0296C3.68899 39.2482 3.25 38.1884 3.25 37.0833V7.91667C3.25 6.8116 3.68899 5.75179 4.47039 4.97039C5.25179 4.18899 6.3116 3.75 7.41667 3.75H36.5833" stroke="#2E66E2" stroke-width="6" stroke-linecap="round" stroke-linejoin="round"/>
</svg>
