<svg width="14.000000" height="14.000000" viewBox="0 0 14 14" fill="none" xmlns="http://www.w3.org/2000/svg" xmlns:xlink="http://www.w3.org/1999/xlink">
	<desc>
			Created with Pixso.
	</desc>
	<defs/>
	<path id="Vector" d="M10.33 8.33L10.33 8.33M3.66 3.66L11.66 3.66C12.01 3.66 12.35 3.8 12.6 4.05C12.85 4.3 13 4.64 13 5L13 11.66C13 12.02 12.85 12.35 12.6 12.6C12.35 12.85 12.01 13 11.66 13L2.33 13C1.98 13 1.64 12.85 1.39 12.6C1.14 12.35 1 12.02 1 11.66L1 2.33C1 1.97 1.14 1.64 1.39 1.39C1.64 1.14 1.98 1 2.33 1L11.66 1" stroke="#FFFFFF" stroke-opacity="1.000000" stroke-width="2.000000" stroke-linejoin="round" stroke-linecap="round"/>
</svg>
