<svg width="15" height="14" viewBox="0 0 15 14" fill="none" xmlns="http://www.w3.org/2000/svg">
<path d="M7.49984 12.3334H13.4998M9.49984 2.33335L11.4998 4.33335M10.4172 1.41467C10.6825 1.14928 11.0425 1.00018 11.4178 1.00018C11.7931 1.00018 12.1531 1.14928 12.4185 1.41467C12.6839 1.68007 12.833 2.04002 12.833 2.41534C12.833 2.79066 12.6839 3.15061 12.4185 3.41601L4.41182 11.4233C4.25322 11.5819 4.05717 11.698 3.84182 11.7607L1.92716 12.3193C1.86979 12.3361 1.80898 12.3371 1.75109 12.3222C1.69321 12.3074 1.64037 12.2773 1.59812 12.235C1.55587 12.1928 1.52575 12.14 1.51092 12.0821C1.49609 12.0242 1.49709 11.9634 1.51382 11.906L2.07249 9.99134C2.1353 9.77623 2.25132 9.58042 2.40982 9.42201L10.4172 1.41467Z" stroke="black" stroke-opacity="0.5" stroke-width="2" stroke-linecap="round" stroke-linejoin="round"/>
</svg>
