<svg width="64" height="22" viewBox="0 0 64 22" fill="none" xmlns="http://www.w3.org/2000/svg">
<rect x="0.333008" y="0.5" width="63" height="21" rx="10.5" fill="#D2F0E5"/>
<circle cx="8.83301" cy="11" r="2.5" fill="#1DB27B"/>
<path d="M17.733 11C17.733 9.96667 18.0763 9.10667 18.763 8.42C19.4563 7.72667 20.353 7.38 21.453 7.38C22.5463 7.38 23.4363 7.71 24.123 8.37C24.823 9.03 25.173 9.90667 25.173 11C25.173 12.0533 24.8197 12.92 24.113 13.6C23.413 14.28 22.5263 14.62 21.453 14.62C20.3663 14.62 19.473 14.29 18.773 13.63C18.0797 12.97 17.733 12.0933 17.733 11ZM19.433 11C19.433 11.5933 19.6297 12.0967 20.023 12.51C20.4097 12.9167 20.8863 13.12 21.453 13.12C22.093 13.12 22.5897 12.9233 22.943 12.53C23.2963 12.1233 23.473 11.6133 23.473 11C23.473 10.3667 23.2797 9.85667 22.893 9.47C22.4997 9.07667 22.0197 8.88 21.453 8.88C20.8663 8.88 20.383 9.07667 20.003 9.47C19.623 9.86333 19.433 10.3733 19.433 11ZM32.6752 7.5V14.5H31.3952L28.0752 10.3V14.5H26.5752V7.5H27.8552L31.1752 11.72V7.5H32.6752ZM39.0256 14.5H34.5756V7.5H36.1756V13H39.0256V14.5ZM41.8248 14.5H40.2248V7.5H41.8248V14.5ZM49.9283 7.5V14.5H48.6483L45.3283 10.3V14.5H43.8283V7.5H45.1083L48.4283 11.72V7.5H49.9283ZM56.0787 14.5H51.8287V7.5H55.9787V9H53.4287V10.23H55.6787V11.73H53.4287V13H56.0787V14.5Z" fill="#1DB27B"/>
</svg>
