<svg width="14" height="14" viewBox="0 0 14 14" fill="none" xmlns="http://www.w3.org/2000/svg">
<g clip-path="url(#clip0_3179_4194)">
<path d="M8.1959 1.16602C9.38489 1.2913 10.4955 1.81865 11.3441 2.66085C12.1926 3.50306 12.7283 4.60967 12.8626 5.79768M8.1959 3.49935C8.76962 3.61248 9.29608 3.89545 9.70696 4.31153C10.1178 4.72761 10.3942 5.25759 10.5001 5.83268M12.8333 9.86941V11.6194C12.834 11.7819 12.8007 11.9427 12.7356 12.0915C12.6705 12.2404 12.5751 12.374 12.4554 12.4838C12.3357 12.5937 12.1943 12.6773 12.0404 12.7293C11.8865 12.7814 11.7235 12.8007 11.5617 12.7861C9.76666 12.591 8.04242 11.9777 6.5275 10.9952C5.11807 10.0996 3.92311 8.90467 3.0275 7.49524C2.04166 5.97344 1.42814 4.24082 1.23667 2.43774C1.22209 2.27643 1.24126 2.11385 1.29296 1.96035C1.34466 1.80686 1.42775 1.66581 1.53695 1.54618C1.64615 1.42656 1.77905 1.33099 1.92721 1.26554C2.07537 1.2001 2.23553 1.16622 2.3975 1.16607H4.1475C4.4306 1.16329 4.70505 1.26353 4.9197 1.44813C5.13435 1.63273 5.27455 1.88908 5.31417 2.16941C5.38803 2.72944 5.52501 3.27933 5.7225 3.80857C5.80099 4.01736 5.81797 4.24427 5.77145 4.46242C5.72492 4.68057 5.61684 4.8808 5.46 5.03941L4.71917 5.78024C5.54958 7.24064 6.75877 8.44983 8.21917 9.28024L8.96 8.53941C9.1186 8.38257 9.31884 8.27448 9.53699 8.22796C9.75514 8.18144 9.98205 8.19842 10.1908 8.27691C10.7201 8.47439 11.27 8.61138 11.83 8.68524C12.1134 8.72521 12.3722 8.86794 12.5571 9.08628C12.7421 9.30461 12.8404 9.58332 12.8333 9.86941Z" stroke="black" stroke-width="2" stroke-linecap="round" stroke-linejoin="round"/>
</g>
<defs>
<clipPath id="clip0_3179_4194">
<rect width="14" height="14" fill="white"/>
</clipPath>
</defs>
</svg>
