<svg width="22.003906" height="21.072266" viewBox="0 0 22.0039 21.0723" fill="#F7AD30" xmlns="http://www.w3.org/2000/svg" xmlns:xlink="http://www.w3.org/1999/xlink">
	<desc>
			Created with Pixso.
	</desc>
	<defs/>
	<path id="Vector" d="M10.72 1.07C10.8 1.02 10.9 1 11 1C11.1 1 11.19 1.02 11.28 1.07C11.36 1.13 11.43 1.2 11.47 1.29L13.78 5.97C13.94 6.28 14.16 6.54 14.44 6.75C14.71 6.95 15.04 7.08 15.38 7.13L20.54 7.88C20.64 7.9 20.73 7.94 20.81 8C20.88 8.07 20.94 8.15 20.97 8.25C21 8.34 21.01 8.44 20.98 8.54C20.96 8.63 20.91 8.72 20.84 8.79L17.1 12.43C16.86 12.67 16.67 12.96 16.56 13.29C16.46 13.62 16.43 13.97 16.49 14.3L17.37 19.45C17.39 19.54 17.38 19.64 17.34 19.74C17.31 19.83 17.24 19.91 17.16 19.97C17.08 20.02 16.99 20.06 16.89 20.07C16.79 20.07 16.69 20.05 16.6 20.01L11.98 17.58C11.68 17.42 11.34 17.33 11 17.33C10.65 17.33 10.32 17.42 10.01 17.58L5.39 20.01C5.31 20.05 5.21 20.07 5.11 20.07C5.01 20.06 4.91 20.02 4.83 19.97C4.75 19.91 4.69 19.83 4.65 19.74C4.62 19.64 4.61 19.54 4.62 19.45L5.5 14.31C5.56 13.97 5.54 13.62 5.43 13.29C5.33 12.96 5.14 12.67 4.89 12.43L1.16 8.79C1.09 8.72 1.04 8.63 1.01 8.54C0.99 8.44 0.99 8.34 1.02 8.25C1.05 8.15 1.11 8.07 1.19 8C1.26 7.94 1.35 7.9 1.45 7.88L6.62 7.13C6.96 7.08 7.28 6.95 7.56 6.75C7.84 6.54 8.06 6.28 8.21 5.97L10.52 1.29C10.57 1.2 10.63 1.13 10.72 1.07Z" stroke="#000000" stroke-opacity="1.000000" stroke-width="2.000000" stroke-linejoin="round"/>
</svg>
