<svg width="16" height="17" viewBox="0 0 16 17" fill="none" xmlns="http://www.w3.org/2000/svg">
<path d="M8 5.25C7.35721 5.25 6.72886 5.44061 6.1944 5.79772C5.65994 6.15484 5.24338 6.66242 4.99739 7.25628C4.75141 7.85014 4.68705 8.50361 4.81245 9.13404C4.93785 9.76448 5.24738 10.3436 5.7019 10.7981C6.15642 11.2526 6.73552 11.5622 7.36596 11.6876C7.99639 11.813 8.64986 11.7486 9.24372 11.5026C9.83758 11.2566 10.3452 10.8401 10.7023 10.3056C11.0594 9.77114 11.25 9.14279 11.25 8.5C11.25 7.63805 10.9076 6.8114 10.2981 6.2019C9.6886 5.59241 8.86195 5.25 8 5.25ZM8 9.25C7.85166 9.25 7.70666 9.20601 7.58332 9.1236C7.45999 9.04119 7.36386 8.92406 7.30709 8.78701C7.25032 8.64997 7.23547 8.49917 7.26441 8.35368C7.29335 8.2082 7.36478 8.07456 7.46967 7.96967C7.57456 7.86478 7.7082 7.79335 7.85368 7.76441C7.99917 7.73547 8.14997 7.75032 8.28701 7.80709C8.42406 7.86386 8.54119 7.95999 8.6236 8.08332C8.70601 8.20666 8.75 8.35166 8.75 8.5C8.75 8.69891 8.67098 8.88968 8.53033 9.03033C8.38968 9.17098 8.19891 9.25 8 9.25ZM8 0.75C3.71875 0.75 0.25 4.21875 0.25 8.5C0.25 12.7812 3.71875 16.25 8 16.25C12.2812 16.25 15.75 12.7812 15.75 8.5C15.75 4.21875 12.2812 0.75 8 0.75ZM8 12.5C7.20887 12.5 6.43552 12.2654 5.77772 11.8259C5.11992 11.3864 4.60723 10.7616 4.30448 10.0307C4.00173 9.29983 3.92252 8.49556 4.07686 7.71964C4.2312 6.94371 4.61216 6.23098 5.17157 5.67157C5.73098 5.11216 6.44371 4.7312 7.21964 4.57686C7.99556 4.42252 8.79983 4.50173 9.53073 4.80448C10.2616 5.10723 10.8864 5.61992 11.3259 6.27772C11.7654 6.93552 12 7.70887 12 8.5C12 9.56087 11.5786 10.5783 10.8284 11.3284C10.0783 12.0786 9.06087 12.5 8 12.5Z" fill="#EA3A3A"/>
</svg>
