<svg width="44" height="44" viewBox="0 0 44 44" fill="none" xmlns="http://www.w3.org/2000/svg">
<rect width="44" height="44" rx="22" fill="white"/>
<mask id="mask0_3135_38529" style="mask-type:alpha" maskUnits="userSpaceOnUse" x="10" y="10" width="24" height="24">
<rect x="10" y="10" width="24" height="24" fill="#D9D9D9"/>
</mask>
<g mask="url(#mask0_3135_38529)">
<path d="M22 18L17 23L18.4 24.4L21 21.825V32H23V21.825L25.6 24.4L27 23L22 18ZM13.65 27.5C13.1167 26.6833 12.7083 25.8083 12.425 24.875C12.1417 23.9417 12 22.9833 12 22C12 20.6167 12.2625 19.3167 12.7875 18.1C13.3125 16.8833 14.025 15.825 14.925 14.925C15.825 14.025 16.8833 13.3125 18.1 12.7875C19.3167 12.2625 20.6167 12 22 12C23.3833 12 24.6833 12.2625 25.9 12.7875C27.1167 13.3125 28.175 14.025 29.075 14.925C29.975 15.825 30.6875 16.8833 31.2125 18.1C31.7375 19.3167 32 20.6167 32 22C32 22.9833 31.8583 23.9417 31.575 24.875C31.2917 25.8083 30.8833 26.6833 30.35 27.5L28.9 26.05C29.2667 25.4333 29.5417 24.7833 29.725 24.1C29.9083 23.4167 30 22.7167 30 22C30 19.7667 29.225 17.875 27.675 16.325C26.125 14.775 24.2333 14 22 14C19.7667 14 17.875 14.775 16.325 16.325C14.775 17.875 14 19.7667 14 22C14 22.7167 14.0917 23.4167 14.275 24.1C14.4583 24.7833 14.7333 25.4333 15.1 26.05L13.65 27.5Z" fill="#1DB27B"/>
</g>
</svg>
