<svg width="15.335938" height="15.335938" viewBox="0 0 15.3359 15.3359" fill="none" xmlns="http://www.w3.org/2000/svg" xmlns:xlink="http://www.w3.org/1999/xlink">
	<desc>
			Created with Pixso.
	</desc>
	<defs/>
	<path id="Vector" d="M9.48 14.28C9.54 14.31 9.6 14.33 9.67 14.33C9.74 14.33 9.8 14.31 9.86 14.27C9.91 14.23 9.95 14.17 9.98 14.11L14.31 1.44C14.33 1.38 14.33 1.32 14.32 1.25C14.31 1.19 14.28 1.14 14.23 1.09C14.19 1.05 14.13 1.02 14.07 1C14.01 0.99 13.95 0.99 13.89 1.02L1.22 5.35C1.16 5.37 1.1 5.41 1.06 5.47C1.02 5.52 1 5.59 1 5.66C0.99 5.72 1.01 5.79 1.05 5.85C1.09 5.9 1.14 5.95 1.2 5.97L6.49 8.09C6.66 8.16 6.81 8.26 6.94 8.39C7.07 8.52 7.16 8.67 7.23 8.83L9.35 14.12C9.38 14.18 9.42 14.24 9.48 14.28ZM14.23 1.1L6.94 8.39" stroke="#FFFFFF" stroke-opacity="1.000000" stroke-width="2.000000" stroke-linejoin="round" stroke-linecap="round"/>
</svg>
