<svg width="22.000000" height="22.000000" viewBox="0 0 22 22" fill="none" xmlns="http://www.w3.org/2000/svg" xmlns:xlink="http://www.w3.org/1999/xlink">
	<desc>
			Created with Pixso.
	</desc>
	<defs/>
	<path id="Vector" d="M17 19C17 17.4 16.36 15.88 15.24 14.75C14.11 13.63 12.59 13 11 13C9.4 13 7.88 13.63 6.75 14.75C5.63 15.88 5 17.4 5 19M11 13C8.79 13 7 11.2 7 9C7 6.79 8.79 5 11 5C13.2 5 15 6.79 15 9C15 11.2 13.2 13 11 13M11 21C5.47 21 1 16.52 1 11C1 5.47 5.47 1 11 1C16.52 1 21 5.47 21 11C21 16.52 16.52 21 11 21Z" stroke="#000000" stroke-opacity="0.500000" stroke-width="2.000000" stroke-linejoin="round" stroke-linecap="round"/>
</svg>
