<svg width="16.000000" height="16.000000" viewBox="0 0 16 16" fill="none" xmlns="http://www.w3.org/2000/svg" xmlns:xlink="http://www.w3.org/1999/xlink">
	<desc>
			Created with Pixso.
	</desc>
	<defs>
		<clipPath id="clip11_5079">
			<rect id="work" rx="0.000000" width="15.000000" height="15.000000" transform="translate(0.500000 0.500000)" fill="white" fill-opacity="0"/>
		</clipPath>
	</defs>
	<rect id="work" rx="0.000000" width="15.000000" height="15.000000" transform="translate(0.500000 0.500000)" fill="#FFFFFF" fill-opacity="0"/>
	<g clip-path="url(#clip11_5079)">
		<path id="Vector" d="M8 7.99L8 7.99M10.66 3.99L10.66 2.66C10.66 2.31 10.52 1.97 10.27 1.72C10.02 1.47 9.68 1.33 9.33 1.33L6.66 1.33C6.31 1.33 5.97 1.47 5.72 1.72C5.47 1.97 5.33 2.31 5.33 2.66L5.33 3.99M14.66 8.66C12.68 9.97 10.37 10.66 8 10.66C5.62 10.66 3.31 9.97 1.33 8.66M13.33 3.99C14.06 3.99 14.66 4.59 14.66 5.33L14.66 12C14.66 12.73 14.06 13.33 13.33 13.33L2.66 13.33C1.93 13.33 1.33 12.73 1.33 12L1.33 5.33C1.33 4.59 1.93 3.99 2.66 3.99L13.33 3.99Z" stroke="#000000" stroke-opacity="0.500000" stroke-width="2.000000" stroke-linejoin="round" stroke-linecap="round"/>
	</g>
</svg>
