<svg width="16" height="16" viewBox="0 0 16 16" fill="none" xmlns="http://www.w3.org/2000/svg">
<path d="M8.01624 1.53009C8.04545 1.47107 8.09059 1.42138 8.14654 1.38664C8.20249 1.3519 8.26704 1.3335 8.33291 1.3335C8.39877 1.3335 8.46332 1.3519 8.51927 1.38664C8.57523 1.42138 8.62036 1.47107 8.64957 1.53009L10.1896 4.64942C10.291 4.85474 10.4408 5.03236 10.626 5.16706C10.8112 5.30176 11.0263 5.3895 11.2529 5.42276L14.6969 5.92676C14.7622 5.93621 14.8235 5.96374 14.8739 6.00622C14.9243 6.04871 14.9619 6.10446 14.9823 6.16716C15.0026 6.22987 15.0051 6.29703 14.9893 6.36105C14.9735 6.42507 14.9401 6.48339 14.8929 6.52942L12.4022 8.95476C12.238 9.11483 12.1151 9.31241 12.0441 9.53051C11.9732 9.74861 11.9563 9.98068 11.9949 10.2068L12.5829 13.6334C12.5944 13.6987 12.5874 13.7658 12.5626 13.8272C12.5378 13.8886 12.4962 13.9418 12.4426 13.9808C12.389 14.0197 12.3256 14.0428 12.2595 14.0474C12.1934 14.052 12.1274 14.0379 12.0689 14.0068L8.99024 12.3881C8.78738 12.2816 8.56169 12.2259 8.33257 12.2259C8.10345 12.2259 7.87776 12.2816 7.67491 12.3881L4.59691 14.0068C4.53846 14.0377 4.4725 14.0516 4.40654 14.0469C4.34058 14.0422 4.27725 14.0191 4.22377 13.9802C4.17029 13.9413 4.12879 13.8882 4.10401 13.8269C4.07923 13.7656 4.07214 13.6986 4.08357 13.6334L4.67091 10.2074C4.7097 9.98125 4.69289 9.74902 4.62193 9.53079C4.55097 9.31255 4.42798 9.11486 4.26357 8.95476L1.77291 6.53009C1.7253 6.48411 1.69157 6.42569 1.67555 6.36147C1.65953 6.29726 1.66186 6.22984 1.68229 6.16689C1.70272 6.10393 1.74042 6.04799 1.79109 6.00541C1.84176 5.96284 1.90337 5.93536 1.96891 5.92609L5.41224 5.42276C5.63908 5.38976 5.8545 5.30213 6.03996 5.16742C6.22543 5.0327 6.37537 4.85494 6.47691 4.64942L8.01624 1.53009Z" stroke="black" stroke-width="2" stroke-linecap="round" stroke-linejoin="round"/>
</svg>
