<svg width="16" height="13" viewBox="0 0 16 13" fill="none" xmlns="http://www.w3.org/2000/svg">
<path d="M1.5 0.834961H14.5C15.3146 0.834961 15.9756 1.49591 15.9756 2.31055V11.3105C15.9756 12.1252 15.3146 12.7861 14.5 12.7861H1.5C0.685359 12.7861 0.0244141 12.1252 0.0244141 11.3105V2.31055C0.0244141 1.49591 0.685359 0.834961 1.5 0.834961ZM13.6572 4.60547C12.8556 3.82619 11.4983 3.61312 10.3428 3.97559C9.18541 4.33869 8.22567 5.28067 8.22559 6.81348C8.22559 8.38771 9.16516 9.37134 10.3145 9.73633C11.3904 10.0779 12.6526 9.87859 13.501 9.11328L13.665 8.95215C13.7179 8.89637 13.7349 8.81876 13.7148 8.74805L13.6826 8.68066L13.0732 7.81543C13.008 7.7222 12.8836 7.70033 12.7881 7.75488L12.749 7.7832C12.1109 8.37018 11.3999 8.48674 10.8506 8.27539C10.3016 8.06397 9.90918 7.52278 9.90918 6.78223C9.90926 6.07335 10.3217 5.58899 10.8916 5.40332C11.4271 5.22904 12.1031 5.31806 12.7061 5.73828L12.8252 5.82617C12.9152 5.89754 13.0423 5.8818 13.1172 5.80371L13.1455 5.7666H13.1465L13.6934 4.81348L13.6924 4.8125C13.7165 4.77213 13.7299 4.73703 13.7227 4.70117C13.7191 4.68373 13.7104 4.668 13.6992 4.65234L13.6572 4.60547ZM7.7041 4.60547C6.9025 3.82619 5.54517 3.61312 4.38965 3.97559C3.23228 4.33869 2.27254 5.28067 2.27246 6.81348C2.27246 8.38769 3.21167 9.37075 4.36133 9.73535C5.43789 10.0768 6.70096 9.87667 7.55078 9.1123L7.71484 8.95215C7.76781 8.89635 7.7847 8.81882 7.76465 8.74805L7.73242 8.68066L7.12305 7.81543C7.05775 7.72215 6.93339 7.70022 6.83789 7.75488L6.7998 7.7832H6.79883C6.16075 8.37009 5.45003 8.48673 4.90039 8.27539C4.35092 8.064 3.9576 7.52288 3.95605 6.78223L3.95996 6.65234C4.00731 6.0141 4.40405 5.57742 4.93848 5.40332C5.47394 5.22904 6.14994 5.31806 6.75293 5.73828L6.87207 5.82617C6.96206 5.89754 7.08916 5.8818 7.16406 5.80371L7.19238 5.7666H7.19336L7.74023 4.81348L7.73926 4.8125C7.76338 4.77213 7.77681 4.73703 7.76953 4.70117C7.76596 4.68373 7.75727 4.668 7.74609 4.65234L7.7041 4.60547Z" fill="black" stroke="black" stroke-width="0.0488281"/>
</svg>
