<svg width="15" height="15" viewBox="0 0 15 15" fill="none" xmlns="http://www.w3.org/2000/svg">
<path d="M6.05973 4.99989C6.21647 4.55434 6.52583 4.17863 6.93304 3.93931C7.34024 3.7 7.819 3.61252 8.28452 3.69237C8.75004 3.77222 9.17228 4.01424 9.47645 4.37558C9.78063 4.73691 9.9471 5.19424 9.9464 5.66656C9.9464 6.99989 7.9464 7.66656 7.9464 7.66656M7.99967 10.3332H8.00634M5.26634 12.3332C6.53873 12.9859 8.0024 13.1627 9.3936 12.8317C10.7848 12.5007 12.012 11.6838 12.8542 10.528C13.6963 9.37222 14.098 7.95367 13.9867 6.52798C13.8755 5.10228 13.2587 3.76318 12.2475 2.752C11.2364 1.74081 9.89727 1.12404 8.47157 1.01281C7.04587 0.901589 5.62732 1.30323 4.47155 2.14537C3.31579 2.9875 2.4988 4.21474 2.16782 5.60594C1.83684 6.99714 2.01364 8.46082 2.66634 9.7332L1.33301 13.6665L5.26634 12.3332Z" stroke="#2E66E2" stroke-width="2" stroke-linecap="round" stroke-linejoin="round"/>
</svg>
