<svg width="13" height="12" viewBox="0 0 13 12" fill="none" xmlns="http://www.w3.org/2000/svg">
<path d="M6.49996 11.8327C5.69301 11.8327 4.93468 11.6796 4.22496 11.3733C3.51524 11.0671 2.89788 10.6514 2.37288 10.1264C1.84788 9.60143 1.43225 8.98407 1.126 8.27435C0.819751 7.56463 0.666626 6.80629 0.666626 5.99935C0.666626 5.1924 0.819751 4.43407 1.126 3.72435C1.43225 3.01463 1.84788 2.39727 2.37288 1.87227C2.89788 1.34727 3.51524 0.931641 4.22496 0.625391C4.93468 0.319141 5.69301 0.166016 6.49996 0.166016C7.3069 0.166016 8.06524 0.319141 8.77496 0.625391C9.48468 0.931641 10.102 1.34727 10.627 1.87227C11.152 2.39727 11.5677 3.01463 11.8739 3.72435C12.1802 4.43407 12.3333 5.1924 12.3333 5.99935C12.3333 6.80629 12.1802 7.56463 11.8739 8.27435C11.5677 8.98407 11.152 9.60143 10.627 10.1264C10.102 10.6514 9.48468 11.0671 8.77496 11.3733C8.06524 11.6796 7.3069 11.8327 6.49996 11.8327ZM6.49996 10.666C7.12218 10.666 7.7201 10.5493 8.29371 10.316C8.86732 10.0827 9.37288 9.74727 9.81038 9.30977L6.49996 5.99935V1.33268C5.19718 1.33268 4.09371 1.78477 3.18954 2.68893C2.28538 3.5931 1.83329 4.69657 1.83329 5.99935C1.83329 7.30213 2.28538 8.4056 3.18954 9.30977C4.09371 10.2139 5.19718 10.666 6.49996 10.666Z" fill="#1DB27B"/>
</svg>
