<svg width="22.000000" height="12.000000" viewBox="0 0 22 12" fill="none" xmlns="http://www.w3.org/2000/svg" xmlns:xlink="http://www.w3.org/1999/xlink">
	<desc>
			Created with Pixso.
	</desc>
	<defs/>
	<path id="Vector" d="M14 1L16 1C17.32 1 18.59 1.52 19.53 2.46C20.47 3.4 21 4.67 21 6C21 7.32 20.47 8.59 19.53 9.53C18.59 10.47 17.32 11 16 11L14 11M8 11L6 11C4.67 11 3.4 10.47 2.46 9.53C1.52 8.59 1 7.32 1 6C1 4.67 1.52 3.4 2.46 2.46C3.4 1.52 4.67 1 6 1L8 1" stroke="#000000" stroke-opacity="0.500000" stroke-width="2.000000" stroke-linejoin="round" stroke-linecap="round"/>
</svg>
