<svg width="18.000000" height="20.000000" viewBox="0 0 18 20" fill="none" xmlns="http://www.w3.org/2000/svg" xmlns:xlink="http://www.w3.org/1999/xlink">
	<desc>
			Created with Pixso.
	</desc>
	<defs/>
	<path id="format_list_numbered" d="M0 20L0 18.5L2.5 18.5L2.5 17.75L1 17.75L1 16.25L2.5 16.25L2.5 15.5L0 15.5L0 14L3 14C3.28 14 3.52 14.09 3.71 14.28C3.9 14.47 4 14.71 4 15L4 16C4 16.28 3.9 16.52 3.71 16.71C3.52 16.9 3.28 17 3 17C3.28 17 3.52 17.09 3.71 17.28C3.9 17.47 4 17.71 4 18L4 19C4 19.28 3.9 19.52 3.71 19.71C3.52 19.9 3.28 20 3 20L0 20ZM0 13L0 10.25C0 9.96 0.09 9.72 0.28 9.53C0.47 9.34 0.71 9.25 1 9.25L2.5 9.25L2.5 8.5L0 8.5L0 7L3 7C3.28 7 3.52 7.09 3.71 7.28C3.9 7.47 4 7.71 4 8L4 9.75C4 10.03 3.9 10.27 3.71 10.46C3.52 10.65 3.28 10.75 3 10.75L1.5 10.75L1.5 11.5L4 11.5L4 13L0 13ZM1.5 6L1.5 1.5L0 1.5L0 0L3 0L3 6L1.5 6ZM6 17L6 15L18 15L18 17L6 17ZM6 11L6 9L18 9L18 11L6 11ZM6 5L6 3L18 3L18 5L6 5Z" fill="#000000" fill-opacity="0.500000" fill-rule="nonzero"/>
</svg>
