<svg width="11.000000" height="14.000000" viewBox="0 0 11 14" fill="none" xmlns="http://www.w3.org/2000/svg" xmlns:xlink="http://www.w3.org/1999/xlink">
	<desc>
			Created with Pixso.
	</desc>
	<defs/>
	<path id="format_bold" d="M0 14L0 0L5.84 0C6.98 0 8.04 0.33 9.01 1C9.98 1.66 10.47 2.59 10.47 3.77C10.47 4.62 10.26 5.27 9.86 5.73C9.45 6.19 9.07 6.52 8.72 6.72C9.16 6.9 9.65 7.25 10.19 7.75C10.73 8.25 11 9 11 10C11 11.48 10.42 12.52 9.28 13.11C8.13 13.7 7.05 14 6.05 14L0 14ZM3.19 11.2L5.94 11.2C6.79 11.2 7.31 10.99 7.49 10.58C7.68 10.17 7.77 9.88 7.77 9.69C7.77 9.51 7.68 9.22 7.49 8.81C7.31 8.4 6.76 8.19 5.87 8.19L3.19 8.19L3.19 11.2ZM3.19 5.5L5.65 5.5C6.24 5.5 6.66 5.35 6.92 5.07C7.19 4.79 7.32 4.47 7.32 4.12C7.32 3.72 7.17 3.39 6.87 3.14C6.57 2.89 6.18 2.77 5.71 2.77L3.19 2.77L3.19 5.5Z" fill="#000000" fill-opacity="0.500000" fill-rule="nonzero"/>
</svg>
