<svg width="14" height="12" viewBox="0 0 14 12" fill="none" xmlns="http://www.w3.org/2000/svg">
<path d="M3.00065 8.66669H8.33398V8.30002C8.33398 7.81113 8.08954 7.41669 7.60065 7.11669C7.11176 6.81669 6.46732 6.66669 5.66732 6.66669C4.86732 6.66669 4.22287 6.81669 3.73398 7.11669C3.2451 7.41669 3.00065 7.81113 3.00065 8.30002V8.66669ZM5.66732 6.00002C6.03398 6.00002 6.34787 5.86946 6.60898 5.60835C6.8701 5.34724 7.00065 5.03335 7.00065 4.66669C7.00065 4.30002 6.8701 3.98613 6.60898 3.72502C6.34787 3.46391 6.03398 3.33335 5.66732 3.33335C5.30065 3.33335 4.98676 3.46391 4.72565 3.72502C4.46454 3.98613 4.33398 4.30002 4.33398 4.66669C4.33398 5.03335 4.46454 5.34724 4.72565 5.60835C4.98676 5.86946 5.30065 6.00002 5.66732 6.00002ZM1.66732 11.3334C1.30065 11.3334 0.986762 11.2028 0.725651 10.9417C0.46454 10.6806 0.333984 10.3667 0.333984 10V2.00002C0.333984 1.63335 0.46454 1.31946 0.725651 1.05835C0.986762 0.797243 1.30065 0.666687 1.66732 0.666687H9.66732C10.034 0.666687 10.3479 0.797243 10.609 1.05835C10.8701 1.31946 11.0007 1.63335 11.0007 2.00002V5.00002L13.6673 2.33335V9.66669L11.0007 7.00002V10C11.0007 10.3667 10.8701 10.6806 10.609 10.9417C10.3479 11.2028 10.034 11.3334 9.66732 11.3334H1.66732ZM1.66732 10H9.66732V2.00002H1.66732V10Z" fill="black" fill-opacity="0.5"/>
</svg>
