<svg width="314" height="302" viewBox="0 0 314 302" fill="none" xmlns="http://www.w3.org/2000/svg">
<path d="M44.3587 30.9221L44.8945 32.7032L36.6881 34.5456L42.2152 47.6106L45.063 46.942L48.0791 51.7955L50.2532 52.3007L54.2748 46.4368L61.139 49.1161L65.8292 48.1107L67.8399 49.2846L69.8507 48.2792L72.1932 52.4692L78.394 51.9639L81.2418 53.6379L82.9157 55.6486L85.0898 62.6864L84.0895 66.8713L88.4428 68.8821V73.5722L89.4482 75.7463L91.1222 76.9201L89.9484 80.4364L91.6223 82.2788L90.9538 84.2896L89.78 85.6318L87.269 86.4688L83.7527 86.8056L62.4813 84.458L56.2856 86.1319L56.1172 89.3165L57.8779 93.43L56.2499 92.2459L53.9073 91.409L48.2118 91.2406L45.7009 88.7296L43.6901 92.0775L45.5325 97.4362L45.3641 98.9469L44.3587 99.1153L46.0326 103.3L45.8642 108.659L42.3479 110.838L42.6847 115.023L40.7811 115.921L39.6634 106.643L40.281 104.995L39.6022 103.596L35.846 101.779L33.0544 101.458L32.4113 99.5083L34.3609 99.7073L36.3002 98.7172L34.6569 96.6452L34.6007 93.7005L33.7944 93.1442L34.7845 90.0208L33.4525 86.2953L25.69 82.1053L23.965 78.5736L24.3631 77.9153L26.4249 77.9714L26.2157 75.9147L27.7161 75.7361L25.8176 71.0715L21.3112 68.8259L19.7699 64.4573L17.014 63.2937L15.0441 60.5276L11.9922 61.7014L11.3287 62.9365L8.59834 63.3498L7.76136 61.6249L5.39333 60.4153L0.453125 52.6733L0.973684 51.3974L3.71938 51.3158L6.00065 49.2846L3.31109 46.7124L2.35163 40.1391L3.47951 35.699L6.16396 35.204L6.02106 31.6009L2.92833 24.9918L5.83733 19.332L4.21952 13.1925L7.9604 8.44112L9.39449 8.69629L10.6091 6.61916L14.7021 7.46635L14.5899 6.26702L16.9783 5.98633L17.0855 7.95118L18.1011 9.06885L21.3214 6.93558L24.7612 8.8443L25.1235 10.5642L24.0518 12.3453L26.527 12.5392L27.0373 14.8511L28.1346 14.9787L29.4003 17.8775L29.8341 20.8886L35.0958 23.3791L40.8321 28.9011L41.4752 31.065L44.3587 30.9221Z" fill="#CCCCCC" stroke="white" stroke-width="0.5"/>
<path d="M233.301 22.8377L231.464 24.088L231.49 24.8893L235.501 25.665L235.373 22.6794L237.001 21.5618L237.92 23.3327L236.435 24.9658L241.834 30.0438L241.186 32.519L243.524 31.9883L246.438 32.6313L245.769 35.7547L244.111 35.9639L243.942 36.6325L240.594 37.8063L239.589 37.6379L237.41 36.8009L226.355 30.2684L221.921 25.0067L224.773 25.2414L225.478 27.0532L225.758 25.0015L226.851 23.7971L225.263 22.3988L225.575 21.6434L228.009 22.8632L228.729 24.5984L229.407 23.3684L228.57 21.4648L231.597 22.955L233.21 21.3321L233.301 22.8377ZM205.62 19.1733L207.376 18.9794L208.83 20.5717L216.383 19.6684L220.359 24.5882L217.976 25.0832L216.97 26.7572H216.133L216.302 28.9364L213.622 27.7626L212.954 29.4365L210.443 28.7679L208.937 31.4473L206.595 31.9474L207.263 29.0997L201.068 25.4149L198.873 23.1286L200.634 21.0974L199.674 19.0917L200.904 17.2544L204.068 16.4072L205.62 19.1733Z" fill="#CCCCCC" stroke="white" stroke-width="0.5"/>
<path d="M208.932 79.1805L214.459 78.512L216.807 75.8326L213.959 73.3217L211.279 73.485L208.763 71.1425L209.269 70.3055L208.095 68.6316L205.584 68.1263L202.068 65.9522L199.22 66.1155L196.709 63.9414L195.367 64.7784L194.361 63.4362L195.198 61.7622L194.53 59.7514L195.872 58.5827L202.068 56.9037L203.742 57.5773L207.426 57.2405L211.111 52.7188L210.274 51.2133L211.111 47.8602L215.296 42.3331L214.627 40.996L218.144 41.3277L218.649 40.6592L220.66 41.6646L221.16 43.8438L224.344 47.3601L225.013 50.8764L228.749 51.1316L228.529 51.2133L226.187 52.8872L223.671 52.7188L223.508 54.3927L225.682 55.5666L226.018 56.2351L224.676 56.9037L226.519 58.0775L227.024 58.9145L226.35 59.7514L228.866 62.7676L233.556 62.2675L234.893 63.773L237.741 63.6046L240.589 60.5884L245.111 59.7514L245.616 61.5938L246.453 60.0883H247.458L247.611 59.8994L248.964 62.4308L248.627 64.61L243.937 66.6208L242.6 68.1263L241.426 71.811L242.768 75.6642L244.274 77.3382L246.785 78.1751L246.953 81.1913L250.469 81.8599L253.149 84.0391L255.665 83.8707L257.002 82.6968L258.344 77.5066L261.86 73.9902L262.866 74.9956L263.871 73.9902L266.214 75.4958L265.04 78.1751L265.509 79.4204L265.622 81.273L263.591 84.4831L264.693 85.417L263.846 88.4587L262.325 88.1219V91.0768L260.125 91.5004L257.42 97.9257L254.884 97.0786L252.858 97.9257L252.266 100.631L250.745 102.238L248.29 103.08L248.209 104.519L244.401 106.296L243.217 108.153L244.401 112.721L244.233 116.099L246.683 121.091L246.836 121.188L245.182 124.638L243.319 123.877L240.278 125.316L240.783 126.245L238.078 125.99L236.812 124.132L232.755 124.301L230.132 123.117L228.356 120.325L225.738 118.973L226.075 111.368L219.823 105.28L214.663 105.535L215 102.912L217.878 103.167L218.297 101.983L213.397 97.3337L212.295 98.0942L208.156 95.8996L208.406 94.3737L207.477 93.7L208.493 91.332L207.988 89.556L205.028 86.2591L207.141 85.8355L205.957 83.641L207.396 82.2018L206.125 79.8083L208.932 79.1805Z" fill="#CCCCCC" stroke="white" stroke-width="0.5"/>
<path d="M247.356 124.806L247.616 126.541L244.57 128.822L244.743 129.838L240.094 131.022L238.568 133.39L235.358 134.824L232.735 137.361L231.556 136.855L229.524 135.248L229.188 137.529L226.314 136.432L225.972 134.401L222.425 131.446L220.226 132.456L219.971 133.727L217.266 134.911L218.281 136.513L217.858 138.289L216.761 138.376L214.985 136.008L214.816 137.192L212.193 138.631L212.535 143.281L209.575 143.449L210.08 144.802L208.559 147.164L203.828 146.236L202.557 147.083L201.629 146.236L200.276 147.93L202.644 153.085L202.134 155.197L198.5 153.758L197.74 154.437L196.724 154.182L192.922 152.661L193.177 150.548L190.299 149.956L190.13 149.196L191.483 148.18L188.018 146.828L187.257 141.249L183.2 137.953L181.761 137.866L182.103 137.105L180.663 137.024L183.623 135.503L182.526 134.064L181.761 133.39L180.663 134.487L177.622 133.727L176.269 132.206L176.774 130.512L175.759 129.583L176.101 128.567L173.646 125.949L171.533 126.623L169.252 124.597L168.915 122.147L166.715 121.973L165.531 119.861L166.292 118.85L165.281 118.258L166.042 117.243L165.787 115.385L168.66 113.609L168.068 111.154L166.123 109.465L166.802 108.281L164.434 106.336L164.347 104.56L161.984 103.8L160.311 101.121L161.867 99.2782L164.046 98.6096L164.715 96.5988L171.916 95.2617L176.106 93.2509L178.285 90.74L179.122 86.0498L178.117 81.6965L175.769 78.3435L172.758 71.1425L174.6 67.7946L174.468 67.6364L177.78 63.9414L178.785 65.1152L184.312 64.4415L186.66 66.2839H188.497L188.334 70.4739L189.839 73.3217L189.003 73.9902L190.845 75.4958L190.176 77.675L190.676 80.6911L195.198 78.1751L197.709 78.0118L201.562 77.8434L202.236 79.0121L205.921 79.8542L206.125 79.8082L207.396 82.2018L205.956 83.641L207.14 85.8355L205.028 86.2591L207.988 89.556L208.493 91.332L207.477 93.7L208.406 94.3737L208.156 95.8996L212.295 98.0941L213.397 97.3337L218.297 101.983L217.878 103.167L215 102.912L214.663 105.535L219.823 105.28L226.074 111.368L225.738 118.973L228.356 120.325L230.132 123.117L232.755 124.301L236.812 124.132L238.078 125.99L240.783 126.245L240.278 125.316L243.319 123.877L245.182 124.638L246.836 121.188L247.953 121.933L246.938 123.203L247.274 124.806H247.356Z" fill="#CCCCCC" stroke="white" stroke-width="0.5"/>
<path d="M225.059 183.312L225.298 183.18L226.906 181.827L227.074 182.756L229.437 183.517L230.029 182.756L232.147 183.18L233.5 180.475L233.413 180.429L235.511 179.204L238.297 180.051L243.202 171.345L244.217 171.426L246.162 169.65L252.332 170.329L255.205 169.063L256.726 169.906L256.894 173.371L258.926 174.218L261.207 178.949L262.391 178.53L264.248 181.067L256.134 187.069L254.781 188.758L255.037 189.518L249.29 191.886L247.682 191.631L246.243 192.478L243.033 191.463L235.511 186.727L232.637 186.308L231.198 187.742L229.34 187.829L225.059 183.312Z" fill="#CCCCCC" stroke="white" stroke-width="0.5"/>
<path d="M196.791 154.197L197.235 155.999L196.643 156.764L198.164 157.606L197.067 158.535L196.643 160.735L194.275 161.664L193.938 162.592L192.668 161.919L188.947 165.976H185.4L183.456 167.073L182.527 165.384L180.751 165.047L179.735 167.073L177.286 166.481L175.173 162.592L175.086 160.648L173.055 159.551L172.973 157.861L171.621 157.014L170.437 157.943L169.171 157.525L169.253 156.254L166.716 157.693L167.563 159.296L166.124 159.806L164.94 159.045L162.322 160.821L161.73 159.719L160.97 161.327L157.754 161.664L157.249 163.271L152.482 159.214L146.394 159.806L145.97 158.79L142.592 160.229L141.071 158.285L137.968 157.759L138.019 157.734L137.014 156.392L137.682 155.223L136.008 155.391L136.177 152.375L133.834 150.701L133.161 149.022L130.986 151.37L128.807 150.028L129.476 149.022L128.139 147.685L126.796 142.826L125.291 140.147L124.286 139.979L124.117 137.805L123.112 137.636L122.244 135.125L122.157 135.197L124.183 131.941L123.852 121.387L121.172 118.707L118.488 108.827L115.809 106.316V103.805L119.162 101.121L118.325 94.9248L119.33 93.751L121.336 93.9195L124.183 95.5934L127.368 94.5931L128.037 92.9141L131.721 94.5931L136.748 98.778L137.08 101.457L141.77 102.8L142.776 104.974L146.966 104.474L152.824 105.479L156.509 102.294L158.352 102.463L160.025 101.457L160.311 101.121L161.985 103.8L164.348 104.56L164.435 106.336L166.803 108.281L166.124 109.465L168.069 111.154L168.661 113.609L165.787 115.385L166.043 117.243L165.282 118.258L166.293 118.85L165.532 119.861L166.716 121.973L168.916 122.147L169.253 124.597L171.534 126.623L173.647 125.949L176.102 128.567L175.76 129.583L176.775 130.512L176.27 132.206L177.622 133.727L180.664 134.487L181.761 133.39L182.527 134.064L183.624 135.503L180.664 137.024L182.103 137.105L181.761 137.866L183.201 137.953L187.258 141.249L188.018 146.828L191.484 148.18L190.131 149.196L190.3 149.956L193.178 150.548L192.923 152.661L196.725 154.182L196.791 154.197Z" fill="#CCCCCC" stroke="white" stroke-width="0.5"/>
<path d="M199.501 202.339L196.877 200.338L195.693 202.027L184.961 200.93L181.577 204.059L182.424 207.437L179.801 211.499L180.48 214.541L184.45 216.736L183.945 223.753L181.914 228.402L180.143 230.265L177.433 231.449L175.407 234.491L176.254 236.859L178.617 238.803L178.535 241.927L181.577 241.758L183.858 246.071L178.617 250.975L178.785 253.175L177.351 256.64L178.959 259.003L179.969 262.979L181.577 264.413L181.153 266.949L182.593 268.475L182.337 269.828L184.537 270.164L187.242 273.926L188.594 274.431L192.565 278.743L193.581 280.433L193.157 281.448L197.725 282.969L198.061 284.745L201.103 288.129L201.527 289.731L203.303 290.323L205.416 292.778L205.334 293.789L207.186 295.054L206.804 295.886L203.216 297.024L197.592 290.308L195.428 290.578L194.479 288.057L191.182 287.144L191.269 284.515L186.134 280.667L183.476 280.086L182.485 277.697L180.74 277.32L178.872 275.431L174.208 274.176L174.631 271.614L172.773 271.017L171.253 267.944L171.089 264.632L168.277 262.285L166.006 265.382L161.336 262.091L158.606 261.626L155.274 265.729L153.783 264.112L147.567 260.953L153.069 262.851L149.445 260.049L152.242 259.866L152.686 258.896L153.742 259.156L160.147 256.385L156.335 249.322L155.325 245.346L153.181 243.029L153.666 242.396L152.732 241.294L153.666 239.605L155.524 238.676L153.916 237.492V234.532L155.86 234.45V233.858L153.579 232.164L152.395 229.882H150.619L148.169 228.106V226.504L149.353 226.841L149.435 226.08L148.425 223.375L149.945 221.768L150.961 222.105L152.482 221.094L156.794 223.289L158.06 222.36L159.244 223.12L161.525 220.329L157.892 217.287L158.82 214.669L156.539 212.638L160.091 210.78L159.157 209.427L154.426 206.804L152.313 207.141L152.482 204.947L151.298 202.915L149.017 201.313L148.506 199.195L145.72 198.098L146.312 197.506L142.336 195.138L141.999 193.959L145.041 193.535L145.378 192.096L148.256 192.943L150.201 190.743L147.154 188.967L149.267 184.997L145.475 182.134L145.725 181.516L142.209 181.185L141.035 176.826L139.861 174.984L137.85 173.978L137.35 171.467L131.154 170.13L133.16 168.957L132.997 166.777L131.823 165.44L132.491 163.429L131.991 161.587L136.845 158.239L137.967 157.759L141.07 158.285L142.591 160.23L145.97 158.79L146.393 159.806L152.482 159.214L157.249 163.271L157.754 161.664L160.969 161.327L161.729 159.719L162.321 160.822L164.94 159.046L166.124 159.806L167.563 159.296L166.716 157.693L169.252 156.254L169.17 157.525L170.436 157.943L171.62 157.014L172.973 157.862L173.054 159.551L175.085 160.648L175.172 162.592L177.285 166.481L179.735 167.073L180.75 165.047L182.526 165.384L183.455 167.073L183.476 167.063L186.415 173.121L187.768 173.034L188.696 175.065L186.073 176.076L187.594 176.755L187.849 178.362L188.865 178.868L190.299 177.852L193.009 178.781L194.106 177.178L196.132 177.939L196.051 178.949L198.245 181.741H199.516L201.037 183.517L199.429 186.053L200.613 187.743L201.716 186.222L202.726 186.727L204.757 190.024L207.462 187.069L207.886 185.038L211.264 185.967L210.672 188.079L212.28 190.024L214.102 189.172L212.009 193.193L210.488 194.127L211.672 195.561L210.657 201.818L209.136 201.058L206.263 202.665L202.711 201.226L199.501 202.323V202.339Z" fill="#CCCCCC" stroke="white" stroke-width="0.5"/>
<path d="M153.18 243.029L137.793 233.735L138.048 231.27L136.507 228.31L134.175 226.432L130.036 225.657L129.388 222.201L123.238 210.657L125.611 204.14L125.239 202.099L123.514 199.731L120.957 197.996L114.246 198.138L108.611 192.586L108.877 191.565L111.724 192.402L112.561 191.734L114.736 192.907L117.415 191.734L120.099 192.57L121.605 191.402L122.779 192.07L122.61 193.576L124.116 193.913L124.621 192.907L127.132 193.744L135.507 187.549L136.512 189.559L138.855 190.396L141.034 187.212L142.039 187.043L143.045 184.364L145.387 182.353L145.474 182.134L149.266 184.997L147.153 188.967L150.2 190.743L148.255 192.943L145.377 192.096L145.04 193.535L141.999 193.959L142.335 195.138L146.311 197.506L145.719 198.098L148.506 199.195L149.016 201.313L151.297 202.915L152.481 204.946L152.313 207.141L154.426 206.804L159.157 209.427L160.09 210.78L156.538 212.637L158.82 214.669L157.891 217.287L161.525 220.329L159.243 223.12L158.059 222.36L156.794 223.289L152.481 221.094L150.96 222.105L149.945 221.768L148.424 223.375L149.434 226.08L149.353 226.841L148.169 226.504V228.106L150.618 229.882H152.394L153.578 232.164L155.86 233.858V234.45L153.915 234.532V237.492L155.523 238.676L153.665 239.604L152.731 241.294L153.665 242.396L153.18 243.029Z" fill="#CCCCCC" stroke="white" stroke-width="0.5"/>
<path d="M232.647 137.326L231.381 138.04L230.794 140.658L228.85 142.097L227.074 145.986L225.722 146.828L221.409 156.295L222.001 158.832L220.562 159.934L219.209 163.144L214.815 161.031L213.126 161.879L209.406 166.778L209.661 168.641L212.279 169.738L213.126 171.427L212.702 172.443L215.913 175.571L227.916 175.403L229.268 178.021L231.213 179.205L233.499 180.476L232.147 183.181L230.029 182.757L229.437 183.517L227.074 182.757L226.906 181.828L225.298 183.181L223.777 184.023L220.985 182.757L220.312 180.813L218.786 180.476L214.647 185.63L213.8 187.488L214.137 189.014L212.279 190.024L210.671 188.08L211.263 185.967L207.885 185.038L207.461 187.07L204.756 190.024L202.725 186.728L201.715 186.222L200.612 187.743L199.428 186.054L201.036 183.517L199.515 181.741H198.244L196.05 178.95L196.131 177.939L194.105 177.179L193.008 178.781L190.298 177.853L188.864 178.868L187.848 178.363L187.593 176.755L186.072 176.077L188.695 175.066L187.767 173.035L186.414 173.122L183.475 167.064L185.399 165.977H188.946L192.666 161.919L193.937 162.593L194.274 161.664L196.642 160.735L197.065 158.536L198.163 157.607L196.642 156.765L197.234 155.999L196.79 154.198L197.739 154.438L198.499 153.759L202.133 155.198L202.643 153.085L200.275 147.931L201.628 146.236L202.557 147.083L203.827 146.236L208.558 147.165L210.079 144.802L209.574 143.45L212.534 143.281L212.192 138.632L214.815 137.193L214.984 136.009L216.76 138.377L217.857 138.29L218.281 136.514L217.265 134.912L219.97 133.728L220.225 132.457L222.425 131.446L225.972 134.401L226.314 136.432L229.187 137.53L229.524 135.248L231.555 136.856L232.647 137.326Z" fill="#CCCCCC" stroke="white" stroke-width="0.5"/>
<path d="M108.612 192.586L107.091 191.948L106.101 192.683L99.8034 184.364L96.8536 181.705L95.1235 178.403L88.8309 172.866L86.6312 169.023L82.6556 167.921L79.8283 163.715L79.4608 159.383L72.5506 154.223L69.8917 150.467L66.161 148.15L65.717 145.292L62.905 140.423L57.7709 139.652L56.9543 134.202L52.3458 134.299L51.4782 132.283L49.3501 130.42L48.7938 127.996L44.4711 124.357L41.608 119.937L40.7812 115.921L42.6849 115.023L42.348 110.838L45.8644 108.659L46.0328 103.3L44.3588 99.1152L45.3642 98.9467L45.5326 97.4361L43.6903 92.0774L45.701 88.7295L48.212 91.2404L53.9075 91.4088L56.25 92.2458L58.0924 93.588L64.9617 98.7783L68.1412 103.637L72.8313 106.816L78.0267 108.159L84.2224 114.354L85.8963 114.523L88.7441 117.034L91.0866 116.865L92.4288 118.207L91.4234 119.381L93.6026 121.055L94.608 123.566L103.315 130.267L105.994 135.126H107.668L111.189 137.636L120.901 136.294L122.244 135.126L123.111 137.636L124.117 137.805L124.285 139.979L125.29 140.147L126.796 142.827L128.138 147.685L129.475 149.022L128.807 150.028L130.986 151.37L133.16 149.022L133.834 150.701L136.176 152.375L136.008 155.392L137.682 155.223L137.013 156.392L138.019 157.734L136.845 158.239L131.991 161.587L132.491 163.43L131.823 165.44L132.997 166.778L133.16 168.957L131.154 170.131L137.35 171.468L137.85 173.979L139.861 174.984L141.035 176.826L142.209 181.185L145.725 181.517L145.388 182.354L143.046 184.364L142.04 187.044L141.035 187.212L138.856 190.397L136.513 189.56L135.508 187.549L127.133 193.745L124.622 192.908L124.117 193.913L122.611 193.576L122.779 192.071L121.606 191.402L120.1 192.571L117.416 191.734L114.736 192.908L112.562 191.734L111.725 192.402L108.877 191.565L108.612 192.586Z" fill="#CCCCCC" stroke="white" stroke-width="0.5"/>
<path d="M261.937 48.6155L262.029 50.3762L263.872 51.2132L262.361 53.2189L260.855 51.2132L258.676 52.2135L257.002 57.0721L255.16 58.2459L253.149 57.5773V58.4143L252.312 57.4089L249.801 57.0721L248.296 57.4089V59.0828L247.459 60.0882H246.453L245.616 61.5938L245.111 59.7514L240.589 60.5884L237.742 63.6046L234.894 63.773L233.557 62.2674L228.867 62.7676L226.35 59.7514L227.024 58.9144L226.519 58.0774L224.677 56.9036L226.019 56.2351L225.682 55.5665L223.508 54.3927L223.671 52.7187L226.187 52.8872L228.53 51.2132L230.372 50.5395L233.22 45.5177L233.051 44.1755L234.225 43.6753L234.725 42.0014L238.078 40.4907L239.318 37.5409L239.584 37.643L240.589 37.8114L243.937 36.6376L244.106 35.969L245.764 35.7598L247.362 38.3626L246.229 39.2659L243.09 38.531L244.703 40.8582L244.044 42.5372L248.76 45.8851L250.393 48.0286L261.937 48.6155Z" fill="#CCCCCC" stroke="white" stroke-width="0.5"/>
<path d="M277.584 79.9008L275.425 78.8494L275.762 77.5072L271.909 75.8333L269.567 76.8387L267.556 79.518H265.545L265.04 78.1758L266.214 75.4964L263.871 73.9909L262.866 74.9963L261.86 73.9909L258.344 77.5072L257.002 82.6975L255.665 83.8713L253.149 84.0397L250.469 81.8605L246.953 81.192L246.784 78.1758L244.274 77.3388L242.768 75.6649L241.426 71.8117L242.6 68.127L243.937 66.6214L248.627 64.6106L248.964 62.4314L247.611 59.9001L248.295 59.0835V57.4096L249.801 57.0727L252.312 57.4096L253.149 58.415V57.578L255.159 58.2466L257.002 57.0727L258.676 52.2142L260.855 51.2139L262.36 53.2196L263.871 51.2139L262.029 50.3769L261.937 48.6162L268.168 47.5598L269.827 45.5694L272.236 44.7375L277.242 40.8027L278.932 41.3335L279.922 43.6352L283.224 41.803L285.25 42.8595L287.357 42.344L290.619 44.4773L292.073 44.4466L292.716 46.8147L293.732 46.9831L292.43 48.9735L291.032 48.6111L291.854 50.1983L290.45 52.0713L288.429 52.0152L288.276 54.9395L286.617 55.95L288.781 56.1082L289.251 57.1391L287.082 58.0577L289.052 61.0637L288.404 62.1048L287 61.6353L287.837 65.8559L285.081 67.2236L282.826 72.3578L283.096 73.3019L280.595 75.624L280.81 77.4256L278.452 78.431L277.584 79.9008Z" fill="#CCCCCC" stroke="white" stroke-width="0.5"/>
<path d="M164.862 22.5726L165.22 24.2465L162.872 26.9259L163.209 29.1051L164.714 29.7736L163.877 32.7898L164.883 34.4638L164.046 39.4856L166.225 44.5126L166.057 46.5234L165.22 51.0451H163.877L160.861 53.7244L161.535 55.0615L160.861 56.0669L162.704 57.746L161.867 59.4199L162.872 60.5887L162.704 61.7625L163.877 63.4364L165.388 62.9363L167.562 64.2734L167.899 67.9581L169.91 69.8005L169.741 68.1265L171.415 67.2896V65.6156L172.421 66.9578L173.594 66.621L174.6 67.7948L172.757 71.1427L175.769 78.3438L178.116 81.6968L179.122 86.0501L178.285 90.7402L176.105 93.2512L171.915 95.2619L164.714 96.5991L164.046 98.6098L161.867 99.2784L160.024 101.458L158.35 102.463L156.508 102.295L152.823 105.479L146.964 104.474L142.774 104.974L141.769 102.8L137.079 101.458L136.747 98.7783L131.72 94.5934L128.035 92.9143L127.367 94.5934L124.182 95.5937L121.334 93.9197L119.329 93.7513L118.323 94.9251L119.16 101.121L115.807 103.805V106.316L118.487 108.827L121.171 118.707L123.85 121.387L124.182 131.941L122.156 135.197L120.901 136.294L111.189 137.636L107.667 135.126H105.993L103.314 130.267L94.6073 123.566L93.6019 121.055L91.4227 119.381L92.4281 118.207L91.0859 116.865L88.7434 117.034L85.8956 114.523L84.2216 114.354L78.026 108.159L72.8306 106.816L68.1405 103.637L64.961 98.7783L58.0916 93.588L57.8773 93.4298L56.1166 89.3163L56.285 86.1318L62.4807 84.4578L83.7521 86.8054L87.2684 86.4686L89.7794 85.6316L90.9532 84.2894L91.6217 82.2786L89.9478 80.4362L91.1216 76.9199L89.4477 75.7461L88.4423 73.572V68.8819L84.089 66.8711L85.0892 62.6862L82.9151 55.6484L81.2412 53.6377L78.3934 51.9637L72.1927 52.469L69.8501 48.279L67.8394 49.2844L65.8286 48.1106L61.1384 49.1159L54.2742 46.4366L50.2526 52.3005L48.0785 51.7953L45.0624 46.9418L42.2146 47.6104L36.6875 34.5454L44.894 32.703L44.3581 30.9219L45.4758 32.111L51.6612 31.8865L51.8756 28.6764L53.9374 26.4104L54.3508 23.481L55.5705 21.9806L54.9326 19.5258L60.3423 16.1064L61.2048 11.6459L64.0168 7.29774L65.7929 6.58325L69.7328 6.99153L71.2281 6.21069L74.8618 8.66548L78.8221 10.0434L81.7362 8.8441L88.8199 11.355L90.7184 10.2221L90.0243 7.86423L91.0297 7.17525L90.5347 6.12393L93.5305 6.00655L97.7664 1L99.522 3.16899L98.1542 4.60819L98.4349 6.57304L101.247 6.42504L100.206 4.66432L100.793 3.86307L101.844 4.65412L102.594 7.14974L103.472 6.61897L103.564 5.25123L104.794 5.51151L103.88 7.8285L105.998 6.72104L107.172 9.4208L117.277 15.5654L122.85 15.6318L124.983 10.8549L125.958 12.2686L127.831 12.0185L127.928 13.4066L129.311 13.3301L129.357 14.9326L132.057 16.5453L136.38 16.9179L138.911 14.0497L139.564 15.642L139.135 17.765L142.458 16.7597L141.723 19.8065L143.32 19.1379L145.489 19.8524L146.954 17.4946L147.398 19.8626L149.123 19.1175L150.863 20.0974L156.442 16.9077L163.489 22.3633L164.862 22.5726Z" fill="#CCCCCC" stroke="white" stroke-width="0.5"/>
<path d="M228.748 51.1315L225.013 50.8763L224.344 47.36L221.159 43.8437L220.659 41.6645L218.648 40.6591L218.143 41.3277L214.627 40.9959L215.295 42.333L211.111 47.8602L210.274 51.2132L211.111 52.7187L207.426 57.2404L203.741 57.5772L202.067 56.9036L195.871 58.5826L194.529 59.7513L195.198 61.7621L194.361 63.4361L195.366 64.7783L196.708 63.9413L199.219 66.1154L202.067 65.9521L205.583 68.1262L208.094 68.6315L209.268 70.3054L208.763 71.1424L211.279 73.4849L213.958 73.3216L216.806 75.8325L214.458 78.5119L208.931 79.1804L205.92 79.8541L202.236 79.012L201.562 77.8433L197.709 78.0117L195.198 78.175L190.676 80.6911L190.176 77.6749L190.844 75.4957L189.002 73.9902L189.839 73.3216L188.334 70.4738L188.497 66.2838H186.66L184.312 64.4415L178.785 65.1151L177.779 63.9413L174.467 67.6363L173.595 66.6207L172.421 66.9575L171.415 65.6153V67.2892L169.741 68.1262L169.91 69.8002L167.899 67.9578L167.562 64.2731L165.388 62.9359L163.877 63.4361L162.704 61.7621L162.872 60.5883L161.867 59.4196L162.704 57.7457L160.861 56.0666L161.535 55.0612L160.861 53.7241L163.877 51.0447H165.22L166.057 46.523L166.225 44.5122L164.046 39.4853L164.883 34.4634L163.877 32.7895L164.714 29.7733L163.209 29.1047L162.872 26.9255L165.22 24.2462L164.862 22.5722L169.272 26.3999L172.181 26.9306L177.989 22.9193L177.683 19.8929L180.224 19.0967L181.908 15.6978L183.791 14.9629L185.838 17.9791L187.058 15.9581L188.711 16.2643L189.854 18.6119L188.681 19.9643L191.962 22.7917L198.867 23.1336L201.062 25.42L207.257 29.1047L206.589 31.9525L208.931 31.4472L210.442 28.7679L212.953 29.4365L213.621 27.7625L216.301 28.9363L216.138 26.7571H216.974L217.98 25.0832L220.363 24.5881L221.915 25.0168L226.35 30.2734L237.409 36.8059L239.318 37.5408L238.078 40.4907L234.725 42.0013L234.224 43.6753L233.051 44.1754L233.219 45.5176L230.371 50.5395L228.748 51.1315Z" fill="#CCCCCC" stroke="white" stroke-width="0.5"/>
<path d="M238.552 225.213L236.608 224.218L236.526 222.36L233.566 219.655L232.046 220.079L228.325 217.119L225.365 217.797L220.21 215.343V217.624L218.434 217.455L216.403 219.91L214.29 221.008L207.615 215.853L206.344 211.877L203.303 210.612L201.695 212.383L201.613 214.414L197.301 211.964L197.974 208.917L201.863 208.244L199.669 202.916L199.5 202.324L202.711 201.226L206.263 202.665L209.136 201.058L210.657 201.818L211.672 195.561L210.488 194.127L212.009 193.193L214.102 189.172L215.24 189.687L217.521 189.014L216.76 188.08L217.266 186.814L223.609 185.717L223.574 183.93L225.059 183.313L229.341 187.83L231.198 187.743L232.638 186.309L235.511 186.727L243.033 191.463L246.243 192.479L247.683 191.632L249.29 191.887L255.037 189.519L254.782 188.758L256.134 187.069L264.249 181.067L262.391 178.531L261.207 178.949L258.926 174.219L259.773 173.54L263.912 175.316L266.367 173.882L270.506 175.147L273.889 178.363L277.099 177.597L277.018 176.331L274.731 174.555L274.394 170.753L272.282 166.609L276.257 167.88L278.707 165.175L277.436 163.823L280.907 161.791L279.554 160.439L279.467 159.173L280.82 159.087L279.804 157.479L280.141 156.468L276.676 151.396L277.355 150.293L279.299 150.635L280.141 149.87L280.243 149.997L280.922 148.9L283.964 148.436L286.423 150.579L286.704 152.294L288.797 153.218L289.108 155.917L291.241 157.152L294.028 161.179L294.946 166.727L299.172 168.941L299.836 171.248L303.362 174.234L304.914 183.686L303.826 184.727L302.836 183.553L301.933 184.313L302.867 186.079L302.214 188.126L303.433 189.146L302.551 190.05L299.106 189.718L296.074 191.387L292.66 187.156L289.705 188.534L284.852 187.508L283.229 188.457L282.877 195.255L276.089 194.056L273.496 196.419L267.224 191.917L264.8 191.739L263.999 192.596L262.794 191.729L261.238 194.704L258.415 195.658V197.623L258.982 198.205L260.008 196.429L260.773 196.842L261.197 203.196L262.922 205.003L263.958 204.564L266.101 212.112L270.363 218.527L270.23 222.528L266.617 223.273L263.846 226.723L261.697 224.662L261.661 222.804L259.319 221.686L259.63 217.369L258.487 217.236L255.7 214.021L250.168 215.322L251.413 218.44L246.427 219.849L238.552 225.213Z" fill="#CCCCCC" stroke="white" stroke-width="0.5"/>
<path d="M223.573 183.931L223.603 185.712L217.265 186.809L216.76 188.075L217.52 189.004L215.239 189.683L214.142 189.004L213.805 187.483L214.652 185.625L218.796 180.471L220.317 180.808L220.996 182.752L223.573 183.931ZM248.208 124.807L255.225 129.288L256.746 129.793L258.353 128.609L258.44 127.593L262.411 131.906L263.595 130.808L264.779 132.921L266.131 133.09L265.794 134.274L270.867 136.723L272.388 139.597L275.598 141.796L276.695 145.43L278.977 148.39L280.14 149.865L279.298 150.63L277.354 150.294L276.675 151.391L280.14 156.464L279.803 157.479L280.819 159.087L279.467 159.174L279.553 160.439L280.906 161.792L277.44 163.823L278.706 165.175L276.256 167.88L272.281 166.615L274.394 170.759L274.731 174.561L277.012 176.337L277.099 177.603L273.888 178.363L270.505 175.153L266.361 173.887L263.911 175.326L259.767 173.55L258.92 174.229L256.894 173.382L256.725 169.917L255.204 169.069L252.331 170.335L246.161 169.661L244.217 171.437L243.201 171.351L238.296 180.057L235.505 179.21L233.407 180.43L231.208 179.21L229.263 178.026L227.911 175.408L215.907 175.576L212.697 172.448L213.121 171.432L212.274 169.743L209.656 168.646L209.4 166.788L213.121 161.884L214.81 161.036L219.204 163.149L220.557 159.939L221.996 158.842L221.404 156.306L225.716 146.839L227.069 145.991L228.845 142.102L230.789 140.663L231.381 138.045L232.647 137.331L232.734 137.366L235.352 134.83L238.562 133.391L240.083 131.023L244.732 129.839L244.564 128.823L247.605 126.542L247.35 124.807H248.208Z" fill="#CCCCCC" stroke="white" stroke-width="0.5"/>
<path d="M199.5 202.338L199.668 202.915L201.863 208.243L197.974 208.917L197.3 211.964L201.613 214.413L201.694 212.382L203.302 210.611L206.344 211.877L207.615 215.853L214.29 221.007L216.403 219.91L218.434 217.455L220.21 217.623V215.342L225.365 217.797L228.325 217.118L232.045 220.078L233.566 219.655L236.526 222.36L236.608 224.217L238.552 225.212L238.307 226.606L240.44 228.856L235.582 235.598L234.735 239.635L238.914 251.261L234.969 252.511L227.1 251.251L225.615 252.868L222.956 259.452L221.823 260.309L222.42 263.473L223.89 265.515L221.511 270.118L222.333 275.007L220.384 275.962L221.282 278.013L220.935 279.672L222.547 280.32L224.339 283.444L227.646 283.163L228.682 284.495L227.83 286.603L228.626 291.558L223.415 292.62L222.736 293.661L226.258 297.662L223.15 298.101L221.394 300.545L218.061 301L213.336 296.708L212.024 294.472L207.186 295.054L205.333 293.788L205.415 292.778L203.302 290.323L201.526 289.731L201.102 288.129L198.061 284.745L197.724 282.969L193.156 281.448L193.58 280.432L192.564 278.743L188.594 274.431L187.241 273.926L184.536 270.164L182.337 269.827L182.592 268.475L181.153 266.949L181.576 264.413L179.969 262.978L178.958 259.003L177.351 256.64L178.785 253.175L178.616 250.975L183.858 246.071L181.576 241.758L178.535 241.926L178.616 238.803L176.253 236.859L175.406 234.491L177.432 231.449L180.142 230.265L181.913 228.402L183.944 223.753L184.45 216.735L180.479 214.541L179.8 211.499L182.424 207.437L181.576 204.058L184.96 200.93L195.693 202.027L196.877 200.338L199.5 202.338Z" fill="#CCCCCC" stroke="white" stroke-width="0.5"/>
<path d="M283.963 148.436L280.922 148.9L280.243 149.997L278.977 148.395L276.696 145.435L275.594 141.801L272.383 139.601L270.863 136.728L265.79 134.278L266.126 133.094L264.774 132.926L263.59 130.808L262.406 131.91L258.435 127.598L258.349 128.614L256.746 129.798L255.22 129.287L248.208 124.806H247.274L246.937 123.204L247.953 121.933L246.682 121.091L244.232 116.1L244.401 112.721L243.217 108.154L244.401 106.296L248.208 104.52L248.29 103.081L250.744 102.239L252.265 100.631L252.857 97.9261L254.883 97.0789L257.42 97.9261L260.125 91.5008L262.324 91.0772V88.1223L263.845 88.4591L264.692 85.4174L263.59 84.4835L265.621 81.2733L265.509 79.4208L265.545 79.5177H267.555L269.566 76.8384L271.909 75.833L275.762 77.507L275.425 78.8492L277.584 79.9005L278.584 82.2277L276.691 85.2337L273.414 85.1112L272.378 87.5098L273.384 88.7041L274.767 94.8487L274.532 97.7118L271.592 99.6511L271.107 101.958L271.317 102.928L272.21 102.994L271.562 104.229L272.031 105.566L273.598 106.133L273.317 108.536L276.201 112.114L279.875 111.537L280.529 113.773L281.794 114.63L285.26 113.048L288.812 113.614L289.133 115.717L290.761 117.84L290.378 119.295L291.634 120.78L291.705 123.388L295.502 124.934L296.39 127.685L298.427 128.915L300.902 127.108L301.376 128.037L300.504 130.354L302.203 130.798L303.556 134.299L307.108 135.733L308.634 138.28L309.369 138.065L309.864 135.764L310.92 135.998L311.196 137.933L312.747 138.157L312.002 139.785L312.492 141.878L307.996 143.745L308.154 145.328L306.077 146.532L304.929 148.502L297.135 148.313L295.104 147.364L293.915 148.078L291.027 145.659L289.883 145.756L287.566 144.123L284.331 143.822L281.871 141.755L281.815 145.226L283.963 148.436Z" fill="#CCCCCC" stroke="white" stroke-width="0.5"/>
</svg>
