<svg width="465" height="302" viewBox="0 0 465 302" fill="none" xmlns="http://www.w3.org/2000/svg">
<path d="M84.4836 216.998L86.4925 216.255L88.888 216.824L90.859 215.285L91.8369 213.602L92.921 207.636L93.8155 206.491L95.6273 206.423L96.6279 207.105L98.796 206.491L100.252 209.394L102.814 210.554L103.974 210.615L104.732 210.001L103.724 208.182L104.125 207.173H106.187L105.429 209L105.634 210.949L107.309 211.957L107.089 214.701L108.37 218.537L108.105 220.584L109.894 221.979L109.849 222.449L106.907 223.745L104.474 226.246L104.209 227.224L106.081 240.263L107.863 242.265L112.426 243.872L120.257 248.92L125.95 254.689L130.362 258.154L131.166 259.875L128.763 263.248L129.028 265.735L127.163 270.328L127.262 272.504L127.133 276.31L128.05 278.235L126.291 279.63L124.525 279.501L123.903 278.19L120.598 281.085L118.43 279.903L117.498 277.697L116.186 276.901L115.693 279.107L114.572 279.88L113.647 279.547L111.994 279.964L111.532 280.888L107.779 281.222L106.945 283.337L105.232 285.232L104.747 284.633L102.548 284.103L99.918 284.444L98.4246 283.868L96.5597 285.361L96.2413 286.938L94.1111 287.264L92.7314 287.082L91.3745 285.823L89.1609 286.134L87.4932 284.421L84.4457 284.997L80.8903 284.269L79.6547 284.952L78.3887 284.717L73.8175 288.34L72.309 284.891L69.4283 284.838L67.5407 286.612L65.6682 287.324L65.2361 288.12L65.5621 289.963L63.7655 292.358L58.7394 293.48L54.7292 293.381L50.5295 291.38L48.9679 291.896L43.9949 290.948L43.7068 290.705L44.6089 289.674L45.8825 289.364L45.6248 286.763L46.019 285.46L44.9425 283.125L46.9211 280.305L45.8749 278.584L46.0796 277.507L45.6096 277.288L45.4201 275.536L46.1933 274.612L46.2691 273.414L45.4125 271.488L46.2691 270.685L46.4738 268.918L45.9204 267.19L44.9501 266.371L45.1093 263.316L44.6317 261.868L45.4201 260.527L47.3228 260.39L47.1106 259.579L47.9596 257.926L50.9616 254.128L50.8176 252.279L49.2029 248.587L45.837 247.882L45.9053 246.51L44.101 243.606L43.7826 240.627L42.2513 237.754L41.2431 237.671L40.6821 233.812L39.1963 231.811L39.4313 227.838L39.3024 225.822L38.5898 225.109L38.7794 224.018L41.751 222.585L43.3354 215.3L44.7606 214.261L45.4959 215.088L46.6406 218.802L49.4834 218.673L51.189 220.902L58.368 219.098L62.0295 215.747L62.9543 215.535L72.271 218.651L74.8182 218.855L77.1227 220.515L82.1866 219.143L84.4836 216.998Z" fill="#CCCCCC" stroke="white" stroke-width="0.5"/>
<path d="M352.916 131.973L357.45 129.448L364.955 130.176L367.267 131.078L372.035 135.194L375.878 137.704L380.101 137.181L381.882 138.394L385.225 136.127L392.784 137.317L396.331 137.112L398.052 137.711L397.559 139.045L397.84 139.705L401.585 141.903L404.693 142.677L407.99 141.509L410.689 141.668L412.023 148.226L411.167 150.394L412.084 153.949L411.834 155.458L399.197 154.692L398.287 156.011L397.984 158.035L398.977 159.339L400.243 159.627L398.651 159.748L398.007 161.014L396.619 160.431L395.49 161.886L393.329 161.659L392.291 163.228L392.245 167.731L393.489 170.089L392.965 170.24L390.987 169.05L389.751 169.725L388.516 169.156L386.711 170.49L385.135 169.656L383.687 170.02L381.625 172.81L381.086 177.154L380.412 176.593L380.162 176.873L379.707 176.661L379.244 177.214L379.115 176.782L378.517 177.525L378.456 179.307L379.722 180.58L379.745 181.331L379.222 181.778L379.949 182.991L380.654 182.24L380.01 181.369L380.76 179.375L383.467 182.642L384.589 181.748L385.248 179.845L386.893 180.861L388.212 180.959L388.03 180.201L388.675 179.231L390.456 181.081L391.669 180.808L391.798 179.633L392.518 180.747L393.572 180.504L393.307 181.649L393.754 181.983L393.132 183.256L394.231 184.439L395.369 184.666L396.513 183.726L396.756 183.059L397.097 182.9L396.915 183.552L397.453 183.613L397.567 184.606L399.379 184.53L399.038 185.599L397.825 185.841L397.9 187.145L398.969 187.767L397.991 188.426L398.105 189.298L400.008 192.679L401.289 192.861L401.532 192.171L403.556 191.982L403.268 193.21L402.593 193.513L404.185 194.87L402.388 195.56L402.608 196.09L401.319 196.879L401.304 197.895L402.093 199.062L401.153 199.335L401.16 200.775L402.836 201.367L403.495 202.087L403.04 202.147L403.025 203.034L405.936 204.892L406.808 206.256L407.551 206.317L407.846 207.583L409.006 208.295L408.574 209.054L409.249 209.137L409.628 209.857L410.136 209.599L410.333 210.759L411.743 211.411L412.903 212.996L413.138 214.557L414.108 215.391L415.533 215.255L416.807 217.347L417.178 219.401L417.209 218.742L418.861 219.469L418.49 220.228L420.446 222.744L420.18 223.26L421.833 225.701L422.075 227.134L420.15 227.687L417.845 226.573L416.579 227.854L416.284 227.338L415.207 227.793L414.669 227.065L414.366 227.831L413.835 227.308L413.032 228.301L412.198 227.406L412.13 226.33L410.538 226.072L409.188 224.988L409.347 225.996L408.893 226.421L408.551 225.307L408.074 226.527L407.05 225.769L406.163 226.936L406.156 227.899L406.679 228.165L406.277 229.188L407.202 229.324L407.384 230.757L405.853 230.151L405.845 231.326L404.973 230.264L404.276 230.772L404.056 230.136L403.154 230.264L403.677 229.15L403.025 228.991L402.684 229.635L402.275 228.801L400.546 228.763L400.963 228.354L400.144 227.611L399.803 228.218L397.256 227.778L397.612 228.468L396.286 228.422L395.3 229.992L395.103 229.385L394.345 229.938L394.087 229.355L393.094 229.999L392.806 229.559L392.503 229.969L391.631 229.612L392.185 230.446L391.101 231.439L390.593 231.576L390.403 230.742L389.205 232.349L389.122 231.811L388.121 231.758L387.568 233.1L388.258 233.486L387.257 233.933L387.977 234.836L387.121 235.018L385.582 233.82L383.285 229.575L382.701 230.219L380.283 229.605L380.018 228.68L378.668 228.703L377.44 226.398L376.311 226.436L375.818 225.405L374.529 225.019L372.581 219.962L370.223 219.651L369.48 217.559L368.836 217.718L368.396 216.945L367.524 216.877L367.024 215.869L365.766 215.907L365.356 215.247L363.833 215.649L363.128 215.088L361.786 215.747L361.331 217.112L360.057 217.65L360.285 219.591L359.155 219.272L358.799 218.552L357.859 219.053L356.737 218.363L355.13 218.848L353.424 216.945L350.384 216.255L348.125 217.271L346.442 215.012L342.561 212.738L340.514 209.986L340.257 208.379L342.372 205.885L342.25 204.664L340.492 201.177L340.514 199.926L341.697 197.349L339.802 195.931L338.43 192.952L335.746 190.655L335.011 187.441L335.981 186.289L341.439 185.356L342.834 183.628L342.887 181.748L342.25 181.103L339.044 181.998L337.543 181.331L336.527 178.382L334.601 176.07L333.388 172.734L330.856 169.543L327.93 162.766L325.133 160.196L321.699 155.678L321.979 152.933L319.773 148.749L318.735 147.771L315.718 147.43L313.648 144.89L313.625 142.646L314.482 140.395L312.981 135.05L313.315 133.095L310.957 133.057L312.231 132.427L315.695 132.875L316.18 133.421L315.384 134.831L316.082 135.862L321.843 135.808L326.634 132.42L330.386 132.609L332.721 132.147L335.685 133.39L339.893 132.564L340.825 132.807L342.19 134.997L343.713 135.429L349.202 132.481L352.916 131.973Z" fill="#CCCCCC" stroke="white" stroke-width="0.5"/>
<path d="M376.804 65.3906L378.949 66.7703L381.11 69.5979L381.739 73.9114L382.361 74.5785L384.18 74.533L388.577 70.9549L390.154 70.7502L391.548 72.001L391.571 75.8899L395.49 77.8609L399.508 77.6714L401.055 80.7416L402.73 82.091L408.795 89.6717L409.757 89.3154L413.146 85.3659L416.269 85.5251L417.391 85.9799L419.787 88.5801L421.818 92.4235L423.524 93.8487L422.159 98.5184L419.817 102.87L415.185 103.795L413.836 104.674L413.646 106.19L413.479 105.394L412.403 105.485L413.267 105.804L412.646 106.44L413.131 107.638L415.329 107.79L415.473 108.214L412.964 118.941L411.198 121.321L411.205 125.127L412.411 132.321L411.698 133.685L412.153 139.818L411.182 140.121L410.705 141.653L408.006 141.494L404.709 142.661L401.6 141.888L397.856 139.689L397.568 139.03L398.06 137.703L396.339 137.104L392.792 137.309L385.234 136.119L381.883 138.386L380.109 137.18L375.887 137.703L372.043 135.186L367.267 131.07L364.955 130.176L357.45 129.448L352.917 131.972L353.129 129.008L351.848 128.296L351.393 126.264L349.18 125.422L349.316 124.778L350.241 124.361L351.348 122.853H353.978L355.957 121.791L361.612 120.662L360.429 116.743V114.029L358.557 111.982L359.315 109.094L366.123 105.076L364.72 101.99L364.569 99.0339L363.735 97.1842L363.439 94.4627L363.78 93.5606L365.865 94.2277L367.32 92.9239L367.047 89.2927L366.358 87.2383L366.555 84.7139L370.413 78.8616L370.065 77.5198L368.639 77.209L370.095 74.5102V73.3959L368.086 72.5014L368.094 69.8178L368.632 69.2189L370.709 69.0445L375.318 67.5132L376.258 66.8613L376.804 65.3906Z" fill="#CCCCCC" stroke="white" stroke-width="0.5"/>
<path d="M225.265 62.4195L229.851 61.4113L231.617 62.8668L232.716 62.8289L233.535 61.9647L233.801 63.7765L232.497 65.5125L232.345 66.6799L235.104 73.6542L236.545 74.5942L237.022 76.08L238.334 76.497L239.016 77.3612L239.084 79.1654L237.909 82.0991L245.369 86.1776L247.643 84.3506L248.765 84.2369L251.782 87.0039L254.329 88.2016L257.778 88.0197L262.13 89.7329L265.609 88.3229L267.034 91.7039L270.81 92.553L275.843 97.3743L275.123 99.5727L276.882 101.013L277.071 102.059L278.83 103.856L279.148 104.872L279.111 106.176L276.753 107.821L276.268 110.504L275.297 112.483L275.017 117.562L275.631 120.162L276.124 121.261L278.876 123.596L278.534 124.703L276.457 125.787L276.056 127.25L284.508 130.214L282.507 133.262L273.827 137.871L273.448 138.651L274.304 140.213L274.062 142.116L268.892 146.225L267.777 146.285L264.639 145.11L260.219 146.202L256.239 145.466L254.178 145.679L251.213 145.141L246.438 146.907L244.095 148.446L241.874 146.687L241.434 144.125L240.191 141.987L241.139 140.645L243.132 139.288L243.39 137.734L241.851 136.976L241.798 134.224L238.592 133.815L237.075 132.193L237.144 128.607L240.191 125.688L240.312 124.627L239.706 123.543L236.696 122.747L234.703 121.064L233.073 121.39L229.957 120.041L227.463 120.579L225.606 118.979L220.284 119.245L219.708 117.706L220.731 114.499L219.951 113.536L217.896 113.559L214.098 115.295L209.375 114.075L207.094 111.095L204.736 109.496L204.342 106.539L205.964 106.767L206.934 106.085L207.018 103.174L209.156 99.9972L209.337 97.3743L214.788 91.8252L215.584 89.1568L214.985 87.5573L212.036 86.9811L212.211 85.2982L213.242 83.1074L212.847 81.9551L207.602 82.5236L206.881 82.1674L206.624 80.9469L207.457 79.5672L211.604 78.1799L212.43 77.2854L213.439 70.9554L211.597 67.9004L212.643 65.8536L212.878 63.0639L211.983 60.0089L212.855 58.5382L216.335 56.3701L222.452 61.5857L225.265 62.4195Z" fill="#CCCCCC" stroke="white" stroke-width="0.5"/>
<path d="M24.633 1.40178L25.8004 2.28872L29.568 2.86486L34.162 7.2162L38.6043 9.48284L42.5463 12.5303L50.3468 13.9252L51.4612 14.9106L51.7796 17.8216L49.2173 22.1427L43.3347 23.1282L41.4395 23.9014L39.658 25.5616L36.656 35.462L37.8007 39.0022L39.3699 40.4577L44.4414 41.8071L46.1547 42.8532L52.477 44.3997L51.8554 45.7112L51.1049 46.0675L45.0252 46.8559L44.8735 48.4327L45.3056 49.0088L51.7265 51.4725L52.3406 52.2837L52.5756 54.0955L51.8554 54.9824L48.4137 55.604L42.8874 58.4468L41.5001 60.3647L39.7945 66.5279L37.1109 69.219L34.8215 74.5938L32.1607 75.8901L31.539 76.7391L31.1903 81.424L29.6211 84.5018L28.4385 85.4191L24.6785 85.2068L23.9886 84.5018L23.2306 81.8864L18.7352 80.9767L17.0674 78.2628L15.2329 78.2325L13.9821 77.4517L10.5101 67.9834L10.8664 64.1551L9.82023 62.0022L10.6844 60.2283L9.73684 58.4847L7.70521 57.8024L5.72664 56.1953L4.49098 54.3305L4.1271 51.9274L3.50548 51.0025L3.98307 48.0233L2.34563 46.4086L0.746094 42.6258L2.8687 36.6598L3.46 32.6496L3.03548 30.8453L4.47581 29.496L4.49856 25.0612L5.03679 24.0682L4.63501 22.8553L6.87133 22.2185L7.20488 21.5286L13.5045 21.1799L14.5885 19.7699L13.838 17.9808L15.9379 17.3592L17.2266 17.7004L17.6132 16.8134L20.3347 16.7224L20.547 15.7521L19.9254 15.1987L20.2816 13.2656L19.5615 12.2119L20.2513 7.95911L20.8805 8.17896L20.8881 6.98878L19.7889 6.20038L20.2816 5.2907L20.7289 5.58634L21.4036 5.17698L20.8199 4.29004L21.7447 4.11568L21.4642 3.66084L22.192 2.74357L22.0859 1.75049L22.7681 2.15227L23.5944 1.15161L23.9659 1.97033L24.254 1L24.633 1.40178Z" fill="#CCCCCC" stroke="white" stroke-width="0.5"/>
<path d="M117.073 49.4716L120.651 49.6839L126.959 52.1931L129.271 54.0201L135.555 55.9531L145.236 54.346L148.23 54.3764L146.631 61.6008L145.372 60.7972L145.092 62.3285L143.72 60.3879L142.4 60.4713L138.079 65.9673L135.631 64.9818L134.592 65.5883L135.82 69.7198L135.934 75.3901L141.203 77.6189L140.27 79.2866L139.975 82.8041L138.891 83.0391L137.625 82.5691L132.136 83.7896L131.477 84.3582L131.651 85.3285L130.764 87.7543L122.456 88.4897L120.667 89.8087L119.287 101.369L120.28 102.81L120.856 102.893L123.919 101.938L125.435 103.75L126.163 113.309L122.046 113.301L122.122 118.35L122.198 120.571L121.379 121.39L117.74 119.54L110.478 119.343L108.545 117.91L105.649 118.525L101.457 121.163H100.456L97.6362 119.343L90.2223 125.878L88.2134 124.566L83.7407 117.744L83.0964 113.862L85.9543 109.845L85.8179 108.852L83.9985 108.184L79.2757 107.76L78.4721 106.016L78.4494 103.772L79.5107 102.469L82.3156 102.506L82.7704 101.491L82.4975 99.8759L79.9807 98.1854L74.8106 97.1089L73.0216 95.752L72.9609 94.6679L76.9863 90.5971L79.8821 84.9874L79.4349 79.8173L82.3686 75.0642L83.7711 74.3895L85.924 75.2461L90.0782 75.701L92.1175 72.5322H95.6198L95.1194 70.023L92.0341 67.4607L91.4882 66.3842L91.981 64.8302L94.3386 62.374L96.3096 57.6815L96.5522 51.67L95.4151 48.0389L95.7865 44.6579L99.6451 43.6193L102.655 43.5283L104.322 44.0969L105.293 45.5372L108.75 46.6137L111.494 48.1677L117.073 49.4716Z" fill="#CCCCCC" stroke="white" stroke-width="0.5"/>
<path d="M204.342 106.539L204.737 109.496L207.094 111.095L209.376 114.074L214.099 115.295L217.897 113.559L219.951 113.536L220.732 114.499L219.709 117.706L220.285 119.245L225.606 118.979L227.464 120.579L229.958 120.041L233.073 121.39L234.703 121.064L236.697 122.747L239.707 123.543L240.313 124.627L240.192 125.688L237.144 128.607L237.076 132.192L238.592 133.815L241.799 134.224L241.852 136.976L243.391 137.734L243.133 139.288L241.139 140.645L240.192 141.987L241.435 144.125L241.875 146.687L244.096 148.446L243.952 149.704L242.185 150.432L239.737 148.309L237.531 149.984L236.144 150.121L233.452 149.514L231.269 147.301L228.889 147.119L229.215 149.863L228.335 150.644L219.299 148.142L216.494 148.567L211.764 145.709L209.611 147.369L206.943 147.574L203.744 149.477L198.293 148.787L198.687 145.686L196.542 141.456L193.115 136.862L190.257 136.089L189.371 135.05L188.074 130.638V127.674L188.961 124.794L190.295 122.883L193.684 121.686L193.646 119.131L192.888 117.289L192.941 114.317L193.722 112.573L195.829 111.126L195.617 104.341L199.93 105.902L204.342 106.539Z" fill="#CCCCCC" stroke="white" stroke-width="0.5"/>
<path d="M415.723 27.4716L418.967 39.3582L427.715 43.9067L436.964 48.0457L445.174 48.6674L452.542 50.5853L462.405 50.0546L461.996 51.5859L462.359 53.5114L461.291 55.2171L461.67 58.6436L462.428 60.2583L461.662 64.1245L464.687 70.2042L463.815 73.1228L460.669 79.5967L457.553 83.1445L456.355 83.5236L454.369 86.3133L454.058 88.542L452.671 86.3815L450.154 85.6992L448.115 84.0466L444.294 82.8489L439.883 83.1445L437.874 84.2058L434.167 84.7516L430.983 83.9329L426.139 87.1775L423.523 93.8485L421.818 92.4233L419.786 88.5799L417.39 85.9797L416.269 85.5249L413.145 85.3657L409.757 89.3152L408.794 89.6715L402.729 82.0908L401.054 80.7414L399.508 77.6712L395.49 77.8608L391.57 75.8898L391.548 72.0009L390.153 70.75L388.576 70.9547L384.179 74.5328L382.36 74.5783L381.738 73.9112L381.109 69.5978L378.949 66.7701L376.803 65.3905L374.84 61.7896L373.998 61.8351L369.571 64.8598L368.434 64.4201L365.205 59.9247L361.778 59.4472L359.891 57.2033L361.058 57.0289L361.339 56.3845L361.369 55.3384L360.368 53.3143L360.527 51.7451L365.804 45.7184L370.125 44.8088L377.486 37.8724L378.388 37.6905L379.926 39.4416L381.435 39.1611L383.74 36.3941L385.21 32.672L387.075 34.6733L389.387 34.9614L389.395 32.8539L392.222 28.7982L393.852 27.5095L397.499 26.2511L397.984 27.4565L399.818 28.0099L407.892 26.6984L413.282 22.4229L415.291 24.9093L415.723 27.4716Z" fill="#CCCCCC" stroke="white" stroke-width="0.5"/>
<path d="M217.988 231.697L216.987 235.056L219.345 244.38L220.793 242.735L221.869 242.325L222.574 240.718L223.53 240.476L225.311 244.751L228.298 245.896L230.906 247.912L237.334 249.891L240.905 248.36L241.822 248.564L243.497 250.672L244.179 255.16L245.749 258.298L245.453 260.413L244.703 261.725L245.476 263.68L247.288 262.521L250.123 263.779L252.2 262.392L252.806 260.663L254.292 260.011L258.719 260.603L259.97 264.651L258.136 265.598L256.794 267.13L255.331 272.012L255.422 273.748L257.036 274.46L258.31 276.424L259.356 276.924L258.727 279.433L258.863 282.026L265.277 288.136L266.05 289.478L266.406 292.669L264.268 293.874L262.479 294.178L261.433 293.351L261.577 291.881L260.251 291.941L258.029 290.054L257.506 291.024L255.497 291.433L254.664 292.563L253.398 292.245L252.238 293.132L250.335 292.919L249.365 295.497L247.636 294.011L245.703 293.283L242.375 294.253L238.501 292.957L237.243 293.859L236.242 296.884L234.15 295.989L232.134 295.845L228.866 297.127L228.571 298.074L227.646 297.945L225.311 298.87L224.09 298.559L221.733 300.371L218.996 299.962L218.041 301L216.502 300.068L214.122 299.803L213.303 296.573L212.121 295.429L210.476 294.807L210.225 293.753L209.437 293.367L209.68 291.631L208.141 290.827L207.966 288.015L207.246 286.468L210.089 282.814L209.763 282.064L208.307 282.268L207.8 281.829L208.793 278.334L208.262 276.469L207.549 275.453L205.434 274.506L201.235 276.522L197.406 275.097L197.209 272.482L196.004 268.926L195.875 267.463L196.633 266.485L202.061 264.499L203.653 262.642L203.448 258.002L204.426 254.386L202.796 249.929L202.235 247.564L202.538 246.662L204.206 245.85L205.571 243.857L206.92 243.129L208.209 239.725L210.953 235.867L217.988 231.697Z" fill="#CCCCCC" stroke="white" stroke-width="0.5"/>
<path d="M9.46483 157.596L10.8066 158.217L12.5047 160.135L15.302 160.711L17.0077 161.629L18.0311 165.654L19.7443 168.823L23.9895 171.074L24.3079 175.865L27.4994 180.899L28.4394 184.363L29.2126 184.848L32.7604 185.136L34.36 187.532H36.5205L36.8464 189.579L37.559 189.867L39.1131 188.29L40.1062 188.533L41.3494 190.163H42.2667L43.2218 187.388L45.7462 186.524L46.527 184.947L47.4064 184.416L48.8998 184.757L49.6806 186.19L52.5461 187.668L54.9113 187.267L56.6397 184.424L57.2462 184.303L58.0498 187.615L60.6424 188.699L62.3708 190.087L64.7284 190.42L66.9874 188.707L68.9963 189.571L71.6193 189.42L73.3704 189.943L75.114 195.31L80.0794 199.335V200.366L76.3648 201.746L74.4848 206.241L74.6819 206.863L75.91 207.439L80.8981 205.794L82.1944 210.062L87.5843 212.374L87.4251 214.193L85.9772 214.717L84.4838 216.998L82.1868 219.144L77.1229 220.516L74.8183 218.856L72.2712 218.651L62.9545 215.535L62.0296 215.748L58.3681 219.098L51.1892 220.902L49.4835 218.674L46.6408 218.803L45.4961 215.088L44.7607 214.262L43.3356 215.3L41.7512 222.585L38.7795 224.018L38.5066 223.321L37.5439 222.957L35.5198 223.29L33.6625 220.963L31.9493 221.714L28.8184 220.895L27.3326 218.81L24.3989 219.045L20.8284 216.051L18.8119 215.687L18.0007 214.55L16.3785 213.852L14.923 212.132L13.6873 211.677L12.3455 210.342L11.5647 206.211L9.19951 205.392L7.62271 201.276L6.46286 199.828H5.77302L4.12042 197.508L3.98396 196.485L2.37685 194.688L1.0957 194.218L1.41409 193.369L3.88541 192.983L4.35542 192.406L5.81092 192.422L6.41738 193.202L7.85772 192.202L8.55515 191.042L8.3353 189.45L9.88177 187.57L9.74532 186.19L12.8004 185.675L12.9975 184.151L13.892 183.241L14.5515 179.246L15.6507 177.541L14.741 174.713L12.9141 172.848L11.1478 171.931L9.10096 169.399L6.76609 168.846L6.8798 166.715L8.82805 161.583L8.02449 160.802L9.52548 158.627L9.46483 157.596Z" fill="#CCCCCC" stroke="white" stroke-width="0.5"/>
<path d="M125.434 103.749L126.571 103.188L130.74 102.749L133.158 100.861L135.668 100.163L140.489 101.422L145.113 100.952L148.206 99.4812L149.571 99.5722L152.125 96.8431L152.989 98.473L155.127 98.943L157.705 101.437L170.956 103.135L171.517 101.975L171.38 98.5791L171.797 97.7452L174.193 100.376L176.027 97.0326L179.454 94.2733L182.456 92.9921L185.928 93.174L187.914 94.5689L191.447 95.8273L193.599 94.5537H195.275L198.065 91.8323L199.952 87.6553L201.097 88.0419L202.59 92.7874L203.439 93.8942L207.503 95.7515L209.337 97.3738L209.155 99.9967L207.017 103.173L206.934 106.084L205.964 106.766L204.341 106.539L199.929 105.902L195.616 104.34L195.828 111.125L193.721 112.573L192.94 114.317L192.887 117.288L193.645 119.13L193.683 121.685L190.294 122.883L188.96 124.793L188.073 127.674V130.638L189.369 135.05L190.256 136.089L193.114 136.862L196.541 141.456L198.686 145.686L198.292 148.786L190.939 152.023L189.278 151.978L186.239 150.613L179.279 151.766L177.271 151.182L175.519 147.869L172.32 145.352L162.64 144.208L159.835 147.664L152.8 147.793L145.303 145.633L141.209 145.959L135.925 144.988L135.766 143.965L138.237 142.32L138.275 140.971L138.988 139.803L137.009 138.317L136.721 134.724L134.348 133.049L134.864 132.018L136.721 130.653L131.536 127.879L130.884 123.118L127.177 121.268L126.737 118.585L122.121 118.35L122.045 113.301L126.161 113.308L125.434 103.749Z" fill="#CCCCCC" stroke="white" stroke-width="0.5"/>
<path d="M80.1855 38.752L83.5135 40.0331L86.6671 40.4425L88.9565 42.8456L91.7462 44.2859L94.733 44.9606L95.7867 44.6573L95.4152 48.0384L96.5523 51.6695L96.3098 57.681L94.3388 62.3735L91.9812 64.8297L91.4884 66.3837L92.0342 67.4602L95.1196 70.0225L95.6199 72.5317H92.1176L90.0784 75.7005L85.9242 75.2456L83.7712 74.389L82.3688 75.0637L79.4351 79.8168L79.8823 84.9869L76.9865 90.5966L72.9611 94.6674L73.0217 95.7515L74.8108 97.1084L79.9809 98.1849L82.4977 99.8754L82.7706 101.49L82.3157 102.506L79.5109 102.468L78.4496 103.772L78.4723 106.016L79.2759 107.759L74.4242 107.479L72.7337 108.783L71.0962 111.08L67.9578 111.156L64.7739 112.149L56.329 112.096L54.5854 111.049L52.2733 107.676L49.2865 106.016L47.3913 103.529L45.9737 103.438L43.9421 104.538L40.834 102.316L38.8099 99.1552L38.7113 98.1849L37.2483 97.3055L36.9829 95.1071L35.6108 91.7185L33.3366 90.4298L31.4793 88.3375L31.2064 86.973L28.4395 85.419L29.622 84.5017L31.1913 81.4239L31.54 76.739L32.1616 75.89L34.8224 74.5937L37.1118 69.2189L39.7954 66.5278L41.5011 60.3646L42.8883 58.4467L48.4147 55.6039L51.8563 54.9823L52.5765 54.0954L52.3415 52.2836L51.7275 51.4724L45.3066 49.0087L44.8745 48.4326L45.0261 46.8558L51.1058 46.0674L51.8563 45.7111L52.478 44.3996L59.1414 43.2018L64.7739 40.3818L68.678 39.2144L80.1855 38.752Z" fill="#CCCCCC" stroke="white" stroke-width="0.5"/>
<path d="M106.188 207.174L108.742 204.596L112.07 202.64L115.967 197.478L117.619 199.555L120.038 198.259L120.25 197.341L118.923 194.718L120.439 190.026L121.402 189.351L124.427 189.01L125.86 187.752L128.657 181.884L128.52 180.126L127.55 179.451L123.729 181.103L122.153 181.149L121.038 180.315L118.195 175.812L117.157 170.119L117.589 168.906L121.978 167.936L125.17 170.028L126.822 170.172L131.401 165.214L133.524 165.631L135.002 165.282L135.836 161.553L139.073 161.265L142.537 159.764L144.713 160.992L147.184 161.598L148.647 167.238L149.58 168.944L151.763 167.655L153.696 169.459L153.817 171.476L153.241 172.992L150.793 175.57L150.376 177.586L153.249 184.659L153.552 187.539L156.994 191.277L157.138 194.317L155.72 195.477L156.91 199.024L157.024 203.717L157.304 205.028L160.64 209.357L161.004 210.699L160.443 211.639L158.442 211.487L156.599 212.419L156.44 216.27L155.44 219.015L156.167 222.926L155.917 226.497L153.992 232.501L153.772 235.761L152.991 237.747L152.104 238.922L148.526 240.461L146.714 242.894L146.191 246.078L146.881 249.345L145.676 249.633L144.652 251.074L142.446 252.287L137.996 251.172L131.28 252.089L130.363 258.154L125.951 254.69L120.257 248.921L112.427 243.872L107.863 242.265L106.081 240.263L104.209 227.225L104.474 226.247L106.908 223.745L109.849 222.449L109.895 221.979L108.105 220.584L108.371 218.537L107.09 214.701L107.31 211.957L105.634 210.949L105.429 209.001L106.188 207.174Z" fill="#CCCCCC" stroke="white" stroke-width="0.5"/>
<path d="M20.4717 135.998L21.768 137.544L23.0415 137.074L24.3075 137.719L24.7624 138.644L25.9829 136.946L26.6272 137.4L27.2261 136.665L29.2274 136.824L30.1977 135.869L31.0544 136.711L31.5471 139.258L34.587 139.045L35.6786 140.107L36.9977 142.995L40.6137 143.564L42.8045 145.565L46.0339 146.149L47.5349 148.529L51.583 150.273L52.6064 151.887L53.4554 153.593L55.8964 154.927L57.3974 157.505L59.1486 158.126L60.4221 159.354L61.3091 164.236L60.5889 165.904L64.0154 166.495L66.8885 170.801L68.8519 170.392L69.0414 171.635L67.5783 173.606L66.1228 178.594L66.3048 184.788L66.987 188.707L64.728 190.42L62.3704 190.087L60.642 188.699L58.0494 187.615L57.2458 184.302L56.6393 184.424L54.9109 187.267L52.5457 187.668L49.6802 186.19L48.8994 184.757L47.406 184.416L46.5266 184.947L45.7458 186.524L43.2214 187.388L42.2663 190.162H41.349L40.1058 188.533L39.1127 188.29L37.5586 189.867L36.846 189.579L36.5201 187.532H34.3596L32.76 185.136L29.2122 184.848L28.439 184.363L27.499 180.899L24.3075 175.865L23.9891 171.074L19.7439 168.823L18.0307 165.654L17.0073 161.628L15.3016 160.711L12.5043 160.135L10.8062 158.217L9.46443 157.596L8.40313 156.587L9.22185 156.163L10.5485 153.312L11.2156 153.199L11.4354 151.387L8.51684 147.672L8.21361 146.232L7.12957 144.807L7.02344 143.018L9.5554 142.199L11.8751 140.334L12.5725 139.538L12.8454 137.924L13.884 137.279L16.8556 138.924L16.8329 137.613L17.591 136.142L20.4717 135.998Z" fill="#CCCCCC" stroke="white" stroke-width="0.5"/>
<path d="M177.111 55.778L178.802 55.4596L182.501 53.1323L188.414 53.5417L191.325 52.3136L192.098 51.4873L193.971 51.1689L196.836 51.4191L201.096 54.9669L204.349 55.7553L205.781 55.6188L207.396 54.656L210.504 54.2998L216.334 56.3693L212.854 58.5374L211.982 60.008L212.877 63.0631L212.642 65.8528L211.596 67.8996L213.438 70.9546L212.43 77.2845L211.603 78.1791L207.457 79.5663L206.623 80.946L206.881 82.1665L207.601 82.5228L212.847 81.9543L213.241 83.1065L212.21 85.2974L212.035 86.9803L214.984 87.5564L215.583 89.156L214.787 91.8244L209.337 97.3735L207.502 95.7512L203.439 93.8939L202.59 92.7871L201.096 88.0416L199.952 87.655L198.064 91.832L195.274 94.5535H193.599L191.446 95.827L187.914 94.5686L185.927 93.1738L182.455 92.9918L179.453 94.273L176.027 97.0324L174.192 100.375L171.797 97.7449L171.38 98.5788L171.516 101.975L170.955 103.135L157.704 101.437L155.127 98.9427L152.989 98.4727L152.125 96.8428L149.57 99.5719L148.206 99.4809L145.113 100.952L140.488 101.422L135.667 100.163L133.158 100.861L130.74 102.748L126.57 103.188L125.433 103.749L123.917 101.937L120.854 102.892L120.278 102.809L119.285 101.369L120.665 89.8079L122.454 88.4889L130.762 87.7535L131.649 85.3277L131.475 84.3574L132.135 83.7888L137.623 82.5683L138.889 83.0383L139.973 82.8033L140.269 79.2859L141.201 77.6181L135.932 75.3894L135.819 69.719L134.591 65.5875L135.629 64.981L138.078 65.9665L142.399 60.4705L143.718 60.3871L145.09 62.3278L145.37 60.7964L146.629 61.6L148.228 54.3756L150.685 52.9125L152.739 50.5018L160.547 47.75L169.318 49.8574L173.851 54.2467L177.111 55.778Z" fill="#CCCCCC" stroke="white" stroke-width="0.5"/>
<path d="M152.802 147.794L159.836 147.665L162.641 144.208L172.322 145.353L175.521 147.87L177.272 151.182L179.281 151.766L186.24 150.614L189.28 151.978L190.94 152.024L198.293 148.787L197.52 150.568L197.861 159.483L195.451 164.85L196.792 170.536L199.059 174.523L201.667 175.569H203.251L209.581 172.863L210.658 173.371L211.34 175.539L211.037 177.472L207.891 180.649L208.012 181.649L210.104 184.014L210.066 185.447L209.445 185.72L206.951 184.697L206.412 185.91L206.405 195.158L207.224 195.135L209.399 196.606L209.892 197.766L204.131 199.835L202.38 201.01L201.576 204.786L201.909 207.5L203.63 209.137L207.277 210.494L211.12 209.273L214.418 209.319L217.314 207.446L219.451 210.683L222.628 213.534L219.61 221.372L220.103 224.442L219.929 229.302L217.988 231.697L210.953 235.867L208.209 239.725L206.92 243.129L205.571 243.857L204.206 245.85L202.539 246.662L199.992 244.372L198.945 242.348L198.051 242.242L196.641 243.508L196.413 248.504L193.556 251.817L191.175 252.393L188.34 251.657L186.96 253.856L185.118 254.591L183.67 256.934L181.358 251.945L181.404 250.316L182.359 248.185L181.767 247.928L181.328 246.411L180.13 247.427L179.122 245.57L180.251 244.13L180.949 240.256L180.827 238.907L179.372 237.125L178.568 236.647L175.733 237.011L171.488 235.942L165.848 238.148L162.846 238.368L161.83 237.724L159.268 233.714L157.229 233.934L153.992 232.501L155.917 226.497L156.167 222.926L155.44 219.015L156.44 216.27L156.599 212.419L158.442 211.487L160.443 211.639L161.004 210.699L160.64 209.357L157.304 205.028L157.024 203.717L156.91 199.024L155.72 195.477L157.138 194.317L156.994 191.277L153.552 187.539L153.249 184.659L150.376 177.586L150.793 175.569L153.241 172.992L153.817 171.476L153.696 169.459L158.063 168.694L159.859 164.07L156.016 160.249L151.384 158.361L150.095 156.982L149.822 154.616L152.802 147.794Z" fill="#CCCCCC" stroke="white" stroke-width="0.5"/>
<path d="M298.244 29.6399L303.126 29.458L305.225 30.0645L307.007 32.93L312.109 32.3235L314.004 34.8327L314.603 38.1152L320.099 39.8891L322.722 40.0483L324.268 40.9883L326.277 40.5335L327.24 42.2164L327.816 42.368L330.507 39.5934L333.365 43.0882L336.708 44.1267L338.861 48.1673L341.522 48.4553L342.561 51.5483L345.722 54.4896L346.465 55.657L346.427 57.9843L345.312 59.6596L342.06 61.2668L341.113 63.4803L339.619 64.3521L337.641 64.3825L335.291 63.124L334.578 66.3307L330.242 70.0149L329.908 71.6145L330.803 71.8722L330.477 74.6013L327.717 76.6026L327.771 77.9444L325.898 78.657L325.534 79.3771L326.179 80.8402L325.777 82.038L328.733 83.7361L329.461 85.2219L328.491 86.9958L326.239 88.5271L324.253 88.8834L323.374 88.095L322.237 88.8455L320.728 87.5947L319.689 90.4071L319.022 90.9378L317.802 90.301L314.739 90.5284L310.646 88.7393L306.992 90.3919L304.74 89.9902L304.99 91.567L304.058 92.0673L301.966 95.6227L301.829 97.6012L298.691 99.1098L297.804 97.6543L298.835 95.6606L297.857 94.1292L295.461 93.2802L294.923 91.4608L300.207 87.7993L302.368 85.4948L302.163 82.9325L302.936 81.4997L302.807 80.6962L298.789 79.7334L297.91 78.4978L296.909 74.9197L293.847 74.2526L291.724 71.4629L289.859 70.5228L288.821 69.3099L287.699 69.1886L286.334 69.8027L284.613 72.1982L283.863 71.8722L279.125 72.2664L277.783 71.3567L276.479 67.9833L275.1 66.1033L275.812 65.1254L275.403 63.5865L278.632 62.3887L280.421 62.275L283.696 58.28L286.509 58.9092L291.815 62.9497L298.319 60.7892L302.496 61.7368L306.969 61.1834L309.433 57.4082L309.425 52.2381L308.243 49.2437L306.704 47.8792L303.687 47.3258L300.912 44.8696L300.063 44.7408L298.486 46.0371L297.887 45.0743L294.521 45.6277L292.634 45.3548L290.754 44.3314L290.807 42.0648L291.398 41.1096L293.581 39.8815L295.772 33.1953L297.895 30.8756L298.244 29.6399Z" fill="#CCCCCC" stroke="white" stroke-width="0.5"/>
<path d="M295.766 20.0352L296.623 23.4162L299.761 26.4712L298.245 29.6399L297.896 30.8756L295.774 33.1953L293.583 39.8815L291.4 41.1096L290.808 42.0648L290.755 44.3314L292.635 45.3548L294.523 45.6277L297.889 45.0743L298.488 46.0371L300.064 44.7408L300.913 44.8696L303.688 47.3258L306.705 47.8792L308.244 49.2437L309.427 52.2381L309.434 57.4082L306.97 61.1834L302.498 61.7368L298.321 60.7892L291.816 62.9497L286.51 58.9092L283.698 58.28L280.423 62.275L278.634 62.3887L275.404 63.5865L275.814 65.1254L275.101 66.1033L276.481 67.9833L277.785 71.3567L272.994 73.6537L271.712 80.1428L270.219 81.947L269.112 84.388L267.391 85.6692L271.144 88.8682L270.81 92.5525L267.035 91.7034L265.61 88.3224L262.13 89.7324L257.779 88.0192L254.33 88.2011L251.783 87.0034L248.766 84.2364L247.644 84.3501L245.369 86.1771L237.91 82.0986L239.085 79.1649L239.017 77.3607L238.334 76.4965L237.023 76.0795L236.545 74.5937L235.105 73.6537L232.346 66.6794L232.497 65.512L233.801 63.776L233.536 61.9642L232.717 62.8284L231.618 62.8663L229.852 61.4108L232.747 59.9629L238.281 59.8643L245.801 55.3007L251.07 55.1264L254.944 53.0568L257.059 49.3271L259.939 48.0384L262.024 45.9992L267.581 37.5012L275.283 32.7708L277.117 28.8288L279.073 26.6304L282.121 24.7504L286.025 24.7428L293.803 20.5582L295.766 20.0352Z" fill="#CCCCCC" stroke="white" stroke-width="0.5"/>
<path d="M352.31 9.36884L354.842 9.17174L360.422 11.5218L362.757 11.6582L365.433 10.703L366.456 12.5603L365.925 13.6974L366.964 16.0626L371.838 17.8365L375.06 22.4608L380.412 21.4222L390.752 22.4229L393.125 18.7614L395.308 20.5807L397.499 26.2511L393.853 27.5095L392.223 28.7983L389.395 32.854L389.388 34.9614L387.076 34.6733L385.211 32.672L383.74 36.3942L381.435 39.1611L379.927 39.4416L378.388 37.6905L377.486 37.8724L370.125 44.8088L365.804 45.7185L360.528 51.7451L360.369 53.3144L361.369 55.3384L361.339 56.3845L361.058 57.0289L359.891 57.2033L358.299 56.6802L356.639 57.3321L353.963 54.8153L352.462 52.1772L351.674 52.0484L347.625 54.2544L345.723 54.4894L342.561 51.548L341.523 48.4551L338.862 48.167L336.709 44.1265L333.366 43.0879L330.508 39.5932L327.817 42.3678L327.241 42.2162L326.278 40.5332L324.269 40.9881L322.723 40.0481L320.1 39.8889L314.604 38.115L314.005 34.8325L312.11 32.3233L307.008 32.9298L305.226 30.0642L303.127 29.4578L298.245 29.6397L299.761 26.471L296.622 23.4159L295.766 20.0349L299.435 19.0267L303.885 19.8985L310.783 17.9957L315.513 18.2838L319.903 17.1467L322.419 15.8655L324.823 16.2067L327.256 15.7063L334.208 11.6885L338.362 9.99804L344.555 9.82368L349.96 8.20898L352.31 9.36884Z" fill="#CCCCCC" stroke="white" stroke-width="0.5"/>
<path d="M284.509 130.213L288.284 126.991L289.777 122.572L291.513 122.883L293.697 121.791L294.273 122.178L293.962 124.907L294.5 125.475L296.418 123.663L298.139 125.149L300.072 125.854L302.566 125.718L307.577 124.27L315.234 125.445L310.367 129.751L309.95 131.889L310.859 132.988L313.217 133.033L312.883 134.989L314.384 140.333L313.528 142.585L313.551 144.829L315.62 147.368L318.645 147.71L319.683 148.687L321.882 152.872L321.601 155.624L320.123 154.487L319.646 154.744L319.615 155.624L321.071 158.125L321.048 161.15L318.857 163.887L318.046 163.5L317.265 162.136L315.112 165.592L311.443 165.964L304.795 170.118L300.648 169.436L297.639 171.915L299.079 172.9L299.337 174.553L297.411 175.978L295.903 178.29L292.795 178.692L291.688 180.216L286.563 178.798L285.563 179.427L285.767 183.923L285.047 184.211L283.516 182.861L282.636 182.74L282.591 184.143L284.319 186.47L285.752 185.772L287.511 183.794L288.148 185.045L287.67 191.162L285.085 195.506L283.288 200.941L275.51 196.279L274.131 196.514L272.713 198.167L272.69 196.643L271.333 196.029L269.939 194.422L267.225 193.497L266.345 192.489L264.215 185.158L261.365 181.686L261.509 180.345L263.184 177.244L260.478 170.975L262.403 167.829L262.775 166.025L260.47 162.151L259.576 156.769L256.528 150.689L256.24 145.466L260.22 146.201L264.64 145.109L267.778 146.284L268.892 146.224L274.063 142.115L274.305 140.212L273.449 138.651L273.828 137.87L282.507 133.261L284.509 130.213Z" fill="#CCCCCC" stroke="white" stroke-width="0.5"/>
<path d="M153.99 232.5L157.227 233.933L159.267 233.713L161.829 237.723L162.845 238.367L165.847 238.148L171.487 235.942L175.732 237.011L178.567 236.647L179.371 237.124L180.826 238.906L180.947 240.255L180.25 244.129L179.12 245.569L180.129 247.426L181.326 246.411L181.766 247.927L182.357 248.185L181.402 250.315L181.357 251.945L183.669 256.933L185.117 254.59L186.959 253.855L188.339 251.657L191.174 252.392L193.554 251.816L196.412 248.503L196.64 243.507L198.05 242.241L198.944 242.347L199.99 244.371L202.537 246.661L202.234 247.563L202.795 249.928L204.425 254.386L203.447 258.002L203.652 262.641L202.06 264.498L196.632 266.484L195.874 267.462L196.003 268.925L197.208 272.481L197.405 275.096L201.233 276.521L205.433 274.505L207.548 275.452L208.261 276.468L208.791 278.333L207.798 281.828L208.306 282.268L209.762 282.063L210.088 282.813L207.245 286.467L207.965 288.014L208.14 290.826L209.678 291.63L209.436 293.366L206.874 292.471L205.456 290.75L204.296 291.342L202.651 290.652L200.877 288.325L195.275 287.256L192.546 286.21L190.423 284.094L188.983 284.307L188.073 285.626L187.474 285.717L183.381 284.799L183.676 286.172L183.191 289.295L182.168 290.098L177.983 286.702L176.733 283.321L174.14 283.026L173.329 282.427L171.502 283.192L171.813 281.775L171.214 281.418L167.931 282.275L166.984 280.797L166.908 278.53L165.157 277.386L164.186 274.74L164.384 273.36L163.186 271.04L163.716 270.055L162.958 269.342L162.299 269.486L162.314 268.698L161.768 268.334L157.864 269.941L157.015 270.737L156.924 272.276L156.098 272.898L155.249 272.193L153.445 272.109L152.702 271.131L151.17 271.435L149.806 273.337L147.797 272.435L145.144 273.906L144.643 272.42L145.053 271.275L142.703 269.289L143.029 268.342L142.104 267.803L140.512 268.812L139.708 270.214L138.23 270.002L136.812 271.897L136.987 272.958L136.433 273.512L135.433 273.353L135.554 272.829L134.606 272.17L134.44 271.404L132.59 271.632L132.378 270.965L130.604 270.722L130.308 270.025L128.428 270.866L128.095 271.912L127.261 272.504L127.162 270.328L129.027 265.734L128.762 263.247L131.165 259.874L130.361 258.153L131.278 252.089L137.995 251.171L142.445 252.286L144.651 251.073L145.674 249.632L146.88 249.344L146.19 246.077L146.713 242.893L148.525 240.46L152.103 238.921L152.99 237.746L153.77 235.76L153.99 232.5Z" fill="#CCCCCC" stroke="white" stroke-width="0.5"/>
<path d="M43.9411 104.538L45.9728 103.438L47.3904 103.529L49.2856 106.016L52.2724 107.676L54.5845 111.05L56.3281 112.096L64.773 112.149L67.9569 111.156L71.0953 111.08L72.7328 108.783L74.4233 107.479L79.2749 107.759L83.9977 108.184L85.8171 108.851L85.9536 109.844L83.0956 113.862L83.74 117.743L88.2126 124.566L90.2215 125.877L97.6355 119.343L100.456 121.162H101.456L105.648 118.524L108.544 117.91L110.477 119.343L117.74 119.54L121.378 121.39L122.197 120.571L122.121 118.35L126.738 118.585L127.178 121.268L130.885 123.118L131.536 127.879L136.722 130.653L134.864 132.018L134.349 133.049L136.722 134.724L137.01 138.317L138.988 139.803L138.276 140.971L138.238 142.32L135.767 143.965L135.926 144.988L141.21 145.959L145.303 145.633L152.8 147.793L149.821 154.616L150.094 156.981L151.383 158.361L156.015 160.248L159.858 164.069L158.062 168.693L153.695 169.459L151.762 167.655L149.579 168.944L148.646 167.238L147.183 161.598L144.712 160.991L142.536 159.763L139.072 161.264L135.835 161.552L135.001 165.282L133.523 165.631L131.4 165.214L126.821 170.172L125.169 170.028L121.977 167.935L117.588 168.906L117.156 170.119L118.194 175.812L121.037 180.315L122.152 181.149L123.728 181.103L127.549 179.45L128.519 180.125L128.656 181.884L125.859 187.751L124.426 189.01L121.401 189.351L120.438 190.026L118.922 194.718L120.249 197.341L120.037 198.258L117.618 199.555L115.966 197.477L112.069 202.64L108.741 204.596L106.187 207.173H104.125L103.723 208.181L104.731 210.001L103.973 210.615L102.813 210.554L100.251 209.394L98.7953 206.491L96.6272 207.105L95.6266 206.423L93.8148 206.491L92.9202 207.636L91.8362 213.602L90.8583 215.285L88.8873 216.824L86.4918 216.255L84.4829 216.998L85.9763 214.716L87.4242 214.193L87.5834 212.374L82.1935 210.061L80.8972 205.794L75.9091 207.439L74.681 206.862L74.4839 206.241L76.3639 201.745L80.0785 200.366V199.335L75.1131 195.309L73.3695 189.942L71.6184 189.419L68.9955 189.571L66.9866 188.707L66.3043 184.787L66.1224 178.594L67.5779 173.606L69.0409 171.635L69.8445 172.461L73.0284 173.242L73.8395 174.485L75.7499 175.675L79.0475 180.421L79.942 180.709L81.2232 179.958L81.5643 177.002L82.9364 173.189L84.9984 173.424L85.6352 173.826L87.7426 178.662L88.0913 180.375L87.7729 182.991L88.2884 185.144L89.6984 184.605L93.1628 185.909L97.681 184.272L95.9904 178.662L94.1332 175.668L94.2545 174.205L93.2083 173.606L90.7901 169.732L91.1539 165.093L90.5096 161.484L90.0396 160.9L87.591 160.286L87.0376 159.581L87.5228 157.732L89.1905 157.08L90.0623 154.085L92.7838 153.13L93.7314 152.19L95.8692 144.094L94.914 140.357L93.7086 140.182L92.3214 141.532L90.6157 142.04L84.6573 138.173L76.0304 140.364L74.6583 140.144L73.506 138.947L72.3461 135.945L70.8073 134.345L70.1477 134.413L66.2816 143.995L66.1375 145.906L64.864 147.816L64.8109 148.718L65.9632 149.605L65.4249 151.364L63.2872 150.674L61.5209 151.682L55.3501 151.478L52.6059 151.887L51.5825 150.272L47.5344 148.529L46.0334 146.148L42.804 145.565L40.6132 143.563L36.9972 142.995L35.6781 140.106L34.5865 139.045L31.5466 139.257L31.0539 136.71L30.1973 135.869L32.1076 132.139L31.395 130.517L32.3654 129.395L32.4336 127.052L37.1715 124.877L38.3541 122.974L40.78 121.7L42.5614 117.008L44.8432 116.007L47.1554 113.998L48.2318 109.359L47.4131 108.411L48.9065 105.842L46.6475 104.523L43.9411 104.538Z" fill="#CCCCCC" stroke="white" stroke-width="0.5"/>
<path d="M52.6055 151.887L55.3497 151.477L61.5204 151.682L63.2867 150.674L65.4245 151.363L65.9627 149.605L64.8104 148.718L64.8635 147.816L66.1371 145.905L66.2811 143.995L70.1473 134.413L70.8068 134.345L72.3457 135.944L73.5056 138.946L74.6578 140.144L76.0299 140.364L84.6568 138.173L90.6153 142.039L92.3209 141.531L93.7082 140.182L94.9135 140.356L95.8687 144.094L93.7309 152.19L92.7834 153.13L90.0619 154.085L89.1901 157.079L87.5223 157.731L87.0372 159.581L87.5905 160.286L90.0391 160.9L90.5091 161.484L91.1535 165.092L90.7896 169.732L93.2079 173.605L94.254 174.204L94.1327 175.667L95.99 178.662L97.6805 184.271L93.1624 185.909L89.698 184.605L88.288 185.143L87.7725 182.99L88.0909 180.375L87.7422 178.662L85.6347 173.825L84.9979 173.423L82.936 173.188L81.5639 177.002L81.2227 179.958L79.9416 180.708L79.0471 180.42L75.7494 175.675L73.8391 174.485L73.028 173.241L69.8441 172.461L69.0405 171.634L68.851 170.391L66.8876 170.8L64.0145 166.495L60.588 165.903L61.3081 164.236L60.4212 159.354L59.1476 158.125L57.3965 157.504L55.8955 154.926L53.4545 153.592L52.6055 151.887Z" fill="#CCCCCC" stroke="white" stroke-width="0.5"/>
<path d="M244.095 148.445L246.437 146.906L251.213 145.14L254.177 145.678L256.239 145.466L256.527 150.689L259.575 156.768L260.469 162.151L262.774 166.025L262.402 167.829L260.477 170.975L263.183 177.244L261.508 180.345L261.364 181.686L264.214 185.158L266.344 192.489L267.224 193.497L269.938 194.422L271.332 196.029L272.689 196.643L272.712 198.167L274.13 196.514L275.509 196.279L283.287 200.941L286.016 202.64L279.883 208.674L279.777 210.933L281.18 214.139L282.453 220.363L279.626 221.083L277.95 220.704L275.487 223.32L273.902 222.872L270.733 216.399L267.504 215.997L265.723 214.276L263.145 214.2L261.053 212.608L260.029 213.29L258.87 217.657L255.822 219.401L254.124 219.476L253.108 220.386L251.6 220.303L250.334 216.095L248.522 214.193L247.074 210.804L245.687 210.842L242.859 213.419L242.033 213.465L241.927 206.801L240.987 204.936L240.085 205.391L238.819 207.423L235.612 209.546L235.748 210.114L236.999 210L236.294 211.373L235.051 211.319L233.012 209.765L232.026 209.993L231.715 212.464L229.108 215.921L228.289 215.966L224.718 213.76L222.626 213.533L219.45 210.683L217.312 207.446L214.416 209.318L211.119 209.273L207.275 210.493L203.629 209.136L201.908 207.499L201.574 204.785L202.378 201.01L204.129 199.835L209.891 197.765L209.398 196.605L207.222 195.135L206.403 195.157L206.411 185.909L206.949 184.696L209.443 185.719L210.065 185.446L210.103 184.014L208.01 181.648L207.889 180.648L211.035 177.471L211.338 175.538L210.656 173.37L209.58 172.862L203.25 175.569H201.665L199.058 174.523L196.791 170.535L195.449 164.85L197.86 159.482L197.519 150.567L198.292 148.786L203.743 149.476L206.942 147.573L209.61 147.368L211.763 145.708L216.493 148.566L219.298 148.142L228.334 150.643L229.214 149.862L228.888 147.118L231.268 147.3L233.451 149.514L236.143 150.12L237.53 149.984L239.736 148.308L242.184 150.431L243.951 149.703L244.095 148.445Z" fill="#CCCCCC" stroke="white" stroke-width="0.5"/>
<path d="M277.784 71.3566L279.126 72.2663L283.864 71.8721L284.614 72.198L286.335 69.8025L287.699 69.1885L288.821 69.3098L289.86 70.5227L291.725 71.4627L293.847 74.2524L296.91 74.9195L297.911 78.4976L298.79 79.7333L302.808 80.696L302.937 81.4996L302.163 82.9324L302.368 85.4946L300.208 87.7992L294.924 91.4607L295.462 93.2801L297.858 94.1291L298.836 95.6604L297.805 97.6541L298.691 99.1096L301.83 97.6011L301.966 95.6225L304.059 92.0671L304.991 91.5668L304.741 89.99L306.992 90.3918L310.646 88.7392L314.74 90.5282L317.803 90.3008L319.023 90.9376L319.69 90.407L320.729 87.5945L322.237 88.8453L323.374 88.0948L324.254 88.8832L326.24 88.5269L325.307 89.7323L325.808 95.6907L328.279 97.9498L328.651 99.8601L327.536 101.528L324.246 104.507L323.92 106.645L322.609 109.109L320.903 109.768L319.592 109.313L320.213 112.277L321.676 115.416L321.654 116.644L320.13 117.561L319.736 119.396L317.636 120.76L317.158 122.936L317.666 124.232L315.233 125.445L307.576 124.27L302.565 125.718L300.071 125.854L298.138 125.149L296.417 123.664L294.499 125.475L293.961 124.907L294.272 122.178L293.696 121.791L291.513 122.883L289.777 122.572L288.283 126.992L284.508 130.213L276.055 127.249L276.457 125.786L278.534 124.702L278.875 123.595L276.124 121.261L275.631 120.161L275.017 117.561L275.297 112.482L276.268 110.503L276.753 107.82L279.11 106.175L279.148 104.871L278.83 103.855L277.071 102.059L276.882 101.012L275.123 99.5721L275.843 97.3736L270.81 92.5523L271.143 88.8681L267.391 85.669L269.111 84.3879L270.218 81.9469L271.712 80.1426L272.993 73.6535L277.784 71.3566Z" fill="#CCCCCC" stroke="white" stroke-width="0.5"/>
<path d="M286.016 202.64L288.298 204.27L291.573 204.982L294.06 207.249L296.19 207.408L298.585 208.431L300.45 207.362L302.353 208.879L305.302 208.181L306.484 210.273L309.236 209.97L308.44 215.648L308.895 220.401L307.045 222.198L306.992 224.298L308.023 224.935L308.63 226.83L309.532 227.656L309.706 229.24L312.663 232.826L314.27 235.032L313.095 236.836L314.065 238.163L312.996 238.724L312.905 239.907L311.874 240.771L311.033 242.999L299.662 243.045L298.153 243.606L295.439 250.186L295.401 251.596L297.577 254.029L295.455 253.666L293.809 254.318L292.111 254.045L289.739 252.983L288.063 251.202L287.207 251.93L285.865 251.786L284.455 251.217L283.795 250.3L280.179 252.18L279.353 253.893L277.374 253.544L276.177 254.287L275.57 256.311L276.427 260.39L277.723 260.898L278.155 262.406L279.838 262.732L280.179 262.02L281.21 261.807L281.294 263.589L282.446 264.521L282.006 269.441L284.22 269.691L284.819 273.133L283.848 274.369L283.72 275.65L282.514 276.226L282.461 276.893L282.817 277.992L284.068 278.538L285.956 281.305L283.644 281.646L282.795 282.783L283.212 284.042L282.848 285.656L282.082 287.006L281.195 287.286L280.748 289.227L278.337 289.143L277.556 290.121L273.698 289.75L271.613 290.447L270.938 292.168L268.778 292.873L266.405 292.668L266.049 289.477L265.276 288.135L258.862 282.025L258.726 279.432L259.355 276.923L258.309 276.423L257.035 274.46L255.421 273.747L255.33 272.011L256.793 267.129L258.135 265.598L259.969 264.65L258.718 260.602L254.291 260.011L252.805 260.663L252.199 262.391L250.122 263.778L247.287 262.52L245.475 263.68L244.701 261.724L245.452 260.412L245.748 258.297L244.178 255.159L243.496 250.671L241.821 248.564L240.904 248.359L237.333 249.89L230.905 247.912L228.297 245.895L225.31 244.751L223.529 240.475L222.573 240.718L221.868 242.325L220.792 242.734L219.344 244.379L216.986 235.055L217.987 231.697L219.928 229.301L220.102 224.442L219.609 221.372L222.626 213.533L224.719 213.761L228.289 215.967L229.108 215.921L231.716 212.464L232.027 209.993L233.012 209.766L235.051 211.32L236.294 211.373L236.999 210.001L235.749 210.114L235.612 209.546L238.819 207.423L240.085 205.391L240.987 204.937L241.927 206.801L242.033 213.465L242.859 213.419L245.687 210.842L247.074 210.804L248.522 214.193L250.334 216.095L251.6 220.303L253.109 220.386L254.124 219.476L255.822 219.401L258.87 217.657L260.03 213.291L261.053 212.608L263.145 214.2L265.723 214.276L267.504 215.997L270.734 216.399L273.902 222.873L275.487 223.32L277.951 220.705L279.626 221.084L282.454 220.363L281.18 214.14L279.778 210.933L279.884 208.674L286.016 202.64Z" fill="#CCCCCC" stroke="white" stroke-width="0.5"/>
<path d="M321.6 155.624L325.034 160.135L327.832 162.712L330.765 169.49L333.297 172.681L334.503 176.017L336.436 178.336L337.452 181.278L338.953 181.952L342.152 181.058L342.788 181.702L342.743 183.582L341.348 185.318L335.882 186.251L334.912 187.395L335.647 190.609L338.331 192.906L339.703 195.886L341.598 197.311L340.416 199.888L340.393 201.132L342.152 204.619L342.273 205.832L340.158 208.326L340.416 209.933L342.462 212.685L346.344 214.959L348.027 217.218L346.943 217.438L347.307 219.431L345.836 221.524L343.872 221.691L344.085 223.419L342.432 225.739L339.946 225.344L338.248 226.724L335.609 226.451L334.101 227.323L333.593 228.566L331.296 227.99L329.575 226.535L327.271 228.695L326.899 229.673L323.928 228.68L320.425 228.923L317.34 227.528L316.885 228.968L312.663 232.827L309.706 229.241L309.532 227.657L308.63 226.83L308.023 224.935L306.992 224.298L307.045 222.198L308.895 220.402L308.44 215.649L309.236 209.971L306.484 210.274L305.302 208.182L302.353 208.879L300.45 207.363L298.585 208.432L296.19 207.408L294.059 207.249L291.573 204.983L288.298 204.27L286.016 202.64L283.287 200.942L285.084 195.507L287.669 191.163L288.147 185.045L287.51 183.794L285.751 185.773L284.318 186.47L282.59 184.143L282.635 182.741L283.515 182.862L285.046 184.211L285.766 183.923L285.561 179.428L286.562 178.799L291.687 180.216L292.794 178.693L295.902 178.291L297.41 175.979L299.336 174.554L299.078 172.901L297.638 171.915L300.647 169.437L304.794 170.119L311.442 165.965L315.111 165.593L317.264 162.136L318.045 163.501L318.856 163.887L321.047 161.151L321.07 158.126L319.614 155.624L319.644 154.745L320.122 154.487L321.6 155.624Z" fill="#CCCCCC" stroke="white" stroke-width="0.5"/>
<path d="M345.723 54.4898L347.625 54.2548L351.674 52.0488L352.462 52.1777L353.963 54.8158L356.639 57.3326L358.299 56.6807L359.891 57.2037L361.779 59.4476L365.205 59.9252L368.435 64.4206L369.572 64.8603L373.999 61.8356L374.84 61.7901L376.804 65.3909L376.258 66.8616L375.318 67.5135L370.709 69.0448L368.632 69.2192L368.093 69.8181L368.086 72.5016L370.095 73.3962V74.5105L368.639 77.2093L370.064 77.5201L370.413 78.8619L366.555 84.7142L366.357 87.2386L367.047 89.293L367.32 92.9241L365.865 94.228L363.78 93.5609L363.439 94.463L363.735 97.1845L364.568 99.0342L364.72 101.991L366.122 105.076L359.315 109.094L358.557 111.982L360.429 114.029V116.743L361.612 120.662L355.957 121.792L353.978 122.853H351.348L350.241 124.361L349.316 124.778L349.18 125.423L351.393 126.264L351.848 128.296L353.129 129.008L352.917 131.973L349.111 132.412L343.623 135.361L342.099 134.929L340.735 132.738L339.802 132.496L335.595 133.322L332.638 132.079L330.296 132.549L326.543 132.352L321.752 135.748L315.983 135.793L315.286 134.77L316.082 133.352L315.597 132.806L312.132 132.367L310.859 132.988L309.949 131.889L310.366 129.751L315.233 125.445L317.666 124.233L317.159 122.936L317.636 120.761L319.736 119.396L320.13 117.562L321.654 116.644L321.677 115.416L320.214 112.278L319.592 109.314L320.903 109.769L322.609 109.109L323.921 106.645L324.246 104.508L327.537 101.528L328.651 99.8605L328.279 97.9502L325.808 95.6911L325.308 89.7327L326.24 88.5273L328.492 86.996L329.462 85.2221L328.734 83.7363L325.778 82.0382L326.18 80.8405L325.535 79.3774L325.899 78.6572L327.772 77.9446L327.718 76.6028L330.478 74.6015L330.804 71.8724L329.909 71.6147L330.243 70.0152L334.579 66.3309L335.292 63.1243L337.642 64.3827L339.62 64.3524L341.114 63.4806L342.061 61.267L345.313 59.6599L346.428 57.9845L346.466 55.6573L345.723 54.4898Z" fill="#CCCCCC" stroke="white" stroke-width="0.5"/>
</svg>
