<svg width="308" height="302" viewBox="0 0 308 302" fill="none" xmlns="http://www.w3.org/2000/svg">
<path d="M144.041 36.5088L144.387 37.9925L145.049 38.4236L145.219 39.8772L146.127 40.6341L148.207 39.5714L149.269 40.5389L149.57 40.0476L150.267 40.2231L151.675 41.5364L152.778 41.1654L153.56 41.7569L153.751 42.7795L154.858 43.3058L155.104 45.5013L156.868 44.4587L157.289 45.1604L158.793 44.9649L161.56 47.8371L162.287 47.3008L163.43 48.0226L164.658 47.7569L165.009 47.2256L166.934 47.6817L166.833 50.1529L167.244 51.5815L166.362 53.5614L166.648 54.6842L165.701 53.9725L164.337 54.3584L164.036 53.5063L163.685 54.4837L161.936 55.3359L162.142 57.2657L160.713 56.4336L157.059 56.7895L157.45 57.807L156.763 58.4386L157.841 59.2607L156.944 60.2933L156.843 61.7268L157.956 62.0527L158.868 63.2557L160.447 63.2857L161.129 63.8973L161.214 65.1253L161.971 64.8146L163.124 66.3334H163.164L161.756 69.7118L159.355 70.2933L157.044 72.4286L156.257 74.0677L155.67 74.1579L154.763 72.198L153.856 71.6115L152.628 71.5815L152.187 70.0025L151.455 69.3008L149.234 69.8572V68.6592L148.733 68.0126L146.457 69.1203L145.846 70.1579L145.59 69.6968L145.089 69.7519L144.402 70.4236L144.543 70.9048L143.465 71.6667L142.954 70.995L141.711 71.2356L138.091 68.8246L135.395 71.5965L135.736 72.6391L134.212 73.9123L136.182 75.8923L136.402 78.193L135.846 78.8346L136.162 81.2256L135.189 81.6015L134.873 82.2882L132.989 79.7419L131.751 79.386L130.127 80.7243L127.355 80.5589L127.234 80.5439L126.492 79.6216L126.924 78.6642L126.768 77.5313L125.791 76.3534L124.152 76.4436L124.031 75.2206L122.528 75.0802L121.164 76.8045L120.162 77.0652L119.706 75.8622L119.059 75.9574L117.62 74.0426L118.081 73.0752L117.846 71.376L116.808 72.2481L115.325 71.2356L113.675 71.3459L110.994 69.6717L106.733 73.2156L106.302 72.4436L106.969 70.8897L105.916 71.3308L105.44 70.8647L105.996 69.411L105.721 68.4887L103.6 66.9499L102.914 66.8948L102.813 65.7268L102.001 64.5589L100.302 64.3634L99.485 62.4186L97.5501 61.1504L96.4123 60.995L96.3672 60.3935L96.9687 59.8221L96.9236 58.4286L98.8133 57.8371L100.317 56.7544L103.535 56.5639L103.149 54.9649L104.457 54.0476L105.034 54.7644L106.252 54.6542L106.959 52.8045L108.061 53.5414L108.703 52.5188L111.615 54.0176L112.322 54.9599L113.53 53.4161L115.58 53.1404L115.625 52.6892L114.533 51.8271L114.878 51.3459L114.292 48.8045L115.706 47.3459L115.731 43.777L116.538 44.1479L118.523 43.7469L118.939 44.3634L119.625 42.7193L121.355 42.6993L125.811 44.9148L127.991 46.9599L128.152 48.6241L122.317 52.4587L121.445 54.1329L122.337 57.1454L121.289 58.4386L124.006 60.2331L123.645 61.7419L122.753 62.4336L122.132 61.5564L120.803 61.6115L120.292 60.8396L119.545 61.3258L118.738 62.9499L119.169 64.8597L121.465 66.2882L123.796 67.0602L125.66 68.8998L125.48 70.5539H127.355L128.407 69.6817L130.192 65.8872L130.648 62.9098L131.886 62.6842L132.477 60.6241L135.224 59.2055L136.187 57.8371L137.806 57.2757L138.427 56.6491L138.347 56.1178L141.124 56.9098L141.38 54.4486L142.919 53.6516L141.33 49.9775L140.066 49.396L139.615 47.5865L139.981 46.4336L138.818 44.0276L138.563 43.4211L138.883 42.4837L140.548 41.2557L140.297 40.3434L142.031 40.0527L141.079 37.7218L142.197 37.8321L144.041 36.5088Z" fill="#CCCCCC" stroke="white" stroke-width="0.5"/>
<path d="M123.766 21.1709L124.312 21.9629L124.508 24.3087L126.869 25.0957L127.49 25.6471L127.645 26.5443L129.746 27.0255L130.407 27.6421L131.911 27.6722L135.33 26.9353L136.392 27.0456L136.813 28.0631L138.478 28.1283L139.495 26.6295L141.209 25.993L141.645 26.5092L140.979 27.2611L143.736 27.5468L142.874 28.7248L143.996 30.1684L143.375 34.5794L144.041 36.5092L142.197 37.8326L141.079 37.7223L142.031 40.0531L140.297 40.3438L140.548 41.2561L138.884 42.4842L138.563 43.4215L138.818 44.028L136.823 43.9829L136.473 44.9353L134.718 45.1158L133.174 46.3488L128.152 48.6245L127.991 46.9604L125.811 44.9153L121.355 42.6997L119.625 42.7198L118.939 44.3639L118.523 43.7473L116.538 44.1483L115.731 43.7774L115.38 41.5368L115.936 41.2561L115.976 40.5293L116.217 40.0982L116.142 38.9754L116.959 38.2887L116.082 37.1659L113.821 36.0531L113.199 36.3388L113.139 35.5669L112.588 35.0907L111.796 35.3463L111.244 34.9804L111.37 34.3388L110.828 34.1383L110.372 32.9904L110.743 31.4165L109.986 30.7348L110.879 30.2185L110.372 29.4215L112.488 27.5819L112.623 26.3438L112.272 26.0581L112.668 25.3564L114.282 24.5644L116.718 24.9403L116.813 25.4265L117.921 25.0356L117.911 25.8426L118.763 25.9378L119.791 25.3965L120.533 23.7524L120.107 22.4391L121.746 22.2386L122.177 21.6571L123.069 21.7173L123.766 21.1709Z" fill="#CCCCCC" stroke="white" stroke-width="0.5"/>
<path d="M122.507 98.8347L120.993 98.0076L120.221 96.7695L120.782 94.8297L121.84 94.0928L119.76 89.9274L120.04 88.7294L122.266 87.8472L122.847 87.1906L122.256 83.9525L123.088 81.8823L122.146 81.4161L123.113 80.2633L123.78 79.6267L125.088 79.4512L126.817 81.0001L127.233 80.544L127.354 80.559L130.126 80.7244L131.75 79.3861L132.988 79.7419L134.873 82.2883L135.188 81.6016L136.161 81.2257L135.845 78.8347L136.401 78.1931L136.181 75.8923L134.211 73.9124L135.735 72.6392L135.394 71.5966L138.091 68.8247L141.71 71.2357L142.953 70.9951L143.464 71.6668L144.542 70.9049L144.401 70.4237L145.088 69.752L145.589 69.6968L145.845 70.158L146.457 69.1204L148.732 68.0126L149.233 68.6592V69.8572L151.454 69.3008L152.186 70.0026L152.627 71.5815L153.855 71.6116L154.762 72.1981L155.67 74.158L156.256 74.0678L157.043 72.4287L159.354 70.2933L161.755 69.7119L163.163 66.3334L163.254 66.3384L165.153 65.9775L165.464 67.0352L166.537 67.2006L167.243 67.0302L168.196 67.6417L169.003 69.2758L170.056 69.7269L170.918 69.7971L171.584 69.2206L172.321 69.5364L172.587 71.8773L173.279 73.3861L175.309 74.6993L176.096 76.4136L175.379 77.6718L174.261 77.366L173.93 77.8973L175.178 79.0101L176.02 78.5389L176.096 79.2307L177.83 79.8673L178.176 80.945L179.238 80.5991L179.474 79.9024L180.592 81.772L182.647 81.747L183.67 82.579L184.361 84.7044L184.767 84.6743L184.687 83.9374L185.499 83.8272L185.364 82.7445L186.071 82.8748L186.431 84.0126L185.745 84.4437L185.459 85.9575L188.792 87.4713L189.624 88.3184L189.885 89.5465L192.101 89.1856L191.875 90.2081L192.381 90.8948L191.765 91.9976L192.086 93.2457L191.063 93.7018L188.853 96.4387L186.767 97.2758L186.341 98.4437L188.542 100.183L190.246 103.476L185.334 100.609L184.572 98.8547L183.77 99.5966L183.193 99.5715L183.785 98.0678L182.988 97.8973L182.933 98.7846L182.361 99.1304L181.895 98.5891L181.87 97.5114L181.188 96.9951L180.807 97.5164L181.439 97.9575L181.484 98.6642L180.652 98.3735L179.655 98.7595L179.474 97.4813L180.361 96.549L179.289 95.1354L178.602 95.3861L178.196 96.7394L177.048 97.371L176.472 98.3886L175.94 98.0878L175.399 98.6693L174.847 99.1455L174.196 99.5966L174.647 101.13L173.409 101.862L168.807 100.233L166.913 101.01L164.341 100.118L162.061 98.5389L159.574 99.2056L158.451 98.7645L156.386 100.073L155.469 102.053L155.474 103.717L154.837 105.035L151.394 107.171L151.81 108.77L151.018 109.742L150.747 111.647L150.286 111.662L149.409 113.115L149.269 115.201L146.958 115.461L144.837 115.246L144.487 114.564L142.652 114.664L142.236 113.261L141.178 112.729L138.507 109.677L135.088 108.058L134.807 106.103L134.035 105.155L133.985 104.218L133.274 104.138L132.943 102.634L131.334 102.509L132.025 101.346L131.655 100.093L130.436 99.8221L129.299 98.9349L127.389 100.374L126.807 99.6517L126.737 98.3735L126.346 98.7745L125.183 98.559L125.259 99.3359L122.507 98.8347Z" fill="#CCCCCC" stroke="white" stroke-width="0.5"/>
<path d="M96.924 58.4287L96.9691 59.8222L96.3676 60.3936L96.4128 60.9951L97.5506 61.1505L99.4854 62.4187L100.302 64.3636L102.002 64.559L102.814 65.727L102.914 66.8949L103.601 66.95L105.721 68.4889L105.997 69.4112L105.44 70.8648L105.917 71.331L106.969 70.8899L106.302 72.4437L106.734 73.2157L110.994 69.6718L113.676 71.346L115.325 71.2357L116.809 72.2483L117.846 71.3761L118.082 73.0753L117.621 74.0427L119.059 75.9575L119.706 75.8623L120.162 77.0653L121.165 76.8046L122.528 75.0803L124.032 75.2207L124.152 76.4437L125.791 76.3535L126.769 77.5315L126.924 78.6643L126.493 79.6217L127.235 80.544L126.819 81.0001L125.089 79.4513L123.781 79.6267L123.115 80.2633L122.147 81.4162L123.089 81.8823L122.257 83.9525L122.849 87.1906L122.267 87.8473L120.042 88.7295L119.761 89.9275L121.841 94.0929L120.784 94.8297L120.222 96.7696L120.994 98.0077L122.508 98.8347L121.816 100.138L120.879 99.9676L120.613 100.739L119.385 101.531L118.418 103.156L119.5 107.045L117.611 110.724L119.621 115.015L119.711 117.356L117.972 117.677L117.967 119.01L117.24 120.564L115.836 121.687L114.799 121.441L113.175 119.892L110.548 120.96L109.871 120.454L109.37 119.125L108.307 118.579L107.34 120.338L106.408 121.09L106.789 122.133L108.242 123.396L107.881 124.133L106.859 122.815L106.373 122.975L105.806 121.567L103.019 121.311L101.881 120.739L97.9015 114.87L96.924 114.359L96.1471 114.564L94.6333 113.707L93.8564 112.288L91.2198 110.855L89.7361 109.286L89.0945 107.531L87.2649 108.188L86.0869 109.932L83.6559 109.135L83.5005 108.439L82.4178 107.441L79.5005 106.238L77.3802 103.08L78.2473 100.444L77.8012 98.8147L78.2173 98.3736L78.2674 96.8949L77.0293 95.4062L78.0518 94.7194L78.0117 93.6016L78.5782 92.534L79.8413 92.0127L80.8388 93.5365L83.1295 93.732L83.305 94.7395L84.1822 94.9951L85.3401 93.3811L86.8739 93.3209L88.1671 92.6392L88.3827 91.8823L87.9466 91.3209L90.7686 86.3886L90.5882 85.2909L91.0443 84.7495L90.5531 84.0327L91.6208 82.0778L93.1195 81.1505L96.1471 82.1029L96.9691 81.8222L97.6308 80.4187L99.0544 79.5415L96.1922 77.737L95.2749 76.7696L95.32 76.2232L94.6433 75.9224L94.503 72.4638L93.3802 70.935L94.9541 70.2332L94.6985 68.9249L97.2248 68.4788L97.0193 67.742L98.2975 67.7821L99.1195 68.3886L100.167 67.5966L99.6408 67.2959L98.2072 64.4387L97.7812 65.4212L97.1596 65.757L97.2448 64.7946L97.7361 64.6593L97.8764 64.0478L97.5807 62.6242L96.6383 62.6493L95.6308 63.9375L95.7361 65.6067L94.9792 64.5039L95.1496 63.7971L94.6433 63.8172L94.498 64.5891L93.721 62.9199L93.1346 63.1204L92.8037 62.3786L92.0067 62.4839L91.4253 62.0528L92.6283 61.6267L94.528 59.6468L96.924 58.4287Z" fill="#CCCCCC" stroke="white" stroke-width="0.5"/>
<path d="M140.437 12.9144L140.873 13.4707L141.761 13.4908L142.538 13.0196L143.475 13.2753L144.262 12.6737L144.959 13.8768L145.861 13.7164L147.961 14.8191L149.57 17.4808L151.47 17.4908L152.081 18.1875L152.673 17.8216L153.144 18.1374L153.951 17.185L154.282 18.1224L155.846 18.0923L157.199 18.7289L157.289 18.1976L158.768 18.2778L159.71 16.9895L161.986 18.7289L163.129 18.8692L164.187 17.7765L165.199 18.363L165.976 17.6863L167.064 18.7038L168.798 17.4056L168.512 18.8241L169.796 19.2001L170.327 19.2452L170.518 19.2001L170.828 20.8642L170.302 22.5885L166.267 26.8191L163.801 27.0096L162.322 26.3329L158.753 28.2577L159.049 29.4407L153.174 29.7715L152.798 30.8592L150.342 32.5835L150.282 34.1675L149.67 34.6788L149.264 36.8191L148.377 37.9519L148.207 39.571L146.127 40.6336L145.219 39.8768L145.049 38.4231L144.387 37.992L144.041 36.5083L143.375 34.5785L143.996 30.1675L142.873 28.7239L143.736 27.5459L140.979 27.2602L141.645 26.5083L141.209 25.992L139.495 26.6286L138.477 28.1274L136.813 28.0622L136.392 27.0447L135.33 26.9344L131.911 27.6712H130.497L129.746 27.0246L127.645 26.5434L127.49 25.6462L126.868 25.0948L124.507 24.3078L124.312 21.962L123.766 21.17L124.091 20.4031L125.62 19.7565L128.006 19.7715L129.209 19.185L129.861 18.1675L131.615 18.1524L132.833 16.4081L134.653 16.2276L134.628 14.5785L133.705 12.6387L135.089 13.1048L135.901 12.7439L136.663 12.9545L137.284 11.8968L138.332 11.2051L140.132 12.2878L140.437 12.9144Z" fill="#CCCCCC" stroke="white" stroke-width="0.5"/>
<path d="M175.5 15.7319L176.352 16.5941L176.187 18.4136L176.683 19.3109L176.678 21.0051L178.849 22.2231L180.182 23.6668L181.205 23.4813L181.385 24.8497L183.225 25.1304L186.032 26.584L187.014 27.7319L187.39 27.351L188.012 27.5916L188.488 28.4788L188.999 28.3084L189.215 29.0151L189.841 28.6743L190.949 28.9149L190.934 29.757L192.122 30.3384L191.841 33.5164L193.691 33.1003L194.002 33.5565L193.54 34.2181L194.698 34.2031L194.002 35.4863L194.874 35.7169L195.149 36.6843L194.673 37.1204L196.703 37.381L196.022 38.163L195.836 39.371L196.703 39.1304L197.981 39.6166L196.062 40.574L197.285 41.5114L198.543 41.4412L197.926 42.2482L198.032 42.7645L196.157 43.2106L193.746 42.8998L192.733 45.0201L189.495 49.1805L189.074 50.6743H188.252L187.42 49.2056L186.132 48.7745L185.295 46.4537L183.961 47.0051L182.763 46.564L181.911 46.8647L182.392 44.98L182.007 44.0577L180.718 43.1906L179.58 42.7144L177.039 42.9149L178.663 40.1881L177.53 40.183L177.275 39.2206L176.533 38.6392L176.673 37.8472L175.921 37.4011L176.117 36.178L174.753 35.8372L174.127 34.965L173.676 35.1906L174.062 36.965L173.495 38.0226L171.179 38.8547L171.555 37.9174L170.859 37.5865L168.077 39.2808L168.047 40.6292L167.23 41.9625L166.934 47.6818L165.009 47.2256L164.658 47.757L163.43 48.0226L162.287 47.3008L161.56 47.8372L158.794 44.965L157.29 45.1605L156.869 44.4587L155.104 45.5013L154.859 43.3058L153.751 42.7795L153.56 41.757L152.778 41.1655L151.676 41.5364L150.267 40.2231L149.57 40.0477L149.27 40.5389L148.207 39.5715L148.377 37.9525L149.265 36.8196L149.671 34.6793L150.282 34.168L150.342 32.584L152.799 30.8597L153.174 29.772L159.049 29.4412L158.753 28.2582L162.322 26.3334L163.801 27.0101L166.267 26.8196L170.302 22.5891L170.829 20.8647L170.518 19.2006L170.578 18.7946L170.854 19.2156L171.42 18.7344L171.696 19.4312L172.433 18.4738L172.693 20.3685L173.901 20.1881L174.247 18.3084L174.984 17.4111L175.129 15.1855L175.5 15.7319Z" fill="#CCCCCC" stroke="white" stroke-width="0.5"/>
<path d="M166.932 47.6816L167.228 41.9623L168.045 40.629L168.075 39.2806L170.857 37.5864L171.554 37.9172L171.178 38.8546L173.494 38.0225L174.06 36.9648L173.674 35.1904L174.125 34.9648L174.752 35.837L176.115 36.1779L175.92 37.4009L176.671 37.847L176.531 38.639L177.273 39.2205L177.529 40.1829L178.661 40.1879L177.037 42.9147L179.579 42.7142L180.717 43.1904L182.005 44.0576L182.391 44.9799L181.91 46.8646L182.762 46.5638L183.96 47.0049L185.293 46.4536L186.13 48.7744L187.418 49.2054L188.25 50.6741H189.072L192.22 52.2581L193.007 54.0676L194.265 54.5789L195.323 55.7769L196.987 56.0927L196.917 57.0952L197.549 58.5187L199.012 58.8546L199.133 60.1227L200.005 60.5187L200.521 59.2806L201.423 60.0776L201.524 60.9047L200.697 62.3483L200.942 63.1553L202.175 62.1628L202.847 64.1478L203.804 63.6917L204.2 62.8546L205.624 62.2932L206.14 62.7343L206.11 63.3408L207.413 63.5112L208.536 64.4836L207.554 65.9172L207.644 66.9197L205.98 69.0551L205.99 70.9548L204.787 71.6566L204.807 73.2455L205.724 72.9598L206.18 73.6516L205.564 74.8496L205.509 76.5237L203.955 77.837L201.559 77.431L201.348 76.7242L198.095 77.1252L197.569 77.7819L194.506 77.6917L192.291 75.8069L191.719 75.8671L191.714 76.6741L191.158 77.1102L189.098 76.5187L186.987 77.8922L185.614 76.6942L184.822 77.01L184.581 77.6415L183.729 77.817L182.07 76.9849L181.098 76.9999L180.656 76.3934L180.752 74.8846L179.233 77.4611L179.473 79.9022L179.238 80.5989L178.175 80.9448L177.829 79.8671L176.095 79.2305L176.02 78.5388L175.178 79.01L173.93 77.8972L174.26 77.3658L175.378 77.6716L176.095 76.4135L175.308 74.6992L173.278 73.3859L172.586 71.8771L172.321 69.5363L171.584 69.2205L170.917 69.7969L170.055 69.7267L169.002 69.2756L168.195 67.6415L167.243 67.03L166.536 67.2004L165.463 67.035L165.153 65.9774L163.253 66.3383L163.123 66.3333L161.97 64.8145L161.213 65.1252L161.128 63.8972L160.446 63.2856L158.867 63.2556L157.955 62.0526L156.842 61.7267L156.942 60.2932L157.839 59.2606L156.762 58.4385L157.448 57.8069L157.057 56.7894L160.712 56.4335L162.14 57.2656L161.935 55.3358L163.684 54.4836L164.035 53.5062L164.336 54.3583L165.699 53.9724L166.646 54.6841L166.361 53.5613L167.243 51.5814L166.832 50.1528L166.932 47.6816Z" fill="#CCCCCC" stroke="white" stroke-width="0.5"/>
<path d="M55.6492 154.635L56.6467 154.975L57.2432 155.983L56.1254 155.547L55.9801 155.958L55.1831 155.833L54.6417 154.965L55.3284 154.214L55.6492 154.635ZM44.1555 150.94L42.9475 151.948L41.955 150.304L43.1981 150.599L44.1555 150.94ZM41.5239 138.314L41.955 138.955L41.8948 140.018L41.5039 140.374L40.5214 139.602L40.9425 141.592L41.6592 143.487L41.6091 144.133L40.3259 143.081L39.3735 143.046L39.1931 142.434L40.0101 141.993L39.564 140.123L40.8071 138.444L41.5941 138.013L41.5239 138.314ZM44.8021 136.399L45.1831 136.329L45.7495 137.346L46.1906 137.121L46.6968 137.141L47.5089 137.802L47.9349 140.188L47.7645 143.166L50.2758 147.667L51.6943 149.056L52.1104 148.96L52.2307 149.792L53.7645 150.244L54.2908 151.607L55.0577 152.008L55.2933 152.594L54.6317 153.487L54.0051 153.547L53.0527 152.524L52.5715 151.873L52.6768 151.386L50.5415 150.043L51.0176 149.577L50.356 149.597L50.0552 148.364L51.4738 149.351L49.6242 146.985L49.2232 146.81L49.2282 147.326L48.5264 146.349L48.2257 146.394L48.376 147.427L47.8698 147.361L47.6743 147.818L46.366 147.301L46.777 146.264L46.5715 145.326L46.9374 144.905L47.1931 145.246L47.6091 144.254L46.7319 142.299L45.4186 141.236L44.6267 137.702L44.8021 136.399ZM70.747 138.239L66.8673 134.148L69.8497 136.594L70.747 138.239ZM62.0903 130.123L63.7695 130.97L66.3059 133.562L65.2332 132.855L64.0202 133.021L63.2232 133.005L62.3209 132.424L61.8497 131.281L61.0978 130.78L61.6342 129.878L62.0903 130.123ZM70.3961 126.148L70.6066 127.031L70.0502 127.081L70.0252 128.058L69.5189 127.131L68.8673 127.046L68.6417 126.178L70.3961 126.148ZM64.7971 126.208L66.0603 126.128L66.1254 126.85L66.6818 126.87L66.376 127.958L65.4989 128.599L70.1154 133.051L71.7344 135.963L71.955 135.572L72.1505 136.795L71.6993 136.564L71.2432 137.226L70.5465 137.131L67.564 133.657L66.8522 133.542L66.8973 133.126L63.8898 131.161L63.3585 129.326L64.8272 129.802L62.3059 126.74L63.5139 126.735L64.6317 127.457L64.356 126.8L64.7971 126.208ZM66.747 124.399L67.7445 125.717L66.0051 125.622L65.2232 124.504L65.7796 124.444L65.7144 123.702L66.747 124.399ZM67.4988 120.224L69.4988 121.517L70.5415 123.838L67.0227 121.712L66.8572 120.143L67.4988 120.224ZM54.762 116.765L55.8297 118.539L54.9074 118.62L52.2557 116.66L53.539 116.77L54.2106 116.178L54.762 116.765ZM44.0202 102.755L45.6542 103.437L46.351 104.705L45.9049 104.93L45.4437 106.93L47.8347 114.499L49.5991 116.83L51.4738 116.62L52.341 118.625L51.4638 119.101L51.0126 118.815L50.9525 122.334L50.2507 124.384L51.4237 130.65L50.5615 130.249L50.3159 130.925L51.4888 132.409L51.95 133.923L51.1379 135.241L51.8798 137.642L53.0678 138.965L53.7194 139.918L53.2382 141.672L53.96 141.346L54.1505 142.203L54.8272 141.993L55.4136 142.214L54.5765 142.374L54.4913 143.201L53.8798 143.787L53.4186 143.797L52.9775 144.334L51.5389 143.151L50.8873 142.735L50.9124 142.003L50.3109 141.757L49.8397 140.419L48.8823 139.301L48.6818 139.046L47.4036 137.687L47.8297 136.479L47.3585 134.534L47.7395 134.564L47.7294 134.028L47.0227 133.527L46.8923 133.958L46.3159 133.216L46.351 131.532L45.8898 130.845L46.1254 129.747L45.4287 128.635L45.0277 129.166L44.5364 128.895L44.3911 126.003L43.6693 124.534L43.7395 123.672L43.163 122.003L42.8873 121.717L42.742 119.988L43.4387 118.825L45.8999 122.399L46.3159 122.013L47.3585 122.504L47.955 121.772L47.4738 119.818L47.0377 119.547L47.4337 118.584L48.7169 119.271L48.3259 118.324L47.4437 118.289L46.7169 116.053L45.3184 115.181L45.7946 113.391L45.1881 111.492L42.9475 110.249L42.1956 108.068L41.4437 107.717L41.2081 106.509L42.1705 105.462L42.7069 103.406L43.158 102.755L43.9951 102.499L44.0202 102.755ZM56.361 97.592L57.0377 98.1784L57.0577 97.612L57.7896 97.8626L58.3259 98.815L57.3284 98.6245L59.8948 103.196L58.5765 102.815L58.0653 104.259L58.4963 104.399L60.1054 103.497L61.7144 104.529L62.3259 105.547L61.6593 106.469L61.7896 107.632L61.4437 108.604L61.9951 109.622L63.5189 110.564L64.2858 110.098L64.7821 110.705L65.158 111.081L65.7394 111.386L65.6141 112.695L69.6141 116.815L69.5841 117.422L69.1881 117.482L68.9725 117.993L66.1655 117.547L65.8748 118.294L66.6066 119.206L66.4663 119.722L65.158 120.038L62.7971 119.005L62.2056 117.868L60.8923 117.943L59.2131 116.92L59.0227 116.454L59.6442 116.098L59.4788 112.429L58.5866 113.336L59.1881 113.717L59.2232 114.334L57.0878 113.406L56.1956 114.409L54.3259 114.203L53.4337 113.552L52.9475 113.737L52.4462 113.422L49.6793 110.364L49.6492 108.604L51.4337 108.133L51.2232 106.72L51.7595 105.973L53.2733 106.865L54.4212 106.264L54.5565 104.82L54.1906 104.339L54.7369 104.304L55.4186 103.116L54.8472 102.008L54.8422 100.73L55.4738 100.63L55.7144 100.158L55.7044 98.9052L54.9575 98.0631L55.6442 98.0782L55.8447 97.3714L56.361 97.592ZM57.0427 66.0581L57.4587 66.3238L58.2106 65.998L59.0026 66.5293L58.0552 69.216L59.5991 70.1985L60.9675 71.8175L62.3811 72.018L63.0628 72.9103L63.4186 73.9428L62.8422 74.5995L62.6267 76.023L62.9775 76.6195L63.4136 76.5744L63.5891 75.9829L64.376 76.0431L66.4111 77.7123L68.4362 78.3839L69.4738 81.5118L74.1856 80.2636L74.4713 77.1859L75.4136 76.424L78.0653 78.6847L79.6091 78.8601L80.371 79.6722L81.8297 79.0506L83.4387 79.8777L83.4888 81.0957L86.1555 82.815L87.2232 84.1834L88.4111 84.3037L89.0427 83.3363L89.6041 84.0531L90.5465 84.0331L91.0327 84.7499L90.5765 85.2962L90.757 86.394L87.9349 91.3263L88.371 91.8877L88.1605 92.6446L86.8673 93.3263L85.3334 93.3864L84.1755 95.0055L83.2983 94.7499L83.1229 93.7423L80.8322 93.5418L79.8347 92.018L78.5765 92.5393L78.0051 93.607L78.0452 94.7248L77.0227 95.4165L78.2607 96.9002L78.2106 98.3839L77.7946 98.825L78.2407 100.454L77.3735 103.086L79.4888 106.244L80.2457 108.93L79.1931 110.63L77.4287 110.469L76.0252 110.99L75.554 109.762L74.5214 110.514L74.4663 111.186L73.2833 111.371L73.4337 112.389L72.7971 112.96L70.8222 108.314L71.0828 106.855L70.346 107.427L70.366 106.865L69.3234 106.955L64.0803 104.339L63.965 103.562L60.9926 100.544L58.8021 99.3463L59.0126 98.7599L58.2958 97.9378L56.8171 97.1308L56.9274 96.5744L56.5314 95.4516L56.3159 94.6947L57.173 94.7749L56.6217 93.9378L54.9274 92.8401L56.0953 94.5393L55.7395 95.0105L55.2181 94.9303L52.8823 93.6722L51.7846 92.5644L52.0352 92.1884L51.6492 92.5042L50.8572 91.7975L45.7545 90.2035L44.1254 89.211L41.7144 92.9353L39.7445 99.8827L39.8096 101.577L38.8171 104.203L37.544 103.366L37.9099 99.8977L37.1079 96.5945L37.4337 93.2962L37.7846 92.3789L38.4913 92.0832L37.7294 88.7749L36.9024 87.8626L36.9425 87.0757L37.8948 86.1834L33.9299 83.6621L33.0628 82.1383L33.3535 81.1709L33.0527 79.9629L33.9099 80.3338L36.0051 79.9428L37.549 80.5193L37.5841 79.612L38.4663 78.2837L39.6593 77.8877L40.6016 79.3363L41.7896 78.8351L42.6768 79.5719H43.3785L43.9099 80.5143L44.8823 79.607L47.4086 78.9804L48.5415 77.8526L49.3234 78.0531L52.2457 75.7824L53.1981 72.0982L53.0377 70.7749L54.742 70.2285L56.0803 68.2787L56.767 65.8877L57.0427 66.0581Z" fill="#CCCCCC" stroke="white" stroke-width="0.5"/>
<path d="M73.5693 154.96L77.424 158.84L75.9503 158.313L73.6345 156.198L72.9277 155.12L73.5693 154.96ZM72.4215 154.148L71.1282 152.719L72.0556 153.206L72.4215 154.148ZM68.7122 141.256L73.1132 146.574L72.3262 144.068L74.3112 143.642L74.6771 144.123L74.226 144.334L74.8475 144.344L76.1909 145.998L76.8175 146.098L78.2009 149.271L80.5368 149.857L81.2886 150.735L81.6897 150.649L82.0105 152.093L83.0681 153.471L81.4641 152.644L81.5292 151.973L80.1107 151.587L79.6445 152.028L79.2586 150.855L77.2486 150.073L76.5217 149.085L74.6821 148.318L74.6721 149.03L75.6095 149.271L81.2135 155.938L81.6846 155.266L81.1483 153.206L84.0506 155.682L84.8726 155.887L86.1508 158.133L88.0556 159.131L88.5819 160.619L89.3839 160.539L91.7598 162.609L92.3714 163.933L92.236 164.559L87.7548 161.401L91.1182 164.765L89.9002 164.8L90.4917 165.933L89.9954 165.376L85.9704 163.837L85.9653 164.529L88.3012 166.669L88.1458 166.96L84.7323 164.91L83.7548 163.426L84.3964 163.231L84.4215 162.669L83.4741 161.757L83.9202 161.025L84.8074 161.055L84.9328 160.519L83.1533 159.08L82.3714 159.05L82.3864 159.772L81.0079 159.476L80.8576 158.273L78.642 155.572L77.1333 154.313L76.6019 154.479L76.7072 153.862L76.5769 154.369L75.84 154.313L74.221 152.935L73.82 152.058L74.9177 151.802L74.6521 150.765L72.3212 148.349L72.4917 147.907L72.9879 148.018L72.8676 147.612L71.83 147.12L72.0806 146.88L71.6596 146.263L70.4816 145.562L70.3413 144.82L68.0305 142.424L65.1683 138.043L65.0781 136.99L68.7122 141.256ZM79.4992 106.238L82.4215 107.441L83.4992 108.439L83.6546 109.136L86.0856 109.933L87.2636 108.188L89.0932 107.532L89.7297 109.291L91.2135 110.86L93.8501 112.293L94.627 113.712L96.1408 114.569L96.9177 114.364L97.8952 114.875L101.875 120.745L103.013 121.316L105.805 121.572L106.371 122.98L106.858 122.82L107.88 124.143L108.236 123.406L106.782 122.143L106.401 121.1L107.329 120.349L108.301 118.589L109.364 119.136L109.86 120.464L110.542 120.965L113.168 119.897L114.792 121.446L115.83 121.697L117.234 120.574L117.855 124.845L119.599 126.569L118.121 127.837L116.336 127.887L116 128.719L117.619 130.659L119.213 133.747L120.747 134.534L121.294 135.657L123.068 135.386L123.499 134.584L124 134.75L124.923 133.827L125.479 133.822L126.762 135.622L128.552 136.379L128.587 137.396L129.554 139.216L131.384 140.424L132.426 140.604L132.988 142.253L133.74 142.93L133.715 143.707L132.737 143.822L132.873 145.161L131.534 145.125L131.274 145.552L132.396 147.847L136.507 150.283L137.324 150.329L138.296 152.89L137.66 154.96L137.97 155.126L136.858 155.917L135.665 155.953L134.963 155.216L133.98 155.075L133.84 157.356L132.858 156.409L132.963 154.9L131.314 152.795L129.875 152.163L128.086 152.023L127.033 152.76L125.384 154.409H124.296L123.98 155.496L119.945 157.391L119.419 158.409L118.121 158.97L119.805 159.426L120.296 160.339L118.998 161.882L119.489 162.865L121.244 162.83L121.84 163.812L121.629 166.865L120.963 167.988L120.015 168.619L115.594 168.76L113.84 168.303L112.682 167.391L110.051 167.426L108.542 166.689L107.314 164.128L105.203 162.519L99.7648 160.409L98.0155 159.381L97.9152 159.331L95.7448 158.113L93.9202 161.737L93.3338 161.552L88.5217 155.617L88.0004 155.587L87.1583 154.419L85.9553 153.767L84.1358 150.775L82.5267 149.682L82.4315 150.023L82.3964 149.296L80.4064 147.336L79.7949 147.416L79.2185 146.619L78.4115 146.374L78.5318 145.968L78.3363 146.193L77.2586 144.138L76.9779 142.263L75.2786 140.629L75.2084 139.381L73.6094 137.461L73.3137 135.03L73.7047 134.028L72.7623 130.504L72.8676 126.704L72.9929 125.552L73.4541 124.128L74.1408 122.078L75.1784 118.885L74.7272 117.291L73.5844 116.394L73.6997 115.532L72.8225 112.965L73.4591 112.394L73.3087 111.376L74.4917 111.196L74.5468 110.524L75.5794 109.772L76.0506 111L77.4591 110.479L79.2235 110.639L80.2761 108.94L79.4992 106.238Z" fill="#CCCCCC" stroke="white" stroke-width="0.5"/>
<path d="M200.944 43.5467L201.26 43.8274L201.25 44.474L201.034 45.1006L200.347 44.6044L200.533 45.8976L202.513 45.5166L202.914 46.7347L203.891 46.1181L204.032 46.8049L205.129 46.9653L204.849 45.6269L205.22 45.3262L210.042 46.5141L212.042 46.3186L214.934 48.8049L216.493 52.9753L217.144 53.7372L218.683 53.677L219.55 54.2084L221.004 54.3086L221.997 55.642L223.074 55.2861L224.839 56.2334L225.4 55.7823L226.017 57.4815L226.773 57.8826L227.38 59.0856L228.964 57.4314L230.172 57.3763L230.162 58.6595L231.275 61.5517L234.623 62.7748L236.132 68.6645L237.109 68.8199L236.513 70.4289L234.257 73.3663L234.408 74.8049L232.974 75.4314L232.257 77.5066L231.29 78.7046L228.713 79.9277L228.423 79.8074L227.545 79.4816L226.082 80.3387L223.54 80.4289L224.257 79.7372L223.129 78.7848L219.611 78.4941L218.192 77.6169L215.38 77.5166L214.453 76.7698L213.47 75.0104L212.212 74.87L210.192 72.9953L209.205 73.0104L208.553 74.2435L206.899 73.4665L206.488 72.5592L205.726 72.9602L204.809 73.246L204.789 71.657L205.992 70.9552L205.981 69.0555L207.646 66.9201L207.555 65.9176L208.538 64.4841L207.415 63.5116L206.112 63.3412L206.142 62.7347L205.626 62.2936L204.202 62.855L203.806 63.6921L202.849 64.1482L202.177 62.1633L200.944 63.1557L200.698 62.3487L201.525 60.9051L201.425 60.078L200.523 59.281L200.007 60.5191L199.134 60.1232L199.014 58.855L197.55 58.5191L196.919 57.0956L196.989 56.0931L195.325 55.7773L194.267 54.5793L193.009 54.068L192.222 52.2585L189.074 50.6745L189.495 49.1808L192.733 45.0204L193.746 42.9001L196.157 43.2109L198.032 42.7648L198.578 43.0104L198.824 42.3788L199.38 42.4139L198.623 43.8374L199.606 44.0229L200.127 43.0404L199.56 42.3337L199.886 41.8926L200.944 43.5467Z" fill="#CCCCCC" stroke="white" stroke-width="0.5"/>
<path d="M228.427 79.8117L228.533 81.7315L229.004 82.1125L231.315 82.4984L231.655 83.3506L232.808 83.7365L233.49 84.5937L234.944 84.9345L235.455 85.917L236.482 86.303L237.766 85.7867L239.004 86.1275L239.771 86.8543L240.157 87.5812L239.961 89.0598L238.753 89.9521L239.911 90.8142L240.763 93.3055L238.603 95.7015L233.971 94.4533L229.29 94.5636L228.477 96.3631L227.891 96.4233L228.287 97.3305L227.249 98.1275L226.247 99.912L224.377 99.3656L224.107 100.433L223.34 100.899L223.806 101.401L221.786 101.641L219.395 100.719L220.372 99.4408L219.836 98.318L220.026 97.0248L219.34 95.6864L214.523 95.6112L212.909 95.0097L211.595 93.541L209.169 92.3731L208.498 91.5511L208.337 90.0924L206.949 89.6964L206.041 88.1726L203.921 86.6037L200.788 86.9345L200.543 87.9922L199.51 88.3631L197.686 87.7215L196.964 86.6488L195.58 86.5085L192.102 89.1852L189.886 89.5461L189.625 88.318L188.793 87.4709L185.46 85.9571L185.746 84.4433L186.432 84.0122L186.071 82.8744L185.365 82.7441L185.5 83.8268L184.688 83.937L184.768 84.6739L184.362 84.704L183.67 82.5786L182.648 81.7466L180.593 81.7716L179.475 79.902L179.234 77.4608L180.753 74.8844L180.658 76.3932L181.099 76.9997L182.071 76.9847L183.731 77.8167L184.583 77.6413L184.823 77.0097L185.615 76.6939L186.989 77.8919L189.099 76.5185L191.159 77.11L191.716 76.6739L191.721 75.8669L192.292 75.8067L194.508 77.6914L197.57 77.7817L198.097 77.125L201.35 76.724L201.56 77.4308L203.956 77.8368L205.51 76.5235L205.565 74.8493L206.182 73.6513L205.726 72.9596L206.488 72.5586L206.899 73.4659L208.553 74.2428L209.204 73.0097L210.192 72.9947L212.212 74.8694L213.47 75.0097L214.452 76.7691L215.38 77.516L218.192 77.6162L219.61 78.4934L223.129 78.7842L224.257 79.7365L223.54 80.4283L226.081 80.338L227.545 79.4809L228.422 79.8067L228.427 79.8117Z" fill="#CCCCCC" stroke="white" stroke-width="0.5"/>
<path d="M192.101 89.1855L195.58 86.5088L196.963 86.6491L197.685 87.7218L199.51 88.3634L200.542 87.9925L200.788 86.9349L203.921 86.604L206.041 88.173L206.948 89.6968L208.337 90.0928L208.497 91.5514L209.169 92.3734L211.595 93.5414L212.908 95.01L214.522 95.6115L219.339 95.6867L220.026 97.0251L219.836 98.3183L220.372 99.4411L219.394 100.719L221.785 101.642L223.805 101.401L223.339 100.9L224.106 100.434L224.377 99.3659L226.247 99.9123L227.249 98.1278L228.287 97.3308L227.891 96.4236L228.477 96.3634L229.289 94.5639L233.971 94.4537L238.602 95.7018L239.159 96.4286L240.262 96.8095L241.77 96.6441L242.297 97.5514L242.943 97.2506L244.472 97.7318L245.034 98.8446L245.921 99.1755L248.552 98.7494L250.151 97.4862L253.324 97.1704L254.903 97.5614L255.515 98.4035L257.254 99.3609L261.339 100.023L263.008 101.246L260.267 106.188L261.224 108.218L262.282 108.549L262.046 109.045L263.079 109.952L262.367 110.739L262.081 112.083L261.73 110.89L260.683 111.09L258.963 110.569L256.467 107.341L251.139 107.837L250.432 106.82L249.134 106.9L248.778 105.501L247.815 105.095L245.545 106.278L245.445 107.135L246.046 108.198L245.124 109.381L244.026 109.742L241.846 109.065L240.838 109.446L238.287 107.456L239.049 106.524L238.211 104.965L237.089 104.95L236.437 106.168L235.62 104.399L235.018 104.208L233.886 104.684L232.793 106.89L231.139 107.411L231.339 109.376L229.189 111.09L226.723 112.083L225.57 111.556L223.44 109.316L221.921 109.015L217.44 105.491L216.412 105.712L215.069 106.965L213.72 107.546L212.587 106.905L211.465 107.391L211.58 106.293L211.174 105.852L210.227 107.381L209.324 107.406L208.818 106.92L207.831 107.366L207.585 107.01L208.267 106.218L208.257 105.376L207.324 106.018L206.096 106.028L206.377 104.649L205.951 103.617L205.48 103.697L205.154 104.749L204.307 105.476L201.5 105.236L199.745 104.188L199.715 103.145L198.818 103.196L198.758 102.293L197.535 102.459L196.903 101.541L195.369 104.709L191.896 104.599L190.247 103.476L188.542 100.183L186.342 98.4436L186.768 97.2757L188.853 96.4386L191.064 93.7018L192.086 93.2456L191.765 91.9975L192.382 90.8948L191.876 90.208L192.101 89.1855Z" fill="#CCCCCC" stroke="white" stroke-width="0.5"/>
<path d="M105.248 198.163L105.799 198.785L104.827 198.9L104.06 197.797L104.757 198.168L104.802 197.717L105.248 198.163ZM92.867 186.765L93.8746 186.88L94.2605 187.637L95.7793 188.253L97.5588 190.293L98.4059 190.178L99.1227 191.01L99.1528 192.318L102.551 195.271L102.341 195.998L101.799 195.381L101.063 195.767L98.867 193.983L98.8771 194.529L98.3056 194.514L97.6039 194.203L97.2179 193.211L97.1678 192.649L96.8971 192.404L96.451 191.907L94.9172 191.09L94.4009 189.832L92.7016 187.857L92.7467 187.366L92.0049 186.905L92.6164 186.359L92.867 186.765ZM81.8996 184.9L82.3106 184.92L82.1503 185.481L83.0575 186.243L83.3683 187.306L81.7342 186.183L82.0901 185.692L81.5337 184.714L81.8996 184.9ZM82.9121 182.033L84.3056 183.055L84.5663 184.208L84.9623 184.228L85.7041 185.516L86.5212 185.867L86.6114 186.679L87.5888 188.148L82.8971 184.008L82.5813 181.847L82.9121 182.033ZM84.04 177.968L84.3858 178.514L85.4836 178.709L86.9021 180.048L87.3984 180.313L87.7543 180.539L88.6164 181.13L88.4259 181.777L89.4134 183.095L90.5713 183.637L92.1152 185.186L91.7091 185.396L92.3909 186.268L91.8345 186.9L91.4635 187.08L91.5538 186.148L90.857 185.963L90.2304 184.494L89.9096 184.283L89.6791 185.221L89.243 185.547L85.6039 181.547L84.9172 180.158L83.9397 179.927L82.3257 178.399L82.6665 177.772L82.055 176.88L82.2004 176.374L84.04 177.968ZM81.3633 176.729L81.8094 176.86L81.8746 177.662L80.7267 177.105L79.8896 175.782L80.2254 175.471L81.3633 176.729ZM75.0475 176.108L76.1603 177.441L74.6866 176.795L73.1979 175.296L75.0475 176.108ZM71.8495 175.572L72.2455 176.078L72.9222 176.083L72.867 176.479L74.3006 177.612L74.9071 179.045L76.1352 179.346L75.8345 179.927L76.2154 180.504L78.7718 182.158L78.7618 181.516L79.3883 181.812L79.4284 182.404L78.9773 182.469L80.1703 183.241L80.4861 185.191L82.07 187.742L82.6565 187.877L83.9548 189.381L84.0049 188.499L85.1578 189.331L84.9422 189.978L86.461 191.04L87.2029 192.253L87.6941 192.173L87.9247 193.186L90.5212 194.694L90.6816 195.291L90.0701 195.105L90.3357 195.692L89.8545 195.887L88.9974 195.336L88.7919 195.271L88.1402 194.74L87.5588 194.835L87.4986 194.273L86.5563 193.872L86.1853 193.141L85.664 193.471L85.9297 193.973L86.3608 194.364L87.1778 195.216L87.644 195.201L88.3558 196.203L89.3081 196.524L89.3583 197.506L84.3056 193.085L78.5663 183.867L75.7392 181.692L73.1177 178.574L72.4109 178.178L72.456 178.985L69.8846 177.401L69.6039 176.599L70.2756 176.018L70.5563 176.268L69.8996 176.534L70.3959 177.356L71.7643 178.093L70.9623 177.09L71.5086 176.975L72.7467 177.777L71.5538 175.797L71.5838 175.171L71.8495 175.572ZM75.6289 175.331L75.7442 175.727L73.9798 174.233L74.5914 174.133L75.6289 175.331ZM76.1653 173.486L78.5512 176.248L79.2229 176.213L80.3658 177.321L80.7267 177.897L80.5212 178.689L79.3132 177.767L79.1728 178.143L77.5337 176.494L76.0801 174.424L76.1653 173.486ZM68.9071 168.925L69.7593 170.093L71.9999 171.236L72.7317 172.193L73.0325 171.241L73.8395 171.787L73.4134 172.103L74.3558 172.639L73.7392 172.825L73.5187 173.667L72.1352 173.01L72.3658 172.564L71.0826 172.313L70.5863 171.526L69.2981 170.925L70.7467 173.226L70.6916 173.567L70.0951 173.446L67.9247 169.336L68.9071 168.925ZM63.4184 166.97L63.9898 166.885L64.9021 168.078L64.3508 168.238L63.8495 168.118L62.832 167.1L63.4184 166.97ZM67.8445 167.782L68.6014 168.449L67.8645 168.935L66.7618 168.218L66.9673 169.421L65.8094 168.8L65.3332 167.682L66.5813 167.857L66.1252 166.659L67.8445 167.782ZM80.7969 164.484L81.2731 164.283L81.8495 164.965L82.2956 164.674L83.0776 165.361L84.04 165.346L85.8395 166.765L85.8294 167.156L85.1177 167.532L85.0976 166.795L83.8345 166.283L82.9422 166.589L82.9924 167.166L81.5487 167.331L79.8695 164.93L79.9899 164.339L80.7969 164.484ZM59.3883 163.722L60.4861 164.278L61.8946 166.048L60.4259 165.511L59.258 164.494L59.3583 164.163L58.1402 163.782L57.3633 162.524L57.8194 162.133L59.3883 163.722ZM62.842 158.118L63.8094 159.196L63.6039 161.075L64.5813 161.562L64.9272 162.79L64.5262 162.925L63.3683 162.123L62.7066 159.887L61.4886 159.466L61.6289 158.439L62.842 158.118ZM68.3909 157.757L69.2179 158.98L68.3257 160.183L69.7192 162.293L69.4034 163.246L68.3658 163.211L67.0325 161.887L65.7994 161.346L67.4435 160.549L66.5563 157.827L67.1778 158.043L67.8746 157.396L68.3909 157.757ZM133.298 156.704L133.824 157.336L133.965 155.055L134.947 155.196L135.649 155.932L136.842 155.897L137.96 155.105L138.14 157.06L139.293 158.619L138.035 159.266L136.807 158.99L137.047 160.198L141.388 161.732L141.824 162.569L141.484 163.692L141.679 167.246L142.692 172.243L139.87 173.191L138.571 173.226L137.94 174.594L138.361 176.91L137.905 178.068L136.712 179.015L135.554 179.682L130.606 177.401L130.501 176.419L129.589 175.12L128.606 175.05L126.466 178.664L125.519 179.05L124.922 179.927L124.22 180.945L123.027 181.191L122.396 182.664L120.501 182.033L119.87 182.419L120.466 183.296L121.448 183.366L123.238 184.559L123.308 185.647L122.361 186.91L122.852 188.033L121.378 189.401L120.115 189.752L121.464 191.687L120.501 192.298L120.08 192.143L118.982 192.755L119.128 193.115L119.539 193.286L119.689 193.486L119.664 193.637L119.298 193.887L119.128 194.123L118.762 195.035L118.195 195.336L117.559 195.637L118.025 196.163L117.739 196.8L117.609 197.361L117.464 198.313L115.714 197.316L115.433 197.236L114.15 196.674L111.935 197.722L110.917 197.406L109.203 195.862L107.855 197.045L107.383 196.945L106.662 196.479L106.396 195.993L106.712 195.847L106.045 195.08L102.556 193.316L101.764 192.333L101.94 191.607L100.105 190.313L96.7868 185.777L94.466 184.669L94.9823 184.639L95.0174 184.093L93.659 183.401L92.7066 181.055L91.9197 180.614L91.8545 181.015L90.6014 179.772L90.4259 179.246L90.4109 178.569L89.4685 178.334L89.9598 177.867L89.8044 177.276L86.3608 173.742L87.2781 173.136L87.6941 171.346L85.8645 170.509L85.5788 169.361L84.7668 169.1L85.5287 167.757L86.5462 167.722L88.2806 169.717L87.9397 169.817L88.3909 170.494L88.7868 170.018L89.3583 169.968L90.0751 169.266L88.8771 167.441L89.4034 167.11L90.0249 167.542L89.7994 166.704L93.7242 170.063L94.5763 169.762L93.5888 167.567L94.5111 167.727L94.857 167.05L92.5312 164.694L93.248 163.797L93.3833 164.364L95.9247 165.847L96.2605 166.288L96.0049 166.714L99.7994 169.141L100.651 169.401L102.005 168.84L105.148 169.727L105.674 171.291L105.604 172.694L103.569 173.501L105.849 175.572L108.727 174.87L110.165 176.659L110.692 178.975L111.499 178.729L111.744 177.887L110.516 175.817L110.657 174.905L109.569 173.537L107.744 173.115L106.411 171.642L106.306 169.922L106.882 169.927L106.822 169.07L105.143 168.138L103.754 168.484L103.243 167.456L102.471 167.682L100.677 165.366L96.6315 163.562L93.9648 161.742L95.7693 158.103L97.9397 159.321L98.04 159.371L99.7893 160.399L105.228 162.509L107.338 164.118L108.566 166.679L110.075 167.416L112.707 167.381L113.865 168.293L115.619 168.75L120.04 168.609L120.987 167.978L121.654 166.855L121.865 163.802L121.268 162.82L119.514 162.855L119.022 161.872L120.321 160.328L119.829 159.416L118.145 158.96L119.443 158.399L119.97 157.381L124.005 155.486L124.321 154.399H125.408L127.058 152.75L128.11 152.013L129.9 152.153L131.338 152.785L132.987 154.89L132.882 156.399L133.298 156.704Z" fill="#CCCCCC" stroke="white" stroke-width="0.5"/>
<path d="M271.375 48.083L275.796 50.6745L276.543 50.5742L276.769 48.3637L277.35 48.8249L277.726 51.1005L279.124 52.1983L278.814 56.2735L280.598 58.2735L281.801 63.3813L282.854 64.5442L284.789 65.5366L283.355 69.4765L281.982 69.5517L281.51 70.0379L282.102 71.1356L280.959 72.9602L281.104 73.8374L283.225 75.8224L284.247 76.063L285.972 75.5216L286.433 74.4489L287.611 74.3938L288.227 76.0229L289.952 76.2835L291.721 77.5567L291.586 78.6494L290.779 79.5818L288.728 79.7672L287.114 78.9602L286.418 79.0905L285.861 82.088L286.358 83.0554L285.906 83.3863L283.791 83.3011L282.032 80.9L280.338 79.8374L278.914 79.8224L278.653 80.494L276.713 80.6695L275.891 81.2409L276.899 84.4539L275.901 84.5291L275.846 85.5016L274.518 85.7873L274.142 85.0404L273.525 84.88L271.335 85.276L270.157 86.3687L268.102 86.6795L268.092 89.281L266.728 90.0429L267.079 92.0579L265.009 92.2133L264.132 93.5918L262.678 93.3361L261.245 94.2083L261.24 97.5016L263.43 98.8148L264.473 98.7146L264.067 100.9L263.009 101.246L261.34 100.023L257.255 99.3612L255.515 98.4038L254.904 97.5617L253.325 97.1707L250.152 97.4865L248.553 98.7497L245.921 99.1757L245.034 98.8449L244.473 97.7321L242.944 97.2509L242.297 97.5517L241.771 96.6444L240.262 96.8098L239.16 96.4289L238.603 95.702L240.764 93.3061L239.911 90.8148L238.754 89.9527L239.962 89.0604L240.157 87.5818L239.771 86.8549L239.004 86.1281L237.766 85.7873L236.483 86.3036L235.455 85.9176L234.944 84.9351L233.49 84.5943L232.809 83.7371L231.656 83.3512L231.315 82.499L229.004 82.1131L228.533 81.7321L228.428 79.8123L228.713 79.9276L231.29 78.7046L232.257 77.5066L232.974 75.4314L234.408 74.8048L234.257 73.3662L236.513 70.4289L237.109 68.8199L236.132 68.6645L234.623 62.7747L231.275 61.5517L230.162 58.6594L230.172 57.3762L233.129 57.3612L234.478 56.8499L235.896 58.068L238.849 59.0254L239.967 58.7397L240.939 57.2309L242.388 57.3311L243.35 58.1883L244.267 57.3462L246.508 57.9878L247.245 59.2459L248.969 59.7422L249.992 59.3412L251.906 59.8925L252.107 60.3787L253.129 58.8399L253.485 58.4138L255.064 59.4815L255.205 60.499L255.696 60.8399L257.801 61.0855L257.731 59.276L258.272 58.7196L259.576 58.9652L260.057 56.865L261.636 57.687L262.287 56.9251L263.27 56.9201L263.551 56.2083L264.368 56.4038L264.363 55.3512L265.38 54.9351L265.796 53.9326L266.909 53.5266L266.944 52.4439L267.335 50.8148L267.736 51.4615L268.518 50.87L267.881 49.9276L268.974 49.296L269.42 48.2183L271.375 48.083Z" fill="#CCCCCC" stroke="white" stroke-width="0.5"/>
<path d="M110.687 211.181L111.258 211.562L112.025 211.396L113.103 212.113L113.384 211.777L114.582 213.391L116.05 213.632L116.938 214.419L115.91 214.454L115.344 214.198L114.933 214.429L113.178 213.742L111.549 211.933L110.456 211.777L110.226 210.91L110.687 211.181ZM117.97 209.436L119.018 209.918L119.148 210.71L117.614 210.103L117.539 208.725L117.97 209.436ZM123.339 209.542L123.98 210.469L124.03 212.098L121.509 209.461L122.281 209.547L122.476 208.71L123.339 209.542ZM112.797 209.441L114.075 209.807L114.907 210.895L114.105 210.875L112.797 209.441ZM113.95 208.018L114.842 208.088L115.258 208.845L116.146 210.073L116.752 209.968L116.171 210.725L116.406 211.411L115.173 210.76L115.053 210.223L115.865 210.339L114.331 209.161L113.95 208.018ZM118.416 207.291L119.484 208.183L118.857 208.118L119.188 208.87L117.91 207.431L118.191 206.95L118.416 207.291ZM120.882 207.582L120.171 207.938L119.619 206.278L120.882 207.582ZM96.4363 204.228L97.6844 205.025L97.2734 205.241L95.1631 204.038L95.6744 203.792L96.4363 204.228ZM110.416 200.258L110.351 201.121L111.634 202.183L111.584 202.644L112.401 202.359L112.837 203.166L112.406 203.431L113.163 203.792L113.549 204.78L111.429 204.093L111.434 203.406L109.003 201.406L108.276 199.887L108.807 199.722L109.559 200.624L109.945 199.672L110.416 200.258ZM91.2584 196.775L91.3135 197.126L92.6619 197.236L92.8875 197.597L92.0453 197.697L92.2208 198.033L96.5115 201.351L98.9025 204.118L97.6143 203.507L96.0604 203.126L94.6268 202.123L94.717 201.436L92.4363 200.188L91.4489 198.203L90.4062 197.191L90.4764 196.76L91.2584 196.775ZM92.8474 195.507L94.3661 196.053L93.7496 196.183L94.3411 196.85L94.6819 196.564L95.3336 196.98L95.3887 195.998L96.0804 196.81L95.7897 197.491L97.098 198.74L97.1681 199.527L98.2659 200.76L97.92 200.915L97.3586 199.953L94.9777 198.419L93.3887 196.705L92.4313 196.609L92.0804 196.108L92.8474 195.507ZM148.296 179.657L149.72 181.737L152.712 181.672L153.509 185.471L156.577 185.717L158.401 188.88L158.632 190.559L156.431 190.439L153.925 192.183L152.983 191.953L151.925 192.449L151.795 193.025L152.501 193.502L152.401 193.968L150.887 194.138L149.173 193.552L148.341 196.243L153.449 201.075L151.464 202.559L150.993 203.456L148.787 204.71L149.404 206.148L148.401 207.226L149.414 208.063L149.434 208.579L147.91 210.293L143.935 210.003L142.983 211.346L140.652 211.156L140.04 212.815L137.81 212.88L136.231 215.401L134.767 215.732L134.481 216.604L133.228 217.396L133.895 219.08L135.309 219.316L135.644 221.186L135.008 221.737L133.354 221.752L133.038 222.995L131.785 223.557L130.913 224.534L130.512 224.183L130.928 223.677L129.97 223.692L129.263 224.033L128.872 223.712L128.261 223.03L128.938 222.925L129.514 222.93L130.286 222.293L129.82 221.025L130.501 220.855L129.649 220.735L129.464 221.246L128.877 221.216L128.852 222.108L128.406 221.652L128.787 220.755L127.434 220.419L126.983 219.842L127.208 219.371L128.01 219.456L127.95 218.634L127.364 219.055L126.622 218.604L127.334 217.496L126.577 217.156L126.968 216.94L126.667 216.003L127.048 215.647L126.341 214.559L126.682 214.118L129.354 214.223L125.805 213.111L127.018 213.156L127.128 212.634L128.281 213.642L128.116 212.293L126.476 210.985L125.449 209.411L124.772 209.732L123.339 207.918L119.624 205.251L119.048 205.697L117.654 205.331L117.634 205.617L116.737 205.151L116.852 204.73L115.023 204.7L114.491 203.401L113.293 202.248L112.151 202.153L110.983 201.206L110.877 200.534L111.715 201.456L112.121 200.96L112.887 201.015L114.121 201.752L114.326 202.424L114.346 201.035L113.439 200.98L111.394 199.06L109.604 198.755L108.742 198.058L108.812 197.406L108.01 197.943L107.895 197.211L109.213 195.882L110.928 197.426L111.945 197.742L114.161 196.694L115.444 197.256L115.725 197.336L117.474 198.334L117.619 197.381L117.75 196.82L118.035 196.183L117.569 195.662L118.206 195.361L118.772 195.06L119.143 194.148L119.314 193.913L119.684 193.662L119.71 193.512L119.559 193.311L119.148 193.141L119.003 192.78L120.1 192.168L120.522 192.329L121.484 191.717L120.136 189.782L121.399 189.431L122.872 188.063L122.381 186.94L123.329 185.677L123.258 184.589L121.469 183.396L120.486 183.326L119.89 182.449L120.522 182.063L122.416 182.694L123.048 181.221L124.241 180.975L124.943 179.958L125.539 179.08L126.486 178.694L128.627 175.08L129.609 175.151L130.522 176.449L130.627 177.431L135.579 179.712L136.737 179.045L137.93 178.098L138.386 176.94L137.965 174.624L138.597 173.256L139.895 173.221L142.717 172.273L144.632 175.311L147.439 177.677L147.805 179.256L148.296 179.657Z" fill="#CCCCCC" stroke="white" stroke-width="0.5"/>
<path d="M263.007 101.246L264.065 100.9L264.471 98.7145L263.429 98.8147L261.238 97.5015L261.243 94.2082L262.677 93.3361L264.13 93.5917L265.007 92.2132L267.078 92.0579L266.727 90.0428L268.09 89.2809L268.1 86.6794L270.155 86.3686L271.333 85.2759L273.524 84.8799L274.14 85.0403L274.516 85.7872L275.845 85.5015L275.9 84.529L276.897 84.4538L275.89 81.2408L276.712 80.6694L278.652 80.4939L278.912 79.8223L280.336 79.8373L282.03 80.9L283.789 83.301L285.905 83.3862L286.356 83.0553L287.609 84.0929L287.589 85.0353L287.178 85.7922L286.246 85.9626L285.133 87.707L287.739 90.0579L291.288 90.8298L292.291 93.6969L299.514 97.4714L307.188 98.2884L307.454 100.835L306.947 101.767L307.123 102.745L305.023 103.045L302.987 100.704L301.764 100.82L301.378 102.8H300.195L295.779 100.554L295.574 101.005L296.316 101.857L296.135 102.785L294.025 105.872L293.303 106.223L291.238 105.963L291.193 107.331L292.005 108.554L291.544 109.441L292.486 110.504L292.456 111.687L291.544 112.639L291.91 114.74L291.414 115.667L289.268 117.005L292.366 117.496L293.87 116.75L294.506 118.614L293.895 119.481L291.89 120.339L290.616 121.887L287.048 122.399L287.769 125.797L284.967 126.213L278.802 125.887L274.251 122.118L274.682 121.03L273.629 119.522L274.09 119.296L275.484 120.003L276.401 119.496L275.358 117.657L275.87 115.812L273.91 115.276L272.391 115.617L272.812 114.008L271.694 112.604L270.576 112.319L269.303 110.709L270.271 109.647L269.749 108.569L269.193 108.469L268.662 109.095L268.907 110.81L268.546 111.201L266.04 110.584L266.075 110.138L267.489 109.055L267.288 108.379L266.797 108.414L266.16 109.406L264.195 108.439L264.005 108.835L264.737 109.677L264.366 110.474L263.83 109.346L262.281 108.549L261.223 108.218L260.266 106.188L263.007 101.246Z" fill="#CCCCCC" stroke="white" stroke-width="0.5"/>
<path d="M140.437 253.326L140.372 253.702L141.124 253.792L140.432 254.749L140.943 254.97L142.161 253.837L143.144 253.927L143.364 254.459L144.081 253.877L144.036 255.386L142.838 256.198L142.773 256.935L141.855 257.561L141.043 257.737L139.745 257.992L136.713 258.579L134.447 258.529L135.6 257.411L135.645 256.358L135.154 255.657L134.246 256.138L133.575 255.105L135.931 253.797L140.437 253.326ZM166.818 252.073L167.825 252.178L168.843 252.318L169.349 252.905L167.951 253.476L165.279 252.965L165.825 252.228L166.818 252.073ZM149.124 246.724L150.642 247.576L151.635 247.251L151.73 248.068L150.738 248.288L149.87 248.253L148.793 247.626L148.066 247.371L148.487 246.619L149.124 246.724ZM160.126 242.699L160.657 242.669L160.337 243.591L160.507 244.037L161.124 243.957L161.043 244.539L162.417 243.667L162.763 244.128L164.121 244.088L164.377 244.037L164.657 243.682L165.58 244.093L165.429 245.135L167.199 246.524L165.825 246.278L166.998 247.035L167.494 247.652L168.562 248.032L169.74 247.431L170.307 247.416L171.274 247.947L173.906 247.667L174.602 248.063L176.477 247.636L177.555 248.378L180.697 248.358L188.281 249.662L190.362 249.195L192.998 250.273L188.713 251.06L187.835 250.749L185.62 251.13L184.933 250.769L183.189 251.13L181.735 251.025L179.525 251.19L171.073 250.078L165.374 250.509L160.322 249.065L159.033 249.18L155.78 247.556L155.063 247.982L153.73 247.501L153.875 246.94L153.013 246.925L152.743 246.433L149.86 245.321L150.572 244.995L152.597 245.386L153.59 244.764L154.402 244.388L155.038 244.559L155.414 244.193L158.216 244.709L160.332 246.454L161.865 246.078L160.813 245.702L160.718 244.809L159.986 244.659L159.78 243.626L158.858 244.168L157.88 243.17L158.367 242.814L158.617 243.24L159.469 243.256L159.254 242.609L160.126 242.699ZM153.966 231.381L157.459 231.857L159.374 231.451L162.477 232.042L166.151 232.704L169.053 233.411L171.339 233.672L171.464 234.268L172.286 233.882L173.329 234.464L172.261 234.784L172.332 235.195L173.464 234.89L173.991 235.466L174.041 234.86L174.467 234.759L177.048 236.413L177.58 237.03L176.913 237.291L177.344 237.917L176.662 238.143L176.637 239.095L175.755 238.824L175.299 239.877L171.971 240.529L170.051 240.308L163.865 240.995L162.808 240.499L158.387 239.972L157.364 239.546L156.883 239.376L156.251 238.885L156.081 238.378L155.454 238.288L154.963 237.962L154.412 237.907L154.672 237.381L154.286 237.04L153.845 237.125L153.936 237.566L153.419 237.381L153.114 237.14L152.161 236.669L152.061 235.446L152.923 236.263L154.121 236.048L153.419 235.677L153.354 234.659L154.808 234.103L154.091 233.712L154.301 232.93L153.204 231.872L153.114 231.451L153.966 231.381ZM143.525 229.727L146.206 230.469L146.482 231.215L146.973 230.839L147.364 231.18L147.89 231.065L149.154 232.834L149.63 232.684L149.775 233.702L151.229 234.824L151.55 235.782L150.612 235.967L150.447 235.421L149.89 235.451L149.379 235.381L149.003 234.839L147.354 234.368L146.718 233.997L146.863 233.486L145.8 233.286L145.244 233.085L142.828 231.722L141.525 231.672L141.439 231.145L141.625 230.353L141.284 229.892L143.525 229.727ZM135.52 226.799L135.936 227.406L135.379 228.128L134.983 227.496L133.63 227.346L133.735 227.02L135.52 226.799ZM138.176 226.599L139.489 226.714L139.961 227.657L139.58 228.363L138.808 227.987L138.332 228.579L136.517 228.629L137.023 227.682L137.389 227.752L137.354 227.075L137.77 226.834L138.176 226.599ZM145.429 222.604L146.587 222.639L149.204 224.088L151.209 224.574L147.194 224.94L144.963 224.198L144.713 224.739L143.57 225.14L141.464 224.058L142.181 223.652L144.111 224.113L144.256 223.065L143.309 222.699L145.429 222.604ZM131.77 223.536L133.028 222.975L133.344 221.737L134.998 221.722L135.635 221.17L135.299 219.301L133.89 219.065L133.229 217.381L134.487 216.589L134.773 215.717L136.236 215.391L137.815 212.87L140.046 212.804L140.657 211.145L142.988 211.341L143.941 209.997L147.916 210.288L149.439 208.574L149.419 208.058L148.407 207.22L149.409 206.143L148.793 204.704L150.998 203.451L151.469 202.554L153.454 201.07L148.352 196.238L149.184 193.546L150.898 194.133L152.412 193.962L152.512 193.496L151.805 193.025L151.936 192.449L152.993 191.952L153.936 192.183L156.442 190.438L158.642 190.559L161.129 192.238L162.858 194.679L167.083 197.702L167.505 198.449L167.525 200.679L168.878 202.9L169.73 203.782L172.006 204.298L173.434 206.794L175.244 208.048L176.201 209.616L177.52 210.398L178.647 212.544L180.562 214.273L184.657 219.677L185.299 219.2L186.226 219.571L187.259 220.754L188.858 221.662L190.096 223.296L194.307 223.13L195.966 224.258L197.088 225.797L197.334 227.12L197.144 228.609L195.83 231.471L199.79 238.855L200.211 241.1L202.898 241.601L204.266 242.659L205.414 244.744L205.154 246.263L205.911 246.454L204.121 248.128L201.484 247.476L200.397 248.022L200.482 249.035L202.271 249.611L202.241 251.055L200.903 252.554L200.191 251.235L197.78 250.133L197.484 249.376L196.216 248.413L191.795 246.804L190.687 245.476L189.946 245.406L188.597 244.373L188.281 243.055L186.858 242.594L185.439 239.982L183.82 238.839L183.309 238.323L180.011 233.611L177.469 231.556L176.988 230.689L171.946 230.504L168.492 229.787L166.728 227.631L164.251 228.002L163.098 226.985L160.983 226.203L158.853 224.343L158.191 223.817L155.715 223.416L154.276 223.682L152.983 223.626L150.973 223.035L151.775 222.524L152.677 222.083L153.59 221.606L154.001 221.521L155.479 221.722L155.51 221.386L155.179 221.035L149.104 219.957L147.119 220.799L146.091 221.807L142.407 222.398L141.79 222.875L140.402 223.11L140.236 222.724L139.144 222.804L137.74 222.228L136.938 222.784L139.916 223.541L140.066 224.178L139.083 224.89L137.82 224.99L137.575 225.16L136.828 225.732L135.71 225.596L134.387 224.749L133.986 225.446L133.324 225.02L132.858 225.21L133.124 224.363L132.206 224.198L131.67 224.699L131.77 223.536Z" fill="#CCCCCC" stroke="white" stroke-width="0.5"/>
<path d="M14.1011 120.69L14.5673 121.156L14.9933 121L15.4896 121.211L15.3492 121.812L15.8254 122.053L14.9582 122.469L14.9282 122.083L14.5372 122.133L14.2866 123.512L13.9507 122.218L14.3768 121.356L13.3542 120.81L14.1011 120.69ZM28.0059 77.7072L30.6374 79.7222L33.0435 79.9428L33.3442 81.1508L33.0535 82.1182L33.9207 83.642L37.8856 86.1633L36.9382 87.0555L36.8981 87.8425L37.7252 88.7548L38.4871 92.0631L37.7803 92.3588L37.4294 93.2761L37.1036 96.5743L37.9056 99.8776L37.5447 103.346L38.8179 104.183L38.7227 105.296L37.8204 106.79L37.3542 107.487L36.3016 109.346L35.66 109.998L35.0535 109.502L34.6876 110.359L35.3342 111.015L35.5196 112.309L35.3993 112.91L35.1387 113.276L35.7953 114.549L36.0059 116.334L34.8129 118.419L34.1763 117.657L33.4745 118.123L33.1988 117.517L32.6575 117.482L30.467 119.346L30.8931 117.522L32.0009 117.051L31.274 116.359L31.1036 114.985L30.5623 115.336L29.9006 115.051L30.1613 113.988L29.4545 112.223L29.1186 113.111L29.5146 114.274L29.0485 115.321L30.6475 115.737L31.0334 116.9L30.4169 116.915L30.462 117.682L29.8154 118.003L29.8004 119.131L28.7577 118.68L29.6851 119.848L29.0836 121.346L28.6274 121.652L28.5121 122.249L27.3693 123.141L26.0911 122.439L26.0961 123.141L27.2991 123.752L26.6575 124.168L27.1587 125.291L26.0911 126.078L25.9958 126.98L26.5071 127.843L26.6374 128.414L27.2339 129.677L24.442 129.682L23.7051 128.65L23.0836 128.75L23.1688 128.143L22.3918 127.727L21.8705 128.158L21.9758 128.639L22.6224 128.88L23.1838 129.697L22.6475 130.479L22.9933 131.396L23.0084 131.667L22.848 132.053L22.2465 132.213L22.0811 129.271L20.8379 129.221L19.9457 128.975L19.6249 128.81L19.1988 128.203L20.0209 127.878L19.8555 127.522L19.0485 127.652L18.9833 126.85L18.4269 127.512L18.1663 127.221L18.6324 126.259L17.4394 125.953L16.6024 125.326L16.5572 124.394L17.6399 125.231H18.6525L18.9181 124.915L19.1086 124.624L19.254 123.792L18.5873 123.697L18.3668 124.188L17.7051 124.279L17.0134 123.782L16.5272 123.321L17.244 122.645L17.4996 121.577L16.9833 121.462L16.9081 120.489L14.868 116.389H13.4144L12.6124 114.78L12.1312 114.685L12.2364 113.692L11.0635 113.612L11.0986 112.484L10.5823 112.153L11.0084 111.627L9.10862 110.464L7.95574 110.72L7.73018 110.238L8.33168 110.128L7.94571 109.226L8.42692 109.005L8.49208 108.244L8.0209 108.033L7.11363 107.632L6.70261 106.915L6.21138 105.01L6.32667 104.474V104.143L6.94822 103.727L5.79534 102.459L6.61238 102.173L5.36927 100.815L5.74521 100.374V100.008L6.17629 99.0455L6.26652 98.5844L6.41689 97.5117L6.12617 96.6946L5.15373 96.5844L4.99835 95.9578L5.49459 95.0154L6.61739 95.0455L6.45699 94.4189L5.70511 94.4641L4.75273 93.4265L5.89559 93.5217L5.9006 92.9403L7.11865 92.2936L6.16125 92.1533L5.89559 92.1984L4.27654 92.2285L4.03093 92.0831L4.47704 91.6871L3.23895 91.1859L3.17378 89.5518L4.04596 89.0806L3.39434 88.8801L3.46451 88.0029L3.4194 87.6119L2.92316 87.0756L3.0585 85.9127L2.0209 84.85L2.43193 83.2661L1.72516 82.9804L2.061 82.0681L1.63995 81.7824L1.69509 80.6646L0.722656 79.4465L1.37429 78.3337L2.58732 78.6044L6.69258 81.2159L8.83293 81.7623L10.2715 82.8901L12.7176 81.7423L13.3242 80.9252L14.1763 80.8149L16.5071 81.7673L16.5472 82.9302L17.1437 83.6069L18.5522 83.5869L19.1938 84.2285H20.452L22.1161 82.2235L24.2615 81.8575L25.3442 82.5142L26.1412 81.8575L26.3517 79.8576L24.7628 78.3387L25.1287 77.6821L26.7377 78.0079L26.6725 77.3362L27.1186 77.1357L28.0059 77.7072Z" fill="#CCCCCC" stroke="white" stroke-width="0.5"/>
<path d="M235.375 281.797L235.866 282.514L235.58 282.92L235.279 282.378L233.821 281.942L234.893 281.807L234.818 281.391L235.375 281.797ZM232.698 281.2L233.279 281.827L232.192 281.601L232.342 281.962L231.936 282.097L230.663 281.03L231.405 281.225L231.886 280.423L232.698 281.2ZM224.447 276.809L226.342 277.586V278.298L224.528 277.396L223.715 276.398L224.447 276.809ZM225.876 276.323L226.954 276.373L230.096 278.649L230.432 279.14L229.936 280.338L227.48 278.368L225.876 276.323ZM175.921 275.26L176.548 274.925L176.718 275.416L177.826 275.08L179.35 275.346L179.725 275.641L179.52 276.564L177.791 278.338L176.853 278.604L176.643 278.393L176.467 277.606L175.886 277.626L174.658 278.042L174.528 278.629L173.044 276.854L173.675 277.045L173.67 275.601L174.297 275.306L174.172 274.834L174.738 274.97L175.204 274.814L175.921 275.26ZM202.026 273.155L203.38 273.1L202.788 273.797L202.046 273.762L202.437 274.158L205.62 274.103L206.071 274.674L213.715 277.075L213.856 277.666L216.096 277.591L216.472 278.183L217.445 277.707L217.59 278.468L218.357 278.218L221.53 279.606L221.269 280.077L221.781 281.03L221.024 281.045L220.718 280.659L220.162 280.273L219.284 280.458L216.292 279.095L214.302 278.699L213.309 278.94L210.397 277.927L209.204 277.982L206.528 276.498L205.771 277.11L205.45 276.383L204.277 276.378L203.991 275.842L202.918 275.551L202.974 276.077L202.893 276.288L199.911 274.995L200.081 274.183L202.026 273.155ZM166.994 259.666L167.039 260.027L168.417 259.867L169.294 260.659L171.289 261.055L171.505 261.491L175.024 262.133L177.545 261.722L178.076 261.14L183.48 260.604L185.304 260.453L185.169 260.94L188.121 261.802L188.533 261.987L189.871 261.656L190.347 262.092L191.299 263.681L191.129 264.168L193.355 264.945L189.655 265.571L188.994 265.656L185.224 264.458L181.4 264.238L177.299 266.448L175.645 266.689L174.803 266.393L175.42 266.007L175.074 265.762L170.999 265.917L165.615 264.148L165.269 265.1L164.086 264.378L164.387 264.153L164.051 263.621L165.605 263.17L165.279 262.458L167.746 262.183L167.57 261.852L167.355 261.401L165.871 261.386L166.046 260.97L164.873 260.193L164.367 260.99L164.106 260.313L163.465 260.213L164.147 259.762L164.658 260.072L165.826 259.551L166.994 259.666ZM183.254 255.827L184.603 256.188L184.512 256.468L186.467 257.391L191.54 257.275L198.407 258.894L201.695 260.413L202.959 261.481L205.811 262.504L206.137 264.173L207.64 264.739L208.232 265.486L209.39 265.326L210.272 265.982L209.58 264.493L210.121 264.453L213.099 266.218L214.357 266.498L216.422 268.213L218.036 268.298L218.121 268.874L220.738 270.849L221.395 270.784L219.34 269.135L219.054 268.428L218.603 268.458L216.583 267.12L217.059 266.293L218.743 264.448L220.517 264.754L223.751 266.899L225.029 264.879L226.853 266.403L226.964 268.554L227.951 270.549L229.159 270.935L228.883 272.599L229.881 272.579L231.916 273.416L233.129 274.639L234.262 274.884L234.903 276.433L236.633 276.814L239.971 279.311L239.916 281.02L242.061 281.611L242.678 283.25L244.086 283.075L245.971 285.521L247.034 286.113L247.741 287.441L250.071 286.704L250.387 286.022L251.45 285.727L253.71 286.022L254.593 287.541L257.279 289.666L258.202 293.702L257.655 294.664L257.756 295.717L261.284 299.747L260.883 301L258.011 297.601L257.555 297.972L256.838 297.531L256.422 296.774L253.014 294.363L249.625 292.624L246.818 290.213L246.187 289.045L246.152 288.468L246.538 287.295L245.4 285.722L244.929 285.586L243.971 286.253L241.149 284.448L239.876 284.478L239.259 284.213L237.761 283.691L237.645 283.095L237.811 282.759L238.643 282.754L238.347 282.423L237.024 281.391L232.934 279.381L232.312 278.383L229.6 277.02L228.257 275.852L228.111 275.125L228.608 275.095L228.828 274.103L227.741 274.905L226.698 274.047L226.533 272.975L225.375 273.235L224.066 272.684L224.207 273.155L223.4 274.108L222.382 272.91L219.009 270.734L219.204 271.306L221.535 272.96L222.703 274.714L222.187 275.917L221.575 275.285L221.961 274.779L221.375 273.471L220.908 273.837L219.826 273.24L219.485 273.451L217.981 272.674L217.911 272.037L216.893 272.328L206.031 268.458L205.119 267.922L205.52 267.301L206.132 267.27L206.257 266.714L204.558 265.401L203.605 264.95L203.57 265.24L201.66 265.22L200.267 263.977L195.535 261.852L194.127 260.438L192.132 261.005L189.796 260.955L187.881 260.183L186.412 260.213L184.808 258.925L183.665 258.644L184.101 257.476L184.633 257.386L184.377 256.95L183.64 257.14L183.53 256.138L182.903 255.832L183.254 255.827ZM207.555 247.737L215.981 252.884L217.274 256.458L219.72 261.115L217.39 261.697L215.59 262.849L214.903 262.679L214.613 263.306L210.633 263.275L207.274 259.942L207.746 258.94L207.174 258.599L206.618 257.356L205.224 258.042L204.653 257.145L205.004 255.817L205.309 255.381L204.758 254.353L204.633 255.712L204.011 256.258L200.873 252.544L202.212 251.045L202.242 249.601L200.452 249.025L200.372 248.012L201.46 247.466L204.096 248.118L205.886 246.443L207.555 247.737Z" fill="#CCCCCC" stroke="white" stroke-width="0.5"/>
<path d="M151.795 1.94236L153.108 1.95739L153.569 2.93985L154.622 2.69424L154.958 3.3609L156.356 3.61654L156.346 4.21805L157.875 4.86466L157.619 5.45113L158.01 5.73684L158.637 5.43609L160.918 6.73935L163.188 6.54386L163.464 7.09524L164.812 7.00501L165.379 7.47118L165.68 8.05263L168.071 12.218L168.943 11.6767L169.193 12.614L170.246 13.2055L171.178 13.2456L171.614 12.7143L172.231 12.7494L173.645 14.1429L174.171 14.2782L175.128 15.1855L174.983 17.411L174.246 18.3083L173.9 20.188L172.692 20.3684L172.432 18.4737L171.695 19.4311L171.419 18.7343L170.853 19.2155L170.577 18.7945L170.517 19.2005L170.326 19.2456L169.795 19.2005L168.512 18.8246L168.797 17.406L167.063 18.7043L165.975 17.6867L165.198 18.3634L164.186 17.7769L163.128 18.8697L161.985 18.7293L159.71 16.99L158.767 18.2782L157.289 18.198L157.198 18.7293L155.845 18.0927L154.281 18.1228L153.95 17.1855L153.143 18.1378L152.672 17.8221L152.081 18.188L151.469 17.4912L149.569 17.4812L147.96 14.8195L145.86 13.7168L146.757 11.807L144.858 9.46616L143.795 4.8396L144.722 3.09023L146.186 3.09524L147.795 1.92732L148.401 2.19298L148.682 1.25063L149.324 1.54135L149.715 1.15038L150.236 2.00752L151.218 1L151.795 1.94236Z" fill="#CCCCCC" stroke="white" stroke-width="0.5"/>
<path d="M138.818 44.0275L139.981 46.4335L139.615 47.5864L140.067 49.396L141.33 49.9774L142.919 53.6516L141.38 54.4486L141.124 56.9097L138.347 56.1178L138.428 56.6491L137.806 57.2757L136.187 57.8371L135.224 59.2055L132.478 60.624L131.886 62.6842L130.648 62.9097L130.192 65.8872L128.407 69.6817L127.355 70.5538H125.48L125.661 68.8997L123.796 67.0601L121.465 66.2882L119.169 64.8596L118.738 62.9498L119.545 61.3258L120.292 60.8396L120.803 61.6115L122.132 61.5564L122.753 62.4335L123.646 61.7418L124.006 60.233L121.29 58.4386L122.337 57.1453L121.445 54.1328L122.317 52.4586L128.152 48.624L133.174 46.3483L134.718 45.1153L136.473 44.9348L136.823 43.9824L138.818 44.0275Z" fill="#CCCCCC" stroke="white" stroke-width="0.5"/>
</svg>
