<svg width="307" height="302" viewBox="0 0 307 302" fill="none" xmlns="http://www.w3.org/2000/svg">
<path d="M248.475 107.94L250.252 107.062L249.759 105.762L250.458 105.161L250.088 104.858L250.771 102.305L251.978 101.611L253.612 98.8061L253.242 97.6656L256.222 92.3946L255.811 91.4545L254.465 91.66L253.591 91.0486L254.28 90.242L253.782 89.5793L254.47 87.139L253.884 86.204L254.83 86.389L253.36 85.5361L255.497 85.4334L256.633 84.6371L258.472 81.1745L257.64 81.0974L257.147 80.1419L258.688 77.717L257.285 76.4069L257.516 75.9446L255.241 75.1996L254.665 76.597L253.638 77.1621L253.869 76.2939L253.078 76.1501L253.057 75.2407L253.997 74.6448L253.047 74.7578L253.006 74.2544L251.002 73.643L250.771 72.3535L251.511 72.3586L251.763 71.4493L252.656 71.6137L253.407 68.074L254.064 67.6836L254.665 70.0006L258.251 71.0383L258.179 71.6291L258.929 72.0247L261.621 71.213L263.43 72.3792L264.318 71.5829L265.562 68.4542L267.596 68.3566L267.658 68.7779L268.911 68.0535L270.453 69.1015L271.891 68.3104L275.287 70.5143L278.261 71.2901L276.484 73.2834L275.215 76.5816L272.708 78.0406L272.538 79.176L269.877 81.7807L269.045 83.6147L269.173 85.8444L268.372 86.6304L267.606 89.7026L267.868 91.8552L266.769 92.6669L266.199 95.2253L264.288 98.4516L264.133 101.205L265.259 103.183L263.856 106.132L263.281 109.297L263.671 110.735L262.895 111.886L264.596 114.819L264.421 115.724L262.623 116.864L263.296 117.229L262.592 117.46L262.88 118.164L262.397 118.657L261.179 118.251L260.953 118.719L261.693 119.012L260.219 120.234L258.986 119.947L257.167 120.573L256.931 120.008L255.605 119.864L256.283 118.287L254.804 118.005L255.03 117.321L253.812 115.174L252.091 114.881L252.954 112.687L252.754 111.074L250.694 109.554L249.117 109.189L248.475 107.94Z" fill="#CCCCCC" stroke="white" stroke-width="0.5"/>
<path d="M116.118 173.505L116.617 174.168L118.06 173.947L119.211 174.805L118.713 176.315L120.002 177.615L121.215 176.161L121.821 176.819L124.4 176.526L125.833 178.945L126.486 178.437L127.564 179.105L126.594 180.62L130.277 181.905L129.486 182.845L130.935 183.549L129.671 185.239L129.065 185.27L128.864 186.765L129.943 187.314L128.875 188.82L130.179 189.292L129.563 189.97L129.455 189.981L130.585 190.967L132.794 191.214L132.07 191.81L133.565 194.383L132.758 194.846L132.846 195.2L133.447 197.507L132.83 197.687L133.426 198.642L131.757 199.711L131.844 200.687L130.4 201.139L130.775 202.809L128.818 204.494L127.21 204.905L127.338 205.83L126.08 207.186L126.285 207.787L124.39 208.871L123.67 208.66L124.426 209.77L124.436 211.594L125.242 212.128L125.366 213.942L123.028 214.06L122.802 214.548L122.355 213.392L121.841 213.479L121.266 215.586L123.002 216.644L122.062 219.12L120.927 219.315L121.61 219.582L121.795 220.682L121.112 221.016L119.555 220.512L119.745 221.473L118.862 221.581L118.487 222.932L116.858 224.037L115.348 222.382L114.557 223.127L112.532 223.102L112.132 223.908L109.404 224.489L109.101 225.044L107.616 224.119L106.778 224.324L106.028 225.573L105.397 224.72L103.876 225.912L104.313 227.232L103.948 227.838L102.242 226.867L102.833 226.133L101.913 225.239L100.644 226.888L98.8617 226.569L97.5825 227.797L98.7178 228.66L98.2452 228.974L98.5689 230.381L97.865 230.433L98.5432 232.518L97.3667 233.402L97.5311 234.943L96.6834 235.288L96.7297 236.012L97.4181 236.089L97.603 237.06L98.9131 236.659L100.634 237.081L100.696 238.211L101.276 238.072L102.299 240.297L101.287 240.559L101.256 242.084L102.674 241.077L102.612 243.215L103.321 243.975L101.703 245.285L102.319 246.189L101.636 247.705L101.127 247.581L101.24 248.922L100.182 248.835L99.5707 250.325L98.5689 250.751L98.8463 252.565L97.1252 252.991L96.5447 253.916L96.6886 255.986L95.7022 256.469L96.0053 258.437L94.2688 259.901L93.2414 260.004L91.8851 259.079L90.909 260.512L88.2118 257.409L87.0662 257.065L86.5935 254.99L82.5555 255.416L78.9079 253.361L78.312 253.829L77.8548 253.037L76.4677 252.457L75.7484 252.796L74.7569 252.072L75.5737 250.618L74.012 251.311L73.8065 253.233L71.9724 252.719L71.2686 251.496L72.5221 250.35L73.2157 248.558L73.077 246.554L69.9534 245.506L69.3626 245.67L69.0749 246.795L68.3916 246.729L68.0526 245.121L65.8126 245.429L65.638 244.432L64.5848 243.836L64.5488 243.153L67.133 242.716L68.5663 241.406L71.844 235.118L75.0343 218.514L75.8871 208.629L77.2331 205.203L81.2763 205.886L80.9835 204.607L79.884 204.088L80.6444 204.078L77.7983 201.704L76.406 204.175L76.1029 206.513L75.7792 205.979L78.0089 180.605L79.3395 178.154L80.0536 177.63L80.5057 178.766L79.6837 178.909L80.2231 178.945L79.9354 179.511L85.5301 184.525L87.9652 192.703L89.9945 194.681L88.4276 191.049L87.4309 185.085L89.9842 185.3L90.1589 184.52L90.6367 186.035L93.6215 186.58L94.1147 189.359L94.1404 189.493L94.5206 190.648L94.9573 189.852L95.4967 189.955L96.0053 190.813L96.7297 190.669L97.1869 191.506L98.6357 192.123L99.6426 192.267L100.829 191.301L101.764 191.994L101.918 190.746L102.792 190.361L102.299 190.001L102.879 188.861L103.896 188.121L105.581 188.753L106.445 187.099L108.381 185.999L107.981 183.811L108.592 182.059L109.465 181.766L109.152 181.083L109.753 181.607L110.822 180.281L111.911 180.276L112.281 179.13L113.462 178.288L113.601 175.822L114.762 175.806L116.118 173.505ZM101.071 245.131L100.947 243.297L100.747 243.199L100.829 244.304L100.208 244.555L100.721 245.049L101.071 245.131ZM100.254 245.064L100.105 245.177L99.6888 246.169L100.09 247.068L100.978 246.431L100.449 245.136L100.326 245.054L100.254 245.064Z" fill="#CCCCCC" stroke="white" stroke-width="0.5"/>
<path d="M151.316 151.752L151.697 150.196L152.226 150.19L153.027 148.767L155.719 148.274L156.777 148.69L158.442 147.632L158.211 146.358L157.415 145.916L158.041 144.971L157.492 144.359L158.237 143.974L158.725 144.37L158.648 143.388L160.297 142.51L160.6 141.683L161.566 142.561L162.367 142.006L163.384 142.289L164.972 140.203L167.33 140.142L167.9 141.498L170.921 143.815L172.4 142.556L174.06 143.579L174.748 142.69L175.632 142.649L176.402 144.585L178.622 143.424L178.339 142.376L179.392 142.33L179.218 141.169L179.993 141.385L180.281 142.87L182.377 146.122L182.495 148.084L183.852 148.701L184.566 148.31L185.208 149.646L186.934 149.497L187.992 150.458L187.489 152.41L187.674 154.557L188.095 154.598L186.857 154.778L185.845 156.186L185.706 156.222L185.521 156.247L183.045 157.316L183.913 159.659L183.579 161.226L184.186 161.94L183.841 163.019L184.391 164.678L183.466 165.469L181.627 165.582L181.458 166.789L182.773 168.135L181.941 168.618L182.09 170.345L181.375 171.028L183.333 173.042L183.256 174.064L184.252 175.883L186.6 177.506L187.689 180.003L187.232 181.816L185.65 183.055L185.973 184.899L186.903 183.63L187.705 183.753L188.398 185.084L188.45 184.436L189.529 184.842L189.744 184.164L191.291 183.964L191.101 183.388L191.82 183.121L192.981 183.229L193.813 184.169L195.144 183.861L195.842 184.827L195.077 185.387L195.914 185.88L195.452 186.692L196.228 187.252L197.296 186.692L198.463 188.259L197.543 190.139L197.754 191.398L197.291 191.67L197.019 190.874L195.971 190.648L196.505 191.547V191.819L195.92 191.778L195.396 192.677L196.099 193.879L194.322 194.398L194.692 195.79L192.796 196.088L191.337 198.796L188.737 198.816L188.604 199.977L188.003 200.388L187.628 199.998L187.751 200.64L186.919 200.178L186.369 201.924L185.044 202.654L184.494 202.546L184.648 201.816L183.934 202.042L182.901 200.958L182.521 199.839L180.882 200.121L181.026 199.284L180.101 198.544L179.326 198.708L179.218 200.198L176.86 200.696L175.555 198.03L175.519 196.725L174.579 195.723L172.755 197.172L171.82 196.91L171.697 198.349L170.756 199.104L169.467 197.871L168.994 199.006H168.871L168.773 199.967L168.208 199.849L167.648 200.974L167.499 203.501L166.277 205.634L165.316 204.57L164.782 202.135L165.326 201.755L164.972 201.169L164.283 201.298L163.672 198.749L161.822 199.304L161.853 197.619L161.057 196.741L158.237 199.607L158.144 201.22L157.065 202.376L157.286 203.373L155.991 204.303L155.658 205.449L152.852 205.752L152.303 204.858L151.63 204.919L149.96 205.464L149.693 206.43L148.974 205.808L148.722 204.103L148.1 204.072L148.994 201.323L147.278 198.78L147.53 197.373L146.646 195.713L147.494 195.492L147.674 195.538L148.383 194.948L147.438 193.186L149.025 192.518L149.164 190.863L150.289 190.005L149.616 189.528L149.472 188.31L153.007 184.827L152.77 182.551L155.586 183.82L156.603 183.152L155.735 182.33L156.382 178.23L155.18 176.962L155.709 175.6L156.469 175.559L156.51 173.489L153.623 169.98L155.077 168.731L155.169 168.711L155.848 168.803L157.214 167.283L157.379 165.967L158.385 165.5L158.175 163.573L157.075 162.006L157.409 159.885L155.627 156.052L154.543 155.559L154.327 155.96L153.608 154.47L153.12 155.122L151.784 154.11L152.457 153.216L151.465 152.934L151.316 151.752Z" fill="#CCCCCC" stroke="white" stroke-width="0.5"/>
<path d="M208.059 106.512L207.263 104.781L206.543 104.889L206.353 105.567L205.737 105.171L206.456 104.17L206.035 103.527L204.735 103.471L205.259 102.639L204.915 102.089L202.932 101.519L200.343 101.354L199.433 102.073L199.829 103.296L194.707 103.512L194.244 104.668L193.217 104.503L192.827 103.173L192.154 103.322L192.313 104.144L191.563 103.568L191.296 103.712L190.345 104.637L189.277 104.01L188.948 104.663L188.09 104.113L185.752 104.534L186.148 102.931L185.747 102.238L185.439 102.962L184.833 102.829L184.566 102.166L185.264 101.811L184.206 100.887L183.543 98.5389L182.444 98.0714L182.629 97.0079L181.904 96.7408L182.084 97.3162L180.897 97.8299L180.111 96.2373L179.012 96.4069L179.916 95.0968L179.474 94.8759L179.865 93.72L178.976 93.2319L179.187 92.7028L177.404 90.5913L176.608 90.2779L175.791 90.843L175.493 89.831L174.671 89.5176L174.435 90.4012L173.818 90.4834L169.657 90.3909L168.866 91.1513L167.669 90.8173L166.985 92.5538L167.669 94.3211L166.754 95.6876L165.326 96.4377L165.321 97.085L167.294 98.0354L167.006 98.5851L167.427 98.5543L167.725 99.9466L169.323 101.329L168.783 101.657L169.395 103.142L168.686 103.969L168.557 104.077L166.862 105.259L166.574 106.492L167.36 107.046L167.206 109.04L163.502 109.975L163.42 111.254L164.072 111.146L165.09 112.364L165.67 113.525L165.31 114.984L166.163 115.914L163.692 116.618V116.504L163.425 116.9L165.187 120.044L163.841 123.173L166.271 125.577L167.314 129.975L167.042 131.752L168.321 133.016L168.357 135.138L167.715 136.638L168.136 138.374L167.329 140.142L167.9 141.498L170.921 143.815L172.4 142.556L174.06 143.579L174.748 142.69L175.632 142.649L176.402 144.586L178.622 143.425L178.339 142.377L179.392 142.33L179.218 141.169L179.993 141.385L180.281 142.87L182.377 146.122L182.495 148.084L183.851 148.701L184.566 148.31L185.208 149.646L186.934 149.497L187.992 150.458L187.489 152.41L187.674 154.557L188.095 154.598L186.857 154.778L185.845 156.186L185.66 158.077L187.417 158.436L187.771 159.464L190.191 158.554L191.799 159.32L192.426 158.688L192.811 159.202L193.422 158.899L193.325 159.792L193.869 159.859L195.945 158.95L196.649 155.575L197.779 155.534L198.745 156.443L200.122 155.631L201.185 156.504L201.591 155.415L202.5 155.256L203.153 156.104L202.49 156.71L203.697 157.496L203.343 158.683L204.17 159.371L204.632 159.248L208.069 148.706L208.275 149.256L208.989 148.824L210.54 149.769L212.883 149.158L212.909 148.69L213.72 149.107L214.352 150.576L216.027 150.936L216.228 150.417L218.216 149.99L218.298 149.204L216.983 148.67L216.957 147.355L217.938 146.754L217.758 145.865L218.729 145.022L217.743 143.558L217.687 142.212L217.003 142.171L217.656 140.912L216.294 139.515L219.248 138.734L217.902 137.866L217.83 137.121L216.341 137.275L215.59 135.652L214.953 135.991L214.748 134.45L216.109 133.366L215.195 132.934L215.375 132.235L217.532 131.203L218.688 129.256L218.678 129.096L219.726 124.755L220.394 124.298L219.402 123.882H219.331L219.89 123.111L219.644 121.472L219.562 121.421L218.678 121.483H218.544L218.683 119.664L217.152 119.222L218.031 118.821L217.594 118.698L217.841 118.138L218.894 118.179L219.932 116.361L218.74 114.008L217.748 115.123L217.27 114.794L216.906 115.236L215.873 114.655L214.702 115.688L214.866 114.254L213.037 113.309L213.145 112.42L211.845 113.489L210.484 112.8L210.638 111.948L209.96 112.04L209.944 111.465L208.66 112.235L208.455 109.831L207.53 109.667L209.164 108.372L208.342 106.512H208.059Z" fill="#CCCCCC" stroke="white" stroke-width="0.5"/>
<path d="M33.4118 121.642L34.0488 122.408L35.3434 122.377L35.7185 123.471L37.383 123.944L37.0953 124.817L33.6121 124.304L33.083 122.752L33.4118 121.642ZM33.9049 74.4705L34.0128 75.6161L36.8744 74.4551V76.0169L38.4464 75.9192L38.6108 76.6744L37.7683 77.3064L40.2188 78.0975L39.8644 79.2175L42.5975 81.5396L42.4947 83.2606L44.8014 84.5296L44.2312 85.5314L44.8322 85.2796L45.6594 86.7181L45.4744 85.2796L46.6509 85.6187L48.2024 83.1168L49.9286 82.3821L49.6101 81.6578L50.7043 81.4112L51.0742 82.1664L53.2371 80.2552L53.982 80.9077L52.8415 82.4643L53.3347 82.788L54.84 81.6834L55.5386 83.5278L55.2458 84.7145L55.8469 82.7623L56.2065 83.8771L56.8179 82.5311L57.3727 83.0911L56.787 82.0379L59.0167 81.8632L59.2427 83.1219L60.0955 83.6768L59.7102 84.0261L60.6093 84.92L60.3421 86.4818L60.7788 85.4954L61.3388 85.6855L60.3113 83.6357L61.1487 84.0826L60.861 83.3993L59.7565 83.1682L60.0801 82.6236L59.3198 82.002L60.2086 80.4299L63.3681 79.5L63.5325 80.5583L62.8338 81.8889L64.7603 82.9832L69.1477 82.0071L70.9252 86.677L72.3586 87.5812L73.7971 87.3243L75.9342 84.9149L79.8541 86.0605L79.6178 89.0659L80.3832 91.8144L79.1913 93.818L79.6691 95.8268L79.7565 95.909L80.9946 102.207L78.0406 103.425L76.0883 109.395L73.6018 108.681L73.0727 107.761L71.141 107.535L71.2643 108.557L68.0842 109.806L67.2777 111.511L63.0085 111.542L60.9843 112.719L60.5939 112.01L58.2769 113.397L57.9275 117.085L56.6637 117.44L56.5302 118.442L56.0729 117.722L54.7937 118.293L53.6481 117.609L53.2473 119.346L51.4492 119.495L50.9869 118.842L50.2522 119.752L49.4508 119.69L49.3172 118.365L50.6118 118.169L49.1477 117.353L42.6232 118.55L40.5785 116.443L39.4739 116.438L38.9088 115.611L38.5851 116.027L38.1536 115.215L38.2563 116.001L36.0524 115.935L35.9548 117.692L36.9823 119.11L35.8829 118.971L35.215 117.204L35.8007 116.716L35.4924 115.113L32.5795 112.277L30.992 112.256L30.879 111.47L29.009 111.943L27.4369 109.795L24.2003 109.405L23.1626 108.491L20.45 108.943L19.4431 107.556L19.8798 106.79L19.2633 107.062L18.5029 105.403L17.5885 106.009L17.8967 106.924L16.4737 107.294L15.102 106.389L14.2337 106.857L13.2782 108.768L9.52272 108.773L9.72308 105.87L8.38221 103.502L6.47109 102.141L5.22783 102.31L3.87669 101.396L1.64704 101.067L2.28922 100.923L2.12483 100.255L8.47982 98.9041L10.8584 99.4692L11.665 98.1746L10.6324 95.8114L7.47802 94.6914L6.72796 94.9072L5.44874 96.8799L5.16618 94.8301L5.78267 94.3626L4.11301 94.1931L3.96916 93.3865L5.21756 93.3043L5.18159 91.7528L6.01899 91.424L5.52066 92.6364L5.95735 93.2324L6.72282 92.359L6.65603 93.3351L7.74003 92.8317L8.88054 93.5303L10.8225 92.7906L11.814 93.3557L12.6463 92.2819L12.0914 92.7443L10.1803 92.2409L10.915 91.7425L10.2985 91.4497L10.5862 90.7253L9.41483 91.8812L8.48496 91.9326L8.90623 91.3675L7.60646 91.871L8.84458 90.0574L8.34111 89.6567L4.42126 91.4959L2.8492 90.9514L2.28409 91.7168L0.891843 91.7836L0.516811 90.7613L1.12817 90.0883L0.414062 89.0967L1.14358 87.3706L0.804507 85.8242L1.80631 84.5193L4.35447 83.8668L4.45208 82.9781L5.35113 83.1784L5.80836 81.9249L6.72796 82.4335L8.81375 81.9146L8.05855 81.3598L9.99022 80.6303L11.0588 81.0361L11.0639 82.0328L13.2114 81.4471L12.6309 81.2262L13.4015 80.3169L15.2458 80.0446L16.114 80.6611L16.2425 79.7055L17.2134 79.012L17.347 79.5206L18.0046 79.0171L17.9686 80.733L18.8266 81.0978L18.955 79.9367L18.9961 80.733L20.6452 81.1697L20.4552 80.2347L20.9586 79.4281L21.1898 79.8699L21.1282 79.274L24.1901 80.3426L24.9555 80.0292L24.6422 81.2262L25.3974 80.3426L26.2759 80.8563L26.2399 79.1045L26.9848 78.4366L26.2194 78.0461L26.5944 76.8183L26.168 76.4638L26.8564 76.9313L27.9301 75.3901L28.2075 76.0014L28.4387 75.4466L28.8908 76.1556L29.5535 75.986L29.2813 76.7207L30.1906 76.6539L31.8551 75.4209L33.0675 75.5494L33.9049 74.4705Z" fill="#CCCCCC" stroke="white" stroke-width="0.5"/>
<path d="M134.706 72.1328L136.027 73.7511L135.657 74.4036L136.777 75.4002L136.417 77.933L137.383 78.3953L136.319 79.8133L137.069 80.2654L136.854 81.0308L138.215 82.6697L139.258 82.6594L139.13 83.8615L140.794 84.6168L140.553 85.9114L141.102 87.4064L142.556 88.2489L143.846 87.7146L143.794 89.3483L144.853 89.4922L145.079 90.7097L144.431 92.4051L144.745 93.1038L148.819 92.7698L148.567 92.2099L149.199 92.3589L149.661 91.3108L150.571 91.7013L150.56 92.7698L151.701 92.328L151.814 92.1174L152.322 91.6653L152.99 92.4719L153.956 92.2201L154.372 94.008L156.366 95.0868L156.376 96.9569L155.641 97.0339L154.799 98.3337L157.265 97.7891L160.383 98.3491L161.421 97.6504L161.041 96.9671L161.606 97.3935L162.376 96.9055L162.813 98.1436L163.81 97.3062L165.32 97.0853L167.293 98.0357L167.005 98.5854L167.426 98.5546L167.724 99.9468L169.322 101.329L168.783 101.658L169.394 103.142L168.685 103.969L168.557 104.077L166.861 105.259L166.574 106.492L167.36 107.047L167.206 109.04L163.501 109.975L163.419 111.254L164.072 111.146L165.089 112.364L165.669 113.525L165.31 114.984L166.163 115.914L163.692 116.618V116.505L163.424 116.9L165.187 120.044L163.841 123.173L166.271 125.577L167.313 129.975L167.041 131.753L168.32 133.016L168.356 135.138L167.714 136.638L168.135 138.375L167.329 140.142L164.971 140.204L163.383 142.289L162.366 142.007L161.565 142.562L160.599 141.683L160.296 142.51L158.647 143.389L158.724 144.37L158.236 143.975L157.491 144.36L158.04 144.971L157.414 145.917L158.21 146.358L158.441 147.632L156.777 148.691L155.718 148.275L153.026 148.768L152.225 150.191L151.696 150.196L151.316 151.753L149.528 151.485L147.221 152.056L144.883 151.033L141.904 151.568L140.707 150.617L139.952 150.812L140.219 151.578L139.556 152.662L138.631 151.794L137.414 152.729L137.008 151.701L135.631 152.59L135.225 151.537L132.867 154.023L131.557 152.369L130.689 152.518L130.483 153.242L128.67 153.417L128.469 152.667L127.807 152.826L128.197 152.307L128.526 151.321L127.221 150.864L127.082 149.055L125.988 148.146L124.426 148.162L124.313 147.211L122.099 146.153L121.714 145.279L122.464 143.276L122.15 142.259L120.07 140.327L119.669 138.447L117.712 136.782L117.439 134.583L115.862 133.53L114.799 133.576L115.451 135.102L113.473 135.051L112.045 135.965L110.483 135.344L109.594 135.929L108.906 134.059L109.363 133.813L109.158 132.164L108.418 132.431L107.925 131.527L106.502 131.917L106.964 130.9L106.574 130.16L106.152 130.602L105.572 130.407L105.685 129.852L104.406 130.037L103.846 128.634L104.334 124.956L106.574 121.817L105.947 121.262L107.411 118.092L107.509 117.239L106.825 116.864L107.673 115.056L107.647 114.789L110.879 115.888L111.29 115.626L110.468 114.332L110.869 113.576L112.276 114.347L112.59 113.535L115.405 112.683L115.893 112.015L115.4 112.164L115.184 111.234L116.057 110.16L117.655 109.682L117.46 109.169L119.083 107.622L118.909 105.454L119.53 105.1L119.987 105.845L120.075 104.457L120.789 104.206L120.142 102.747L120.645 101.36L119.684 101.123L119.607 100.06L120.66 99.9828L120.707 99.279L120.029 99.13L120.619 98.9913L120.83 98.0511L122.212 97.8765L119.695 96.1092L120.388 95.4927L119.489 93.9823L119.874 93.0832L118.79 92.7442L119.104 92.0146L122.176 90.4015L123.496 88.2335L122.644 87.0724L123.296 85.562L120.152 82.721L120.08 80.8562L121.107 80.2859L121.38 79.392L123.779 79.0735H124.221L125.366 78.01L126.476 78.3902L126.61 77.0082L128.762 78.0203L131.105 77.9176L131.958 77.2754L131.737 75.5543L133.833 74.3419L133.571 72.6722L134.706 72.1328Z" fill="#CCCCCC" stroke="white" stroke-width="0.5"/>
<path d="M205.809 32.3332L207.104 32.9138L206.493 33.4789L206.585 34.5321L206.138 34.08L205.475 35.2924L205.927 36.1863L204.828 38.4776L206.934 40.435L206.056 41.8478L206.647 43.3993L206.153 44.2778L209.221 44.0466L211.332 45.2744L212.868 47.5606L215.093 47.4784L216.397 48.8552L216.022 50.2577L216.747 49.6104L217.769 50.0831L214.923 52.5336L214.337 51.6294L212.817 51.8401L212.385 50.9307L211.728 50.8794L211.25 52.5131L211.214 52.7083L210.587 53.8796L211.697 55.277L211.784 56.5357L210.967 57.0854L211.481 57.8817L210.474 58.2362L209.858 60.1113L210.525 60.6353L210.402 61.2775L208.28 62.4848L209.154 63.3993L208.029 64.1853L209.416 67.9613L208.583 69.4923L209.508 69.035L210.099 69.4255L210.053 70.4118L209.205 70.715L210.166 71.0386L209.673 72.1586L208.008 72.847L207.916 72.9395L207.458 74.455L207.993 75.2873L206.996 76.7052L209.544 78.5341L209.313 82.6081L210.556 82.0635L210.854 83.2349L211.877 83.2503L213.854 85.408L216.331 86.0091L219.326 88.7781L217.713 89.8005L218.745 90.1807L218.422 91.7168L219.542 90.9205L220.507 91.1876L221.879 93.5508L222.362 92.9806L223.261 93.746L222.999 94.5834L223.98 94.83L224.885 95.986L223.836 96.5819L223.626 98.8475L222.717 99.577L224.181 99.8544L224.725 100.897L225.891 101.226L226.123 103.795L227.392 103.06L228.198 104.637L228.188 105.454L227.469 105.254L226.857 106.374L226.986 106.97L225.552 106.739L225.147 107.987L224.068 107.961L223.749 109.282L224.448 110.304L224.063 112.266L222.059 112.662L221.432 111.547L220.538 112.636L218.083 112.59L217.271 114.794L216.906 115.236L215.873 114.655L214.702 115.688L214.867 114.255L213.038 113.309L213.146 112.421L211.846 113.489L210.484 112.801L210.638 111.948L209.96 112.04L209.945 111.465L208.661 112.236L208.455 109.831L207.53 109.667L209.164 108.372L208.342 106.513H208.059L207.263 104.781L206.544 104.889L206.354 105.567L205.737 105.172L206.457 104.17L206.035 103.528L204.736 103.471L205.26 102.639L204.915 102.089L202.932 101.519L200.343 101.355L199.434 102.074L199.829 103.297L194.707 103.512L194.245 104.668L193.217 104.504L192.827 103.173L192.154 103.322L192.313 104.144L191.563 103.569L191.296 103.713L190.346 104.637L189.277 104.011L188.948 104.663L188.09 104.113L185.753 104.535L186.148 102.932L185.748 102.238L185.439 102.963L184.833 102.829L184.566 102.166L185.265 101.812L184.206 100.887L183.544 98.5393L182.444 98.0717L182.629 97.0083L181.905 96.7412L182.085 97.3165L180.898 97.8303L180.112 96.2377L179.012 96.4072L179.917 95.0972L179.475 94.8763L179.865 93.7203L178.976 93.2323L179.187 92.7031L177.404 90.5917L176.608 90.2783L175.791 90.8434L175.493 89.8313L174.82 86.9492L175.981 86.605L175.314 85.4029L176.901 84.961L176.557 84.0363L177.605 83.4147L177.343 82.9369L178.581 82.5567L177.744 82.0327L178.041 81.6012L176.269 81.9608L176.634 78.6523L175.062 77.9998L176.105 76.9723L175.252 76.3815L177.04 76.212L176.999 74.979L177.913 73.0422L178.817 72.96L178.889 72.1586L179.516 72.0455L179.239 71.4856L181.109 69.7388L180.533 68.7987L179.136 68.9991L179.172 68.2439L180.266 67.6942L179.47 66.3173L179.927 65.3155L181.694 65.5827L182.619 65.0432L182.634 64.3189L181.905 64.4576L181.566 63.4815L181.211 63.8L180.605 63.2862L181.124 62.5721L180.42 60.0034L183.251 58.606L184.818 58.9811L184.91 57.8252L186.364 56.9569L187.13 57.9176L188.774 58.4776L188.804 55.9243L189.457 55.688L188.876 53.6793L189.688 53.0987L189.056 52.4309L189.657 51.5678L188.496 49.8981L188.871 49.3792L190.448 49.5333L190.69 48.0538L191.943 47.3654L193.325 45.4542L192.39 44.699L193.397 41.7861L193.449 40.6096L192.637 40.286L192.945 38.7961L194.605 38.4519L197.512 39.5L200.744 37.8714L202.763 37.5786L202.49 35.241L202.963 34.2855L205.568 31.8555L205.809 32.3332Z" fill="#CCCCCC" stroke="white" stroke-width="0.5"/>
<path d="M289.842 294.511L290.464 293.134L291.918 292.985L292.837 291.824L290.623 291.069L289.97 291.48L289.827 290.304L288.378 290.863L288.326 290.36L287.35 290.324L288.881 289.297L288.486 288.562L289.76 288.295L290.012 287.699L289.313 287.339L290.114 287.185L289.904 286.26L290.428 285.901L289.256 284.817L288.635 285.536L286.261 285.942L286.59 284.765L285.938 283.902L287.129 283.805L287.381 282.551L289.241 281.488L288.229 279.695L287.361 280.034L286.354 279.053L285.686 279.243L285.778 278.57L285.188 278.739L285.953 278.092L285.259 277.999L285.686 277.018L284.812 276.104L288.116 275.261L287.381 274.234L286.189 274.141L286.415 272.872L285.09 273.329L284.915 272.143L286.287 271.819L286.215 270.961L287.273 270.992L287.129 270.211L287.802 269.446L287.14 269.168L287.52 268.1L288.666 267.822L288.368 266.548L288.784 266.111L288.82 266.784L289.411 266.492L290.13 267.005L290.412 265.598L291.794 265.428L293.186 264.324L294.954 264.478L295.92 263.897L295.863 262.88L297.291 261.863L299.362 261.755L301.001 263.45L301.982 261.734L301.93 260.029L301.227 258.924L301.884 257.979L301.494 256.987L302.331 256.289L301.879 254.259L303.651 253.756L304.515 254.48L305.141 259.69L304.139 263.502L305.989 267.17L306.544 277.316L306.343 279.952L303.415 284.241L302.876 293.006L301.936 293.386L302.203 293.823L301.211 293.489L300.584 294.403L300.774 295.009L301.427 294.157L302.516 294.46L301.966 295.461L300.482 296.273L300.584 298.153L299.403 298.77L299.105 299.597L300.307 299.176L300.179 299.592L299.357 300.933L298.478 301L297.99 300.203L296.634 300.152L297.214 298.919L296.135 298.734L296.336 297.691L295.483 298.385L294.61 297.439L294.286 297.897L292.94 297.465L292 296.468L291.286 296.653L291.522 295.826L290.104 295.575L290.469 295.03L289.842 294.511Z" fill="#CCCCCC" stroke="white" stroke-width="0.5"/>
<path d="M228.196 104.637L229.228 103.003L229.809 103.296L229.121 104.252L229.583 104.324L230.718 103.671L231.51 102.176L233.544 101.673L233.595 101.709L233.832 103.353L235.013 104.283V104.447L238.959 103.538L239.94 104.139L240.854 105.921L243.521 104.005L244.435 105.341L248.473 107.941L249.115 109.189L250.693 109.554L252.753 111.074L252.953 112.687L252.09 114.881L253.811 115.174L255.029 117.321L254.803 118.005L251.612 118.287L252.013 119.561L250.698 120.214L249.393 122.731L252.321 122.099L253.015 122.433L253.159 123.327L252.193 123.615L251.9 124.555L250.759 124.791L251.021 126.189L248.591 128.408L248.966 128.629L248.54 129.122L245.637 131.213L245.987 132.184L243.896 133.992L241.24 134.573L239.853 136.011L240.541 137.229L239.832 139.613L240.289 140.769L232.999 146.913L233.986 147.884L232.193 150.432L232.023 151.871L227.862 156.53L224.785 156.648L224.538 155.159L223.105 154.701L223.028 154.069L220.808 156.412L219.416 156.541L219.452 154.963L218.635 154.969L218.363 153.967L217.926 155.117L217.022 153.278L217.356 152.908L215.697 151.958L216.025 150.936L216.226 150.417L218.214 149.99L218.296 149.204L216.981 148.67L216.955 147.355L217.936 146.754L217.757 145.865L218.728 145.022L217.741 143.558L217.685 142.212L217.001 142.171L217.654 140.913L216.292 139.515L219.246 138.734L217.9 137.866L217.829 137.121L216.339 137.275L215.589 135.652L214.952 135.991L214.746 134.45L216.108 133.366L215.193 132.934L215.373 132.235L217.531 131.203L218.686 129.256L218.676 129.096L219.724 124.755L220.392 124.298L219.401 123.882H219.329L219.889 123.111L219.642 121.472L219.56 121.421L218.676 121.483H218.543L218.681 119.664L217.15 119.222L218.029 118.822L217.592 118.698L217.839 118.138L218.892 118.179L219.93 116.361L218.738 114.008L217.746 115.123L217.269 114.794L218.08 112.59L220.536 112.636L221.43 111.547L222.057 112.662L224.06 112.266L224.446 110.304L223.747 109.281L224.065 107.961L225.144 107.987L225.55 106.738L226.983 106.97L226.855 106.374L227.466 105.254L228.186 105.454L228.196 104.637Z" fill="#CCCCCC" stroke="white" stroke-width="0.5"/>
<path d="M139.017 62.6846L139.787 62.9312L139.52 63.8867L139.715 63.8816L140.101 64.5135L141.144 64.195L142.844 64.9296L145.377 64.5032L147.062 63.3833L148.973 64.9039L149.995 64.3902L150.304 65.3047L151.424 65.0272L152.025 64.159L152.96 65.4074L153.33 65.0272L154.717 65.4536L154.593 65.8749L155.143 65.6335L156.078 66.3835L155.79 66.7534L156.684 66.964L157.116 66.1626L157.779 67.6114L158.832 66.6815L160.989 68.2227L162.572 67.0565L163.502 67.9145L165.998 67.2261L166.399 67.8888L166.856 67.2261L168.084 67.4316L168.156 66.3989L169.615 66.7534L170.725 68.5721L170.227 69.7999L172.014 71.0894L172.297 72.1785L173.155 71.86L173.669 73.1752L174.491 72.5176L174.819 74.3414L176.155 74.7164L176.484 75.4511L176.998 74.9784L177.039 76.2114L175.251 76.3809L176.104 76.9718L175.061 77.9992L176.633 78.6517L176.268 81.9602L178.041 81.6006L177.743 82.0321L178.58 82.5561L177.342 82.9363L177.604 83.4141L176.556 84.0357L176.9 84.9604L175.313 85.4023L175.98 86.6044L174.819 86.9486L175.492 89.8307L174.67 89.5173L174.434 90.401L173.818 90.4832L169.656 90.3907L168.865 91.151L167.668 90.8171L166.985 92.5536L167.668 94.3208L166.754 95.6874L165.325 96.4375L165.32 97.0848L163.81 97.3057L162.813 98.1431L162.377 96.905L161.606 97.393L161.041 96.9666L161.421 97.6499L160.383 98.3486L157.265 97.7886L154.799 98.3332L155.641 97.0334L156.376 96.9563L156.366 95.0863L154.372 94.0075L153.956 92.2196L152.99 92.4714L152.323 91.6648L151.814 92.1169L151.701 92.3275L150.56 92.7693L150.571 91.7008L149.661 91.3103L149.199 92.3583L148.567 92.2094L148.819 92.7693L144.745 93.1033L144.432 92.4046L145.079 90.7092L144.853 89.4917L143.795 89.3478L143.846 87.7141L142.556 88.2484L141.102 87.4059L140.553 85.9109L140.794 84.6162L139.13 83.861L139.258 82.6589L138.215 82.6692L136.854 81.0303L137.07 80.2648L136.32 79.8127L137.383 78.3948L136.417 77.9325L136.777 75.3997L135.657 74.403L136.027 73.7506L134.706 72.1323L134.521 71.2641L135.087 70.8942L134.049 70.9815L134.223 69.7434L133.576 68.4642L134.434 68.5566L134.886 67.4264L135.117 67.9504H135.23L137.285 67.4264L139.017 62.6846Z" fill="#CCCCCC" stroke="white" stroke-width="0.5"/>
<path d="M166.276 205.634L167.499 203.507L167.648 200.98L168.208 199.855L168.773 199.973L168.871 199.012H168.994L169.467 197.877L170.751 199.11L171.696 198.354L171.819 196.921L172.754 197.183L174.573 195.734L175.513 196.736L175.549 198.046L176.854 200.707L179.212 200.214L179.315 198.724L180.091 198.56L181.015 199.3L180.877 200.132L182.516 199.855L182.891 200.975L183.923 202.059L184.637 201.833L184.483 202.562L185.033 202.67L185.922 207.145L186.98 207.848L187.74 210.787L189.461 212.775L188.855 213.191L189.02 215.339L190.766 214.815L193.484 216.942L194.958 214.763L196.361 214.522L196.438 216.186L197.342 216.402L197.666 214.763L198.776 214.604L201.848 216.777L202.351 218.411L203.081 218.447L203.384 219.243L203.363 222.377L204.771 222.845L206.009 225.11L205.357 225.141L205.362 225.881L201.683 228.727L202.233 229.369L201.067 232.878L201.391 234.054L199.515 233.417L198.349 233.71L197.08 235.863L198.056 236.202L197.835 236.88L195.102 238.462L194.676 237.892L194.887 238.688L193.14 239.536L192.914 240.692L190.879 239.937L190.54 239.254L190.967 238.591L190.283 237.979L187.406 238.195L182.125 242.449L180.404 242.947L177.476 246.338L177.579 245.829L177.44 246.302L173.767 245.701L173.957 246.317L170.53 249.102L168.434 252.488L167.627 255.144L167.987 256.495L167.309 262.696L167.699 267.422L169.698 268.116L169.461 269.087L170.402 270.453L168.516 270.72L167.545 269.349L165.973 269.569L165.547 269.087L164.92 269.831L163.25 269.76L161.945 271.111L160.99 270.761L159.736 271.321L159.248 271.851L159.675 273.171L157.645 272.662L156.654 273.397L155.626 273.186L154.578 271.655L150.823 270.371L149.641 271.013L148.66 270.787L147.165 272.549L145.696 272.955L144.565 271.974L143.939 269.939L142.798 270.047L141.565 268.953L139.551 268.722L139.752 266.97L140.779 266.436L142.541 266.256L143.214 265.244L144.771 265.192L145.29 263.913L148.83 263.857L149.107 263.338L147.15 261.303L145.429 261.822L143.492 261.113L143.759 260.605L142.331 259.223L142.675 258.38L145.048 257.856L144.915 256.14L143.934 255.77L144.437 255.133L145.48 255.18L144.689 253.849L145.028 253.135L144.093 252.611L144.555 252.102L144.319 250.818L143.528 250.222L142.988 250.741L142.161 249.451L142.156 249.857L140.723 249.693L139.109 248.557L139.449 247.571L138.693 246.153L139.685 244.961L139.397 244.16L141.344 244.17L141.087 242.67L142.166 241.206L143.07 242.567L143.564 241.838L143.687 241.848L145.074 242.192L146.112 241.401L146.862 242.567L148.948 241.961L149.893 242.917L150.037 241.519L150.818 240.692L153.767 241.966L154.522 241.396L158.267 241.535L159.556 240.389L159.69 239.043L158.436 237.558L159.079 234.81L160.666 235.257L161.416 236.156L164.637 234.964L164.982 233.936L166.317 233.376L167.936 233.849L167.997 229.672L171.193 230.289L171.958 229.821L171.66 228.845L172.287 227.91L173.972 227.925L174.28 226.297L176.053 224.833L176.197 224.052L174.928 223.096L174.131 223.338L173.669 222.506L172.909 222.803L172.236 222.064L173.505 221.617L173.782 220.132L174.589 219.798L174.373 218.873L171.008 219.176L171.563 217.974L170.083 217.548L169.893 216.644L169.225 217.024L169.934 215.668L169.194 214.029L169.729 211.799L168.064 209.878L168.47 208.198L166.276 205.634ZM144.221 269.739L145.362 270.042L144.848 268.896L144.221 269.739Z" fill="#CCCCCC" stroke="white" stroke-width="0.5"/>
<path d="M127.807 152.826L128.47 152.667L128.67 153.417L130.483 153.242L130.689 152.518L131.557 152.369L132.867 154.023L135.225 151.537L135.631 152.59L137.008 151.701L137.414 152.729L138.631 151.794L139.556 152.662L140.219 151.578L139.952 150.812L140.707 150.617L141.904 151.568L144.884 151.033L147.221 152.056L149.528 151.485L151.316 151.753L151.465 152.934L152.456 153.217L151.783 154.111L153.119 155.123L153.607 154.47L154.326 155.96L154.542 155.559L155.626 156.053L157.409 159.885L157.075 162.007L158.174 163.574L158.385 165.5L157.378 165.968L157.213 167.283L155.847 168.804L155.169 168.711L155.076 168.732L153.622 169.98L156.51 173.489L156.468 175.559L155.708 175.6L155.179 176.962L156.381 178.231L155.734 182.331L156.602 183.153L155.585 183.82L152.77 182.551L153.006 184.827L149.471 188.31L149.615 189.528L150.288 190.006L149.163 190.864L149.024 192.518L147.437 193.186L148.382 194.948L147.673 195.539L147.493 195.493L146.646 195.714L145.038 195.765L144.231 196.422L143.383 195.662L141.123 197.311L140.024 196.875L137.804 194.131L135.657 194.095L135.492 193.571L133.571 194.383L132.076 191.809L132.8 191.213L130.591 190.967L129.456 189.985L129.564 189.97L130.185 189.292L128.875 188.819L129.944 187.319L128.865 186.764L129.065 185.269L129.672 185.238L130.935 183.548L129.487 182.844L130.273 181.904L126.589 180.62L127.56 179.104L126.481 178.436L125.834 178.945L124.396 176.525L121.817 176.818L121.21 176.16L120.003 177.614L118.708 176.315L119.207 174.804L118.056 173.946L116.612 174.167L116.119 173.504L117.922 171.917L117.856 170.638L119.366 171.023L120.301 168.239L119.982 166.749L121.477 167.021L122.865 165.567L122.392 164.329L121.529 163.646L120.974 164.072L120.039 163.091L120.476 161.688L119.952 160.861L120.743 160.43L119.592 158.128L120.83 157.553L121.93 155.791L124.128 156.047L125.043 153.51L126.779 153.972L127.365 152.677L127.807 152.826Z" fill="#CCCCCC" stroke="white" stroke-width="0.5"/>
<path d="M218.25 50.6019L219.036 51.6859L219.406 53.972L221.194 52.9189L222.365 53.6638L223.023 52.2613L225.232 52.6312L225.813 51.8349L227.179 52.5079L227.852 53.9464L229.933 54.121L230.262 55.5133L231.541 55.6263L232.209 54.9892L232.784 55.4311L233.359 54.1364L235.743 53.4532L238.425 55.2204L239.791 54.681L242.519 56.4791L242.16 57.1007L243.465 58.2978L242.745 58.904L244.939 61.0925L244.744 61.7809L245.355 62.0789L245.494 63.1783L246.095 63.1012L245.838 64.1082L246.414 64.8582L248.479 65.2179L249.044 64.3188L248.535 63.2811L250.673 62.9523L252.702 64.0003L253.072 66.4971L254.089 65.1459L255.322 66.2967L257.218 65.9885L258.24 66.4765L258.928 65.5467L259.704 65.5569L259.755 64.6425L261.456 64.2469L261.266 64.8634L262.509 64.7247L263.239 67.0417L265.443 67.8277L265.561 68.4544L264.318 71.5831L263.429 72.3794L261.62 71.2132L258.928 72.025L258.178 71.6294L258.25 71.0386L254.664 70.0008L254.063 67.6838L253.406 68.0743L252.656 71.614L251.762 71.4496L251.51 72.3589L250.77 72.3538L251.001 73.6432L253.005 74.2546L253.046 74.7581L253.996 74.645L253.056 75.241L253.077 76.1503L253.868 76.2942L253.637 77.1624L254.664 76.5973L255.24 75.1999L257.516 75.9448L257.284 76.4072L258.687 77.7172L257.146 80.1421L257.639 81.0977L258.471 81.1747L256.632 84.6373L255.497 85.4336L253.359 85.5364L254.829 86.3892L253.883 86.2043L254.469 87.1393L253.781 89.5795L254.279 90.2423L253.591 91.0488L254.464 91.6602L255.81 91.4547L256.221 92.3948L253.241 97.6659L253.611 98.8064L251.977 101.611L250.77 102.305L250.087 104.858L250.457 105.161L249.758 105.762L250.251 107.062L248.474 107.941L244.436 105.341L243.521 104.005L240.855 105.922L239.94 104.139L238.959 103.538L235.014 104.447V104.283L233.832 103.353L233.596 101.709L233.544 101.673L231.51 102.177L230.719 103.672L229.583 104.324L229.121 104.252L229.809 103.296L229.229 103.004L228.196 104.637L227.39 103.06L226.121 103.795L225.89 101.226L224.723 100.897L224.179 99.8544L222.715 99.577L223.624 98.8475L223.835 96.5819L224.883 95.9859L223.978 94.83L222.997 94.5834L223.259 93.746L222.36 92.9805L221.877 93.5508L220.506 91.1876L219.54 90.9204L218.42 91.7167L218.743 90.1806L217.711 89.8005L219.324 88.7781L216.329 86.009L213.853 85.408L211.875 83.2502L210.852 83.2348L210.554 82.0635L209.311 82.6081L209.542 78.5341L206.994 76.7052L207.991 75.2872L207.457 74.455L207.914 72.9394L208.006 72.8469L209.671 72.1585L210.164 71.0386L209.203 70.7149L210.051 70.4118L210.097 69.4254L209.506 69.035L208.582 69.4922L209.414 67.9612L208.027 64.1852L209.152 63.3992L208.278 62.4848L210.4 61.2775L210.524 60.6353L209.856 60.1113L210.472 58.2361L211.479 57.8816L210.965 57.0853L211.782 56.5356L211.695 55.2769L210.585 53.8796L211.212 52.7082L211.248 52.513L211.726 50.8793L212.383 50.9307L212.815 51.84L214.336 51.6294L214.921 52.5336L217.767 50.083L218.25 50.6019Z" fill="#CCCCCC" stroke="white" stroke-width="0.5"/>
<path d="M100.32 245.053L100.443 245.136L100.973 246.43L100.084 247.067L99.6831 246.168L100.099 245.177L100.248 245.064L100.32 245.053ZM100.947 243.296L101.07 245.131L100.716 245.043L100.202 244.55L100.824 244.298L100.741 243.194L100.947 243.296ZM133.57 194.383L135.491 193.571L135.655 194.095L137.803 194.131L140.022 196.88L141.122 197.316L143.382 195.667L144.23 196.428L145.041 195.77L146.644 195.719L147.528 197.378L147.276 198.786L148.992 201.324L148.098 204.077L148.725 204.103L148.977 205.809L149.691 206.43L149.963 205.464L151.633 204.92L152.311 204.858L152.855 205.752L155.66 205.449L155.994 204.309L157.289 203.379L157.073 202.382L158.152 201.221L158.239 199.613L161.065 196.746L161.861 197.625L161.831 199.31L163.68 198.755L164.291 201.303L164.98 201.17L165.334 201.755L164.79 202.135L165.329 204.571L166.285 205.629L168.499 208.172L168.093 209.852L169.758 211.773L169.223 214.003L169.963 215.642L169.254 216.998L169.922 216.618L170.112 217.522L171.592 217.948L171.037 219.151L174.402 218.847L174.618 219.772L173.811 220.106L173.534 221.591L172.265 222.038L172.938 222.778L173.698 222.48L174.16 223.312L174.957 223.07L176.226 224.026L176.082 224.807L174.309 226.271L174.001 227.9L172.316 227.884L171.689 228.819L171.987 229.795L171.222 230.263L168.026 229.646L167.965 233.823L166.346 233.35L165.011 233.91L164.666 234.938L161.445 236.13L160.695 235.231L159.108 234.784L158.466 237.532L159.719 239.017L159.585 240.363L158.296 241.509L154.551 241.37L153.796 241.94L150.847 240.666L150.066 241.493L149.922 242.891L148.977 241.935L146.891 242.541L146.141 241.375L145.103 242.166L143.716 241.822L143.593 241.812L143.099 242.541L142.195 241.18L141.116 242.644L141.373 244.144L139.426 244.134L139.714 244.935L138.722 246.127L139.478 247.545L139.139 248.531L140.752 249.667L142.185 249.831L142.19 249.425L143.017 250.715L143.557 250.196L144.348 250.792L144.584 252.076L144.122 252.585L145.057 253.109L144.718 253.823L145.509 255.154L144.466 255.107L143.963 255.744L144.944 256.114L145.077 257.83L142.704 258.354L142.36 259.197L143.788 260.579L143.521 261.087L145.458 261.796L147.179 261.277L149.136 263.312L148.859 263.831L145.319 263.887L144.8 265.166L143.243 265.218L142.57 266.23L140.808 266.41L140.931 266.014L139.508 265.947L139.719 265.177L136.806 264.894L135.768 264.052L134.263 264.17L134.217 265.249L133.359 265.577L131.638 262.218L128.961 261.971L127.656 262.526L125.735 260.219L123.701 260.271L123.197 259.716L122.468 260.193L117.818 258.092L116.765 258.74L117.001 259.726L116.462 260.358L116.924 260.579L116.4 261.17L117.166 261.992L117.114 263.014L115.44 262.593L111.71 263.024L110.379 262.063L108.977 263.528L108.237 262.305L106.459 261.694L102.658 263.199L101.491 262.988L101.24 262.259L100.31 262.017L99.2875 259.931L98.7019 260.25L96.0355 258.442L95.7324 256.474L96.7188 255.991L96.575 253.921L97.1555 252.996L98.8765 252.569L98.5991 250.756L99.6009 250.33L100.212 248.84L101.271 248.927L101.158 247.586L101.666 247.709L102.349 246.194L101.733 245.29L103.351 243.98L102.642 243.219L102.704 241.082L101.286 242.089L101.317 240.563L102.329 240.301L101.307 238.077L100.726 238.216L100.664 237.085L98.9433 236.664L97.6333 237.065L97.4483 236.094L96.7599 236.017L96.7137 235.292L97.5613 234.948L97.3969 233.407L98.5734 232.523L97.8953 230.437L98.5991 230.386L98.2754 228.978L98.7481 228.665L97.6127 227.802L98.8919 226.574L100.675 226.893L101.944 225.244L102.863 226.137L102.272 226.872L103.978 227.843L104.343 227.237L103.906 225.917L105.427 224.725L106.059 225.577L106.809 224.329L107.646 224.124L109.131 225.048L109.434 224.493L112.162 223.913L112.563 223.106L114.587 223.132L115.378 222.387L116.888 224.041L118.517 222.937L118.892 221.586L119.776 221.478L119.585 220.517L121.142 221.021L121.825 220.687L121.64 219.587L120.957 219.32L122.093 219.125L123.033 216.649L121.296 215.59L121.872 213.484L122.385 213.397L122.832 214.553L123.058 214.064L125.396 213.946L125.273 212.133L124.466 211.599L124.456 209.775L123.701 208.665L124.42 208.876L126.316 207.792L126.11 207.191L127.369 205.834L127.24 204.91L128.848 204.499L130.811 202.808L130.436 201.139L131.879 200.687L131.792 199.711L133.462 198.642L132.866 197.686L133.482 197.507L132.881 195.2L132.794 194.845L133.57 194.383Z" fill="#CCCCCC" stroke="white" stroke-width="0.5"/>
<path d="M157.315 2.15078L157.587 3.92833L158.825 5.79322L157.937 6.72823L158.137 9.09144L158.897 10.345L160.767 10.4169L162.288 13.3144L163.403 13.3658L164.677 14.3984L165.658 12.3897L169.892 11.1105L170.744 13.2887L172.224 14.0799L171.767 15.5441L172.881 20.0187L174.685 21.1284L176.205 20.6147L176.791 19.7208L177.731 20.0444L177.341 21.2569L179.642 20.964L180.752 22.2792L180.716 25.1716L181.78 27.319L182.622 25.7829L184.811 25.7521L185.915 26.5895L188.53 25.5209L189.635 27.1238L190.503 27.3704L190.945 28.8859L191.577 28.8757L191.474 27.8482L192.46 28.4184L192.732 29.0606L191.232 30.3861L191.325 32.0403L190.76 33.0216L192.291 33.0421L192.933 35.1536L191.438 35.8523L191.047 38.1179L189.856 38.4672L187.58 37.6658L187.616 35.9859L185.597 37.1367L185.268 36.2016L181.908 35.1331L180.824 35.6622L180.731 36.4585L179.761 36.6075L178.266 35.6263L177.135 36.8387L174.423 36.2222L173.693 36.9106L172.594 36.962L172.188 36.3609L170.349 37.0545L168.679 35.6879L166.973 35.4773L166.049 36.0578L164.965 35.8112L163.763 36.7565L163.629 34.871L161.271 35.9859L161.98 33.7511L160.891 33.2682L160.413 33.2322L160.336 34.7529L157.608 33.6894L157.649 32.8007L157.11 32.7133L156.699 33.6689L156.303 32.7698L155.589 32.8572L154.258 34.5474L153.349 33.8127L153.601 32.3537L155.882 30.9974L154.952 29.8055L153.991 29.6668L152.974 30.6018L152.414 29.523L152.301 30.3861L151.083 29.8621L148.51 31.1413L148.083 30.4991L147.138 30.7971L146.948 29.0863L144.168 27.8996L143.86 27.5143L144.574 26.7796L144.189 26.4611L143.362 27.1135L141.153 25.4747L138.173 26.5022L137.675 25.7624L135.805 24.1492L136.493 19.5461L137.526 20.3835L136.272 18.5083L135.979 13.2528L136.067 12.7596L136.262 13.5661L136.647 13.037L137.068 10.6378L136.375 8.36707L138.086 7.8636L139.868 5.89597L142.555 5.0226L141.928 4.90444L147.343 3.50706L147.616 3.85641L148.746 2.69535L148.51 3.30157L149.167 3.92833L149.522 2.69535L149.696 3.09093L152.861 2.00694L153.452 2.43334L156.945 1L157.315 2.15078Z" fill="#CCCCCC" stroke="white" stroke-width="0.5"/>
<path d="M61.4356 46.4717L62.4528 47.155L63.2029 46.7645L63.7886 47.6636L68.1913 48.7065L68.0886 49.4668L68.3557 48.7424L70.9399 48.3777L71.2378 47.4324L75.6766 47.4581L76.4472 50.3915L75.8923 50.1963L75.5173 51.5629L75.5276 51.1056L74.9779 51.2084L74.7313 52.3438L77.7778 56.9469L77.0328 59.3204L78.0346 58.4059L78.8669 59.0173L79.7454 57.5171L82.0778 57.2705L86.5576 58.8529L94.2638 59.3718L96.7143 60.6921L97.4798 60.4198L97.9216 61.0825L102.643 59.644L105.381 57.1472L107.441 56.279L105.037 56.1763L108.756 56.1198L109.625 59.1508L108.998 59.9369L109.594 60.5688L109.296 60.9952L110.431 60.5482L110.878 60.9284V61.6219L109.532 62.1408L111.109 63.3687L110.909 65.2079L111.931 65.624L111.238 66.744L111.644 67.7458L110.529 68.4804L112.245 69.6826L110.883 73.0424L112.358 74.1213L114.444 74.2652L115.081 73.6641L115.271 74.3422L115.826 74.1521L115.713 74.8971L116.273 74.9073L115.697 75.6266L118.841 77.7226L119.18 78.6782L118.199 79.6697L119.088 80.0448L119.129 80.877L120.084 80.8616L120.162 82.7265L123.306 85.5675L122.653 87.0779L123.506 88.2338L122.191 90.4069L119.114 92.0201L118.8 92.7496L119.884 93.0835L119.499 93.9826L120.398 95.493L119.704 96.1095L118.43 96.2996L116.632 93.885L116.319 94.8662L114.115 94.3628L113.134 92.4003L112.918 92.7702L111.058 92.0252L110.847 88.727L109.111 86.9289L105.777 87.6738L106.044 88.1876L104.215 89.2407L103.932 90.2323L102.674 89.6004L101.605 90.3299L101.61 87.8742L99.5605 87.6892L98.9851 85.9682L99.5861 85.4082L98.2658 84.2626L97.3719 84.242L97.5363 85.1411L96.8941 86.071L95.8307 85.588L95.1474 86.8159L94.2175 85.9888L91.8029 86.0196L90.9244 87.1704L88.7873 88.1002L88.5304 86.7799L87.991 87.3245L87.1073 87.1601L87.467 87.9153L86.4806 88.3622L86.0799 87.4221L85.3349 87.7458L84.6619 86.333L83.3056 86.4203L82.309 85.7576L81.2764 86.6566L79.879 86.0504L75.9591 84.9048L73.822 87.3142L72.3835 87.5711L70.9501 86.6669L69.1726 81.997L70.4415 82.4593L70.4672 81.8942L70.9039 82.372L72.2859 81.7247L73.822 82.0638L72.5838 81.2007L73.1233 80.6715L71.8184 81.3291L69.224 78.37L69.1315 75.9554L68.2787 75.5238L69.8456 72.3951L69.3781 72.092L69.486 69.3332L70.6162 69.5284L69.4243 68.9531L69.0441 70.186L68.5818 68.9479L68.2633 63.1067L69.2599 63.0091L68.2581 62.5878L67.9961 63.3944L66.2802 59.5053L64.0917 58.0668L63.2748 53.772L62.4271 52.7804L63.4341 51.5731L63.2645 49.5952L62.6943 48.6808L61.1582 48.1568L61.4356 46.4717Z" fill="#CCCCCC" stroke="white" stroke-width="0.5"/>
<path d="M132.071 35.3229L133.592 35.1328L133.669 36.1449L139.207 41.195L139.679 43.5633L140.784 45.2946L140.003 45.2638L138.719 47.5191L139.084 47.9815L140.049 47.5191L138.893 49.1837L139.402 49.8721L138.965 51.213H138.873L139.988 52.6668L139.325 53.7919L139.911 54.2646L140.224 53.5351L140.882 53.7919L140.491 54.9016L140.286 55.0352L139.253 56.9463L139.803 57.0028L139.412 57.4036L140.255 58.2975L140.496 60.7326L141.169 61.2926L140.851 62.2225L140.188 61.3645L139.15 61.6162L139.032 62.69L137.296 67.4318L135.241 67.9558L135.128 67.961L134.897 67.4369L134.444 68.5723L133.586 68.4798L134.234 69.7591L134.059 70.992L135.097 70.9098L134.527 71.2797L134.717 72.148L133.581 72.6874L133.843 74.3622L131.747 75.5695L131.968 77.2905L131.115 77.9378L128.773 78.0406L126.615 77.0285L126.487 78.4105L125.377 78.0303L124.231 79.0938H123.789L121.39 79.4071L121.118 80.3011L120.09 80.8764L119.135 80.8919L119.094 80.0596L118.205 79.6846L119.186 78.693L118.847 77.7375L115.703 75.6414L116.278 74.9222L115.719 74.9119L115.832 74.167L115.277 74.3571L115.087 73.6789L114.45 74.28L112.364 74.1361L110.889 73.0573L112.251 69.6974L110.535 68.4953L111.65 67.7606L111.244 66.7588L111.937 65.6388L110.915 65.2227L111.115 63.3835L109.538 62.1557L110.884 61.6368V60.9432L110.437 60.5631L109.302 61.01L109.6 60.5836L109.004 59.9517L109.631 59.1657L108.762 56.1346L108.973 55.5541L108.47 55.9445L105.115 54.9119L104.098 53.607L105.942 49.158L105.32 48.3309L105.993 48.6391L107.098 46.9181L109.867 45.8084L115.194 42.1916L119.161 41.5854L123.152 39.8952L124.411 40.26L125.803 39.6332L126.019 40.2189L125.88 39.5715L128.166 38.4824L132.071 35.3229Z" fill="#CCCCCC" stroke="white" stroke-width="0.5"/>
<path d="M54.5522 132.878L55.3948 133.469L55.0916 134.522L56.6894 135.328L56.8435 137.029L55.5951 135.051L54.4597 135.005L53.6326 134.013L53.4888 132.97L54.5522 132.878ZM79.8592 86.0554L81.2566 86.6617L82.2892 85.7626L83.2858 86.4253L84.6421 86.338L85.3151 87.7508L86.0601 87.4271L86.4608 88.3673L87.4472 87.9203L87.0875 87.1651L87.9712 87.3295L88.5106 86.785L88.7675 88.1053L90.9046 87.1754L91.7831 86.0246L94.1977 85.9938L95.1276 86.8209L95.8109 85.5931L96.8743 86.076L97.5165 85.1461L97.3521 84.2471L98.246 84.2676L99.5663 85.4133L98.9653 85.9732L99.5406 87.6943L101.59 87.8792L101.585 90.3349L102.654 89.6054L103.913 90.2373L104.195 89.2458L106.024 88.1926L105.757 87.6789L109.091 86.9339L110.828 88.732L111.038 92.0303L112.898 92.7752L113.114 92.4053L114.095 94.3678L116.299 94.8713L116.612 93.89L118.41 96.3046L119.684 96.1145L122.202 97.8818L120.82 98.0565L120.614 98.9966L120.018 99.1353L120.697 99.2843L120.65 99.9933L119.597 100.07L119.674 101.134L120.63 101.37L120.126 102.757L120.774 104.216L120.06 104.468L119.972 105.855L119.515 105.11L118.898 105.465L119.068 107.638L117.445 109.184L117.645 109.698L116.047 110.176L115.174 111.249L115.39 112.179L115.883 112.03L115.4 112.698L112.579 113.546L112.266 114.358L110.858 113.587L110.458 114.342L111.28 115.637L110.864 115.904L107.637 114.804L107.663 115.072L106.815 116.88L107.499 117.25L107.401 118.108L105.937 121.272L106.564 121.832L104.324 124.971L103.836 128.65L103.075 128.306L102.51 128.773L101.888 131.075L100.82 130.633L99.9003 132.087L98.8368 131.583L99.6177 130.546L98.7341 130.391L98.2974 130.833L96.9925 130.474L94.2029 130.926L93.9665 131.691L92.3945 132.107L92.8569 131.229L92.1068 131.167L90.7916 131.773L91.0639 132.76L89.8874 133.869L88.3667 133.674L87.4266 134.275L85.8751 133.607L84.488 134.717L83.5581 134.573L84.2517 134.964L83.9383 135.467L84.5856 135.488L84.339 135.827L85.4436 136.243L84.9504 137.368L86.1371 138.765H86.2244L87.0721 139.336H87.2211L87.7811 139.7L87.3547 140.096L87.3752 140.224L87.3239 141.38L88.6801 143.091L88.1818 143.523L89.0911 144.232L88.6288 145.069L89.5432 145.521L89.2658 146.949L89.7641 148.28L88.8343 148.65L89.6717 150.674L88.973 152.446L89.4199 152.642L89.7333 151.953L91.1512 152.847L88.8445 154.948L87.7708 154.686L87.2571 155.406L85.0069 154.316L84.9144 154.183L84.5137 154.943L83.7328 154.655L82.7772 155.164L82.1453 154.784L82.8183 153.289L80.1777 153.941L79.7256 154.943L78.8522 154.964L77.0233 155.015L76.936 156.402L74.5985 154.429L75.03 155.75L74.0076 154.178L71.3567 154.173L70.3601 152.277L67.4934 151.779L63.9845 149.472L63.0598 145.876L61.1178 143.163L56.9771 139.305L56.7664 137.209L57.6501 137.132L57.46 136.603L59.2992 134.738L59.4019 133.479L60.4808 132.857L57.9018 130.171L54.7577 129.611L56.4839 128.496L56.376 125.501L55.5181 125.316L53.648 126.487L52.0246 125.064L50.8276 125.691L48.413 124.694L49.1836 124.119L49.2453 123.189L48.0996 122.059L50.2471 120.512L50.2573 119.747L50.992 118.837L51.4544 119.49L53.2525 119.341L53.6532 117.604L54.7988 118.288L56.078 117.717L56.5353 118.437L56.6688 117.435L57.9326 117.08L58.282 113.392L60.599 112.005L60.9894 112.714L63.0136 111.537L67.2828 111.506L68.0893 109.801L71.2694 108.552L71.1461 107.53L73.0778 107.756L73.6069 108.676L76.0934 109.39L78.0457 103.42L80.9997 102.202L79.7616 95.9039L79.6742 95.8217L79.1964 93.813L80.3883 91.8094L79.6229 89.0608L79.8592 86.0554Z" fill="#CCCCCC" stroke="white" stroke-width="0.5"/>
<path d="M137.393 25.5214L137.696 25.7629L138.194 26.5026L141.174 25.4752L143.383 27.114L144.21 26.4615L144.596 26.7801L143.881 27.5147L144.19 27.9L146.969 29.0868L147.159 30.7975L148.104 30.4996L148.531 31.1417L151.105 29.8625L152.322 30.3865L152.435 29.5235L152.995 30.6023L154.012 29.6673L154.973 29.806L155.903 30.9979L153.622 32.3542L153.37 33.8132L154.28 34.5479L155.61 32.8576L156.324 32.7703L156.72 33.6694L157.131 32.7138L157.67 32.8011L157.629 33.6899L160.357 34.7533L160.434 33.2327L160.912 33.2686L162.001 33.7516L161.292 35.9863L163.65 34.8715L163.784 36.7569L164.986 35.8117L166.07 36.0583L166.995 35.4777L168.7 35.6884L170.37 37.0549L172.209 36.3614L172.615 36.9624L173.715 36.9111L174.444 36.2227L177.157 36.8391L178.287 35.6267L179.782 36.608L180.753 36.459L180.845 35.6627L181.929 35.1335L185.289 36.2021L185.618 37.1371L187.637 35.9863L187.601 37.6663L189.877 38.4677L191.069 38.1184L192.97 38.7965L192.661 40.2812L193.473 40.61L193.422 41.7865L192.415 44.6994L193.35 45.4546L191.968 47.3606L190.709 48.049L190.473 49.5286L188.89 49.3745L188.515 49.8933L189.676 51.563L189.075 52.4261L189.702 53.094L188.896 53.6745L189.476 55.6832L188.824 55.9195L188.793 58.4728L187.144 57.9129L186.383 56.9573L184.93 57.8255L184.837 58.9814L183.27 58.6064L180.445 60.0038L181.143 62.5725L180.629 63.2866L181.231 63.8004L181.585 63.4767L181.929 64.4579L182.659 64.3192L182.643 65.0436L181.713 65.583L179.946 65.321L179.489 66.3228L180.285 67.6997L179.191 68.2494L179.155 69.0046L180.552 68.8042L181.133 69.7392L179.263 71.4911L179.54 72.0459L178.914 72.1641L178.842 72.9655L177.937 73.0477L177.028 74.9794L176.514 75.452L176.18 74.7174L174.845 74.3424L174.516 72.5186L173.689 73.171L173.175 71.8558L172.317 72.1744L172.035 71.0852L170.242 69.7957L170.74 68.5679L169.63 66.7492L168.171 66.3948L168.099 67.4274L166.871 67.2219L166.414 67.8897L166.014 67.2219L163.522 67.9154L162.592 67.0575L161.005 68.2185L158.852 66.6773L157.799 67.6072L157.136 66.1584L156.704 66.9599L155.811 66.7492L156.098 66.3793L155.168 65.6293L154.614 65.8707L154.742 65.4495L153.355 65.0231L152.985 65.3981L152.05 64.1548L151.449 65.0231L150.329 65.3005L150.021 64.386L148.998 64.8998L147.087 63.3791L145.402 64.5042L142.869 64.9255L141.174 64.1959L140.131 64.5145L139.746 63.8826L139.551 63.8877L139.818 62.9321L139.047 62.6855L139.165 61.6118L140.203 61.3601L140.866 62.218L141.184 61.2882L140.511 60.7282L140.27 58.293L139.427 57.3991L139.818 56.9984L139.268 56.9419L140.301 55.0308L140.506 54.8972L140.897 53.7875L140.239 53.5306L139.926 54.2602L139.34 53.7875L140.003 52.6624L138.888 51.2085H138.98L139.417 49.8677L138.908 49.1792L140.064 47.5147L139.099 47.9771L138.734 47.5147L140.018 45.2594L140.799 45.2902L139.694 43.5589L139.222 41.1905L133.684 36.1405L133.607 35.1284L132.086 35.3185L133.668 33.8543L135.174 30.5869L136.155 30.2632L136.566 31.2496L138.086 31.6555L138.708 31.2034L135.523 28.347L135.872 25.4443L137.393 25.5214Z" fill="#CCCCCC" stroke="white" stroke-width="0.5"/>
<path d="M72.6669 163.188L74.6294 164.837L76.2836 165.151L76.3196 166.836L77.383 168.947L76.4326 170.786L75.6209 168.305L73.1087 166.075L72.6669 163.188ZM70.4629 156.756L71.2438 157.475L70.2471 157.619L70.6581 158.395L72.5384 157.593L71.9733 158.102L72.2764 158.482L73.5556 158.251L75.9959 159.669L74.7629 160.28L71.5109 158.462L69.98 158.467L69.3789 157.188L70.4629 156.756ZM78.8729 154.937L79.7462 154.917L80.1983 153.915L82.839 153.263L82.166 154.758L82.7979 155.138L83.7534 154.629L84.5343 154.917L84.935 154.157L85.0275 154.29L87.2777 155.379L87.7914 154.66L88.8652 154.922L91.1719 152.821L89.7539 151.927L89.4406 152.615L88.9936 152.42L89.6923 150.648L88.8549 148.624L89.7848 148.254L89.2864 146.923L89.5638 145.495L88.6494 145.043L89.1118 144.205L88.2024 143.496L88.7008 143.065L87.3445 141.354L87.3959 140.198L87.3753 140.07L87.8017 139.674L87.2417 139.309H87.0927L86.2451 138.739H86.1577L84.971 137.342L85.4642 136.217L84.3596 135.8L84.6062 135.461L83.9589 135.441L84.2723 134.937L83.5788 134.547L84.5086 134.691L85.8957 133.581L87.4472 134.249L88.3874 133.648L89.9081 133.843L91.0845 132.733L90.8122 131.747L92.1274 131.141L92.8775 131.202L92.4151 132.081L93.9872 131.665L94.2235 130.899L97.0131 130.447L98.318 130.807L98.7547 130.365L99.6383 130.519L98.8574 131.557L99.9209 132.06L100.84 130.607L101.909 131.048L102.531 128.747L103.096 128.279L103.856 128.624L104.416 130.026L105.695 129.841L105.582 130.396L106.163 130.591L106.584 130.149L106.975 130.889L106.512 131.906L107.935 131.521L108.428 132.425L109.168 132.158L109.369 133.807L108.917 134.059L109.605 135.924L110.494 135.338L112.055 135.96L113.489 135.045L115.462 135.097L114.814 133.571L115.878 133.53L117.455 134.583L117.727 136.777L119.685 138.441L120.085 140.321L122.166 142.253L122.474 143.27L121.724 145.274L122.109 146.147L124.324 147.2L124.442 148.151L125.998 148.141L127.098 149.045L127.237 150.853L128.541 151.316L128.213 152.297L127.822 152.816L127.38 152.667L126.795 153.961L125.063 153.504L124.149 156.042L121.95 155.785L120.851 157.547L119.613 158.123L120.763 160.424L119.972 160.856L120.501 161.683L120.065 163.085L121 164.067L121.555 163.64L122.418 164.323L122.885 165.562L121.498 167.015L120.003 166.738L120.322 168.228L119.387 171.012L117.876 170.627L117.938 171.911L116.135 173.499L114.753 175.826L113.592 175.842L113.453 178.308L112.271 179.15L111.901 180.296L110.812 180.301L109.744 181.626L109.143 181.102L109.456 181.786L108.583 182.078L107.971 183.83L108.372 186.019L106.435 187.118L105.572 188.772L103.887 188.141L102.87 188.88L102.289 190.021L102.782 190.381L101.909 190.766L101.755 192.014L100.82 191.321L99.6332 192.286L98.6263 192.143L97.1775 191.526L96.7203 190.689L95.9959 190.833L95.4873 189.975L94.9479 189.872L94.5112 190.668L94.131 189.512L94.1053 189.379L93.6121 186.599L90.6273 186.055L90.1495 184.539L89.9748 185.32L87.4215 185.104L86.5739 182.14L85.197 180.126L81.9913 178.056L80.8508 176.165L76.9669 173.915L76.3864 174.038L76.6329 174.66L76.3196 174.043L76.2887 171.197L78.4978 170.684L77.532 169.148L78.8883 168.973L79.7411 167.483L79.2017 166.337L79.6692 166.209L79.5561 165.3L78.7855 164.57L80.2291 164.58L79.1862 161.755L78.2975 161.4L78.6006 160.774L77.6399 160.44L78.1434 159.849L76.9309 160.214L76.2682 159.648L77.0645 158.174L78.9859 156.689L78.4927 155.384L78.8729 154.937Z" fill="#CCCCCC" stroke="white" stroke-width="0.5"/>
<path d="M209.122 212.282L209.333 212.518L210.828 213.427L210.843 213.602L209.826 214.08L209.051 216.094L206.97 215.744L206.636 214.403L207.412 213.001L207.597 212.672L207.761 212.585L208.115 212.503L208.773 211.973L208.86 212.199L209.081 212.225L209.122 212.282ZM216.603 247.833L217.327 246.615L216.695 245.88L217.286 245.49L215.904 243.558L214.183 244.514L210.376 244.627L208.67 241.693L207.607 241.493L207.047 242.289L207.304 241.57L206.79 241.873L206.348 240.83L206.703 242.125L205.65 241.565L206.353 242.387L205.172 242.849L206.153 242.783L205.809 243.132L206.723 243.718L207.545 243.003L205.829 244.55L200.404 243.599L199.89 243.003L200.584 241.791L199.361 240.913L192.898 240.676L193.124 239.52L194.871 238.673L194.661 237.876L195.087 238.447L197.82 236.864L198.041 236.186L197.065 235.847L198.334 233.694L199.5 233.402L201.375 234.039L201.052 232.862L202.218 229.353L201.668 228.711L205.346 225.865L205.341 225.125L205.994 225.094L204.756 222.829L203.348 222.361L203.368 219.227L203.065 218.431L202.336 218.395L201.832 216.761L201.858 214.994L204.802 215.493L205.449 218.041L210.587 215.662L211.624 216.556L212.529 215.606L212.868 215.446L212.554 217.912L214.208 218.529L214.625 217.933L215.667 218.652L216.885 218.436L217.517 218.852L217.476 220.188L218.596 220.291L219.012 221.252L220.856 220.856L222.141 219.114L222.947 219.813L222.767 220.327L223.774 220.45L223.862 219.942L223.019 219.705L223.939 218.976L223.944 216.875H223.101L222.875 215.873L222.264 215.708L222.716 214.897L220.98 214.994L220.414 214.383L219.813 214.773L218.473 213.669L218.231 212.174L219.464 212.348L219.911 211.819L219.197 211.506L219.058 209.975L222.387 210.802L222.696 209.949L223.451 209.882L222.023 208.644L223.106 206.62L223.004 205.428L224.838 205.808L225.269 205.12L226.127 205.377L227.001 204.272L226.328 203.795L226.929 202.207L228.121 202.598L229.58 202.176L230.201 201.544L229.544 200.846L230.998 199.921L231.825 200.507L233.479 199.058L235.899 199.428L236.839 198.77L238.211 199.34L238.262 196.803L237.507 196.366L237.532 195.015L234.984 194.491L235.863 191.347L236.895 191.722L237.733 191.264L238.406 192.862L240.245 193.412L241.005 193.319L240.872 192.179L241.514 191.686L242.182 191.973L242.958 191.249L244.083 191.696L244.987 194.419L246.497 194.588L246.641 197.861L249.04 199.515L250.037 199.705L250.576 199.161L252.426 200.322L251.943 201.349L253.566 204.514L251.136 204.694L251.249 206.415L248.855 209.102L249.338 210.54L250.838 212.04L249.652 212.287L249.539 214.044L251.825 216.489L252.082 217.804L255.929 218.827L257.887 220.62L259.243 220.46L259.551 221.375L260.985 221.467L261.113 220.928L265.12 220.358L265.511 219.551L266.518 219.613L266.143 220.902L267.17 222.3L266.975 223.533L266.066 223.938L265.84 225.546L264.021 226.502L263.836 227.853L262.531 228.542L263.271 231.203L260.62 233.078L259.187 233.268L259.063 234.337L258.683 233.443L258.452 234.064L257.127 233.951L256.418 235.082L255.308 235.01L254.558 236.952L255.056 237.974L254.542 238.272L254.054 237.419L252.78 238.467L252.302 238L251.167 238.262L250.617 239.084L251.039 239.582L249.646 241.575L247.473 242.166L246.533 241.75L245.922 243.938L242.901 246.148L245.516 246.312L244.833 247.006L245.172 248.269L244.334 248.649L244.442 249.204L243.887 249.482L242.618 248.572L241.236 249.687L238.848 249.877L238.411 251.568L236.495 250.555L234.635 250.735L233.854 252.179L233.962 253.299L232.683 253.237L233.412 252.79L233.304 251.773L231.105 251.804L230.684 250.997L229.112 251.105L229.009 250.453L228.157 251.1L229.575 252.102L228.367 251.783L227.689 252.723L227.026 252.631L226.271 252.081L226.595 250.73L225.706 250.704L225.824 250.042L224.18 249.903L223.985 248.85L222.608 248.655L222.228 249.43L220.769 247.843L219.988 248.357L216.603 247.833Z" fill="#CCCCCC" stroke="white" stroke-width="0.5"/>
<path d="M185.844 156.186L185.659 158.077L187.416 158.436L187.771 159.464L190.19 158.56L191.798 159.325L192.425 158.693L192.81 159.207L193.417 158.904L193.319 159.793L193.864 159.865L195.939 158.955L196.643 155.575L197.773 155.534L198.739 156.443L200.111 155.636L201.174 156.51L201.58 155.416L202.489 155.256L203.147 156.104L202.484 156.71L203.692 157.496L203.337 158.683L204.169 159.371L204.627 159.243L208.064 148.706L208.269 149.251L208.983 148.819L210.529 149.77L212.872 149.153L212.898 148.686L213.715 149.102L214.341 150.571L216.016 150.931L215.687 151.953L217.347 152.903L217.008 153.273L217.912 155.112L218.349 153.962L218.621 154.963L219.438 154.958L219.407 156.536L220.799 156.407L223.019 154.064L223.096 154.696L224.529 155.154L224.776 156.643L227.853 156.525L232.019 151.871L234.264 153.386L232.821 155.909L233.299 156.957L230.221 158.015L229.892 158.632L230.535 159.094L229.743 160.723L231.757 160.003L233.386 160.373L236.946 157.753L237.249 156.803L236.206 156.947L235.934 155.344L235.348 155.087L236.032 153.602L241.719 150.612L245.197 150.684L248.141 151.532L247.087 153.741L249.091 156.032L247.796 158.385L247.647 160.414L249.81 160.815L249.322 163.153L250.581 162.654L252.769 166.035L252.908 166.985L251.891 168.557L250.113 169.513L248.135 169.631L247.853 173.027L250.16 175.277L251.963 175.636L251.475 177.214L251.968 179.731L253.129 180.044L253.016 180.723L254.095 180.8L254.408 181.904L255.96 182.731L254.316 185.105L254.845 187.268L253.453 188.603L251.994 188.352L250.797 189.877L249.677 189.919L249.672 190.874L248.731 191.162L247 190.186L244.087 191.681L242.962 191.234L242.186 191.958L241.518 191.67L240.876 192.164L241.01 193.304L240.249 193.397L238.41 192.847L237.737 191.249L236.9 191.706L235.867 191.331L234.989 194.475L237.537 194.999L237.511 196.351L238.266 196.787L238.215 199.325L236.843 198.755L235.903 199.412L233.483 199.043L231.829 200.491L231.002 199.906L229.548 200.83L230.206 201.529L229.584 202.161L228.125 202.582L226.933 202.192L226.332 203.779L227.005 204.257L226.132 205.362L225.274 205.105L224.842 205.793L223.008 205.413L223.111 206.605L222.027 208.629L223.455 209.867L222.7 209.934L222.392 210.787L219.063 209.96L219.201 211.491L219.916 211.804L219.469 212.333L218.236 212.158L218.477 213.653L219.818 214.758L220.419 214.368L220.984 214.979L222.721 214.881L222.268 215.693L222.88 215.857L223.106 216.859H223.948L223.943 218.96L223.024 219.69L223.866 219.926L223.779 220.435L222.772 220.312L222.952 219.798L222.145 219.099L220.861 220.841L219.017 221.236L218.6 220.276L217.48 220.173L217.522 218.837L216.89 218.421L215.672 218.637L214.629 217.918L214.213 218.513L212.559 217.897L212.872 215.431L212.533 215.59L211.629 216.541L210.591 215.647L205.454 218.025L204.806 215.477L201.863 214.979L201.837 216.746L198.765 214.573L197.655 214.732L197.331 216.371L196.427 216.155L196.35 214.491L194.948 214.732L193.473 216.911L190.756 214.784L189.009 215.308L188.844 213.16L189.451 212.744L187.73 210.756L186.969 207.817L185.911 207.113L185.022 202.639L186.348 201.909L186.897 200.163L187.73 200.62L187.606 199.983L187.981 200.373L188.582 199.962L188.721 198.801L191.321 198.775L192.775 196.068L194.67 195.77L194.3 194.378L196.078 193.859L195.374 192.657L195.898 191.758L196.484 191.799V191.527L195.949 190.627L196.992 190.854L197.265 191.65L197.727 191.378L197.516 190.119L198.436 188.244L197.27 186.672L196.242 187.232L195.42 186.672L195.883 185.86L195.045 185.367L195.811 184.807L195.112 183.841L193.781 184.149L192.949 183.209L191.783 183.101L191.069 183.363L191.259 183.944L189.713 184.144L189.497 184.822L188.423 184.421L188.372 185.064L187.673 183.738L186.872 183.61L185.947 184.879L185.623 183.034L187.206 181.801L187.663 179.988L186.574 177.486L184.226 175.863L183.224 174.049L183.301 173.027L181.344 171.008L182.058 170.324L181.909 168.598L182.746 168.11L181.431 166.764L181.595 165.562L183.44 165.449L184.365 164.658L183.815 162.998L184.159 161.92L183.553 161.205L183.887 159.639L183.019 157.296L185.495 156.227L185.68 156.202L185.844 156.186ZM207.75 212.575L207.586 212.662L207.401 212.991L206.625 214.393L206.959 215.734L209.04 216.083L209.815 214.07L210.833 213.592L210.817 213.417L209.322 212.508L209.065 212.21L208.844 212.184L208.757 211.958L208.099 212.487L207.75 212.575Z" fill="#CCCCCC" stroke="white" stroke-width="0.5"/>
</svg>
