<svg width="223" height="302" viewBox="0 0 223 302" fill="none" xmlns="http://www.w3.org/2000/svg">
<path d="M69.3877 285.254L69.6074 286.046L69.0658 285.826L68.2968 286.099L68.6794 285.701L68.4408 285.178L69.3877 285.254ZM79.0127 217.262L81.2135 217.39L82.2892 217.133L82.5582 216.659L82.7779 216.671L83.3801 215.894L83.043 215.19L83.8536 214.39L84.8082 214.803L85.3801 214.303L85.812 214.818L86.3271 214.747L86.6567 214.243L86.1832 213.735L86.6983 213.076L86.6453 212.284L85.8612 211.565L85.7438 212.568L85.1642 212.553L84.8233 212.012L85.5317 211.637L83.6529 211.277L84.3082 211.072L84.1264 210.167L84.9976 210.14L85.4862 209.769L85.9711 210.11L86.7741 209.372L87.562 210.125L88.0885 209.47L88.6415 209.402L88.8877 210.288L89.687 210.22L90.0847 211.05L89.9597 209.917L90.2211 209.618L90.5961 209.777L92.2021 209.292L92.1074 209.97L92.0582 210.569L92.1339 211.296L91.6642 211.504L92.0317 211.822L91.6226 212.538L92.3044 213.178L92.5051 213.11L92.8536 212.947L92.8953 212.087L93.6794 211.682L94.0885 213.148H94.312L94.7135 212.326L95.8195 211.55L95.7097 211.913L96.6301 212.603L96.5544 214.481L97.1529 214.834L97.5658 216.027L96.8423 216.633L96.9862 217.273L96.0961 218.095L97.2476 218.466L97.3801 217.648L98.2021 216.906L98.6036 217.103L98.1907 217.841L98.7173 217.822L98.7324 218.152H98.8309L98.562 220.387L98.8915 220.716L101.092 220.682L101.361 220L102.107 219.497L101.592 219.038L102.213 218.406L102.85 218.849L102.698 219.69L103.607 219.784L103.085 220.466L103.607 221.485L103.198 221.523L102.941 222.076L103.895 222.447L104.573 223.997L103.255 224.618L103.645 225.675L103.244 225.622L103.153 225.993L103.323 226.466L104.1 226.694L103.857 227.523L104.46 228.273L103.91 228.921L103.668 228.44L103.323 229.072L103.891 229.288L103.551 229.478L104.043 230.811L103.717 230.803L103.672 231.239L104.422 231.485L104.732 232.027L105.005 231.86L105.475 232.879L105.952 232.569L106.653 233.103L106.831 233.815L106.096 234.209L105.725 234.864L106.176 235.281L106.717 235.209L106.335 235.792L106.998 236.269L106.717 237.099L107.759 237.012L108.433 237.614L109.077 237.553L109.267 238.421L109.869 238.557V239.012L110.206 238.947L110.463 239.364L110.645 239.167L110.441 239.803L110.759 239.728L111.058 240.519L111.57 240.83L111.255 241.008L111.713 241.625L110.892 242.038L111.634 242.656L111.63 243.754L111.009 244.319L111.524 244.781L111.535 245.489L110.854 245.944L111.145 246.777L110.653 246.959L111.024 247.493L110.74 247.841L111.475 248.515L111.888 248.258L111.672 248.508L112.335 249.258L112.058 249.451L112.626 250.012L111.903 250.629L110.6 250.962L110.975 250.542L110.884 249.909L111.259 249.803L110.535 249.637L110.054 250.773L109.392 251.25L108.77 249.944L108.017 250.084L107.168 249.447L107.274 250.065L106.869 250.273L106.831 250.822L108.46 252.875L107.869 253.065L107.759 253.572L108.236 254.485L107.952 255.265L108.176 255.989L106.342 256.406L106.157 256.587L106.505 256.618L106.494 257.122L105.104 257.709L104.793 258.349L103.869 258.444L103.24 257.637L102.198 258.47L101.573 258.307L101.35 259.087L101.683 259.39L99.9673 261.235L100.077 261.762L100.649 261.781L100.626 262.36L102.248 264.731L102.225 266.466L103.293 270.163L103.963 270.856L104.168 272.231V272.784L104.066 272.981L104.096 273.22L103.467 275.792L102.804 276.069V276.731L103.361 277.281L103.331 278.099L103.001 279.027L103.236 279.205L102.554 279.682L102.672 280.065L103.21 279.788L102.873 280.561L103.244 280.175L103.142 280.546L103.994 281.716L103.566 281.629L103.426 282.05L102.869 281.913L102.202 282.519L103.517 283.493L103.475 284.955L104.043 285.591L103.827 286.455L103.373 286.868L102.869 286.61L102.52 287.822L102.225 286.527L101.418 286.557L101.323 286.144L100.657 286.356L99.812 287.39L97.1036 286.447L96.5961 286.807L96.5771 286.966L96.2135 287.485L95.6188 287.565L95.6907 288.004L94.6945 288.811L93.5468 289.182L92.4029 288.83L91.937 289.14L91.2854 289.909L91.0014 291.099L87.7551 290.504L81.0241 287.194L78.6945 286.387L76.9938 286.167L74.0014 287.512L72.9445 286.319L72.9597 285.807L73.4976 285.879L73.4597 285.531L72.1756 285.178L71.937 284.303L71.0089 284.997L70.9938 285.409L71.9559 285.875L71.5392 286.576L69.9597 285.898L70.1832 285.091L69.615 284.663L69.8385 284.076L70.2968 283.943L69.865 283.353L69.1604 283.663L68.918 282.64L68.2021 282.091L67.9635 282.519L68.1529 283.053L67.5923 283.568L67.3158 282.137L66.3158 282.106L66.0923 281.807L65.9635 282.319L66.312 282.758L65.7286 282.648L64.9597 283.148L64.0847 283.178L63.2476 284.247L63.365 284.875L62.2097 285.731L62.5658 286.265L62.1983 286.622L63.1491 287.322L63.6908 287.228L63.8839 287.868L63.8271 287.489L64.3233 287.781L65.1112 287.671L65.1036 287.114L65.4445 287.22L65.5392 286.864L66.3877 287.031L66.9976 286.667L67.5582 287.557L67.2589 287.913L67.0961 287.394L66.7854 287.724L66.9976 288.781L66.293 289.44L65.9408 289.22L66.1339 288.656L64.9332 288.076L64.6491 288.637L63.4142 289.205L63.6756 289.826L64.1908 289.663L64.1415 290.065L62.8044 290.462L61.99 290.069L61.6339 290.466L60.1983 290.205L59.3574 288.906L58.5885 288.705L57.8536 289.08L57.3385 288.508L56.3726 289.444L55.0355 289.894L54.5544 290.762L54.0317 290.519L52.8688 291.015L51.4067 290.758L51.0127 291.254L50.2817 291.027L49.7817 289.705L48.0998 289.682L47.4711 290.765L44.9748 291.659L44.3574 291.519L43.5658 290.629L44.812 290.466L44.4711 289.716L44.9673 289.228L44.5165 289.55L43.8801 289.417L43.2211 290.053L42.5051 289.618L41.9294 288.091L40.8688 287.031L40.6074 285.773L41.4862 284.474L41.0468 282.841L41.8309 280.618L41.6983 279.262L42.3044 278.61L42.3385 277.409L43.2855 275.921L42.9408 274.868L42.0127 273.678L42.1908 270.565L44.3574 266.913L45.0014 264.012L46.2476 263.091L45.9521 260.656L46.7135 258.508L46.8195 257.178L47.7286 256.288L47.5847 253.765L48.5279 251.69L49.7362 250.921L51.5392 248.735L51.7286 247.451L52.7855 247.334L53.1226 246.402L54.0127 246.292L54.5658 245.8L56.0051 242.068L57.1718 240.137L58.0165 239.811L59.2665 238.739L59.5847 238.053L59.9408 236.587L61.0695 234.864L61.2892 232.353L62.1832 230.5L61.7059 230.527L61.8347 229.936L64.1945 227.712L63.2741 226.614L64.4218 225.072L64.4711 224.265L63.8347 224.819L63.5695 224.531L64.3574 223.792L64.6529 222.546L63.0923 221.981L63.5923 221.22L62.437 218.148L62.6074 217.027L63.2173 216.811L63.8839 217.038L65.9521 219.603L66.8006 218.974L67.0771 219.095L67.2779 218.614L66.7779 216.057L69.1226 215.553L69.0089 216.11L68.8574 215.595L68.5809 215.796L69.2438 216.515L68.8347 217.319L69.4332 218.318L69.3574 218.803L70.1036 219.444L70.0998 219.345L71.6642 219.69L72.2817 219.216L72.1529 219.909L72.5051 220.432L72.8612 220.091L74.1188 220.023L74.1529 220.693L73.5885 221.353L73.2362 221.379L73.0051 220.739L72.3574 221.307L72.6491 222.584L71.7741 223.451L72.0961 223.955L72.4976 223.553L72.937 224.012L73.9976 223.046L74.1945 222.209L74.4559 222.443L75.3498 221.781L74.8953 221.247L75.115 220.701L75.4445 220.773L75.3877 219.989L76.2059 219.754L77.168 220.228L77.6832 219.822L77.7817 219.64L78.1301 219.019L78.9673 219.171L79.1339 219.777L79.6036 219.508L78.312 217.724L78.3461 217.33L78.5771 217.856L78.9862 217.894L79.0127 217.262Z" fill="#CCCCCC" stroke="white" stroke-width="0.5"/>
<path d="M101.675 182.061L102.417 181.667L102.376 181.319L103.285 180.266L104.114 181.061L104.311 180.701L104.902 181.061L104.997 180.72L105.588 180.629L105.701 181.152L106.262 181.508L106.273 182.262L106.849 182.186L107.966 182.921L108.644 182.91L108.811 183.989L109.557 185.008L109.887 184.963L109.629 185.247L110.391 185.489L109.951 186.125L110.209 186.69L111.588 186.394L112.095 187.459H112.273L112.542 187.391L112.535 188.148L113.027 187.978L113.095 188.341L113.519 187.754L113.811 187.819L114.224 188.803L115.144 188.963L114.959 189.94L115.251 190.504L114.94 191.307L115.338 191.3L115.114 191.614L115.413 192.144L115.088 192.277L115.334 192.857L115.864 193.125L116.576 192.864L117.444 193.542H117.569L117.974 193.819L118.288 193.565L118.33 192.061L119.243 192.432L120.012 192.046L120.527 192.572L121.107 192.322L121.08 191.16L120.258 191.012H120.126L120.061 190.55L119.281 190.489L118.584 189.644L117.955 189.447L118.262 188.557L117.894 188.5L117.963 187.804L118.891 188.042L119.652 187.038L120.114 187.239L120.762 186.747L121.489 186.917L121.826 186.595L122.19 187.201L122.599 186.955L122.781 186.883L123.262 186.75L124.444 188.432L124.754 188.372L124.656 187.769L125.701 187.97L125.876 188.576L126.868 188.281L126.955 187.769L127.591 187.72L127.656 188.383L128.137 188.232L128.618 189.084L128.027 190.239L128.334 190.773L129.205 190.959L129.05 191.368L129.398 191.247L129.516 190.493L130.876 191.417L131.001 190.652H131.099L130.879 190.47L131.307 189.997L131.114 188.834L131.474 188.864L131.118 188.285L131.675 187.955L131.035 186.447L131.251 185.296L130.8 184.595L130.788 183.47L131.735 183.232L131.83 183.591L132.099 183.069L132.588 183.016L132.569 182.345L133.186 182.262L133.16 181.883L135.213 182.243L135.451 182.694L135.319 182.993L134.951 182.902L134.959 184.777L135.69 185.254L135.504 185.705L136.031 185.247L136.47 185.315L136.379 186.432L137.383 186.614L137.417 187.41L138.334 187.012L138.607 186.459L139.144 186.349L139.894 186.932L141.906 186.368L142.05 186.61L142.652 186.118L143.243 186.239L142.978 185.91L143.463 186.072L143.629 185.724L144.728 186.364V186.86L147.107 185.58L147.83 186.167L147.732 186.637L148.095 186.47L148.546 186.902L148.406 188.326L148.887 188.19L150.069 189.269L150.095 189.035L151.167 188.974L151.387 189.557L151.978 189.993L151.826 190.341L152.334 191.152L151.315 191.652L151.163 192.141L152.019 192.762L152.58 192.656L152.811 193.591L153.163 193.489L153.368 194.027L153.709 194.046L153.516 194.213L154.16 195.186L153.641 196.175L153.769 197.413L154.538 197.974L154.94 197.86L155.591 198.648L155.254 199.326L156.618 199.531L156.872 200.292L157.114 200.031L157.838 200.864L158.633 200.921L158.667 201.326L159.364 201.421L159.391 202.088L160.073 201.694L160.785 202.216L161.008 202.561L160.323 203.432L160.493 203.906L162.171 204.478L162.243 205.224L160.97 206.875L160.982 207.557L160.421 207.648L160.175 208.58L160.364 209.485L158.656 210.444L158.697 211.125L159.622 212.576L160.72 213.186L161.546 213.213L161.698 215.75L162.482 215.694L163.19 218.724L163.955 219.144L164.315 218.929L164.501 219.258L164.247 220.982L164.807 221.864L164.819 222.561L166.054 222.925L167.235 224.031L167.788 225.8L169.429 225.887L170.251 226.447L170.239 225.679L171.739 225.91L173.254 227.33L173.788 227.387L173.906 228.849L174.398 228.879L174.576 229.364L175.061 229.508L175.224 230.205L175.853 230.565L175.788 231.148L177.247 232.243L177.41 233.55L178.785 234.406L180.08 234.232L182.595 236.618L182.834 239.076L185.054 240.743L185.364 240.697L185.357 239.732L185.936 239.542L187.114 239.682L187.796 240.879L188.288 240.455L188.133 240.841L189.307 242.982L190.383 243.076L190.91 242.766L191.538 244.625L192.235 244.83L192.762 245.993L192.531 246.622L193.368 246.959L192.273 249.016L192.694 249.519L193.307 249.629L192.705 249.891L192.963 252.697L192.406 253.36L192.417 254.141L191.652 254.872L191.383 254.508L191.088 254.902L191.152 255.675L190.754 256.319L189.167 255.607L188.887 255.095L187.735 254.428L186.944 254.663L185.379 253.584L185.319 254.107L184.588 254.807L183.974 254.516L183.69 254.732L184.141 256.417L183.383 258.417L183.69 259.368L183.008 261.402L181.163 263.163L179.258 264.364L177.489 264.281L173.607 265.629L172.076 267.364L169.966 267.644L169.421 268.891L168.258 269.656L167.925 270.497L167.258 270.379L167.05 271L167.36 272.311L169.512 274.375L170.069 276.266L171.019 276.504L171.22 277.11L171.607 276.974L173.186 280.341L171.36 283.107L171.72 283.394L170.879 284.849L171.368 285.303L172.417 285.413L173.512 284.849L175.046 286.156L174.959 286.766L175.482 288.016L174.61 289.194L174.823 289.705L174.137 290.107L174.508 290.614L173.876 291.572L174.254 292.042L174.224 293.118L173.171 294.122L172.955 293.58L172.466 293.353L172.326 293.739L170.902 292.928L170.262 292.046L169.561 291.743L169.421 291.163L168.201 290.838L167.811 289.921L168.228 289.065L168.872 288.815L167.292 287.432L167.864 286.637L167.277 286.97L166.618 286.383L165.387 286.304L164.629 286.75L163.565 286.663L162.864 288.095L161.929 287.978L160.97 288.372L159.531 286.576L159.554 285.875L157.807 286.266L157.046 285.811L155.095 286.447L154.758 285.91L155.315 284.519L155.016 284.167L154.107 285.269L152.872 285.694L153.762 287.91L153.83 289.042L153.152 289.235L153.224 288.762L152.281 289.069L150.44 288.588L149.448 288.906L149.16 288.36L148.372 288.777L146.868 288.762L145.474 289.186L145.201 289.902L143.705 289.569L140.822 289.826L140.182 289.451L140.126 289.951L139.394 290.016L139.008 291.91L138.633 292.281L137.031 292.633L135.258 292.341L134.069 293.8L134.637 293.963L134.974 294.788L132.94 294.625L131.815 295.413L131.781 296.11L131.269 296.482L130.194 296.554L130.894 295.383L129.747 295.178L127.864 295.947L127.573 296.508L124.216 296.444L124.046 295.853L124.383 295.307L123.065 293.857L123.216 293.512L121.618 293.459L121.705 292.762L122.785 292.36L122.065 291.508L119.429 292.322L118.974 291.607L117.436 291.239L117.33 290.72L115.114 290.379L114.482 291.625L113.307 291.58L111.667 290.849L112.281 289.792L111.251 289.822L111.061 290.08L111.599 290.898L111.084 292.709L111.376 293.368L111.989 293.652L112.156 295.201L111.209 295.985L111.197 297.035L110.243 297.224L108.644 299.739L106.3 300.97L105.523 300.75L104.917 301L104.997 300.072L105.845 299.493L105.482 298.947L106.391 297.008L106.152 296.803L105.807 297.099L105.084 296.629L104.637 297.5L103.512 297.277L103.038 297.97L102.36 295.963L103.194 295.368L102.913 294.478L101.978 294.031L101.701 293.262L100.667 293.425L100.338 292.898L100.538 292.713L99.8073 292.05L99.9361 291.171L99.7543 291.58L98.7316 291.762L97.7733 291.103L97.5914 291.811L96.171 291.103L96.4589 290L95.8301 289.421L94.8793 289.834L94.2619 291.622L90.9778 291.11L91.2619 289.921L91.9134 289.152L92.3793 288.841L93.5233 289.197L94.6748 288.826L95.671 288.019L95.599 287.58L96.1937 287.5L96.5536 286.982L96.5725 286.822L97.0801 286.459L99.7884 287.402L100.633 286.372L101.3 286.16L101.394 286.576L102.197 286.546L102.497 287.838L102.845 286.629L103.353 286.887L103.804 286.474L104.023 285.61L103.451 284.97L103.493 283.512L102.179 282.538L102.845 281.932L103.398 282.069L103.538 281.648L103.97 281.735L103.118 280.561L103.22 280.194L102.849 280.58L103.186 279.807L102.648 280.084L102.531 279.701L103.213 279.224L102.974 279.046L103.304 278.118L103.334 277.3L102.777 276.75V276.088L103.44 275.811L104.069 273.239L104.038 273L104.144 272.803V272.247L103.94 270.875L103.269 270.182L102.205 266.485L102.228 264.75L100.607 262.379L100.629 261.8L100.054 261.781L99.9475 261.254L101.663 259.41L101.33 259.103L101.554 258.322L102.175 258.489L103.216 257.652L103.845 258.459L104.769 258.364L105.084 257.724L106.474 257.137L106.482 256.633L106.133 256.603L106.319 256.421L108.152 256.004L107.932 255.281L108.213 254.497L107.735 253.584L107.845 253.08L108.436 252.891L106.807 250.834L106.841 250.285L107.247 250.076L107.141 249.459L107.993 250.095L108.747 249.955L109.368 251.262L110.031 250.785L110.512 249.644L111.235 249.815L110.864 249.921L110.951 250.55L110.576 250.97L111.879 250.637L112.603 250.023L112.035 249.459L112.311 249.266L111.648 248.519L111.864 248.269L111.451 248.531L110.716 247.853L111.001 247.504L110.629 246.97L111.122 246.788L110.83 245.955L111.512 245.5L111.504 244.792L110.985 244.33L111.61 243.766L111.614 242.671L110.872 242.05L111.698 241.637L111.235 241.016L111.554 240.838L111.042 240.527L110.743 239.735L110.425 239.811L110.629 239.175L110.451 239.372L110.19 238.951L109.857 239.016V238.561L109.254 238.425L109.065 237.557L108.421 237.618L107.747 237.016L106.705 237.103L106.985 236.273L106.323 235.796L106.709 235.209L106.167 235.285L105.716 234.868L106.088 234.213L106.823 233.819L106.648 233.11L105.944 232.576L105.47 232.887L105.001 231.864L104.728 232.031L104.417 231.489L103.663 231.243L103.709 230.807L104.038 230.815L103.546 229.482L103.887 229.292L103.319 229.076L103.663 228.444L103.906 228.925L104.451 228.277L103.849 227.527L104.091 226.697L103.319 226.47L103.144 225.997L103.239 225.625L103.637 225.679L103.247 224.622L104.565 224L103.887 222.447L102.932 222.076L103.19 221.527L103.603 221.489L103.08 220.47L103.603 219.788L102.694 219.69L102.845 218.849L102.205 218.41L101.588 219.038L102.103 219.497L101.357 220.004L101.088 220.686L98.8907 220.716L98.5574 220.387L98.8263 218.156H98.7278L98.7089 217.826L98.1824 217.845L98.5952 217.107L98.1975 216.91L97.3755 217.652L97.243 218.466L96.0914 218.095L96.9778 217.277L96.8377 216.637L97.5611 216.031L97.1483 214.838L96.5498 214.485L96.6255 212.607L95.7051 211.917L95.8149 211.553L94.7089 212.33L94.3074 213.152H94.0877L93.6748 211.686L92.8907 212.091L92.849 212.951L92.5043 213.114L92.3036 213.182L91.6217 212.542L92.0308 211.826L91.6634 211.512L92.1331 211.304L92.0573 210.576L92.1104 209.974L92.2051 209.296L90.599 209.781L90.224 209.622L89.9589 209.921L90.0839 211.053L89.6899 210.22L88.8907 210.288L88.6445 209.402L88.0914 209.47L87.5649 210.125L86.777 209.372L85.974 210.11L85.4892 209.769L84.9967 210.144L84.1255 210.171L84.3111 211.076L83.6558 211.281L85.5346 211.641L84.8263 212.016L85.1672 212.557L85.7467 212.572L85.8642 211.569L86.6445 212.285L86.6975 213.08L86.1824 213.739L86.6558 214.243L86.3301 214.75L85.8111 214.819L85.3793 214.303L84.8073 214.8L83.8528 214.387L83.0384 215.186L83.3793 215.894L82.777 216.671L82.5573 216.66L82.2884 217.133L81.2127 217.391L79.0119 217.262L78.5422 216.402L78.1445 216.334L78.1407 215.697L78.9892 214.887L78.6975 212.951L79.6217 212.671L79.4816 212.182L80.0914 211.178L79.1142 210.512L79.7695 209.641L79.6028 209.125L78.7013 209.3L78.3907 208.326L78.5952 207.239L78.0877 207.792L77.8036 207.512L78.0043 207.254L77.3945 207.334L77.3187 206.493L77.7354 206.47L77.0725 204.853L76.9589 202.33L77.1407 201.8L77.7127 201.747L77.349 201.338L77.2164 199.993L75.9551 199.705L76.4854 198.917L76.4664 198.069L76.9816 197.334L79.402 196.766L80.2467 197.122L80.1824 198.072L81.1331 196.754L81.0081 196.334L81.8604 195.917L82.6634 196.315L84.0043 196.512L84.4513 196.235L84.7543 196.572L85.4513 196.58L86.224 198.118L86.9892 198.341L88.8793 197.959L88.7695 196.054L89.0801 195.894L89.2657 195.281L89.2316 195.232L88.5384 194.883L88.5877 194.269L88.9551 194.038L88.4627 193.012L88.5877 192.44L89.5952 193.076L90.421 192.781L90.5801 193.19L92.5498 192.747L92.5763 192.463L91.902 192.103L92.3036 191.326L93.4475 190.955L94.5346 189.868L94.5422 188.675L94.2127 188.133L94.9058 185.508L95.368 185.75L95.8793 185.508L96.0346 185.959L97.2392 186.576L97.5384 186.076L97.8073 186.463L98.2846 186.315L99.6672 185.546L100.629 184.118L101.107 183.932L101.675 182.061Z" fill="#CCCCCC" stroke="white" stroke-width="0.5"/>
<path d="M184.592 98.6134L184.618 98.6286L184.887 98.4998L184.861 99.0263L185.724 99.5604L185.111 101.03L185.372 101.644L186.383 101.826L187.164 102.496L187.205 103.367L188.429 103.655L188.239 104.079L188.929 104.125L187.819 106.424L188.114 106.644L188.709 106.14L190.118 107.091L189.986 106.579L191.387 107.553L190.917 107.985L190.565 107.901L190.993 108.106L191.005 108.197L190.887 108.212L190.751 108.454L190.917 108.886L190.679 109.28L189.645 109.81L189.967 110.257L189.319 110.598L188.717 111.682L188.448 111.401L188.622 110.17L188.266 109.947L187.724 110.25L187.357 109.526L186.039 109.682L186.012 109.261L184.66 109.424L184.338 108.477L183.217 108.867L183.209 110.212L182.459 110.14L182.402 109.727L182.016 109.716L181.364 108.848L180.808 109.136L180.433 109.015L180.255 108.61L179.698 109.079L179.092 109.072L179.012 108.458L178.524 108.409L177.122 109.004L176.906 109.386L177.213 109.435L176.289 109.621L176.16 109.629L176.399 109.318L175.569 108.844L175.452 108.78L175.277 108.776L175.429 108.363L176.069 107.742L175.755 107.295L175.955 106.151L177.141 104.92L176.561 104.511L175.936 104.621L176.175 103.314L176.626 103.208L176.815 102.333L176.217 101.871L177.065 101.382L178.338 101.818L177.974 101.064L178.436 100.223L179.474 100.246L179.41 99.7346L179.933 99.6626L179.94 98.9126L180.584 99.049L180.577 100.182L181.789 100.39L182.626 99.4202L183.323 99.8975L183.834 99.3293L184.467 99.2952L183.978 98.8331L184.19 98.5679L184.535 98.3672L184.679 98.4089L184.592 98.6134Z" fill="#CCCCCC" stroke="white" stroke-width="0.5"/>
<path d="M131.248 80.4887L134.286 80.9394L134.392 79.8031L134.968 79.7425L135.437 79.9849L135.979 79.7728L136.184 80.3144L136.953 80.5644L137.65 80.375L138.233 79.8637L138.089 79.3409L138.49 78.7576L138.108 76.9773L138.975 76.7993L139.93 75.75L140.911 75.5568L142.377 76.0531L142.449 76.6326L143.532 76.2462L144.547 76.3485L144.847 75.8864L144.025 75.2046L145.562 75.3864L146.339 74.25L147.706 74.5114L148.305 73.3978L148.805 73.644L149.49 73.2841L149.354 71.9281L150.388 71.2538L150.07 70.3864L150.892 70.5606L150.949 71.4015L151.661 71.5076L152.619 70.8296L153.055 71.7046L153.453 71.5644L153.498 71.1553L154.525 70.9281L155.199 72.3409L156.453 72.1705L158.437 73.2955L158.453 73.9394L159.286 74.3296L159.699 75.3561L161.634 74.7728L163.57 75.5872L164.926 75.1894L165.282 75.3826L165.032 76.0076L165.468 76.2879L167.203 76.4015L166.771 77.3523L167.525 77.8523L169.392 77.2879L170.134 78.1515L170.752 77.5796L171.369 77.519L171.161 77.822L171.627 77.8788L171.566 77.5644L172.248 77.322L172.631 77.6705L171.733 78.3637L172.123 78.2197L172.517 78.8788L173.233 78.6932L174.051 77.5417L174.975 77.3447L175.187 76.8106L175.653 76.7425L175.627 75.9281L176.233 75.9356L176.725 75.3485L177.536 75.375L178.017 76.4697L178.68 76.7235L179.032 75.1137L180.354 74.1402L181.282 74.4432L181.82 74.2614L182.437 75.6781L182.907 75.4318L182.865 75.3637L183.695 73.9508L183.65 73.4091L184.078 73.394L184.267 73.7803L184.797 73.644L185.229 72.3031L185.703 72.5455L185.551 71.2046L185.748 70.6591L186.195 70.7159L186.54 70.2008L186.392 69.3561L187.259 68.7538L188.214 68.8864L188.384 67.6137L190.331 66.0038L190.949 65.8296L191.82 66.3144L192.714 65.8409L192.956 65.3561L191.794 64.6591L192.237 62.8447L192.956 64.5L194.271 65.0417L194.222 66.2803L195.176 67.1061L194.831 68.019L195.214 68.394L197.248 67.8788L198.343 68.0758L198.479 68.7425L199.32 68.8485L200.176 67.625L201.593 68.3826L202.275 68.322L202.623 67.8826L203.032 68.1402L203.15 69.7614L202.699 70.9394L200.384 73.4129L199.608 74.8637L201.089 74.6743L202.358 75.1781L203.559 74.9697L203.597 74.2879L204.528 73.9091L204.911 72.8978L205.646 72.947L207.187 72.1137L207.407 74.2273L207.854 74.3296L208.036 74.8523L206.994 76.9697L206.331 77.4053L206.115 78.9432L206.585 79.7538L206.025 82.2614L205.555 83.3106L203.506 85.2462L200.729 86.9546L201.123 90.0152L200.21 91.8637L200.672 92.4129L202.513 92.7273L203.972 94.3902L205.729 95.3485L208.449 98.8902L211.657 100.981L212.646 102.432L211.82 103.958L212.532 105.655L211.237 107.583L210.494 107.92L210.134 109.432L210.79 112.042L211.32 112.833L211.119 113.553L211.54 114.201L213.847 114.89L214.468 115.678L214.286 116.758L213.782 117.242L214.244 118.246L213.646 119.33L213.695 120.398L215.555 122.386L215.225 122.83L215.29 123.705L214.483 124.852L214.657 125.239L214.263 125.89L214.634 127.205L214.013 128.811L211.972 130.614L211.502 131.716L211.892 132.587L212.839 132.951L213.388 135.663L215.051 137.125L215.525 138.216L215.706 140.265L214.869 141.239L214.066 140.629L214.229 141.379L213.646 142.356L212.097 142.47L211.638 141.633L210.949 141.299L210.388 141.595L210.233 142.117L208.214 142.186L208.047 142.742L206.623 142.784L205.509 143.686L205.294 144.273L205.085 143.958L205.07 143.777L203.767 143.152L203.184 143.33L202.407 142.875L200.57 142.724L200.373 143.155L200.638 143.496L199.797 143.591L199.536 144.481L199.047 144.686L199.377 145.288L198.062 145.33L198.752 146.515L198.15 146.894L198.35 147.538L197.642 148.064L197.911 148.394L197.35 148.451L197.214 149.284L196.54 149.155L196.559 148.5L196.256 148.379L194.979 149.023L193.256 148.841L192.888 149.424L192.013 149.386L191.775 149.689L191.612 149.386L190.99 149.716L189.199 149.148L188.987 149.424L187.487 149.447L187.29 148.875L186.831 148.822L186.222 149.424L186.07 148.955L185.733 148.936L185.65 148.17L184.275 147.78L184.525 147.523L183.869 146.989L183.256 147.394L183.422 146.932L182.744 146.193L182.176 146.856L182.237 147.277L180.915 146.833L181.044 147.25L180.021 147.818L180.006 148.311L179.403 148.242L179.555 148.841L178.29 148.405L177.775 146.856L177.661 147.337L177.339 147.174L178.009 146.299L177.509 145.364L177.566 144.716L177.972 144.686L178.115 143.462L177.581 142.178L176.578 141.724L177.002 140.761L176.059 139.724L175.21 140.167L174.392 138.72L176.699 137.227L177.002 136.917L176.809 136.205L177.604 135.985L176.809 134.875L177.093 134.636L176.687 133.974L177.051 132.508L176.062 130.557L176.797 130.383L176.472 129.644L176.017 129.561L175.085 130.099L174.123 129.977L173.805 129.621L174.07 129.625L174.222 128.852L172.472 128.871L172.517 128.038L172.059 127.958L172.108 127.47L171.176 127.311L170.441 127.777L170.373 127.511L169.551 127.474L169.373 126.193L167.805 126.394L167.218 125.458L165.184 124.47L164.816 124.443L164.54 125.159L163.812 125.261L163.763 125.64L162.013 125.504L161.919 124.841L160.824 124.405L160.555 123.636L160.119 123.595L159.85 124.273L159.479 124.303L158.369 123.258L157.642 123.08L156.536 121.337L155.627 120.864L155.297 119.765L154.252 118.326L154.46 117.72L154.934 117.727L154.953 116.655L156.161 116.008L155.256 115.742L155.551 115.542L154.907 115.064L155.657 112.534L156.4 111.352L155.801 110.591L156.331 110.106L156.044 109.784L156.225 108.97L155.581 108.655L156.131 108.299L155.941 108.03L156.968 106.159L156.43 105.739L156.953 105.402L155.513 105.803L155.244 105.447L155.494 105.246L154.831 104.409L154.244 105.22L153.453 105.417L153.009 104.705L153.562 103.962L153.112 103.693L152.449 104.053L153.316 102.292L153.07 100.277L153.858 100.53L154.513 100.117L154.559 99.7387L154.706 98.0493L154.29 97.7311L154.415 97.144L153.983 96.8447L154.062 96.5L153.775 96.5758L154.335 95.5379L154.021 94.9622L154.297 93.8031L155.006 93.7349L155.199 93.1288L154.615 90.8788L153.82 90.6212L153.665 90.2197L151.998 91.2311L151.953 89.6137L151.665 90.3069L149.509 89.7652L148.468 90.3447L146.305 89.5871L145.767 89L144.919 88.9887L144.627 88.519L145.263 87.7387L145.161 87.2765L143.759 86.947L142.699 85.8068L141.551 86.2728L141.134 85.0417L139.911 84.9015L140.244 83.8334L139.29 83.9243L138.04 83.2197L137.108 83.4129L135.767 82.2046L133.006 83.1288L131.419 81.4129L131.248 80.4887ZM184.191 98.5682L183.979 98.8334L184.468 99.2955L183.835 99.3296L183.324 99.8978L182.627 99.4205L181.79 100.39L180.578 100.186L180.585 99.0493L179.941 98.9129L179.934 99.6629L179.411 99.7349L179.475 100.246L178.437 100.224L177.975 101.064L178.339 101.818L177.066 101.383L176.218 101.875L176.816 102.333L176.627 103.208L176.172 103.314L175.934 104.621L176.562 104.511L177.138 104.92L175.953 106.155L175.752 107.299L176.066 107.746L175.43 108.367L175.278 108.78L175.453 108.784L175.57 108.849L176.4 109.322L176.161 109.633L176.29 109.625L177.214 109.439L176.907 109.386L177.123 109.004L178.525 108.413L179.013 108.462L179.093 109.08L179.695 109.087L180.252 108.617L180.43 109.019L180.805 109.14L181.362 108.852L182.013 109.72L182.396 109.731L182.453 110.14L183.203 110.216L183.21 108.871L184.331 108.481L184.653 109.428L186.006 109.265L186.028 109.682L187.347 109.527L187.718 110.25L188.259 109.947L188.612 110.17L188.437 111.402L188.706 111.682L189.309 110.602L189.953 110.258L189.631 109.811L190.665 109.28L190.903 108.886L190.74 108.451L190.877 108.208L190.994 108.193L190.983 108.102L190.555 107.898L190.907 107.981L191.377 107.549L189.975 106.576L190.108 107.087L188.699 106.14L188.104 106.644L187.809 106.428L188.918 104.125L188.229 104.08L188.419 103.655L187.195 103.367L187.153 102.496L186.373 101.826L185.358 101.644L185.097 101.03L185.71 99.5606L184.847 99.0303L184.869 98.5038L184.6 98.6326L184.665 98.4129L184.521 98.375L184.324 98.644L184.191 98.5682Z" fill="#CCCCCC" stroke="white" stroke-width="0.5"/>
<path d="M64.2122 76.2955L64.485 76.2576L65.7388 77.0304L66.3297 76.697L66.8259 76.8978L66.36 77.7235L67.11 77.7387L67.4168 78.5001L68.7236 78.3713L69.2615 77.9698L69.4016 78.3031L69.9547 78.1705L70.3032 78.8296L72.3978 78.8144L72.6441 79.091L72.716 79.4432L73.1744 80.0038L73.216 80.1288L74.4282 80.0872L75.1744 79.2955L76.1062 80.3296L75.2577 80.7425L75.6213 81.4054L76.2615 81.5038L75.6024 82.0076L75.6668 83.0076L76.0531 83.5531L74.9963 84.4357L74.9395 84.8485L73.9585 84.8448L73.2766 83.7955L73.2539 84.5379L72.2122 84.5948L71.1365 83.8296L71.0039 83.269L70.6062 83.8637L69.7047 83.8258L69.3941 83.216L69.5191 82.3599L68.4433 81.769L68.5304 81.2766L67.5835 79.8485L67.3145 78.7008L64.6933 77.4735L64.591 77.3448L64.0039 76.3864L64.1933 76.2463L64.2122 76.2955ZM64.9471 60.9811L66.6895 61.4963L67.2388 61.0266L67.9622 61.1402L67.8978 60.8145H68.3145L67.288 62.2387L67.5494 62.9584L67.9547 63.0342L67.7994 64.1175L68.0835 64.6819L67.6516 65.4508L67.0304 65.9205L66.5342 65.5682L66.2388 65.8296L65.5948 64.4508L65.7956 64.3182L66.1213 64.3637L66.1516 63.4432L66.3334 63.6213L65.8827 63.144L65.9206 62.1402L65.663 62.1061L65.591 62.6288L64.9471 60.9811Z" fill="#CCCCCC" stroke="white" stroke-width="0.5"/>
<path d="M94.1367 62.955L95.1254 59.9133L95.1594 60.5118L95.7466 60.7012L95.8185 61.4436L96.6973 61.7504L98.0079 60.2731L98.3943 59.08L100.141 59.3262L100.625 57.9133L102.231 58.0421L102.538 56.9701L102.292 56.7125L102.61 56.3186L103.587 56.6027L104.735 55.5762L105.349 55.8906L105.315 56.1747L105.069 56.7656L104.462 56.9739L104.523 57.5269L104.129 58.0383L105.125 58.6178L105.466 59.2504L105.277 59.633L106.008 59.8262L105.266 60.6974L105.455 61.7769L104.296 62.2883L104.565 64.3451L105.182 64.7694L105.754 64.4171L106.474 65.9739L107.72 67.2012L108.534 67.33L108.106 67.955L107.027 68.4966L106.428 69.4625H104.875L101.917 66.7428L101.811 67.4095L101.144 67.4247L101.394 67.9019L100.296 68.6557L99.2541 68.1822L98.6178 68.7504L98.4057 68.6671L98.7466 67.8754L98.3299 67.0421L97.3072 67.7466L97.3185 68.1027L96.0004 66.758L95.9246 65.58L95.4132 65.6481L95.4738 65.2845L94.9322 64.9019L95.2996 64.4474L94.989 63.6103L95.2087 63.0913L94.1367 62.955Z" fill="#CCCCCC" stroke="white" stroke-width="0.5"/>
<path d="M87.4103 138.739L88.4936 138.341L88.3875 139.155L88.8232 139.515L89.6603 138.996L90.2739 139.602L91.63 139.148L91.9103 140.204L93.1679 141.432L92.8951 141.795L91.7171 141.155L91.63 141.704L92.1224 142.417L91.5542 142.534L91.13 142.045L91.505 143.125L90.6527 143.761L92.0315 145.553L91.6565 146.477L92.0618 147.568L91.6906 148.072L90.4709 148.223L90.0125 149.068L90.4406 149.39L90.2398 149.735L89.3459 149.542L90.0694 150.398L91.1072 151.174L91.7739 151.144L91.736 151.682L92.6906 151.424L94.236 152.311L95.0618 151.875L95.1679 150.712L94.361 151.375L93.4671 149.667L94.4444 149.401L95.1338 148.735L95.8004 148.833L95.7285 147.966L96.2815 147.822L96.7739 148.182L96.8004 148.909L97.4065 149.375L97.058 147.716L97.7285 148.068L97.8194 147.704L98.2891 147.598L98.9822 148.549L98.9216 149.227L98.8459 150.034L99.4103 151.371L99.1906 151.852L99.9103 152.114L99.9898 152.723L101.997 152.951L101.797 153.913L102.535 154.318L102.316 154.951L103.384 155.379L104.013 155.17L104.244 155.686L104.656 155.511L105.384 156.265L106.38 156.523L105.535 157.848L105.766 158.829L105.46 159.322L104.664 157.78L103.547 158.311L104.876 159.189L104.168 160.405L104.388 161.004L104.069 161.364L105.626 162.295L105.857 162.648L105.331 162.932L105.603 163.345L104.21 163.92L103.55 163.246L103.145 163.492L101.615 163.144L101.138 164.352L101.653 164.886L101.706 165.587L102.194 165.757L101.372 166.034L101.255 165.807L100.96 166.148L99.4671 165.852L99.5542 166.568L99.8118 166.216L100.372 166.254L99.9822 167.159L100.956 166.632L101.888 167.451L101.812 167.867L102.096 167.837L102.126 168.132L101.213 168.773L101.187 169.436L101.588 169.269L101.323 169.966L100.816 169.867L100.6 170.299L100.217 170.125L100.062 170.068L99.5239 170.477L99.3042 171.299L99.5391 172.284L98.8724 172.269L98.7739 172.845L99.1792 172.973L99.2171 173.606L98.4519 174.879L98.8004 175.314L97.7436 176.22L97.6792 177.352L99.6944 177.765L99.8838 177.314L99.4292 176.731L99.5429 176.329L100.675 175.985L101.967 176.186L102.656 178.026L101.853 177.992L101.562 178.477L102.145 180.557L101.6 181.564L101.675 182.061L101.107 183.932L100.63 184.117L99.6678 185.545L98.2853 186.314L97.808 186.462L97.5391 186.076L97.2398 186.576L96.0353 185.958L95.88 185.507L95.3686 185.75L94.9065 185.507L94.2133 188.132L94.5428 188.674L94.5353 189.867L93.4482 190.954L92.3042 191.326L91.9027 192.102L92.5769 192.462L92.5504 192.746L90.5807 193.189L90.4216 192.78L89.5959 193.076L88.5883 192.439L88.4633 193.011L88.9557 194.038L88.5883 194.269L88.5391 194.882L89.2322 195.231L89.2663 195.28L89.0807 195.894L88.7701 196.053L88.88 197.958L86.9898 198.341L86.2247 198.117L85.4519 196.579L84.755 196.572L84.4519 196.235L84.005 196.511L82.6641 196.314L81.861 195.917L81.0088 196.333L81.1338 196.754L80.183 198.072L80.2474 197.121L79.4027 196.765L76.9822 197.333L76.4671 198.068L76.486 198.917L75.9557 199.704L77.2171 199.992L77.3497 201.337L77.7133 201.746L77.1413 201.799L76.9595 202.329L77.0732 204.852L77.736 206.47L77.3194 206.492L77.3951 207.333L78.005 207.254L77.8042 207.511L78.0883 207.792L78.5959 207.239L78.3913 208.326L78.7019 209.299L79.6035 209.125L79.7701 209.64L79.1148 210.511L80.0921 211.178L79.4822 212.182L79.6224 212.67L78.6982 212.951L78.9898 214.886L78.1413 215.697L78.1451 216.333L78.5429 216.401L79.0125 217.261L78.9444 217.898L78.5353 217.864L78.3042 217.333L78.2701 217.727L79.5618 219.511L79.0921 219.784L78.9254 219.178L78.0883 219.026L77.7398 219.651L77.6413 219.833L77.1262 220.235L76.1641 219.761L75.3459 219.996L75.4027 220.776L75.0769 220.708L74.8572 221.25L75.308 221.784L74.4179 222.447L74.1565 222.216L73.9557 223.049L72.8951 224.015L72.4557 223.557L72.0504 223.962L71.7285 223.458L72.6035 222.591L72.3118 221.314L72.9633 220.746L73.1944 221.39L73.5466 221.364L74.111 220.704L74.0769 220.03L72.8194 220.098L72.4633 220.439L72.111 219.917L72.2398 219.223L71.6262 219.697L70.0618 219.352V219.454L69.3156 218.811L69.3951 218.326L68.7966 217.326L69.2019 216.526L68.5428 215.803L68.8194 215.602L68.9709 216.121L69.0845 215.564L66.7398 216.068L67.2398 218.625L67.0391 219.11L66.7625 218.985L65.9141 219.614L63.8459 217.049L63.1792 216.822L62.5694 217.038L61.6413 215.451L61.0429 213.007L62.9444 211.894L63.9406 210.398L63.7588 210.14L62.5997 210.159L61.5428 208.132L61.6678 206.901L60.7057 206.095L60.9519 204.595L60.1565 202.398L58.2815 200.496L56.8194 200.201L53.3497 201.379L51.6338 202.345L49.6148 202.572L49.1754 202.254L48.8345 201.034L46.9141 199.36L47.6262 198.386L48.4709 198.375L48.3004 197.829L48.8042 196.754L49.5731 197.227L50.005 196.962L50.6868 197.667L50.4747 196.485L50.7474 196.11L49.5845 195.197L49.5542 194.697L50.2057 194.242L50.2095 193.882L51.0807 193.644L51.1792 193.28L52.0391 192.966L52.0921 192.587L52.6754 193.337L53.1716 193.409L53.6565 192.61L53.558 192.477L52.9141 191.845L53.2625 191.337L54.1565 191.284L54.3194 191.693L54.9557 191.735L55.2625 190.28L54.8648 189.882L54.8459 189.246L54.1262 189.038L54.236 188.451L53.8307 187.447L53.4974 187.417L53.4292 187.023L52.7663 187.061L52.9178 186.462L52.0391 186.496L51.5088 186.061L52.0315 185.614L52.0997 185.174L51.7853 185.038L52.6375 184.454L51.8535 183.163L52.2625 181.742L53.4292 180.504L54.0921 181.204L54.8686 181.413L55.6489 180.754L56.0391 178.924L55.4216 178.526L55.755 177.67L55.0239 176.632L55.38 175.651L56.4141 173.803L55.5088 172.087L55.6035 171.697L55.755 171.648L58.8118 168.22L59.4065 168.178L59.7663 168.97H61.0353L62.808 166.807L63.4785 166.761L63.236 165.913L63.4368 164.966L63.9141 164.841L63.8345 164.564L65.3421 162.917L64.9027 161.985L64.5656 162.102L65.0921 161.227L64.5012 160.595L65.1148 159.939L65.8421 159.712L68.2285 160.034L68.8913 159.526L69.7625 159.451L69.2966 158.936H69.2057L69.1792 158.398L70.6792 156.871L70.4179 156.038L70.8989 155.648L70.2663 155.265L69.9368 154.023L70.1489 153.591L69.8004 153.155L69.0769 153.064L66.7512 154.178L65.8232 153.015L67.3421 150.754L67.7474 150.458L68.1679 150.625L68.2777 150.026L68.8232 149.848L68.7095 149.413L69.13 149.189L70.0277 149.352L71.755 148.644L72.5807 148.723L73.0125 149.151L73.8913 148.564L75.0239 148.701L75.2436 147.223L74.5769 147.102L74.5694 146.413L73.8913 145.125L76.9671 143.723L77.4671 144.318L78.3762 144.292L78.7247 144.602L78.4141 145.75L78.8307 146.557L79.8156 146.337L80.3686 146.61L80.9519 145.742L81.7398 145.996L81.9368 144.807L82.8875 144.47L83.3345 143.875L83.9444 143.89L84.1375 142.39L85.4974 140.894L84.6603 139.985L86.7133 139.394L87.4103 138.739Z" fill="#CCCCCC" stroke="white" stroke-width="0.5"/>
<path d="M192.626 38.0306L193.361 39.7768L194.202 40.792L197.668 42.7579L202.729 47.8337L201.717 48.4435L202.422 48.9587L202.388 50.3261L198.157 50.042L197.032 51.0874L195.801 51.2806L195.388 50.97L195.869 51.0723L196.126 50.6708L195.52 50.0344L195.107 51.3071L194.316 51.4284L193.047 51.0079L193.297 50.1329L194.77 49.8526L195.736 48.614L195.361 46.9435L194.74 46.3071L195.035 45.3374L196.369 45.3412L196.229 47.5723L196.433 46.6443L196.835 46.4549L197.789 46.4321L197.498 46.8943L198.217 47.2541L198.388 45.5231L198.21 44.4056L197.672 44.0268L197.391 44.4473L197.123 43.1178L196.524 42.2579L195.062 42.2882L194.998 43.1329L195.623 43.7238L195.456 44.22L195.198 44.0117L195.35 43.4511L194.808 44.3564L193.854 44.864L193.687 44.3071L194.327 43.2996L193.766 42.9094L192.384 44.1102L191.649 44.0799L191.569 43.6215L191.986 43.2882L192.596 41.5647L192.672 40.4359L192.141 40.2617L191.323 39.239L191.141 38.3602L192.058 37.7541L192.626 38.0306ZM176.248 32.2352L176.005 32.4738L175.812 32.0534L176.115 31.9056L176.248 32.2352ZM185.808 31.8867L185.74 32.1405L185.604 31.8753L186.191 31.1859L186.285 31.5609L185.808 31.8867ZM165.944 27.239L166.554 27.7844L165.259 27.7427L165.611 27.167L165.944 27.239ZM171.812 26.6594L172.202 26.8753L171.255 27.0193L171.369 26.6481L171.812 26.6594ZM174.365 26.4435L172.437 26.97L173.096 26.4965L173.884 26.4624L174.259 25.9359L174.365 26.4435ZM161.774 25.0382L161.422 25.3829L162.551 26.2049L165.081 26.6708L171.077 26.5458L171.312 27.292L170.096 27.8337L168.846 27.5496L168.331 28.0685L167.929 27.7579L166.732 27.7768L166.357 27.1102L165.596 27.1291L165.005 28.0685L164.304 27.7617L164.342 27.364L163.793 28.1291L162.861 28.2731L163.376 28.7768L163.217 29.1481L163.081 28.8374L162.297 28.8299L161.634 29.2162L161.505 29.489L161.888 29.8791L162.342 29.3223L162.645 29.5874L163.914 29.542L165.051 28.8602L165.062 28.0837L166.009 27.9549L166.179 28.2958L165.528 28.4587L165.672 29.0306L165.274 29.6329L165.528 29.6632L165.854 28.4814L166.194 28.4776L166.319 29.5837L166.702 29.6481L166.926 29.1329L167.471 29.6102L167.937 28.595L168.547 30.7427L170.221 29.7541L170.6 28.3905L171.251 27.8829L172.801 27.3526L173.331 26.845L173.823 26.9473L173.729 28.5534L174.263 29.2238L175.005 29.1897L175.342 29.7503L174.929 30.667L175.225 31.7428L175.876 32.5382L175.63 33.3071L176.335 33.8715L177.104 33.4965L177.433 33.8109L176.588 34.489L177.623 33.9511L178.316 35.0193L180.085 35.2465L180.967 37.345L182.043 37.4321L181.304 37.6064L180.748 38.3261L182.179 37.6443L182.937 38.0382L182.592 37.4473L183.16 37.739L183.104 38.3109L182.952 38.1215L182.27 38.6594L182.312 38.9549L182.994 38.4814L182.918 38.8678L183.456 39.2655L184.391 41.3261L185.179 41.3564L184.604 40.1102L184.941 39.7768L188.183 39.095L189.861 37.8147L190.263 37.9321L190.391 38.2087L189.895 38.4018L189.956 38.7465L190.785 39.2844L191.183 39.1291L191.297 39.9435L192.46 40.8337L192.134 42.2579L191.789 42.4511L191.933 42.9511L191.051 43.7124L191.361 43.7276L191.452 44.2541L192.251 45.0496L193.21 45.5041L193.751 46.9208L194.357 46.9587L195.16 48.0685L194.873 48.5761L193.971 48.9814L193.539 49.8753L192.998 49.9246L193.013 50.4132L192.547 50.6253L192.823 51.3034L193.668 51.3374L194.804 52.9284L195.229 52.8223L196.498 54.1708L199.717 55.4927L201.244 55.4056L201.641 55.6784L202.827 54.6215L203.687 55.1443L203.664 55.8791L202.433 57.0155L203.816 57.2731L204.005 57.6594L203.748 58.4814L204.081 58.7011L204.104 59.792L204.895 60.4852L204.664 63.47L205.126 65.0268L205.785 65.5799L206.717 71.1367L207.191 72.1064L205.649 72.9397L204.914 72.8905L204.532 73.9018L203.6 74.2806L203.562 74.9624L202.361 75.1708L201.092 74.667L199.611 74.8564L200.388 73.4056L202.702 70.9321L203.153 69.7541L203.035 68.1329L202.626 67.8753L202.278 68.3147L201.596 68.3753L200.179 67.6177L199.323 68.8412L198.482 68.7352L198.346 68.0685L197.251 67.8715L195.217 68.3867L194.835 68.0117L195.179 67.0988L194.225 66.2731L194.274 65.0344L192.96 64.4927L192.24 62.8374L191.797 64.6518L192.96 65.3488L192.717 65.8337L191.823 66.3071L190.952 65.8223L190.335 65.9965L188.388 67.6064L188.217 68.8791L187.263 68.7465L186.395 69.3488L186.543 70.1935L186.198 70.7087L185.751 70.6518L185.554 71.1973L185.706 72.5382L185.232 72.2958L184.801 73.6367L184.27 73.773L184.081 73.3867L183.653 73.4018L183.698 73.9435L182.869 75.3564L182.91 75.4246L182.441 75.6708L181.823 74.2541L181.285 74.4359L180.357 74.1329L179.035 75.1064L178.683 76.7162L178.02 76.4624L177.539 75.3677L176.729 75.3412L176.236 75.9284L175.63 75.9208L175.657 76.7352L175.191 76.8034L174.979 77.3374L174.054 77.5344L173.236 78.6859L172.52 78.8715L172.126 78.2124L171.736 78.3564L172.634 77.6632L172.251 77.3147L171.569 77.5571L171.63 77.8715L171.164 77.8147L171.373 77.5117L170.755 77.5723L170.138 78.1443L169.395 77.2806L167.528 77.845L166.774 77.345L167.206 76.3943L165.471 76.2806L165.035 76.0003L165.285 75.3753L164.929 75.1821L163.573 75.5799L161.638 74.7655L159.702 75.3488L159.289 74.3223L158.456 73.9321L158.441 73.2882L156.456 72.1632L155.202 72.3337L154.528 70.9208L153.501 71.1481L153.456 71.5571L153.058 71.6973L152.623 70.8223L151.664 71.5003L150.952 71.3943L150.895 70.5534L150.073 70.3791L150.391 71.2465L149.357 71.9208L149.494 73.2768L148.808 73.6367L148.308 73.3905L147.71 74.5041L146.342 74.2427L145.566 75.3791L144.028 75.1973L144.85 75.8791L144.551 76.3412L143.535 76.239L142.452 76.6253L142.38 76.0458L140.914 75.5496L139.933 75.7428L138.979 76.792L138.111 76.97L138.494 78.7503L138.092 79.3337L138.236 79.8564L137.653 80.3677L136.956 80.5571L136.187 80.3071L135.982 79.7655L135.441 79.9776L134.971 79.7352L134.395 79.7958L134.289 80.9321L131.251 80.4814L130.244 79.6102L129.24 79.9018L129.009 79.0609L129.551 78.1443L126.963 76.7996L125.475 74.1594L125.047 74.1064L124.505 71.9776L123.604 71.9397L122.835 71.3753L120.838 73.1443L119.016 72.1859L119.092 71.7465L118.532 71.5837L117.562 70.4814L115.043 70.739L115.547 70.0079L115.96 67.1178L116.456 66.8374L117.399 67.0534L117.63 66.1443L118.944 65.9511L119.687 64.8412L120.6 64.7162L120.346 64.4284L120.812 63.5496L120.535 62.2352L120.929 62.167L121.21 62.6443L122.664 62.3715L123.115 60.0155L123.668 59.2314L123.422 57.7503L122.891 57.5382L122.963 57.1556L121.21 57.0458L120.282 56.292L120.123 55.5837L118.994 55.0117L119.096 54.3185L119.354 53.345L118.763 50.9473L119.316 50.0799L120.024 49.9321L120.399 49.2087L121.073 49.0685L121.941 47.9473L122.71 48.3374L122.479 48.6746L122.683 49.0382L123.99 48.6481L122.251 48.0344L122.501 46.6556L125.766 44.6291L129.172 44.2617L129.854 45.3677L131.096 45.5458L130.687 46.6935L131.043 47.5268L131.793 47.6859L132.929 46.5534L133.717 47.5761L134.619 47.5231L134.569 48.1064L135.232 48.4624L135.354 49.0079L135.922 49.1102L135.566 48.5155L136.429 47.8337L136.498 46.2238L136.221 46.3943L136.024 46.114L135.581 46.5609L135.558 44.9359L135.141 45.4814L135.244 46.4321L134.426 45.9473L134.149 46.2276L134.713 46.2768H134.206L133.899 45.6594L134.153 44.7882L135.634 43.9359L136.676 43.9549L136.126 45.9624L136.668 46.2124L136.907 45.4927L136.683 45.1556L137.153 44.3223L137.729 44.0571L137.38 43.5723L138.115 43.8147L138.687 43.4776L138.869 42.2731L139.842 41.7276L139.929 41.1556L139.418 40.6367L137.649 42.8867L137.547 41.845L138.297 40.9511L139.513 40.47L141.229 38.6102L143.1 38.5231L145.263 38.9132L149.221 37.5609L151.967 37.3223L153.433 35.1064L157.058 32.7011L158.801 29.3261L160.202 27.6632L161.013 25.3829L161.774 25.0382ZM176.638 20.0458L176.88 21.2541L176.63 20.2655L176.638 21.2162L176.373 20.6177L176.528 20.1556L175.77 20.8412L175.899 22.7276L174.873 24.3034L174.676 26.0231L174.573 25.2579L175.482 21.8829L175.513 20.542L176.088 19.9814L176.638 20.0458ZM183.524 16.667L183.437 17.6291L182.573 18.0003L182.168 18.7314L182.543 20.1784L183.217 21.0382L184.229 21.3715L188.384 20.7617L189.448 21.6329L189.456 22.9928L186.967 25.2541L186.944 26.4587L187.88 28.2617L189.304 28.4056L190.668 30.3071L191.569 30.8602L190.952 31.0799L190.456 32.0496L190.566 33.5647L190.229 33.8488L189.607 33.22L190.202 33.3791L190.024 32.7087L189.02 33.0571L188.668 32.6556L189.971 31.8677L190.073 31.4511L189.289 31.3071L187.804 31.8677L189.418 30.9662L189.615 30.4246L188.641 30.5799L187.944 31.3147L187.194 30.3602L186.433 30.8905L185.225 30.8185L183.255 32.4473L182.403 33.97L182.52 33.4208L181.604 33.8071L181.732 34.7655L181.907 34.0496L182.266 34.4776L182.857 34.0231L183.191 34.4587L183.357 35.1026L182.569 35.8071L180.123 34.6026L180.873 34.8185L181.168 33.4511L180.566 33.9662L180.819 34.2996L179.588 34.4738L178.407 33.4511L177.941 33.7958L177.793 32.7049L176.498 33.3109L176.865 32.3981L177.577 32.5496L175.876 31.2276L176.191 29.6329L177.846 29.4284L178.429 29.7617L179.399 29.0799L178.823 28.9208L178.668 28.364L179.229 28.1708L178.725 28.2579L178.213 27.1935L176.732 27.4928L177.414 26.1177L176.111 26.6973L176.035 26.4587L177.198 24.614L178.588 24.9284L178.479 25.7579L177.607 25.7503L177.513 26.1177L177.907 26.4738L178.073 25.9473L179.187 25.7958L178.683 25.614L179.63 25.1291L178.607 24.8981L178.676 23.8564L177.903 24.1746L177.206 23.97L176.588 22.3867L179.001 22.0231L180.069 22.5647L180.043 23.3981L180.441 23.7124L180.623 23.2731L180.27 22.1064L181.657 20.9738L182.005 21.1367L181.27 22.292L181.679 22.4321L182.157 21.8299L183.085 23.5003L183.047 24.5685L183.766 24.845L183.975 25.5003L184.501 25.0458L185.236 25.0912L185.498 23.1329L184.96 21.8791L185.399 21.9132L185.437 21.6064L184.91 21.7427L184.933 22.1973L183.846 22.1821L183.35 21.47L182.577 21.2617L182.02 19.5647L181.016 20.4321L181.145 20.8753L178.975 21.8602L179.944 19.4624L179.967 18.2731L178.585 19.1329L178.842 20.3715L176.986 21.8829L177.077 21.4056L178.35 20.2882L178.38 18.5988L179.035 17.7617L180.088 17.0609L183.524 16.667Z" fill="#CCCCCC" stroke="white" stroke-width="0.5"/>
<path d="M23.7093 61.2496L22.3229 61.3822L21.4214 61.8519L22.4176 62.5261L22.0805 63.0034L21.7434 62.4693L21.1941 62.8708L19.9062 61.814L20.0161 61.1473L22.1979 60.3784L23.7093 61.2496ZM25.9972 59.1928L25.5691 59.4125L26.1146 59.4466L25.6146 59.6928L25.8116 60.0451L25.1903 60.0261L25.0009 59.3633L25.9972 59.1928ZM23.9631 59.2269L24.5426 59.5186L24.0009 59.6663L23.9138 58.7155L23.9631 59.2269ZM30.1297 57.6776L30.5388 58.0564L24.9555 58.4769L30.1297 57.6776ZM36.3116 56.1019L36.5994 56.458L35.4328 56.814L35.2358 56.5981L35.3532 56.8443L34.732 56.9883L33.2396 56.9087L32.9176 57.2231L32.2812 56.8708L31.9328 57.2951L31.5616 56.8746L32.7699 56.2231L36.3116 56.1019ZM56.4896 55.8633L57.0312 56.136L56.2396 56.2231L56.0805 56.6852L55.2547 56.6549L55.7169 55.9693L56.4896 55.8633ZM37.9025 55.7079L38.679 55.8519L38.7926 56.4314L36.9025 56.0943L37.9025 55.7079ZM42.179 54.7496L43.3456 54.9276L43.4441 55.3064L40.6032 55.4314L40.4479 56.189L40.3608 55.9239L40.3191 56.2383L39.4441 56.1928L39.7888 54.9542L42.179 54.7496ZM52.6487 54.6511L52.8987 55.3216L52.4896 55.0564L52.6487 54.6511ZM52.7396 54.242L52.5161 54.5451L52.304 54.3746L52.5616 53.8633L52.7396 54.242ZM45.6752 53.8178L47.9479 54.2345L46.4972 54.7117L45.035 54.5072L44.7244 55.0451L44.3759 54.939L44.7396 54.0299L45.6752 53.8178ZM49.8494 53.2761L51.6562 54.0981L49.3797 53.564L49.1222 54.1587L48.66 53.6322L49.8494 53.2761ZM61.41 51.9276L60.6638 52.0299L61.232 51.3898L61.5729 51.4428L61.41 51.9276ZM69.0009 49.2989L68.9669 49.742L69.5502 50.0867L69.3949 50.4883L69.8305 50.8633L69.6335 50.2042L70.982 51.5678L73.9517 52.0867L76.9972 51.3822L76.6146 50.0375L81.5616 49.8254L84.0881 50.8973L85.304 52.5489L86.7888 55.5792L88.7169 57.386L89.7926 60.511L92.7661 62.6208L94.1411 62.958L95.2131 63.0905L94.9934 63.6095L95.304 64.4466L94.9366 64.9011L95.4744 65.2875L95.4138 65.6473L95.9252 65.583L96.0009 66.761L97.3191 68.1019L97.3078 67.7458L98.3305 67.0413L98.7472 67.8746L98.4062 68.6663L98.6146 68.7458L99.2547 68.1814L100.296 68.6549L101.391 67.8973L101.141 67.4201L101.812 67.4087L101.914 66.742L104.872 69.4617H106.425L107.024 68.4958L108.103 67.9542L108.649 68.3026L109.785 68.3405L112.74 70.3633L114.66 70.9276L115.031 70.7534L117.55 70.4958L118.52 71.5981L119.08 71.761L119.005 72.2004L120.827 73.1587L122.823 71.3898L123.592 71.9542L124.493 71.992L125.035 74.1208L125.463 74.1739L126.952 76.814L129.539 78.1587L128.997 79.0754L129.228 79.9163L130.232 79.6246L131.24 80.4958L131.376 81.4352L132.963 83.1511L135.724 82.2269L137.065 83.4352L137.997 83.242L139.247 83.9466L138.304 84.9011L138.224 85.4201L137.096 85.1549L136.694 86.9542L136.929 87.761L135.827 88.0261L134.573 89.2004L132.365 90.261L131.929 90.3973L131.834 89.814L130.584 90.1928L130.149 89.492L128.58 89.2042L127.198 89.4769L127.209 88.8898L124.94 88.9428L124.611 89.0943L124.509 90.0186L123.368 91.2799L122.334 91.1625L121.955 91.5602L121.634 91.1549L119.194 91.7004L118.929 94.0451L119.815 95.4807L119.944 96.8254L120.675 96.7269L120.99 97.6057V97.7004L122.868 100.969L124.236 100.416L124.122 101.204L123.353 101.776L123.304 102.644L125.016 105.503L124.785 105.477L124.24 105.28L123.49 105.572L123.221 106.875L125.187 109.261L125.175 109.716L125.444 109.647L125.66 109.837L126.618 110.265L126.463 111.015L125.683 111.473L124.406 111.579L125.675 113.068L125.679 113.174L125.092 113.674L125.482 114.363L126.069 114.519L126.221 115.515H126.437L126.865 116.011L126.622 116.363L125.509 116.685L125.126 117.204L125.266 118.011L126.251 118.204L125.887 119.723H125.679L124.274 120.848L123.437 120.939L123.346 121.272L124.122 121.613L123.978 122.753L121.99 122.632L120.687 123.147L117.573 123.022L116.327 123.363L116.505 123.958L115.743 124.632L115.145 124.708L115.016 124.394L114.24 124.799L114.793 125.969L115.3 125.863L115.671 126.621L116.387 126.632L115.471 127.386L115.501 128.06L116.334 128.541L116.357 129.238L115.955 130.003L114.618 130.878L114.535 131.242L114.849 131.378L114.539 132.344L114.933 133.996L115.834 134.439L115.952 135.31L116.827 136.284L116.842 137.912L117.584 138.939L116.974 139.098L117.137 139.454L116.08 139.787L116.319 140.295L115.974 140.276L116.084 141.155L116.728 141.488L116.512 142.155L115.289 141.341L114.202 142.246L113.194 142.329L112.611 141.594L111.115 140.852H110.971L109.596 141.034L109.842 141.757V141.984L108.933 143.693L108.084 143.863L107.876 144.655L106.599 145.064L106.304 145.553L105.899 145.545L105.55 144.954L104.982 145.583L105.175 145.837L104.861 146.507L104.088 146.591L104.387 147.06L103.501 147.094H103.346L102.607 146.931L102.323 147.575L101.793 146.837L101.596 147.477L100.906 147.492L100.683 148.094L98.929 149.234L98.9896 148.556L98.2964 147.606L97.8267 147.712L97.7358 148.075L97.0653 147.723L97.4138 149.382L96.804 148.916L96.7812 148.189L96.2888 147.825L95.732 147.973L95.804 148.837L95.1373 148.742L94.4479 149.409L93.4706 149.67L94.3608 151.382L95.1714 150.719L95.0616 151.878L94.2358 152.314L92.6941 151.428L91.7396 151.685L91.7775 151.151L91.1108 151.178L90.0729 150.401L89.3494 149.545L90.2434 149.738L90.4441 149.394L90.0161 149.068L90.4744 148.223L91.6979 148.072L92.0691 147.568L91.6676 146.473L92.0388 145.549L90.6638 143.757L91.5123 143.121L91.1411 142.041L91.5653 142.53L92.1335 142.412L91.6449 141.7L91.732 141.151L92.9062 141.791L93.179 141.428L91.9252 140.204L91.6449 139.144L90.2888 139.602L89.6714 138.992L88.8343 139.511L88.3987 139.151L88.5009 138.341L87.4176 138.738L85.5767 138.606L86.2169 136.613L85.8684 135.912L86.0464 135.405L85.5805 134.984L87.3002 133L86.8456 132.197L87.1903 131.579L86.9934 131.166L87.6411 130.401L86.3191 130.617L85.2661 130.253L84.3722 130.678L84.8343 129.621L84.7623 128.583L83.1335 127.644L83.2055 127.181L82.8873 127.053L83.4025 126.583L83.1525 126.045L81.7737 126.011L81.5578 126.526L81.0199 126.341L80.7585 125.738L81.2472 125.128L80.8873 124.848L81.2585 124.488L80.7623 123.606L80.7131 122.693L81.2169 122.246L80.2661 121.147L79.7623 121.257L80.3722 120.284L80.2472 119.886L79.6676 119.507L78.6866 119.685L78.1752 119.473L78.2093 119.147L76.8078 119.674L77.0578 118.253L76.1828 117.325L76.6676 117.526L76.857 117.303L77.0653 117.795L77.5881 117.757L77.3987 116.166L77.8116 116.306L78.3873 115.875L77.4214 115.147L75.8835 114.621L76.035 114.2L75.7055 113.981L76.1941 113.742L76.4896 112.155L76.982 111.973L77.1941 111.405L77.9555 111.632L78.91 110.363L78.8419 109.723L79.5047 109.079L79.5275 108.375L79.1941 108.378L79.1979 107.844L78.8153 107.519L79.8381 106.219L78.9366 105.394L77.8002 105.284L76.8532 106.984L76.0047 107.257L76.2055 107.969L75.1373 108.606L75.0047 109.174L73.9479 109.026L73.7926 109.466L73.035 109.662L71.4555 109.295L70.4403 109.7L69.8949 109.269L69.4441 109.42L69.3797 108.473L69.6941 108.075L69.3759 107.549L69.3191 105.132L69.0047 104.511L68.5805 104.617L68.0994 104.06L65.8191 105.352L64.5047 104.837L63.4555 105.617L63.3722 106.837L62.4517 107.503L62.0275 107.269L61.16 107.515L59.7055 106.947L59.7282 107.901L60.1562 108.246L60.0275 109.117L61.91 109.867L63.107 110.75L63.7434 112.591L63.482 113.689L63.6979 115.287L63.0767 116.545L63.7055 117.359L64.8722 117.731L63.7282 118.89L62.285 119.613L62.2017 120.625L61.3759 120.644L60.607 120.087L59.8911 120.31L59.2547 120.03L59.2926 119.662L57.7623 120.761L57.0312 122.102L56.035 122.007L54.7017 122.704L53.1676 122.253L51.929 123.56L50.4403 122.962L49.6184 121.67L51.7282 120.409L52.5881 120.439L52.3835 119.019L52.4669 118.697L53.0312 118.583L52.5578 118.06L50.8684 118.056L50.2093 117.553L50.0275 116.939L50.6449 116.079L50.6146 114.628L51.3759 114.484L50.7661 113.742L50.7737 113.121L52.2206 112.841L51.1752 111.825L50.8911 110.651L49.7623 110.003L48.6714 110.45L47.7623 110.356L45.4896 109.246L44.8949 107.2L42.9479 106.333L41.91 108.022L42.8343 108.431L42.0767 110L42.3456 110.227L40.8873 110.522L38.7888 111.924L38.554 112.651L37.5578 112.833L36.9896 113.674L35.8684 113.984L35.4176 114.602L32.0085 114.507L31.2131 114.712L30.6903 115.424L29.7812 115.481L28.9138 114.227L28.8759 113.583L30.0009 111.132L30.0161 110.291L29.6525 109.261L29.0994 109.197L28.4896 108.091L28.0123 106.579L26.8305 107.863L24.6941 107.303L24.6979 106.931L22.3759 106.787L20.9328 105.829L21.1032 104.466L20.5009 103.212L21.3419 103.382L21.5994 102.814L22.5994 102.803L21.4555 101.791L21.6184 100.727L21.2813 100.272L22.2396 99.4201L25.179 99.2042L26.6979 99.8405L27.6222 99.4845L29.232 100.034L29.5691 99.636L29.9744 92.9996L30.4782 91.8557L30.357 91.4049L32.6638 87.7042L33.4934 85.1322L33.107 80.8329L32.6714 80.511L32.5767 79.8405L33.1525 78.4011L33.7282 78.2231L33.2775 77.8064L33.5047 77.4087L33.3002 75.636L33.7623 74.8898L34.1714 72.5526L35.6941 72.4807L28.5881 71.6208L28.1638 70.4883L28.4858 69.9504L28.8456 65.9087L29.4063 65.0261L29.0426 63.8708L29.5729 64.8481L30.3797 64.8519L30.6373 65.2648L30.9403 64.8633L29.6676 64.8405L29.2358 63.7686L29.8608 64.5186L30.0919 63.939L30.7661 64.7875L30.6676 64.2799L31.2169 64.2383L31.7169 63.5602L31.0729 63.314L30.41 62.0564L31.8305 60.636L31.9934 60.0337L31.9593 60.314L34.1525 58.3633L36.9669 57.6776L37.3419 57.9276L39.8608 57.8367L40.9252 58.333L45.232 57.0186L45.2396 56.3595L45.2472 57.1587L47.7282 56.7193L48.41 55.7572L47.8116 56.8633L50.2737 56.3973L53.0426 56.8178L52.8987 57.8557L53.4555 59.4996L54.1487 59.2799L54.7585 59.8822L55.0388 59.5072L55.2169 59.7307L54.7812 59.9201L55.1638 60.5261L55.4934 60.3822L55.1979 60.583L55.3797 61.2231L56.5009 63.511L56.2206 64.0186L56.5426 63.8292L56.1184 64.7042L54.6752 65.2496L53.8532 65.064L53.9214 66.2383L54.7737 67.492L55.6487 67.1625L56.0578 67.3595L57.2472 69.1436L58.3078 69.4049L58.8381 69.0905L59.9479 67.0034L59.8759 64.4239L57.8759 64.4655L58.2396 61.9731L59.1676 60.7761L59.7775 60.511L60.5237 60.7307L61.6297 62.2648L63.5805 63.136L64.5312 63.2307L64.8949 62.8973L64.8835 63.2951L65.6676 63.7345L65.804 64.3216L65.6032 64.4542L66.2472 65.833L66.5426 65.5716L67.0388 65.9239L67.66 65.4542L68.0919 64.6852L67.8078 64.1208L67.9631 63.0375L67.5578 62.9617L67.2964 62.242L68.3229 60.8178H67.9062L67.9706 61.1436L67.2472 61.0299L66.6979 61.4996L64.9555 60.9845L64.0464 58.9693L64.0161 57.3746L65.5312 53.5754L65.6032 52.4542L67.1487 49.7648L69.0009 49.2989ZM67.3078 78.7004L67.5767 79.8481L68.5237 81.2761L68.4366 81.7686L69.5123 82.3595L69.3873 83.2155L69.6979 83.8254L70.5994 83.8633L70.9972 83.2686L71.1297 83.8292L72.2055 84.5943L73.2472 84.5375L73.2699 83.7951L73.9517 84.8443L74.9328 84.8481L74.9896 84.4352L76.0464 83.5526L75.66 83.0072L75.5956 82.0072L76.2547 81.5034L75.6146 81.4049L75.2509 80.742L76.0994 80.3292L75.1676 79.2951L74.4214 80.0867L73.2093 80.1284L73.1676 80.0034L72.7093 79.4428L72.6373 79.0905L72.3911 78.814L70.2964 78.8292L69.9479 78.1701L69.3949 78.3026L69.2547 77.9693L68.7169 78.3708L67.41 78.4996L67.1032 77.7383L66.3532 77.7231L66.8191 76.8973L66.3229 76.6966L65.732 77.0299L64.4782 76.2572L64.1828 76.2458L63.9934 76.386L64.5805 77.3443L64.6828 77.4731L67.3078 78.7004ZM64.5123 47.8481L64.8532 48.3254L64.1259 48.458L64.232 47.8064L64.5123 47.8481ZM63.3002 46.4845L63.5767 46.5981L62.6941 47.3026L62.4025 47.1625L62.8759 46.3936L63.3002 46.4845Z" fill="#CCCCCC" stroke="white" stroke-width="0.5"/>
<path d="M29.7622 115.481L30.6713 115.424L31.1941 114.712L31.9895 114.508L35.3986 114.602L35.8494 113.985L36.9706 113.674L37.5425 112.83L38.535 112.652L38.7736 111.921L40.8721 110.523L42.3304 110.224L42.0577 109.996L42.8153 108.428L41.891 108.019L42.9289 106.33L44.8721 107.197L45.4668 109.242L47.7395 110.352L48.6486 110.447L49.7395 110L50.8683 110.648L51.1524 111.822L52.1979 112.837L50.7509 113.117L50.7433 113.742L51.3532 114.485L50.5918 114.629L50.6221 116.083L50.0009 116.943L50.1865 117.557L50.8456 118.057L52.535 118.061L53.0085 118.583L52.4441 118.697L52.3607 119.019L52.5653 120.439L51.7054 120.409L49.5956 121.671L50.4176 122.966L51.9062 123.564L53.1448 122.258L54.6827 122.705L56.016 122.008L57.0122 122.102L57.7433 120.761L59.2736 119.663L59.2319 120.034L59.8683 120.311L60.5842 120.087L61.3569 120.644L62.1827 120.625L62.2622 119.614L63.7054 118.89L64.8456 117.731L63.6789 117.364L63.0501 116.549L63.6713 115.292L63.4554 113.693L63.7206 112.595L63.0842 110.754L61.8872 109.871L60.0047 109.121L60.1335 108.246L59.7054 107.905L59.6827 106.947L61.1372 107.515L62.0085 107.273L62.4327 107.504L63.3532 106.837L63.4327 105.617L64.4819 104.841L65.8001 105.352L68.0804 104.064L68.5615 104.621L68.9895 104.515L69.3039 105.136L69.3607 107.553L69.6827 108.08L69.3683 108.477L69.4289 109.424L69.8797 109.273L70.4251 109.705L71.4403 109.299L73.0198 109.667L73.7774 109.466L73.9289 109.03L74.9857 109.174L75.1183 108.606L76.1865 107.97L75.9857 107.261L76.8342 106.989L77.7812 105.288L78.9175 105.398L79.8191 106.224L78.7963 107.527L79.1827 107.849L79.1789 108.383L79.5122 108.379L79.4895 109.08L78.8266 109.724L78.8986 110.364L77.9441 111.633L77.1789 111.405L76.9668 111.974L76.4744 112.155L76.1789 113.742L75.6903 113.981L76.0198 114.201L75.8683 114.621L77.4062 115.152L78.3721 115.879L77.7925 116.311L77.3797 116.167L77.5691 117.761L77.0463 117.799L76.8418 117.307L76.6524 117.534L76.1675 117.333L77.0425 118.258L76.7925 119.678L78.1979 119.155L78.1638 119.481L78.6751 119.693L79.6562 119.515L80.2357 119.894L80.3607 120.292L79.7547 121.265L80.2547 121.155L81.2054 122.25L80.7016 122.697L80.7509 123.61L81.2471 124.492L80.8797 124.852L81.2395 125.133L80.7471 125.742L81.0085 126.345L81.5463 126.53L81.766 126.011L83.1448 126.049L83.391 126.587L82.8759 127.057L83.1941 127.186L83.1221 127.648L84.7509 128.587L84.8229 129.625L84.3569 130.682L85.2547 130.258L86.3077 130.621L87.6297 130.405L86.9819 131.171L87.1789 131.583L86.8342 132.197L87.2925 133L85.5691 134.985L86.035 135.405L85.8607 135.917L86.2092 136.614L85.5691 138.606L87.41 138.739L86.713 139.394L84.66 139.985L85.4971 140.894L84.1372 142.39L83.9441 143.89L83.3342 143.875L82.8872 144.47L81.9365 144.807L81.7395 145.996L80.9516 145.742L80.3683 146.61L79.8153 146.337L78.8304 146.557L78.4138 145.75L78.7244 144.602L78.3759 144.292L77.4668 144.318L76.9668 143.724L73.891 145.125L74.5691 146.413L74.5766 147.102L75.2433 147.224L75.0236 148.701L73.891 148.564L73.0122 149.152L72.5804 148.724L71.7547 148.644L70.0274 149.352L69.1297 149.189L68.7092 149.413L68.8229 149.849L68.2774 150.027L68.1675 150.625L67.7471 150.458L67.3418 150.754L65.8229 153.015L66.7509 154.178L69.0766 153.064L69.8001 153.155L70.1486 153.591L69.9365 154.023L70.266 155.265L70.8986 155.648L70.4175 156.038L70.6789 156.871L69.1789 158.398L69.2054 158.936H69.2963L69.7622 159.451L68.891 159.527L68.2281 160.034L65.8418 159.712L65.1145 159.939L64.5009 160.595L65.0918 161.227L64.5653 162.102L64.9024 161.985L65.3418 162.917L63.8342 164.564L63.9138 164.841L63.4365 164.966L63.2357 165.913L63.4782 166.761L62.8077 166.807L61.035 168.97H59.766L59.4062 168.178L58.8115 168.22L55.7547 171.648L55.6032 171.697L55.5085 172.087L56.4138 173.803L55.3797 175.652L54.2547 174.849L53.8115 175.265L53.3494 175.197L53.2963 174.034L51.5994 172.227L51.8229 170.349L51.6069 169.546L51.3304 169.261L50.3342 169.572L49.535 168.432L48.2168 168.144L48.7509 166.405L47.3645 165.852L46.7168 166.557L45.9895 166.78L46.5804 167.436L46.3342 168.742L46.641 169.576L45.8304 169.345L45.1941 170.254L44.1789 170.492L44.6448 170.951L44.4403 171.992L44.0463 172.489L42.7168 172.595L42.5274 173.587L41.5122 173.33L40.8039 173.682L40.8001 173.992L38.713 174.712L37.2774 174.39L36.8607 175.186L37.2168 175.807L36.785 176.538L36.9138 176.977L36.3304 177.402L33.3721 178.008L33.0918 177.053L32.7926 178.004L32.3835 178.421L31.9403 178.356L31.7774 178.883L31.016 178.432L30.391 179.428L29.5729 178.663L28.1713 180.235L27.5804 180.546L26.5388 180.394L26.5539 181.398L25.3797 181.636L25.7206 182.011L25.5198 182.413L25.9138 182.564L25.8153 183.856L24.7888 184.458L23.7054 183.727L23.41 182.981L22.0653 183.693L22.5729 184.235L22.0274 184.921L22.7016 185.133L22.9895 185.663L22.6751 186.731L23.4554 187.644L23.3759 187.958L22.8835 187.83L21.0236 188.879L20.2433 187.583L19.5009 188.576L19.0842 188.189L19.2016 187.462L18.6751 187.421L18.6297 186.939L16.3304 187.989L15.7698 188.799L15.016 188.871L15.1865 187.947L14.8342 187.557L14.4819 187.89L14.0577 186.89L13.4251 187.076L13.6335 187.928L13.91 187.875L13.9441 188.78L14.3456 189.011L14.3607 189.383L13.8607 189.402L13.7319 188.568L12.3418 187.227L13.1903 185.099L13.0842 184.405L12.3266 184.106L12.5729 183.102L10.6335 182.477L9.56907 182.852L9.13346 181.883L8.66377 181.667L8.84558 181.277L8.41755 181.08L8.36452 180.5L9.55013 179.265L9.98952 179.307L10.6032 177.886L8.89104 177.64L8.39104 177.89L8.5577 177.667L8.19786 177.261L8.53877 176.947L7.03498 174.341L5.2168 174.015L5.05013 174.364L5.11831 173.402L4.49331 172.754L4.73195 172.292L3.46301 171.424L3.72437 170.921L4.21301 171.205L4.70165 170.712L4.55771 169.538L5.44786 169.155L5.88725 169.511L6.25089 168.496L5.91377 167.746L6.39104 166.655L5.41377 166.633L4.56907 166.159L4.22058 165.284L4.70165 164.269L3.30392 164.451L2.97816 164.11L1.62589 164.614L1.79634 163.572L1.17892 162.947L0.841797 161.818L2.00468 161.114L2.56528 162.311L3.10316 162.284L3.59937 160.883L4.34937 160.148L5.14861 159.811L6.30013 158.5L8.3077 157.629L7.47058 157.027L8.49331 156.523L8.0918 156.208L6.50846 157.14L6.08043 157.061L5.72816 155.254L6.16377 155.095L5.82286 154.364L7.06149 153.155L8.16377 150.924L8.7471 150.799L9.54634 149.746L9.25846 148.796L9.54255 148.265L9.06528 148.288L9.48952 145.504L9.2471 143.939L7.9668 141.981L6.28877 140.311L6.89861 138.356L4.86831 137.659L4.72437 136.352L5.14861 135.992L3.92892 135.167L3.00846 135.144L3.01983 134.667L3.83801 134.095L3.86831 133.424L3.47058 133.299L3.54255 132.833L2.79634 132.261L3.09558 132.076L2.77361 131.83L3.16377 131.345L4.40998 131.386L5.64483 130.246L6.4971 130.852L8.10316 131.174L8.0577 130.402L7.44028 129.439L6.64104 129.171L6.9668 128.799L8.17892 128.826L9.2168 130.087L10.8607 129.886L11.3229 130.11L11.4819 130.822L12.6486 130.875L12.8797 131.364L13.8115 131.716L14.0123 130.72L13.4554 130.314L13.5653 129.871L14.5312 130.481L14.9592 130.227L15.4365 130.689L17.2319 129.492L20.6183 128.197L21.7698 128.917L23.1221 127.735L23.3835 126.583L24.0766 126.367L24.1372 125.489L22.2774 123.867L20.6789 123.421L20.8418 122.205L21.8759 122.019L22.4592 120.318L24.7357 120.239L25.9819 118.057L27.0312 117.856L27.8532 116.114L29.1297 116.064L29.7622 115.481Z" fill="#CCCCCC" stroke="white" stroke-width="0.5"/>
<path d="M13.8603 189.402L14.3603 189.383L14.3452 189.012L13.9437 188.781L13.9096 187.875L13.633 187.928L13.4247 187.076L14.0573 186.89L14.4815 187.89L14.8338 187.557L15.1861 187.947L15.0156 188.871L15.7694 188.8L16.33 187.989L18.6293 186.94L18.6747 187.421L19.2012 187.462L19.0838 188.19L19.5005 188.576L20.2429 187.584L21.0232 188.879L22.883 187.83L23.3755 187.959L23.455 187.644L22.6747 186.731L22.9891 185.663L22.7012 185.133L22.027 184.921L22.5724 184.235L22.0649 183.693L23.4096 182.981L23.705 183.728L24.7884 184.459L25.8149 183.856L25.9134 182.565L25.5194 182.413L25.7202 182.012L25.3793 181.637L26.5535 181.398L26.5384 180.394L27.58 180.546L28.1709 180.235L29.5724 178.663L30.3906 179.428L31.0156 178.432L31.777 178.883L31.9399 178.356L32.383 178.421L32.7921 178.004L33.0914 177.053L33.3717 178.008L36.33 177.402L36.9134 176.978L36.7846 176.538L37.2164 175.807L36.8603 175.186L37.277 174.39L38.7126 174.712L40.7997 173.993L40.8035 173.682L41.5118 173.33L42.527 173.587L42.7164 172.595L44.0459 172.489L44.4399 171.993L44.6444 170.951L44.1785 170.493L45.1937 170.254L45.83 169.345L46.6406 169.576L46.3338 168.743L46.58 167.436L45.9891 166.781L46.7164 166.557L47.3641 165.853L48.7505 166.406L48.2164 168.144L49.5346 168.432L50.3338 169.572L51.33 169.262L51.6065 169.546L51.8224 170.349L51.599 172.228L53.2959 174.034L53.349 175.197L53.8111 175.265L54.2543 174.849L55.3793 175.652L55.0232 176.633L55.7543 177.671L55.4209 178.527L56.0383 178.925L55.6482 180.754L54.8679 181.413L54.0914 181.205L53.4285 180.504L52.2618 181.743L51.8527 183.163L52.6368 184.455L51.7846 185.038L52.099 185.175L52.0308 185.614L51.508 186.061L52.0383 186.496L52.9171 186.462L52.7656 187.061L53.4285 187.023L53.4967 187.417L53.83 187.447L54.2353 188.451L54.1255 189.038L54.8452 189.246L54.8641 189.883L55.2618 190.281L54.955 191.735L54.3187 191.693L54.1558 191.284L53.2618 191.337L52.9133 191.845L53.5573 192.478L53.6558 192.61L53.1709 193.409L52.6747 193.337L52.0914 192.587L52.0383 192.966L51.1785 193.281L51.08 193.644L50.2088 193.883L50.205 194.243L49.5535 194.697L49.5838 195.197L50.7467 196.11L50.474 196.485L50.6861 197.667L50.0043 196.962L49.5724 197.228L48.8035 196.754L48.2997 197.83L48.4702 198.375L47.6255 198.387L46.9133 199.36L48.8338 201.034L49.1747 202.254L49.6141 202.572L51.633 202.345L53.349 201.379L56.8186 200.201L58.2808 200.496L60.1558 202.398L60.9512 204.595L60.705 206.095L61.6671 206.902L61.5421 208.133L62.599 210.159L63.758 210.14L63.9399 210.398L62.9436 211.894L61.0421 213.008L61.6406 215.451L62.5687 217.038L62.3982 218.159L63.5535 221.231L63.0535 221.993L64.6179 222.557L64.3224 223.803L63.5346 224.542L63.7997 224.83L64.4323 224.281L64.3868 225.087L63.2391 226.625L64.1596 227.724L61.7959 229.947L61.6671 230.538L62.1444 230.512L61.2505 232.364L61.0308 234.875L59.9058 236.599L59.5497 238.065L59.2315 238.75L57.9815 239.822L57.8149 239.44L57.1937 239.762L57.0724 239.387L56.2088 239.481L54.6103 238.943L53.6103 238.053L51.7997 237.561L50.7656 236.447L50.4285 237.042L49.6709 236.788L49.1368 237.345L47.3944 236.163L46.7277 236.871L45.974 236.978L45.902 236.504L45.6179 236.705L45.0005 236.443L45.0421 236.769L44.4815 236.943L43.508 236.576L43.4664 235.906L42.7088 235.531L41.8338 235.648L40.9702 235.015L40.2921 233.784L40.1444 232.39L38.7353 232.549L38.9096 231.841L37.027 232.3L36.9815 232.781L35.3868 231.034L35.5611 230.379L35.224 229.83L35.6823 229.106L36.0687 229.47L36.0838 229.004L36.5383 228.675L36.3527 228.33L37.0005 228.353L37.5421 227.769L37.9134 224.97L37.0876 225.175L36.7959 224.606L35.2467 224.25L35.2126 223.235L34.2959 222.61L34.1937 222.148L35.1444 221.716L35.5952 221.072L34.9702 220.701L35.1709 219.481L35.6823 219.269L35.5497 218.875L34.8717 218.762L34.6937 217.015L33.4058 217.709L33.3717 217.326L32.724 217.318L32.4361 216.978L32.3793 216.493L31.1823 216.606L30.6634 216.209L30.3755 216.44L29.6899 215.334L28.9096 214.947L27.8755 215.644L28.0156 215.125L27.08 215.466L26.7997 215.137L26.5308 215.94L25.705 215.815L25.2884 216.364L24.9474 216.129L24.2656 217.046L23.6709 216.754L22.1406 218.008L21.2353 218.148L20.7505 218.815L20.6141 218.368L20.0687 218.538L19.7959 218.269L19.705 218.712L19.3262 218.614L18.724 219.099L18.7543 219.451L18.1141 219.356L17.6785 218.629L16.5952 219.133L15.4967 218.508L15.008 218.72L14.4588 218.337L14.1444 218.538L13.2467 218.239L12.7088 217.47L13.2884 217.269L13.1785 216.671L14.2467 215.709L14.7315 214.371L14.4702 213.871L16.3149 212.182L16.0724 211.712L16.5573 211.849L16.1671 210.875L16.5914 210.371L16.3035 209.326L16.8376 208.618L16.4512 208.921L15.4626 208.137L14.474 208.58L13.6823 208.178L12.8187 207.087L11.8679 207.553L11.6141 206.421L11.2543 206.512L9.72775 205.269L9.66714 204.553L9.34896 204.375L9.46638 203.39L9.0535 203.201L8.88684 203.462L8.69366 202.705L8.36032 203.254L8.16335 202.05L7.43229 201.595L7.76562 201.224L7.4285 201.012L7.65199 200.648L7.28078 200.387L7.12926 199.273L6.76562 199.277L7.25426 198.784L6.8679 198.758L7.02699 198.087L7.34138 198.038L7.15578 197.05L7.81866 196.175L7.31487 195.735L7.51184 195.182L7.69366 194.83L7.94366 195.05L8.70881 194.648L8.12926 193.212L8.36032 192.671L8.85653 192.584L9.29593 191.849L10.8565 191.478L11.1482 191.084L10.9891 190.466L11.5952 189.485L12.1634 189.409L12.8187 190.095L12.849 189.705L13.8603 189.402Z" fill="#CCCCCC" stroke="white" stroke-width="0.5"/>
<path d="M13.248 218.239L14.1457 218.538L14.4601 218.337L15.0094 218.72L15.498 218.508L16.5965 219.133L17.6798 218.629L18.1154 219.356L18.7556 219.451L18.7253 219.099L19.3275 218.614L19.7063 218.712L19.7972 218.269L20.07 218.538L20.6154 218.368L20.7518 218.815L21.2366 218.148L22.1419 218.008L23.6722 216.754L24.2669 217.046L24.9487 216.129L25.2897 216.364L25.7063 215.815L26.5321 215.94L26.801 215.137L27.0813 215.466L28.0169 215.125L27.8768 215.644L28.9109 214.947L29.6912 215.334L30.3768 216.44L30.6647 216.209L31.1836 216.606L32.3806 216.493L32.4374 216.978L32.7253 217.318L33.373 217.326L33.4071 217.709L34.695 217.015L34.873 218.762L35.551 218.875L35.6836 219.269L35.1722 219.481L34.9715 220.701L35.5965 221.072L35.1457 221.716L34.195 222.148L34.2972 222.61L35.2139 223.235L35.248 224.25L36.7972 224.606L37.0889 225.175L37.9147 224.97L37.5434 227.769L37.0018 228.353L36.354 228.33L36.5397 228.675L36.0851 229.004L36.07 229.47L35.6836 229.106L35.2253 229.83L35.5624 230.379L35.3881 231.034L36.9828 232.781L36.9715 233.334L36.0927 233.322L35.3124 234.375L34.1533 233.822L32.9866 234.364L32.6571 233.807L32.0093 234.171L31.248 233.375L30.729 233.478L30.9412 232.996L30.5813 232.875L30.1684 233.14L30.373 233.769L29.5586 234.436L28.8768 232.353L29.0434 231.572L28.5169 231.69L27.5813 230.868L27.2631 231.125L26.4374 230.368L25.6495 230.887L24.8616 230.383L24.3237 230.754L24.9033 231.932L24.2631 232.951L22.9184 232.379L21.926 232.542L21.2745 231.693L21.748 231.004L21.5662 230.55L20.8806 230.637L20.729 229.394L20.0359 229.057L20.2594 228.277L18.9071 227.481L18.2783 226.758L18.3578 226.235L17.7707 225.803L17.6987 225.47L18.2821 225.709L18.5851 225.11L18.1571 225L18.2215 224.379L17.1116 223.758L17.4109 222.917L14.4298 221.019L13.5737 221.466L12.945 221.228L12.6836 219.012L13.248 218.239Z" fill="#CCCCCC" stroke="white" stroke-width="0.5"/>
<path d="M155.777 160.227L155.587 159.848L154.515 159.682L154.197 158.988L154.671 158.943L154.728 158.602L153.675 158.216L154.08 156.644L153.156 156.693L153.148 156.379L153.474 156.386L153.875 155.42L153.773 154.538L153.531 153.757L152.94 153.447L153.099 152.693L152.5 151.322L153.69 150.996L153.652 149.371L153.118 148.886L153.443 148.727L153.171 147.882L153.55 147.435L153.341 146.988L152.747 146.996L152.534 145.86L153.144 145.663L153.231 145.121L153.932 144.75L153.557 143.477L154.648 142.371L154.561 141.951L155.97 142.038L157.212 141.307L157.08 141.079L159.197 141.231L159.618 140.178L160.038 140.477L160.55 140.307L160.667 140.735L161.163 140.204L161.943 140.488L162.932 139.56L163.281 139.833L164.042 139.519L163.64 140.125L164.951 139.39L165.629 138.026L167.561 138.697L169.33 137.242L169.781 137.636L169.853 138.333L170.47 137.958L170.64 138.701L171.372 138.606L171.701 139.049L171.853 138.61L172.364 138.568L172.231 138.034L172.466 138.083L172.61 138.125L172.603 137.848L173.39 138.034L173.671 139.068L174.379 138.731L175.197 140.178L176.046 139.735L176.989 140.776L176.568 141.735L177.572 142.189L178.106 143.473L177.959 144.697L177.553 144.727L177.5 145.379L178 146.314L177.326 147.185L177.648 147.348L177.762 146.867L178.277 148.413L179.542 148.852L179.394 148.254L179.997 148.322L180.012 147.829L181.034 147.261L180.906 146.844L182.228 147.288L182.167 146.867L182.735 146.201L183.413 146.939L183.247 147.401L183.86 146.996L184.512 147.53L184.265 147.788L185.637 148.178L185.72 148.943L186.057 148.962L186.209 149.432L186.818 148.833L187.277 148.886L187.474 149.458L188.978 149.432L189.19 149.155L190.981 149.723L191.603 149.394L191.765 149.701L192.004 149.394L192.883 149.432L193.25 148.852L194.974 149.034L196.25 148.386L196.553 148.507L196.531 149.163L197.205 149.291L197.345 148.458L197.906 148.397L197.637 148.072L198.345 147.545L198.144 146.901L198.747 146.522L198.057 145.337L199.375 145.291L199.046 144.689L199.534 144.485L199.796 143.594L200.637 143.504L200.375 143.163L200.572 142.727L202.409 142.879L203.186 143.333L203.769 143.155L205.076 143.776L205.091 143.958L205.296 144.272L205.512 143.685L206.625 142.78L208.05 142.738L208.216 142.182L210.235 142.113L210.39 141.591L210.951 141.295L211.644 141.629L212.103 142.466L213.648 142.352L214.231 141.375L214.072 140.625L214.875 141.231L214.421 142L215.019 143.386L216.428 143.693L217.815 144.78L219.428 145.041L220.212 145.576L220.735 146.64L220.39 147.871L220.614 149.041L220.959 149.257L220.856 150.488L222.413 153.155L221.212 157.462L221.296 158.981L220.921 159.17L220.853 160.712L219.69 163.682L219.356 163.863L219.409 164.647L219.072 164.772L218.837 165.996L216.966 168.14L217.144 168.666L216.466 170.504L215.75 170.56L215.197 170.189L214.667 170.451L214.318 169.719L213.879 169.833L212.201 169.079L212.618 167.576L212.996 167.272L212.936 166.276L211.322 166.966L210.898 166.772L211.693 164.185L210.864 163.284L210.148 163.522L210.065 163.019L209.273 162.81L209.345 161.879L209.125 162.765L208.212 162.276L207.133 162.939L206.534 162.625L206.455 162.178L205.985 161.932L205.417 162.178L204.55 161.549L204.193 162.159H203.853L204.152 162.613L204.031 163.106L203.538 163.337L203.519 164.144L204.103 164.545L205.099 164.242L205.178 164.678L204.568 164.969L204.902 165.193L204.75 165.394L206.834 166.102L206.587 167.557L205.693 167.416L205.675 167.765L204.576 168.098L203.682 167.674L202.879 167.966L202.652 169.004L199.383 170.303L199.103 170.837L197.962 171.14L196.993 170.541L196.14 171L195.728 171.659L194.834 171.549L194.512 172.477L194.784 173.401L193.909 173.473L193.777 174.049L191.872 173.738L190.985 174.068L190.652 173.814L190.178 174.439L189.148 173.894L187.652 174.712L186.584 174.538L185.811 174.886L186.209 175.962L185.497 176.86L185.769 177.401L185.08 177.738L184.368 178.765L183.125 178.269L182.527 177.129L182.08 176.996L182.193 177.852L180.951 178.617L180.89 179.659L180.118 179.844L179.818 179.182L179.065 179.189L177.811 182.545L176.432 182.42L176.277 181.973L175.163 182.685L173.868 182.303L173.599 184.625L172.622 185.738L171.69 185.996L171.818 186.344L168.728 184.204L168.508 185.28L168.144 184.602L166.701 185.238L166.004 186.568L165.193 185.829L161.322 186.583L160.709 187.568L160.773 188.375L160.269 188.17L159.618 188.674L159.368 189.386L158.591 189.416L158.587 190.511L157.906 190.814L157.466 191.663L157.64 192.432L156.936 192.443L157.038 193.303L156.754 193.746L157.125 194.303L156.754 194.712L157.08 195.038L155.947 194.886L155.584 194.14L156.038 193.227L154.731 192.284L154.872 191.807L155.372 192.11L155.103 191.344L153.796 191.276L153.769 190.011L153.402 189.401L151.387 189.557L151.167 188.973L150.095 189.034L150.068 189.269L148.887 188.189L148.406 188.326L148.546 186.901L148.095 186.469L147.731 186.636L147.83 186.166L147.106 185.579L147.216 185.242L146.527 185.11L146.425 184.632L147.311 184.121L147.731 184.435L147.478 183.784L148.125 183.182L147.318 182.348L147.307 181.799L146.258 182.026L145.822 181.254L146.178 180.701L147.239 180.541L147.163 179.469L148.637 178.541L148.527 178.091L148.989 177.602L149.432 177.962L149.023 178.337L149.849 179.144L149.406 180.125L149.648 180.776L150.315 180.754L150.8 180.568L150.887 179.791L151.421 179.704L151.959 180.129L152.89 179.772L152.837 179.492L152.235 179.519L152.565 177.772L153.55 178.39L153.777 177.432L155.315 177.754L155.353 177.208L156.603 176.485L156.678 175.693L155.269 175.307L155.076 174.466L155.542 174.03L155.364 173.67L154.402 173.636L154.709 172.572L155.39 172.757L155.928 171.935L155.879 171.636L155.076 171.697L154.997 170.5L155.682 170.897L155.943 170.341L156.201 170.666L156.122 170.144L156.341 170.549L157.326 170.401L157.353 169.856L157.978 169.235L158.675 169.432L158.989 169.072L159.08 169.784L159.587 169.647L159.671 168.826L160.614 167.682L161.265 167.754L161.182 167.394L161.512 167.201L161.925 167.473L163.94 167.113L164.372 167.371L164.739 166.735L164.008 165.969L163.618 163.799L162.841 164.197L161.667 163.693L162.012 163.432L161.962 162.738L161.375 162.644L161.19 163.011L161.095 161.257L160.682 161.136L160.277 161.147L159.97 160.477L158.841 160.81L158.447 160.439L157.678 160.606L157.561 160.019L157.08 159.723L155.777 160.227Z" fill="#CCCCCC" stroke="white" stroke-width="0.5"/>
<path d="M139.259 83.9356L140.214 83.8447L139.88 84.9129L141.104 85.0531L141.521 86.2879L142.668 85.822L143.729 86.9621L145.13 87.2917L145.233 87.7538L144.6 88.5341L144.892 89.0038L145.74 89.0152L146.278 89.6023L148.437 90.3637L149.483 89.7841L151.634 90.3258L151.922 89.6326L151.968 91.2462L153.634 90.2387L153.789 90.6402L154.585 90.9015L155.168 93.1478L154.975 93.7538L154.267 93.822L153.99 94.9811L154.308 95.5568L153.748 96.5985L154.039 96.5228L153.96 96.8674L154.392 97.1667L154.267 97.7538L154.683 98.072L154.536 99.7576L154.49 100.136L153.839 100.549L153.051 100.295L153.297 102.311L152.426 104.072L153.089 103.712L153.539 103.981L152.986 104.724L153.433 105.436L154.225 105.239L154.812 104.428L155.475 105.269L155.229 105.47L155.498 105.826L156.937 105.42L156.414 105.758L156.949 106.178L155.922 108.045L156.111 108.314L155.562 108.67L156.206 108.985L156.024 109.799L156.312 110.121L155.782 110.61L156.38 111.367L155.638 112.553L154.888 115.083L155.532 115.561L155.233 115.758L156.138 116.023L154.93 116.67L154.911 117.746L154.437 117.735L154.229 118.341L155.274 119.78L155.604 120.879L156.517 121.356L157.623 123.099L158.346 123.273L159.46 124.318L159.827 124.288L160.096 123.61L160.532 123.655L160.805 124.42L161.899 124.856L161.994 125.515L163.744 125.652L163.793 125.273L164.521 125.17L164.797 124.455L165.164 124.485L167.199 125.474L167.786 126.409L169.358 126.208L169.536 127.489L170.354 127.53L170.426 127.795L171.161 127.33L172.093 127.489L172.043 127.977L172.502 128.057L172.46 128.886L174.21 128.867L174.058 129.64L173.793 129.636L174.111 129.992L175.077 130.114L176.009 129.576L176.464 129.655L176.789 130.394L176.051 130.568L177.039 132.523L176.68 133.989L177.085 134.652L176.801 134.89L177.593 135.996L176.801 136.22L176.994 136.928L176.687 137.239L174.38 138.731L173.672 139.068L173.392 138.034L172.604 137.849L172.611 138.125L172.468 138.083L172.233 138.034L172.365 138.568L171.854 138.61L171.702 139.049L171.373 138.606L170.642 138.701L170.471 137.958L169.854 138.333L169.782 137.636L169.331 137.242L167.562 138.697L165.63 138.027L164.952 139.39L163.642 140.125L164.043 139.519L163.282 139.833L162.933 139.561L161.945 140.489L161.164 140.205L160.668 140.735L160.551 140.307L160.039 140.477L159.619 140.178L159.199 141.231L157.081 141.08L157.214 141.307L155.971 142.038L154.562 141.951L154.649 142.371L153.558 143.477L153.933 144.75L153.233 145.121L153.146 145.663L152.536 145.86L152.748 146.996L153.343 146.989L153.551 147.436L153.172 147.883L153.445 148.727L153.119 148.886L153.653 149.371L153.691 150.996L152.502 151.322L153.1 152.693L152.941 153.447L153.532 153.758L153.774 154.538L153.877 155.42L153.475 156.386L153.149 156.379L153.157 156.693L154.081 156.644L153.676 158.216L154.729 158.602L154.672 158.943L154.199 158.989L154.517 159.682L155.589 159.849L155.778 160.227L154.975 162.22L155.865 162.159L155.968 162.898L154.873 164.284L154.513 165.099L154.752 165.386L154.149 166.004L154.13 165.159L153.581 165.205L153.399 164.602L152.96 165.205L151.161 164.534L149.377 164.928L149.127 164.019L148.236 163.928L148.244 162.833L147.608 162.428L146.892 162.614L146.324 161.572L144.093 161.852L143.532 161.633L143.142 162.064L142.505 161.087L141.74 160.962L141.683 160.117L140.968 159.417L140.21 159.383L139.729 159.928L139.475 159.39L138.634 159.129L137.941 159.731L136.536 159.746L135.956 159.292L136.085 158.735L135.718 158.038L136.172 157.936L136.543 157.311L136.195 157.144L136.176 156.284L135.748 156.295L135.539 155.629L134.282 155.837L134.267 155.33L133.676 155.205L134.013 154.261L134.422 154.587L134.892 154.322L135.911 152.492L136.32 152.299L134.861 150.898L135.157 150.534L134.479 150.42L134.403 149.011L133.142 148.841L132.536 147.879L130.801 148.409L130.778 148.049L130.138 147.758L129.403 148.148L128.236 148.152L126.293 147.121L126.005 147.481L124.615 147.587L125.066 147.299L123.99 147.023L123.907 145.849L123.888 145.727L124.146 145.091L123.002 143.621L123.498 142.958L122.657 142.205L122.297 142.314L122.308 142.083L122.18 141.383H122.051L122.248 140.47L123.1 140.879L123.263 140.439L122.721 140.136L122.899 139.845L122.036 140.08L121.335 139.261L120.422 139.648L120.244 139.019L119.123 138.636L118.865 138.932L117.577 138.92L116.839 137.898L116.824 136.269L115.949 135.295L115.831 134.424L114.93 133.981L114.536 132.33L114.846 131.364L114.532 131.227L114.615 130.867L115.952 129.992L116.354 129.227L116.331 128.53L115.498 128.049L115.468 127.371L116.384 126.617L115.668 126.606L115.301 125.849L114.793 125.955L114.24 124.784L115.017 124.379L115.146 124.689L115.744 124.617L116.505 123.943L116.327 123.349L117.574 123.008L120.687 123.133L121.994 122.617L123.983 122.739L124.127 121.599L123.35 121.258L123.441 120.924L124.278 120.833L125.683 119.708H125.892L126.255 118.189L125.271 117.996L125.13 117.189L125.517 116.67L126.627 116.349L126.869 115.996L126.441 115.5H126.221L126.074 114.504L125.483 114.352L125.096 113.663L125.683 113.163L125.676 113.057L124.411 111.564L125.687 111.458L126.468 111.004L126.619 110.254L125.661 109.826L125.445 109.636L125.176 109.705L125.187 109.25L123.221 106.864L123.49 105.561L124.24 105.269L124.786 105.466L125.017 105.492L123.305 102.633L123.354 101.765L124.123 101.193L124.236 100.405L122.869 100.958L120.99 97.6894V97.5947L120.676 96.7159L119.945 96.8144L119.816 95.4697L118.93 94.0341L119.195 91.6894L121.634 91.144L121.952 91.5493L122.331 91.1515L123.369 91.269L124.509 90.0076L124.615 89.0834L124.945 88.9318L127.214 88.8826L127.202 89.4697L128.585 89.197L130.153 89.4849L130.589 90.1856L131.839 89.8068L131.937 90.3902L132.373 90.2538L134.581 89.1932L135.835 88.019L136.937 87.7538L136.702 86.947L137.104 85.1478L138.236 85.4091L138.316 84.8902L139.259 83.9356Z" fill="#CCCCCC" stroke="white" stroke-width="0.5"/>
<path d="M69.3262 42.053L68.8111 42.4242L69.2808 42.4848L69.0459 43.0871L68.6103 42.4583L68.9474 41.947L69.3262 42.053ZM64.0194 26.2235L64.5118 26.303L64.402 26.625L64.9096 27.1515L64.1747 27.7841L63.5535 27.2159L63.1634 26.1591L63.6406 25.5795L64.0194 26.2235ZM126.773 23L128.902 23.3977L130.338 24.1098L132.372 28.3295L130.773 27.9205L129.553 28.125L129.508 27.8333H130.345L129.41 27.5038L128.841 27.8674L129.322 28.072L129.099 28.3409L127.709 28.3144L127.091 28.0152L127.262 27.072L126.902 26.4394L126.357 26.2576L125.345 26.6288L125.944 27.2348L124.993 26.6667L125.031 24.9659L125.493 23.9015L126.25 22.9091L126.773 23ZM64.2277 22.8902L63.8831 24.5114L63.4399 22.5227L64.2277 22.8902ZM72.0724 22.1023L72.5497 22.3485L72.205 22.5189L71.4171 22.1553L72.0724 22.1023ZM69.3868 21.8826L69.2391 23.2008L68.7921 23.4205L69.1633 23.5265L69.0043 23.8674L69.3224 24.25L68.9777 23.9318L68.5421 24.5417L67.2808 24.678L66.6065 23.8182L66.5838 22.9697L69.3868 21.8826ZM65.7694 21.0152L66.2505 21.8598L65.6255 21.9091L64.6634 21.0871L65.7694 21.0152ZM70.152 18.4697L69.9437 18.9621L69.5194 18.8371L69.6444 18.4811L70.152 18.4697ZM68.383 17.7083L67.9967 18.4773L66.4815 18.7045L65.6027 19.3939L65.1634 19.0568L65.4474 18.6212L67.7505 18.072L68.3944 17.4621L68.383 17.7083ZM69.7656 16.5833L69.4702 17.1515L68.8187 17.0758L69.5156 16.2311L69.7656 16.5833ZM61.6103 18.4924L61.5687 18.8333L62.0724 18.9773L61.6027 19.178L61.9664 19.5189L61.0497 19.6894L59.3641 17.3409L61.0573 15.3902L60.5384 16.4242L61.0952 18.0606L61.6103 18.4924ZM65.0497 13.625L66.5308 14.0644L66.4399 14.7538L66.83 15.197L66.0573 16.8295L64.0535 16.8106L62.0005 15.9129L61.9096 15.1705L62.6861 14.0076L65.0497 13.625ZM62.9399 1.27652L63.6103 1.50379L61.9323 1.55682L62.0421 1.93561L62.6899 2.01894L62.9967 2.79924L61.5952 3.52652L60.8906 4.77273L61.3111 7.64394L62.6671 8.52273L66.8603 8.125L67.6899 7.64773V7.12121L68.7656 7.09091L69.902 7.82576L71.0649 7.89015L71.9437 7.32955L73.099 7.71591L74.0346 7.39394L75.2164 7.48864L77.6633 8.76136L79.9929 8.7197L82.1785 9.66288L82.5156 11.3523L83.08 11.2727L83.5952 11.7197L83.8717 11.4659L84.7883 11.7765L85.7277 10.2121L86.3755 10.0303L87.0383 11.3485L87.0308 12.2614L87.7732 10.8258L88.5421 10.8333L88.955 10.2045L90.2959 9.42045L90.7126 8.60606L91.2959 8.58333L90.7505 9.74621L91.1217 10.5038L95.6785 11.9318L97.133 13.7538L97.6861 13.7765L98.1293 12.9848L98.3982 13.3258L98.3944 11.9167L99.633 12.6591L100.394 15.2045L101.576 16.553L101.5 17.1364L101.338 16.3371L100.637 16.5189L100.906 17.5644L101.523 17.2311L101.038 17.6098L101.512 17.7462L101.338 22.1629L99.8224 24.1477L97.5383 25.3561L96.6633 25.3523L97.4474 26.4394L98.6027 26.2576L99.0535 25.8788L98.8376 25.8409L103.724 24.9167L105.523 26.1326L104.8 26.9811L105.292 28.8674L104.584 29.0758L104.429 29.7576L104.137 29.7159L104.485 31.0227L103.902 32.0985L104.686 31.2689L105.141 31.4318L104.766 31.2159L104.974 30.0417L105.394 29.8182L105.338 29.3068L106.16 27.8598L107.447 27.6894L107.841 27.1402L108.512 26.9621L110.285 27.447L112.285 28.8598L115.16 29.9356L117.66 32.375L119.739 32.053L123.144 29.1818L125.262 29.2652L124.315 29.4394L125.425 29.7538L126.732 29.3636L126.94 28.7955L127.531 28.5152L127.447 28.9091L127.671 28.6856L127.993 28.9508L127.849 29.5833L126.656 30.7083L126.716 30.3636L126.194 30.3788L126.304 30.7348L126.554 30.6402L127.061 36.7917L123.656 39.1553L121.686 41.428L120.478 41.25L120.213 40.5492L119.769 41.8561L118.815 42.928L119.618 44.9773L121.679 45.2462L122.027 45.7689L121.966 46.5871L122.482 46.6856L122.232 48.0644L123.97 48.678L122.663 49.0682L122.459 48.7045L122.69 48.3674L121.921 47.9773L121.054 49.0985L120.379 49.2386L120.004 49.9621L119.296 50.1098L118.743 50.9773L119.334 53.375L119.076 54.3485L118.974 55.0417L120.103 55.6136L120.262 56.322L121.19 57.0758L122.944 57.1856L122.872 57.5682L123.402 57.7803L123.648 59.2614L123.095 60.0455L122.644 62.4015L121.19 62.6742L120.91 62.197L120.516 62.2652L120.792 63.5795L120.326 64.4583L120.58 64.7462L119.667 64.8712L118.925 65.9811L117.61 66.1742L117.379 67.0833L116.436 66.8674L115.94 67.1477L115.527 70.0379L115.023 70.7689L114.652 70.9432L112.732 70.3788L109.777 68.3561L108.641 68.3182L108.095 67.9697L108.523 67.3447L107.709 67.2159L106.466 65.9886L105.747 64.428L105.171 64.7803L104.553 64.3598L104.285 62.2992L105.447 61.7879L105.258 60.7083L106 59.8409L105.266 59.6477L105.455 59.2652L105.114 58.6364L104.118 58.053L104.512 57.5417L104.451 56.9886L105.057 56.7803L105.3 56.1894L105.334 55.9053L104.72 55.5909L103.572 56.6174L102.595 56.3333L102.277 56.7273L102.527 56.9848L102.216 58.0568L100.61 57.928L100.129 59.3409L98.3793 59.0947L97.9929 60.2879L96.6823 61.7652L95.8073 61.4583L95.7315 60.7159L95.1482 60.5303L95.1141 59.928L94.1255 62.9735L92.7505 62.6364L89.777 60.5265L88.7012 57.4015L86.7732 55.5947L85.2884 52.5644L84.0724 50.9129L81.5459 49.8409L76.599 50.053L76.224 49.3485L75.4323 49.0682L74.224 47.5909L73.6671 45.7462L73.1634 45.197L73.6558 44.7955L73.1406 45.1023L72.4815 43.9621L71.7997 43.9242L73.599 43.0417L74.599 43.2424L74.4096 43.6591L74.7277 43.6553L74.7391 43.3447L74.8906 43.6402L75.4929 43.4886L76.1368 42.5871L76.1141 42.3371L75.5043 42.2955L75.9815 42.072L75.2543 41.1894L75.5459 41.0947L75.2164 41.0909L74.7618 39.5568L73.9929 39.4508L73.1293 40.0379L73.2202 39.6098L73.0724 40.0455L71.8906 37.8977L72.6671 35.4129L72.6255 33.303L72.3149 32.947L71.2846 33.3712L70.349 32.9205L69.5005 33.0455L68.7315 33.9697L67.9361 33.5985L66.9058 32.0833L67.1141 32.8826L66.6141 32.4318L67.0535 33.178L66.3603 32.2386L67.0081 30.322L67.3527 30.2197L67.1899 30.6591L67.8262 30.9356L68.1482 30.3598L68.9967 30.1894L68.6406 30.3295L69.0156 29.5795L68.633 29.7955L68.1293 29.5758L68.0118 29.8561L66.974 29.6667L67.277 28.8674L72.1823 27.8106L73.3944 28.1023L74.5914 27.2841L75.5383 26.0341L76.5346 25.8144L76.6747 25.25L77.3906 25.553L77.7126 25.2841L77.2088 25.4394L76.5649 25.1364L76.6444 24.3788L76.1141 23.4697L75.5194 23.8295L74.8262 25.5644L74.4891 25.4583L74.6899 25.5947L74.0156 25.9811L72.7467 25.9545L71.8187 25.5379L72.1027 24.8864L71.8073 24.3674L73.4626 22.9356L73.3641 21.6477L73.6596 20.4697L73.9134 20.447L73.3679 20.25L73.599 19.7462L73.2467 20.2311L72.0005 20.25L71.8906 19.9659L73.0118 19.3826L72.6482 19.4735L72.0876 17.9242L70.4134 16.7992L70.2315 15.5379L69.0687 14.947L68.974 14.6705L69.4134 14.375L69.1065 13.0947L66.9702 10.1364L66.8073 8.33712L64.705 8.39394L62.3565 9.85985L61.4664 9.36364L61.152 8.65909L60.5724 8.50379L60.4399 9.14773L59.6103 9.71591L59.5687 14.3068L59.1406 13.8864L59.5346 7.17803L61.902 1.24242L62.33 1L62.9399 1.27652Z" fill="#CCCCCC" stroke="white" stroke-width="0.5"/>
<path d="M117.577 138.921L118.865 138.932L119.123 138.637L120.244 139.019L120.422 139.648L121.335 139.262L122.036 140.08L122.899 139.845L122.721 140.137L123.263 140.44L123.1 140.879L122.248 140.47L122.051 141.383H122.18L122.308 142.084L122.297 142.315L122.657 142.205L123.498 142.959L123.002 143.622L124.146 145.091L123.888 145.728L123.907 145.849L123.99 147.023L125.066 147.3L124.615 147.587L126.005 147.481L126.293 147.122L128.237 148.152L129.403 148.148L130.138 147.758L130.778 148.05L130.801 148.409L132.536 147.879L133.142 148.841L134.403 149.012L134.479 150.421L135.157 150.534L134.862 150.898L136.32 152.3L135.911 152.493L134.892 154.322L134.422 154.587L134.013 154.262L133.676 155.205L134.267 155.33L134.282 155.837L135.54 155.629L135.748 156.296L136.176 156.284L136.195 157.144L136.543 157.311L136.172 157.936L135.718 158.038L136.085 158.735L135.956 159.292L136.536 159.747L137.941 159.731L138.634 159.129L139.475 159.391L139.729 159.928L140.21 159.383L140.968 159.417L141.683 160.118L141.74 160.962L142.505 161.087L143.142 162.065L143.532 161.633L144.093 161.853L146.324 161.572L146.892 162.614L147.608 162.428L148.244 162.834L148.237 163.928L149.127 164.019L149.377 164.928L151.161 164.534L152.96 165.205L153.399 164.603L153.581 165.205L154.13 165.159L154.149 166.004L154.752 165.387L154.513 165.099L154.873 164.284L155.968 162.898L155.865 162.159L154.975 162.22L155.778 160.228L157.081 159.724L157.562 160.019L157.68 160.606L158.449 160.44L158.843 160.811L159.971 160.478L160.278 161.148L160.683 161.137L161.096 161.258L161.191 163.012L161.377 162.644L161.964 162.739L162.013 163.432L161.668 163.694L162.843 164.197L163.619 163.8L164.009 165.97L164.74 166.735L164.373 167.372L163.941 167.114L161.926 167.474L161.513 167.201L161.183 167.394L161.267 167.754L160.615 167.682L159.672 168.826L159.589 169.648L159.081 169.784L158.99 169.072L158.676 169.432L157.979 169.235L157.354 169.856L157.327 170.402L156.343 170.55L156.123 170.144L156.202 170.667L155.945 170.341L155.683 170.898L154.998 170.5L155.077 171.697L155.88 171.637L155.93 171.936L155.392 172.758L154.71 172.572L154.403 173.637L155.365 173.671L155.543 174.031L155.077 174.466L155.271 175.307L156.68 175.694L156.604 176.485L155.354 177.209L155.316 177.754L153.778 177.432L153.551 178.391L152.566 177.773L152.237 179.519L152.839 179.493L152.892 179.773L151.96 180.129L151.422 179.705L150.888 179.792L150.801 180.569L150.316 180.754L149.649 180.777L149.407 180.125L149.85 179.144L149.024 178.337L149.433 177.962L148.99 177.603L148.528 178.091L148.638 178.542L147.165 179.47L147.24 180.542L146.18 180.701L145.824 181.254L146.259 182.027L147.308 181.8L147.32 182.349L148.127 183.182L147.479 183.784L147.733 184.436L147.312 184.122L146.426 184.633L146.528 185.11L147.218 185.243L147.108 185.58L144.729 186.86V186.364L143.63 185.724L143.464 186.072L142.979 185.909L143.244 186.239L142.653 186.118L142.051 186.61L141.907 186.368L139.896 186.932L139.146 186.349L138.608 186.459L138.335 187.012L137.418 187.409L137.384 186.614L136.38 186.432L136.471 185.315L136.032 185.247L135.505 185.705L135.691 185.254L134.96 184.777L134.952 182.902L135.32 182.993L135.452 182.694L135.214 182.243L133.161 181.883L133.187 182.262L132.57 182.345L132.589 183.016L132.1 183.069L131.831 183.591L131.737 183.231L130.79 183.47L130.801 184.595L131.252 185.296L131.036 186.447L131.676 187.955L131.119 188.284L131.475 188.864L131.115 188.834L131.308 189.997L130.88 190.47L131.1 190.652H131.002L130.877 191.417L129.517 190.493L129.399 191.247L129.051 191.368L129.206 190.959L128.335 190.773L128.028 190.239L128.619 189.084L128.138 188.231L127.657 188.383L127.593 187.72L126.956 187.769L126.869 188.281L125.877 188.576L125.702 187.97L124.657 187.769L124.755 188.372L124.445 188.432L123.263 186.75L122.782 186.883L122.6 186.955L122.191 187.201L121.827 186.595L121.49 186.917L120.763 186.747L120.115 187.239L119.653 187.038L118.892 188.042L117.964 187.803L117.896 188.5L118.263 188.557L117.956 189.447L118.585 189.644L119.282 190.489L120.062 190.55L120.127 191.012H120.259L121.081 191.159L121.108 192.322L120.528 192.572L120.013 192.046L119.244 192.432L118.331 192.061L118.29 193.565L117.975 193.819L117.57 193.542H117.445L116.577 192.864L115.865 193.125L115.335 192.856L115.089 192.277L115.415 192.144L115.115 191.614L115.339 191.3L114.941 191.307L115.252 190.504L114.96 189.94L115.146 188.962L114.225 188.803L113.812 187.819L113.521 187.754L113.096 188.341L113.028 187.978L112.536 188.148L112.543 187.391L112.274 187.459H112.096L111.589 186.394L110.21 186.69L109.952 186.125L110.392 185.489L109.63 185.247L109.888 184.962L109.558 185.008L108.812 183.989L108.646 182.909L107.968 182.921L106.85 182.186L106.274 182.262L106.263 181.508L105.702 181.152L105.589 180.629L104.998 180.72L104.903 181.061L104.312 180.701L104.115 181.061L103.286 180.266L102.377 181.319L102.418 181.667L101.676 182.061L101.6 181.565L102.146 180.557L101.562 178.478L101.854 177.993L102.657 178.027L101.968 176.186L100.676 175.985L99.5433 176.33L99.4297 176.731L99.8842 177.315L99.6948 177.766L97.6797 177.353L97.7441 176.22L98.8009 175.315L98.4524 174.879L99.2176 173.606L99.1797 172.974L98.7744 172.845L98.8729 172.269L99.5395 172.284L99.3047 171.3L99.5244 170.478L100.062 170.069L100.218 170.125L100.6 170.3L100.816 169.868L101.324 169.966L101.589 169.269L101.187 169.436L101.214 168.773L102.127 168.133L102.096 167.837L101.812 167.868L101.888 167.451L100.956 166.633L99.9827 167.159L100.373 166.254L99.8123 166.216L99.5547 166.569L99.4676 165.853L100.96 166.148L101.255 165.807L101.373 166.034L102.195 165.758L101.706 165.587L101.653 164.887L101.138 164.353L101.615 163.144L103.146 163.493L103.551 163.247L104.21 163.921L105.604 163.345L105.331 162.932L105.858 162.648L105.627 162.296L104.07 161.364L104.388 161.004L104.168 160.406L104.877 159.19L103.547 158.311L104.665 157.781L105.46 159.322L105.767 158.83L105.536 157.849L106.38 156.523L105.384 156.266L104.657 155.512L104.244 155.686L104.013 155.171L103.384 155.379L102.316 154.951L102.536 154.319L101.797 153.913L101.998 152.951L99.9903 152.724L99.9108 152.114L99.1911 151.853L99.4108 151.372L98.8464 150.034L98.9221 149.228L100.676 148.091L100.896 147.489L101.585 147.474L101.782 146.834L102.312 147.569L102.6 146.925L103.339 147.087H103.49L104.377 147.053L104.077 146.58L104.85 146.497L105.165 145.826L104.971 145.572L105.543 144.944L105.892 145.534L106.297 145.542L106.596 145.053L107.873 144.644L108.081 143.853L108.93 143.682L109.839 141.974V141.743L109.593 141.019L110.968 140.837H111.112L112.604 141.58L113.187 142.319L114.199 142.231L115.286 141.326L116.509 142.141L116.725 141.474L116.077 141.141L115.971 140.262L116.316 140.281L116.077 139.769L117.13 139.436L116.968 139.08L117.577 138.921Z" fill="#CCCCCC" stroke="white" stroke-width="0.5"/>
</svg>
