<svg width="233" height="302" viewBox="0 0 233 302" fill="none" xmlns="http://www.w3.org/2000/svg">
<path d="M114.058 141.865L114.016 141.823L113.978 141.835L113.914 141.85L113.853 141.948L113.842 141.971L113.865 142.001L113.887 141.994L113.986 142.016L114.061 141.986L114.069 141.963L114.054 141.933L114.058 141.865Z" fill="#CCCCCC" stroke="white" stroke-width="0.5"/>
<path d="M113.133 89.0944L114.584 89.2573L114.731 88.7497L115.163 88.1588L115.042 86.7383L113.641 87.6777L113.012 87.6891L113.118 89.0566L113.133 89.0944Z" fill="#CCCCCC" stroke="white" stroke-width="0.5"/>
<path d="M55.1275 112.891L55.9154 113.554L55.6805 114.182L56.029 114.876L56.4912 118.334L55.9608 119.603L55.5896 121.868L57.0215 124.338L57.3018 125.384L57.4761 128.289L57.2526 129.762L57.7905 132.069L57.6882 136.217L57.5859 136.74L54.9191 140.645L54.9532 141.634L54.6313 142.608L54.8093 144.1L54.5744 144.649L54.8472 145.487L54.8131 146.862L54.707 147.373L54.1578 147.756L54.4759 148.324L54.1199 148.847L53.8168 149.365L52.9115 149.062V149.369L52.3887 149.657L52.5175 150.453L53.1123 149.672L54.0782 150.021L53.6047 150.858L52.2524 151.597L52.4645 151.938L52.1577 152.396L52.5327 152.532L52.4645 152.953L52.1122 153.146L52.3433 153.305L51.2675 153.866L51.347 154.517L51.1387 154.726L51.2561 154.862L52.0933 154.237L51.9796 154.612L51.2296 155.832L50.4303 155.892L49.9871 155.169L48.7522 155.123L49.2447 153.873L48.2939 153.832L47.703 153.513L47.4226 153.396L46.612 153.07L46.1726 152.589L45.3847 152.676L44.8127 151.975L44.5286 151.767L43.8808 151.934L44.093 151.18L43.4717 151.256L42.8013 150.949L42.7066 150.676L42.5513 150.013L42.8543 149.892L42.8694 149.062L43.146 148.729L43.4301 149.044L44.0551 148.559L44.4604 148.597L44.6422 147.971L45.29 147.714L45.2483 147.449L43.8695 147.297L43.2823 146.854L42.6914 147.229L42.5588 146.157L41.2406 146.665L41.1951 146.21L40.305 146.18L40.339 145.93L40.805 146.017L41.6989 145.248L41.8012 144.718L42.0588 144.331L42.4982 144.335L42.7293 143.793L42.8202 143.327L42.627 142.486L43.1043 142.161L42.7028 141.449L42.3467 141.513L41.9527 141.566L41.4717 141.831L39.9716 141.774L39.3087 142.202L39.608 141.13L39.017 140.346L40.1004 140.255L40.5019 139.884L40.2216 139.456L40.3315 139.115L42.0247 138.145L41.8391 137.732L41.4792 137.786L41.108 136.509L40.3163 136.816L40.0663 136.27L39.3996 135.922L38.7897 136.096L39.0398 135.695L38.8731 135.482L38.339 135.638L38.3996 134.963L38.8655 134.766L38.7897 134.069L38.5019 134.088L38.2178 133.513L37.998 133.24L41.0057 132.475L40.3353 131.543L39.9413 131.626L39.661 131.281L39.2481 131.46L39.1193 131.107L39.7064 130.766L39.4792 130.323L39.0019 130.221L38.3579 130.77L38.3428 130.035L38.0587 129.831L38.142 129.531L38.5663 129.8L38.7102 129.433L39.3428 129.346L39.2784 128.562L40.2443 128.588L40.4981 127.815L40.7254 127.183L40.1193 126.929L40.4678 125.956L41.3201 125.425L41.5588 124.88L41.4717 124.524L41.2406 124.543L41.6194 124.145L41.6535 124.758L42.1914 124.493L42.2747 124.819L42.8467 124.963L43.271 124.02L43.1043 123.683L44.3657 123.527L44.5968 122.982L45.2256 122.989L45.4491 122.705L47.2446 122.668L48.1234 122.141L48.3166 121.334L48.6197 120.732L49.3735 120.289L50.1993 120.156L50.7978 120.47L51.2599 120.19L51.4607 120.584L51.9569 120.652L52.1766 121.084L52.4797 121.766L52.7486 121.732L53.6426 120.171L53.5971 118.618L52.9532 117.61L53.5517 116.747L53.1956 115.845L53.9608 115.213L53.7221 115.069L53.9153 114.66L53.5555 113.364L53.8888 113.016L55.1275 112.891Z" fill="#CCCCCC" stroke="white" stroke-width="0.5"/>
<path d="M151.195 288.988L151.308 289.193L150.805 289.587L151.706 289.67L151.471 290.204L152.343 289.841L152.263 290.136L152.505 289.969L153.642 290.621L153.532 290.803L154.013 291.091L153.706 291.083L153.672 291.428L154.123 291.193L153.737 291.757L154.256 291.326L155.089 291.909L154.926 293.174L154.653 292.704L154.271 293.053L154.691 293.208L154.316 293.488L152.206 293.034L150.532 291.769L150.373 291.166L150.619 291.14L150.467 290.788L150.695 290.496L150.38 290.28L150.634 289.992L150.536 289.628L150.195 289.579L150.403 289.216L151.195 288.988ZM150.585 288.386L150.835 288.655L150.32 288.776L150.289 288.435L150.585 288.386ZM148.562 286.924L150.039 287.458L150.543 288.098L149.092 288.594L147.68 288.053L147.611 287.091L148.562 286.924Z" fill="#CCCCCC" stroke="white" stroke-width="0.5"/>
<path d="M142.455 116.065L142.97 118.466L143.819 120.553L146.194 124.788L148.849 127.709L151.97 130.039L152.3 130.921L153.69 132.258L153.815 132.77L155.921 134.171L157.876 134.865L157.956 136.702L159.255 137.622L158.812 138.323L159.156 138.641L158.081 139.384L157.209 140.459L156.899 141.634L156.005 142.263L155.353 143.675L153.55 145.619L152.777 145.479L153.077 145.236L152.671 143.611L152.255 143.206L151.33 142.592L150.933 143.092L150.717 143.009L150.345 142.179L149.876 142.228L149.52 141.751L148.417 142.653L147.876 143.494L147.035 143.55L146.876 143.891L147.349 145.236L147.925 145.573L147.766 145.963L147.444 145.914L147.349 145.532L147.095 146.001L146.341 146.02L146.103 147.02L145.804 146.236L145.364 146.27L145.035 147.179L144.531 147.198L144.425 147.751L143.716 147.38L142.921 147.577L141.978 146.338L141.235 146.41L140.326 145.876L139.936 146.123L139.432 145.971L138.769 144.717L138.269 144.994L137.864 144.547L137.19 144.361L136.788 145.153L135.254 145.664L134.693 145.312L134.417 144.626L133.72 144.463L133.159 143.922L132.504 143.657L131.974 144.172L131.595 142.797L132.08 141.929L131.701 141.395L131.318 141.463L130.568 140.6L130.227 140.74L127.329 139.039L126.56 138.766L126.553 139.236L125.651 138.993L125.117 138.141L125.174 136.277L125.469 136.414L126.257 135.74L126.276 134.834L126.932 134.785L129.417 136.122L129.886 135.83L130.526 136.065L130.932 135.221L131.5 135.111L131.299 134.842L131.992 134.717L131.261 134.255L131.148 133.637L130.227 133.319L129.25 132.357L129.004 131.114L127.587 130.175L128.375 129.292L126.863 127.876L128.068 126.959L128.03 126.057L127.651 125.353L128.042 125.133L128.329 124.088L129.371 124.482L129.602 124.205H130.114L130.333 124.576L130.901 124.285L131.758 124.402L132.269 123.959L132.557 122.66L131.803 122.421L131.367 121.902L131.572 121.266L132.201 121.447L132.913 120.944L133.129 121.118L133.356 120.22L134.254 120.072L134.368 119.129L134.875 118.565L134.966 118.019L135.754 118.447L136.652 118.027L136.906 118.383L137.417 118.318L138.178 117.962L138.353 117.125L138.61 116.981L139.663 116.913L140.462 116.379L142.353 115.974L142.455 116.065Z" fill="#CCCCCC" stroke="white" stroke-width="0.5"/>
<path d="M173.958 163.836L173.833 163.37L174.34 162.904L175.079 162.76L176.84 163.056L177.791 162.715L178.34 163.113L178.981 162.768L178.92 162.408L179.553 162.245L179.484 161.957L179.795 162.067L180.333 161.745L181.204 162.37L181.863 162.484L181.954 162.874L182.432 162.988L182.663 163.878L182.897 163.719L183.594 164.287L183.352 164.681L183.466 165.268L182.788 166.045L182.216 165.942L182.447 166.37L184.564 167.272L185.166 167.844L185.977 167.101L186.735 167.348L187.848 169.795L190.333 172.086L190.629 172.746L191.208 172.905L192.527 171.374L193.299 172.31L193.277 171.594L193.644 171.495L193.966 171.999L194.008 171.34L194.648 171.617L195.03 171.374L195.095 171.749L195.538 172.014L195.743 171.734L196.849 172.575L196.459 172.768L196.921 173.302L196.58 174.674L196.928 175.45L196.69 175.624L196.527 176.719L196.89 177.102L196.724 177.409L197.163 177.742L196.799 178.53L197.125 178.886L197.769 178.723L198.44 179.128L198.58 179.742L199.239 180.299L199.534 181.003L198.042 183.14L196.22 187.064L195.352 187.697L194.322 187.337L193.14 187.704L191.974 187.318L191.25 187.458L191 187.038L190.761 187.595L190.845 188.67L190.455 189.511L190.553 190.269L189.398 192.33L189.818 192.761L189.651 193.261L188.841 192.356L188.083 192.288L186.973 192.538L186.966 193.201L185.913 192.72L185.519 193.129L183.701 193.227L183.113 192.568L183.254 192.333L182.932 191.727L183.401 190.883L182.962 190.761L182.397 191.083L182.136 190.72L181.435 190.606L180.894 191.072L180.659 190.742L180.306 190.928L179.966 190.572L179.329 190.64L178.439 191.599L178.079 192.583L177.401 191.239L176.606 190.511L176.553 189.951L175.916 189.579L176.556 189.197L176.075 188.674L176.534 188.545L177.125 187.742L177.003 186.64L177.617 186.015L177.564 185.636L178.878 185.076L178.681 184.61L179.034 184.295L179.019 183.757L178.787 183.322L177.678 183L177.625 182.5L177.003 181.928L176.984 180.958L176.189 180.67L175.583 179.859L174.802 179.469L174.621 178.814L173.799 178.166L174.071 177.757L173.56 176.541L173.825 176.231L172.177 175.234L172.454 174.469L173.079 174.086L173.102 173.78L170.855 172.321L170.92 170.484L170.609 170.458L170.692 170.011L169.912 169.529L170.708 169.473L170.753 168.662L170.367 168.465L170.53 168.215L172.344 168.624L172.586 168.492L172.499 168.052L173.621 167.564L174.477 165.34L173.958 163.836Z" fill="#CCCCCC" stroke="white" stroke-width="0.5"/>
<path d="M178.078 192.583L178.438 191.598L179.328 190.643L179.965 190.575L180.305 190.927L180.658 190.742L180.893 191.071L181.434 190.605L182.139 190.719L182.4 191.083L182.965 190.761L183.404 190.878L182.934 191.723L183.256 192.329L183.116 192.564L183.703 193.223L185.522 193.124L185.916 192.715L186.969 193.193L186.976 192.53L188.086 192.283L188.844 192.352L189.654 193.253L189.821 192.753L189.404 192.321L190.56 190.261L190.457 189.499L190.848 188.662L190.768 187.586L191.007 187.033L191.257 187.45L191.98 187.31L193.151 187.696L194.333 187.329L195.363 187.689L194.639 188.613L194.511 189.609L195.026 191.802L193.283 194.011L192.336 195.765L192.351 196.871L193.113 197.75L192.904 199.06L194.829 200.2L197.874 200.246L199.662 202.265L201.439 203.352L202.753 203.689L203.049 204.469L203.859 205.25L205.344 205.761L204.45 207.989L204.356 209.386L205.178 210.591L204.435 213.072L204.981 213.784L204.863 214.144L205.136 214.576L206.295 215.125L205.477 215.868L205.572 216.928L204.125 218.444L204.022 218.027L203.488 217.834L202.689 218.122L201.878 217.3L200.102 217.58L197.935 218.387L194.62 220.44L193.238 222.921L193.673 223.694L194.17 228.868L193.995 229.936L191.855 232.164L189.113 233.323L186.082 237.156L185.7 239.725L184.737 241.554L184.097 242.35L182.832 242.554L181.305 242.198L178.203 242.49L176.597 241.577L175.775 240.035L176.18 239.459L175.699 238.175L176.177 237.077L175.752 235.804L175.771 234.774L177.324 234.137L178.04 234.115L179.018 233.561L179.491 232.739L179.665 231.535L180.101 231.141L180.404 230.103L180.961 229.595L181.237 228.861L181.521 227.016L179.506 225.213L179.688 224.523L180.374 223.872L181.972 223.341L182.631 222.648L183.563 222.535L184.859 222.921L185.514 222.732L186.431 222.012L187.181 219.557L187.071 217.618L185.9 217.049L184.756 214.936L184.143 212.182L183.847 208.22L182.806 204.784L181.423 202.625L180.423 201.909L179.62 199.125L179.275 198.84L178.745 195.511L178.381 194.871L178.817 194.136L178.078 192.583Z" fill="#CCCCCC" stroke="white" stroke-width="0.5"/>
<path d="M148.392 176.499L149.153 176.59L148.892 176.939L147.782 177.094L147.831 176.477L148.392 176.499ZM141.456 171.397L143.127 171.852L143.327 172.143L143.066 172.927L141.998 172.939L141.88 173.166L141.13 172.772L141.115 172.064L141.456 171.397ZM143.577 153.34L144.153 153.631L144.047 154.207L144.828 155.135L145.642 154.953L146.134 155.279L146.032 154.362L145.513 153.73L146.347 152.203L147.214 152.927L147.362 152.404L148.669 152.427L148.748 152.749L149.419 152.752L149.521 153.139L150.29 153.552L153.324 154.438L153.468 155.04L153.919 155.385L155.184 155.188L155.646 155.855L156.476 155.116L156.873 155.093L156.858 154.737L157.605 154.646L157.961 154.927L158.673 154.707L159.324 153.612L160.843 154.256L161.438 153.654L162.442 153.571L163.571 152.775L164.256 153.851L165.34 154.154L165.412 154.457L165.101 154.752L165.306 155.207L164.904 155.275L164.586 155.718L164.821 156.711L165.946 157.112L166.025 157.934L167.321 157.881L167.715 158.442L168.328 158.321L168.806 158.862L168.196 159.249L168.518 160.15L167.753 160.605L167.446 161.359L168.041 161.65L168.317 162.366L169.078 162.912L169.495 162.571L170.567 163.022L171.211 162.533L172.007 163.215L172.601 163.162L173.965 163.844L174.484 165.348L173.628 167.571L172.507 168.06L172.594 168.499L172.351 168.632L170.537 168.219L170.37 168.473L170.757 168.666L170.711 169.48L169.916 169.537L170.696 170.018L170.613 170.461L170.927 170.488L170.863 172.325L173.109 173.783L173.086 174.09L172.457 174.469L172.181 175.234L173.829 176.231L173.567 176.541L174.079 177.757L173.806 178.166L174.624 178.814L174.81 179.469L175.59 179.859L176.196 180.67L176.992 180.958L177.011 181.928L177.636 182.5L177.689 183L178.798 183.322L179.03 183.757L179.045 184.299L178.692 184.613L178.889 185.079L177.575 185.636L177.628 186.015L177.018 186.64L177.139 187.742L176.548 188.545L176.094 188.674L176.575 189.193L175.931 189.576L175.605 188.833L174.552 188.689L173.196 189.045L171.59 190.89L170.306 190.674L169.537 189.924L168.7 190.133L168.628 189.894L168.953 189.648L168.692 188.803L167.438 187.598L166.878 187.515L165.927 186.367L164.154 186.39L163.15 185.14L161.756 184.708L161.521 184.307L162.271 183.738L162.309 182.219L163.298 181.651L163.302 180.538L161.01 175.78L158.991 173.658L157.957 173.818L157.442 174.624L156.176 174.257L155.15 175.166L154.26 175.321L153.339 174.818L150.286 176.284L150.582 174.73L151.779 174.492L151.941 173.935L153.298 173.003L152.888 171.802L151.714 171.431L150.373 169.958L149.328 169.261L148.324 169.681L147.627 170.583L147.07 170.499L147.365 170.355L147.097 169.969L145.828 169.605L145.411 169.901L145.733 170.92L144.881 170.632L144.877 168.92L144.452 167.431L143.449 165.829L143.426 165.772L142.513 164.787L141.983 162.957L140.634 160.753L139.426 159.537L139.634 159.037L140.771 158.817L140.96 158.525L140.714 158.434L140.752 158.044L141.93 157.624L141.54 155.931L141.85 155.362L141.35 154.521L142.165 154.381L143.32 153.332L143.577 153.34Z" fill="#CCCCCC" stroke="white" stroke-width="0.5"/>
<path d="M119.743 87.3332L119.3 88.5037L119.387 90.0682L118.432 90.4432L118.228 91.2387L117.122 91.1023L117.194 90.7083L116.891 90.5909L116.629 89.6401L115.599 90.0682V89.2575L114.739 88.7575L115.167 88.1666L115.046 86.7461L113.644 87.6855L113.015 87.7006L113.122 89.0643L113.58 89.9053L112.966 89.9015L112.837 89.5909L112.084 89.8901L111.701 91.2046L110.716 91.9963L110.64 92.8183L110.625 92.8069L110.004 93.144L109.235 93.0039L108.921 93.7501L108.333 92.8751L107.788 93.1781L107.254 93.1175L106.602 93.4584L106.182 92.9774L105.833 93.0721L105.28 92.7311L104.879 92.8902L104.261 92.4925L104.182 92.1251L103.67 92.0569L103.473 91.5682L101.708 91.4887L100.951 90.5758L99.5945 89.8181L99.6968 88.659L99.0074 88.1969L99.1324 87.5794L98.3104 86.7915L98.4051 86.3559L98.6589 86.39L98.5831 85.9771L99.2195 85.7347L99.3824 84.9808L100.151 84.1513L100.28 83.1323L98.2081 83.549L97.2043 83.4126L97.7535 82.6171L97.6816 82.2232L96.6967 82.0224L96.3065 82.4012L95.852 82.3027L95.1966 81.5565L94.6701 81.4125L94.5413 80.6019L94.0375 80.1473L93.1056 81.0527L92.1624 81.1512L92.0867 81.5565L91.223 82.3406L89.7116 82.3936L89.6699 82.7497L90.7798 83.3937L90.8745 83.8028L89.9123 83.8634L88.7418 83.5262L87.4767 84.0755L86.4312 83.9543L85.844 83.5187L86.0789 83.1247L85.9273 82.78L84.0864 84.8483L83.8364 84.7346L83.9576 84.3748L83.7 84.0301L82.8363 83.8406L80.9537 82.3141L78.8437 82.2648L78.4649 82.7308L78.4915 83.2421L77.8589 83.4012L76.5634 82.2459L76.4724 81.6587L75.8133 81.0527L75.8323 80.5299L75.3701 80.2761L74.7375 80.386L73.6201 79.2344L73.014 79.223L72.1844 78.7571L71.2829 79.2079L69.1502 76.954L68.2259 77.1472L66.6046 76.0335L66.1766 75.5562L66.3812 74.5638L65.9834 74.4842L65.794 74.0145L64.8735 73.685L62.8469 73.9085L61.5552 75.9426L60.1915 76.7343L59.6536 75.4767L58.6309 74.7229L58.2331 74.9691L57.699 74.6395L57.5664 75.0032L56.5134 75.1055L56.1573 75.5335L56.0588 75.0903L55.4338 75.238L56.0171 73.5297L56.5171 73.4501L56.699 72.1546L56.3732 71.3629L55.1497 70.9424L54.8504 70.2871L53.9261 70.9652L52.7329 69.9992L52.5662 70.397L51.7707 70.2644L51.8995 69.9462L51.676 69.7075L50.82 69.8742L50.8086 67.9499L50.9942 68.0219L51.6571 67.9802L51.5359 67.215L52.0321 68.1658L53.2557 67.8438L52.9867 67.3173L53.3238 66.9233L53.267 66.4612L52.6079 66.1089L52.4943 65.6922L53.9527 64.2225L53.5473 62.9914L53.1799 62.6808L52.9034 62.8323L52.2405 62.2224L52.714 61.6012L52.4867 61.2148L53.1155 61.0557L53.6345 59.5215L54.2557 58.8586L54.2102 58.0329L54.9868 57.3359L54.9451 57.0821L55.411 57.1502L55.5323 56.8434L56.6081 56.5707L57.2028 57.2752L57.6308 56.8851L57.3922 55.851L57.6687 55.8055L58.2748 56.6161L58.7596 56.4116L59.0059 55.6881L59.3544 56.1616L59.2975 57.1086L60.8809 57.7866L61.4946 57.2487L61.684 56.8661L61.3999 56.4532L61.7295 56.351L62.0439 56.9343L62.7446 57.2942L62.8848 57.9988L63.2371 56.7828L63.6159 56.7942L63.9985 57.3548L64.3318 57.2071L64.4076 56.7677L63.9795 56.1654L64.6614 55.6123L64.9379 55.8434L64.794 56.673L65.8849 55.8358L66.2221 55.8699L66.9342 56.798L66.7675 57.3624L67.3433 57.8283L67.3698 58.2904L67.9342 58.1579L68.2373 58.817L69.4987 58.226L69.6995 58.5783L70.5404 58.5556L71.6768 59.4534L72.2829 59.4685L73.3549 60.3284L74.283 59.8208L74.8398 60.9269L76.5709 61.7716L78.0634 61.7072L78.6127 61.389L79.696 59.8284L79.8665 60.442L80.5484 59.6579L80.9158 60.8398L82.5863 61.1125L82.8704 61.4118L83.2038 61.3512L83.2341 61.6353L83.7417 61.5709L83.6659 61.7906L84.2189 61.4496L84.7303 61.533L84.8175 61.0974L85.6963 60.6466L86.8781 60.7451L87.2304 60.4458L88.2343 60.6883L88.6964 61.2754L88.9047 61.0292L90.3783 60.9118L90.5146 60.6617L91.0753 61.0595L91.7079 60.4572L94.0678 60.8057L94.1284 61.3701L96.2876 61.2299L97.0831 61.7641L97.246 62.3777L97.5149 62.4724L97.9846 62.427L98.7498 61.7072L99.9582 61.3701L100.238 60.5292L101.345 60.014L103.72 60.0443L104.557 59.7488L107.095 60.1541L107.962 61.3209L108.523 60.9534L108.83 61.3512L109.644 61.4156L110.197 60.9269L110.606 60.9231L110.921 61.3322L110.682 61.8019L110.807 62.8967L111.05 63.2565L111.803 63.4497L112.031 64.2755L111.784 64.3399L111.334 63.6429L110.883 63.5065L110.228 64.3702L110.705 64.1808L110.076 65.8362L109.852 67.7226L110.034 68.9764L110.777 70.4273L110.735 73.7759L111.406 75.579L111.485 76.8631L112.262 79.5715L112.928 80.9087L115.47 83.871L116.425 84.5111L118.686 86.9468L119.743 87.3332ZM108.599 91.6175L108.496 92.0455L109.015 92.6478L109.841 92.2235L109.727 91.8069L109.648 91.6288L108.599 91.6175Z" fill="#CCCCCC" stroke="white" stroke-width="0.5"/>
<path d="M120.626 13.8829L121.357 14.1254V14.6671L121.622 14.8072L123.179 14.6936L125.509 15.1444L126.244 14.9398L127.823 15.3262L129.21 16.3717L129.854 16.1027L130.82 16.3717L131.267 15.8868L131.77 15.9436L131.812 15.5989L132.509 15.7959L132.471 16.0989L132.835 16.2164L134.312 15.9512L134.604 16.4967L135.441 16.3717L135.668 16.758L136.577 16.6482L138.464 17.2429L137.896 19.5536L137.176 19.3074L136.07 19.5877L135.551 20.6673L133.702 21.7128L133.107 21.7393L133.115 22.7507L131.842 23.5386L132.778 25.2697L132.558 25.9175L133.251 25.8493L133.225 25.5008L133.911 25.5235L134.286 25.7925L134.827 25.7016L135.43 26.0993L135.672 26.6599L136.884 26.4705L137.422 26.7774L137.032 27.9971L135.68 29.304L134.251 30.2093L134.365 31.0692L133.77 31.6791L134.926 32.7587L135.547 32.6715L136.051 32.1071L137.028 32.2359L136.922 33.5541L135.733 35.8497L136.127 37.0846L136.63 37.4217L137.532 37.2778L139.04 38.5543L139.994 38.8081L141.358 41.1908L142.415 41.9598L140.854 43.3538L140.036 43.4068L139.1 42.9143L138.532 43.0545L138.498 42.7022L138.793 42.5431L139.82 42.8651L140.278 42.5014L139.737 42.5204L139.562 41.9295L139.18 42.0128L138.956 41.7628L139.422 41.4067L139.149 40.6264L136.82 38.1301L135.873 37.8535L135.445 37.9937L135.233 37.6907L134.714 38.2513L134.642 38.8801L135.308 39.418L134.036 40.0317L133.733 39.9294L132.929 40.7097L132.013 40.7968L130.069 39.7513L129.372 39.6377H129.255L129.221 39.6112L127.619 40.0354L126.528 41.7098L126.122 41.4825L126.168 41.2514L125.797 41.2969L125.861 40.7968L125.478 40.4938L125.619 40.1908L125.319 40.115L125.103 39.1036L124.736 39.3725L124.869 38.9293L124.622 38.4369L124.808 38.3384L124.039 37.6073L124.452 37.3649L124.141 37.2361L124.209 36.9255L124.062 36.7853L124.077 36.6679L123.857 36.0694L123.634 36.1603L123.804 36.6982L123.217 36.8876L123.031 36.4747L122.456 36.8308L121.982 36.3989L122.134 35.9823L121.891 35.9557L121.069 36.3686L120.861 36.7626L120.622 36.4861L120.785 36.1073L120.357 35.7891L119.607 36.5846L119.353 36.3308L117.883 37.6907L117.864 37.077L117.44 36.88L117.395 36.5429L116.925 36.2929L116.667 36.9028L115.91 36.505L115.993 36.0504L115.467 35.5732L114.989 33.8572L114.429 33.8534L114.035 33.2814L113.493 33.2663L113.486 31.9518L113.217 30.9669L112.868 30.6639L113.539 29.5994L114.637 28.857L114.808 27.5009L113.891 26.7622L113.777 25.9554L113.084 25.9932L112.986 25.3947L112.198 25.4023L111.395 24.3227L112.076 23.6106L112.061 22.8568L112.455 22.5386L113.179 22.6408L113.304 21.8757L113.997 21.5234L113.929 21.2961L114.156 21.3984L114.035 20.8756L114.792 20.2089L114.898 19.546L115.459 18.7733L115.614 18.9362L116.209 18.4627L116.91 18.7619L117.304 18.4627L117.993 18.7581L117.846 18.099L117.38 17.796L117.425 17.4399L118.736 16.6141L119.702 16.5914L119.368 16.152L119.633 15.2921L119.266 14.6633L119.338 13.9814L119.963 13.6367L120.626 13.8829Z" fill="#CCCCCC" stroke="white" stroke-width="0.5"/>
<path d="M123.932 167.43L123.837 167.93L124.053 168.002L123.674 168.438L123.606 167.37L124.455 166.987L123.932 167.43ZM143.482 152.528L143.864 152.85L143.576 153.343L143.292 153.331L142.141 154.38L141.326 154.521L141.826 155.362L141.52 155.93L141.91 157.623L140.732 158.047L140.694 158.437L140.94 158.528L140.751 158.82L139.614 159.04L139.406 159.54L138.341 158.775L137.879 159.002L136.815 158.566L135.697 159.195L135.739 159.748L136.08 159.975L135.307 160.002L131.921 158.028L130.277 157.634L129.655 158.013L128.777 157.968L127.671 158.32L126.417 159.513L125.504 159.441L124.394 156.892L123.007 155.418L121.644 154.665L120.367 154.536L120.06 154.774L118.235 153.551L117.591 153.657L117.538 153.926L117.208 153.786L115.95 151.566L113.268 148.365L111.874 147.183L109.522 146.111L109.17 143.876L107.984 141.698L106.155 140.626L105.662 139.891L104.692 139.52L104.476 139.062L103.59 138.501L101.973 138.74L101.34 137.266L100.188 135.747L100.12 135.035L99.3172 133.418L98.4649 132.221L96.4042 130.542L94.4609 129.614L95.1655 128.042L97.7414 128.012L97.7073 126.713L96.6504 125.989L97.1694 125.254L96.9989 124.588L97.2338 124.463L97.6656 124.86L97.9194 124.523L98.2262 124.61L98.8854 124.277L98.9649 123.868L99.5331 123.447L100.022 123.542L100.366 122.732L100.885 122.804L101.416 122.455L101.385 122.046L100.988 121.864L100.832 120.872L101.298 120.875L101.692 119.981L100.26 118.86L100.7 117.936L101.158 118.114L101.423 118.614L101.617 117.853L102.234 117.447L103.173 117.5L103.787 118.974L104.84 119.656L104.458 120.406L103.757 120.8L104.245 121.599L105.814 122.569L107.208 122.072L107.59 122.478L107.636 122.194L107.889 122.277L108.412 121.826L109.03 122.084L109.662 122.864L109.871 124.557L110.503 124.853L110.424 125.595L110.818 125.917L110.534 126.171L111.109 126.474L110.848 126.648L111.556 126.569L112.022 127.046L112.78 126.432L113.337 126.493L113.242 127.198L113.522 127.455L113.265 127.542L113.261 128.323L114.128 128.626L113.761 129.164L115.14 128.967L115.121 129.603L115.45 129.982L117.091 128.709L117.174 127.239L117.625 127.209L117.962 127.914L118.42 127.895L119.553 127.148L119.034 126.376L120.193 126.042L120.257 125.538L121.034 125.576L121.735 124.959L122.526 124.705L122.292 123.739L122.511 123.296L123.276 123.671L123.579 123.304L124.811 123.319L125.08 122.739L125.86 123.148L126.921 122.497L126.939 122.201L127.553 122.444L128.057 121.959L128.341 120.273L129.583 120.572L129.788 120.129L130.201 120.091L131.595 121.288L131.39 121.928L131.826 122.444L132.58 122.682L132.292 123.985L131.781 124.429L130.924 124.307L130.356 124.599L130.137 124.232L129.625 124.228L129.394 124.504L128.352 124.114L128.064 125.16L127.674 125.376L128.053 126.08L128.091 126.982L126.886 127.898L128.398 129.315L127.606 130.202L129.023 131.137L129.269 132.383L130.246 133.346L131.163 133.66L131.277 134.277L132.012 134.74L131.318 134.865L131.515 135.13L130.951 135.24L130.546 136.084L129.905 135.849L129.436 136.141L126.951 134.804L126.295 134.853L126.277 135.762L125.489 136.437L125.197 136.3L125.14 138.164L125.67 139.016L126.576 139.259L126.583 138.789L127.352 139.062L130.25 140.763L130.587 140.622L131.337 141.486L131.724 141.414L132.103 141.948L131.618 142.816L131.996 144.191L132.527 143.676L133.182 143.941L133.743 144.482L134.44 144.645L134.72 145.331L135.281 145.683L136.815 145.168L137.22 144.376L137.891 144.562L138.296 145.009L138.8 144.732L139.463 145.986L139.966 146.138L140.353 145.888L141.262 146.426L142.004 146.354L142.951 147.592L143.705 148.244L144.236 149.604L144.273 150.123L144.016 150.365L144.535 150.937L144.451 151.297L144.129 151.365L144.592 151.767L143.482 152.528ZM114.068 141.963L114.053 141.933L114.056 141.865L114.015 141.823L113.981 141.835L113.916 141.85L113.856 141.948L113.844 141.971L113.871 142.001L113.893 141.994L113.992 142.016L114.068 141.986V141.963Z" fill="#CCCCCC" stroke="white" stroke-width="0.5"/>
<path d="M63.4909 85.2188L63.3394 85.5938L63.1045 85.2188H63.4909ZM21.8871 84.7756L22.1863 84.8779L22.7735 84.2453L22.2772 84.2529L21.9325 83.7074L22.1105 83.1241L22.8454 82.7187L26.2546 83.8097L26.8759 83.4801L27.6183 83.7415L27.785 83.465L27.5729 83.1354L27.0766 82.9044L27.7736 82.3286L28.3532 82.7149L28.8911 82.5293L29.3381 81.946L29.3192 81.2111L28.7661 80.7262L29.0426 80.0823L28.7169 79.6656L29.1904 79.1997L28.7093 78.7034V78.3246L28.8722 78.1201L29.4252 78.3663L29.5389 77.5443L30.0275 77.6049L30.3987 76.995L30.3078 76.2412L31.5162 75.5745L31.8003 74.8434L31.2814 73.601L31.8041 73.4305L31.7889 72.7108L32.3761 72.2411L32.7473 72.8206L33.4481 72.8926L34.6148 73.8813L35.111 73.6123L35.3232 72.779L35.63 72.635L36.1868 73.0328L36.6187 72.385L36.7513 72.7108L37.9634 72.6653L38.3422 72.9494L39.3801 71.8017L39.0809 71.4569L39.5468 70.7259L40.8953 70.8016L41.509 70.8925L42.1871 72.0062L42.0734 72.3471L42.3992 72.332L42.5431 73.1653L43.0242 72.9911L42.8878 72.4305L43.547 71.8774L43.5394 71.3206L44.4031 71.2107L44.7364 71.6577L45.2819 71.366L45.1682 69.9569L44.6228 69.366L45.2137 68.8887L45.4561 68.2599L46.066 68.1689L46.3387 68.5553L47.2024 68.4606L47.8085 69.7599L48.354 69.6501L48.907 69.972L48.8881 70.5327L49.5055 70.991L50.8389 70.438L50.8162 69.8849L51.6723 69.7182L51.8996 69.9569L51.7708 70.2751L52.5662 70.4077L52.7329 70.0099L53.9261 70.9759L54.8504 70.2978L55.1497 70.9531L56.3732 71.3736L56.699 72.1653L56.5172 73.4608L56.0171 73.5404L55.4338 75.2488L56.0588 75.101L56.1573 75.5442L56.5134 75.1162L57.5664 75.0139L57.699 74.6502L58.2369 74.9798L58.6347 74.7336L59.6574 75.4874L60.1953 76.745L60.6953 76.6731L61.0779 77.6504L62.6045 78.836L63.5856 79.2375L63.6197 80.2111L63.9265 80.4762L63.7636 81.5104L64.5516 80.8475L65.1084 81.2338L64.8243 81.2566L64.3546 82.0066L65.8433 81.9573L65.919 82.8513L66.2751 83.3779L66.0895 83.8438L66.7638 83.2756L67.6615 83.8324L67.5592 84.3552L66.7183 85.3211L66.1198 85.2188L65.669 85.5484L64.5516 84.715L64.5705 84.3665L64.0591 84.3627L63.3053 83.6051L62.8166 83.9044L63.3091 84.518L63.2182 84.7415L63.5023 84.6923L63.1045 85.2226L61.3014 84.0445L60.5817 83.1127L59.6574 82.6278L59.2332 82.9384L58.7218 81.9687L57.949 81.6278L57.6043 80.9876L56.8013 80.6846L56.449 80.1467L55.555 80.1164L55.0247 79.5671L54.7747 79.7451L54.161 78.6883L51.498 77.1882L51.0851 77.5822L51.1306 78.4951L49.7517 77.8549L49.9487 77.1806L49.6873 76.817L45.6455 75.7942L45.3993 75.3927L45.1758 75.5594L45.3311 75.8132L43.6114 75.3472L44.0546 75.2677L43.7061 75.1275L42.8045 75.0859L42.9068 75.2829L42.1265 75.101L41.3423 75.4041L40.7628 75.9609L40.0696 76.0935L39.5127 76.6768L37.2626 77.8208L36.971 78.2034L37.2361 78.1504L36.0997 79.1921L36.3876 79.5747L35.6603 80.5406L35.8043 81.3134L32.7738 82.8286L32.02 84.1392L31.9177 85.4044L30.7283 86.7416L30.645 87.2757L30.9253 87.7909L29.3002 88.8856L28.9555 89.5182L28.0805 89.7076L26.4895 90.7493L24.8076 91.0903L24.2621 91.5486L23.6788 91.3744L22.4174 92.1168L21.7317 92.0032L21.1522 92.6055L19.3756 92.2002L18.9059 92.5827L18.5195 92.4994L17.7051 90.541L17.7392 89.9576L18.0233 89.6016L18.9513 89.3175L19.0953 88.1167L20.7506 87.2492L21.0499 86.5863L20.9552 85.7832L21.7772 85.431L21.8871 84.7756Z" fill="#CCCCCC" stroke="white" stroke-width="0.5"/>
<path d="M71.1766 14.4023L71.3736 14.622L71.0289 15.1675L71.1274 15.5917L71.9115 15.7357L72.0933 16.3228L72.9418 16.5463L73.1918 16.1637L74.0366 16.4971L74.4532 16.3153L75.1768 16.8759L75.6124 17.8986L77.0405 18.0123L78.0405 18.6828L78.4307 19.1979L78.3435 20.0275L78.6617 20.554L78.0973 21.145L77.3511 21.1866L76.3738 22.1526L77.3738 22.6337L77.6011 23.3989L77.264 23.8799L77.5708 24.058L77.7678 24.8686L76.9041 26.4444L77.3094 27.0467L76.9533 28.7248L75.6919 30.2665L75.8283 30.9863L75.3775 31.3423L75.1616 32.0355L75.1805 32.4143L75.8397 32.5356L75.779 33.3045L76.2715 34.0583L75.9268 34.8538L76.1238 36.4865L76.9761 36.8463L76.7071 37.3653L76.8662 37.6949L77.3662 37.7441L78.1769 37.2403L78.9269 37.2138L79.1049 36.3993L80.6239 36.0925L81.105 36.4637L81.2527 36.138L82.7566 36.4297L78.5557 42.6799L78.9837 47.1308L78.8322 47.8808L79.1504 47.949L79.4155 47.6422L80.3474 48.0702L79.9837 49.0438L80.3474 49.3279L79.855 49.6991L80.2338 50.2635L79.9762 50.987L80.5406 51.1348L80.7338 51.5098L81.6467 50.7522L82.3891 51.4833L82.8134 52.3734L83.8134 52.5969L83.8551 52.8545L84.5483 53.0363L84.5104 53.5288L85.5976 54.0212L85.9006 54.4834L85.7567 55.1311L86.3666 55.0099L86.6961 55.2182L86.3325 55.9304L87.2113 56.6691L87.6659 56.7524L87.7568 56.2713L88.2719 56.5478L88.6242 55.9115L89.7606 56.3357L89.2796 56.7221L89.4349 57.1047L89.2114 57.7183L90.397 58.1577L90.9387 57.8358L90.9425 58.7676L93.9653 60.3889L94.0525 60.7791L91.6925 60.4306L91.0599 61.0329L90.4993 60.6351L90.3629 60.8851L88.8894 61.0025L88.6811 61.2488L88.2189 60.6654L87.2151 60.423L86.8628 60.7222L85.6809 60.6237L84.8021 61.0745L84.715 61.5139L84.2036 61.4306L83.6506 61.7715L83.7263 61.5518L83.2187 61.6162L83.1884 61.3321L82.8551 61.3927L82.571 61.0935L80.9005 60.8245L80.533 59.6427L79.8512 60.4268L79.6807 59.8131L78.6011 61.3738L78.0519 61.692L76.5594 61.7564L74.8283 60.9116L74.2714 59.8055L73.3433 60.3131L72.2713 59.4533L71.6653 59.4381L70.5288 58.5403L69.6879 58.5669L69.4871 58.2184L68.2257 58.8093L67.9265 58.154L67.3621 58.2865L67.3355 57.8244L66.7598 57.3585L66.9264 56.7941L66.2143 55.866L65.8772 55.8319L64.7862 56.6728L64.9302 55.8433L64.6536 55.6122L63.9718 56.1652L64.3998 56.7675L64.3279 57.207L63.9945 57.3547L63.6119 56.7941L63.2331 56.7827L62.8808 57.9986L62.7407 57.2941L62.0399 56.9342L61.7293 56.3509L61.3997 56.4531L61.6838 56.866L61.4944 57.2486L60.8808 57.7865L59.2974 57.1085L59.3542 56.1615L59.0057 55.688L58.7595 56.4115L58.2746 56.616L57.6685 55.8054L57.392 55.8508L57.6306 56.885L57.2026 57.2751L56.6079 56.5706L55.5359 56.8433L55.4146 57.1501L54.9487 57.082L54.9904 57.3357L54.2176 58.0327L54.2631 58.8585L53.6456 59.5214L53.1267 61.0556L52.4979 61.2147L52.7251 61.6011L52.2516 62.2223L52.9145 62.8322L53.1911 62.6806L53.5585 62.9913L53.9638 64.2224L52.5054 65.6921L52.6191 66.1088L53.2782 66.4611L53.335 66.9232L52.9979 67.3172L53.2668 67.8475L52.0433 68.1733L51.5471 67.2225L51.6683 67.9877L51.0054 68.0293L50.8652 66.9497L51.1039 66.1921L50.244 65.5558L50.0659 64.4459L49.0356 64.73L48.8651 64.4345L48.3121 64.389L48.3576 64.033L47.9181 63.5898L48.2742 63.2072L47.9977 62.4572L47.6113 62.5026L46.9749 61.9382L46.3878 60.9723L46.4787 60.3169L46.2022 59.8283L46.0241 59.6616L45.5241 59.8965L45.0355 59.2335L44.9256 58.0214L43.8233 58.1085L43.2096 58.7184L42.5884 58.7866L42.4937 59.1767L42.0088 59.1123L41.9444 58.7335L41.5202 58.7941L41.3724 58.3547L41.1982 59.0214L39.9406 58.2941L39.8307 56.9607L39.2928 56.4683L39.4254 55.9758L39.0011 55.8584L38.7776 55.294L38.236 55.1311L38.0276 54.7599L38.7057 53.7864L37.8837 54.15L37.6943 54.0023L38.145 53.8394L37.6715 53.3962L38.0276 53.0742L37.8117 52.9189L38.289 52.8583L37.6791 52.6575L37.6715 52.4719L38.039 52.5212L37.9215 51.8507L37.1602 51.4567L37.4367 50.8923L37.9481 50.7181L37.7208 50.04L38.289 49.5173L38.736 49.8961L39.789 49.8544V50.1991L40.2171 50.4794L40.4027 51.4454L40.9595 51.4037L41.3762 51.1802L41.5884 50.3847L42.3005 49.9302L41.4785 49.0513L42.0505 49.1574L42.4937 48.8544L43.0884 49.021L43.8953 48.6119L43.543 47.5551L43.2058 47.5778L42.7702 46.1005L41.4406 45.4148L40.952 43.5511L41.1186 42.9034L40.3876 42.2821L40.2663 41.8049L40.8421 41.9223L40.5353 41.2253L40.6754 40.8465L39.9065 40.695L40.1148 39.6873L38.9595 39.3426L38.1943 37.8956L38.217 37.3312L39.0049 36.441L38.5201 34.5659L41.5694 31.2476L41.1868 29.5241L41.4255 28.9142L41.8838 28.4104L42.2058 28.9407L42.6831 29.187L43.1452 28.99L44.0392 29.7211L44.0506 30.1415L43.6528 30.3802L42.7134 32.0621L43.6036 32.0734L44.3385 32.8462L44.8764 32.9712L44.8915 33.6076L45.8272 35.4561L45.1642 36.4524L46.0431 36.1228L46.8386 36.4183L46.7098 36.7971L47.5924 36.8274L47.8727 35.441L48.6454 34.619L48.3651 34.5811L48.0545 33.975L47.2742 33.7705L47.1757 32.9144L46.7135 32.6492L47.4295 31.9939L47.0014 30.7552L47.206 30.3612L48.3538 29.9483L48.581 29.3309L48.2818 28.4142L49.1985 27.9634L50.0091 27.0391L50.4107 27.0126L51.1796 25.236L51.7327 25.1792L51.7971 24.2739L52.6835 22.6185L52.6418 21.842L52.2327 21.3836L52.335 20.1601L51.7062 19.3722L52.2138 18.9404L52.2819 17.8456L53.9487 17.4706L54.1835 18.1487L54.8957 18.6449L55.373 17.7358L55.9222 17.4668L55.8313 18.0199L55.5699 18.1184L55.9412 18.3418L55.8957 21.2397L56.6117 21.4783L56.9905 22.6185L57.5662 23.3079L57.7405 23.164L59.2064 23.7549L60.0171 23.2966L60.6989 23.5845L61.233 21.9632L62.0323 22.3799L64.54 21.0995L64.9036 21.5162L65.4302 21.1374L66.2863 21.9139L65.9946 22.7284L66.3885 22.9822L66.3431 23.8117L67.4492 24.3762L67.2484 25.3459L67.7106 25.6679L68.1272 25.3762L68.7447 25.4861L69.7902 24.5921L69.3773 23.5996L68.4076 22.467L68.4568 21.8988L68.8659 21.6374L69.0629 20.9669L69.5137 20.876L69.5932 20.3003L69.2523 20.2245L69.1159 19.7548L67.934 19.9631L67.1386 19.3078L67.4037 18.7358L67.1878 18.3381L67.4189 17.1979L67.2257 16.6334L68.3166 15.4554L68.3545 14.6334L68.8886 14.7773L70.0364 14.1902L70.5326 14.4326L70.9986 13.9629L71.1766 14.4023Z" fill="#CCCCCC" stroke="white" stroke-width="0.5"/>
<path d="M136.754 98.5911L135.704 97.9813L135.257 97.1024L134.47 96.4471L134.151 97.0229L133.371 96.9282L130.507 95.3334L122.746 88.5264L120.666 87.4278L119.746 87.3369L119.302 88.5074L119.389 90.0719L118.435 90.4469L118.23 91.2424L117.124 91.106L117.196 90.712L116.893 90.5946L116.632 89.6438L115.601 90.0719V89.2612L114.742 88.7612L114.59 89.2726L113.143 89.1097L113.128 89.0718L113.586 89.9128L112.973 89.909L112.844 89.5984L112.09 89.8976L111.707 91.2121L110.722 92.0038L110.647 92.8258L110.696 92.8636L111.51 93.1894L112.378 94.3561L111.582 94.3637L111.696 95.1895L111.347 95.1668L111.116 93.7576L110.95 94.9395L110.484 95.1895L109.931 95.0834L110.006 95.3902L109.65 95.788L108.775 96.1024L109.325 96.9471L109.594 97.3903L110.764 97.3752L110.897 97.5873L111.685 96.9509L112.397 96.9055L112.204 97.2009L112.385 97.7464L111.279 98.7692L111.794 99.3071L112.336 99.0305L112.817 99.6859L113.355 98.8942L113.73 98.9434L114.045 99.4813L114.393 99.5003L114.503 99.1745L114.848 99.3336L117.257 102.095L118.064 101.606L118.908 101.917L119.408 100.898L120.196 101.11L120.056 101.872L120.397 102.19L119.715 102.83L119.734 103.148L120.594 104.269L120.738 105.372L120.503 105.637L121.215 106.144L121.469 107.44L121.996 107.701L121.943 108.8L121.329 109.387L121.583 109.97L122.367 110.129L122.583 110.777L122.492 111.826L122.776 112.626L122.446 112.876L122.802 113.614L122.59 114.179L123.609 114.789L123.685 115.118L124.106 115.168L124.151 116.698L124.609 116.183L124.617 115.535L125.109 115.827L125.64 115.3L126.78 116.171L127.727 117.664L128.738 117.433L129.212 116.743L129.746 118.115L129.651 118.804L129.303 119.524L129.159 119.232L128.431 119.528L128.337 120.285L129.579 120.584L129.784 120.141L130.197 120.103L131.591 121.3L132.223 121.486L132.935 120.982L133.148 121.156L133.375 120.255L134.273 120.107L134.386 119.164L134.89 118.603L134.985 118.054L135.773 118.486L136.667 118.065L136.92 118.425L137.432 118.361L138.193 118.005L138.367 117.168L138.625 117.024L139.678 116.952L140.481 116.418L142.371 116.012L141.538 113.474L140.955 110.395L136.689 99.8222L136.754 98.5911ZM113.579 97.3638L113.298 97.2653L113.226 97.2426L113.348 96.9774L113.563 97.1024L113.601 97.3032L113.579 97.3638Z" fill="#CCCCCC" stroke="white" stroke-width="0.5"/>
<path d="M159.426 137.771L161.487 138.866L163.377 139.218L164.881 140.862L166.078 141.328L166.158 142.566L165.351 143.729L165.661 144.839L165.298 145.442L165.677 145.904L165.392 146.101L165.771 146.665L166.476 146.987L165.699 147.373L165.442 147.942L165.15 147.65L165.139 147.961L164.347 148.305L163.847 149.222L162.62 148.654L162.146 149.23L162.491 149.533L162.222 151.646L162.813 151.9L163.567 152.771L162.438 153.567L161.434 153.646L160.835 154.252L159.316 153.605L158.665 154.703L157.953 154.923L157.597 154.643L156.85 154.73L156.866 155.086L156.468 155.112L155.638 155.851L155.176 155.184L153.911 155.381L153.46 155.037L153.316 154.434L150.282 153.548L149.513 153.135L149.415 152.752L148.74 152.749L148.665 152.43L147.358 152.404L147.21 152.927L146.342 152.203L145.509 153.73L146.032 154.362L146.134 155.279L145.642 154.953L144.827 155.135L144.047 154.207L144.153 153.631L143.577 153.34L143.865 152.851L143.483 152.529L144.566 151.749L144.104 151.347L144.426 151.279L144.505 150.919L143.986 150.347L144.244 150.108L144.206 149.589L143.676 148.23L142.922 147.578L143.717 147.381L144.426 147.752L144.532 147.199L145.036 147.18L145.365 146.271L145.805 146.237L146.104 147.021L146.342 146.021L147.096 146.002L147.35 145.532L147.445 145.915L147.767 145.964L147.926 145.574L147.35 145.237L146.877 143.892L147.036 143.551L147.877 143.494L148.418 142.654L149.521 141.752L149.877 142.229L150.346 142.18L150.718 143.01L150.934 143.093L151.331 142.593L152.256 143.207L152.672 143.612L153.078 145.237L152.778 145.479L153.551 145.62L155.354 143.676L156.006 142.263L156.9 141.635L157.21 140.46L158.082 139.384L159.157 138.642L158.813 138.324L159.256 137.623L159.426 137.771Z" fill="#CCCCCC" stroke="white" stroke-width="0.5"/>
<path d="M36.0047 18.7549L36.5918 19.3496L36.357 19.9254L36.6373 20.6716L36.5009 22.4671L35.7623 23.4331L36.3305 24.3763L36.0805 24.8233L36.6184 25.3044L37.7737 25.6832L38.6071 27.1946L39.1677 27.4332L39.0503 27.8348L39.3382 28.3575L40.0238 28.3348L40.789 28.9219L41.4102 28.8727L41.1716 29.4826L41.5542 31.2061L38.5048 34.5244L38.9897 36.4033L38.2018 37.2935L38.179 37.8617L38.9442 39.3087L40.0996 39.6534L39.8912 40.6572L40.6602 40.8087L40.52 41.1875L40.8269 41.8883L40.2473 41.7671L40.3685 42.2482L41.0996 42.8656L40.9329 43.5134L41.4216 45.3771L42.7512 46.0627L43.1868 47.5401L43.5239 47.5173L43.8762 48.5742L43.0694 48.9833L42.4709 48.8204L42.0277 49.1235L41.4557 49.0136L42.2777 49.8924L41.5655 50.347L41.3534 51.1425L40.9367 51.366L40.3799 51.4076L40.1943 50.4417L39.7662 50.1614L39.77 49.8167L38.7169 49.8583L38.2662 49.4795L37.7017 50.0023L37.929 50.6803L37.4139 50.8546L37.1411 51.419L37.9025 51.813L38.0199 52.4834L37.6487 52.4342L37.6563 52.616L38.2699 52.8168L37.7927 52.8774L38.0086 53.0365L37.6487 53.3585L38.1222 53.8017L37.6714 53.9646L37.8608 54.1123L38.6828 53.7486L38.0048 54.7222L38.2131 55.0934L38.7548 55.2601L38.9783 55.8245L39.4026 55.9419L39.2662 56.4343L39.8079 56.923L39.9177 58.2602L41.1716 58.9837L41.3458 58.3208L41.4973 58.7564L41.9216 58.6958L41.9898 59.0784L42.4746 59.139L42.5693 58.7526L43.1906 58.6844L43.8042 58.0746L44.9066 57.9836L45.0164 59.1996L45.5051 59.8625L46.0051 59.6276L46.1793 59.7943L46.4559 60.283L46.3649 60.9383L46.9521 61.9042L47.5885 62.4687L47.9749 62.4232L48.2476 63.177L47.8915 63.5596L48.3309 64.0028L48.2855 64.3589L48.8347 64.4081L49.0052 64.7036L50.0355 64.4195L50.2136 65.5294L51.0735 66.1658L50.8386 66.9234L50.9788 68.003L50.7894 67.931L50.8007 69.8553L50.8234 70.4046L49.4901 70.9614L48.8764 70.5031L48.8953 69.9424L48.3423 69.6204L47.7968 69.7303L47.1907 68.431L46.3271 68.5257L46.0543 68.1393L45.4445 68.2302L45.2058 68.8591L44.6111 69.3363L45.1566 69.9273L45.2702 71.3364L44.7247 71.6319L44.3952 71.1811L43.5315 71.2948L43.5429 71.8516L42.8838 72.4046L43.0201 72.9653L42.539 73.1433L42.3913 72.3099L42.0655 72.3213L42.1792 71.9804L41.5011 70.8667L40.8875 70.7796L39.5427 70.7L39.0768 71.4311L39.376 71.7758L38.3381 72.9274L37.9593 72.6433L36.7434 72.6887L36.6146 72.363L36.1827 73.0107L35.6259 72.6168L35.3229 72.7607L35.1107 73.5941L34.6145 73.863L33.4478 72.8744L32.747 72.8024L32.3758 72.2266L31.7886 72.6963L31.8038 73.4123L31.281 73.5865L31.8 74.8252L31.5159 75.5563L30.3113 76.223L30.3984 76.9806L30.0272 77.5905L29.5386 77.5298L29.4249 78.3556L28.8719 78.1094L28.7128 78.314V78.6928L29.1938 79.189L28.7203 79.6549L29.0461 80.0716L28.7658 80.7194L29.3188 81.2004L29.3378 81.9353L28.8908 82.5225L28.3529 82.7081L27.7733 82.3217L27.0763 82.8937L27.5726 83.1285L27.7847 83.4581L27.6218 83.7346L26.8756 83.4733L26.2581 83.8066L22.8489 82.7156L22.114 83.1247L21.936 83.7081L22.2807 84.2536L22.7769 84.246L22.1898 84.8786L21.8867 84.7763L21.9095 84.2119L20.9852 82.9657L21.3261 81.7876L20.3867 81.7497L20.0533 82.4732L18.9548 82.2914L16.9926 83.121L16.4055 82.9884L16.2843 83.4808L15.663 83.1285L14.9698 83.3899L14.6971 82.5641L13.4622 82.7081L12.7728 81.8709L12.269 81.9543L11.6818 81.0754L11.1818 80.9088L10.8219 81.1057L9.67038 80.3254L8.65519 80.4731L8.1779 80.1474L7.94304 78.9466L7.20437 78.5185L7.27256 78.1321L6.63617 77.545L6.54905 77.0374L5.85963 76.723L5.96569 75.1207L7.04906 74.9085L5.68159 73.5335L5.25733 72.1584L5.68538 71.5145L6.29146 71.4501L6.73845 71.0107L7.07179 69.8061L7.42408 69.7758L7.05285 68.8666L7.3218 68.2113L7.81046 67.8401L9.54537 67.9499L9.36355 67.2378L8.66276 66.8249L8.45442 65.6051L8.05289 65.1657L8.4923 64.2301L8.16653 63.7983L6.81042 63.1732L6.31798 63.6657L5.40885 63.4914L4.24214 62.6997L4.18153 62.3626L3.22316 61.9876L3.29892 61.1997L3.07922 61.0671L3.48832 60.4837L2.958 59.658L3.21937 59.4496L3.09058 59.0102L1.71553 58.8549L1.48067 57.4344L1.13217 57.3359L0.798828 56.5063L1.70038 55.9457L1.8519 55.5366L3.0527 55.6048L3.54893 55.0138L5.09445 55.6616L5.12854 55.904L5.98463 55.6426L5.98842 54.7714L7.0074 54.7335L7.16649 54.1615L8.07941 53.3585L8.56806 53.438L9.03399 53.1577L9.40143 53.5858L10.2121 52.5933L10.4886 52.6312L10.6894 51.6349L10.2083 50.3924L10.5795 50.3243L10.7348 49.7409L11.2348 49.4795L11.2386 48.9227L11.7083 48.2408L10.2916 47.4795L10.0568 46.5514L10.7272 45.2029L10.8636 46.2824L11.2045 46.0249L12.3674 46.4302L13.2728 45.29L14.3334 45.2635L15.0456 44.9263L15.4092 45.1801L16.7502 44.1043L17.1025 43.5096L17.5684 43.3619L18.2692 43.5399L19.0571 43.1119L19.8185 43.5854L19.8677 43.9149L20.4018 43.6649L21.1481 44.1574L22.0269 44.0134L22.2845 44.2445L24.1368 42.93L25.1369 42.8543L25.5195 43.1005L25.796 41.9489L26.2505 41.858L25.5611 40.4451L26.1899 39.3731L26.0536 38.9185L25.4399 38.6912L24.7922 37.517L25.0573 35.604L24.7922 34.0661L25.0649 33.8085L25.1028 32.4334L25.6596 31.8349L27.2316 31.8804L27.6521 31.4372L27.6976 30.8614L28.137 30.547L27.8832 29.7477L28.0877 28.9939L29.4969 28.6643L29.709 28.1227L30.4325 27.7439L30.3871 27.1794L30.6863 26.7476L30.1674 25.5051L29.6105 24.8195L28.9628 24.5165L30.1712 23.3157L30.7204 23.4823L31.55 23.1528L31.8303 22.4217L32.5576 22.0997L32.569 21.5883L33.4705 21.2133L33.6486 20.6451L33.0993 20.3799L33.3948 19.9102L33.7736 19.8799L34.5274 19.1526L36.0047 18.7549Z" fill="#CCCCCC" stroke="white" stroke-width="0.5"/>
<path d="M183.165 140.744L184.624 141.028L186.484 142.445L186.23 143.028L186.707 143.934L186.677 144.54L186.529 145.286L186.014 145.801L184.222 146.998L184.112 147.407L180.934 149.396L180.991 151.551L181.938 153.343L183.249 154.294L186.798 155.938L187.927 156.824L190.995 157.98L194.189 159.908L197.95 161.105L198.579 161.646L199.261 161.665L199.431 161.949L199.787 161.794L199.882 162.071L201.469 162.76L204.064 163.609L207.716 165.999L209.091 167.677L209.848 168.022L211.576 169.647L216.049 171.442L218.398 173.071L220.523 173.325L220.947 174.026L220.762 174.348L222.121 174.393L221.996 174.806L222.587 175.537L222.383 176.31L223.235 177.363L224.137 178.185L226.364 179.427L229.917 183.238L230.675 184.928L230.588 185.594L231.175 186.966L231.713 187.295L231.52 187.477L231.743 188.102L231.092 188.701L230.906 189.602L230.152 190.125L229.607 191.326L229.273 193.053L229.285 195.326L228.864 195.917L228.406 196.038L226.955 194.917L225.023 194.511L222.587 192.53L221.557 190.735L222.015 190.545L221.947 189.807L221.159 189.382L221.731 188.962L221.887 188.015L220.14 185.844L220.265 185.121L219.879 184.291L218.924 183.5L215.489 182.996L212.163 183.253L210.97 182.39L209.947 182.28L206.659 180.378L206.235 180.39L206.348 180.045L207.075 179.727L207.159 179.166L206.647 178.545L205.78 178.586L205.56 177.973L204.481 177.568L203.034 177.783L201.708 178.503L200.355 179.7L199.549 181.03L199.253 180.325L198.59 179.768L198.454 179.155L197.783 178.749L197.139 178.916L196.814 178.556L197.177 177.768L196.738 177.435L196.905 177.128L196.541 176.746L196.704 175.651L196.942 175.477L196.594 174.696L196.935 173.329L196.473 172.795L196.859 172.601L195.753 171.76L195.552 172.045L195.109 171.779L195.045 171.404L194.666 171.647L194.026 171.37L193.984 172.029L193.662 171.526L193.295 171.624L193.321 172.34L192.548 171.404L191.226 172.935L190.647 172.776L190.355 172.117L187.866 169.829L186.753 167.382L185.995 167.135L185.188 167.878L184.586 167.306L182.468 166.404L182.241 165.976L182.813 166.078L183.495 165.302L183.378 164.715L183.62 164.321L182.923 163.753L182.692 163.912L182.461 163.021L181.984 162.908L181.893 162.521L181.234 162.408L180.362 161.783L179.824 162.105L179.518 161.995L179.586 162.283L178.953 162.446L179.01 162.806L178.374 163.154L177.821 162.753L176.87 163.093L175.108 162.798L174.373 162.942L173.862 163.408L173.987 163.874L172.623 163.192L172.029 163.245L171.233 162.563L170.589 163.052L169.517 162.601L169.101 162.942L168.339 162.396L168.063 161.681L167.468 161.389L167.778 160.635L168.544 160.18L168.222 159.279L168.832 158.893L168.354 158.351L167.741 158.472L167.347 157.911L166.051 157.964L165.972 157.142L164.847 156.741L164.612 155.748L164.93 155.305L165.331 155.237L165.127 154.783L165.438 154.487L165.369 154.184L164.29 153.881L163.604 152.805L162.85 151.934L162.259 151.68L162.532 149.566L162.184 149.26L162.657 148.684L163.884 149.252L164.384 148.339L165.176 147.994L165.187 147.68L165.479 147.972L165.737 147.403L166.517 147.017L165.813 146.699L165.434 146.131L165.714 145.934L165.339 145.472L165.703 144.869L165.392 143.759L166.199 142.6L166.119 141.362L170.07 141.604L170.544 141.99L171.752 142.036L175.514 141.335L176.79 141.695L178.355 141.615L183.165 140.744Z" fill="#CCCCCC" stroke="white" stroke-width="0.5"/>
<path d="M34.6857 212.928L34.894 213.292L35.7501 213.046L36.5532 214.398L36.1213 216.527L35.5304 216.864L34.4697 214.838L34.2576 213.758L34.6857 212.928ZM33.4773 211.212L33.428 213.281L32.8144 213.425L32.303 213.065L32.3219 212.425L31.7386 212.08L32.6629 211.231L33.4773 211.212ZM61.1298 167.336L61.3382 167.529L60.395 168.131L60.1942 167.976L61.2397 167.116L61.1298 167.336ZM31.9166 165.862L31.7045 166.078L31.6818 165.699L31.9166 165.862ZM33.7387 162.207L33.8409 162.635L34.3106 162.949L34.0341 163.23L33.9697 163.972L32.9356 163.491L32.1098 164.639L32.3598 164.567L32.6704 165.18L32.4924 165.699L31.6212 165.589L31.9962 164.654L31.7575 164.62L31.8181 164.195L32.3788 163.961L32.7083 163.355L33.072 163.313L32.8674 162.574L33.7387 162.207ZM56.1031 159.051L56.4289 159.631L55.9592 160.419L56.285 160.506L55.4137 160.639L55.8266 159.002L56.1031 159.051ZM53.5538 158.805L53.9212 159.036L53.5197 159.392L53.5538 158.805ZM51.406 158.631L52.3606 159.415L52.0765 160.127L52.478 160.548L53.4061 160.483L53.5083 159.998L53.9818 159.945L54.1864 160.635L54.4023 160.692L55.1523 160.699L54.7811 161.18L55.2584 161.264L55.5993 161.786L55.5349 162.892L56.0994 162.036L55.9933 161.601L56.9365 161.654L57.0539 161.218L57.4024 161.688L57.1903 161.813L57.5615 161.836L57.4593 162.301L57.9631 162.279L58.0615 162.703L57.6827 163.279L57.4744 163.025L57.3267 163.165L57.4365 163.711L57.1221 163.908L56.8304 165.036L57.1221 165.021L57.1865 164.51L57.8532 164.309L57.6524 165.161L58.1525 165.184L58.1373 164.874L58.3116 164.987L58.4972 164.688L59.8419 165.381L59.5768 165.661L58.7548 165.241L58.232 165.692L58.4517 166.086L57.9631 166.741L58.0881 167.093L57.0577 166.942L56.713 167.097L57.0539 167.275L57.857 167.294L58.1828 167.427L58.0388 167.582L58.4063 168.014L58.9669 167.237L59.4442 167.328L58.8835 168.04L59.7321 168.461L59.5313 168.976L60.1639 168.836L60.9594 169.385L60.6829 169.597L60.3041 169.461L60.1487 169.828L60.3647 170.12L60.0313 170.294L59.9783 170.771L60.8723 171.658L60.8116 172.688L61.5693 173.639L61.3382 174.609L61.5806 175.575L62.2776 176.226L62.3837 176.912L63.0125 177.306L61.8231 180.779L60.3306 182.052L59.1033 184.151V185.45L59.6222 186.984L60.3874 188.011L61.1677 188.465L61.1602 189.094L60.2624 191.299L60.323 192.102L60.7889 192.219L60.8685 192.503L60.1753 193.204L60.4556 194.405L59.9366 196.174L60.1071 197.939L59.4858 199.466L59.6866 201.553L59.2131 203.235L59.4858 204.25L58.5502 207.091L58.6676 207.89L59.2283 208.349L58.6373 208.546L58.232 209.167L57.8532 210.921L58.1752 211.406L57.7661 212.534H57.3797L57.0312 212.962L57.0804 213.455L56.7016 213.137V212.587L56.3418 212.451L55.4251 212.762L52.6826 210.5L51.0007 210.148L50.1938 210.637L50.012 211.284L49.0423 210.504L48.2354 210.86L47.2733 212.057L47.2543 213.629L47.8112 214.406L47.3377 216.197L47.1293 215.989L46.8528 216.129L44.1671 218.834L43.6898 218.815L43.311 218.319L43.0648 218.641L42.5799 217.868L41.5268 217.266L41.4624 217.66L40.4169 217.917L40.5268 218.311L40.1139 218.519L40.3033 219.023L39.9775 219.133L40.0874 218.372L39.3108 218.413L39.5874 217.163L38.6252 216.288L38.4623 214.675L37.8335 214.311L36.7274 214.288L36.9017 213.588L36.6327 213L36.3903 212.773L35.9736 212.997L35.9584 211.894L34.6402 210.481L34.6023 210.11L35.7349 209.049L35.9357 208.527L35.644 207.5L35.1213 207.315L35.0455 206.667L34.7349 206.409L35.4849 205.224L35.466 204.777L34.9016 204.405L34.9811 204.027L36.2728 202.117L36.6175 200.723L36.2009 199.909L36.3675 199.144L36.1327 198.716L36.3259 198.11L36.1365 196.848L36.3941 196.53L37.0683 197.693L37.3638 197.67L37.4926 196.886L38.1062 195.841L38.2578 194.219L37.682 193.17L36.7691 193.113L36.0456 193.856L35.216 193.072L35.1213 191.371L35.5114 190.253L34.822 189.852L35.3145 189.443L35.5039 189.708L36.3145 189.458L37.0115 188.715L37.0418 188.143L36.3713 186.28L36.8751 183.499L36.4281 182.643L35.6781 182.208L34.9395 182.166L34.8713 181.62L35.3031 180.348L34.7614 178.31L34.0758 178.067L33.3409 175.779L32.3144 175.984L32.2613 176.332L31.4886 176.351L31.481 175.685L31.7651 175.488L31.3522 175.056L30.6666 176.135L30.4544 176.067L30.3446 174.935L31.1211 174.578L31.5302 173.374L30.9393 173.12L30.1211 172.188L30.784 171.298L30.6779 170.563L31.1931 170.116L31.8901 168.199L30.981 166.934L31.5113 166.025L32.1628 166.495L32.0681 167.578L33.6326 169.256L34.7879 169.487L35.6516 169.343L36.3865 169.881L38.4472 169.578L41.0344 167.487L42.9322 167.207L44.5004 165.423L44.4588 164.927L45.6255 164.226L47.1823 162.112L47.8074 161.775L48.0536 162.051L49.0347 161.862L49.2658 161.336L49.9021 161.309L50.2128 160.961L49.9249 160.237L50.1787 159.411L49.69 159.328L49.7468 158.972L50.1446 159.241L50.6901 158.949L50.7128 159.298L51.406 158.631ZM55.0728 158.381L55.6258 159.275L55.463 159.71L54.3417 159.885L54.1712 159.407L54.7319 158.983L54.6826 158.566L54.944 158.847L55.0728 158.381Z" fill="#CCCCCC" stroke="white" stroke-width="0.5"/>
<path d="M115.454 300.175L117.314 300.368L117.435 301L115.17 300.391L115.454 300.175ZM104.31 268.742L105.196 269.196L105.424 269.056L106.185 269.7L106.23 270.594L105.696 271.223L104.984 271.174L103.727 269.632L103.761 269.041L104.31 268.742ZM113.856 244.317L113.5 243.074L114 242.805L113.856 244.317ZM111.166 241.604L111.465 242.169L111.894 242.013L112.306 242.309L112.303 242.744L112.026 242.813L111.67 242.426L110.738 242.532L110.424 242.002L111.166 241.604ZM106.427 240.68L106.931 241.763L105.988 241.479L105.723 240.661L106.427 240.68ZM174.271 233.104L175.188 233.718L176.226 233.968L175.18 234.256L174.608 234.729L174.316 235.824L174.635 235.759L173.074 238.635L169.377 243.457L169.365 244.082L168.737 244.51L168.812 244.858L167.562 246.472L167.418 246.896L167.695 247.548L167.309 248.904L166.846 249.495L166.873 250.828L165.691 251.946L165.108 253.033L165.331 257.048L166.596 257.832L167.168 257.976L167.426 257.722L168.426 258.946L168.218 259.234L167.858 258.984L167.786 259.616L167.612 258.908L167.176 259.06L167.051 260.275L167.43 261.162L167.949 260.991L168.165 261.306L167.865 261.181L167.721 261.393L167.975 262.01L168.517 262.317L169.176 262.287L169.214 263.446L168.805 263.291L168.771 263.893L169.036 264.06L169.403 263.844L169.949 264.787L169.271 264.484L168.782 264.681L168.506 265.499L167.49 265.742L166.396 266.95L165.274 269.715L166.149 272.477L165.975 272.912L165.668 272.723L164.994 273.363L163.782 272.079L162.611 272.291L161.759 271.564L161.054 271.382L159.179 272.03L158.448 271.628L157.414 271.624L156.395 270.658L155.441 270.28L153.596 270.041L152.925 269.317L152.615 267.999L151.399 265.817L149.118 263.507L147.228 262.616L145.368 262.204L143.376 262.249L142.164 262.571L141.592 262.408L140.569 261.366L139.171 261.241L137.421 260.158L137.061 259.355L135.368 257.965L134.792 258.113L134.504 257.794L133.33 257.76L132.417 256.806L130.872 256.04L130.372 255.446L129.887 255.412L129.485 254.506L127.807 252.877L126.08 252.586L124.977 252.847L123.856 251.161L122.985 250.862L120.311 250.768L118.276 251.271L116.981 249.302L116.159 248.779L115.28 248.836L114.439 247.862L114.367 246.767L113.443 245.377L114.182 244.953L114.613 243.585L114.075 242.771L114.86 241.672L114.784 240.911L115.254 240.703L114.693 240.097L115.265 239.953L116.272 238.809L116.913 238.926L117.591 238.657L118.049 238.199L118.004 237.775L118.981 237.812L119.492 237.074L119.072 236.244L119.379 235.843L119.507 236.165L120.106 236.097L120.125 236.782L120.534 237.184L120.519 237.79L120.947 238.551L122.674 239.888L124.379 239.419L126.114 238.339L125.629 237.089L126 237.002L126.25 236.528L126.099 236.271L126.712 235.752L128.326 236.324L129.125 235.998L129.292 235.483L129.955 235.581L130.781 234.975L131.031 235.612L131.739 236.036L131.932 236.85L131.652 237.282L132.05 237.839L133.296 238.188L134.148 237.979L134.485 237.555L135.05 237.714L135.061 238.85L135.648 239.525L138.467 241.047L139.52 241.21L141.387 240.703L143.024 239.737L144.486 239.449L145.334 240.01L146.156 240.097L146.872 239.733L149.603 240.278L151.262 240.063L152.308 239.475L153.338 239.631L156.452 238.635L158.573 236.369L159.392 236.714L161.331 236.199L161.797 235.722L162.895 236.687L164.327 236.691L164.646 237.29L165.388 237.441L166.862 236.631L167.714 235.665L168.146 234.46L167.816 233.767L168.134 233.744L168.399 234.324L168.195 235.123L169.047 235.362L171.222 234.767L173.608 233.157L174.271 233.104ZM162.649 230.168L163.365 230.718L163.479 231.365L163.085 231.433L162.441 231.021L162.225 230.327L162.623 229.816L162.816 230.005L162.649 230.168ZM162.691 227.623L162.698 228.358L163.043 228.604L162.558 228.763L162.52 229.649L161.426 228.498L161.74 227.672L162.691 227.623ZM151.031 226.812L151.009 227.35L150.679 227.369L150.634 226.933L151.031 226.812ZM159.952 226.104L160.926 226.149L160.914 227.236L160.615 227.305L159.452 226.638L159.661 226.1L159.952 226.104ZM154.653 226.051L155.191 226.157L155.524 226.786L154.755 226.71L154.478 226.263L154.653 226.051ZM164.903 224.577L164.869 224.967L164.517 225.085L164.57 224.63L164.903 224.577ZM128.356 222.884L128.519 222.994L128.239 223.32L127.591 223.376L127.724 222.914L128.114 222.71L128.356 222.884ZM167.809 220.479L168.146 220.729L167.566 221.452L167.07 220.96L167.809 220.479Z" fill="#CCCCCC" stroke="white" stroke-width="0.5"/>
<path d="M72.4413 130.258L72.767 130.94L72.4792 131.217L72.0966 131.152L72.036 130.338L72.4413 130.258ZM83.5515 129.217L84.2978 129.986L84.2145 131.13L83.4682 130.205L83.1576 130.156L83.5515 129.217ZM67.9032 123.201L68.3123 124.001L68.0661 124.561L67.2252 124.19L67.7669 123.936L67.9032 123.201ZM74.4679 116.659L74.9717 117.19L74.68 117.997L74.8012 119.008L73.8466 119.523L74.7747 120.167L74.5664 120.879L73.6307 120.576L73.2822 119.542L72.9905 119.402L72.5284 119.493L72.5549 120.125L72.214 119.519L71.8996 120.148L71.0549 119.773L70.9715 120.398L69.9412 120.118L69.3162 120.216L69.3881 120.417L68.7025 119.997L68.3123 119.334L68.3502 118.735L69.0472 118.201L70.1268 118.175L71.089 118.762L71.1533 118.463L71.5587 118.356L71.4223 118.141L71.6685 117.963L71.4374 117.644L72.8125 117.974L72.5246 118.341L73.2443 118.47L74.2557 116.572L74.4679 116.659ZM63.0735 111.451L63.3349 112.201L62.6417 113.118L62.2932 112.614L62.4864 111.743L62.9523 111.25L63.0735 111.451ZM109.7 91.7418L109.731 91.8024L109.844 92.2191L109.018 92.6472L108.499 92.0449L108.602 91.6206L109.651 91.6282L109.7 91.7418ZM60.1719 76.7223L61.5356 75.9306L62.8273 73.9002L64.8539 73.6768L65.7781 74.0063L65.9675 74.476L66.3653 74.5594L66.1607 75.5556L66.5888 76.0329L68.2101 77.1466L69.1343 76.9534L71.267 79.2111L72.1685 78.7603L72.9981 79.2262L73.6042 79.2376L74.7217 80.3891L75.3543 80.2793L75.8164 80.5331L75.7975 81.0558L76.4566 81.6619L76.5475 82.2491L77.843 83.4044L78.4756 83.2453L78.4491 82.7377L78.8279 82.2718L80.9378 82.321L82.8205 83.8476L83.6841 84.0408L83.9417 84.3855L83.8205 84.7454L84.0705 84.859L85.9115 82.7907L86.063 83.1355L85.8319 83.5294L86.4191 83.965L87.4646 84.0862L88.7298 83.537L89.9003 83.8741L90.8624 83.8135L90.7677 83.4044L89.6578 82.7604L89.6995 82.4044L91.2109 82.3513L92.0746 81.5672L92.1504 81.1619L93.0936 81.0634L94.0254 80.1581L94.5292 80.6164L94.658 81.4308L95.1884 81.5748L95.8437 82.321L96.302 82.4195L96.6922 82.0407L97.6771 82.2415L97.7528 82.6354L97.2036 83.4309L98.2112 83.5673L100.283 83.1506L100.154 84.1696L99.3855 84.9992L99.2226 85.753L98.5862 85.9954L98.662 86.4083L98.4082 86.3742L98.3135 86.8098L99.1355 87.5977L99.0105 88.2152L99.6999 88.6773L99.5976 89.8365L100.954 90.5941L101.711 91.507L103.48 91.5865L103.677 92.079L104.189 92.1472L104.268 92.5146L104.889 92.9123L105.291 92.7532L105.844 93.0942L106.193 92.9995L106.613 93.4805L107.265 93.1396L107.802 93.2002L108.348 92.8972L108.935 93.7722L109.249 93.026L110.022 93.1699L110.643 92.8328L110.708 92.882L111.522 93.2078L112.39 94.3745L111.594 94.3821L111.708 95.2079L111.359 95.1851L111.128 93.776L110.962 94.9579L110.496 95.2079L109.943 95.1018L110.018 95.4086L109.662 95.8064L108.787 96.1208L109.337 96.9655L108.397 98.1512L108.106 99.1323L107.276 99.0641L107.068 99.2762L107.003 99.9429L107.992 100.504L107.954 100.716L107.147 101.057L106.765 101.701L106.352 101.572L105.704 102.231L105.829 102.61L106.64 102.526L106.681 103.534L107.223 103.329L107.469 103.557L107.852 104.424L107.628 105.072L107.78 105.413L108.624 105.731L108.965 104.886L109.549 105.364L107.022 106.947L106.189 106.481L105.878 106.621L106.068 107.125L105.693 108.159L103.73 109.314L103.545 109.814L103.878 110.739L103.753 111.201L104.052 111.796L104.371 111.398L104.852 111.913L103.935 115.644L104.348 115.928L104.405 116.614L103.92 116.644L103.181 117.531L102.242 117.478L101.628 117.883L101.435 118.644L101.17 118.144L100.715 117.966L100.276 118.891L101.708 120.012L101.314 120.906L100.848 120.902L101.003 121.894L101.401 122.076L101.431 122.485L100.901 122.834L100.382 122.762L100.037 123.573L99.5484 123.478L98.9802 123.898L98.9044 124.307L98.2453 124.641L97.9385 124.554L97.6847 124.891L97.2528 124.493L97.018 124.618L97.1884 125.285L96.6695 126.02L97.7263 126.743L97.7604 128.042L95.1846 128.073L94.4838 129.645L91.3132 128.906L90.87 128.546L89.8359 128.819L89.8851 129.38L89.5101 129.561L89.423 130.024L88.7336 130.08L88.2184 129.436L87.6047 129.243L87.4381 128.266L87.8093 127.8L88.1313 128.13L88.9798 128.058L89.3624 127.277L89.4798 126.095L88.8245 124.743L88.1578 124.879L87.7866 123.789L87.3699 123.383L87.4494 123.012L85.8812 122.341L85.5289 120.932L84.6917 120.065L83.0136 119.391L81.7295 119.239L80.5628 118.474L81.2598 118.046L81.3128 116.663L81.65 116.175L81.4 115.618L80.7219 115.11L79.5097 114.546L78.4263 114.428L77.0134 114.648L76.8657 115.318L75.9907 115.023L75.7672 113.531L76.4073 113.227L76.8316 110.875L76.5816 106.663L76.1384 105.564L75.3202 104.708L74.627 102.644L74.2179 102.606L73.7822 101.409L72.7898 100.659L72.1761 99.0186L72.2973 98.1247L71.5928 95.2003L71.82 94.867L71.7253 93.348L71.0283 90.041L69.1192 87.128L67.5585 85.7454L66.7403 85.3514L67.585 84.3893L67.6873 83.8665L66.7896 83.3097L66.1153 83.8779L66.3009 83.412L65.9448 82.8854L65.8728 81.9915L64.3842 82.0445L64.8539 81.2945L65.138 81.2717L64.5811 80.8854L63.7932 81.5483L63.9561 80.5141L63.6493 80.249L63.6152 79.2755L62.6341 78.8739L61.1075 77.6883L60.7249 76.711L60.1719 76.7223Z" fill="#CCCCCC" stroke="white" stroke-width="0.5"/>
<path d="M109.106 1.16667L109.762 1.68184L109.322 1.99246L109.118 2.81446L107.993 2.93189L107.493 3.41297L107.815 4.85242L108.421 5.4282L107.928 6.1555L108.788 6.31838L109.334 7.19721L109.853 6.79189L110.519 6.9472L111.118 8.16694L110.69 8.86772L110.667 9.74654L112.038 9.99277L112.557 11.6065L114.467 12.7088L113.535 13.0573L112.902 13.7656L112.569 13.6899L112.713 14.1937L112.519 14.3679L112.042 14.3907L111.762 14.0535L110.629 14.4096L110.171 14.1217L108.906 15.1255L108.864 14.2694L108.277 13.8982L107.962 14.0081L106.474 12.8451L106.587 13.7278L106.015 14.7429L106.08 15.3074L105.148 16.7923L104.928 16.5006L104.489 16.5233L104.042 16.9703L103.447 16.8491L101.602 17.7809L101.557 18.4022L102.72 18.5613L102.947 19.0878L102.076 20.1181L101.974 21.5046L101.667 21.2243L100.773 21.7659L101.875 22.6902L102.095 23.2205L101.841 23.9403L102.14 24.2054L102.958 24.016L103.125 24.7509L103.368 24.5956L103.826 24.8191L103.527 25.5653L104.447 26.4063L104.216 27.0123L103.799 26.8457L103.152 28.3419L101.565 28.895L100.72 28.8041L100.436 29.0996L100.186 28.8079L99.1477 29.1374L99.1439 29.9026L99.4962 30.4822L98.7159 30.7132L98.9962 30.9708L98.7197 31.2777L99.1515 32.0428L98.8068 32.7512L97.2121 32.6376L97.0075 31.5731L96.2916 31.3458L95.4771 31.4557L94.4392 32.3156L93.068 32.2285L93.2119 33.308L92.7233 33.3686L92.4657 33.952L92.5982 34.327L91.6588 33.8194L91.6323 33.524L91.6399 34.0391L90.7232 33.9709L90.3974 35.8309L89.5072 36.9029L89.7345 37.7968L89.1474 37.74L89.1966 39.1037L88.2496 40.3803L87.6435 40.3007L86.9124 39.6037L86.2912 39.9371L86.1245 39.4939L85.4275 40.4977L85.2419 40.1038L84.6737 40.7439L84.1093 40.3916L84.3555 39.9598L83.579 39.5772L82.7494 39.5734L83.579 38.0469L83.2835 37.4749L83.7684 37.0582L82.7532 36.4294L81.2531 36.1377L81.1054 36.4673L80.6243 36.0922L79.1053 36.3991L78.9235 37.2135L78.1772 37.2362L77.3628 37.7438L76.8628 37.6946L76.7075 37.365L76.9689 36.8385L76.1166 36.4748L75.9196 34.8422L76.2643 34.0467L75.7719 33.2929L75.8325 32.5239L75.1733 32.4027L75.1544 32.0239L75.3703 31.3307L75.8249 30.9708L75.6885 30.2511L76.9499 28.7094L77.3022 27.0351L76.9007 26.4328L77.7606 24.857L77.5674 24.0501L77.2605 23.8721L77.5939 23.391L77.3666 22.6258L76.3666 22.1447L77.3477 21.1826L78.0939 21.1371L78.6583 20.5462L78.3401 20.0234L78.4273 19.1901L78.0371 18.6749L77.0371 18.0044L75.609 17.8908L75.1771 16.8718L75.5559 16.5347L75.8931 14.6142L75.0294 13.8262L74.1619 13.9437L73.8438 12.561L74.4271 11.8375L74.143 11.1746L74.9726 10.5155L74.5104 9.54199L75.0559 9.23895L75.609 7.67071L76.0332 8.01163L77.0939 7.93587L76.9537 8.26922L79.2606 7.19342L79.7758 7.48509L79.772 7.86768L80.9728 8.35634L81.1433 8.66317L80.4804 9.66321L80.988 9.75033L81.6054 9.43971L82.1357 10.0155L82.5827 9.82988L83.5221 10.3791L84.151 10.0496L86.1397 10.2617L86.4957 9.17834L87.3632 8.72378L87.1283 7.7995L87.67 6.80704L87.617 6.12519L87.9579 5.63275L88.4541 5.70094L88.9011 5.36759L88.9542 4.62893L89.4277 4.48877L89.7762 4.71984L91.9619 3.87511L92.2838 4.09481L92.6892 3.91678L93.5945 4.65544L94.3029 4.35619L95.0605 3.32585L96.1704 4.12891L97.7613 3.28039L98.625 3.85617L99.5341 3.8789L99.8637 4.4168L100.254 4.52665L100.928 3.90163L101.985 3.85238L103.508 2.67809L104.118 2.64779L104.659 2.21217L105.504 2.28414L105.883 1.86746L106.576 1.93943L107.008 1.39395L107.413 1.54169L108.694 1L109.106 1.16667Z" fill="#CCCCCC" stroke="white" stroke-width="0.5"/>
<path d="M113.496 97.4851L113.299 97.2654L113.227 97.2427L113.318 96.9851L113.568 97.1025L113.606 97.3033L113.496 97.4851ZM109.318 96.9245L109.587 97.3677L110.758 97.3525L110.89 97.5647L111.678 96.9283L112.39 96.8828L112.197 97.1783L112.379 97.7238L111.273 98.7465L111.788 99.2844L112.33 99.0079L112.811 99.6632L113.349 98.8715L113.724 98.9208L114.038 99.4587L114.387 99.4776L114.496 99.1518L114.841 99.3109L117.25 102.072L118.057 101.584L118.902 101.894L119.402 100.875L120.19 101.088L120.05 101.849L120.391 102.167L119.709 102.807L119.728 103.125L120.588 104.247L120.732 105.349L120.497 105.614L121.209 106.122L121.463 107.417L121.989 107.679L121.936 108.777L121.322 109.364L121.576 109.948L122.36 110.107L122.576 110.755L122.485 111.804L122.77 112.603L122.44 112.853L122.796 113.592L122.584 114.156L123.603 114.766L123.679 115.096L124.099 115.145L124.145 116.675L124.603 116.16L124.61 115.512L125.103 115.804L125.633 115.277L126.773 116.149L127.72 117.641L128.732 117.41L129.205 116.721L129.739 118.092L129.645 118.781L129.296 119.501L129.152 119.209L128.425 119.505L128.33 120.262L128.046 121.952L127.542 122.437L126.929 122.194L126.91 122.49L125.849 123.141L125.069 122.732L124.8 123.312L123.569 123.297L123.27 123.664L122.508 123.289L122.288 123.732L122.523 124.698L121.732 124.952L121.031 125.57L120.254 125.532L120.19 126.035L119.031 126.369L119.55 127.142L118.417 127.888L117.962 127.907L117.625 127.206L117.175 127.236L117.091 128.706L115.451 129.979L115.121 129.6L115.14 128.964L113.762 129.164L114.129 128.626L113.262 128.327L113.269 127.547L113.527 127.46L113.246 127.202L113.341 126.498L112.784 126.437L112.027 127.051L111.561 126.573L110.852 126.657L111.114 126.482L110.538 126.179L110.822 125.926L110.428 125.604L110.508 124.865L109.875 124.569L109.667 122.876L109.034 122.096L108.42 121.838L107.898 122.289L107.644 122.21L107.598 122.494L107.216 122.088L105.822 122.585L104.254 121.615L103.765 120.816L104.466 120.422L104.848 119.672L103.795 118.993L103.182 117.524L103.92 116.637L104.405 116.607L104.348 115.921L103.935 115.637L104.852 111.906L104.371 111.391L104.053 111.789L103.757 111.194L103.882 110.732L103.549 109.811L103.735 109.311L105.697 108.156L106.076 107.122L105.886 106.622L106.201 106.485L107.034 106.951L109.561 105.368L108.977 104.891L108.636 105.735L107.792 105.417L107.644 105.076L107.867 104.429L107.485 103.561L107.239 103.334L106.701 103.538L106.659 102.531L105.848 102.614L105.723 102.235L106.371 101.576L106.784 101.705L107.167 101.061L107.973 100.72L108.011 100.508L107.023 99.9473L107.087 99.2806L107.295 99.0685L108.125 99.1367L108.417 98.1556L109.318 96.9245Z" fill="#CCCCCC" stroke="white" stroke-width="0.5"/>
<path d="M19.2698 32.1299L19.4895 32.5731L20.9365 32.3685L21.2812 32.9292L21.7813 33.1337L22.0237 33.8648L22.6298 33.4292L23.5654 34.039L24.0086 33.789L24.7927 34.0656L25.0579 35.6035L24.7927 37.5165L25.4405 38.6907L26.0542 38.918L26.1905 39.3726L25.5617 40.4446L26.2511 41.8575L25.7966 41.9484L25.52 43.1L25.1375 42.8538L24.1374 42.9295L22.2851 44.244L22.0275 44.0129L21.1487 44.1569L20.4024 43.6644L19.8683 43.9144L19.8191 43.5849L19.0577 43.1114L18.2698 43.5394L17.569 43.3614L17.1031 43.5091L16.7508 44.1038L15.4098 45.1796L15.0462 44.9258L14.334 45.263L13.2734 45.2895L12.368 46.4297L11.2051 46.0243L10.8642 46.2819L10.7278 45.2023L10.0573 46.5509L9.02699 46.4032L9.12927 45.7857L8.07241 45.4978L7.98529 43.5811L7.62543 43.2023L8.06862 41.7666L7.40951 41.3689L6.42462 41.4371L6.22765 40.8878L5.29958 40.5393L4.345 39.437L4.48516 38.9824L4.19727 37.8649L4.57986 36.2967L5.03063 36.1679L5.40564 36.4103L5.68217 35.9596L6.36023 36.1944L6.92464 36.0164L7.12541 35.6262L8.00044 35.3194L8.12166 34.5391L8.90199 33.88L10.099 35.6982L11.0725 35.1111L11.7771 35.6793L12.2468 34.88L13.0537 34.8573L13.7469 33.9406L15.5348 34.6376L17.2205 33.5769L17.2053 33.2019L17.7167 32.8042L18.5577 32.9632L18.6713 32.1564L19.2698 32.1299Z" fill="#CCCCCC" stroke="white" stroke-width="0.5"/>
<path d="M115.799 60.5404L115.288 60.8321L115.644 60.4344L115.303 60.2942L115.909 60.226L115.799 60.5404ZM115.178 59.7449L115.629 60.0859L114.731 60.2866L114.966 59.6237L115.178 59.7449ZM115.038 12.7432L116.114 13.4818L118.212 13.2697L118.996 13.55L119.333 13.9629L119.261 14.6448L119.629 15.2736L119.364 16.1334L119.697 16.5729L118.731 16.5956L117.421 17.4214L117.375 17.7774L117.841 18.0805L117.993 18.7396L117.303 18.4441L116.909 18.7434L116.208 18.4441L115.614 18.9176L115.458 18.7548L114.898 19.5275L114.792 20.1904L114.034 20.8571L114.155 21.3836L113.928 21.2814L113.996 21.5086L113.303 21.8609L113.178 22.6261L112.454 22.5238L112.06 22.842L112.076 23.5958L111.394 24.3118L112.197 25.3914L112.985 25.3876L113.083 25.9861L113.78 25.9482L113.894 26.7551L114.811 27.4937L114.64 28.8498L113.542 29.5923L112.871 30.6567L113.22 30.9598L113.489 31.9447L113.496 33.2591L114.038 33.2742L114.436 33.8462L114.996 33.85L115.473 35.566L116 36.0433L115.92 36.4979L116.678 36.8956L116.936 36.2895L117.405 36.5395L117.451 36.8804L117.875 37.0774L117.894 37.6911L119.364 36.3312L119.618 36.5888L120.368 35.7933L120.796 36.1115L120.633 36.4903L120.871 36.7668L121.08 36.3728L121.902 35.9637L122.144 35.9903L121.993 36.4069L122.466 36.8388L123.042 36.4827L123.228 36.8956L123.815 36.7062L123.644 36.1721L123.868 36.0812L124.087 36.6797L124.072 36.7971L124.224 36.9373L124.159 37.2479L124.47 37.3805L124.057 37.6229L124.826 38.354L124.64 38.4525L124.887 38.9449L124.754 39.3881L125.122 39.1192L125.337 40.1306L125.637 40.2063L125.497 40.5094L125.879 40.8162L125.815 41.3162L126.186 41.2708L126.141 41.5018L126.546 41.7291L126.334 42.0208L124.47 42.1496L124.504 41.8655L124.159 41.7329L123.978 42.2481L122.841 42.3958L122.481 42.8845L120.11 44.3656L114.079 47.1725L113.5 47.9187L112.867 47.6005L112.14 48.5779L111.595 49.6423L111.557 50.0514L111.871 50.1991L111.462 50.3507L110.871 52.8091L111.386 52.9682L110.977 53.3735L111.193 54.3281L111.678 54.8773L111.568 56.885L112.113 57.3471L112.712 58.5214L112.519 58.3926L112.216 58.7525L112.56 58.9646L112.886 58.726L112.795 59.1464L112.989 59.1995L113.197 59.082L113.03 58.4154L113.216 58.4267L114.845 60.4609L114.595 62.1541L114.189 62.5254L114.204 63.6049L113.598 63.3966L113.727 62.3132L113.341 62.1466L112.992 62.2905L112.708 62.942L113.038 63.3549L112.894 64.139L113.189 64.3891L113.436 64.2186L113.458 64.4913L112.958 64.4421L112.917 64.9876L112.004 64.2603L111.776 63.4345L111.023 63.2413L110.78 62.8814L110.655 61.7867L110.894 61.317L110.579 60.9079L110.17 60.9117L109.617 61.4003L108.803 61.3359L108.496 60.9382L107.935 61.3056L107.068 60.1389L104.53 59.7336L103.697 60.029L101.321 59.9987L100.215 60.5139L99.935 61.3549L98.7266 61.6958L97.9652 62.4155L97.4955 62.461L97.2266 62.37L97.0637 61.7564L96.2682 61.2223L94.109 61.3662L94.0484 60.8018L93.9613 60.4116L90.9384 58.7904V57.8585L90.4005 58.1805L89.2149 57.7411L89.4384 57.1274L89.2831 56.7448L89.7642 56.3585L88.6277 55.9342L88.2755 56.5706L87.7603 56.2941L87.6694 56.7751L87.2148 56.6918L86.336 55.9531L86.6996 55.241L86.3701 55.0326L85.7602 55.1539L85.9042 54.5061L85.6049 54.044L84.5177 53.5515L84.5556 53.0591L83.8662 52.8773L83.8245 52.6197L82.8245 52.3962L82.4002 51.506L81.6578 50.7787L80.7449 51.5401L80.5517 51.1651L79.9873 51.0211L80.2449 50.2976L79.8698 49.7332L80.3623 49.3658L79.9986 49.0817L80.3623 48.1081L79.4304 47.6801L79.1653 47.9869L78.8509 47.9187L79.0062 47.1687L78.5781 42.7178L82.779 36.4675L83.7942 37.0964L83.3094 37.513L83.601 38.0888L82.7753 39.6154L83.601 39.6192L84.3776 40.0056L84.1314 40.4336L84.6958 40.7859L85.2602 40.1457L85.4458 40.5435L86.1466 39.5358L86.3133 39.979L86.9345 39.6457L87.6656 40.3427L88.2717 40.4222L89.2187 39.1457L89.1694 37.782L89.7566 37.8388L89.5293 36.941L90.4195 35.869L90.749 34.0129L91.6657 34.0811L91.6582 33.5659L91.6847 33.8614L92.6241 34.369L92.4915 33.9978L92.7491 33.4144L93.2378 33.3538L93.0976 32.278L94.4689 32.3651L95.5068 31.509L96.3212 31.3992L97.0372 31.6265L97.2417 32.6909L98.8365 32.8045L99.1812 32.0962L98.7493 31.331L99.0259 31.0279L98.7493 30.7704L99.5297 30.5431L99.1774 29.9597L99.1812 29.1945L100.219 28.865L100.473 29.1567L100.753 28.865L101.602 28.9559L103.185 28.4028L103.833 26.9066L104.25 27.0733L104.477 26.4672L103.56 25.6262L103.859 24.88L103.401 24.6603L103.159 24.8156L102.992 24.0807L102.174 24.2701L101.874 24.005L102.132 23.289L101.912 22.7549L100.806 21.8344L101.7 21.2889L102.007 21.5693L102.109 20.1828L102.981 19.1563L102.757 18.6298L101.59 18.4707L101.636 17.8456L103.481 16.9138L104.075 17.0388L104.519 16.5918L104.958 16.5653L105.178 16.857L106.113 15.3721L106.049 14.8114L106.625 13.7924L106.507 12.9098L108 14.0765L108.314 13.9667L108.901 14.3379L108.943 15.194L110.208 14.1902L110.666 14.4781L111.795 14.122L112.079 14.4591L112.557 14.4364L112.75 14.2622L112.606 13.7621L112.935 13.8379L113.568 13.1258L114.504 12.7773L115.038 12.7432Z" fill="#CCCCCC" stroke="white" stroke-width="0.5"/>
</svg>
