<svg width="256" height="302" viewBox="0 0 256 302" fill="none" xmlns="http://www.w3.org/2000/svg">
<path d="M195.219 52.2653L197.016 52.9291L197.85 50.7342L198.335 50.5848L198.489 49.1865L199.493 46.5226L199.605 45.7799L200.012 45.3774L200.456 44.6429L200.713 44.5558L201.008 44.2488L201.099 43.4106L201.211 43.1907L201.854 42.9168L202.763 42.3069L202.833 42.1741L203.298 42.0538L203.879 41.4978L203.916 41.1119L205.028 40.8961L206.136 40.5351L206.725 40.5434L207.277 40.4023L209.057 41.1783L209.518 41.2032L209.958 42.0538L209.933 42.2737L210.182 42.282L211.153 43.9791L211.626 45.2985L212.46 44.9376L212.617 44.9624L212.904 45.4521V45.867L213.107 46.6637H213.655L214.501 47.4064L214.829 47.8421L215.124 47.9541L215.563 49.1657L215.854 49.3939L216.003 49.9084L216.285 50.0495L216.302 50.8005L219.012 49.5682L220.14 49.2611L222.866 49.4064L223.385 49.7549L223.713 50.2238L226.538 53.1242L227.837 54.6179L228.874 55.5889L232.617 59.8585L235.742 63.0037L237.613 65.5846L241.015 70.7256L241.094 70.7048L241.65 71.2774L243.036 71.6467L241.173 76.1736L242.733 76.3396L242.937 77.1072L243.181 77.0865L244.152 78.5097L244.322 78.5719L244.58 78.9412L244.758 78.9952L245.024 78.8458L245.098 78.8873L244.932 79.3977L244.874 80.0159L246.194 79.9495L244.82 83.0615L244.829 84.2856L243.667 100.862L243.721 101.111L242.808 102.19L242.405 101.941L241.92 101.962L240.858 101.704L240.526 101.476L240.351 101.219L239.555 101.273L238.945 100.862L238.435 100.7L237.982 101.177L237.464 101.123L237.028 101.563L236.53 101.501L235.92 101.671L235.406 101.447L235.277 101.294L234.696 101.306L234.509 100.646L233.8 100.443L233.625 100.472L233.293 100.227L232.256 100.335L231.787 99.9451L231.086 100.377L230.559 100.356L230.339 100.451L229.364 100.086L229.099 100.148L228.422 100.559L227.435 100.397L227.227 100.161L226.551 100.236L226.331 100.041L225.978 100.02L225.484 100.119L225.111 100.323L224.895 100.667L224.298 100.451L223.937 100.721L223.8 100.526L223.219 100.775L222.327 101.725L222.065 102.123L221.447 102.426L221.198 102.87L220.443 102.825L220.68 102.157L220.547 101.933L220.97 101.468L220.875 101.252L220.738 101.206L221.074 100.443L218.833 99.6629L214.837 97.7625L210.647 98.7044L210.107 99.0073L208.144 100.626L208.099 100.829L208.244 102.082L208.447 102.688L208.63 104.497L208.535 104.684H208.381L208.348 104.455L208.198 104.443L208.086 104.173L207.792 104.152L207.613 103.821H207.198L206.804 103.646L206.385 103.626L206.248 103.742L205.75 103.688L205.676 103.518L205.402 103.41L205.414 103.14L205.124 102.987L204.871 103.787L204.659 104.011L203.937 104.227L203.551 104.165L203.157 103.916L202.937 103.634L202.958 103.215L202.779 103.04L202.709 102.796L202.526 103.128L202.132 103.418L202.086 103.667L201.896 103.821L201.302 103.518L201.095 103.895L200.468 103.874L200.306 104.152L199.713 104.468L199.622 104.443L199.564 104.144H199.398L199.157 103.821L199.124 103.472L198.929 103.14L198.991 102.696L198.709 102.298L198.601 101.771L198.186 101.252L198.252 101.111L197.962 100.895L197.759 100.916L197.626 100.775L197.589 100.551L196.991 100.194L196.825 99.9783L196.315 99.7957L195.829 99.36L195.809 98.8746L195.987 98.6588L195.763 98.2729L195.369 98.2937L194.555 98.6795L194.053 98.7127L193.817 99.0613L193.597 99.0903L193.406 98.9824L193.004 98.4347L192.763 98.4015L192.472 98.7667L192.294 98.7999L191.962 98.5841L191.738 98.2812L191.269 98.248L190.883 97.9576L190.535 97.3725L190.174 97.4057L189.676 97.1567L189.605 97.0074L189.419 97.0738L188.829 96.7377L188.759 96.4555L188.236 96.6505L187.883 96.663L187.531 97.1484L186.688 97.0489L186.531 96.8663L186.024 97.0738L185.709 96.4223L185.493 96.219L185.41 96.2729L185.186 96.1319L184.78 95.5925L184.444 94.4265L183.701 92.8041L182.373 89.3851L182.672 88.8664L182.813 88.7668L184.323 88.4017L185.597 87.7627L185.676 87.2399L187.817 84.8706L187.39 84.4391L186.145 82.7254L185.676 82.464L183.348 79.7545L183.02 79.323L182.875 78.8997L182.373 78.2483L185.141 76.1114L187.896 74.3396L189.643 71.9081L190.477 71.2484L190.78 70.6592L191.257 70.3563L191.672 70.3231L194.369 70.5845L196.431 72.7006L200.319 69.9206L202.609 65.5846L198.315 58.9125L198.601 55.2071L194.684 53.7258L195.219 52.2653Z" fill="#CCCCCC" stroke="white" stroke-width="0.5"/>
<path d="M136.813 113.551L136.552 113.455L136.531 113.24L136.664 113.098L136.83 112.235L137.684 110.198L138.195 109.692L139.278 109.165L139.415 108.916L139.402 108.7L138.647 106.372L135.004 100.505L135.153 100.397L138.825 106.265L139.601 108.775L139.435 109.302L138.199 109.883L137.813 110.314L136.942 112.435L136.813 113.551ZM155.501 80.1446L156.157 80.2732L156.676 80.7836L157.124 80.601L156.717 79.377L158.033 79.7794L160.41 82.186L160.817 83.7586L161.062 83.6176L161.647 84.659L162.535 85.4391L162.547 85.6466H163.75L163.887 85.742L164.663 85.8831L165.24 86.1652L166.526 87.0532L166.912 87.5926L167.58 88.1652L167.974 88.4142L168.211 88.4266L169.476 89.6299L169.713 89.9992L170.178 91.1984L170.842 93.4929L171.302 93.7295L171.526 94.1195V94.4971L171.659 94.4846L171.875 94.6589L172.157 95.2854L172.169 95.663L171.999 95.9452L171.788 95.9784L171.414 96.4224L170.804 96.8456L170.061 97.6879L170.086 98.0572L170.244 98.2398L170.526 98.273L170.534 98.1236L171.41 98.468L171.862 98.5012L172.497 98.7169L173.543 99.6339L174.613 99.9244L175.393 100.7L175.559 100.97L175.572 101.132L175.232 101.53L173.754 102.514L171.58 102.987L171.481 103.223L169.97 104.074L168.999 104.194L168.671 103.837L168.144 103.634L164.277 104.484L163.937 104.626L163.759 104.916L159.867 104.904L159.842 107.75L161.389 107.729L161.995 107.837L164.792 110.82L164.995 111.435L165.514 114.397L165.062 116.41L164.655 117.003L164.485 118.036L164.07 119.177L164.078 119.381L163.954 119.509L163.493 119.36L163.311 119.447L162.394 121.198L162.373 121.318L162.746 121.866L162.024 122.92L161.887 123.339L160.609 124.596L160.091 124.907L158.692 126.198L158.456 126.264L158.377 126.414L157.352 127.239L157.182 127.227L156.933 127.003L156.796 127.036L156.759 127.185L156.871 127.389L156.535 127.658L156.377 127.928L155.904 128.273L155.182 128.563L154.63 129.098L154.012 129.281L153.402 129.268L151.609 130.804L151.294 130.472L151.058 130.397L149.431 131.169L148.983 131.534L148.68 131.16L148.456 131.127L147.506 131.331L147.34 131.492L146.572 132.683L144.398 139.401L143.958 140.6L143.717 140.945L136.423 143.032L135.452 143.405L134.178 142.314L130.842 139.015L129.261 137.451L127.332 136.177L123.294 135.16L118.73 135.94L118.282 135.683L117.801 135.082L117.892 134.994L117.78 134.791L118.228 134.384L117.643 133.828L117.473 133.816L117.402 133.903L117.348 133.808L117.552 133.584L117.622 133.293L117.51 131.214L116.834 129.928L116.846 129.293L119.091 127.941L119.427 127.169L122.407 125.41L123.182 125.389L123.485 125.227L123.689 125.086L124.091 124.376L125.419 123.559L133.9 117.584L134.564 117.488L134.971 117.252L137.51 114.97L137.635 114.559L137.423 114.194L137.386 113.688L137.215 113.783L136.979 113.771L137.037 113.198L137.286 113.132L137.344 113.293L137.423 113.119L137.726 113.032L138.033 112.754L138.618 111.397L139.045 110.837L141.041 110.717L141.319 110.596L143.543 108.472L143.614 108.364L143.344 108.074L143.572 107.845L143.809 108.061L143.709 108.136L143.788 108.202L145.647 106.294L150.041 105.02L150.659 104.468H150.85L151.502 103.821L149.427 100.476L148.253 99.6132L148.228 99.5177L148.468 99.4306L148.161 99.0323L147.746 99.107L147.858 88.0241L152.244 80.8873L152.651 80.6383L155.244 80.3147L155.435 80.2815L155.501 80.1446Z" fill="#CCCCCC" stroke="white" stroke-width="0.5"/>
<path d="M146.138 80.8704L146.179 81.0115L146.042 81.024L145.457 80.7958L145.548 80.6962H145.93L146.138 80.8704ZM143.453 80.385L143.163 80.2563L143.233 80.2024L143.449 80.2771V80.385H143.453ZM135.47 67.5096L135.378 67.4018L135.445 67.186L135.557 67.3146L135.47 67.5096ZM134.897 63.157L134.773 62.796L134.827 62.7213L134.951 63.0906L134.897 63.157ZM133.034 54.1488L133.204 54.4642L133.449 54.5638L133.744 54.4891L134.092 54.8501L134.237 55.4932L134.665 56.3231L133.399 56.2359L133.262 55.8418L132.831 55.2194L132.685 54.2484L132.723 54.1613L133.034 54.1488ZM130.727 54.2152L130.814 54.5306L130.756 54.6716L130.528 54.597L130.258 54.7588L130.076 54.7048L128.374 55.1945L122.984 59.9454L122.951 60.2276L122.644 60.4765L122.495 60.3687L122.267 60.5554L122.569 60.6757L122.806 60.489L122.852 60.5429L122.603 60.7504L122.196 60.6301L119.864 62.6549L119.594 62.2939L121.881 60.2898L121.843 60.0492L122.146 59.8873L121.901 60.0948L121.943 60.2359L128.08 54.821L128.358 54.6675L130.026 54.2111L130.067 54.1364L130.279 54.265L130.528 54.1986L130.586 54.099L130.727 54.2152ZM113.511 28.6969L115.25 29.0247L115.341 29.0786L115.42 29.5724L115.117 29.7591L114.914 30.0454L114.619 29.9126L114.744 30.1409L114.47 30.033L113.951 30.0122L112.972 30.2861L112.466 30.8006L111.657 31.3608L110.565 31.8628L108.142 32.7176L106.968 33.2985L106.852 33.5599L107.279 34.5889L107.155 34.7425L106.781 34.8088L106.669 34.9499L106.636 35.5308L106.814 35.6055L106.69 36.0121L105.088 36.6677L104.196 37.6304L103.794 37.8254L102.906 37.7507L102.35 37.8503L101.147 38.5059L100.819 38.5266L100.603 38.3524L100.279 37.7383L100.288 37.4229L104.005 35.0703L104.57 34.5682L105.96 32.9375L106.96 32.1284L110.819 29.4977L111.711 29.2446L113.018 28.6969H113.511ZM118.13 30.6056L117.918 30.9126L117.644 30.9583L117.296 31.4064L117.146 31.4603L116.852 31.3193L116.482 31.3857L116.491 31.1657L116.727 31.145L116.864 30.979L116.694 30.672L116.412 30.5848L117.034 29.9707L117.101 29.8048L117.706 29.3649L118.088 28.8712L118.312 28.7301L118.706 28.7093L118.901 29.1035L118.856 29.4313L118.495 30.145L118.13 30.6056ZM121.279 19.307L121.238 19.2198L121.387 19.0456L121.279 19.307ZM187.029 17.4398L185.498 19.6721L185.552 21.0663L185.888 22.0538L186.112 22.4065L186.585 22.8007L188.751 23.3941L189.033 23.5476L189.278 23.921L189.461 24.614L189.751 24.9667L190.212 24.9127L190.979 24.3733L192.071 24.6347L193.274 25.1617L192.925 28.199L192.95 28.2986L193.568 28.4396L193.739 28.701L193.353 29.1492L192.78 29.3566L192.577 29.6844L192.544 30.0662L192.349 30.2944L192.27 30.755L192.17 30.8338L191.66 30.6803L191.174 30.9666L191.058 32.228L191.282 32.8753L191.249 33.257H191.066L190.909 33.423L190.739 33.2031L190.614 33.2155L190.444 33.5641L190.162 33.8172L190.195 34.1242L190.083 34.3524L189.685 34.5059L189.876 34.7798L189.834 34.9458L189.539 35.1864L189.631 35.4935L189.606 36.0287L188.469 36.2155L188.652 36.9042L189.191 37.3316L189.295 37.8586L189.577 38.2403L189.473 38.73L189.261 38.9706L189.162 39.3772L188.855 39.8918L188.427 40.2403L188.191 40.6137L187.797 40.6594L187.602 40.7922L187.51 41.3731L187.079 41.788L186.975 42.1365L186.133 43.6884L185.95 44.8378L185.847 47.6012L187.021 49.0659L187.847 49.7962L190.008 50.124L191.822 50.0493L192.78 50.5638L193.261 51.0327L193.647 51.6426L195.224 52.2733L194.693 53.7339L198.606 55.2152L198.324 58.9205L202.618 65.5927L200.328 69.9287L196.44 72.7087L194.378 70.5926L191.681 70.3312L191.266 70.3644L190.784 70.6673L190.481 71.2523L189.647 71.9162L187.9 74.3477L185.141 76.1153L182.378 78.2522L181.569 78.9369L180.772 79.4472L180.419 79.4804L180.091 79.663L179.843 79.9244L179.548 79.9783L178.693 79.8788L177.95 80.1817L178.166 81.2646L178.033 81.5011L177.042 82.1069L176.486 82.3352L176.191 81.7377L175.444 81.8372L174.901 82.0198L174.697 82.1941L174.482 82.2065L174.199 82.1526L173.863 81.8497L173.614 81.7958L173.307 80.9617L172.926 80.3974L172.722 79.5634L171.834 79.7584L171.544 79.9535L171.465 80.1153L171.536 80.5261L170.926 80.2771L170.61 80.4057L169.926 80.4929L169.901 80.7211L169.631 80.8497L169.731 81.0323L169.652 81.1526L169.639 81.6962L169.05 82.0862L168.714 82.5966L168.141 82.9534L167.892 83.3434L166.519 83.9949L166.204 83.9617L165.598 83.638L165.291 83.6505L165.054 83.5094L164.436 83.5302L164.083 83.3476L163.826 83.5841H163.668L163.523 83.1401L162.722 82.6837L162.623 82.5219L161.054 83.6173L160.81 83.7584L160.403 82.1858L158.025 79.7792L156.71 79.3767L157.117 80.6007L156.669 80.7833L156.15 80.2729L155.494 80.1443L155.54 79.6796L155.374 79.8622H155.249L155.137 79.7211L154.934 79.9161L154.776 79.7543L154.801 79.4306L154.644 79.302L153.785 79.1734L152.988 79.2149L153.121 78.8373L153.034 78.8041L152.889 79.2398L152.664 79.2813L152.652 79.5095L152.44 79.3352L151.955 79.3891L151.918 79.2481L151.656 79.0406L151.814 78.912L151.781 78.1734L151.046 77.6298L150.619 77.7377L149.291 78.6506L148.374 78.5219L147.2 78.7916L147.042 79.0862L146.905 79.7916L146.76 79.9452L145.98 80.4016L145.042 80.5966L144.719 80.5551L143.262 79.9908L140.544 78.7336L138.876 78.2356L138.445 78.2024L138.241 78.302L138.196 78.551L137.565 78.6049L136.627 78.9203L136.042 78.7128L134.822 78.0074L133.818 76.9244L132.972 76.3062L132.636 75.9162L132.739 75.7087L132.694 75.6008L132.387 75.5469L131.934 74.8L132.242 74.5303L132.437 74.1403L133.088 73.3892L134.022 72.966L134.291 72.6963L134.968 72.5096L135.329 71.9992L135.395 70.8913L135.262 70.6631L135.046 69.1735L134.685 68.7378L135.034 68.4349L135.258 68.5013L135.428 68.381L135.395 68.2814L135.154 68.3022L135.179 68.2026L135.436 68.1818L135.536 68.3105L135.627 68.2109L135.619 67.4515L135.677 67.3769L135.81 67.5179L135.802 67.3976L135.598 67.0947L135.573 66.825L135.362 66.8997L135.258 66.8333L135.744 66.713L135.81 66.2109L135.457 64.8956L135.32 64.742L135.196 64.2732L135.229 64.045L135.096 63.9703L135.005 63.3935L135.03 62.3271L134.86 62.1321L135.432 61.1653L135.295 60.9496L135.453 60.045L135.287 60.099L134.872 59.8832L134.951 59.3936L134.768 59.2857L134.835 59.1654H135.071L135.117 58.7089L135.204 58.8625L135.295 58.8417L135.092 58.2442L135.208 57.211L135.013 57.9413L134.98 58.7919L134.731 58.9662L134.561 58.7795L134.536 58.4102L134.287 57.8874L134.105 57.5928L133.644 57.1778L133.54 56.5347L133.632 56.4475H134.046L134.125 56.7297L134.387 56.7422V56.46L134.665 56.4393L134.868 56.767L135.171 56.7256L134.864 55.9953L134.627 55.7214L134.436 55.2982L134.312 54.8086L134.403 54.4393L134.312 54.0036L133.715 52.7049L133.602 52.6509L133.358 52.7049L131.71 54.2526L131.25 54.4725L131.138 54.6799L130.943 54.6592L130.76 54.0492L130.847 53.9497L130.984 54.0368L131.366 53.9165L131.623 53.7422L133.457 51.9663L133.582 51.792L133.764 50.9082L133.627 50.6675L133.665 50.5348L134.727 49.8916L135.287 49.1613L135.661 47.817L135.843 45.3689L136.046 44.4519L136.026 43.9913L135.673 43.7963L135.586 43.5556L135.822 43.315L135.901 43.0867L136.374 42.8253L136.453 42.5515L136.353 42.4851L136.88 40.8793L137.188 40.3108L137.449 39.5225L138.117 38.452L139.1 37.5764L140.395 36.1117L140.934 35.8918L141.71 35.2902L142.499 34.842L142.648 34.6553L143.358 34.2611L144.001 33.4728L145.187 32.3773L145.586 31.2612L147.411 29.4189L149.262 28.4645L150.075 28.2903L152.544 27.3567L153.154 27.2363L153.743 26.9417L154.183 26.921L154.893 26.4065L158.996 24.004L160.515 23.4107L161.133 23.0497L161.411 22.9957L161.59 22.809L162.548 22.5559L163.303 22.0289L164.722 21.2406L165.722 20.9128L166.096 20.5061L166.797 20.307L167.092 20.1203L166.382 19.0995L166.428 18.9999L166.61 19.253L166.756 19.0995L166.88 19.3734L166.789 19.5145L167.162 20.0414L167.693 20.1286L168.1 19.8962L169.05 20.029L170.942 19.4688L171.722 19.1161L172.523 19.0082L172.623 18.8008L172.801 18.9875L173.78 18.8132L175.527 18.2531L177.295 18.112L178.996 17.8049L180.054 18.0912L180.17 17.8049L180.303 18.0912L180.581 17.6639L180.714 17.863L181.32 17.8838L183.465 18.2697L186.071 17.0373L186.51 17.0041L187.029 17.4398ZM143.353 13.5228L142.59 13.5892L142.519 13.722L142.631 13.8548L144.382 13.6141L144.644 13.6473L144.793 13.9461L144.598 14.7054L143.586 15.2863L143.279 15.3734L142.818 15.473L142.694 15.4191L142.752 15.3319L142.681 15.278L142.569 15.3651L142.42 15.3195L141.652 15.9128L140.503 16.5062L139.893 16.4191L139.544 16.0996L139.499 16.3734L139.669 16.6722L139.661 17.0332L139.022 16.8796L138.495 16.4937L138.134 16.4274L138.088 16.5684L138.167 16.6556L138.976 17.2282L139.992 17.6141L139.868 17.7676L139.673 17.6265L139.495 17.6805L139.349 17.8464L139.474 17.9543L139.291 18.0746L138.673 18.2157L135.959 18.1286L135.092 18.1825L134.067 18.4481L133.528 18.6887L132.291 19.9501L131.524 20.4646L131.076 20.6389L130.748 20.6597L130.159 21.087L129.383 20.8007L129.225 21.1078L128.806 21.3153H128.478L128.287 21.5808L128.229 21.8422L127.64 21.7758L127.03 21.5435L126.374 21.7758L125.802 21.6016L124.777 22.502L124.731 22.3941L124.47 22.2737L123.387 22.4065L123.113 22.78L123.146 23.3069L123.055 23.3858L123.155 23.5725L122.926 23.6057L122.677 23.4065H122.408L122.304 23.5725L121.98 23.7468L121.607 24.253L121.267 24.4189L120.976 24.7799L120.2 24.5932L119.188 23.9459L119.096 23.7924L118.914 22.8796V22.4314L119.283 21.9708L120.329 21.0497L120.98 20.0829L121.238 19.4356H121.316L121.246 19.7634L121.358 19.751L121.428 19.3319L121.711 19.0041L121.677 18.9252L121.424 18.9543L121.615 18.8215L128.603 17.5145L129.864 17.2074L130.042 17.361L130.383 17.3153L136.773 15.2365L137.08 14.9295L138.362 14.5685L142.329 12.9751L143.623 12.7345L144.312 12.7469L144.636 12.8133L144.748 12.9544L144.735 13.195L144.611 13.3486L143.353 13.5228ZM178.502 12.1287L178.614 13.0083L178.448 12.722L178.253 12.9751L177.76 13.2158L177.548 13.4896L177.187 13.3154L177.05 12.7013L177.432 12.1411L177.942 12.1868L178.452 12.0664L178.502 12.1287ZM156.283 12.1038L159.797 11.9627L164.229 11.4565L165.166 11.6224L169.83 11.3818L172.266 11.4814L172.714 11.5602L172.992 11.8341L172.859 12.0996L172.614 12.2324L171.951 12.3735L170.407 12.3195L169.834 12.4067L168.444 12.2863L167.523 12.7137L167.216 12.9668L166.171 13.2324L165.967 13.2116L165.424 13.4772L163.606 13.8714L163.502 13.9834L161.685 14.4896L160.469 14.4232L159.826 14.5353L159.76 14.4813L159.722 14.8672L159.59 15.0083L159.444 14.9295L159.561 14.8423L159.581 14.3029L158.283 14.2241L157.063 13.917L156.399 13.9627L156.158 14.1286L155.947 14.6349L155.03 15.3402L154.038 15.639L153.486 15.9377L152.66 15.9834L152.648 16.3444L152.457 16.4979L152.075 16.3859L151.125 15.7469L150.2 15.3195L149.714 14.7676L149.125 13.8216L149.104 13.1618L149.387 11.776L149.669 11.3029L149.984 11.0498L150.378 10.9088L151.009 10.8963L152.407 11.4565L154.71 11.9959L156.283 12.1038ZM184.345 6.6889L184.934 6.80093L185.577 7.40674L186.469 7.56026L187.448 7.6059L192.253 6.94616L194.925 6.69305L197.324 6.59347L197.444 6.78019L197.34 7.05404L196.295 7.59345L195.672 7.85901L194.983 7.97934L193.498 8.69302L192.697 8.83825L192.257 9.39011L190.614 10.1619L190.183 10.2615L188.884 10.2947L187.374 10.6349L187.71 11.0415L187.685 11.1536L187.361 10.9544L187.216 10.6888H185.461L185.469 11.1162L185.332 11.1287L185.266 10.7096L184.818 10.7967L184.693 11.083L184.523 11.1619L184.693 11.3942L184.133 11.3154L183.954 11.4565L184.133 11.7096L184.008 11.8092L183.984 11.9959L184.195 12.2946L183.801 12.3735L183.212 12.1536L182.863 12.1868L182.398 12.8133L182.183 12.8465L181.921 12.7345L181.901 12.6473L182.067 12.1743L182.179 11.2615L182.394 10.5146L182.867 9.58928L183.457 8.73037L184.739 7.58516L185.067 7.45238L184.967 7.29885L182.498 6.72625L182.013 7.9586L181.722 7.97934L181.585 7.89221L181.631 7.49387L182.083 6.44824H182.892L184.345 6.6889Z" fill="#CCCCCC" stroke="white" stroke-width="0.5"/>
<path d="M165.507 114.389L166.399 114.057L167.42 114.961L168.291 116.048L168.752 116.833L169.436 118.285L169.644 118.953L170.142 118.725L170.399 118.961L171.233 118.339L171.619 118.243L172.187 119.061L175.046 116.102L175.756 115.853L176.034 115.629L176.216 115.306L176.623 115.53L176.88 115.563L178.141 116.555L178.561 117.575L178.897 118.081L179.419 118.509L180.411 118.953L180.971 119.629L181.15 120.156L181.229 121.326L181.162 122.339L181.415 122.671L181.934 123.057L182.909 124.496L183.282 125.571L183.32 125.969L182.955 127.384L182.664 127.965L182.643 128.973L182.502 129.272L182.328 129.467L181.129 129.928L179.826 130.177L179.565 130.538L179.552 130.924L179.673 131.173L179.822 131.301L180.345 131.417L180.552 131.592L180.643 131.816L180.282 132.114L179.619 132.318L179.453 132.6L179.54 133.683L179.448 134.733L179.341 135.492L179.079 135.816L179.071 136.027L179.722 136.114L179.946 136.608L179.984 137.774L180.424 137.915L181.108 137.924L181.245 138.172L181.432 138.77L181.772 139.251L181.826 140.289L182.453 141.06L182.639 141.874L183.004 142.197L182.627 142.741V143.16L183.374 143.33L183.743 143.596L184.556 143.521L184.589 143.737L184.477 144.11L184.017 144.409L183.88 144.762L184.058 145.446L184.502 145.77L185.063 145.907L185.237 146.218L185.22 146.558L185.361 146.687L185.482 146.558L185.494 146.367L185.258 146.089L185.133 145.737L185.39 145.845L185.44 145.745L185.303 145.641L185.457 145.363L185.755 145.683L185.818 145.052L185.909 144.679L186 144.633L186.295 144.666L186.565 144.55L186.992 144.679L187.714 144.645L188.672 145.363L189.685 145.5L190.137 145.67L190.589 145.662L190.768 145.799L191.635 145.724L192.27 145.907L192.303 145.596L192.735 145.745L192.888 145.533L193.647 145.33L193.701 145.5L193.901 145.542L193.946 145.724L194.15 145.907L195.506 145.919L196.033 145.77L196.61 145.745L196.647 144.836L197.083 144.55L197.344 144.504L197.477 144.218L198.718 144.143L199.448 143.832L199.822 144.015L200.668 143.961L201.739 144.089L201.718 144.625L202.178 145.276L202.448 146.048L203.772 147.434L204.311 148.525L204.701 148.674L205.133 148.695L205.266 148.824L205.295 149.413L205.656 150.226L205.875 150.513L206.51 150.824L206.726 151.035L206.95 151.11L208.203 150.662L210.813 151.089L213.174 150.608L213.22 150.5L213.419 150.62L213.44 150.791L213.846 150.961L213.975 151.218L214.265 151.421L214.054 151.857L214.099 152.031L214.651 152.542L215.203 152.127L215.481 152.031L215.593 151.687L215.751 151.558L216.099 151.666L216.419 152.114L216.743 151.55L217.016 151.571L218.369 152.284L218.552 152.454L218.672 152.807L218.66 153.064L218.448 153.376L218.631 153.471L218.618 154.056L218.705 154.355L218.618 155.039L217.921 156.16L218.888 156.608L220.319 156.873L221.444 157.396L224.402 157.376L224.12 159.583L223.892 159.944L223.834 159.795L223.668 159.732L223.286 160.093L223.344 160.371L223.655 160.67L223.668 160.969L222.855 161.981L220.062 162.45L220.207 162.728L220.17 163.048L219.755 163.911L219.531 164.006L219.506 164.421L219.606 164.537L219.597 165.782H221.39L223.942 167.006L224.581 167.57L224.796 168.01L225.245 168.189L227.477 170.019L227.481 170.413L227.601 170.55L228.788 170.732L229 171.413L228.933 172.155L229.149 173.006L229.025 173.467L228.834 173.803L227.962 173.836L227.639 174.143L226.95 174.388L226.767 175.749L226.78 176.653L226.091 177.355L226.24 177.525L225.199 178.798L223.996 179.296L223.983 179.67L223.85 179.807L222.879 180.147L222.564 180.728L221.946 181.027L220.859 180.168L220.647 179.935L220.601 179.52L220.44 179.603L220.307 179.55L220.074 178.977L219.747 178.969L219.431 178.778L219.112 178.873L216.498 180.114L216.079 180.549L215.846 180.57L215.519 180.454L212.481 181.471L211.693 182.014L211.207 182.479L211.017 182.491L210.726 182.097L210.228 182.301L209.743 182.819L209.091 183.242L208.344 183.554L207.726 183.985L207.535 184.168L207.523 184.475L207.245 184.869L205.913 185.226L205.349 185.558L204.996 185.429L204.332 184.537L204.041 184.292L203.689 184.583L202.88 184.985L202.672 184.815L202.552 184.222L201.842 183.985L201.672 183.732L200.589 183.637L200.253 183.33L200.108 183.392L200.162 183.67L199.905 184.392L199.95 184.537L200.959 185.346L201.444 185.471L201.477 185.641L200.975 186.342L200.971 186.744L201.266 187.359L201.232 187.433L200.983 187.367L201.199 188.101L201.141 188.271L200.93 188.342L199.826 187.612L198.805 187.583L198.39 187.392L198.481 187.105L198.232 186.479L197.759 186.056L195.801 185.798L194.589 185.915L194.253 184.4L194.083 184.292L194.162 183.977L193.457 183.637L193.129 183.595L192.901 183.371L192.403 183.296L192.112 183.413L191.826 183.794L191.299 183.956L190.233 183.935L189.946 183.84L188.743 183.985L188.428 183.91L187.614 183.433L186.697 182.491L186.652 182.068L187.154 181.973L186.992 181.782L187.013 181.558L185.606 180.487L185.519 180.686L184.739 180.197L183.241 180.454L182.797 180.794L182.312 180.413L182.075 180.877L181.863 180.753L181.731 180.877L181.76 181.155L181.432 181.421L182.448 181.442L183.146 181.94L183.602 182.151L183.963 183.159L184.004 183.744L185.282 184.773L185.258 185.408L185.403 186.869L183.996 186.363L183.013 186.151L181.884 186.193L181.038 186.002L180.498 185.736L179.465 184.815L178.718 184.346L178.357 185.014L177.93 185.197L178.083 185.545L178.021 185.778L177.241 186.213L176.689 186.724L176.473 186.5L175.697 186.786L175.361 187.454L174.59 187.844L173.635 187.952L173.021 187.72L172.519 187.678L171.976 187.338L170.913 188.653L171.785 189.329L171.573 189.603L171.478 189.529L171.386 189.624L171.233 189.508L171.154 189.574L171.05 189.479L170.93 189.616L170.971 189.827L172.088 190.429L172.328 190.856L173.005 191.383L173.034 191.533L172.797 191.682L172.947 191.84L172.698 192.325L172.909 192.761L173.32 192.748L173.619 192.952L173.814 192.885L173.884 192.993L173.453 193.429L173.382 193.989L173.834 194.508L173.801 194.815L171.797 196.304L171.573 196.371L171.436 196.549L171.432 197.076H171.183L171.117 197.28L170.971 197.354L170.216 197.404L169.947 197.122L169.934 196.931L169.656 196.686L169.191 196.454H168.909L168.693 195.267L167.453 193.682L167.038 193.607L165.677 193.786L165.652 194.031L166.009 195.334L165.64 195.724L164.656 195.545L161.694 195.873L160.104 196.284L159.146 196.275L158.694 196.18L158.154 195.914L157.768 195.587L157.424 195.035L157.499 194.973L157.32 194.665L156.822 194.159L156.528 193.989L155.266 193.778L154.951 193.47L154.482 192.666L153.984 192.188L152.756 191.977L152.055 191.533L151.602 190.865L151.212 189.711L150.781 189.234L150.445 189.139L149.623 189.159L149.25 189.01L148.15 188.292L147.316 188.089L146.519 188.251L145.358 188.334L145.063 188.587L144.578 189.392L144.154 189.52L142.789 189.18L141.781 188.176L141.374 187.964H141.13L140.491 188.238L140.254 188.695L140.159 189.296L139.876 189.699L139.515 189.956L138.694 190.155L138.266 190.217L137.354 190.134L136.698 189.861L136.092 189.002L135.885 188.865L135.345 188.873L135.142 189.043L134.814 189.637L134.038 190.632L132.897 192.57L132.491 193.923L132.428 195.313L132.175 195.757L131.843 195.997L129.769 196.952L128.449 197.86L128.142 197.881L127.262 197.566L126.532 197.499L126.067 197.661L125.561 198.085L125.142 198.221L124.661 198.039L123.98 197.429L123.507 197.226L123.134 197.184L121.59 197.52L120.287 197.205L119.437 197.238L117.117 197.827L117.092 197.055L117.852 196.421L118.142 195.989L117.835 195.724L117.715 195.45L117.744 195.026L117.939 194.466L117.893 194.159L116.395 193.429L115.732 192.74L115.404 192.57L115.005 192.508L114.624 192.674L113.985 193.354L113.52 193.417L113.283 193.321L112.707 192.686L112.416 192.072L112.088 191.848L112.097 191.553L111.943 191.396L110.184 190.591L109.678 190.147L109.325 189.288L108.939 189.01L109.922 189.031L110.35 186.964L108.939 186.773L108.545 186.118L108.686 185.533L108.445 184.761L108.615 184.583L109.362 185.238L111.026 185.197L111.661 185.45L111.877 185.205L112.62 184.91L112.864 184.678L112.412 184.4L112.246 184.039L112.35 183.678L112.889 183.413L113.686 183.404L114.142 183.147L114.578 182.5L114.649 181.981L114.835 181.832L115.225 181.952L115.653 181.844L116.358 182.014L116.507 181.728L116.628 180.823L117.536 179.139L117.848 179.284L117.806 178.616L118.648 177.396L118.595 177.13L118.785 177.089L120.682 173.475L121.582 174.06L122.424 174.243L122.777 174.155L123.246 173.74L123.823 172.624L124.105 172.276L124.603 172.147L125.121 172.454L125.889 173.251L126.619 173.645L127.453 173.869L128.516 174.006L129.532 174.687L130.092 174.72L130.893 174.313L131.545 173.475L132.063 173.114L132.619 173.027L133.574 173.23L134.2 173.189L136.262 172.4L137.125 171.67L137.557 171.433L139.349 171.786L140.507 171.658L140.885 171.753L141.781 172.296L142.212 172.691L144.333 173.475L144.806 174.23L145.279 174.604L145.789 174.823L147.49 175.259L148.602 176.006L149.262 175.421L149.64 175.633L149.611 175.089L150.001 174.994L150.005 174.359L149.719 173.666L149.706 173.379L149.876 173.114L149.947 172.666L149.283 171.882L149.138 171.01L148.856 170.57L148.445 170.487L147.918 169.998L147.648 169.711L147.59 169.031L147.478 168.848L147.275 168.624L147.117 168.794L146.474 168.093L146.835 168.085L146.922 166.222L145.673 165.753L145.76 165.019L145.258 164.803L145.49 164.176L145.652 162.608L145.582 162.463L145.773 161.674L145.665 160.84L145.482 160.832L145.266 160.575L145.212 159.807L144.963 159.637L145.088 159.338L144.976 158.728L144.532 158.795L144.565 158.998L144.424 159.027L144.254 158.828L143.669 158.977L143.715 159.251L143.914 159.317L143.918 159.467L144.084 159.604L143.901 160.031L144.254 160.127L144.221 160.405L144.175 160.616L143.644 160.458L143.432 160.832L143.868 161.01L143.237 161.683L142.69 161.566L142.109 161.608L141.939 162.185L141.167 162.193L140.611 162.388L139.482 161.716L139.441 161.512L139.179 161.45L139.055 161.309L139.764 160.405L140.71 159.807L140.623 158.699L141.196 158.143L141.229 157.94L140.769 157.641L142.125 157.782V157.633L141.851 157.483L141.864 157.118L141.544 157.015L141.242 156.641L141.391 156.67L141.482 156.073L142.2 155.969L142.52 155.351L141.636 154.911L141.59 154.753L141.715 154.131L141.038 154.11L140.507 153.878L140.598 153.16L140.412 153.098L140.453 152.874L140.026 152.691L139.993 152.529L137.486 152.189L136.441 151.815L136.495 151.43L136.387 150.791L136.171 150.575L136.453 150.351L136.947 150.5L137.217 150.276L137.387 149.454L137.366 148.824L134.681 146.633L135.437 143.384L136.408 143.011L143.702 140.923L143.947 140.579L144.387 139.38L146.561 132.662L147.329 131.471L147.49 131.314L148.445 131.106L148.669 131.139L148.968 131.517L149.416 131.152L151.042 130.38L151.279 130.455L151.594 130.787L153.387 129.251L153.997 129.264L154.615 129.081L155.167 128.542L155.889 128.256L156.362 127.911L156.519 127.642L156.855 127.376L156.743 127.168L156.781 127.019L156.922 126.986L157.171 127.214L157.341 127.222L158.366 126.397L158.445 126.247L158.681 126.181L160.079 124.895L160.598 124.583L161.876 123.326L162.013 122.907L162.739 121.853L162.362 121.306L162.382 121.185L163.303 119.434L163.486 119.347L163.947 119.501L164.071 119.372L164.063 119.164L164.478 118.028L164.648 116.994L165.054 116.401L165.507 114.389Z" fill="#CCCCCC" stroke="white" stroke-width="0.5"/>
<path d="M226.352 12.3567L226.622 12.531L226.929 12.4978L227.771 11.7177L227.987 11.6389L229.128 12.0994L229.265 12.4853L229.24 12.7924L229.103 13.0247L227.962 12.7924L227.916 12.9998L228.941 13.2529L228.871 13.5517L228.34 13.4521L228.273 13.6264L229.14 13.8338L229.588 13.7799L230.082 13.9127L230.128 13.6928L229.597 13.5932L229.493 13.4729L229.771 12.4189L231.057 12.8256L232.51 14.2114L232.476 14.7301L231.958 16.1907L231.887 17.7301L232.256 18.1035L232.842 19.1035L232.663 19.3898L232.9 19.4894L232.987 19.6885L232.9 20.842L233.273 21.9624L233.252 22.4893L233.622 24.1242L233.759 24.3565H234.173L235.368 25.4188L235.647 25.7797L235.974 25.8254V26.0121L235.729 26.066L235.584 26.593L236.269 26.8129L236.447 27.066L236.671 27.0328L237.472 27.3274L237.688 27.4934L238.049 27.481L238.397 27.5888L239.443 28.0951L239.792 28.1739L240.244 28.5888L240.709 28.8627L241.783 29.2776L242.642 29.2444L243.061 29.3855L243.219 29.5598L245.161 29.5141L245.435 29.1199L246.182 28.9789L246.426 28.705H246.605L246.617 28.9913L246.439 29.0453L246.041 29.5805L245.655 29.8751L245.518 30.8502L245.634 31.6261L245.107 33.0825L245.14 33.4975L245.377 33.6178L245.41 33.9249L245.601 34.1448L246.074 34.373L246.24 34.568L246.501 34.6012L246.621 34.8294L247.468 34.8626L247.775 34.7547L247.783 34.929L247.862 34.9497L248.891 34.9954L249.559 35.4892L250.335 35.6966L250.787 35.5223L251.397 35.9829L252.173 36.124L252.352 36.2775L253.538 36.5721L253.642 36.6717L253.767 36.5638L253.675 36.3107L253.87 35.8294L254.094 37.3729L254.069 37.8667L254.343 38.6966L254.43 40.6551L254.331 40.9828L253.916 41.4642L253.812 41.738L255.02 42.6218L255.04 42.8749L254.016 43.3355L253.472 43.3563L252.771 44.6882L252.75 44.962L252.58 45.3023L252.555 46.3521L252.14 47.1155L251.912 47.2691L252.173 49.0906L253.356 49.962L253.219 53.5926L254.074 60.7959L254.41 61.6548L253.879 62.3187L252.252 68.0074L252.152 68.6505L247.115 77.0031L246.024 78.4014L245.879 78.7168L246.207 79.9408L244.887 80.0072L244.945 79.389L245.111 78.8786L245.041 78.8371L244.771 78.9906L244.592 78.9367L244.335 78.5674L244.165 78.501L243.194 77.0819L242.949 77.1027L242.746 76.3309L241.182 76.1691L243.045 71.6422L241.659 71.2729L241.103 70.6961L241.024 70.7169L237.622 65.5759L235.75 62.9991L232.626 59.854L228.883 55.5843L227.846 54.6134L226.547 53.1196L223.725 50.2192L223.398 49.7504L222.879 49.4018L220.153 49.2607L219.024 49.5678L216.311 50.8001L216.298 50.0491L216.016 49.908L215.867 49.3935L215.576 49.1653L215.136 47.9537L214.842 47.8458L214.514 47.4101L213.668 46.6674H213.124L212.921 45.8707V45.4558L212.63 44.9662L212.473 44.9454L211.639 45.3064L211.166 43.9828L210.195 42.2899L209.946 42.2774L209.97 42.0575L209.531 41.2028L209.07 41.182L207.29 40.4061L206.738 40.5472L206.149 40.5347L205.041 40.8957L203.933 41.1156L203.896 41.4974L203.319 42.0534L202.854 42.1737L202.784 42.3065L201.879 42.9206L201.236 43.1944L201.124 43.4144L201.033 44.2567L200.738 44.5637L200.481 44.6508L200.033 45.3811L199.626 45.7836L199.514 46.5263L198.51 49.1902L198.361 50.5885L197.875 50.7421L197.041 52.9329L195.24 52.269L193.664 51.6383L193.278 51.0284L192.796 50.5595L191.838 50.045L190.025 50.1197L187.863 49.7919L187.037 49.0616L185.863 47.5969L185.967 44.8334L186.149 43.6841L186.992 42.1322L187.095 41.7837L187.527 41.3687L187.618 40.7878L187.813 40.6551L188.207 40.6094L188.444 40.236L188.871 39.8874L189.178 39.3729L189.278 38.9663L189.489 38.7256L189.581 38.2318L189.299 37.8501L189.195 37.3232L188.655 36.8958L188.473 36.207L189.61 36.0203L189.635 35.485L189.543 35.178L189.838 34.9373L189.879 34.7713L189.689 34.4975L190.087 34.3439L190.199 34.1157L190.166 33.8087L190.448 33.5556L190.618 33.207L190.743 33.1946L190.913 33.4145L191.07 33.2485H191.253L191.286 32.8668L191.062 32.2195L191.178 30.9581L191.664 30.6718L192.174 30.8253L192.274 30.7465L192.352 30.2859L192.548 30.0577L192.581 29.676L192.784 29.3482L193.357 29.1407L193.743 28.6926L193.572 28.4312L192.954 28.2901L192.929 28.1905L193.278 25.1532L192.074 24.6262L190.983 24.3648L190.216 24.9042L189.755 24.9582L189.465 24.6055L189.282 23.9125L189.037 23.5391L188.755 23.3856L186.589 22.7922L186.116 22.398L185.892 22.0454L185.556 21.0578L185.502 19.6636L187.033 17.4313L187.27 17.2985L187.61 17.2653L187.722 17.3732L187.597 17.5143L187.631 17.6803L187.892 17.6927L190.386 16.9583L191.025 16.9126L191.577 17.0786L193.73 18.2861L194.058 18.506L194.61 19.3317H194.709L195.659 18.7383L196.406 18.0662L198.402 17.1533L200.261 16.4396L203.02 15.979L211.182 15.0454L213.153 14.4728L214.315 14.0123L215.315 13.4604L217.165 12.7218L220.269 11.7094L223.223 11.3443H223.937L225.597 11.8837L226.352 12.3567ZM201.178 5.40243L201.485 5.45637L201.452 5.73022L200.56 5.60989L199.859 5.65554L199.767 5.48127L199.883 5.29455L200.253 5.26135L201.178 5.40243ZM212.9 4.76343H213.286L213.356 4.84227L213.323 4.9626L213.099 5.06218L213.153 5.2821L213.082 5.36094L212.178 5.02899L212.029 4.79663L212.087 4.62236L212.526 4.56842L212.9 4.76343ZM214.85 2.88794L214.883 3.02072L214.804 3.10785L214.207 2.90869L213.879 2.98752L213.842 3.21989L214.228 3.55183L214.207 3.79249L212.863 3.1535L212.593 3.09956L211.8 3.25308L211.643 3.04561L211.668 2.87134L212.053 2.40662L212.473 2.28629L213.892 2.43981L214.85 2.88794ZM206.767 2.62238L207.365 2.66803L207.829 2.86719L208.954 3.80494L208.941 3.95847L208.717 3.99166L207.871 3.7178L207.61 3.76345L207.269 3.34437L207.19 3.35681L207.054 3.54353L207.178 3.98336L207.054 4.21572L206.398 4.22817L206.07 4.09954L205.717 4.3402L205.966 4.62651L205.921 4.86717L205.597 5.08708L205.02 4.92111L204.726 4.68045L204.581 3.80909L203.805 3.25723L203.535 2.8506L203.493 2.04563L203.854 1L204.103 1.03319L204.386 1.99169L206.767 2.62238Z" fill="#CCCCCC" stroke="white" stroke-width="0.5"/>
<path d="M165.639 195.724L166.008 195.334L165.651 194.031L165.676 193.786L167.037 193.607L167.452 193.682L168.693 195.267L168.908 196.454H169.191L169.655 196.686L169.933 196.931L169.946 197.122L170.215 197.404L170.971 197.354L171.116 197.28L171.182 197.076H171.431L171.547 197.67L174.049 197.732L174.784 198.271L176.19 198.877L176.572 199.267L176.78 199.765L176.912 199.86L177.058 199.732L177.373 199.977L177.406 200.143L177.286 200.45L176.767 200.387L176.618 200.45L176.29 200.653L176.211 200.956L176.327 201.657L176.585 201.96L176.63 202.288L176.651 202.657L176.336 203.039L176.493 203.682L176.448 204.118L176.605 204.508L177.128 204.844L178.029 205.097L179.572 205.711L179.663 205.902L180.058 205.765L180.207 205.881V206.06H180.78L182.132 206.396L182.12 207.043L181.916 207.371L181.771 207.441L181.39 208.972L181.273 208.993L180.892 210.163L180.643 210.047L180.647 210.819L180.464 211.715L181.481 212.433L182.435 213.254L182.846 214.043L183.555 214.823L184.622 215.761L185.028 216.259L185.651 217.815L186.17 218.839L186.833 219.279L187.576 219.943L188.514 221.586L188.501 223.781L188.829 224.52L189.169 225.835L188.862 228.063L188.883 228.47L188.618 228.495L188.539 228.619L188.514 230.52L188.02 233.408L189.323 233.345L189.315 233.532L188.547 234.794L189.323 237.47L186.991 239.619L186.966 239.764L187.153 240.237L185.564 240.582L185.547 240.947L185.186 241.358L184.975 241.81L184.95 242.291L184.647 242.773L184.614 243.171L183.892 244.271L182.979 245.432L182.609 246.3L182.564 246.648L180.07 249.399L179.199 249.934L180.128 251.918L180.045 252.075L179.307 252.034L178.966 252.2L178.946 252.349L179.132 253.486L179.361 256.175L179.946 257.312L180.365 257.449L181.062 257.478L181.253 257.291L181.502 257.25L181.933 256.968L182.56 256.308L185.369 254.951L185.788 255.192L186.46 255.797L183.759 257.051L183.68 257.175L185.941 258.586L185.991 258.752L185.186 259.308L185.153 259.743L184.896 259.735L184.717 259.839L184.182 259.785L183.116 260.183L182.908 260.08L182.609 260.246L182.419 260.528L181.502 260.997L180.502 261.175L180.248 261.884L180.095 261.967L180.136 262.291L179.983 262.32L179.796 262.092L179.721 262.49L179.497 262.582L179.29 262.843L178.535 263.084L178.265 263.27L178.178 263.801L177.365 264.743L176.605 265.324L175.875 265.544L175.585 265.366L175.485 265.619L175.19 265.66L174.929 266.055L174.153 266.652L173.759 267.44L173.149 267.66L173.257 267.996L172.908 268.548L172.547 268.859L172.581 269.129L172.427 269.411L172.518 269.64L172.402 269.851L172.415 270.548L171.995 270.818L171.68 270.888L171.805 271.474L171.556 271.557L171.369 271.37L170.838 271.357L170.34 271.536L170.236 270.984L169.597 270.088L169.17 268.694L168.821 268.287L167.361 269.64L165.626 269.88L165.742 270.528L166.527 271.486L166.419 272.005L166.195 272.025L166.157 272.212L166.576 273.274L166.966 273.764L167.659 274.088L167.643 274.702L168.253 274.971L168.095 275.702L168.161 276.449L167.485 277.2L167.792 277.801L168.265 277.83L169.323 277.407L170.174 276.731L171.468 276.44L171.568 276.461L171.693 276.739L172.19 277.083L172.348 277.366L172.751 277.27L172.9 277.112L173.302 276.959L176.149 276.864L176.236 277.063L175.493 278.988L175.348 279.224L174.842 279.631L175.597 280.1L175.572 280.565L175.788 282.013L177.273 282.436L177.522 282.635L177.875 282.511L178.161 282.78L178.087 283.291L178.941 283.382L179.236 283.175L179.427 283.195L180.004 283.382L180.36 283.776L180.531 283.457L180.746 283.353L180.655 283.768L180.253 284.038L180.17 284.357L179.9 284.619L179.452 286.32L179.564 286.901L180.049 287.598L180.365 288.365L180.195 288.606L180.091 289.125L179.921 289.208L179.858 289.403L179.576 289.726L179.381 291.125L179.07 291.083L178.311 290.585L178.178 290.15L176.348 291.075L175.908 291.228L175.763 291.199L175.717 292.639L175.941 292.979L176.124 293.062L176.116 293.262L176.385 293.884L176.157 294.079L176.037 294.071L176.149 294.39L175.539 294.984L175.186 295.552L175.033 295.643L174.717 295.726L174.468 295.498L174.024 295.291L173.755 294.992L173.489 294.95L173.174 295.191L172.842 295.706L172.788 296.328L173.63 296.577L174.141 296.963L174.41 297.56L176.236 298.681L176.249 298.847L175.809 299.706L175.585 299.892L175.867 300.564L175.56 300.552L174.576 300.78L173.261 300.739L173.024 300.647L172.971 300.253L172.697 299.942L171.995 299.776L170.095 300.386L169.56 300.842L169.07 301L169.033 300.585L168.888 300.544L168.323 300.606L168.033 300.959L167.232 300.378L167.24 299.789L166.991 299.096L165.427 299.901L164.738 300.614L164.622 300.585L164.34 299.581L163.473 300.141H162.83L162.406 300.365L161.95 300.461L160.879 298.95L160.398 299.22L160.307 299.187L159.751 297.718L159.091 297.83L157.751 299.374L157.398 300.025H156.651L156.099 299.643L155.751 300.079L155.021 300.203L154.647 300.552L154.216 300.481L153.992 300.295L153.668 300.286L153.722 299.892L154.556 298.751L154.871 297.768L154.842 297.498L154.274 296.328L154.286 296.112L154.718 295.498L154.705 295.303L154.332 294.714L153.452 294.639L153.348 294.224H152.975L152.809 294.05L152.436 294.092L151.904 293.843L151.817 293.706L151.904 293.56L151.851 293.365L151.589 293.062L151.431 293.125L151.556 292.577L151.095 291.996L151.207 291.83L150.996 291.726L150.983 291.394L150.834 291.179L150.892 290.847L151.008 290.722L150.892 290.349L151.05 290.079L150.983 289.589L151.041 289.477L150.917 289.299L151.39 288.897L151.141 288.585L151.311 288.357L151.635 288.303L152.797 287.569H153.348L153.585 286.872L154.174 286.341L154.39 286.021L154.535 284.826L154.738 284.523L155.236 284.419L155.921 284.814L156.261 284.639L156.465 284.253V283.486L156.655 282.913L157.444 281.917L157.813 280.756L158.527 280.399L158.51 279.963L158.332 279.59L158.116 279.39L157.655 279.307L157.128 279.768L156.631 279.893L156.182 279.652L156.124 279.121L156.992 278.092L157.22 277.511L157.929 277.112L158.56 276.054L158.946 275.71L159.099 275.428L159.166 275.171L159.104 274.171L159.709 273.046L159.751 272.785L159.485 272.328L158.639 271.976L158.56 271.673L159 270.955L159.44 269.893L159.494 268.868L159.593 268.702H159.958L160.747 269.121L161.141 269.038L161.307 268.826L161.323 268.548L161.087 267.652L161.245 267.378L161.589 267.108L161.635 266.922L161.469 266.523L161.05 266.005L161.025 265.689L161.398 265.324L161.908 265.191L162.875 265.577L163.315 265.191L163.394 265.013L163.485 264.42L163.215 264.021L162.954 263.909L162.236 263.897L161.917 263.71L161.825 263.304L161.929 262.926L162.863 261.781L163.099 261.665L163.958 261.561L164.261 260.611L164.904 260.163L163.68 259.212L163.767 258.847L163.489 258.615L163.452 258.283L163.149 258.055L162.913 257.677L162.377 258.179L162.249 258.586H162.091L161.738 258.241L161.614 258.229L161.357 258.598L161.05 258.772L160.755 258.793L160.195 259.266L159.842 259.358L159.684 258.972L159.751 258.743L159.946 258.532V258.221L159.751 258.179L159.73 257.938L159.427 258.001L159.357 257.69L159.361 257.511L159.788 257.387L159.842 257.279L159.518 257.208L159.684 256.644L159.074 256.017L158.253 255.86L157.68 255.515L157.419 255.723L157.361 255.88L157.116 255.756L156.842 255.922L156.564 255.818L156.473 255.943L155.921 255.955L155.411 256.349L154.892 256.163L154.784 256.038L154.535 256.005L154.477 256.129L154.311 256.121L154.091 255.893L153.282 256.129L153.178 255.934L152.942 255.818L152.423 255.777L152.062 255.868L151.647 255.2L151.626 255.026L151.784 254.909L151.635 254.544L150.867 254.146L145.867 252.109L147.784 251.524L147.772 251.752L149.44 250.914L149.743 249.117L149.842 246.553L152.763 242.395L166.099 238.233L169.954 234.931L165.975 228.146L165.203 223.761L164.701 222.478L163.734 215.815L167.22 216.499L168.323 217.375L170.485 217.151L172.502 216.499L174.805 215.553L175.605 216.192L176.419 217.205L176.8 216.835L176.925 216.815L177.116 216.972L177.307 216.794L177.477 216.773L177.502 216.657L177.199 216.308L177.004 215.869L176.995 214.097L176.307 213.084L176.112 212.599L176.02 211.885L176.058 210.902L175.85 210.184L174.199 208.57L172.755 207.686L172.564 207.474L172.46 206.947L172.958 205.943L172.971 205.458L172.551 205.267H171.838L171.601 205.026L171.572 204.665L172.091 203.865L171.634 202.047L171.493 200.769L171.24 200.537L170.294 200.134L168.477 199.889L168.083 199.794L167.377 199.446L166.921 198.865L166.78 197.765L166.477 196.516L165.639 195.724Z" fill="#CCCCCC" stroke="white" stroke-width="0.5"/>
<path d="M108.938 189.01L109.324 189.284L109.676 190.142L110.183 190.586L111.942 191.391L112.091 191.549L112.083 191.844L112.411 192.068L112.701 192.682L113.278 193.317L113.515 193.412L113.979 193.35L114.618 192.674L115 192.503L115.403 192.566L115.73 192.736L116.394 193.425L117.892 194.155L117.938 194.462L117.743 195.022L117.718 195.445L117.838 195.719L118.145 195.985L117.855 196.416L117.091 197.051L117.116 197.823L119.436 197.23L120.29 197.196L121.589 197.512L123.133 197.171L123.506 197.213L123.979 197.412L124.664 198.026L125.145 198.205L125.564 198.068L126.07 197.644L126.535 197.487L127.265 197.549L128.145 197.864L128.452 197.844L129.772 196.935L131.846 195.985L132.174 195.74L132.431 195.296L132.489 193.91L132.896 192.557L134.037 190.62L134.813 189.624L135.141 189.03L135.344 188.86L135.884 188.848L136.095 188.985L136.701 189.844L137.357 190.118L138.269 190.201L138.697 190.138L139.518 189.935L139.879 189.682L140.162 189.279L140.261 188.674L140.498 188.217L141.137 187.943H141.381L141.788 188.155L142.8 189.163L144.166 189.503L144.585 189.375L145.07 188.57L145.365 188.317L146.527 188.234L147.323 188.076L148.157 188.275L149.261 188.997L149.634 189.147L150.456 189.126L150.792 189.221L151.224 189.699L151.61 190.852L152.062 191.52L152.763 191.964L153.991 192.176L154.489 192.653L154.954 193.458L155.269 193.765L156.531 193.976L156.825 194.147L157.323 194.653L157.502 194.96L157.431 195.022L157.771 195.574L158.157 195.902L158.697 196.167L159.149 196.263L160.107 196.275L161.697 195.86L164.659 195.532L165.643 195.711L166.485 196.503L166.788 197.752L166.925 198.852L167.385 199.433L168.086 199.781L168.481 199.877L170.298 200.122L171.244 200.524L171.501 200.756L171.638 202.034L172.099 203.852L171.58 204.653L171.605 205.014L171.842 205.254H172.555L172.974 205.445L172.962 205.931L172.464 206.935L172.568 207.462L172.759 207.673L174.203 208.561L175.85 210.175L176.061 210.893L176.024 211.872L176.115 212.59L176.315 213.076L177.003 214.088L177.012 215.86L177.207 216.304L177.51 216.653L177.485 216.769L177.315 216.789L177.124 216.968L176.933 216.81L176.808 216.831L176.427 217.2L175.613 216.188L174.813 215.545L172.51 216.495L170.493 217.146L168.331 217.366L167.228 216.491L163.742 215.806L164.709 222.47L165.215 223.752L165.983 228.138L169.962 234.922L166.107 238.225L152.771 242.387L149.85 246.544L149.751 249.108L149.448 250.909L147.78 251.747L147.792 251.519L145.875 252.104L145.626 251.884L145.332 249.843L145.423 249.025L145.336 248.627L145.427 248.511L145.394 248.229L145.485 247.955L145.386 247.44L144.618 246.897L143.469 245.652L142.983 244.984L142.742 244.378L141.062 243.905L140.668 243.872L140.635 244.009L140.34 244.283L140.162 244.818L139.477 245.445L137.879 245.748L137.676 246.366L137.307 246.407L136.228 247.843L133.958 247.299L131.535 246.59L131.444 246.673L131.456 246.976L131.22 247.582L130.884 247.864L129.427 247.843L128.095 248.009L126.112 247.507L124.543 248.042L124.282 247.926L123.685 247.349L124.664 243.665L124.573 243.403L122.004 241.739L120.29 242.304L119.556 242.88L117.705 242.316L117.535 238.889L117.054 238.478L116.772 238.1L116.556 237.503L116.295 237.138L113.581 234.105L114.971 231.291L115.718 230.022L113.996 225.943L112.149 225.889L111.826 225.806L111.361 225.005L111.394 224.312L111.1 224.188L110.909 224.242L110.166 224.852L109.851 225.428L109.444 225.785L109.208 226.437L109.378 227.644L109.029 228.159L109.071 228.644L106.49 230.831L106.083 231.242L104.187 233.731L104.162 233.374L103.967 233.387L103.921 233.607L104.091 233.798L103.672 233.988L103.199 233.851L103.863 233.673L103.714 233.482L103.465 233.557L103.386 233.358L102.979 233.063L102.88 232.611L102.461 232.212L102.328 231.889L102.116 231.876L101.938 232.117L101.793 231.835L101.407 231.76L101.486 231.507L101.282 231.561L101.237 231.706L100.664 231.561L100.619 231.706L100.145 232.105V232.358L100.079 232.37L99.6185 232.212L99.6268 231.918L99.2326 231.885L99.0335 231.748L98.6974 232.03L98.2119 231.81L95.1124 232.428L94.4236 232.134L93.963 231.798L93.7846 231.345L93.797 230.893L93.6808 230.407L93.851 230.084L94.0667 230.022L94.7804 229.959L94.9505 230.295L95.2866 230.432L95.9547 230.507L96.743 230.802L97.0957 231.042L97.5605 231.138L98.0667 231.399L98.075 231.598L98.6061 231.586L98.5936 231.461L98.3986 231.358L98.8136 231.001L98.7555 230.947L98.3156 231.125L97.743 231.084L97.6891 231.001L97.3986 229.781L97.4318 229.329L97.2617 228.52L97.27 228.362L97.5605 228.142L97.9007 227.627L97.9588 227.312L98.075 227.511L98.3032 227.586L98.6642 227.258L98.0127 226.764L98.2617 225.852L98.3654 224.893L98.1206 224.756L97.0584 224.578L96.9381 224.304L96.8675 223.619L96.7015 223.387L95.5148 222.901L95.0086 222.955L94.6269 222.872L94.3779 222.495L93.8344 222.433L93.0419 222.611L92.8842 222.872L92.5232 222.926L92.2784 223.254L92.2867 223.528L92.0585 223.98L91.0004 224.536L90.4817 225.578L90.1207 225.831L90.0958 226.134L89.295 226.325L89.0129 227.196L88.6187 227.922L88.0461 228.047L86.9175 228.698L87.0751 230.536L86.3988 230.756L85.9133 230.578L85.1249 230.988L84.403 230.619L80.9092 229.968L78.291 230.943L77.9383 228.213L79.0669 225.744L78.3699 224.723L75.0877 225.237L74.5483 225.154L74.179 225.217L73.5234 225.901L72.1044 226.154L68.4945 228.15L68.258 228.192L67.9551 228.569L68.3078 228.694L68.8928 228.681L69.1833 229.142L69.1127 229.615L69.3077 229.793L69.1916 230.026H68.9302L69.0754 230.528H68.8389L68.76 230.768L68.3451 231.229L68.9053 232.602L71.4778 235.992L71.1168 236.424L71.4571 237.138L70.8596 237.022L69.0463 237.934L68.2912 238.071L67.9219 238.038L66.8389 237.764L65.619 237.723L65.258 235.98L65.1128 235.748L61.2996 235.864L61.0755 235.204L60.6606 235.15L60.4448 234.677L60.5776 234.553L60.5527 233.934L60.7228 233.735L60.7021 233.188L60.3867 231.677L60.644 231.163L61.1751 230.681L60.8514 230.154L58.3618 224.258L57.5029 222.449L57.4905 221.64L57.9179 220.358L57.8722 220.254L58.6025 218.296L58.6813 217.843L58.6398 217.242L58.5693 216.96L58.0589 216.084L55.893 213.428L55.6316 212.765L55.5859 212.354L55.6731 211.404L56.1461 210.379L56.893 209.64L58.6979 208.848L59.395 207.541L61.1751 207.752L62.7518 207.383L63.6522 206.98L64.9468 206.707L66.3119 206.072L66.8887 205.736L67.4654 205.134L67.9136 204.395L68.0712 203.711L68.8928 202.898L69.0837 202.474L69.453 202.462L69.6355 201.985L70.0671 201.711L70.9675 200.864L75.8969 202.512L77.3408 202.661L82.2661 201.308L83.3034 200.474L87.4403 199.292L89.4278 197.885L90.8801 196.595L91.7141 195.674L92.0087 195.209L92.6435 193.292L93.6601 192.084L94.6435 191.553L95.5563 191.259L96.4443 191.205L98.1206 191.458L98.8426 191.3L99.2285 191.142L100.245 190.412L101.432 189.184L102.979 188.412L103.714 188.242H104.797L106.706 188.665L108.938 189.01ZM104.029 228.042L104.038 228.242L104.365 228.221L104.249 228.304L104.316 228.42L104.565 228.399L104.291 228.818L104.108 228.872L104.145 229.154L104.009 229.217L103.896 228.847L103.984 228.731L103.95 228.532L103.739 228.71L103.681 228.594L103.784 228.478L103.739 228.32L103.378 228.54L103.623 228.835L103.477 229.067L103.556 229.171L103.511 229.474L103.378 229.453L103.133 229.665L103.896 229.822L104.067 230.221L104.452 230.125L104.623 230.316L104.851 229.993V229.719L104.693 229.727L104.838 229.507L104.959 229.569L105.104 229.445L104.967 229.403L105.025 229.258L104.764 229.204L104.772 229.341L104.647 229.362L104.594 229.217L104.515 229.291L104.436 228.955L104.838 228.997L104.813 228.715L104.697 228.652L104.56 228.727L104.585 228.536L104.701 228.461L104.813 228.557L105.062 228.262L105.208 228.221L105.299 228.441L105.353 228.296L105.635 228.213L105.598 228.055L105.71 227.959L105.564 227.719L105.494 227.91L105.257 228.026L104.423 228.13L104.029 228.042ZM105.133 228.673L105.158 228.789L105.598 228.735L105.303 228.495L105.27 228.619L105.133 228.673ZM101.847 230.918L101.905 230.835L101.834 230.739L101.668 230.959L101.847 230.918ZM100.112 231.988L100.121 231.864L99.9961 231.885L100.009 232.001L100.112 231.988ZM104.689 232.81L104.623 232.275L104.307 232.432L103.959 232.466L104.204 232.706L103.93 232.939L104.689 232.81Z" fill="#CCCCCC" stroke="white" stroke-width="0.5"/>
<path d="M115.873 133.243L115.471 132.953L115.417 132.812L115.836 133.027L115.94 133.177L115.873 133.243ZM110.757 132.588L110.686 132.534L110.778 132.384L111.014 132.397L110.757 132.588ZM113.35 131.032L113.259 131.011L113.251 130.882L113.367 130.895L113.35 131.032ZM109.74 130.272L109.641 130.293L109.633 130.164L109.811 130.11L109.74 130.272ZM112.931 101.974L112.861 101.953L112.902 101.737L112.931 101.974ZM128.636 95.7001L132.213 97.2893L135.155 100.401L135.006 100.509L132.097 97.4304L128.682 95.9408L127.823 96.0279L127.529 95.9408L127.641 95.7914L128.636 95.7001ZM89.471 65.5719L89.2221 65.7005L88.0602 65.6009L87.4378 65.6549L86.052 65.991L85.3507 66.3727L85.359 66.5262L85.6868 66.7129L85.4586 66.9412L84.8819 66.8997L84.5873 66.6714L84.5209 66.3437L84.5914 65.9619L84.8943 65.6466L85.5458 65.2856L86.1557 64.742L86.608 64.6341H87.081L88.0063 64.8291L89.4254 65.3395L89.471 65.5719ZM112.462 69.1071L112.396 69.3353L112.226 69.3021L111.574 69.8249L111.454 70.0946L111.417 70.854L112.027 70.7461L113.72 73.9701L113.886 74.0572L114.13 74.8373L116.325 79.1443L115.695 86.7293L116.201 86.7625L116.479 87.2479L116.84 88.7541L117.811 89.6421L118.035 89.9865L118.678 90.6255L119.164 90.7873L119.898 90.7997L120.483 90.4097L120.72 90.2022L121.529 88.8703L122.383 88.8496L123.383 88.9782L123.666 89.14L124.08 89.2147L124.309 89.4844L124.786 89.7126L125.155 89.7251L125.321 89.584L125.471 89.6587L126.259 89.4222L126.437 89.6296L125.815 89.7707L125.794 89.8578L126.686 89.8039L127.126 90.1815L127.454 90.3101L127.711 91.2313L127.52 91.4802L127.666 91.7831L127.529 92.0736L127.62 92.7126L127.786 92.8205L127.74 93.2727L128.587 93.92L128.985 93.9532L129.026 94.0611L128.948 94.169L128.529 94.0196L128.383 94.1607L128.437 94.5922L128.101 94.7872L127.952 95.0238L127.487 95.0445L127.429 95.1109L127.553 95.2188L127.217 95.2852L127.197 95.393L127.524 95.6627L127.425 95.8246L127.321 95.7291L127.139 95.7416L126.653 96.1648L125.782 96.3059L125.661 96.4013L125.483 96.3349L125.022 96.4428L124.856 96.8951L124.811 97.7581L124.338 99.476L124.01 99.9614L122.479 100.816L122.06 101.227L121.856 101.712L121.305 101.725L120.699 101.866L120.226 102.136L119.259 103.161L118.292 103.256L117.164 103.526L116.948 103.19L117.072 102.737L116.678 102.144L115.786 102.21L115.043 101.542L114.695 101.057L113.782 101.327L113.296 101.824L113.126 101.683L113.213 101.542L113.023 101.663L112.649 101.629L112.595 101.887L112.695 102.028L112.491 101.961L112.55 101.584L112.247 101.219L111.861 101.231L111.379 101.75L110.915 101.824L110.678 102.053L110.238 102.268L110.056 102.688L110.023 103.356L110.259 104.683L110.205 104.995L110.33 105.169L110.272 105.397L110.392 105.679L110.213 106.098L110.396 106.625L110.711 107.152L110.678 107.368L111.014 108.326L110.911 109.015L111.703 109.758L111.774 110.231L112.496 111.526L112.45 112.16L112.753 112.484L113.147 113.322L113.205 113.808L113.487 114.301L113.778 114.314L113.707 114.733L114.155 115.098L114.429 116.011L113.774 117.14L113.57 117.26L113.458 117.476L113.234 117.542L112.998 117.447L112.803 117.704L112.757 118.297L112.836 118.837L113.317 119.397L113.363 119.559L113.276 119.862L112.599 119.936L112.147 119.808L111.355 120.206L111.064 120.036L111.292 120.584L111.537 120.679L111.504 120.82L111.608 120.895L111.935 120.455L112.209 120.442L112.379 120.563L112.043 121.252L112.006 121.907L112.164 122.339L112.052 122.779L112.164 122.92H112.562L112.844 123.048L113.272 122.961L114.035 123.156L114.612 123.123L114.715 122.982L114.84 121.629L114.985 121.285L115.242 121.007L115.392 120.974L115.446 120.833L115.346 120.272L115.446 120.036L114.84 117.733L114.919 117.625L115.043 117.638L115.674 119.812L116.184 120.285L116.238 120.501L117.014 120.521L117.462 120.434L117.744 120.488L117.798 120.617L117.143 120.866L116.803 121.21L116.242 121.285L115.79 121.758H115.305L115.11 123.09L114.662 123.779L114.558 123.92H114.375L114.338 123.779L114.429 123.596L114.342 123.542L114.151 123.82L113.861 123.969L113.695 124.401L113.608 125.023L113.371 125.322L113.234 125.774L112.595 125.646L112.371 125.733L112.222 125.828L111.869 126.471L111.305 126.696L110.956 127.081L110.45 128.496L110.147 128.604L109.977 128.861H109.641L109.562 128.969L109.74 129.247L109.628 129.538L109.662 129.708L109.479 130.019L109.33 130.073L108.935 129.828L108.724 129.496L108.259 129.583L107.55 129.99L106.973 129.347L106.828 129.38L106.454 129.007L106.16 129.351L106.355 129.866L106.828 129.932L107.413 130.413L107.342 130.521L107.068 130.554L107.126 130.77L106.911 130.994L106.902 130.625L106.711 130.55H106.516L106.359 130.849L106.649 131.139L107.089 131.268L107.334 131.621L107.728 131.729L107.84 132.04L108.193 132.264L108.388 132.608L108.728 132.94L109.097 133.09L109.703 133.131L110.072 132.766L110.612 132.7L111.077 133.152L111.018 133.538L110.67 133.72V133.936L110.852 134.119L111.16 134.085L111.039 133.841L111.093 133.799L111.682 134.023L112.674 133.82L113.35 133.936L113.881 133.55L114.828 133.691L115.491 134.11L116.068 134.625L116.769 134.733L117.263 134.978L117.579 134.89L117.79 135.061L118.271 135.662L118.72 135.919L123.284 135.139L127.321 136.156L129.251 137.43L130.831 138.994L128.869 140.397L126.952 140.052L126.329 140.621L125.944 140.451L124.894 142.612L123.454 143.894L123.412 146.334L123.246 147.189L122.728 148.409L121.433 150.811H120.276L116.94 150.567L116.823 150.098L117.566 149.712L118.039 149.284L118.388 148.666L117.562 147.019L116.774 146.579L116.57 146.973L113.753 147.048L112.911 146.811L111.579 146.16L111.587 145.55L111.317 145.251L112.691 144.633L111.786 143.745L111.807 143.372L111.55 142.558L111.201 142.87L110.985 142.795L110.882 142.571L110.902 142.11L110.674 141.874L110.666 141.48L110.363 140.849H110.828L111.039 140.558L111.537 140.355L112.043 140.343L112.114 139.87L112.645 139.592L112.836 139.55L112.927 139.637V139.874L113.143 139.982L113.056 139.48L112.828 139.16L112.591 139.139L112.276 139.363L112.13 139.214L111.62 139.824L110.998 139.301L110.703 139.388L110.521 139.882L110.309 139.699L110.143 140.16L109.898 140.222L109.811 140.5H109.521L108.956 139.173L108.55 139.002L107.865 138.982L107.529 139.077L107.002 139.451L106.633 140.06L106.438 140.168L105.367 139.998L105.118 140.073L104.591 139.782L104.093 139.998L104.18 140.928L103.853 141.044L103.637 141.235L103.558 141.546L103.218 141.633L103.006 142.019L103.014 142.33L102.732 142.567L100.977 142.48L100.753 142.575L99.919 142.616L99.6493 142.724L99.1431 143.143L98.9771 143.305L98.6618 143.969L97.6161 144.803L96.3796 145.372L96.0518 145.309L95.3547 145.372L94.6701 145.222L94.027 145.5L93.6452 146.056L93.0726 146.504L92.4668 146.641L91.666 147.156L91.1556 147.799L90.7739 147.509L90.8527 147.318L90.8195 146.932L90.583 146.409L90.6743 145.189L89.3922 144.986L88.7698 145.243L88.2885 145.745L88.2013 145.683L88.0353 145.791L86.7864 145.865L84.6578 147.106L83.3134 147.201L82.3798 147.085L81.4006 146.699L80.7035 146.936L79.7367 146.712L79.2886 146.347L79.2222 145.803L79.2595 145.6L79.7989 144.928L80.3176 142.21L80.1973 141.363L81.496 140.048L82.106 138.72L82.1143 138.451L82.5458 137.314L83.0769 136.542L81.467 135.857L81.2886 135.87L80.4006 136.114L79.9857 136.886L75.5293 134.874L79.1724 125.637L79.9151 123.48L80.1765 122.351L80.2678 120.974L80.6039 120.513L80.355 119.803L80.8736 118.687L81.6288 116.579L82.4296 112.663L83.3093 107.21L83.7242 103.082L84.2346 99.7125L84.2595 98.9366L84.6205 96.4968L85.2387 90.9948L85.8279 88.2147L86.2096 87.2189L86.774 86.1235L87.8818 82.3642L89.4046 76.2813L89.7449 74.7087L90.0353 68.8415L90.2594 67.8955L90.7324 66.9826L91.0934 66.5387L91.3216 66.4391L92.2718 66.2648L92.6411 66.3727L93.1515 66.1237L94.2137 66.1777L94.1597 66.4183L94.3963 66.2897L94.5747 66.3976L94.529 66.5179L94.3797 66.4308L94.2469 66.6714L94.3174 66.9743L94.4834 67.1611L94.6203 67.1735L94.666 67.4349H94.7365L95.2178 67.3063L95.1639 66.9909L95.446 66.7752L95.3589 66.5885L95.1597 66.7295L95.0435 66.4142L95.6825 66.2856L95.8734 66.7212L95.8485 67.1362L95.2095 68.5054L95.027 69.4059L95.1307 69.5054L95.1556 69.7544H95.3257L95.3713 70.0697L96.1016 71.7087L96.2842 71.9577L100.579 74.4224L102.711 73.8581L103.454 73.3684L104.774 72.8166L104.707 72.6216L104.944 72.6008L105.778 71.5469L105.956 71.1569L106.06 70.5801L106.682 70.0241L107.525 69.8166L107.956 69.8291L108.935 69.3727L109.699 69.5884L110.251 69.4805L110.724 69.2523L110.894 69.4141L111.01 69.3727L111.272 69.6424L112.014 69.0864L111.927 68.9577L112.027 68.8291L119.533 62.3271L119.803 62.6881L112.462 69.1071ZM101.006 45.3771L101.309 45.2776L101.537 45.485L102.043 46.1821L102.799 47.6468L102.741 48.0286L102.558 48.0493L102.467 48.3439L102.334 47.9829L102.164 51.3895L102.297 52.3936L102.284 53.1571L102.027 53.9413L101.736 54.0492L100.948 54.7131L100.861 55.0824L100.429 55.3438L100.371 56.4683L99.8526 57.1778L99.67 57.7338L99.4418 57.9496L99.3422 57.7878L98.973 58.0907L99.0145 58.2857L98.724 58.7089L98.4418 58.8707L97.9315 59.0782L97.0062 59.1197L96.8361 59.2608L95.0684 61.5595L95.0767 61.7545L95.3672 61.9288L95.1763 62.2026H94.6494L94.4336 61.9537L94.2552 62.0823L93.8154 61.8084H93.4668L92.4959 61.352L92.3257 61.4931L92.5042 61.5802L92.5747 61.908L93.3382 62.2109L93.4378 62.4391L93.8693 62.713L93.9357 62.8541L93.7448 62.8665L93.305 62.6591L93.3631 62.7462L92.5955 63.074L92.6037 63.1943L92.7946 63.2275L92.7739 63.3146L92.1183 63.5304L91.5747 63.4433L91.1722 63.6715L91.3299 63.7254L91.1473 63.9329L90.9025 63.8997L90.3631 63.3976L89.7864 62.2317L89.5581 61.045L89.6619 59.0201L90.081 56.8749L90.4171 55.7421L91.0395 54.2152L92.2925 51.8584L94.2344 48.7505L94.9357 47.8128L97.0684 44.3274L97.9605 43.2361L98.753 42.5349L99.3588 42.3066H99.5248L99.7738 42.4809L100.189 43.1904L100.471 43.3772L100.807 44.1074L100.774 44.7174L100.844 45.1116L101.006 45.3771Z" fill="#CCCCCC" stroke="white" stroke-width="0.5"/>
<path d="M182.373 78.248L182.875 78.8995L183.02 79.3227L183.348 79.7542L185.676 82.4638L186.145 82.7252L187.39 84.4388L187.817 84.8704L185.676 87.2396L185.597 87.7624L184.323 88.4014L182.813 88.7666L182.672 88.8662L182.373 89.3848L183.701 92.8039L184.444 94.4262L184.78 95.5922L185.186 96.1316L185.41 96.2727L185.493 96.2188L185.709 96.4221L186.024 97.0735L186.531 96.866L186.688 97.0486L187.531 97.1482L187.883 96.6627L188.236 96.6503L188.759 96.4553L188.829 96.7374L189.419 97.0735L189.605 97.0071L189.676 97.1565L190.174 97.4055L190.535 97.3723L190.883 97.9573L191.269 98.2478L191.738 98.281L191.962 98.5839L192.294 98.7996L192.473 98.7664L192.763 98.4013L193.004 98.4345L193.406 98.9822L193.597 99.0901L193.817 99.061L194.053 98.7125L194.555 98.6793L195.369 98.2934L195.763 98.2727L195.987 98.6586L195.809 98.8743L195.829 99.3598L196.315 99.7955L196.825 99.978L196.991 100.194L197.589 100.551L197.626 100.775L197.759 100.916L197.962 100.895L198.253 101.111L198.186 101.252L198.601 101.771L198.709 102.298L198.991 102.696L198.929 103.14L199.124 103.472L199.157 103.82L199.398 104.144H199.564L199.622 104.443L199.713 104.468L200.306 104.152L200.468 103.874L201.095 103.895L201.302 103.517L201.896 103.82L202.087 103.667L202.132 103.418L202.526 103.127L202.709 102.795L202.779 103.04L202.958 103.215L202.937 103.634L203.157 103.916L203.551 104.165L203.937 104.227L204.659 104.011L204.871 103.787L205.124 102.986L205.414 103.14L205.402 103.41L205.676 103.517L205.75 103.688L206.248 103.741L206.385 103.625L206.804 103.646L207.198 103.82H207.613L207.792 104.152L208.086 104.173L208.198 104.443L208.348 104.455L208.381 104.683H208.535L208.63 104.497L208.447 102.688L208.244 102.082L208.099 100.829L208.145 100.625L210.107 99.0071L210.647 98.7042L214.837 97.7623L218.833 99.6627L221.074 100.443L220.738 101.206L220.875 101.252L220.97 101.468L220.547 101.932L220.68 102.156L220.443 102.824L221.198 102.87L221.319 102.891L221.592 103.335L221.771 103.43L222.111 104.09L221.933 105.351L221.704 106.127L221.663 106.978L224.775 109.725L223.879 110.061L223.501 110.082L223.057 109.899L222.696 109.92L222.057 109.758L221.725 110.87L221.389 111.14L221.364 111.302L219.078 110.837L220.713 114.252L220.248 117.961L221.302 118.77L221.704 119.007L222.099 119.082L223.833 120.413L224.377 120.637L225.46 120.961L229.335 120.82L230.082 120.994L230.48 120.953L230.476 121.961L231.153 121.82L234.053 122.658L236.281 123.488L236.725 123.326L237.65 122.422L237.895 122.048L238.617 120.38L239.347 119.866L239.675 120.285L239.713 120.563L240.252 121.853L240.791 124.098L241.526 124.766L242.472 126.911L242.451 127.106L242.825 127.086L243.497 127.351L243.766 127.193L243.957 127.276L243.961 127.608L244.298 128.127L244.941 130.077L244.895 132.363L243.791 133.907L243.675 134.637L243.206 135.33L243.252 135.857L243.094 136.38L242.617 137.334L242.405 137.529L241.878 138.708L241.833 139.027L241.854 139.509L241.999 139.969L241.986 140.239L241.899 140.301L241.932 140.782L242.306 141.181L242.982 142.728L244.298 144.197L244.007 144.87L242.584 145.791L241.488 145.865L241.289 146.023L241.119 145.853L240.298 145.629L239.721 145.757L239.555 145.691L239.103 145.919L239.053 146.152L238.737 146.421L238.783 147.114L238.48 147.907L238.123 148.376L237.542 149.625L236.87 150.654L236.742 150.749L235.609 150.973L234.02 151.206L233.891 151.409L233.833 151.911L232.36 153.28L231.738 156.064L230.634 157.131L228.277 157.376H224.402L221.443 157.396L220.319 156.874L218.887 156.608L217.92 156.16L218.617 155.04L218.705 154.355L218.617 154.056L218.63 153.471L218.447 153.376L218.659 153.064L218.671 152.807L218.551 152.454L218.368 152.284L217.016 151.571L216.742 151.55L216.418 152.114L216.099 151.666L215.75 151.558L215.593 151.687L215.481 152.031L215.203 152.127L214.651 152.542L214.099 152.031L214.053 151.857L214.265 151.421L213.974 151.218L213.846 150.961L213.439 150.791L213.418 150.62L213.219 150.5L213.173 150.608L210.813 151.089L208.203 150.662L206.95 151.11L206.725 151.035L206.51 150.824L205.875 150.513L205.655 150.226L205.294 149.413L205.265 148.824L205.132 148.695L204.701 148.674L204.311 148.525L203.771 147.434L202.447 146.048L202.178 145.276L201.717 144.625L201.738 144.089L200.667 143.961L199.821 144.015L199.448 143.832L198.717 144.143L197.477 144.218L197.344 144.504L197.082 144.55L196.647 144.836L196.609 145.745L196.033 145.77L195.506 145.919L194.149 145.907L193.946 145.724L193.9 145.542L193.701 145.5L193.647 145.33L192.887 145.533L192.734 145.745L192.302 145.596L192.269 145.907L191.634 145.724L190.767 145.799L190.589 145.662L190.136 145.67L189.684 145.5L188.672 145.363L187.713 144.645L186.991 144.679L186.564 144.55L186.294 144.666L186 144.633L185.908 144.679L185.817 145.052L185.755 145.683L185.456 145.363L185.303 145.641L185.439 145.745L185.39 145.845L185.132 145.737L185.257 146.089L185.493 146.367L185.481 146.558L185.361 146.687L185.22 146.558L185.236 146.218L185.062 145.907L184.502 145.77L184.058 145.446L183.879 144.762L184.016 144.409L184.477 144.11L184.589 143.737L184.556 143.521L183.742 143.596L183.373 143.33L182.626 143.16V142.741L183.004 142.197L182.639 141.874L182.452 141.06L181.825 140.289L181.771 139.251L181.431 138.77L181.244 138.173L181.108 137.924L180.423 137.915L179.983 137.774L179.946 136.608L179.722 136.114L179.07 136.027L179.079 135.816L179.34 135.492L179.448 134.733L179.539 133.683L179.452 132.6L179.618 132.318L180.282 132.115L180.643 131.816L180.552 131.592L180.344 131.417L179.821 131.301L179.672 131.173L179.552 130.924L179.564 130.538L179.825 130.177L181.128 129.928L182.327 129.467L182.502 129.272L182.643 128.973L182.664 127.965L182.954 127.384L183.319 125.969L183.282 125.571L182.908 124.496L181.933 123.057L181.415 122.671L181.161 122.339L181.228 121.326L181.149 120.156L180.971 119.629L180.41 118.953L179.419 118.509L178.896 118.082L178.56 117.575L178.141 116.555L176.879 115.563L176.622 115.53L176.215 115.306L176.033 115.629L175.755 115.853L175.045 116.102L172.187 119.061L171.618 118.243L171.232 118.339L170.398 118.961L170.141 118.725L169.643 118.953L169.436 118.285L168.751 116.833L168.29 116.048L167.419 114.961L166.398 114.057L165.506 114.389L164.987 111.43L164.784 110.816L161.987 107.829L161.386 107.721L159.834 107.746L159.859 104.899L163.755 104.907L163.934 104.617L164.274 104.476L168.141 103.625L168.664 103.829L168.996 104.185L169.967 104.065L171.477 103.215L171.572 102.978L173.747 102.501L175.224 101.522L175.568 101.123L175.552 100.957L175.39 100.688L174.606 99.9116L173.539 99.6212L172.494 98.7042L171.855 98.4884L171.402 98.4552L170.531 98.1108L170.523 98.2602L170.24 98.227L170.083 98.0444L170.058 97.6752L170.801 96.8328L171.411 96.4138L171.784 95.9698L171.996 95.9366L172.166 95.6544L172.153 95.2769L171.871 94.6503L171.651 94.4802L171.523 94.4885V94.1109L171.299 93.7209L170.838 93.4844L170.174 91.1898L169.709 89.9906L169.473 89.6213L168.207 88.4222L167.971 88.4097L167.577 88.1608L166.904 87.5882L166.519 87.0446L165.232 86.1567L164.655 85.8786L163.88 85.7376L163.743 85.638H162.539L162.527 85.4347L161.639 84.6546L161.054 83.6131L162.626 82.5177L162.722 82.6837L163.523 83.1359L163.668 83.5799H163.826L164.083 83.3434L164.436 83.526L165.054 83.5052L165.29 83.6463L165.597 83.6339L166.203 83.9617L166.519 83.9907L167.892 83.3434L168.141 82.9534L168.709 82.5965L169.045 82.0862L169.639 81.6961L169.651 81.1526L169.73 81.0322L169.631 80.8497L169.9 80.721L169.925 80.4928L170.61 80.4057L170.925 80.2771L171.535 80.526L171.46 80.1111L171.543 79.9493L171.83 79.7542L172.718 79.5592L172.921 80.3932L173.303 80.9576L173.61 81.7916L173.859 81.8455L174.195 82.1526L174.477 82.2065L174.693 82.194L174.896 82.0198L175.44 81.8372L176.191 81.7376L176.485 82.3351L177.041 82.1069L178.033 81.5011L178.166 81.2605L177.95 80.1775L178.693 79.8746L179.543 79.97L179.842 79.9161L180.091 79.6588L180.419 79.4721L180.771 79.4389L181.568 78.9327L182.373 78.248Z" fill="#CCCCCC" stroke="white" stroke-width="0.5"/>
<path d="M95.3654 145.364L96.0625 145.297L96.3903 145.364L97.6226 144.795L98.6682 143.961L98.9836 143.297L99.1454 143.135L99.6516 142.72L99.9213 142.613L100.755 142.571L100.979 142.476L102.73 142.559L103.013 142.322L103.008 142.015L103.216 141.629L103.56 141.542L103.639 141.231L103.855 141.04L104.183 140.924L104.096 139.99L104.598 139.779L105.12 140.065L105.369 139.99L106.44 140.16L106.639 140.057L107.004 139.447L107.531 139.069L107.867 138.974L108.548 138.994L108.954 139.169L109.519 140.492H109.809L109.896 140.214L110.137 140.152L110.303 139.691L110.51 139.874L110.697 139.38L110.992 139.297L111.614 139.82L112.129 139.21L112.27 139.36L112.585 139.135L112.822 139.156L113.054 139.476L113.137 139.982L112.921 139.874V139.638L112.83 139.55L112.639 139.596L112.108 139.874L112.033 140.343L111.531 140.355L111.029 140.559L110.822 140.849H110.353L110.656 141.48L110.664 141.874L110.892 142.111L110.871 142.571L110.979 142.795L111.195 142.87L111.544 142.559L111.797 143.372L111.78 143.745L112.685 144.633L111.311 145.256L111.581 145.554L111.577 146.164L112.909 146.816L113.747 147.052L116.564 146.978L116.768 146.579L117.556 147.019L118.386 148.666L118.037 149.285L117.564 149.712L116.822 150.098L116.938 150.567L120.274 150.812H121.431L122.726 148.409L123.245 147.189L123.406 146.335L123.448 143.895L124.884 142.613L125.933 140.451L126.323 140.621L126.946 140.057L128.863 140.397L130.825 138.994L134.162 142.293L135.435 143.384L134.68 146.633L137.365 148.824L137.386 149.455L137.215 150.276L136.946 150.5L136.452 150.351L136.17 150.575L136.386 150.791L136.493 151.43L136.439 151.816L137.485 152.189L139.991 152.529L140.024 152.691L140.452 152.874L140.41 153.098L140.597 153.16L140.506 153.878L141.037 154.11L141.713 154.131L141.589 154.753L141.634 154.911L142.518 155.351L142.199 155.969L141.481 156.073L141.39 156.67L141.24 156.641L141.543 157.015L141.863 157.119L141.85 157.484L142.124 157.633V157.783L140.767 157.641L141.228 157.94L141.195 158.143L140.622 158.7L140.709 159.807L139.763 160.405L139.054 161.309L139.178 161.451L139.439 161.513L139.481 161.716L140.61 162.388L141.166 162.193L141.937 162.185L142.107 161.608L142.688 161.567L143.236 161.683L143.867 161.011L143.431 160.832L143.643 160.459L144.174 160.616L144.219 160.405L144.253 160.127L143.9 160.031L144.083 159.604L143.917 159.467L143.912 159.318L143.713 159.251L143.668 158.978L144.253 158.828L144.423 159.027L144.564 158.998L144.531 158.795L144.975 158.729L145.087 159.339L144.962 159.637L145.211 159.807L145.265 160.575L145.481 160.832L145.663 160.841L145.771 161.675L145.58 162.463L145.651 162.608L145.489 164.177L145.257 164.803L145.759 165.019L145.672 165.753L146.921 166.222L146.834 168.085L146.473 168.094L147.116 168.795L147.273 168.625L147.477 168.849L147.589 169.031L147.647 169.712L147.917 169.998L148.443 170.488L148.854 170.571L149.136 171.011L149.282 171.882L149.946 172.666L149.875 173.114L149.705 173.38L149.717 173.666L150.004 174.359L149.999 174.994L149.609 175.089L149.638 175.633L149.261 175.421L148.601 176.006L147.489 175.259L145.788 174.824L145.278 174.604L144.805 174.23L144.331 173.475L142.211 172.691L141.78 172.297L140.883 171.753L140.506 171.658L139.348 171.786L137.556 171.434L137.124 171.67L136.261 172.401L134.199 173.189L133.572 173.23L132.618 173.027L132.062 173.114L131.543 173.475L130.892 174.313L130.091 174.72L129.531 174.687L128.514 174.006L127.452 173.869L126.618 173.645L125.888 173.251L125.12 172.454L124.601 172.147L124.104 172.276L123.821 172.625L123.245 173.741L122.776 174.156L122.423 174.243L121.581 174.06L120.68 173.475L120.257 173.197L119.087 172.998L118.614 172.72L118.286 172.031L118.141 170.936L117.971 170.616L117.116 170.114L116.461 169.869L115.963 169.712L115.212 169.67L114.519 169.869L113.261 170.488L113.033 170.828L111.871 171.741L111.444 172.21L111.274 172.72L110.934 173.189L110.27 173.264L109.257 172.467L108.759 172.372L108.498 172.421L107.9 172.774L107.046 173.986L106.672 174.243L106.17 174.21L105.179 173.815H104.813L104.365 174.284L103.925 175.334L103.428 175.961L102.145 176.293L101.535 176.347L100.855 176.579L100.32 174.484L99.8632 174.114L99.6973 173.537L99.2035 173.23L98.4317 172.347L97.7471 171.38L98.0043 171.264L97.5853 170.691L97.0832 170.521L96.5023 169.745L99.133 169.094L99.191 168.957L98.6558 167.923L98.2325 168.148L97.1454 168.106L96.7429 168.392L96.0085 168.467L95.8259 167.87V167.488L96.4027 167.073L96.2907 166.272L96.7637 165.923L97.6102 164.604L98.6931 163.782L100.067 163.28L100.398 162.6L98.357 162.621L97.7097 162.782L97.7346 162.214L97.3653 161.77L97.2492 161.247L97.1371 159.625L97.1745 158.658L94.9297 157.044L95.0376 156.608L95.8425 156.247L95.9753 155.392L96.3488 154.849L96.8757 154.625L97.4898 154.505L97.8716 154.305L98.0251 154.932L98.3902 155.222L99.6724 155.392L100.145 155.318L100.179 155.202L100.473 155.061L100.228 153.384L101.577 152.861L101.594 152.712L99.3944 151.185L98.4027 150.832L96.5272 148.762L96.3944 148.43L95.9504 148.451L95.8425 147.886L95.855 146.837L95.3903 146.069L95.3654 145.364Z" fill="#CCCCCC" stroke="white" stroke-width="0.5"/>
<path d="M52.0723 237.3L52.2507 237.312L52.2632 237.154L52.3296 237.196L52.6325 237.847L52.5163 237.93L51.8731 237.993L51.064 237.636L50.8607 237.403L51.3545 237.08L51.9437 237.163L52.0723 237.3ZM13.3923 233.167L14.6122 233.557L14.5251 233.81L14.6039 233.864L14.7699 233.789L14.8363 233.872L15.218 233.885L15.8695 234.652L16.2637 234.789L16.9483 234.81L17.3217 234.914L17.4255 235.113L17.8197 235.217L17.9068 235.416L19.5416 235.889L22.5167 236.362L22.8403 236.739L22.886 236.93L23.0354 236.993L23.081 237.183L24.1391 237.876L24.6453 238.59L25.276 238.652L25.7864 238.486L27.3963 238.81L27.4627 239.017L27.2013 239.229L27.1639 239.615L27.8527 239.98L28.1017 239.993L28.1266 239.876L28.0021 238.744L28.056 238.598L29.3216 238.632L29.5581 238.926L30.0394 239.188L30.6701 239.283L30.4792 239.49L30.4668 239.681L30.9481 240.615L31.085 240.54L30.9025 239.943L31.1265 239.847L30.9689 239.333L31.1639 239.354L31.1058 239.499L31.2178 239.843L31.4128 239.739L31.5581 239.354L31.7033 239.366L31.6037 239.511L31.7282 239.656L32.2344 239.731L32.7406 240.046L34.4169 240.005L34.8568 239.449L35.002 239.051L35.9812 238.756L36.2634 238.391L37.4376 237.582L38.1472 237.279L39.226 237.047L39.2633 236.951L39.7571 236.793L39.9729 236.827L40.1098 236.702L40.4335 236.955L40.5206 236.524L40.4501 236.358L40.6741 235.918L40.7198 235.279L41.0807 234.889L40.9272 234.532L40.8608 233.607L41.5455 232.64L42.616 232.735L42.7737 232.955L44.4085 233.208L44.2757 233.428L44.4334 233.586L44.6035 233.511L44.8608 233.943L45.089 234.026L45.3587 234.993L45.2467 235.067L45.3255 235.329H45.5952L46.0931 236.399L46.479 236.872L48.3421 236.988L49.201 237.134L50.7362 238.474L51.8856 239.839L52.5619 240.225L51.8399 239.283L51.4914 238.52L52.2009 238.246L52.6159 238.225L52.8192 238.37L53.0225 238.789H53.3959L53.6864 238.997L54.0391 239.499L54.0059 239.698L54.1304 239.719L54.3005 239.457L54.01 239.204L53.8731 238.889L54.9021 238.943L54.7445 238.777L53.8399 238.611L53.6822 238.453L55.1677 238.378L55.6739 238.495L55.4001 238.221L54.1345 238.212L53.5619 238.034L53.0183 237.1L53.0515 236.619L53.4831 236.482L53.7528 236.578L54.1594 236.233L54.4042 236.179L54.5826 237.457L55.5287 238.013L55.9934 238.096L55.2465 237.706L54.844 237.349L54.7196 237.055L54.732 236.52L54.8565 236.403L55.0349 236.54L55.1054 236.98L55.176 236.08L55.4374 235.785H55.9893L56.4374 235.976L56.6283 235.964L57.093 236.32L57.3627 237.212L57.7652 237.885L58.4664 238.661L57.5287 240.088L54.1719 244.424L49.7155 247.793L48.508 248.577L48.2466 248.839L47.4002 249.279L47.1761 249.677L45.9686 249.959L45.7861 249.876L45.5745 249.519L45.3048 249.739L44.811 249.938L44.5745 249.54L44.1429 249.553L43.3172 250.013L43.0102 250.358L42.6948 250.482L42.3712 250.785L42.2467 250.627L41.6617 251.598L40.7239 251.764L40.699 252.067L40.4293 252.569L39.7115 252.623L39.3837 252.727L39.3754 252.864L38.9355 253.001L38.7405 252.54L38.4252 252.183L38.226 252.519L37.8443 252.54L37.641 252.884L37.7281 253.345L37.5331 253.378L37.2883 253.714L36.5746 254.038L36.2053 253.901L36.0725 254.067L35.724 254.245L35.5912 253.922L35.2095 253.482L35.9729 252.897L36.1638 252.519L35.7779 251.872L35.2053 252.167L33.8734 253.117L33.4128 252.835L33.2468 252.959L33.1016 252.897L32.7946 253.063L32.4128 252.905L31.9522 253.262L31.5041 253.366L30.6618 252.988L30.3257 252.934L30.2552 253.017L30.3465 253.362L30.2884 253.416L29.9606 253.142L29.8278 252.86L29.4544 252.764L29.3548 252.565L29.2842 251.382L29.3506 249.615L29.7531 248.507L29.6618 248.362L29.1681 248.237L28.5622 247.694L28.2676 247.569L28.1556 247.81L27.8735 247.955L27.5457 247.735L27.1847 247.034L26.9274 246.876L26.6702 247.013L25.0436 246.627L24.6245 246.793L23.1723 246.374L23.0146 246.279L22.7864 245.831L22.0893 245.818L21.9192 245.536L20.7034 244.822H19.8694L19.5665 245.03L18.6288 244.474L18.3259 244.507L18.135 244.183L16.3176 243.221L15.6662 243.997L15.9815 244.561L15.7326 244.739L15.8446 245.022L15.7284 245.221L15.5251 245.022L15.3093 245.075L15.0147 244.822L14.994 244.677L14.4297 244.395L14.2139 244.478L14.1268 244.752L13.9234 244.897L13.1807 244.802L12.8446 245.515L12.4836 245.569L11.9899 245.075L11.3467 245.2L12.1434 249.503L9.16418 249.86L7.19325 249.997L6.79907 249.955L5.86132 249.598L5.59991 249.619L5.41734 248.648L5.30531 248.503L4.83229 248.055L4.35926 248.358L4.08956 247.802L3.39247 247.362L3.01074 246.607L2.43398 246.461L2.19747 246.167L2.59165 245.843L2.57921 245.246L2.46303 245.059L1.88627 244.661L1.62901 244.009L2.21822 243.694L1.11035 242.383L1.09375 242.196L2.74933 240.32L2.629 239.378L2.06469 238.644L2.01075 238.32L2.10203 237.544L1.55847 236.495L1.88627 236.022L2.45058 235.623L2.45888 235.789L2.57506 235.777L2.6124 235.565L3.79911 235.134L5.32191 234.366L5.86547 234.283L5.9443 234.607L6.23891 234.702L6.297 234.491L7.11026 234.237L7.42561 233.984L8.3924 233.847L9.3509 233.532L9.73263 233.354L9.78658 233.175L10.1476 233.154L10.8032 232.578L11.5376 232.503L11.8322 232.628L12.9276 232.731L13.3425 232.876L13.3923 233.167ZM23.803 221.383L23.8735 221.466L23.6287 221.404L23.5042 221.254H23.6951L23.803 221.383ZM23.0312 220.354L22.9067 220.312L23.052 220.271L23.0312 220.354ZM22.8901 219.902L22.8362 219.964L22.7822 219.86L22.8528 219.661L22.8901 219.902ZM24.7117 219.889L24.6785 219.985L24.6079 219.943L24.554 219.785L24.7656 219.387L24.7117 219.889ZM24.9731 219.416V219.565L24.8818 219.238L25.0312 219.068L25.0976 219.184L24.9731 219.416ZM22.8528 219.134H22.7615L22.9316 219.03L23.0768 218.715L23.1349 218.989L22.8528 219.134ZM27.5664 218.059L27.8818 218.092L27.9979 218.009L28.3216 218.229L27.8154 218.346L26.7573 218.325L26.7656 218.063L26.8693 217.926L27.0975 217.906L27.5664 218.059ZM34.9646 217.806L34.8153 217.794V217.719L35.0186 217.507L35.1223 217.657L34.9646 217.806ZM28.5374 217.814L28.1183 217.582L28.1515 217.528L28.3299 217.487L28.6328 217.611L28.5374 217.814ZM27.9689 217.52L28.0394 217.868L27.3216 217.794L27.1432 217.615L27.7407 217.437H27.9108L27.9689 217.52ZM22.4213 217.424L22.7034 217.549L22.9607 217.802L23.0934 218.097L23.1183 218.495L22.9358 218.441L22.7656 218.968L22.6412 218.872L22.5208 218.283L22.247 217.673L22.2594 217.358L22.4213 217.424ZM21.7906 217.109L21.7366 217.171L21.5789 216.794L21.8072 216.827L21.7906 217.109ZM21.4545 216.395L21.5872 216.416L21.6287 216.615L21.4586 216.512L21.2138 216.545L21.2387 216.42L21.4545 216.395ZM54.0598 211.586L53.8316 211.524L53.9768 211.47L54.0598 211.586ZM32.4502 195.67L32.9937 196.201L34.8734 196.794L35.5414 196.665L36.8733 194.972L37.8858 194.371L39.1472 194.043L40.3629 194.213L41.2965 195.06L43.8027 195.62L43.9853 195.894L44.2467 197.026L45.3297 198.562L45.4292 200.611L45.6409 201.445L46.2176 202.458L46.6906 202.649L49.5786 202.881L50.8192 203.325L52.0557 203.292L53.0225 203.396L56.0307 205.678L58.1718 207.155L59.4 207.557L58.7029 208.864L56.898 209.657L56.1511 210.395L55.6781 211.42L55.5909 212.371L55.6366 212.781L55.898 213.445L58.0639 216.101L58.5743 216.976L58.6448 217.258L58.6863 217.86L58.6075 218.312L57.8772 220.271L57.9228 220.375L57.4955 221.657L57.5079 222.466L58.3668 224.275L60.8564 230.171L61.1801 230.698L60.6489 231.179L60.3917 231.694L60.707 233.204L60.7278 233.752L60.5577 233.951L60.5826 234.569L60.4498 234.694L60.6655 235.167L61.0805 235.221L61.3045 235.881L58.9394 235.984L59.0722 235.752L59.1054 235.183L58.2963 233.839L57.1013 233.291L56.6697 233.374L56.5245 232.964L56.2424 232.702L55.6532 232.764L55.1221 233.109L54.7528 233.246H54.4499L53.4374 233.864H53.0059L52.259 233.719L51.7279 233.403L50.147 233.121L48.5703 232.532L48.4043 232.491L48.3172 232.565L47.923 232.113L47.2051 231.901L46.5205 231.208L46.533 231.051L46.1969 230.578L46.4251 230.221L45.367 229.893L45.3006 229.441L45.1969 229.399L45.0765 229.586L44.1098 229.125L43.7861 228.769L43.4251 228.756L43.3131 228.557L43.0766 228.441L42.977 228.208L42.2882 227.735L41.9148 227.105L41.5413 226.872L40.6866 227.47L39.9231 227.532L38.8443 228.279L38.3256 228.026L38.2343 228.08L38.3049 228.615L38.0103 228.677L38.2841 229.329L38.2966 229.698L37.9231 230.391L37.7654 231.084L37.6078 231.267L37.5829 231.569L37.4128 231.74L36.6659 233.839L36.2053 234.059L34.7406 233.619L34.1804 233.914L33.8526 234.258L33.3589 234.225L33.0435 234.499L32.5124 234.574L32.1888 234.744L31.0726 234.818L31.0186 234.943L30.7365 234.847L30.0394 233.997L29.388 233.544L29.3091 233.379L28.3589 232.76L28.471 232.308L27.6618 232.254L26.9523 231.793L26.3341 232.138H25.6992L25.5042 232.042L25.1225 231.727L24.7739 230.507L24.4461 230.54L24.1432 229.889L23.4544 229.204L22.4503 228.395L21.9856 228.142L19.969 228.059L19.5997 228.408L19.5665 228.723L19.1723 228.955L18.9939 229.03L18.5748 228.968L18.2719 229.084L17.9358 229.001L17.4379 229.125L16.9525 228.735L16.9193 227.926L16.691 227.96L16.6496 228.831L16.3218 228.735V228.391L16.1848 228.673L16.106 228.64L16.1433 228.337L16.0437 228.304L15.9566 228.565L15.9359 228.648L16.633 228.984V229.067L16.0562 228.93L15.6703 229.013L15.6496 229.192L15.5043 229.096L15.189 229.267L14.8487 229.096L14.6828 228.706L14.106 228.15L13.7201 228.184L13.6081 227.993L12.6704 227.341L12.0604 226.765L11.7534 226.366L10.8156 224.578L10.1849 223.673L9.51687 223.03L9.11024 222.926L7.34263 221.632L6.65384 220.706L6.33019 220.528L6.21401 220.192L5.95675 220.043L6.04804 219.192L6.34264 218.383L7.75341 217.561L9.16418 216.433L10.214 215.756L11.8363 214.785L12.3633 214.607L13.2305 213.943L15.0147 213.026L15.6247 212.91L16.4006 213.088L16.9856 213.047L17.6993 213.196L18.4462 213.702L18.7284 213.69L20.7491 212.922L21.6412 212.723L21.9482 212.532L22.1972 211.246L22.2345 210.454L22.3466 210.391L22.2802 210.151L22.1225 210.117L21.9897 209.96L22.4627 209.877L22.7117 209.487L24.0312 208.126L23.9316 207.927L24.2553 207.844L24.6536 206.968L24.442 206.703L24.5084 206.62L24.7656 206.607L24.7781 205.412L23.8071 205.105L23.052 204.483L22.3424 203.383L22.1308 202.74L22.0312 202.097L22.0561 201.379L22.5623 200.196L23.1059 199.225L23.4793 198.815L23.8652 198.645L25.1764 198.213L25.8859 198.172L27.9482 197.325L29.6411 197.313L31.3755 197.661L31.6576 196.35L31.9398 195.948L32.4502 195.67ZM30.1556 202.458L30.3797 202.512V202.615L30.0436 202.52L29.973 202.205L29.6701 202.259L29.3755 202.47L29.139 203.018L29.2386 203.196L27.2967 204.516L26.9108 204.748L25.0146 205.412L24.9938 206.582L25.3216 206.624L25.1972 207.068L24.8362 207.08L24.2926 208.4L24.4254 208.433L24.6411 208.18L24.666 208.329L24.0685 208.985L24.6743 209.3L24.5831 209.362L24.0187 209.109L23.8071 209.3L23.9109 209.752L23.7615 210.026L23.7034 209.922L23.7739 209.711L23.3922 209.395L22.7864 209.922L22.7739 210.005L22.886 210.059L22.7366 210.142L22.691 210.449L22.5872 210.503L22.5997 210.653L22.4627 210.873L22.2843 212.433L22.4213 212.391L22.3798 212.632L22.7283 212.379L22.7408 212.59L23.3922 212.454L24.1349 212.96H24.3299L24.4876 213.246L25.2511 213.258L25.8569 212.881L26.3299 212.956L26.6204 212.702L27.4004 212.682L27.5789 212.462L28.3672 212.632L28.7863 212.234L30.0145 212.117L30.2759 211.877L30.7946 211.864L31.4917 212.105L32.2551 211.852H32.5622L32.8195 212.18L34.085 212.412L34.7862 213.159L35.8692 215.047L36.085 214.856L36.1223 215.055L35.8775 215.151L35.9231 215.3H36.0476L36.1389 215.678L36.4086 216.171L36.558 216.213L36.4792 216.541L36.0476 216.814L34.9232 217.13L34.1887 218.121L33.6618 218.292L33.417 218.188L32.9356 217.682L32.836 217.387L32.2178 216.968L31.0767 217.229L30.3008 217.86L29.2178 217.607L29.1598 217.669L28.2801 217.155L27.6121 217.072L27.5083 217.175L27.417 217.101L25.6619 218.121L25.2594 218.607L24.3009 219.258L23.8528 220.026L23.6495 220.15L23.3217 219.412L23.5042 218.781L23.6951 218.877L23.9192 219.57L23.9855 219.549L23.9399 219.287L23.7822 219.068L23.7698 218.827L23.5789 218.69L23.3424 217.881L22.7117 216.997L23.5001 215.964L23.4337 215.922L23.276 216.113L22.7698 216.852L22.5001 216.914L22.0271 216.619L21.5872 216.113L20.9441 215.798L20.8528 215.586L20.6287 215.682L20.3383 215.503L19.8196 214.188L19.774 213.881L19.886 213.827L19.94 213.636L19.4337 213.761L18.6786 214.159L18.7948 215.138L18.9275 215.379L19.5001 215.926L19.4669 216.138L19.8404 216.507L19.886 216.698L20.4462 216.939L21.2014 217.549L21.4379 217.611L22.0229 218.831L22.4171 220.001L23.2968 221.296L23.554 221.516V221.756L23.6578 221.565L23.8818 221.976L23.7366 221.599L23.9482 221.723L23.9026 221.607L24.7905 221.428L24.5996 221.346L24.0146 221.408L23.8237 221.155L24.4337 220.893L24.7947 220.516L25.305 220.412L25.3382 220.337L25.1266 220.18L25.081 219.98L25.5001 219.2L25.5789 218.715L26.3133 218.242L26.6287 218.263L26.4502 218.686L26.6536 218.673L26.7324 218.379L28.3091 218.346L29.6494 218.524L30.1805 218.346L30.3299 218.092L30.5 218.018L31.1182 217.922L31.222 217.785L32.0103 217.752L32.3589 217.814L32.8402 218.088L32.9771 218.3L32.9564 218.458L33.1846 218.657L33.9647 218.814L34.168 218.719L34.1099 218.424L34.3547 218.275L34.4792 218.287L34.5995 218.624L35.6368 218.337L36.2219 218.536L36.3713 218.387L36.5538 218.512L36.6576 218.258L37.0186 218.246L37.3464 218.034L37.7488 218.213L38.28 218.192L38.4708 218.453L38.5414 218.98L38.6866 219.287L39.2633 220.117L40.2799 219.673L41.0434 219.81L42.5081 220.337L43.1596 220.665L43.2923 220.624L43.2508 221.097L43.3546 221.474H43.5579L43.4874 220.632L43.9604 220.926L44.3006 220.968L44.5745 221.524L44.7902 221.557L44.8359 221.682L45.6367 222.238L45.9977 222.615L46.4832 222.466L46.7072 222.814L46.5744 223.254L46.7238 223.74L46.8608 223.823L47.0184 224.138V224.308L46.8234 224.644L46.8815 224.706L46.7695 224.843L46.9147 224.989L47.0516 225.428L47.2217 225.511L47.6823 226.175L47.7819 226.142L47.8607 226.267L47.7819 226.321L48.3213 227.163L48.6616 227.175L49.2508 228.457L49.8732 228.603L51.4167 229.578L51.4499 229.503L51.5868 229.536L51.8316 229.914L52.2051 229.968L53.2092 229.798L53.5453 229.482L54.6075 228.926L54.9229 228.906L55.0681 228.715L56.3337 228.935L56.5287 229.038L56.6531 229.237L56.9768 229.333L57.6988 229.279L57.4996 227.25L57.649 226.744L57.2672 223.872L54.4457 222.599L54.2092 222.2L54.1843 221.947L54.5536 221.188L54.0474 220.769L53.9229 220.462L53.1677 220.408L52.9312 220.292L52.7486 220.524L52.4457 220.599L52.342 220.586L51.9354 220.134L51.3835 220.346L49.7943 220.283L49.7238 220.188L49.147 220.221L49.0931 220.03L47.9645 219.947L47.7736 219.727L47.8898 219.549L47.7072 219.495L47.7529 219.412L47.6533 219.308L47.4043 219.329L47.0682 218.433L47.1678 218.263L46.7529 217.893L46.5952 217.955L46.4832 217.831L46.4458 217.337L45.3504 217.138L44.9189 216.897L45.0973 216.404L44.6782 215.781L43.9811 215.487L43.7197 215.151L43.3131 214.918L42.4127 214.781L42.0517 214.296L42.0766 213.748L42.4957 213.105L43.2882 213.022L43.2799 212.939L43.7197 212.769L43.9313 212.864L44.3504 212.59L44.6243 212.694L45.6491 211.935L46.1595 211.902L46.6325 211.395L46.9935 211.3L47.1595 211.362L47.2259 211.213L48.0807 210.947L48.5993 211.117L48.9479 211.063L49.7611 211.234L49.9644 211.454L50.1678 212.014L50.3379 211.931L50.4707 211.993L50.8856 212.416L50.7985 212.122L51.508 212.134L52.6491 211.902L52.8731 212.08L53.4167 212.039L53.4955 212.113L53.6075 211.806L54.371 211.69L54.4042 211.458H54.1013L54.093 211.375L54.5245 211.134L54.4997 210.752L54.1926 210.732L53.8856 210.931L53.6822 210.815L53.3461 211.034L51.4043 210.98L50.7694 209.702L50.2176 209.259L49.9893 209.246L49.7404 209.047L49.6864 207.951L49.7777 207.794L50.0682 207.91V207.574L51.0516 206.707L51.7196 206.727L52.9146 207.076L53.3793 207.308L53.7154 207.603L54.6324 208.005L55.7569 208.69L55.7113 208.142L55.4291 207.644L54.7279 207.234L54.6739 207.362L54.4789 207.416L53.4291 206.761L53.3378 206.624L53.5329 206.254L53.4955 206.18L53.3503 206.167L53.0474 206.591L52.1677 206.283L52.2258 206.155L52.093 206.051L52.1179 205.976L52.2964 206.093L53.4831 206.01L53.508 205.798L53.2839 205.765L53.2963 205.661L53.1594 205.578L52.4582 205.653L52.1179 205.852L52.0764 205.79L52.3793 205.611L53.0225 205.549L53.1013 205.379H53.1885L53.2009 205.508L53.3959 205.528L53.4416 205.358L53.5909 205.263L53.2963 204.483L53.1013 204.333L52.9644 204.068L52.5619 204.321L50.259 204.669L49.3586 205.292L49.4375 205.503L50.0682 206.147L49.9561 206.462H49.6491L49.4997 206.79L49.6781 206.873L49.6698 206.997L49.5661 207.126L49.4292 207.113L49.4043 207.42L48.5039 207.981L48.367 208.329L47.728 209.005L46.9479 209.387L46.3296 209.113L45.6657 209.462L45.5496 209.661L44.6616 209.989L43.7114 210.507L42.6326 210.528L42.2633 210.844L41.1596 210.914L40.6741 210.649L39.8484 209.785H39.6658L39.2592 208.951L39.1015 208.802L38.9978 208.815L38.6617 209.342L38.2592 209.47L38.2675 209.342L37.919 209.308L37.6825 209.404L36.4211 209.014L36.3422 208.864L37.8318 207.545L38.3173 207.354L37.7737 207.491L36.2966 208.819L35.9605 208.922L35.9937 207.918L35.67 207.329L35.7406 207.18L35.5704 206.524L35.3215 206.366L34.9937 205.819L35.0269 205.354L33.8775 204.267L33.6991 204.184L33.168 204.354L31.5456 203.52L31.6327 203.234L31.5954 202.885L31.2552 202.379L30.9606 202.221L30.5456 202.159L30.1265 202.213L30.1556 202.458Z" fill="#CCCCCC" stroke="white" stroke-width="0.5"/>
<path d="M65.7395 199.458L66.1793 199.84L66.3038 199.777L66.4947 199.831L66.5652 200.031L67.0258 200.275L67.0465 200.433L65.8432 200.487L65.3951 200.371L64.9428 199.873L65.5777 199.47L65.7395 199.458ZM60.8267 196.159L61.3536 196.172L63.03 196.587L65.2084 197.57L66.254 197.91L66.615 198.101L66.6482 198.441L65.1295 199.035L64.0507 198.993L63.2499 198.794L62.2209 198.192L60.1545 196.773L60.0093 196.595L60.0674 196.288L60.3371 196.13L60.8267 196.159ZM75.5692 134.861L80.0256 136.874L80.4405 136.102L81.3285 135.857L81.5069 135.845L83.1168 136.529L82.5857 137.301L82.1542 138.438L82.1459 138.708L81.5359 140.036L80.2372 141.351L80.3575 142.197L79.8389 144.915L79.2995 145.587L79.2621 145.791L79.3285 146.334L79.7766 146.699L80.7434 146.923L81.4405 146.687L82.4197 147.073L83.3533 147.189L84.6977 147.094L86.8263 145.853L88.0753 145.778L88.2412 145.67L88.3284 145.733L88.8097 145.23L89.4321 144.973L90.7142 145.177L90.623 146.396L90.8595 146.919L90.8927 147.305L90.8138 147.496L91.1956 147.786L91.7059 147.143L92.5067 146.629L93.1125 146.492L93.6851 146.044L94.0669 145.488L94.71 145.21L95.3947 145.359L95.4196 146.064L95.8843 146.832L95.8718 147.878L95.9756 148.446L96.4237 148.425L96.5565 148.757L98.4361 150.828L99.4278 151.181L101.627 152.708L101.606 152.857L100.262 153.38L100.507 155.056L100.212 155.193L100.179 155.309L99.7058 155.384L98.4237 155.214L98.0544 154.927L97.905 154.297L97.5233 154.5L96.905 154.616L96.3781 154.84L96.0046 155.384L95.8718 156.239L95.0627 156.6L94.959 157.035L97.2038 158.645L97.1664 159.616L97.2785 161.234L97.3946 161.757L97.7639 162.205L97.739 162.77L98.3905 162.612L100.432 162.591L100.096 163.272L98.7224 163.774L97.6395 164.595L96.793 165.915L96.32 166.268L96.432 167.064L95.8552 167.479V167.861L96.0378 168.458L96.7722 168.384L97.1747 168.097L98.266 168.139L98.6851 167.915L99.2245 168.948L99.1664 169.085L96.5316 169.732L97.1166 170.508L97.6146 170.678L98.0336 171.251L97.7764 171.367L98.461 172.334L99.2369 173.218L99.7307 173.525L99.8967 174.097L100.357 174.471L100.888 176.562L101.573 176.33L102.183 176.276L103.465 175.948L103.963 175.321L104.403 174.267L104.851 173.799H105.22L106.212 174.193L106.71 174.226L107.083 173.969L107.938 172.757L108.536 172.404L108.797 172.35L109.295 172.446L110.307 173.243L110.971 173.168L111.311 172.699L111.482 172.189L111.909 171.72L113.071 170.807L113.299 170.467L114.552 169.848L115.249 169.645L115.996 169.687L116.494 169.844L117.15 170.089L118.004 170.587L118.174 170.906L118.32 172.002L118.647 172.695L119.12 172.973L120.291 173.176L120.718 173.454L118.822 177.068L118.631 177.11L118.685 177.375L117.842 178.595L117.884 179.263L117.577 179.114L116.664 180.803L116.548 181.703L116.399 181.989L115.697 181.819L115.27 181.927L114.876 181.811L114.693 181.96L114.623 182.479L114.191 183.126L113.731 183.379L112.938 183.392L112.399 183.657L112.295 184.018L112.461 184.379L112.913 184.657L112.668 184.89L111.926 185.188L111.71 185.433L111.075 185.18L109.415 185.222L108.668 184.566L108.498 184.744L108.743 185.52L108.598 186.105L108.992 186.761L110.403 186.952L109.975 189.018L108.992 188.998L106.772 188.67L104.863 188.246H103.78L103.046 188.417L101.498 189.188L100.312 190.417L99.295 191.147L98.9091 191.305L98.1872 191.462L96.5108 191.209L95.6229 191.263L94.71 191.558L93.7266 192.089L92.7101 193.296L92.0752 195.213L91.7806 195.678L90.9466 196.599L89.4943 197.889L87.5068 199.296L83.3699 200.479L82.3326 201.313L77.4074 202.665L75.9634 202.516L71.034 200.869L70.1336 201.715L69.7021 201.989L69.5195 202.466L69.1502 202.479L68.9593 202.902L68.1378 203.715L67.9801 204.4L67.532 205.138L66.9552 205.74L66.3785 206.076L65.0133 206.711L63.7188 206.985L62.8184 207.387L61.2416 207.757L59.4616 207.545L58.2334 207.142L56.0923 205.665L53.084 203.383L52.1173 203.279L50.8808 203.313L49.6401 202.869L46.7522 202.636L46.2792 202.445L45.7024 201.433L45.4908 200.599L45.3912 198.549L44.3082 197.014L44.0468 195.881L43.8643 195.607L41.3581 195.047L40.4245 194.201L39.2087 194.031L37.9473 194.358L36.9349 194.96L35.603 196.653L34.9349 196.782L33.0553 196.188L32.5117 195.657L33.3706 195.213L33.7109 194.885L34.3084 193.329L34.4868 192.811L34.4412 192.558L33.7731 190.927L33.7524 190.271L34.2586 189.487L34.8436 189.031L35.4619 188.902L36.3996 188.541L37.1548 188.52L37.7191 188.371L39.6361 187.471L41.607 186.72L42.3498 186.529L43.7024 186.549L44.358 186.856L44.6402 187.122L44.051 187.006L43.9597 187.471L44.8145 187.989L45.2335 188.487L45.5572 188.624L45.6485 188.529L45.4244 188.263L45.4327 188.072L45.7232 188.147L45.9348 187.989L46.051 188.076L46.7065 187.313L46.6028 187.197L46.6692 187.081L47.1754 186.678L47.6733 186.454L47.7065 186.085L47.4119 185.383L45.4617 182.487L45.2958 182.093L45.3995 181.288L45.7149 180.832L46.47 179.218L46.6858 179.06L46.6402 178.732L46.1422 178.296L45.7729 178.139L45.5281 178.541L45.5406 178.998L45.3705 178.828H45.2999L45.275 179.018L45.1879 178.985L45.0219 178.699L44.5945 178.562L44.3041 178.794L44.1713 178.74L43.8228 178.952L43.3829 178.994L43.1547 178.886L43.0302 178.662L43.1008 178.089L44.0385 174.774L44.0593 173.902L43.968 173.828L43.7315 173.944V173.371L44.134 172.438L44.4161 172.226L44.8808 172.301L45.3456 171.608L45.524 171.545L46.1339 171.823L46.2501 171.736L46.7356 171.724L47.1837 172.01L48.0053 172.338L48.3995 172.666L49.7853 171.442L50.7314 170.803L51.2874 170.326L51.5903 169.911L51.9969 169.624L52.7272 168.392L53.5612 167.243L58.6234 161.375L60.0425 159.562L60.0549 159.4L60.2126 159.359L60.4947 159.595L60.8018 159.139L60.7147 159.085L60.4574 159.405L60.3205 159.288L60.2997 159.098L61.6524 157.712L62.1047 157.38L63.1752 156.218L66.0963 152.471L68.0672 149.575L70.6025 145.16L72.4406 141.737L75.5692 134.861ZM46.7854 187.421L46.1422 188.205L46.2543 188.313L46.1298 188.682L46.1713 188.906L45.9555 188.865L46.0261 189.043L45.9223 189.159L46.0136 189.242L45.9721 189.346L46.0758 189.379L46.3829 189.06L46.8435 189.305L47.4617 189.865L49.8517 190.935L50.665 191.541L52.582 192.495L53.8309 193.334L55.6483 193.935L55.6027 194.018L55.7147 194.101L55.8807 194.06L57.3122 195.624L58.1919 196.387L58.9678 196.914L59.1255 197.255L60.2541 198.649L60.5694 198.935L62.0134 199.844L62.6316 199.972L63.7022 200.732L64.8515 201.176L65.7187 201.333L68.1212 201.462L68.5818 201.408L68.7768 201.23L68.9137 200.997L68.922 200.628L69.1046 200.616L69.5195 199.23L69.0133 198.943L68.9925 198.807L68.8556 198.881L66.2747 197.371L63.9885 196.313V196.217L63.8183 196.176L63.81 196.271L61.0673 195.446L59.4864 194.852L59.001 194.483L58.279 193.466L58.2002 193.267L58.2997 193.163L58.308 192.495L57.3081 191.383L56.3703 190.865L55.7811 190.823L55.4533 190.96L55.2044 190.852L53.8724 189.23L53.611 189.093L53.4326 188.861L52.9056 188.935L52.499 188.861L52.3621 188.902L52.2625 189.093L52.0965 189.114L51.4409 189.072L51.1588 188.861L51.2044 188.512L50.9886 188.458L50.8559 188.894L50.6069 188.574L49.0426 188.022L48.5488 187.558L48.0551 186.782L47.1173 187.226L46.914 187.491L46.7854 187.421Z" fill="#CCCCCC" stroke="white" stroke-width="0.5"/>
</svg>
