<svg width="320" height="302" viewBox="0 0 320 302" fill="none" xmlns="http://www.w3.org/2000/svg">
<path d="M27.7532 184.217L28.9809 184.253L29.1318 182.75L31.0044 182.542L31.4258 181.007L34.5209 179.14L39.1819 181.933L39.5252 178.833L40.6852 178.864L40.3419 177.262L41.2158 175.811L43.9832 176.648L44.1549 175.951L47.4685 178.874L47.687 180.055L51.2451 176.43L51.3804 174.609L54.7148 173.584L55.7916 169.256L54.6316 168.679L56.1713 167.571L56.239 166.015L59.7295 164.814L59.3341 163.612L60.6242 163.232L59.3081 162.608L59.9427 161.802L61.3316 161.843L61.5189 162.951L64.5724 164.106L65.9718 163.825L65.4724 166.551L67.1994 166.442L69.0149 169.048L72.058 166.223L72.3805 164.174L73.7122 162.806L77.7333 162.847L80.2614 164.574L81.4059 166.77L80.6308 169.199L84.7039 169.849L85.6922 172.221L90.9462 175.02L94.0257 174.994L94.1662 173.938L95.5395 173.485L98.6138 173.896L98.9675 170.733L101.579 169.88L106.994 170.905L109.777 173.059V173.475L110.526 175.384L108.378 177.059L109.512 182.214L115.723 181.673L114.792 185.179L115.947 185.803L115.843 190.194L117.533 192.935L113.372 194.501L111.416 193.06L111.104 194.147L109.444 194.865L110.563 198.475L108.612 199.615L108.466 201.992L109.304 203.074L107.696 203.219L108.393 204.073L105.782 204.275L105.668 207.152L103.8 206.382L103.296 207.641L104.721 208.208L104.305 209.581L102.536 210.174L103.139 213.415L101.152 212.905L100.18 214.071L101.386 215.382L99.1704 216.963L100.32 218.144L99.5918 218.586L99.8987 221.676L95.9348 222.274L94.1193 225.51L93.7136 229.271L90.5612 228.49L90.4156 228.589L89.2816 230.254L87.6482 232.241L89.2556 233.151L90.4572 236.819L92.231 237.469L93.0165 241.079L92.0958 241.719L91.3831 240.309L90.7017 241.417L88.9278 241.381L88.4076 242.536L87.2164 242.187L85.2657 245.23L82.2954 247.519L78.8465 245.334L78.0922 241.48L74.196 236.543L72.521 236.153L71.8187 233.651L70.0292 233.479L69.2282 234.265L66.5752 231.029L70.2737 227.32L71.7927 227.575L73.062 226.243L73.1816 224.225L74.4457 223.72L71.2101 219.559L67.7716 219.101L67.267 220.948L66.2683 221.286L63.5893 219.517L61.1132 222.732L59.9115 221.998L61.0299 221.166L60.026 218.461L55.932 218.95L54.4755 214.913L50.9954 215.824L47.7806 213.857L45.2317 213.795L42.5163 212.276L40.4615 213.811L40.2431 210.882L37.3924 208.172L37.304 203.688L36.1647 202.699L34.032 203.334L33.9591 201.638L32.7003 203.141L30.5363 201.492L28.1226 202.091L27.5868 203.121L29.2878 204.291L28.2578 206.512L28.648 209.327L22.9883 209.118L27.4411 200.041L29.834 190.261L29.678 187.817L27.7532 184.217Z" fill="#CCCCCC" stroke="white" stroke-width="0.5"/>
<path d="M104.534 73.7389L105.486 68.7606L108.326 66.6539L108.768 68.5474L110.345 68.9011L111.411 67.9283L113.44 69.3016L112.961 67.7723L115 67.6734L114.475 66.1233L115.687 63.0177L118.012 63.2466L120.353 61.9149L119.339 59.2359L122.096 59.5064L123.958 61.2751L126.164 58.1123L127.386 59.4076L128.65 58.9654L129.212 60.2243L130.216 59.5636V60.1306L132.385 60.2035L132.255 62.4767L138.482 63.2726L138.856 62.4091L140.282 62.3103L140.152 63.5899L141.4 64.9476L142.394 64.7187L142.134 63.7512L143.788 63.9541L144.594 62.7992L147.049 63.3975L148.261 62.5547L147.315 65.5875L148.272 67.585L152.621 68.152L152.532 69.0988L155.383 68.1L160.179 68.7242L161.958 69.5201L162.104 72.5372L164.283 78.1969L165.272 78.9096L165.703 77.8172L167.94 77.6143L169.938 79.3101L169.855 80.2569L171.899 79.8563L172.643 81.7862L177.392 81.3857L178.797 85.3704L177.356 86.0882L177.507 87.3419L179.15 87.7268L179.197 88.9753H179.031L179.801 91.6855L177.605 93.3085L177.371 93.2305L176.794 94.1096L175.811 93.8287L176.367 97.7093L177.548 98.5937L176.711 100.373L177.236 102.032L173.257 100.222L173.959 101.803L172.414 103.067L169.751 102.552L171.899 106.995L170.604 106.886L169.09 109.408L171.634 111.833L171.394 112.883L172.232 112.847L171.462 113.762L172.299 115.151L169.62 114.22L169.922 116.868L168.793 116.956L167.306 119.349L168.975 120.671L167.165 122.32L166.744 122.325L166.723 124.494L165.839 124.369L168.133 125.28L165.688 128.583L164.049 128.593L164.835 129.488L165.017 129.784L164.83 131.184L162.291 132.864L162.619 134.029L161.979 133.145L157.094 134.534L154.644 133.316L154.842 132.323L153.141 131.043L152.839 132.791L147.824 134.518L146.592 131.178L145.452 131.064L145.567 129.587L144.729 129.914L144.469 128.442L142.685 127.532L141.65 127.818L140.469 125.951L139.418 125.664L138.581 127.121L136.177 127.444L135.532 123.667L132.141 126.845L130.346 126.746L130.091 125.612L126.798 124.848L126.897 123.1L123.479 123.589L123.729 121.784L123.042 122.351L122.018 120.816L121.399 121.342L119.916 118.418L118.72 118.704L117.274 117.581L116.556 118.788L116.342 117.591L113.658 120.515L113.747 118.038L112.113 117.815L112.16 114.886L110.48 115.11L108.711 116.8L107.057 116.353L107.556 113.898L104.929 112.441L105.101 110.922L108.108 110.756L108.576 103.442L104.685 100.544L102.183 101.018L101.715 99.8837L102.484 98.7601L102.641 98.7289L102.412 95.6494L103.634 94.9003L103.296 92.8403L104.539 92.2161L102.864 91.5346L103.197 89.0949L102.344 88.3251L105.21 87.6696L105.98 85.542L102.838 81.3441L101.023 80.7355L100.555 81.4845L99.9355 79.6847L104.534 73.7389Z" fill="#CCCCCC" stroke="white" stroke-width="0.5"/>
<path d="M164.83 131.184L166.879 133.639L170.339 133.212L171.832 134.003L171.712 134.945L175.514 136.464L176.841 138.269L178.167 137.233L179.655 137.92L181.575 136.854L183.016 137.098L184.347 135.449L186.496 136.807L186.792 138.118L188.446 137.483L190.142 139.205L189.887 141.712L191.063 143.71L192.936 143.788L193.784 145.25L196.182 145.952L195.786 148.402L194.002 149.822L195.74 150.717L196.395 152.194L196.551 153.073L195.032 154.561L197.253 154.519L197.498 155.778L201.04 154.28L202.871 155.492L203.438 157.011L205.363 157.11L207.038 160.913L205.056 161.084L205.81 161.448L205.873 164.648L208.266 165.808L208.271 167.275L207.069 169.293L203.855 168.606L202.174 167.118L199.771 169.085L201.129 173.506L202.242 174.323L201.685 177.039L204.286 176.576L204.562 177.71L203.282 180.857L201.196 183.026L200.978 184.867L200.531 186.433L199.168 186.938L199.839 189.013L199.126 190.673L197.888 189.627L196.993 190.475L195.599 189.565L195.032 189.742L195.745 191.822L194.996 192.337L193.071 192.155L192.244 193.05L189.06 191.781L187.567 192.426L188.249 194.018L186.938 195.224L186.99 198.392L189.419 199.152L188.488 203.953L186.303 202.824L183.572 199.63L182.064 203.308L182.521 205.566V206.07L182.079 206.799L182.032 206.794L181.497 207.355L181.252 207.537L180.711 207.6L180.753 207.725L179.484 209.473L177.106 210.04L176.914 208.479L174.386 207.173L171.483 208.203L170.911 205.488L168.799 202.408L168.128 201.971L166.879 202.965L165.615 201.42L165.886 200.265L163.862 200.931L164.075 202.351L162.676 203.204L160.788 201.675L159.888 202.075L158.816 200.39L157.766 200.692L154.036 197.482L153.006 197.654L151.872 199.589L151.06 198.772L144.995 199.854L142.394 198.372L141.275 195.531L140.37 195.651L139.413 198.007L138.638 196.561L133.571 195.817L128.947 193.773L129.712 188.868L127.485 189.164L126.518 184.613L127.953 184.347L128.515 182.901L130.299 182.703L130.7 181.184L129.951 180.16L131.407 179.749L134.222 181.393L135.964 178.526L135.205 175.572L135.855 172.44L134.939 172.086L135.995 169.511L135.106 169.126L136.942 166.786L136.719 164.705L137.566 163.836L136.963 162.515L137.946 161.844L137.795 160.725L138.789 160.965L138.888 159.373L139.845 159.055L140.24 160.216L142.753 159.607L145.718 160.72L146.009 158.65L148.964 155.159L146.852 153.209L146.425 148.23L147.424 147.616L150.124 148.537L150.576 147.133L153.318 147.065L153.843 145.042L152.714 144.001L153.344 141.026L155.404 140.204L158.442 141.052L157.89 139.949L158.946 139.236L158.795 137.967L156.579 137.681L157.094 134.534L161.979 133.145L162.619 134.029L162.291 132.864L164.83 131.184Z" fill="#CCCCCC" stroke="white" stroke-width="0.5"/>
<path d="M286.857 136.988L288.344 137.077L289.104 137.488L289.156 140.037L295.154 141.363L296.106 142.809L298.535 142.461L298.103 143.839L300.038 146.024L301.625 145.665L303.326 147.569L303.014 148.724L304.476 152.152L302.509 154.342L303.107 155.159L302.057 155.996L302.884 157.239L302.634 158.285L301.875 158.066L301.729 159.898L302.946 161.963L299.393 165.604L300.376 167.159L299.705 169.948L300.585 175.529L301.984 175.826L302.343 177.438L303.706 177.844L303.29 180.029L304.97 181.381L304.408 183.962L302.905 185.767L303.191 187.853H304.814L306.166 191.796L310.323 194.979L309.922 197.559L311.571 198.86L312.377 201.841L311.691 202.054L313.069 203.079L313.511 205.035L316.143 208.015L319.093 209.181L317.824 210.637L314.567 210.554L313.251 211.917L313.444 213.867L315.197 214.346L315.015 216.448L316.736 216.624L316.471 218.69L317.522 220.828L317.335 224.531L315.509 230.347L314.349 232.038L305.771 233.208L304.413 236.028L299.877 240.116L298.764 239.497L299.092 237.796L295.518 237.375L296.402 235.154H296.173L294.634 234.108L294.92 232.282L294.015 232.001L290.597 234.628L288.417 232.75L283.226 238.15L270.205 237.115L270.221 236.142L272.666 234.79L266.944 235.372L264.785 232.605L263.625 232.802L263.958 231.45L265.461 230.873L265.029 229.525L268.192 229.957L269.545 228.677L267.542 228.438L269.123 227.902L268.926 227.179L267.459 227.242L267.734 223.798L265.981 223.038L264.452 223.548L262.246 221.613L259.385 221.363L257.846 219.189L255.63 219.09L257.783 214.627L256.597 212.458L253.263 211.475L251.541 213.238L248.056 213.81L246.703 212.146L245.876 210.621L244.752 199.214L244.315 196.342L245.158 194.73L244.18 192.701L245.819 187.936L244.357 187.759L245.293 187.332L246.183 184.685L245.553 183.332L244.731 183.629L243.254 182.349L244.607 180.991L245.772 181.517L246.828 178.588L245.122 174.021L241.73 174.083L238.697 171.3L239.68 169.173L242.926 171.617L243.285 170.14L245.97 169.854L245.959 168.491L247.879 167.352L248.035 166.27L246.11 164.376L249.673 161.984L248.654 159.887L246.594 160.491L246.167 159.497L248.056 157.385L247.041 154.659L247.468 152.604L252.233 149.832L255 150.929L255.796 149.639L259.38 150.508L260.852 149.052L261.913 150.815L264.301 150.451L266.71 147.928L270.668 150.935L272.146 148.511L271.48 147.101L273.274 145.384L276.359 147.689L277.597 147.007L279.709 147.86L279.938 145.728L281.707 145.712L280.89 144.188L282.466 142.414L285.275 142.612L283.902 140.396L286.857 136.988Z" fill="#CCCCCC" stroke="white" stroke-width="0.5"/>
<path d="M15.9089 120.306L15.8724 118.439L16.9596 117.518L19.4097 118.85L20.5906 118.106L22.2812 112.108L24.3516 110.443L23.9406 108.878L25.9642 108.248L24.8978 107.255L25.9538 105.824L28.7004 108.097L30.0321 107.161L31.1817 108.477L38.9586 105.158L37.835 101.787L40.2018 102.313L41.9341 100.341L46.1892 98.8742L49.1543 100.528L50.5224 99.3736L51.7761 100.008L52.9673 99.3424L52.4576 98.2604L54.1482 97.579L53.2743 96.4605L54.5799 96.1952L54.3042 95.1757L55.9116 94.463L55.6931 93.2354L59.9171 94.2445L59.1368 97.5425L58.8247 99.7065V99.8834L59.0692 101.486L59.1576 101.548L59.5686 107.135L57.3474 108.206L56.9208 109.491L58.2733 110.079L58.6062 113.819L54.0962 114.87L54.6996 116.639L53.5291 120.15L55.7504 123.344L55.0065 124.634L56.6763 126.299L57.2121 128.562L55.5995 129.597L54.8764 128.187L54.4707 129.097L57.3578 131.584L55.818 138.263L56.6139 144.266L55.6515 146.04L57.8728 148.371L58.5386 147.481L59.709 148.022L59.9847 149.203L59.0328 150.535L60.9315 153.052L64.2659 152.09L64.7237 155.565L63.5741 157.188L65.4884 157.292L66.7316 158.415L68.1622 156.59L69.7227 157.006L72.563 159.399L73.7126 162.806L72.3809 164.174L72.0584 166.224L69.0153 169.048L67.1998 166.442L65.4728 166.551L65.9721 163.825L64.5728 164.106L61.5193 162.951L61.332 161.843L59.9431 161.802L59.3085 162.608L60.6246 163.232L59.3345 163.612L59.7298 164.814L56.2393 166.015L56.1717 167.571L54.632 168.679L55.792 169.256L54.7152 173.584L51.3808 174.609L51.2455 176.43L47.6874 180.055L47.4689 178.875L44.1553 175.951L43.9836 176.648L41.2162 175.811L40.3423 177.262L40.6856 178.864L39.5256 178.833L39.1823 181.933L34.5213 179.14L31.4262 181.007L31.0048 182.542L29.1321 182.75L28.9813 184.253L27.7536 184.217L27.0462 178.843L20.0132 175.738L19.4306 174.141L21.1264 171.852L20.8871 169.157L18.0833 165.802L17.355 162.234L15.6123 160.923L16.2158 159.159L18.9 156.792L19.5138 151.585L20.9339 148.412L18.4786 145.733L19.4982 139.522L15.6436 137.582L13.7969 131.308L14.2702 129.316L17.0065 126.122L16.0129 124.104L17.0949 122.101L15.9089 120.306Z" fill="#CCCCCC" stroke="white" stroke-width="0.5"/>
<path d="M185.784 227.403L186.991 226.68L196.032 229.171L196.047 230.935L198.17 234.306L196.775 234.925L196.869 236.251L199.069 237.848L198.253 238.899L200.047 240.6L199.335 241.932L200.479 242.067L200.625 242.93L208.896 241.953L212.449 238.108L213.916 238.909L215.752 237.266L220.98 236.735L223.399 234.842L224.736 236.064L225.766 234.831L226.078 236.839L223.763 239.549L224.741 241.828L223.971 245.225L224.991 245.511L224.07 245.724L225.396 246.072L225.703 247.498L224.663 247.742L225.303 248.538L224.101 249.433L225.407 250.806L224.06 252.981L225.074 255.784L228.07 256.008L228.585 257.059L228.169 257.87L226.577 257.782L226.489 259.415L223.565 260.029L224.533 261.246L224.138 263.124L226.973 263.197L227.55 264.212L229.116 264.43L230.411 267.182L230.791 269.762L229.438 272.488L230.968 273.461L230.526 274.693L232.455 277.144L231.503 277.596L231.738 280.145L227.888 278.824L225.797 281.664L223.134 280.067L220.834 280.764L222.473 282.975L220.501 283.495L218.873 286.221L216.938 286.746L216.116 285.321L215.164 285.654L214.857 284.333L213.989 284.983L212.74 284.515L213.13 283.823L211.533 283.199L210.919 280.983L207.991 281.716L206.992 280.884L205.671 282.912L202.357 281.009L201.077 280.931L201.124 281.929L200.656 281.42L199.845 282.205L199.257 281.378L198.055 281.581L197.42 284.473L194.455 284.093L192.525 286.408L192.109 285.862L190.081 292.463L185.664 289.774L184.327 289.992L183.38 291.61L180.712 291.501L180.03 289.753L181.815 287.688L180.941 286.601L180.795 281.305L178.48 282.429L175.697 281.367L176.041 278.975L174.21 279.094L172.472 273.393L170.818 272.55L170.547 271.427L170.979 268.675L167.879 267.411L170.277 265.153L169.928 263.478L166.147 262.869L165.117 258.854L161.272 259.171L162.422 255.119L161.834 254.614L160.674 255.353H160.336L159.774 255.373H159.384L158.266 254.812L159.249 254.187L159.129 252.466L160.934 249.428L162.953 249.1L162.334 248.647L163.546 245.901H163.717L163.863 246.884L164.414 245.427L166.552 245.126L167.348 243.997L166.662 243.159L168.966 242.275L169.32 241.167L166.095 239.554L165.538 237.973L167.312 236.579L171.265 236.376L171.494 234.815L170.209 233.843L170.376 233.791L171.681 234.092L171.421 232.73L172.503 231.7L174.511 232.267L176.582 231.887L178.215 230.383L182.668 230.659L184.145 229.936L184.187 228.953L186.47 228.88L185.784 227.403Z" fill="#CCCCCC" stroke="white" stroke-width="0.5"/>
<path d="M179.8 91.6856L182.49 92.0913L182.146 90.0157L184.804 88.4448L184.95 88.7309L184.664 90.5255L186.833 91.9665L190.599 90.9469L191.858 92.1069L192.998 91.5503L197.43 92.4763L199.687 91.1394L199.344 88.6997L201.862 86.7489L204.952 87.8517L208.239 86.4576L210.195 83.222L214.393 84.2728L215.08 82.6862L216.734 82.8059L216.219 81.3545L217.062 80.6783L219.044 80.4962L220.828 82.0152L227.84 76.8757L230.618 77.4167L233.286 76.3139L233.442 75.0758L238.119 74.2695L238.296 75.0498H238.057L239.409 77.1254L238.982 78.0877L240.814 80.283L239.83 82.1764L241.068 81.9788L242.478 83.2272L240.314 83.1908L240.335 82.9775L239.518 84.637L240.018 85.8646L238.946 85.6721L240.959 88.3667L240.371 88.7309L241.521 91.0353L241.214 92.4867L242.416 93.9328L244.762 93.6467L246.65 96.4921L248.96 95.9355L248.393 96.7626L248.955 97.6522L247.618 97.2828L247.056 99.1659L250.822 101.626H250.552L251.743 102.812L250.64 103.926L252.081 107.239L257.652 106.828L257.787 105.341L259.364 105.408L259.624 107.286L260.612 107.073L260.165 108.03L258.682 108.061L259.837 111.13L260.987 111.021L261.413 112.155L263.119 111.032L263.052 110.189L265.289 110.61L265.58 117.638L263.348 119.974L265.393 121.399L267.588 124.718L267.099 126.783L268.42 127.73L268.066 129.847L269.252 131.413L273.268 131.454L273.991 132.859L274.72 131.881L277.815 133.202L281.04 132.588L282.486 134.555L284.083 134.903L284.354 136.979L286.195 136.131L286.856 136.989L283.901 140.396L285.274 142.612L282.465 142.415L280.889 144.189L281.706 145.713L279.937 145.728L279.708 147.861L277.596 147.008L276.358 147.689L273.274 145.385L271.479 147.102L272.145 148.511L270.667 150.935L266.709 147.929L264.3 150.452L261.913 150.816L260.851 149.052L259.379 150.509L255.795 149.64L254.999 150.93L252.232 149.833L247.467 152.605L247.04 154.66L248.055 157.386L246.166 159.498L246.593 160.491L248.653 159.888L249.672 161.984L246.109 164.377L248.034 166.271L247.878 167.353L245.958 168.492L245.969 169.855L243.284 170.141L242.926 171.618L239.68 169.173L238.696 171.301L241.729 174.084L245.121 174.022L246.827 178.589L245.771 181.518L244.606 180.992L243.253 182.35L244.731 183.63L245.553 183.333L246.182 184.685L245.292 187.333L244.356 187.76L245.818 187.937L244.179 192.702L245.157 194.73L244.314 196.343L244.751 199.214L243.092 200.692L241.625 200.567L240.585 198.736L238.566 198.819L239.154 199.381L236.413 200.198L235.326 199.709L235.482 200.723L233.848 201.966L231.284 200.551L230.295 198.304L223.97 198.533L224.318 196.093L222.003 194.824L222.914 193.18L221.754 191.791L220.984 194.663L219.07 195.297L218.648 194.221L217.462 195.329L215.818 194.023L215.699 195.828L214.653 195.422L214.617 196.244L210.195 193.924L209.186 195.058L209.555 192.754L206.616 190.21L204.957 190.72L204.483 187.781L203.12 186.813L203.802 185.305L200.977 184.868L201.196 183.026L203.282 180.857L204.561 177.71L204.286 176.576L201.685 177.039L202.241 174.323L201.128 173.507L199.77 169.085L202.174 167.119L203.854 168.606L207.069 169.293L208.27 167.275L208.265 165.808L205.872 164.648L205.81 161.449L205.056 161.084L207.037 160.913L205.362 157.11L203.438 157.011L202.871 155.492L201.04 154.28L197.497 155.778L197.253 154.52L195.031 154.561L196.55 153.073L196.394 152.194L195.739 150.717L194.001 149.822L195.786 148.402L196.181 145.952L193.783 145.25L192.935 143.788L191.062 143.71L189.887 141.712L190.142 139.205L188.446 137.483L186.792 138.118L186.495 136.807L184.347 135.449L183.015 137.098L181.574 136.854L179.655 137.92L178.167 137.234L176.84 138.269L175.514 136.464L171.711 134.945L171.831 134.003L170.338 133.212L166.879 133.639L164.829 131.184L165.016 129.784L164.834 129.488L164.049 128.593L165.687 128.583L168.132 125.28L165.838 124.369L166.723 124.494L166.743 122.325L167.165 122.32L168.975 120.671L167.305 119.349L168.793 116.956L169.922 116.868L169.62 114.22L172.299 115.151L171.462 113.763L172.231 112.847L171.394 112.883L171.633 111.833L169.089 109.409L170.603 106.886L171.899 106.995L169.75 102.552L172.414 103.067L173.958 101.803L173.256 100.222L177.236 102.032L176.71 100.373L177.548 98.5937L176.367 97.7094L175.81 93.8287L176.794 94.1097L177.371 93.2305L177.605 93.3086L179.8 91.6856Z" fill="#CCCCCC" stroke="white" stroke-width="0.5"/>
<path d="M117.533 192.936L119.145 193.747L118.183 196.546L120.248 197.331L128.946 193.773L133.57 195.817L138.637 196.561L139.412 198.007L140.369 195.651L141.274 195.531L142.393 198.372L144.994 199.854L145.946 201.571L144.682 202.216L144.718 203.735L143.506 204.598L144.422 206.544L143.73 209.394L142.029 210.742L141.644 212.339L140.094 212.724L142.336 215.423L139.402 217.608L140.817 221.505L142.955 222.43L143.111 225.177L137.68 225.422L139.162 229.661L135.922 228.433L136.192 230.634L135.433 231.69L136.379 233.183L135.23 234.785L136.754 236.413L136.369 238.816L137.269 238.957L137.42 240.169L135.069 239.659L131.365 241.802L131.583 242.728L131.781 242.713L127.713 243.415L127.37 244.143L127.078 243.431L125.83 243.738L126.173 246.978L124.935 249.184L123.988 250.521L125.258 250.63L125.284 252.17L123.994 251.509L119.702 253.762L118.386 251.879L116.742 251.41L114.901 247.181L112.732 246.921L110.916 244.549L116.17 242.208L116.373 240.741L115.114 239.701L115.983 237.604L114.89 236.543L113.918 236.2L113.949 237.537L111.587 239.253L107.826 238.811L106.068 239.961L104.356 238.416L103.285 239.331L103.217 236.174L101.11 236.606L98.4782 234.374L98.5615 233.308L96.6472 233.547L95.586 232.356L91.284 231.695L89.2812 230.254L90.4153 228.59L90.5609 228.491L93.7133 229.271L94.119 225.51L95.9345 222.274L99.8984 221.676L99.5915 218.586L100.32 218.144L99.1701 216.963L101.386 215.382L100.179 214.071L101.152 212.906L103.139 213.416L102.536 210.175L104.304 209.582L104.721 208.208L103.295 207.641L103.8 206.383L105.667 207.152L105.782 204.276L108.393 204.073L107.696 203.22L109.303 203.074L108.466 201.992L108.612 199.615L110.562 198.476L109.444 194.865L111.103 194.148L111.415 193.06L113.371 194.501L117.533 192.936Z" fill="#CCCCCC" stroke="white" stroke-width="0.5"/>
<path d="M246.703 212.146L248.055 213.81L251.54 213.238L253.262 211.475L256.597 212.458L257.783 214.627L255.629 219.09L257.845 219.189L259.385 221.363L262.246 221.613L264.452 223.548L265.981 223.038L267.734 223.798L267.458 227.242L268.925 227.179L269.123 227.902L267.541 228.438L269.544 228.677L268.192 229.957L265.029 229.525L265.461 230.873L263.957 231.45L263.624 232.802L264.784 232.605L266.943 235.372L272.665 234.79L270.22 236.142L270.205 237.115L283.225 238.15L288.417 232.75L290.596 234.628L294.014 232.001L294.919 232.282L294.633 234.108L296.173 235.154H296.402L295.517 237.375L299.091 237.796L298.763 239.497L299.877 240.116L291.543 247.305L271.287 275.406L273.102 277.185L274.653 283.599L274.444 289.134L273.659 289.961L274.673 290.7L273.425 292.651L273.789 293.16L274.949 292.292L274.429 293.446L276.015 293.488L277.295 295.709L279.199 296.453L278.424 297.894L279.194 300.75L277.841 301L275.396 298.544L272.593 299.215L269.601 296.453L266.782 296.979L264.342 296.328L262.605 294.144L261.049 294.57L258.11 293.727L258.043 292.255L256.95 292.677L252.477 290.622L251.951 287.6L249.715 284.312L247.837 284.203L245.855 282.216L244.455 282.824L244.221 283.995L242.073 281.17L240.081 280.941L239.238 279.438L234.192 281.108L231.737 280.145L231.503 277.596L232.455 277.144L230.525 274.694L230.967 273.461L229.437 272.488L230.79 269.762L230.41 267.182L229.115 264.43L227.549 264.212L226.972 263.197L224.137 263.124L224.532 261.247L223.564 260.029L226.488 259.416L226.576 257.782L228.168 257.871L228.584 257.059L228.069 256.008L225.073 255.785L224.059 252.981L225.406 250.806L224.1 249.433L225.302 248.538L224.662 247.742L225.702 247.498L225.396 246.073L224.069 245.724L224.99 245.511L223.97 245.225L224.74 241.828L223.762 239.549L226.077 236.839L225.765 234.831L225.895 234.816L226.155 234.628L229.089 231.471L233.318 229.754L233.401 228.027L238.166 226.742L240.512 222.237L243.16 220.058L244.154 220.599L246.703 212.146Z" fill="#CCCCCC" stroke="white" stroke-width="0.5"/>
<path d="M278.372 24.3467L282.949 25.7512L282.424 26.8696L284.536 27.8528L283.953 29.3561L285.503 30.2977L287.204 29.4238L290.065 32.4045L293.337 32.9194L298.076 38.2878L299.398 42.9852L299.294 44.8422L297.931 46.5589L299.008 48.7593L299.268 53.9196L300.157 54.497L300.053 58.8926L301.109 60.3076L303.58 72.1783L308.022 85.3756L311.752 91.4567L310.306 95.4829L312.657 101.897L311.711 103L312.408 114.787L305.947 120.301L302.888 120.317L297.629 123.09L293.998 127.392L288.344 137.077L286.856 136.989L286.195 136.131L284.354 136.979L284.083 134.903L282.486 134.555L281.04 132.588L277.815 133.202L274.72 131.881L273.992 132.859L273.268 131.454L269.253 131.413L268.067 129.847L268.42 127.73L267.099 126.783L267.588 124.718L265.393 121.399L263.348 119.974L265.58 117.638L265.289 110.61L263.052 110.189L263.12 111.031L261.413 112.155L260.987 111.021L259.837 111.13L258.682 108.061L260.165 108.03L260.612 107.073L259.624 107.286L259.364 105.408L257.788 105.341L257.652 106.828L252.081 107.239L250.64 103.926L251.743 102.812L250.552 101.626H250.822L247.056 99.1659L247.618 97.2828L248.955 97.6521L248.393 96.7626L248.96 95.9355L246.65 96.4921L244.762 93.6467L242.416 93.9328L241.214 92.4866L241.521 91.0353L240.372 88.7309L240.959 88.3667L238.946 85.6721L240.018 85.8646L239.518 84.6369L240.335 82.9775L240.314 83.1908L242.478 83.2272L241.069 81.9788L239.83 82.1764L240.814 80.2829L238.983 78.0877L239.409 77.1254L238.057 75.0498H238.296L238.119 74.2695L238.494 74.2903L240.975 73.6193L246.499 75.4712L248.497 72.7714L250.593 72.0795L251.8 73.3332L262.256 64.8957L264.295 63.5275L265.824 64.4691L265.533 62.7525L267.219 62.664L269.455 60.7133L270.163 61.6132L270.839 59.5897L271.391 59.9538L271.791 59.7458L273.711 58.2476L274.184 55.3813L276.197 53.0301L275.817 50.3875L272.207 44.3637L270.439 43.2505L271.203 40.9616L269.851 38.3711L268.42 38.626L265.996 35.5464L267.369 33.2732L270.74 32.2224L271.24 31.1924L273.144 31.6034L275.542 30.6878L276.525 27.962L275.932 26.7812L277.42 24.4819L278.372 24.3467Z" fill="#CCCCCC" stroke="white" stroke-width="0.5"/>
<path d="M133.264 1L145.145 8.07981L149.967 12.4858L149.582 14.3481L146.227 9.20343L137.269 3.62177L136.38 6.83135L138.83 8.76127L138.778 12.1737L140.281 11.716L140.182 13.4222L141.873 16.6578L141.249 17.3756L139.917 16.9283L141.623 17.7138L141.79 21.9013L143.771 24.0653L146.887 24.5127L145.805 24.8456L147.174 26.1929L152.36 27.7223L153.801 26.6403L155.689 27.8159L162.28 27.3529L169.084 25.7299L176.205 22.125L168.673 26.6559L162.753 28.2945L163.856 29.5481L163.96 31.6549L165.89 35.083L163.601 36.9661L164.283 38.1157L162.691 42.683L165.006 43.7338L164.413 44.6389L165.011 45.6013L166.02 45.1123L168.777 46.5428L167.934 48.145L168.704 49.7992L174.463 48.5456L172.907 52.4626V52.6343L170.806 56.3276L171.461 56.8842L170.905 58.4188L169.792 56.749L166.847 55.9895L165.698 56.6189L165.188 60.0626L162.738 62.6792L162.654 65.3686L161.463 65.4466L159.944 67.2101L160.178 68.729L155.382 68.1048L152.532 69.1088L152.62 68.1568L148.271 67.5898L147.314 65.5923L148.261 62.5595L147.049 63.4022L144.593 62.8092L143.787 63.9589L142.128 63.7612L142.388 64.7235L141.394 64.9524L140.151 63.5947L140.281 62.315L138.85 62.4191L138.481 63.2826L132.249 62.4867L132.379 60.2187L130.215 60.1458V59.5788L129.211 60.2447L128.644 58.9858L127.38 59.4228L126.163 58.1327L123.952 61.2955L122.09 59.5268L119.333 59.2511L120.347 61.9301L118.006 63.2618L115.681 63.0329L114.469 66.1385L114.994 67.6938L112.955 67.7875L113.434 69.3168L111.41 67.9383L110.344 68.9163L108.768 68.5574L108.326 66.6691L105.485 68.7706L104.533 73.7489L102.812 73.135L102.687 73.0882L101.761 71.6993L99.7581 71.408L99.0714 71.4392L97.2559 71.8034L95.1439 70.9554L93.7758 72.2819L92.1112 72.2923L92.1216 70.5757L90.5038 70.8774L88.7144 64.838L87.5856 60.0626L90.327 57.2744L88.0173 55.5578L88.0329 53.6018L88.73 52.9308L91.1489 53.3105L91.5702 51.5315L88.2098 49.6328L88.1422 47.7393L87.081 46.522L86.2799 46.1007L85.8845 47.4375L85.5152 47.4688L85.3331 44.9094L85.5516 44.6441L86.1914 42.5113L85.2083 41.0704L85.8949 40.1393L83.0547 34.8853L83.5541 33.7877L87.4711 32.3052L87.8196 31.0879L86.2227 29.21L85.973 26.6299L87.3775 26.2709L87.159 22.2707L86.4099 20.5384L84.8858 19.909L83.424 15.6486L88.8912 14.2389L93.5678 10.1554L100.367 6.61808L122.366 1.30691L133.264 1Z" fill="#CCCCCC" stroke="white" stroke-width="0.5"/>
<path d="M144.994 199.854L151.06 198.772L151.871 199.588L153.005 197.653L154.035 197.481L157.765 200.691L158.816 200.389L159.887 202.075L160.787 201.674L162.675 203.204L164.075 202.35L163.862 200.93L165.885 200.264L165.615 201.419L166.879 202.964L168.127 201.971L168.798 202.408L170.91 205.487L171.482 208.203L174.385 207.173L176.913 208.478L177.106 210.039L179.483 209.472L182.23 211.589L182.115 212.338L180.955 211.849L179.561 214.96L178.058 214.554L178.801 216.625L182.516 217.046L183.598 217.946L182.698 218.523L182.781 219.688L184.929 220.016L184.596 221.561L182.895 221.65L180.633 224.927L184.222 225.671L184.586 227.018L185.782 227.403L186.469 228.88L184.185 228.953L184.144 229.936L182.666 230.659L178.214 230.384L176.58 231.887L174.51 232.267L172.502 231.7L171.42 232.73L171.68 234.093L170.374 233.791L170.208 233.843L171.493 234.816L171.264 236.376L167.31 236.579L165.537 237.973L166.093 239.555L169.318 241.167L168.965 242.275L166.66 243.16L167.347 243.997L166.551 245.126L164.413 245.428L163.862 246.884L163.716 245.901H163.544L162.332 248.648L162.951 249.1L160.933 249.428L159.128 252.466L159.247 254.188L158.264 254.812L159.383 255.374H159.773L160.335 255.353H160.673L161.833 254.614L162.421 255.119L161.271 259.171L165.115 258.854L166.145 262.87L169.927 263.478L170.275 265.153L167.877 267.411L170.978 268.675L170.546 271.427L167.456 273.591L167.113 275.136L163.976 275.349L162.806 279.11L161.604 280.02L161.796 281.186L159.502 281.623L157.994 280.931L156.756 281.981L154.992 282.002L154.743 276.728L150.43 275.765L151.127 274.47L149.489 268.28L147.408 268.316L146.362 266.917L143.709 266.038L141.967 260.877L143.064 259.228L141.816 258.308L142.034 256.284L139.381 257.137L137.503 255.462L134.445 254.942L135.038 255.639L133.982 256.596L132.655 254.162L130.668 253.792L130.413 252.507L128.738 253.282L127.531 252.684L126.683 250.26L124.936 249.183L126.174 246.978L125.83 243.737L127.079 243.43L127.37 244.143L127.713 243.414L131.781 242.712L131.584 242.728L131.365 241.802L135.069 239.659L137.42 240.168L137.269 238.956L136.369 238.816L136.754 236.413L135.23 234.784L136.38 233.182L135.433 231.689L136.193 230.633L135.922 228.433L139.163 229.661L137.68 225.421L143.111 225.176L142.955 222.43L140.817 221.504L139.402 217.608L142.336 215.423L140.094 212.723L141.644 212.338L142.029 210.741L143.73 209.394L144.422 206.543L143.506 204.598L144.718 203.734L144.682 202.215L145.946 201.57L144.994 199.854Z" fill="#CCCCCC" stroke="white" stroke-width="0.5"/>
<path d="M200.978 184.867L203.803 185.304L203.121 186.813L204.484 187.78L204.958 190.719L206.617 190.21L209.556 192.753L209.187 195.058L210.196 193.924L214.618 196.244L214.654 195.422L215.7 195.828L215.819 194.023L217.463 195.328L218.649 194.22L219.071 195.297L220.985 194.662L221.755 191.791L222.915 193.18L222.004 194.824L224.319 196.093L223.971 198.533L230.296 198.304L231.285 200.551L233.849 201.966L235.483 200.723L235.327 199.708L236.414 200.197L239.155 199.381L238.567 198.819L240.586 198.736L241.626 200.567L243.093 200.691L244.752 199.214L245.876 210.622L246.703 212.146L244.154 220.599L243.161 220.058L240.513 222.238L238.167 226.743L233.402 228.028L233.319 229.755L229.089 231.471L226.156 234.629L225.895 234.816L225.765 234.832L224.735 236.064L223.399 234.842L220.98 236.736L215.752 237.266L213.915 238.91L212.449 238.109L208.896 241.953L200.625 242.931L200.479 242.068L199.334 241.932L200.047 240.601L198.252 238.9L199.069 237.849L196.869 236.252L196.775 234.925L198.169 234.306L196.047 230.935L196.031 229.172L186.99 226.68L185.783 227.403L184.587 227.018L184.223 225.671L180.634 224.927L182.896 221.65L184.597 221.562L184.93 220.017L182.782 219.689L182.699 218.524L183.599 217.946L182.517 217.046L178.802 216.625L178.059 214.555L179.562 214.96L180.956 211.85L182.116 212.339L182.231 211.589L179.484 209.472L180.753 207.724L180.712 207.6L181.253 207.537L181.497 207.355L182.033 206.793L182.08 206.798L182.522 206.07V205.566L182.064 203.308L183.573 199.63L186.304 202.824L188.488 203.953L189.42 199.152L186.99 198.392L186.938 195.224L188.249 194.017L187.568 192.426L189.061 191.781L192.244 193.05L193.071 192.155L194.996 192.337L195.745 191.822L195.032 189.741L195.599 189.565L196.994 190.475L197.888 189.627L199.126 190.673L199.839 189.013L199.168 186.938L200.531 186.433L200.978 184.867Z" fill="#CCCCCC" stroke="white" stroke-width="0.5"/>
<path d="M182.567 22.8945L207.417 26.7752L233.348 29.475L275.931 26.7804L276.524 27.9612L275.541 30.687L273.143 31.6025L271.239 31.1916L270.74 32.2216L267.369 33.2724L265.996 35.5456L268.42 38.6251L269.85 38.3702L271.203 40.9608L270.438 43.2496L272.207 44.3629L275.817 50.3867L276.197 53.0293L274.183 55.3805L273.71 58.2468L271.791 59.7449L271.39 59.953L270.839 59.5889L270.162 61.6124L269.455 60.7125L267.218 62.6632L265.533 62.7516L265.824 64.4683L264.295 63.5267L262.255 64.8948L251.8 73.3324L250.593 72.0787L248.496 72.7705L246.499 75.4703L240.974 73.6185L238.493 74.2895L238.118 74.2687L233.442 75.075L233.286 76.3131L230.617 77.4159L227.839 76.8749L220.827 82.0144L219.043 80.4954L217.061 80.6775L216.218 81.3537L216.733 82.8051L215.079 82.6854L214.393 84.272L210.195 83.2212L208.239 86.4568L204.951 87.8509L201.861 86.7481L199.343 88.6988L199.687 91.1385L197.429 92.4754L192.997 91.5495L191.858 92.1061L190.599 90.9461L186.833 91.9656L184.664 90.5247L184.95 88.73L184.804 88.4439L182.146 90.0149L182.489 92.0905L179.8 91.6847L179.03 88.9745H179.196L179.15 87.7261L177.506 87.3411L177.355 86.0875L178.796 85.3696L177.391 81.3849L172.642 81.7855L171.898 79.8556L169.854 80.2561L169.937 79.3094L167.939 77.6135L165.703 77.8164L165.271 78.9088L164.282 78.1962L162.103 72.5365L161.957 69.5194L160.178 68.7235L159.949 67.1993L161.468 65.4358L162.659 65.3578L162.743 62.6684L165.193 60.0466L165.708 56.6082L166.852 55.9787L169.796 56.7434L170.91 58.408L171.466 56.8735L170.811 56.3169L172.912 52.6235V52.4518L174.463 48.5348L168.704 49.7885L167.934 48.1343L168.777 46.5373L166.015 45.1067L165.005 45.5957L164.407 44.6386L165 43.7334L162.685 42.6774L164.277 38.1101L163.596 36.9657L165.885 35.0774L163.96 31.6546L167.57 32.1904L168.465 31.1708L167.065 34.3388L167.612 34.6353L168.257 32.2684L171.388 29.1628L176.949 27.2277L179.389 23.0714L182.567 22.8945Z" fill="#CCCCCC" stroke="white" stroke-width="0.5"/>
<path d="M88.7203 64.8271L90.5045 70.8666L92.1275 70.5597L92.1171 72.2763L93.7818 72.2659L95.1499 70.9394L97.2618 71.7873L99.0773 71.4232L99.764 71.392L101.762 71.6885L102.687 73.0774L102.812 73.1242L104.534 73.738L99.9356 79.6838L100.555 81.4837L101.023 80.7346L102.838 81.3432L105.98 85.5412L105.21 87.6688L102.344 88.3242L103.197 89.0941L102.864 91.5338L104.539 92.2153L103.296 92.8395L103.634 94.8995L102.412 95.6485L102.641 98.7281L102.485 98.7593L101.715 99.8829L102.183 101.017L104.685 100.544L108.576 103.441L108.108 110.755L105.101 110.921L104.929 112.44L107.556 113.897L107.057 116.352L108.711 116.8L110.48 115.109L112.16 114.885L112.113 117.814L113.747 118.038L113.658 120.514L116.342 117.59L116.556 118.787L117.274 117.58L118.72 118.703L119.916 118.417L121.399 121.341L122.018 120.815L123.043 122.35L123.729 121.783L123.48 123.588L126.897 123.099L126.798 124.847L130.091 125.612L130.346 126.746L132.141 126.844L135.532 123.666L136.177 127.443L138.581 127.12L139.418 125.664L140.469 125.95L141.65 127.817L142.685 127.531L144.469 128.441L144.729 129.914L145.567 129.586L145.452 131.063L146.592 131.178L147.825 134.517L152.839 132.79L153.141 131.042L154.842 132.322L154.644 133.316L157.094 134.533L156.579 137.68L158.795 137.966L158.946 139.235L157.89 139.948L158.442 141.051L155.404 140.203L153.344 141.025L152.714 144L153.843 145.041L153.318 147.064L150.576 147.132L150.124 148.536L147.424 147.616L146.425 148.23L146.852 153.208L148.964 155.159L146.009 158.649L145.718 160.719L142.753 159.606L140.24 160.215L139.845 159.055L138.888 159.372L138.789 160.964L137.795 160.725L137.946 161.843L136.963 162.514L137.566 163.835L136.718 164.704L136.942 166.785L135.106 169.126L135.995 169.511L134.939 172.086L135.855 172.439L135.205 175.571L135.964 178.526L134.221 181.392L131.407 179.748L129.951 180.159L130.7 181.184L130.299 182.703L128.515 182.9L127.953 184.346L126.517 184.612L127.485 189.163L129.711 188.867L128.947 193.772L120.249 197.33L118.184 196.545L119.146 193.746L117.534 192.935L115.843 190.193L115.947 185.803L114.792 185.179L115.723 181.673L109.512 182.214L108.378 177.059L110.527 175.384L109.778 173.474V173.058L106.995 170.905L101.579 169.88L98.9681 170.733L98.6143 173.896L95.54 173.485L94.1667 173.937L94.0262 174.993L90.9467 175.019L85.6928 172.221L84.7044 169.849L80.6313 169.198L81.4064 166.769L80.262 164.574L77.7338 162.847L73.7127 162.805L72.5631 159.398L69.7229 157.005L68.1623 156.589L66.7318 158.415L65.4885 157.291L63.5742 157.187L64.7238 155.564L64.2661 152.089L60.9316 153.052L59.0329 150.534L59.9849 149.202L59.7092 148.021L58.5387 147.48L57.8729 148.37L55.6517 146.04L56.614 144.266L55.8181 138.263L57.3579 131.583L54.4708 129.097L54.8766 128.187L55.5997 129.596L57.2123 128.561L56.6765 126.298L55.0066 124.634L55.7505 123.344L53.5293 120.15L54.6997 116.638L54.0963 114.87L58.6064 113.819L58.2734 110.079L56.9209 109.491L57.3475 108.206L59.5687 107.134L59.1578 101.548L59.0693 101.485L58.8249 99.8829V99.706L59.137 97.542L64.0528 99.3055L68.7501 97.053L70.3367 97.464L69.957 96.9282L71.814 95.1179L71.2418 93.0736L72.6672 92.5378L73.281 90.2593L73.952 91.0344L75.2525 89.5831L76.5842 89.9888L77.1616 87.5387L78.0459 87.7884L78.1084 86.9301L80.5897 88.0121L80.288 85.1771L82.8421 83.0755L80.4857 80.8543L78.072 80.1936L76.4125 78.6226L75.4554 78.9296L74.5867 74.5131L74.8156 73.9201L75.9756 74.794L80.985 73.9565L83.2843 72.0786L84.2674 66.7102L86.5095 65.5658L87.1181 66.5282L88.7203 64.8271Z" fill="#CCCCCC" stroke="white" stroke-width="0.5"/>
<path d="M6.69123 54.0493L9.18295 54.3406L7.63278 55.4591L7.64318 56.7127L5.7965 54.0597L6.69123 54.0493ZM9.76037 53.9557L10.0569 54.6528L8.99048 55.1573L9.76037 53.9557ZM7.35188 53.4303L8.24661 54.1846L6.79007 54.1742L7.35188 53.4303ZM8.48589 52.7749L8.43908 54.0545L7.80444 53.165L8.48589 52.7749ZM4.75092 50.5693L5.69246 50.4808L4.65208 51.8177L7.56515 56.7543L3.60129 53.5812L3.64811 51.7813L2.72217 51.105L4.75092 50.5693ZM20.8613 48.2388L20.8405 49.0035L19.1654 49.1699L19.3891 47.5729L20.8613 48.2388ZM21.1838 45.3673L18.8949 46.751L18.9261 49.8046L16.9806 52.1194L15.5345 57.1081L14.8687 54.4031L10.3898 53.7008L10.6811 51.62L10.3274 52.5928L9.01649 52.161L6.03059 53.9661L6.45715 53.3315L4.9746 51.9842L5.87453 50.6317L9.45345 50.8554L12.637 48.4157L21.1838 45.3673ZM83.4248 15.6436L84.8865 19.9039L86.4107 20.5334L87.1598 22.2656L87.3782 26.2659L85.9737 26.6248L86.2234 29.205L87.8204 31.0829L87.4719 32.3001L83.5548 33.7827L83.0554 34.8803L85.8957 40.1342L85.209 41.0653L86.1922 42.5063L85.5523 44.6391L85.3339 44.9044L85.5159 47.4637L85.8853 47.4325L86.2806 46.0956L87.0817 46.517L88.1429 47.7342L88.2105 49.6277L91.571 51.5264L91.1496 53.3055L88.7307 52.9257L88.0337 53.5968L88.0181 55.5527L90.3277 57.2693L87.5863 60.0576L88.7151 64.8329L87.1129 66.5339L86.5043 65.5716L84.2675 66.716L83.2791 72.0896L80.9851 73.9623L75.9756 74.805L74.8156 73.9259L74.5815 74.5241L75.4554 78.9353L76.4126 78.6336L78.072 80.1994L80.4857 80.8652L82.837 83.0813L80.2828 85.1828L80.5897 88.0179L78.1084 86.9307L78.046 87.789L77.1617 87.5393L76.579 89.9894L75.2525 89.5889L73.9521 91.035L73.281 90.2599L72.6672 92.5435L71.2471 93.0793L71.8193 95.1289L69.957 96.9392L70.3419 97.475L68.7502 97.064L64.0528 99.3113L59.137 97.553L59.9173 94.255L55.6933 93.2458L55.917 94.4683L54.3096 95.1809L54.5905 96.2057L53.2796 96.471L54.1536 97.5894L52.4629 98.2761L52.9779 99.3581L51.7867 100.029L50.533 99.3945L49.1597 100.555L46.1946 98.8951L41.9394 100.362L40.2072 102.334L37.8403 101.808L38.9587 105.179L31.1871 108.498L30.0375 107.182L28.7058 108.118L25.9591 105.84L24.898 107.27L25.9643 108.264L23.946 108.893L24.3518 110.459L22.2866 112.124L20.596 118.121L19.4203 118.87L16.9702 117.539L15.883 118.46L15.9194 120.327L11.5862 117.461L8.01252 112.805L3.78336 109.361L0.740234 108.201L1.94188 105.772L1.42169 101.746L7.76803 96.9548L9.12053 92.2731L8.79281 89.1831L11.0348 85.8279L9.79158 83.4194L8.06974 73.6502L6.5976 70.8724L6.89931 66.9449L5.85892 66.0294L5.28671 62.6429L6.63401 62.3152L5.91094 60.2136L7.38829 60.6818L9.80198 63.6209L12.8451 64.2555L15.831 68.1049L16.5229 64.8901L14.9831 64.8173L13.9687 62.3256L14.8374 59.1004L16.4032 58.8455L16.1119 55.9428L17.5372 52.0206L19.8313 49.6381L20.9497 50.46L21.0901 47.9891L21.8288 47.781L21.1318 46.725L22.401 44.8055L19.9249 45.2113L37.9496 38.4956L44.4884 37.424L55.5685 33.4705L63.4494 31.7123L68.7449 27.4831L77.016 17.2874L83.4248 15.6436Z" fill="#CCCCCC" stroke="white" stroke-width="0.5"/>
</svg>
