<svg width="607" height="302" viewBox="0 0 607 302" fill="none" xmlns="http://www.w3.org/2000/svg">
<path d="M211.305 141.327L211.74 140.437L213.361 139.696L214.676 137.896L216.614 136.878L217.405 137.066L217.513 138.549L218.215 138.608L218.146 139.844L219.965 140.111L221.072 141.169L222.061 141.228L223.494 140.14L225.877 140.783L228.684 140.417L229.544 138.806L231.156 137.511L231.62 133.922L229.198 131.827L228.694 130.887L228.566 129.464L229.455 127.862L228.625 124.205L229.08 123.72L229.752 124.126L230.869 124.007L232.203 122.317L232.984 119.479L234.813 118.669L235.406 118.698L236.266 119.578L237.571 119.657L238.254 119.341L240.339 119.736L245.203 118.975L246.291 119.4L247.605 118.679L248.999 119.193L250.947 117.305L254.575 116.286L256.591 117.216L257.214 118.768L257.283 120.972L255.692 122.317L255.899 122.92L262.74 121.832L264.797 117.374L269.809 111.591H276.471L278.103 111.175L281.701 109.248L284.756 109.653L286.248 108.625L287.642 109.445L289.184 109.495L291.399 110.325L292.18 111.353L294.898 113.321L296.361 113.864L299.446 116.365H302.451L307.176 114.635L308.679 116.415L310.478 115.318L311.684 115.278L313.958 113.845L316.291 113.934L316.894 114.774L318.011 115.209L322.726 114.556L330.744 114.922L333.255 113.509L335.143 115.466L340.362 115.95L341.569 117.463L350.396 118.748L352.314 117.433L353.827 114.873L356.002 116.909L357.524 116.702L358.819 117.097L361.577 120.142L363.04 120.606L361.656 121.239L360.579 125.134L356.199 129.157L356.407 132.786L355.527 133.646L356.357 134.298L356.96 136.888L354.519 138.47L354.39 139.429L354.667 141.515L355.507 141.772L355.201 143.749L355.675 144.895L357.722 144.609L362.061 148.316L363.119 150.59L364.394 151.766L365.858 155.097L367.162 156.165L366.154 158.083L366.53 161.424L367.054 162.363L366.49 162.947L366.53 163.728L368.507 164.696L370.771 164.212L371.423 165.675L372.758 165.893L372.165 169.076L369.891 173.554L369.901 175.373L369.051 176.974L367.696 178.151L367.162 181.028L368.092 182.451L367.884 184.359L368.388 185.13L368.715 184.656L369.476 185.1L370.039 184.893L370.049 186.02L370.593 186.534L370.316 187.107L373.895 187.008L376.03 186.326L376.989 185.624L378.432 183.291L379.638 182.926L380.281 184.962L381.823 184.942L383.543 184.043L384.472 184.784L384.492 185.486L385.125 186.86L384.225 187.799L382.881 188.195L382.06 190.033L379.51 192.475L379.193 193.859L379.727 194.937L379.589 196.518L378.056 198.594L378.897 200.453L378.768 201.056L376.465 203.25L376.02 204.437L374.31 206.463L374.893 207.323L374.033 208.747L371.038 211.643L370.632 212.464L370.82 213.541L370.504 213.205L370.089 213.472L369.802 215.874L367.845 215.795L368.359 217.11L365.581 217.585L362.882 215.479L360.806 214.629L359.363 215.133L360.223 216.033L359.481 217.506L358.255 217.931L356.792 217.713L357.257 219.226L354.084 219.671L353.362 219.147L351.761 219.295L350.752 218.642L349.665 218.899L349.457 219.582L350.169 220.511L349.437 223.388L346.205 225.908L344.663 227.935L343.664 227.787L342.804 228.676L342.597 229.161L343.684 229.695L343.635 230.031L341.776 230.96L341.015 232.255L340.491 232.413L339.789 231.405L338.721 230.96L335.904 231.751L334.738 232.354L334.362 233.184L333.008 232.749L331.831 234.667L330.457 234.904L328.925 237.9L325.91 238.483L324.98 239.086L325.297 237.287L326.453 235.616L324.931 232.71L323.715 232.917L322.825 232.126L320.868 232.018L320.364 230.713L319.108 233.204H318.179L316.815 232.008L315.332 233.283L315.233 234.272L313.948 234.509L312.781 232.858L313.384 232.334L313.562 231.385L315.154 229.853L314.442 228.152L313.315 228.409L312.534 227.065L310.864 226.195L310.389 225.157L308.857 224.762L307.75 224.9L306.544 226.857L304.616 227.114L303.41 226.64L301.818 225.157L300.77 221.045L299.713 220.699L298.447 221.223L296.678 219.433L294.256 221.312L293.593 222.527L292.723 222.893L291.241 224.584L289.837 224.979L287.85 226.373L287.019 225.908L285.517 226.907L285.724 228.943L283.52 231.692L284.034 235.033L282.185 236.881L282.512 239.462L281.256 241.894L281.652 243.139L280.623 244.019L279.585 243.95L279.437 245.729L278.795 245.848L277.944 244.661L277.905 243.09L276.709 242.941L274.524 245.116L272.082 245.808L270.56 244.414L269.314 244.681L269.205 245.195L267.693 244.691L265.953 245.136L264.876 244.612L261.781 245.037L259.953 246.095L259.142 247.212L256.74 247.874L256.196 249.762L255.395 250.395L253.972 249.871L253.023 248.902L251.935 248.794L249.731 249.594L244.047 247.35L243.266 247.42L242.544 248.645L241.11 248.754L239.203 247.499L238.54 247.607L238.214 248.29L236.168 249.624L234.863 248.29L233.568 248.675L231.452 246.777L231.432 244.256L232.51 243.752L232.886 242.141L235.07 240.579L236.879 237.791L236.474 235.428L235.12 233.362L235.911 232.828L236.207 230.871L237.265 229.922L236.514 229.131L237.443 228.103L235.1 226.492L233.518 228.409L232.213 228.835L231.077 228.409L230.77 228.874L226.845 230.209L225.887 229.319L224.601 231.434L223.652 229.873L222.743 229.606L222.11 231.375L222.891 233.688L218.492 233.441L215.121 232.512L214.172 231.543L211.859 230.802L211.256 231.148L211.374 232.433L211.028 232.68L209.308 232.354L208.755 229.289L209.763 227.965L210.524 228.133L212.175 226.195L210.079 222.992L210.149 222.201L210.999 222.152L211.048 221.737L209.644 220.017L210.327 218.118L211.493 217.14L213.193 216.576L213.134 213.433L214.241 210.467L213.599 208.282L212.304 208.124L211.582 206.908L211.394 204.358L209.941 200.374L207.628 199.138L207.104 199.346L206.175 197.151L204.148 195.273L204.336 194.195L203.15 193.147L201.617 193.197L200.085 195.461L198.246 196.726L198.503 197.299L197.712 198.268L197.03 198.357L197.169 199.672L196.131 200.057L196.21 202.163L195.488 202.904L193.432 204.269L193.106 203.438L191.287 203.033L190.575 203.933L187.866 205.297L185.019 204.298L183.368 206.878L181.905 208.203L181.401 209.459L180.887 209.063L181.006 208.203L180.106 207.215L179.958 206.117L178.9 204.427L178.762 198.061L179.068 196.825L180.086 195.935L180.156 194.749L181.876 190.547L181.065 189.509L180.877 187.453L179.434 187.374L181.876 183.687L180.65 183.835L181.371 180.138L180.64 178.803L180.314 179.07L179.206 178.526L177.694 178.517L176.784 178.882L176.557 179.94L175.391 179.752L175.826 177.676L177.299 176.263L177.19 175.274L176.409 174.226L176.211 172.239L176.705 168.631L178.376 168.562L181.391 169.372L185.148 169.333L186.215 168.394L187.412 168.265L187.876 167.118L187.748 165.428L188.529 164.093L189.903 163.174L191.85 159.319L193.491 157.638L195.488 158.666L196.971 159.022L198.039 158.765L200.134 159.734L200.312 158.429L199.828 156.313L202.655 154.02L203.733 149.304L204.929 148.326L206.629 148.889L208.043 147.93L209.496 145.647L210.682 142.622L211.315 142.137L211.305 141.327Z" fill="#CCCCCC" stroke="white" stroke-width="0.5"/>
<path d="M13.1975 174.493L16.1434 174.513L16.351 172.813L19.6034 172.447L22.9546 171.063L23.2512 171.607L24.7143 171.725V171.112L23.5972 169.808L23.7059 169.175L27.6108 171.528L29.6472 170.381L30.3491 171.775L31.2981 172.032L38.5839 170.391L41.1739 168.997L43.6157 168.562L44.1297 166.773L46.5616 165.24L53.3135 155.256L54.8062 156.581L56.2792 157.203L57.6236 159.863L57.8411 161.593L57.4556 162.443L55.7651 163.461L54.48 165.497L52.4534 165.656L51.7219 168.275L47.8269 170.954L47.5007 171.953L50.8223 174.315L51.2672 176.273L53.4123 176.609L53.4815 178.003L55.3994 178.912L55.1819 179.624L54.3811 180.138L54.4701 181.146L53.9066 182.392L52.0185 183.044L51.9888 183.727L50.9212 185.13L51.0892 185.832L52.5721 187.562L55.3499 187.691L57.07 189.559L60.3521 189.589L59.8281 192.624L61.5087 192.861L61.4593 194.176L62.8828 194.808L64.2767 199.702L64.85 200.433L66.5504 199.771L68.4089 201.531L69.0218 203.933L67.4796 207.887L66.2538 208.431L67.3511 209.548L66.7679 211.139L67.8652 211.248L68.4286 212.514L70.1784 213.917L70.6332 214.105L71.7502 213.225L73.0749 214.738L69.6347 219.068L68.6659 222.765L69.2689 223.398L70.6332 223.526L73.589 224.92V225.978L72.3335 227.777L72.5015 228.489L73.6878 229.033L73.7867 231.573L73.4209 232.146L71.9183 232.305L71.5822 233.135L69.8324 233.204L68.7054 234.351L67.9344 236.091L65.028 237.129L63.1398 235.854L61.4988 235.775L61.5878 233.501L59.6601 232.868L58.3848 234.005L58.8396 235.705L59.9171 236.308L58.8198 238.206L57.7027 237.92L54.8556 240.154L54.2131 239.936L52.6017 240.895L51.3759 240.144L50.763 240.253L50.5752 240.994L51.0694 241.587L50.7333 243.179L51.5242 244.682L52.6314 245.512H53.5804L54.6579 244.217L55.7651 244.8L55.8343 245.591L54.3712 245.888L53.8869 248.903L51.8405 249.199L50.8322 248.171L50.3082 248.379L50.4269 249.901L51.0991 251.167L48.43 252.521L46.9076 254.577L45.9388 254.617L46.0475 255.655L44.9008 256.861L44.4263 255.398L42.6469 256.327L40.0469 255.793L35.8356 257.81L33.7201 255.556L32.1977 255.506L30.7248 254.033L28.5104 255.615L26.2169 253.934L28.0457 251.779L27.6899 250.949L26.1279 250.267L27.9568 248.596L26.5926 247.766L27.2351 246.58L26.6618 245.779L28.629 244.444L28.1545 243.673L28.5993 243.199L26.9089 242.091L26.4739 241.508L26.8002 240.806L26.039 240.658L25.3074 239.719L25.9401 239.304L24.6747 236.328L22.9645 236.832L21.7189 236.654L18.2491 233.214L16.1533 231.8L16.2027 229.21L14.7693 223.704L13.2766 221.519L14.3146 217.16L13.2667 216.191L10.8348 215.845L9.25311 213.393L9.68808 212.711L9.16414 212.968L7.82958 209.983L8.85769 209.805L8.30409 209.063L9.18392 207.333L5.36805 205.435L5.42737 203.765L3.25252 203.874L2.25407 203.093L2.0959 200.265L1.27539 198.595L1.52253 198.229L3.07458 198.249L3.09435 196.993L3.90498 195.392L3.27229 195.036L3.13389 193.78L4.33994 192.515L3.33161 190.577L3.04492 187.879L4.40914 187.107L4.03349 186.356L4.44869 185.259L5.32851 184.893L5.86233 183.845L7.86912 182.165L7.34518 181.166L7.69118 180.435L8.69952 180.01L9.51014 180.543L10.1132 180.375L9.59911 177.795L10.5382 177.597L10.4097 176.579L11.4576 175.937L11.6949 176.382L12.7922 176.342L12.5549 175.255L13.1975 174.493Z" fill="#CCCCCC" stroke="white" stroke-width="0.5"/>
<path d="M363.041 120.607L364.8 122.03L366.273 121.625L366.51 120.123L365.977 119.519L365.947 118.462L366.698 117.335L366.738 113.272L368.132 112.412L368.29 111.868L368.191 110.939L367.094 110.118L366.856 109.238L370.405 105.551L371.641 105.116L372.303 104.137L373.786 103.208L375.704 102.714L377.286 100.707L380.825 102.17L383.939 104.385L385.105 105.729L386.964 106.451L387.814 107.38L389.465 107.429L386.054 103.08L386.529 101.735L388.951 99.4121L389.603 99.8273L390.75 102.141L392.717 103.801L392.974 104.879L395.416 106.194L396.662 105.452L399.044 105.274L402.633 110.978L403.572 111.176L405.677 112.777L405.331 111.878L405.638 109.525L406.834 108.497L406.814 106.994L407.279 106.579L410.511 105.492L411.292 105.788L412.232 107.647L414.387 106.016L414.93 106.302L415.415 107.637L416.156 107.696L417.263 106.915L417.451 106.629L416.304 104.928L416.423 103.623L415.405 102.328L415.939 101.893L417.125 102.635L418.341 102.734L420.565 104.394L423.452 103.287L423.254 104.128L421.425 105.344L422.177 106.164L423.729 106.144L424.015 106.846L429.739 105.037L432.072 105.66L433.802 106.925L435.028 109.505L435.542 109.733L438.567 107.459L440.949 111.433L442.501 112.343L442.936 115.13L447.375 115.387L450.361 116.603L453.346 116.811L454.72 115.466L455.63 116.267L457.271 116.761L458.21 119.193L459.791 120.666L461.759 118.59L464.398 120.142L464.685 119.213L466.01 119.262L465.95 121.052L468.105 120.123L468.639 121.862L467.028 127.369L468.293 128.931L470.715 130.374L472.682 129.494L472.584 127.685L474.027 126.39L474.867 126.044L475.856 126.667L476.785 125.836L479.83 125.846L480.166 124.67L481.125 123.711L481.016 121.338L481.332 120.953L480.621 119.243L481.075 118.729L482.746 118.304L484.802 120.192L485.119 116.702L485.722 117.592L486.285 120.271L488.48 120.666L489.073 120.38V119.628L490.299 119.44L492.137 118.027L492.207 120.904L493.472 121.23L494.075 121.912L493.057 123.068L493.215 124.472L494.431 126.024L495.983 126.795L496.863 128.555L496.645 130.325L497.93 132.529L501.677 133.508L502.418 134.219L502.32 135.178L504.247 135.119L506.481 136.454L510.653 135.169L511.76 136.839L513.461 138.194L515.863 137.818L520.025 135.534L520.994 135.633L521.003 136.375L521.567 133.923L523.495 133.31L525.541 131.59L525.739 129.88L524.631 128.219L523.949 118.363L524.315 116.158L525.403 115.387L527.113 115.595L528.19 117.582L528.813 117.325L529.416 117.76L530.187 117.216L532.026 116.989L537.364 119.065L540.172 120.983L542.01 124.077L545.638 124.462L546.38 125.846L549.879 125.866L554.259 124.858L560.358 124.967L560.803 124.156L560.507 118.778L561.307 117.898L563.265 117.117L564.204 114.972L567.258 111.868L570.62 112.293L571.756 113.094L572.794 117.374L573.813 118.847L574.07 121.21L579.141 121.032L581.316 120.152L582.957 121.032L586.417 121.2L587.139 121.704L586.219 126.43L587.139 128.426L587.415 132.005L586.585 132.895L585.992 134.585L583.283 137.304L582.809 139.874L584.677 141.357L584.717 143.403L583.629 144.629L582.423 150.501L578.587 151.737L576.027 154.287L573.111 156.393L572.389 158.904L570.906 160.387L569.255 160.436L567.782 162.344H566.586L566.507 163.313L565.845 163.432L563.789 168.038L563.037 176.708L561.1 190.271L561.327 194.067L561.802 195.234L562.79 195.194L562.385 196.43L560.378 197.152L560.902 198.802H559.676L559.281 199.247L558.391 198.951L557.185 199.544L556.671 198.694L555.692 200.147L555.406 198.704L554.605 197.883L554.259 198.674L552.855 198.536L552.45 199.307L549.504 196.934L548.219 198.219L545.382 199.04L545.016 199.504L544.828 198.931L541.081 199.139L539.529 200.355L538.906 200.295L539.371 201.017L538.827 201.818L537.878 201.61L536.919 200.701L535.931 201.294L535.664 200.483L535.614 201.659L535.081 201.59L535.298 200.75L534.754 200.453L534.122 201.224L534.626 202.302L534.132 202.529L534.151 201.768L533.766 201.689L533.351 202.648L532.54 202.322L532.194 203.034L531.68 202.767L531.413 201.333L529.436 201.323L529.05 201.818L528.971 205.93L527.874 206.513L527.192 206.543L527.33 205.851L525.897 205.663L525.452 204.991L521.962 205.228L521.092 204.348L517.692 203.795L516.239 202.885L516.446 201.086L515.675 201.116L515.082 200.434L515.685 199.376L515.23 198.516L513.085 197.25L511.889 197.507L510.93 196.272L510.792 193.049L510.495 193.178L508.814 188.343L508.014 187.958L507.351 186.722L507.598 186.139L506.62 184.814L506.916 184.023L506.501 183.806L506.659 181.008L506.323 180.138L505.809 180.227L505.611 178.211L504.732 178.567L503.476 177.578L502.695 177.963L502.033 179.219L500.698 179.021L500.145 178.003L499.384 178.567L498.197 178.576L497.95 177.578L496.467 176.263L495.321 173.574L495.35 171.904L494.47 171.587L494.411 171.044H493.798L493.65 170.223L492.345 170.47L491.722 169.462L491.04 169.571L489.696 168.167L488.42 167.87L487.303 166.18L486.255 166.338L485.583 167.178L485.346 169.857L484.773 170.411L483.112 169.65L480.818 170.47L477.773 170.183L474.956 170.599L474.818 170.065L474.343 170.836L475.411 171.162L474.155 171.617L474.897 172.368L474.442 173.574L473.72 173.466L474.314 174.622L473.048 175.453L473.196 176.164L472.238 176.303L469.608 175.354L469.133 175.719L466.197 173.545L465.515 173.604L465.456 174.355L464.23 173.831L463.785 174.701L462.955 174.464L462.975 175.453L461.561 176.006L461.215 175.7L461.106 176.194L460.632 175.878L459.851 176.876L459.099 176.184L456.737 177.212L454.859 180.801L453.692 181.107L452.535 180.959L451.497 180.069L451.408 178.102L450.825 177.074L448.947 176.461L447.85 175.611L446.505 176.322L446.495 175.512L445.685 175.769L444.538 175.482L443.796 174.77L443.411 175.146L442.452 174.672L440.218 175.611L439.032 177.034L438.27 176.135L437.371 176.589L436.481 176.214L436.353 174.513L434.86 174.207L434.712 173.129L434.01 173.732L433.337 171.538L432.299 170.618L428.276 171.696L426.852 171.607L425.34 169.571L424.856 169.66V167.505L423.946 167.752L424.638 166.516L420.427 167.949L413.161 168.76L412.696 169.422L412.113 168.79L410.442 168.76L407.378 170.223L404.6 170.302L403.532 171.567L403.147 171.162L402.445 171.854L401.061 172.131L400.359 173.08L398.846 173.07L397.63 173.683L397.294 174.385L393.271 172.823L392.213 175.433L391.076 175.008L390.365 173.999L389.208 174.415L388.457 175.324L388.555 176.797L389.366 177.716L388.951 178.754L389.079 181.532L387.735 181.819L386.608 184.132L384.492 185.487L384.473 184.785L383.543 184.043L381.823 184.943L380.281 184.963L379.639 182.926L378.433 183.292L376.989 185.625L376.03 186.327L373.895 187.009L370.316 187.108L370.593 186.534L370.049 186.02L370.04 184.893L369.476 185.101L368.715 184.656L368.389 185.131L367.885 184.36L368.092 182.452L367.163 181.028L367.697 178.151L369.051 176.975L369.901 175.373L369.891 173.555L372.165 169.076L372.758 165.893L371.424 165.676L370.771 164.213L368.507 164.697L366.53 163.728L366.402 163.175L367.054 162.364L366.53 161.425L366.155 158.083L367.163 156.166L365.858 155.098L364.395 151.767L363.12 150.59L362.062 148.316L357.722 144.609L355.676 144.896L355.201 143.749L355.508 141.772L354.667 141.515L354.391 139.429L354.519 138.47L356.961 136.889L356.358 134.299L355.527 133.646L356.407 132.786L356.2 129.158L360.579 125.135L361.657 121.24L363.041 120.607Z" fill="#CCCCCC" stroke="white" stroke-width="0.5"/>
<path d="M121.762 161.227L123.225 160.703L123.749 159.764L124.549 159.922L125.686 158.904L126.012 157.757L125.963 155.246L125.241 154.673L124.401 151.707L123.64 151.005L123.136 147.565L124.549 146.112L125.864 145.983L127.05 147.417L131.964 147.308L133.872 148.405L135.315 147.901L138.824 151.104L140.179 155.375L141.82 156.966L143.223 156.195L144.805 157.045L145.883 156.769L147.138 157.441L148.562 161.435L149.698 163.125L149.392 164.984L147 167.297L148.621 168.631L147.791 169.58L147.761 170.618L148.117 171.123L151.221 171.083L152.377 172.002L154.355 175.354L155.887 177.005L156.411 179.595L157.063 180.504L160.197 181.453L161.067 180.929L161.334 179.703L161.65 180.988L163.005 182.244L163.449 180.702L165.387 179.595L168.59 176.342L171.417 175.018L174.284 172.339L176.212 172.24L176.41 174.227L177.19 175.275L177.299 176.263L175.826 177.677L175.391 179.753L176.558 179.941L176.785 178.883L177.695 178.517L179.207 178.527L180.314 179.071L180.641 178.804L181.372 180.138L180.65 183.836L181.876 183.687L179.435 187.375L180.878 187.454L181.066 189.51L181.876 190.548L180.156 194.749L180.087 195.936L179.069 196.825L178.762 198.061L178.901 204.427L179.958 206.118L180.107 207.215L181.006 208.204L180.888 209.064L181.402 209.459L181.906 208.204L183.369 206.879L185.02 204.299L187.867 205.297L190.576 203.933L191.287 203.034L193.106 203.439L193.433 204.269L195.489 202.905L196.21 202.164L196.131 200.058L197.169 199.672L197.031 198.358L197.713 198.269L198.504 197.3L198.247 196.726L200.086 195.461L201.618 193.197L203.15 193.148L204.336 194.196L204.149 195.273L206.175 197.152L207.104 199.346L207.628 199.139L209.942 200.374L211.395 204.358L211.583 206.909L212.304 208.125L213.599 208.283L214.242 210.468L213.135 213.433L213.194 216.577L211.494 217.14L210.327 218.119L209.645 220.017L211.049 221.737L210.999 222.152L210.149 222.202L210.08 222.993L212.176 226.196L210.525 228.133L209.764 227.965L208.755 229.29L209.309 232.354L211.029 232.681L211.375 232.433L211.256 231.148L211.859 230.802L214.173 231.544L215.122 232.513L218.493 233.442L222.892 233.689L222.111 231.376L222.744 229.606L223.653 229.873L224.602 231.435L225.887 229.319L226.846 230.209L230.771 228.875L231.077 228.41L232.214 228.835L233.519 228.41L235.101 226.492L237.444 228.104L236.514 229.132L237.266 229.922L236.208 230.872L235.911 232.829L235.12 233.363L236.475 235.429L236.88 237.791L235.071 240.579L232.886 242.141L232.511 243.753L231.433 244.257L231.453 246.778L230.939 246.975L230.761 247.845L229.753 247.954L228.072 250.05L223.208 249.516L220.124 250.613L218.424 250.129L218.058 249.546L217.425 250.584L217.573 251.068L215.616 251.038L214.588 251.533L213.441 250.771L212.126 251.513L211.207 252.956L211.711 253.223L211.84 254.043L210.624 255.418L211.059 257.681L210.555 259.955L210.288 259.441L209.803 260.153L210.278 260.301L209.042 261.28L207.124 260.904L206.284 261.339L206.017 260.874L205.444 261.359L205.879 261.685L204.94 262.1L204.406 263.03L204.841 263.949L205.938 264.611L206.482 266.341L205.533 266.48L206.225 269.574L204.495 271.6L205.315 273.251L204.851 273.578L205.216 274.022L204.712 275.041L205.108 277.067L204.742 277.265L204.959 279.42L207.984 280.122L208.755 281.219L211.177 282.366L212.067 284.748L214.133 285.954L213.926 287.516L208.103 286.656L202.3 288.258L200.995 292.093L196.369 295.356L194.5 296.147L189.508 296.918L184.288 295.662L181.481 295.791L179.049 297.273L176.736 297.728L176.014 297.639L174.383 296.354L172.089 295.791L168.293 297.619L165.476 297.985L160.157 300.061L155.126 301L148.275 299.33L142.61 299.448L139.042 298.282L132.26 297.046L127.584 297.026L124.737 298.628L121.455 296.858L118.746 298.905L115.198 299.073L113.616 299.705L109.523 298.657L108.1 299.31L104.343 299.181L101.822 299.735L99.5485 298.282L93.9137 297.007L92.1738 294.99L94.0521 293.21L95.0901 288.554L96.998 288.505L97.3935 289.167L98.6094 289.177L99.2717 289.731L100.132 287.852L102.989 285.974L103.424 284.699L102.959 281.694L104.106 279.38L106.429 278.599L108.258 275.851L111.263 274.111L112.637 272.431L110.185 269.999L111.352 267.972L110.709 264.058L111.461 260.133L110.205 257.79L110.462 255.684L110.037 254.686L111.589 253.49L111.095 252.491L111.174 251.058L110.334 250.109L108.95 250L107.19 248.854L108.327 247.341L107.615 246.125L104.907 248.191L103.78 247.984L103.325 245.829L104.58 242.724L104.432 240.609L101.516 237.238L97.5912 234.796L100.102 232.967L101.506 232.918L102.356 234.163L103.206 234.193L104.63 232.433L102.761 228.736L104.768 228.993L106.024 228.657L107.19 229.715L107.655 228.657L109.988 227.599L111.065 226.433L111.342 224.653L110.976 223.349L108.119 222.439L106.923 220.482L107.269 219.404L108.248 219.987L109.474 219.197L109.375 218.119L108.782 217.536L110.423 214.896L109.82 213.512L107.536 213.275L106.805 211.802L108.258 210.626L108.544 206.513L109.701 205.614L109.246 203.538L110.858 202.292L110.413 201.62L111.431 201.086L111.827 199.751L114.407 195.827L116.107 191.892L116.048 191.082L117.165 189.292L118.737 189.263L118.43 188.304L119.686 186.426L119.31 185.378L116.779 183.598L113.725 179.822L112.756 179.071L109.325 178.31L108.92 177.608L108.159 177.637L108.06 176.609L109.889 175.166L110.868 170.025L112.785 167.722L113.408 165.26L115.524 166.002L116.265 166.812L119.211 166.575L118.934 165.498L120.249 165.389L121.574 164.173L121.762 161.227Z" fill="#CCCCCC" stroke="white" stroke-width="0.5"/>
<path d="M473.306 27.8498L476.282 27.3655L477.567 27.573L478.091 28.4034L479.653 29.1647L480.256 30.519L481.521 30.1334L483.528 30.3411L483.963 31.4087L486.8 33.7021L488.224 33.6725L489.4 33.0793L491.199 33.3661L492.534 31.0726L493.068 30.8749L495.855 32.7532L496.231 32.3478L495.786 31.4779L497.052 29.9654L499.216 30.2817L500.699 28.9669L501.648 29.827L503.289 30.2125L503.823 29.7578L504.594 29.9357L505.83 28.5122L507.718 27.8993L508.924 30.6376L510.496 31.8436L510.526 32.8817L512.948 33.8504L514.856 32.5752L517.159 33.6428L517.653 35.877L518.592 35.8375L519.383 37.004L521.548 38.3188L522.023 41.2054L522.972 42.6486L524.286 43.0342L524.148 40.7902L525.067 39.159L526.699 38.5461L528.083 37.2313L529.724 37.1226L530.465 37.9925L530.475 39.1689L531.641 40.6913L532.254 40.7407L533.035 40.0586L534.222 40.4145L535.289 42.6486L536.307 43.7262L536.693 43.2418L537.83 43.1924L539.263 44.3885L541.804 43.825L542.545 44.0821L544.928 50.1222L546.618 52.218L549.979 55.0156L549.88 57.7045L551.087 58.9106L550.088 63.7348L551.719 65.0694L557.66 67.1947L561.723 67.9065L561.911 69.162L565.52 70.8228L566.597 71.8805L567.516 71.5741L568.772 70.2593L570.225 70.4966L570.986 71.2281L571.332 72.5626L570.433 74.3421L570.453 75.39L572.825 75.5382L580.21 78.1876L581.831 76.5169L585.38 76.7641L586.606 78.8697L587.644 79.3838L587.841 80.7776L591.163 84.03L591.766 84.1586L593.476 83.3084L594.821 83.3479L598.666 86.0862L599.269 86.195L600.663 85.157L603.797 84.722L606.278 86.1455L604.944 87.5295L604.716 95.4579L603.322 96.6343L604.182 98.9475L601.573 100.529L599.526 100.055L597.084 101.241L596.6 103.791L595.76 104.414L591.371 111.334L592.053 112.698L591.371 113.885L590.945 118.343L588.425 119.786L587.14 121.704L586.418 121.2L582.958 121.032L581.317 120.152L579.142 121.032L574.071 121.21L573.814 118.847L572.795 117.374L571.757 113.094L570.621 112.293L567.259 111.868L564.205 114.972L563.266 117.117L561.308 117.898L560.508 118.778L560.804 124.156L560.359 124.967L554.26 124.858L549.88 125.866L546.381 125.846L545.639 124.462L542.011 124.077L540.173 120.983L537.365 119.065L532.027 116.989L530.188 117.216L529.417 117.76L528.814 117.325L528.191 117.582L527.114 115.595L525.404 115.387L524.316 116.158L523.95 118.363L524.632 128.219L525.74 129.88L525.542 131.59L523.496 133.31L521.568 133.923L521.004 136.375L520.995 135.633L520.026 135.534L515.864 137.818L513.462 138.194L511.761 136.839L510.654 135.169L506.482 136.454L504.248 135.119L502.321 135.178L502.419 134.219L501.678 133.508L497.931 132.529L496.646 130.325L496.864 128.555L495.984 126.795L494.432 126.024L493.216 124.472L493.058 123.068L494.076 121.912L493.473 121.23L492.208 120.904L492.138 118.027L490.3 119.44L489.074 119.628V120.38L488.481 120.666L486.286 120.271L485.723 117.592L485.12 116.702L484.803 120.192L482.747 118.304L481.076 118.729L480.622 119.243L481.333 120.953L481.017 121.339L481.126 123.711L480.167 124.67L479.831 125.846L476.786 125.836L475.857 126.667L474.868 126.044L474.028 126.39L472.585 127.685L472.683 129.494L470.716 130.374L468.294 128.931L467.029 127.369L468.64 121.862L468.106 120.123L465.951 121.052L466.011 119.262L464.686 119.213L464.399 120.142L461.76 118.59L459.792 120.666L458.211 119.193L457.272 116.761L455.631 116.267L454.721 115.466L453.347 116.811L450.362 116.603L447.376 115.387L442.937 115.13L442.502 112.343L440.95 111.433L438.568 107.459L435.543 109.733L435.029 109.505L433.803 106.925L432.073 105.66L429.74 105.037L424.016 106.846L423.73 106.144L422.178 106.164L421.426 105.344L423.255 104.128L423.453 103.287L420.566 104.394L418.342 102.734L417.126 102.635L415.94 101.893L415.406 102.328L416.424 103.623L416.305 104.928L417.452 106.629L417.264 106.915L416.157 107.696L415.416 107.637L414.931 106.302L414.388 106.016L412.233 107.647L411.293 105.788L410.512 105.492L407.28 106.579L406.815 106.994L406.835 108.497L405.639 109.525L405.332 111.878L405.678 112.777L403.573 111.176L402.634 110.978L399.045 105.274L396.663 105.452L395.417 106.194L392.975 104.879L392.718 103.801L390.751 102.141L389.604 99.8273L388.952 99.4121L386.53 101.735L386.055 103.08L389.466 107.429L387.815 107.38L386.965 106.451L385.106 105.729L383.94 104.385L380.826 102.17L377.287 100.707L375.705 102.714L373.787 103.208L372.304 104.137L371.642 105.116L370.406 105.551L366.857 109.238L367.095 110.118L368.192 110.939L368.291 111.868L368.133 112.412L366.739 113.272L366.699 117.335L365.948 118.462L365.978 119.52L366.511 120.123L366.274 121.625L364.801 122.031L363.042 120.607L361.578 120.142L358.82 117.098L357.525 116.702L356.003 116.91L353.828 114.873L352.316 117.434L350.398 118.748L341.57 117.463L340.364 115.951L335.144 115.466L335.569 114.389L338.812 113.756L341.076 111.789L340.66 111.384L338.871 111.235L337.28 106.708L337.794 105.373L336.36 104.424L335.223 101.706L331.615 99.1254L331.941 98.2555L333.77 98.8783L337.003 97.4646L336.993 94.4199L338.061 91.7013L337.883 89.0124L339.316 85.157L339.454 82.9525L338.061 82.1023L336.736 82.9229L334.126 82.4681L332.96 82.7053L331.981 80.7974L331.833 81.9343L331.249 82.2407L329.608 79.6507L327.928 79.7693L327.631 78.6127L325.387 79.5419L324.754 79.3146L325.684 77.031L325.407 76.4972L325.783 75.3109L322.589 70.3977L321.977 68.3711L322.352 67.5012L325.002 65.5241L325.229 62.9736L327.335 62.0444L329.668 62.2519L333.889 62.7956L336.281 64.8914L336.172 65.8404L337.566 67.5012L339.464 68.2624L342.845 71.0106L344.526 71.0502L344.644 66.8587L345.406 64.9606L346.206 64.2785L345.584 61.9257L346.434 60.8482L346.671 58.9106L348.737 55.9647L349.103 52.475L351.09 49.2523L351.604 49.272L352.474 51.0613L354.036 49.539L353.334 48.0561L353.601 47.4234L354.906 47.3345L355.904 45.1497L357.792 44.5665L358.89 43.3703L359.918 44.4281L361.094 43.5977L363.832 44.2007L364.366 43.5186L365.167 43.4198L366.66 43.5977L367.925 44.6357H368.736L369.447 43.7954L369.625 39.1689L370.446 37.2313L368.775 37.3401L369.517 35.3531L370.851 35.0169L373.659 35.8375L374.855 34.3348L375.567 35.1653L375.616 36.8755L376.793 37.0831L378.73 36.3417L378.967 34.9873L379.491 34.4831L380.598 35.1257L381.053 36.1834L381.449 34.5523L380.678 34.3249L380.895 32.852L382.536 33.7417L382.922 33.5934L382.506 33.1881L385.136 33.109L387.548 34.7401L388.685 35.0169L389.199 36.8161L390.445 36.8755L393.321 38.0617L394.349 39.0404L396.159 39.4457L396.742 38.4077L397.79 38.5857L398.847 37.5279L399.104 36.1637L400.162 34.7698L400.558 32.7037L403.869 35.4717L405.451 34.9181L408.96 32.2687L410.73 32.5455L412.154 33.3463L413.617 33.0299L414.17 33.8208L413.913 35.0961L415.416 35.8078L414.427 37.1028L415.702 38.2693L415.643 40.3849L418.283 39.8214L418.54 40.3552L418.134 41.8084L419.874 41.6601L420.962 42.4707L420.576 43.1924L419.854 42.2236L420.151 42.9848L419.657 44.7642L421.327 44.2106L422.761 46.2668L423.799 46.3162L425.687 44.26L426.695 44.1612L428.732 47.2159L427.714 48.5603L428.979 48.5899L429.493 47.7695L430.867 47.4432L431.45 48.4713L431.174 49.3017L431.717 50.4979L433.605 52.1883L437.046 50.3693L440.041 50.4484L440.634 49.6378L439.794 47.2356L441.791 46.2174L442.236 44.2897L442.898 44.1315L445.438 41.3833L446.012 41.2548L446.921 41.8381L448.029 41.324L448.839 42.2434L449.472 41.5514L450.816 41.3536L452.003 39.6434L448.345 36.4701L448.355 35.4519L446.714 34.8686L446.111 33.0101L446.556 32.2984L447.831 32.2193L451.202 30.9045L452.922 31.8931L453.614 30.1136L454.207 29.9851L457.024 31.3592L457.469 32.4467L458.3 32.6839L459.921 34.236L460.049 35.3432L461.315 35.4222L462.214 34.9477L462.966 35.3036L464.913 32.9805L464.567 31.5372L465.595 29.6985L466.406 30.1037L468.976 27.9784L469.609 26.0012L470.4 25.9023L473.306 27.8498Z" fill="#CCCCCC" stroke="white" stroke-width="0.5"/>
<path d="M39.5819 120.636L44.6731 121.783L46.0966 122.87L48.0045 122.92L48.7657 124.136L50.9999 125.836L52.631 125.381L53.1945 126.775L56.1404 129L57.0103 130.275L58.513 129.425L60.6384 130.196L59.8574 133.547L56.0712 135.514L55.9427 136.493L57.5936 137.818L58.6613 137.303L59.2247 137.669L62.7737 134.891L63.2976 136.206L63.0999 136.859L65.1364 138.005L65.7493 137.57L66.3918 138.5L67.588 138.579L68.8237 140.971L70.2077 141.436L70.6031 142.859L70.267 144.55L68.7743 145.074L67.7956 147.96L68.4283 149.097L68.3887 150.748L69.3674 150.906L70.2571 154.336L73.7072 160.594L74.4388 159.784L75.5361 160.258L75.8129 159.131L76.7619 158.745L78.1261 157.104L80.0242 157.955L84.5024 157.065L84.7495 156.887L83.8005 155.246L84.1563 153.822L84.9274 153.793L84.9472 154.445L85.5107 154.88L87.3297 155.019L87.211 154.149L89.2475 152.873L89.7022 153.032L91.1554 151.657L91.9166 151.816L92.7075 150.738L95.0306 152.557L97.1263 155.75L101.496 157.856L103.275 157.559L103.671 158.113L104.264 157.648L105.499 157.747L105.717 155.483L107.338 155.641L107.783 155.77L107.585 157.282L108.307 158.716L108.762 158.745L109.019 157.826L108.92 158.785L109.236 158.815L109.77 157.777L110.897 159.309L111.441 159.002L114.703 160.209L118.222 160.466L119.814 161.869L121.761 161.227L121.574 164.173L120.249 165.389L118.934 165.497L119.211 166.575L116.265 166.812L115.524 166.002L113.408 165.26L112.785 167.722L110.867 170.025L109.889 175.166L108.06 176.609L108.159 177.637L108.92 177.607L109.325 178.309L112.756 179.07L113.724 179.822L116.779 183.598L119.31 185.377L119.685 186.425L118.43 188.304L118.736 189.262L117.165 189.292L116.047 191.081L116.107 191.892L114.406 195.827L111.826 199.751L111.431 201.086L110.413 201.62L110.858 202.292L109.246 203.537L109.701 205.613L108.544 206.513L108.258 210.625L106.804 211.802L107.536 213.275L109.82 213.512L110.423 214.896L108.782 217.535L109.375 218.119L109.474 219.196L108.248 219.987L107.269 219.404L106.923 220.481L108.119 222.439L110.976 223.348L111.342 224.653L111.065 226.433L109.988 227.599L107.655 228.657L107.19 229.715L106.023 228.657L104.768 228.993L102.761 228.736L104.63 232.433L103.206 234.193L102.356 234.163L101.506 232.918L100.102 232.967L97.591 234.796L101.516 237.238L104.432 240.609L104.58 242.724L103.325 245.828L103.779 247.983L104.906 248.191L107.615 246.125L108.327 247.341L107.19 248.853L108.95 250L110.334 250.109L111.174 251.058L111.095 252.491L111.589 253.49L110.037 254.686L110.462 255.684L110.205 257.79L111.461 260.133L110.709 264.057L111.352 267.972L110.185 269.999L112.637 272.43L111.263 274.111L108.258 275.851L106.429 278.599L104.106 279.38L102.959 281.693L103.424 284.699L102.989 285.974L100.132 287.852L99.2715 289.73L98.6092 289.177L97.3933 289.167L96.9978 288.505L95.0899 288.554L94.0519 293.21L92.1736 294.99L90.9083 293.536L85.8073 290.106L83.0591 286.785L79.4508 287.852L78.4029 287.447L76.584 284.293L76.0402 282.128L74.1224 279.825L71.4632 279.588L68.5074 277.611L66.9751 277.097L63.9105 270.483L60.4703 266.549L58.7502 265.432L54.0447 259.836L52.9671 259.461L47.3224 259.599L45.5034 258.828L44.9004 256.861L46.0472 255.655L45.9384 254.617L46.9072 254.577L48.4296 252.521L51.0987 251.167L50.4265 249.901L50.3079 248.379L50.8318 248.171L51.8402 249.199L53.8865 248.903L54.3709 245.888L55.834 245.591L55.7648 244.8L54.6576 244.217L53.58 245.512H52.631L51.5238 244.682L50.733 243.179L51.0691 241.587L50.5748 240.994L50.7626 240.253L51.3755 240.144L52.6013 240.895L54.2127 239.936L54.8553 240.154L57.7023 237.92L58.8194 238.206L59.9167 236.308L58.8392 235.705L58.3845 234.005L59.6597 232.868L61.5874 233.501L61.4984 235.775L63.1395 235.854L65.0276 237.129L67.934 236.091L68.7051 234.351L69.832 233.204L71.5818 233.135L71.9179 232.305L73.4205 232.146L73.7863 231.573L73.6875 229.033L72.5012 228.489L72.3331 227.777L73.5886 225.978V224.92L70.6328 223.526L69.2686 223.398L68.6655 222.765L69.6343 219.068L73.0745 214.738L71.7499 213.225L70.6328 214.105L70.178 213.917L68.4283 212.514L67.8648 211.248L66.7675 211.139L67.3507 209.548L66.2534 208.431L67.4793 207.887L69.0214 203.933L68.4085 201.531L66.55 199.771L64.8497 200.433L64.2763 199.702L62.8824 194.808L61.4589 194.176L61.5083 192.861L59.8278 192.624L60.3517 189.589L57.0697 189.559L55.3496 187.691L52.5717 187.562L51.0888 185.832L50.9208 185.13L51.9884 183.727L52.0181 183.044L53.9063 182.392L54.4697 181.146L54.3808 180.138L55.1815 179.624L55.399 178.912L53.4812 178.003L53.412 176.609L51.2668 176.273L50.8219 174.315L47.5003 171.953L47.8266 170.954L51.7215 168.275L52.4531 165.656L54.4796 165.497L55.7648 163.461L57.4552 162.443L57.8407 161.593L57.6233 159.863L56.2788 157.203L54.8059 156.581L53.3131 155.256L46.5612 165.24L44.1293 166.773L43.6153 168.562L41.1735 168.997L38.5835 170.391L31.2978 172.032L30.3487 171.775L29.6469 170.381L27.6104 171.528L23.7056 169.175L23.5968 169.808L24.7139 171.112V171.725L23.2508 171.607L22.9543 171.063L19.603 172.447L16.3506 172.813L16.143 174.513L13.1971 174.493L13.4542 174.039L12.9203 173.673L12.8511 172.971L13.7705 172.447L12.9104 171.439L12.9698 170.124L12.0306 168.69L12.0207 168.344L12.7325 168.275L12.169 167.791L12.3964 166.516L11.9219 163.718L12.6238 163.046L12.6732 161.009L14.1363 160.12L15.1051 157.51L15.8069 157.144L15.026 156.61L16.143 156.403L15.54 155.74L15.5993 153.061L19.8205 148.84L18.6145 147.417L18.7924 146.448L20.2159 145.024L20.3543 143.452L23.0828 139.686L23.4881 137.738L28.2629 134.466L28.4803 132.796L29.9929 131.184L30.0324 128.485L30.4476 127.556L35.0543 125.174L38.8306 120.765L39.3546 120.35L39.5819 120.636Z" fill="#CCCCCC" stroke="white" stroke-width="0.5"/>
<path d="M158.734 49.3113L159.505 49.7067L161.918 49.0938L164.023 49.2025L163.954 51.3477L164.775 52.5735L165.694 53.0777L167.75 56.943L169.361 58.5741L169.263 60.2843L170.805 61.9155L171.062 63.0919L170.726 64.0211L171.408 64.9899L171.517 66.1663L173.316 67.4712L173.622 69.7251L174.947 70.2886L178.308 73.4816L180.315 74.5987L181.55 74.7965L181.649 76.4177L184.862 77.515L185.129 80.2633L186.553 81.6176L185.712 83.4365L183.982 84.5536L183.053 85.9672L186.365 87.0942L187.917 89.5557L187.561 90.4356L187.887 91.3351L187.146 92.5214L187.64 93.7571L187.482 96.3472L186.286 97.0293L185.96 98.3342L184.052 100.628L183.379 101.112L180.186 101.587L177.972 103.02L177.922 104.088L176.805 105.867L175.599 105.996L173.721 107.093L173.098 106.974V108.101L174.492 109.624L179.652 110.098L181.116 108.754L183.271 108.24L183.577 106.895L184.734 105.116L186.098 104.671L185.9 105.729L186.721 106.796L188.461 106.737L190.576 105.907L195.084 107.31L197.486 106.757L199.523 108.773L199.829 109.732L199.009 111.512L198.415 111.324L198.406 112.362L197.338 114.141L199.018 116.524L197.634 119.321L198.149 119.964L197.842 124.551L200.155 125.757L201.312 127.141L202.32 127.012L203.408 127.784L203.576 129.029L204.199 128.92L205.049 129.929L206.363 130.136L206.265 133.438L209.547 136.888L210.12 138.658L211.099 138.944L211.306 141.327L211.316 142.138L210.684 142.622L209.497 145.647L208.044 147.931L206.63 148.889L204.93 148.326L203.734 149.305L202.656 154.02L199.829 156.314L200.313 158.429L200.136 159.734L198.04 158.765L196.972 159.022L195.489 158.666L193.492 157.638L191.851 159.319L189.904 163.174L188.53 164.094L187.749 165.428L187.877 167.119L187.413 168.265L186.217 168.394L185.149 169.333L181.392 169.373L178.377 168.562L176.707 168.631L176.212 172.239L174.285 172.338L171.418 175.017L168.59 176.342L165.387 179.594L163.45 180.701L163.005 182.244L161.651 180.988L161.334 179.703L161.067 180.929L160.197 181.453L157.064 180.504L156.411 179.594L155.887 177.004L154.355 175.353L152.378 172.002L151.221 171.083L148.117 171.122L147.761 170.618L147.791 169.58L148.621 168.631L147 167.297L149.392 164.983L149.699 163.125L148.562 161.434L147.139 157.441L145.883 156.768L144.806 157.045L143.224 156.195L141.82 156.966L140.179 155.374L138.825 151.104L135.315 147.901L133.872 148.405L131.964 147.308L127.051 147.417L125.865 145.983L124.55 146.112L123.136 147.565L123.64 151.005L124.402 151.707L125.242 154.673L125.963 155.246L126.013 157.757L125.687 158.904L124.55 159.922L123.749 159.764L123.225 160.703L121.762 161.227L119.815 161.869L118.223 160.466L114.704 160.209L111.441 159.002L110.898 159.309L109.771 157.777L109.237 158.815L108.921 158.785L109.019 157.826L108.762 158.745L108.308 158.716L107.586 157.282L107.784 155.77L107.339 155.641L105.718 155.483L105.5 157.747L104.264 157.648L103.671 158.113L103.276 157.559L101.496 157.856L97.127 155.75L95.0312 152.557L92.7081 150.738L91.9173 151.816L91.1561 151.657L89.7029 153.032L89.2481 152.873L87.2117 154.149L87.3303 155.019L85.5114 154.88L84.9479 154.445L84.9281 153.793L84.157 153.822L83.8011 155.246L84.7502 156.887L84.503 157.065L80.0248 157.955L78.1268 157.104L76.7626 158.745L75.8135 159.131L75.5367 160.258L74.4394 159.783L73.7079 160.594L70.2578 154.336L69.3681 150.906L68.3894 150.748L68.4289 149.097L67.7963 147.96L68.7749 145.074L70.2677 144.55L70.6038 142.859L70.2084 141.436L68.8244 140.971L67.5887 138.579L66.3925 138.5L65.7499 137.57L65.137 138.005L63.1006 136.859L63.2983 136.206L62.7743 134.891L59.2254 137.669L58.6619 137.303L57.5943 137.818L55.9434 136.493L56.0719 135.514L59.8581 133.547L60.639 130.196L62.7546 128.1L63.9013 128.268L64.5735 126.301L65.5127 126.568L66.5408 125.194L69.2396 126.093L73.1147 129.988L74.0934 130.354L75.5367 129.553L76.5846 129.85L78.107 128.634L81.1024 128.436L81.9426 126.232L83.9989 125.915L84.4734 124.65L85.4817 123.77L89.0208 123.75L91.0572 122.653L92.9849 122.861L94.5468 120.794L96.4844 119.341L98.6296 115.782L100.992 114.151L101.328 112.599L108.229 112.135L110.275 112.876L111.916 112.036L113.527 107.142L113.824 103.544L114.862 101.448L114.98 98.8483L116.276 97.4643L117.323 96.7327L121.594 96.9008L122.978 96.1495L126.843 96.7821L131.667 94.4195L134.702 90.8705L134.613 89.4767L136.561 85.295L136.067 81.8548L136.472 81.2419L137.134 81.1826L135.968 78.7211L136.689 77.3865V75.9729L138.607 74.3417L138.083 73.0072V70.1305L139.675 68.1434L140.041 65.9785L140.634 65.4051L140.703 63.4972L139.675 62.993L139.784 60.5611L143.866 56.6069L143.837 54.1058L147.87 52.8998L152.319 52.5142L155.917 51.1401L156.154 50.5766L158.734 49.3113Z" fill="#CCCCCC" stroke="white" stroke-width="0.5"/>
<path d="M279.043 1L280.061 2.4433L279.488 3.83718L280.318 5.01357L282.532 6.22952L283.897 6.31849L284.618 7.42568L285.834 7.80134L285.775 13.3472L288.118 18.0627L288.345 21.0679L289.611 22.6002L289.927 24.0237L291.35 25.6746L291.598 26.7522L293.08 26.4061L294.682 27.9483L297.677 26.3567L297.351 28.8083L298.537 29.9353L296.55 34.3047L299.664 34.3542L301.75 35.2933L302.472 35.1945L305.793 37.8339L307.079 36.9739L308.334 34.7892L309.174 34.1565L311.023 33.4843L313.484 34.0972L313.672 38.9411L314.819 40.9677L314.671 42.9152L313.998 44.5661L314.424 46.3455L315.382 47.5911L313.979 51.7035L314.216 52.2868L315.59 52.6427L316.855 55.4601L313.593 57.2099L313.287 59.701L310.934 62.1724L311.191 63.7146L310.361 65.5731L311.151 66.7594L312.17 67.0065L313.01 67.9556L314.097 67.9259L315.116 66.9077L316.401 68.0643L317.389 67.5502L318.496 68.3608L321.976 68.3707L322.589 70.3973L325.782 75.3105L325.407 76.4968L325.683 77.0306L324.754 79.3142L325.387 79.5415L327.631 78.6123L327.927 79.7689L329.608 79.6503L331.249 82.2403L331.832 81.9339L331.98 80.797L332.959 82.7049L334.126 82.4677L336.735 82.9225L338.06 82.1019L339.454 82.9521L339.316 85.1566L337.882 89.012L338.06 91.7009L336.993 94.4195L337.002 97.4642L333.77 98.8779L331.941 98.2551L331.615 99.125L335.223 101.705L336.36 104.424L337.793 105.373L337.279 106.707L338.871 111.235L340.66 111.383L341.075 111.789L338.811 113.756L335.569 114.388L335.144 115.466L333.256 113.509L330.745 114.922L322.728 114.557L318.012 115.209L316.895 114.774L316.292 113.934L313.959 113.845L311.685 115.278L310.479 115.318L308.68 116.415L307.177 114.636L302.452 116.366H299.447L296.362 113.865L294.899 113.321L292.181 111.354L291.4 110.325L289.185 109.495L287.643 109.446L286.249 108.625L284.757 109.653L281.702 109.248L278.104 111.176L276.473 111.591H269.81L264.798 117.374L262.741 121.832L255.9 122.92L255.693 122.317L257.284 120.972L257.215 118.768L256.592 117.216L254.576 116.287L250.948 117.305L249 119.193L247.606 118.679L246.292 119.4L245.204 118.975L240.34 119.737L238.255 119.341L237.572 119.658L236.268 119.578L235.408 118.699L234.814 118.669L232.986 119.48L232.205 122.317L230.87 124.007L229.753 124.126L229.081 123.721L228.626 124.205L229.456 127.863L228.567 129.464L228.695 130.888L229.199 131.827L231.621 133.923L231.157 137.511L229.545 138.806L228.685 140.417L225.878 140.783L223.495 140.141L222.062 141.228L221.073 141.169L219.966 140.111L218.147 139.844L218.216 138.608L217.514 138.549L217.406 137.066L216.615 136.878L214.677 137.897L213.363 139.696L211.741 140.437L211.306 141.327L211.099 138.944L210.12 138.658L209.547 136.888L206.265 133.438L206.363 130.136L205.049 129.929L204.199 128.92L203.576 129.029L203.408 127.784L202.32 127.012L201.312 127.141L200.155 125.757L197.842 124.551L198.148 119.964L197.634 119.321L199.018 116.524L197.338 114.141L198.406 112.362L198.415 111.324L199.009 111.512L199.829 109.732L199.523 108.773L197.486 106.757L195.084 107.31L190.576 105.907L188.461 106.737L186.721 106.796L185.9 105.729L186.098 104.671L184.734 105.116L183.577 106.895L183.271 108.24L181.115 108.754L179.652 110.098L174.492 109.624L173.098 108.101V106.974L173.721 107.093L175.599 105.996L176.805 105.867L177.922 104.088L177.972 103.02L180.186 101.587L183.379 101.112L184.052 100.628L185.959 98.3342L186.286 97.0293L187.482 96.3471L187.64 93.7571L187.146 92.5214L187.887 91.3351L187.561 90.4355L187.917 89.5557L186.365 87.0942L183.053 85.9672L183.982 84.5536L185.712 83.4365L186.553 81.6175L185.129 80.2632L184.862 77.515L181.649 76.4177L181.55 74.7964L180.315 74.5987L178.308 73.4816L174.947 70.2886L173.622 69.7251L173.316 67.4712L171.517 66.1663L171.408 64.9899L170.726 64.0211L171.062 63.0918L170.805 61.9154L169.263 60.2843L169.361 58.5741L167.75 56.9429L165.694 53.0777L164.775 52.5735L163.954 51.3477L164.023 49.2024L161.918 49.0937L159.505 49.7066L158.734 49.3112L162.916 48.0359L164.251 46.8299L165.476 44.487L166.92 43.6961L166.416 42.8262L167.948 41.2445L168.175 40.4339L167.038 36.1336L167.73 35.5701L169.332 36.7465L170.528 36.9838L171.556 36.6971L172.268 35.4317L174.512 34.2356L174.621 32.6737L175.273 31.3489L176.173 30.7954L176.183 29.876L177.339 29.708L177.665 28.6304L179.257 27.7703L179.524 26.5544L180.335 26.3468L181.936 24.8046L180.73 21.8291L180.789 20.8702L181.837 20.2573L181.985 19.328L184.22 18.1813L187.245 17.855L187.818 18.1912L187.848 19.8124L189.568 20.109L190.853 19.674L191.525 19.9805L192.435 19.071L196.043 18.2109L197.13 19.3972L199.355 19.1698L202.627 21.147H204.09L207.036 18.3098L208.756 17.9341L209.626 16.9653L212.354 16.1844L214.549 16.6391L215.864 16.2536L216.516 16.8665L219.086 17.1433L223.624 16.3821L224.365 17.3212L226.006 18.1516L226.056 18.9919L226.817 18.8139L226.985 19.1698L225.907 22.1355L226.59 23.134L226.125 23.6876L225.71 26.7818L227.094 27.2365L227.796 29.5201L228.646 30.5482L228.25 32.1201L226.609 33.6227L227.005 35.5207L227.736 36.4104L229.704 35.8568L230.959 36.4401L233.589 36.3413L234.814 35.2538L234.636 34.7694L235.417 33.336L237.335 33.593L237.711 32.8516L239.471 33.0592L241.477 34.9968L242.733 35.1649L243.721 34.8188L244.492 33.8402L245.807 34.8682L248.417 33.4151L250.009 33.9291L250.79 33.1284L250.236 32.4067L250.325 31.0524L249.742 30.4988V29.7376L251.689 27.3156L253.073 27.6715L253.765 26.6533L254.062 25.2396L253.152 23.6184L254.467 21.5622L254.002 20.7516L254.783 20.0793L254.744 17.5288L257.413 15.097L257.69 14.2567L258.876 14.2863L259.884 13.7327L261.347 14.0787L262.633 13.5152L263.423 13.8217L263.592 14.6125L268.03 13.5943L268.613 12.5366L268.426 10.8362L269.335 9.9564L269.157 8.46366L272.241 7.31695L273.003 6.23939L273.121 4.71702L273.734 4.19308L276.69 3.422L276.571 2.03798L277.036 1.15817L277.945 1.41521L279.043 1Z" fill="#CCCCCC" stroke="white" stroke-width="0.5"/>
</svg>
