<svg width="464" height="302" viewBox="0 0 464 302" fill="none" xmlns="http://www.w3.org/2000/svg">
<path d="M32.8659 220.447L34.5192 220.017L40.6116 220.077L42.5971 220.877H46.168L47.3457 216.997L48.9915 216.982L50.8713 215.359L51.4149 212.754L51.06 211.274L55.333 212.505L57.9753 214.475L58.7076 215.766L59.8703 216.121L61.2141 217.223L64.332 217.042L64.3999 215.608L65.0341 215.706L65.6305 214.951L66.6648 215.238L67.0422 215.91L68.4464 216.28L68.5446 217.329L69.4505 218.311L70.0922 218.273L70.8547 218.892L73.0214 219.013L76.0638 218.092L75.8751 219.05L76.6678 219.133V220.568L77.3548 220.53L77.3397 221.187L77.9738 221.225L78.1399 222.047L82.2468 225.415L84.3154 226.456L85.2288 226.253L85.4704 226.887L86.2782 226.826L86.8822 227.664L89.0866 228.404L91.2533 230.005L90.8003 231.522L91.6836 230.722L92.3178 230.805L93.0501 229.552L95.0733 229.899L95.934 230.971L97.4967 231.832L98.5461 233.613L101.732 233.983L103.725 235.372L103.906 235.787L103.249 236.218L103.461 236.935L103.868 236.709L103.808 237.365L105.054 237.116L104.986 237.916L104.012 238.218L105.242 238.717L105.544 241.148L105.039 241.948L102.902 241.661L102.593 242.461L101.83 242.484L101.974 243.835L101.022 245.187L101.271 245.677L100.871 246.681L101.339 247.353L102.577 247.436L102.676 247.867L102.532 250.139L103.106 250.939L102.147 253.755L103.566 254.759L103.823 256.866L103.023 258.262L105.371 259.749L104.812 261.365L107.198 262.452L106.186 269.949L106.02 270.417L105.159 270.681L105.303 271.647L104.752 272.5L104.54 275.037L105.174 275.528L106.058 275.075L107.251 275.588L106.964 276.894L105.544 278.766L104.971 281.854L103.106 283.583L107.22 284.527L107.507 285.425L108.572 285.87L108.927 284.791L109.863 284.504L109.5 285.991L110.18 287.343L109.817 287.403L110.248 288.853L109.515 289.071L109.546 289.706L107.364 288.686L103.582 288.807L101.128 288.241L97.4967 285.282L96.3643 285.199L92.2045 281.22L90.3927 281.137L89.9397 282.096L90.1058 283.485L86.467 282.118L84.7683 284.134L85.6592 285.75L87.3955 286.505L89.2301 288.566L88.5582 288.769L89.147 289.743L88.2713 291.517L88.6412 294.092L86.4368 295.904L84.1795 294.922L83.4396 294.092L77.5133 295.111L77.083 296.085L75.7014 297.21L75.6637 297.98L74.3727 298.939L74.0557 300.471L72.9081 300.652L71.0132 300.267L69.4354 300.652L68.99 299.369L67.6537 298.878L63.7658 298.939L63.5242 297.572L62.12 297.066L62.7617 294.885L62.0067 293.843L59.9382 292.725L58.2773 292.967L56.8505 292.559L55.5595 291.216L53.2116 291.517L51.5281 293.782L48.8934 294.235L47.7458 294.824L46.1378 296.493L44.7714 296.961L40.8003 293.843L34.874 292.333L33.1528 291.012L31.8618 289.728L32.6394 289.155L32.9263 287.954L31.8467 285.704L32.1185 285.365L32.4658 285.584L32.2619 285.078L32.5639 284.731L33.8851 284.768L33.1981 284.67L33.6284 284.179L33.2132 283.953L32.9791 282.67L31.9524 282.79L30.8728 282.217L30.1556 282.488L29.7555 282.179L29.3252 281.243L29.4384 279.914L28.7363 278.955L31.0918 279.869L34.1568 280.095L35.2062 279.363L34.7759 278.646L34.5192 279.34L34.3003 279.182L34.3909 277.664L36.165 277.196L38.6639 278.464L40.5739 278.751L42.3102 278.215L42.0234 277.385L42.2649 276.645L44.2731 277.241L44.9148 276.011L46.3945 275.362L48.8934 275.339L51.2412 276.32L51.7923 275.218L53.8382 274.501L52.9625 274.282L53.1059 273.648L55.0311 273.482L53.1965 273.24L53.642 272.319L54.9329 272.115L54.9858 271.444L52.3812 269.111L49.0519 267.148L49.2633 266.37L51.2714 266.249L51.7621 265.744L54.9178 265.185L61.818 268.824L67.8576 268.439L69.7978 267.276L71.8588 265.064L72.4778 262.882L77.0377 260.323L79.4233 258.036L77.9436 256.624L74.6294 255.129L71.5719 252.449L67.2008 246.538L66.9365 242.152L63.4109 239.041L62.0445 235.357L61.5009 234.859L58.5868 234.164L56.8656 232.707L54.4422 232.979L52.9097 231.975L53.3249 231.379L49.2482 229.061L44.8016 224.818L44.0542 225.203L43.2992 223.542L39.2678 224.161L39.449 223.24L36.6406 224.614L36.3235 223.686L32.9112 222.131L32.8659 220.447Z" fill="#CCCCCC" stroke="white" stroke-width="0.5"/>
<path d="M110.323 209.221L110.866 208.625L112.316 208.685L113.237 207.779L114.195 208.791L118.257 207.923L121.254 209.734L122.198 209.629L123.504 210.942L123.421 211.441L126.071 211.274L126.358 211.456L125.874 212.135L127.347 212.686L127.626 213.207L128.94 211.871L128.728 212.686L130.563 212.626L131.552 213.736L134.896 206.654L134.768 205.665L136.074 204.457L137.319 204.186L141.57 205.688L142.612 207.349L142.944 209.055L143.865 208.957L144.423 209.795L145.714 208.519L147.617 210.202L147.707 211.312L148.327 211.992H148.915L149.64 210.225L150.78 209.629L151.882 209.878L154.547 213.615L155.8 212.852L156.11 211.395L157.174 209.795L158.941 210.308L160.119 209.878L162.436 207.907L163.418 209.757L163.244 211.214L162.436 211.705L162.572 212.769L164.12 214.725L163.788 215.396L166.445 218.092L167.517 220.674L169.986 221.043L170.431 223.505L171.979 224.554L172.439 225.641L170.001 225.785L169.669 226.109L170.847 227.808L172.364 227.732L173.028 228.095L172.122 232.564L173.172 233.206L174.032 236.316L171.194 236.89L169.759 233.553L168.423 234.081L168.838 236.339L171.752 242.71L172.409 249.663L173.444 249.792L172.409 254.329L168.869 260.467L166.891 262.49L164.792 263.305L163.025 263.411L163.471 267.065L162.384 269.843L161.893 275.399L160.851 277.257L160.262 277.325L156.012 280.873L154.177 281.869L152.773 283.545L150.606 282.994V283.628L148.493 284.119L147.473 286.12L143.419 287.826L141.638 287.501L140.49 287.849L137.81 290.355L136.874 289.321L136.346 287.75H134.405L133.258 287.154L131.952 285.704L130.261 285.893L130.004 286.459L128.668 287.094L126.056 283.1L123.746 283.545L122.757 284.202L120.318 287.871L120.22 290.378L117.593 289.585L116.83 288.973L114.294 288.626L112.24 288.913L110.979 289.743L109.545 289.706L109.515 289.072L110.247 288.853L109.817 287.403L110.179 287.343L109.5 285.991L109.862 284.504L108.926 284.791L108.571 285.871L107.507 285.425L107.22 284.527L103.105 283.583L104.97 281.854L105.544 278.767L106.963 276.894L107.25 275.588L106.057 275.075L105.174 275.528L104.54 275.037L104.751 272.5L105.302 271.647L105.159 270.681L106.019 270.417L106.186 269.949L107.197 262.452L104.812 261.365L105.37 259.749L103.022 258.262L103.823 256.866L103.566 254.759L102.147 253.755L103.105 250.939L102.532 250.139L102.675 247.867L102.577 247.436L101.339 247.353L100.871 246.681L101.271 245.677L101.022 245.187L101.973 243.835L101.829 242.484L102.592 242.461L102.901 241.661L105.038 241.948L105.544 241.148L105.242 238.717L104.011 238.218L104.985 237.916L105.053 237.116L103.807 237.365L103.868 236.709L103.46 236.935L103.249 236.218L103.906 235.788L103.724 235.372L101.731 233.983L98.5455 233.613L97.4961 231.832L98.1982 229.552L99.2476 229.612L99.6477 223.814L100.712 223.218L101.165 224.041L101.497 221.534L101.452 220.817L98.7719 216.076L106.329 213.698L106.133 213.041L107.469 211.169L108.413 210.391L109.303 210.331L110.323 209.221Z" fill="#CCCCCC" stroke="white" stroke-width="0.5"/>
<path d="M41.3583 91.7143L41.6451 92.3409L42.9814 92.1295L45.5633 92.7334L45.2009 94.266L45.7747 94.9152L48.8473 94.1678L53.8148 92.0087L55.9211 94.6208L59.7336 95.7381L61.3039 96.8026V97.2782L63.2517 98.3729L64.2859 98.3351L64.2104 100.306L64.8144 101.695L64.5879 102.835L66.0072 104.412L67.4944 104.284L67.7436 105.054L67.2227 106.504L65.8336 108.323L64.7691 108.784L63.682 108.701L62.9497 109.425L61.1152 109.237L59.5373 110.769L54.7585 112.324L54.2301 113.336L54.8038 117.231L51.7765 119.821L52.8938 120.81L52.6522 121.829L53.6714 123.898H54.2301L55.1436 124.728L56.4194 127.023L58.1331 127.438L61.8852 131.47L67.7436 134.965L70.9295 137.585L74.372 137.547L78.5166 136.905L84.5109 134.859L91.313 133.455L91.2299 134.112L92.6719 135.063L92.8606 137.275L92.3774 138.868L91.2148 139.344L90.1201 141.677L89.7502 144.508L90.3919 146.516L92.0981 147.135L94.0987 146.206L95.7294 146.863L97.2921 146.1L98.6284 146.84L102.433 147.671L102.388 149.445L101.844 150.706L99.9042 153.054L100.138 154.458L98.9983 155.349L98.2132 156.791L97.9414 158.542L96.2201 159.742L94.9744 161.864L94.5139 164.363L95.2991 166.114L96.2729 167.186L99.6777 169.247L101.527 171.119L102.886 171.738L103.581 173.882L103.135 174.275L104.223 174.524L103.981 175.385L102.916 176.563L103.792 176.479L104.109 175.657L104.698 175.755L105.461 175.06L106.306 174.932L106.563 175.287L106.231 175.898L106.895 176.517L106.752 177.921L107.507 178.639L107.061 179.816L108.284 180.081L108.586 180.805L109.333 180.76L109.492 181.319L110.896 181.666L111.84 181.439L112.633 181.892L112.029 182.798L112.376 183.953L111.5 183.976L110.594 186.422L109.99 186.769L107.997 186.482L108.043 187.638L107.28 187.985L107.567 189.427L108.956 188.913L108.601 190.106L109.062 190.967V192.431L108.058 193.066L107.808 195.497L105.906 196.704L106.419 198.267V201.083L108.367 202.585L109.032 203.65L109.59 207.455L110.322 209.221L109.303 210.331L108.412 210.392L107.469 211.169L106.133 213.041L106.329 213.698L98.7718 216.076L101.452 220.817L101.497 221.535L101.165 224.041L100.712 223.218L99.6475 223.815L99.2474 229.612L98.1981 229.552L97.4959 231.832L95.9332 230.971L95.0726 229.899L93.0493 229.552L92.317 230.805L91.6829 230.722L90.7996 231.522L91.2526 230.005L89.0859 228.405L86.8814 227.665L86.2775 226.827L85.4697 226.887L85.2281 226.253L84.3146 226.457L82.2461 225.415L78.1392 222.048L77.9731 221.225L77.3389 221.187L77.354 220.53L76.667 220.568V219.134L75.8743 219.051L76.0631 218.092L73.0206 219.013L70.854 218.892L70.0915 218.273L69.4498 218.311L68.5438 217.33L68.4457 216.28L67.0415 215.91L66.664 215.238L65.6297 214.951L65.0333 215.706L64.3992 215.608L64.3312 217.043L61.2133 217.224L59.8695 216.122L58.7069 215.767L57.9746 214.476L55.3323 212.505L51.0593 211.275L51.4141 212.755L50.8706 215.359L48.9908 216.982L47.345 216.997L46.1673 220.878H42.5964L40.6109 220.078L34.5185 220.017L32.8651 220.447L31.476 215.872L29.9661 215.095L29.9963 213.019L30.7437 212.136L31.2043 210.188L32.4046 208.663L31.778 206.941L32.7368 205.213L34.7449 203.635L36.436 200.177L36.738 198.66L38.7763 196.048L38.1875 192.824L39.637 186.445L38.5197 185.516L35.8094 186.958L35.4168 186.362L32.3367 185.373L30.2832 186.958L30.0416 187.902L28.6223 189.548L26.6821 189.344L25.7385 190.25L24.0323 190.189L20.8011 187.283L19.4951 187.222L17.4567 184.61L17.2755 183.606L16.3545 182.534L15.5693 182.345L15.509 181.892L16.9584 180.224L18.5891 180.043L19.8952 177.695L20.401 174.811L20.0311 173.905L18.9515 173.407L19.0647 171.331L19.8952 170.485L23.5567 169.247L25.5044 166.341L29.6264 164.627L30.6984 163.185L32.9935 161.577L34.0126 159.78L35.0922 159.372L36.9418 157.764L38.263 155.764L39.9088 154.526L41.3583 151.574L41.245 149.86L42.2944 148.765L42.8682 146.757L41.7735 144.945L38.7763 143.7L37.8855 143.783L35.5527 145.293L35.1224 144.961L35.4621 144.198L32.4801 144.258L32.163 143.745L29.5811 145.089L28.8488 144.387L28.9319 142.998L27.7919 140.959L24.7042 139.223L23.6699 139.117L23.3 138L21.9637 138.249L21.5334 138.702L19.3516 138.679L18.491 137.464L17.0264 136.822L15.6071 136.633L14.3463 137.109L11.7191 136.49L11.3794 136.717L11.9909 137.917L11.6889 139.117L8.30678 140.416L6.57041 139.616L6.10989 138.679L6.93278 137.773L7.01582 136.988L6.47226 136.158L7.60468 135.69L8.19354 134.814L6.91768 133.719L4.43391 130.413L2.90138 123.256L1.72366 123.173L1.24805 121.663L5.21906 121.104L7.07622 119.428L7.14417 118.001L8.20864 116.816L10.6773 116.22L11.923 113.879L10.2545 109.735L10.6169 108.761L12.6251 108.18L15.0031 108.572L17.1849 106.707L18.793 106.564L20.6879 105.281L21.4504 105.507L21.5938 104.284L23.0282 103.167L24.2286 103.272L25.4214 102.193L26.584 102.087L27.7768 100.947L28.6601 100.842L30.2002 98.3578L30.5248 95.3229L31.0457 94.2509L31.778 94.0848L33.0841 92.5447L36.8437 91.5935L38.2177 91.7143L40.6713 90.8008L41.3583 91.7143Z" fill="#CCCCCC" stroke="white" stroke-width="0.5"/>
<path d="M53.7547 75.9505L56.0497 75.7467L57.2954 76.328L58.3146 76.1166L61.6137 78.2833L64.1125 78.1323L66.5208 76.3884L67.0266 75.3919L67.9024 76.1166L70.0238 76.4564L73.7834 75.3088L74.1986 74.7502L76.4936 75.4976L78.4263 75.0597L79.7776 75.4523L80.593 76.5168L82.9031 77.0528L84.2394 77.8681L86.8062 80.2537L87.6668 79.9216L89.4032 80.9407L89.7052 82.1033L90.8527 82.2468L92.272 83.3943L94.0989 83.4094L96.1599 81.3333L98.4701 81.0615L101.271 82.209L104.623 82.745L105.589 83.9077L107.922 84.3078L108.926 85.3194L110.678 88.4977V89.9548L112.95 91.3439L113.244 92.7556L113.735 93.1482L115.396 93.2916L118.612 91.4269L121.556 92.046L122.47 91.3212L123.836 92.9821L125.256 93.5181L126.758 93.1482L128.124 92.1743L129.257 92.3177L132.042 91.2608L133.175 91.7364L133.062 92.1064L135.885 94.0013L138.641 93.6691L140 93.0425L140.521 92.3404L143.729 92.2725L144.28 91.8648L145.888 92.2574L148.266 90.8834L150.071 90.5361L152.788 90.6569L153.732 91.9629L153.015 92.1743L152.902 93.1255L154.26 94.1447L154.562 95.4508L155.068 95.7226H157.937L159.545 96.2208L159.802 97.2777L160.587 97.0513L161.825 97.5646L164.12 94.9299L165.97 95.2016L168.635 98.0629V99.1424L170.341 101.422L171.232 105.341L171.851 105.899L173.791 105.258L173.776 105.469L173.127 106.314L171.322 106.503L170.212 107.122V107.56L171.647 108.594L171.926 109.591L171.345 111.146L170.129 112.467L170.19 112.965L170.658 113.668L172.107 114.272L172.455 114.974L172.296 115.555L170.832 116.612L169.812 118.039L171.949 121.723L171.292 123.089L173.444 123.957L173.044 125.037L174.418 126.524L171.934 126.63L171.103 127.83L171.164 128.427L173.225 129.091L172.825 130.02L173.957 131.801L170.447 134.587L170.56 135.916L169.797 136.55L169.473 137.486L167.502 139.321L166.672 138.996L166.257 139.472L165.585 139.426L164.588 140.355L164.362 141.555L163.471 142.295L162.799 141.887L160.142 141.865L159.054 141.185L157.824 141.351L157.477 141.782L158.783 142.673L157.25 143.639L153.717 144.175L153.46 143.805L152.441 143.458L150.961 143.888L149.799 143.639L149.927 145.149L150.675 146.636L152.169 148.078L148.614 150.101H146.545L146.734 151.694L146.16 152.54L145.556 152.291L145.496 151.264L143.865 151.113L143.85 152.087L143.329 152.396L142.642 151.86L141.509 153.906L140.279 154.133L139.071 154.978L138.686 157.537L140.03 158.851L139.834 159.697L140.173 160.467L139.426 162.09L137.576 162.241L136.474 161.229L134.964 161.637L129.159 160.731L128.298 161.29L127.49 162.958L124.508 162.935L123.889 164.09L122.817 164.672L121.866 166.71L122.168 170.356L121.941 171.021L120.839 171.881L120.492 173.844L118.627 174.977L118.642 175.883L117.049 176.849L116.936 178.268L115.962 178.555L114.641 178.185L114.55 179.091L113.561 179.076L113.275 179.484L113.38 180.76H112.572L111.84 181.439L110.896 181.665L109.492 181.318L109.334 180.76L108.586 180.805L108.284 180.08L107.061 179.816L107.507 178.638L106.752 177.921L106.895 176.517L106.231 175.898L106.563 175.286L106.306 174.931L105.461 175.06L104.698 175.754L104.11 175.656L103.792 176.479L102.917 176.562L103.981 175.384L104.223 174.524L103.136 174.275L103.581 173.882L102.887 171.738L101.528 171.119L99.678 169.247L96.2732 167.186L95.2993 166.114L94.5142 164.362L94.9747 161.863L96.2203 159.742L97.9416 158.542L98.2134 156.79L98.9985 155.348L100.139 154.457L99.9045 153.053L101.845 150.705L102.388 149.444L102.434 147.67L98.6286 146.84L97.2924 146.1L95.7296 146.863L94.0989 146.206L92.0983 147.134L90.3922 146.515L89.7505 144.507L90.1204 141.676L91.2151 139.343L92.3777 138.868L92.8608 137.275L92.6721 135.063L91.2302 134.111L91.3132 133.455L84.5111 134.859L78.5169 136.905L74.3722 137.546L70.9297 137.584L67.7438 134.965L61.8855 131.469L58.1334 127.438L56.4197 127.023L55.1438 124.728L54.2303 123.897H53.6717L52.6525 121.829L52.8941 120.809L51.7767 119.82L54.8041 117.231L54.2303 113.335L54.7588 112.324L59.5376 110.769L61.1154 109.236L62.9499 109.425L63.6822 108.7L64.7693 108.783L65.8338 108.323L67.2229 106.503L67.7438 105.054L67.4947 104.284L66.0074 104.412L64.5882 102.834L64.8146 101.694L64.2107 100.305L64.2862 98.3347L63.2519 98.3724L61.3041 97.2777V96.8021L59.7339 95.7377L55.9214 94.6203L53.8151 92.0082L48.8476 94.1674L45.7749 94.9148L45.2012 94.2655L45.5635 92.733L47.0281 91.51L47.1716 89.9699L47.9039 88.309L47.1565 86.55L49.3232 83.9303L49.1948 83.3264L48.5078 82.8734L48.9457 81.3333L48.4474 79.7328L50.1234 77.8002L50.0857 75.3692L51.1124 74.7275L53.7547 75.9505Z" fill="#CCCCCC" stroke="white" stroke-width="0.5"/>
<path d="M173.776 105.47L177.249 107.81L178.019 106.957L181.046 107.168L184.247 105.983L184.39 111.517L184.073 112.513L186.625 115.39L188.392 115.473L188.965 116.197L189.282 118.825L188.897 121.293L190.128 121.746L193.012 120.976L193.11 122.245L191.864 124.623L193.08 126.382L193.095 127.831L191.947 129.877L192.997 131.591H196.439L200.357 132.897L201.301 132.316L203.226 132.92L206.586 131.84L213.886 132.399L215.705 133.992L217.97 134.86L218.287 135.668L219.548 135.849L220.228 136.702L221.216 136.309L222.107 138.808L223.881 139.095L223.149 140.024L222.289 139.759L221.73 141.02L220.469 141.186L220.658 145.029L219.91 145.852L218.967 146.078L218.876 147.399L216.249 146.743L214.588 147.92L213.38 148.185L208.201 148.388L208.722 149.219L210.141 149.506L210.043 150.563L210.783 150.933L211.342 152.374L212.406 152.91L211.47 154.956L211.591 156.564H212.58L213.637 156.006L214.082 156.255L217.744 155.719L218.733 156.149L219.435 157.1L218.952 159.229L219.525 160.007L219.578 161.162L221.571 163.268L223.127 163.457L226.078 163.578L227.898 163.125L229.302 160.792L230.729 159.622L233.809 158.255L235.477 160.958L234.972 161.887L232.948 162.113L233.937 163.721L233.968 165.39L234.957 165.971L234.76 166.401L232.994 166.688L233.507 167.783L234.775 168.878L237.599 169.95L244.929 168.606L245.662 170.274L247.436 170.772L247.655 172.486L249.806 175.446L250.033 176.646L250.539 177.137L248.183 177.114L248.546 176.502L247.307 176.087L245.979 177.159L245.405 178.805L243.08 177.899L242.476 177.076L238.459 176.91L237.999 177.922L238.731 178.269L239.592 180.806L239.146 181.915L238.203 181.976L237.916 182.572L236.927 183.048L237.267 184.346L236.625 184.86L235.243 184.633L235.085 185.207L234.383 185.184L232.624 183.893L230.366 184.097L229.332 182.904L227.467 182.618L226.139 183.478L225.98 185.849L223.783 186.543L221.964 186.649L220.756 185.554L220.311 184.324L219.337 183.478L219.367 181.568H218.114L217.329 179.318L216.264 178.805L215.721 179.59L214.943 179.628L215.034 181.236L214.045 182.308L211.372 181.953L210.572 182.512L209.651 182.119L209.077 182.429L208.488 181.5L207.627 182.263L207.039 181.485L206.337 181.644L206.238 181.009L205.619 180.534L204.389 181.893L203.022 181.998L202.909 183.312L201.029 184.573L199.293 183.81L198.221 185.396L198.681 186.158L197.791 186.279L196.469 188.068L196.409 189.835L196.009 190.061L195.805 189.548L194.861 190.431L195.367 191.465L194.658 191.669L193.646 194.055L194.65 195.286L194.718 194.712L195.307 194.591L195.964 195.414L196.296 194.916L196.854 195.429L197.617 195.452L196.854 196.274L197.791 200.102L198.538 201.763L199.942 203.28L199.655 203.756L198.847 203.779L198.689 206.157L199.482 207.802L201.12 208.852L202.32 211.728L201.203 212.098L200.712 213.366L199.64 214.129L199.814 218.666L201.158 217.881L201.807 218.764L201.845 219.836L202.735 219.995L203.883 220.901L204.004 221.452L203.43 222.131L203.528 223.445L205.763 224.079L206.699 225.061L206.427 225.619L206.699 226.253L205.936 227.424V229.371L207.529 232.935L210.013 233.508L210.7 231.893L211.274 231.953L211.817 233.425L212.467 232.92L214.505 232.731L216.324 233.984L216.083 235.29L216.536 236.422L215.781 237.26L215.939 241.277L214.648 242.115L214.173 243.141L213.063 242.356L212.791 241.647L211.644 241.866L210.511 241.088L207.227 237.789L201.965 233.569L201.158 232.323L200.471 232.753L200.055 232.361L198.832 230.579L198.108 227.952L193.253 224.426L192.951 223.181L190.989 221.21L188.995 220.878L187.418 222.969L185.749 223.505L184.806 224.698L183.13 224.2L182.352 224.532L180.427 223.936L178.275 224.283L177.43 223.936L177.075 223.981L176.886 225.083L172.915 224.713L172.44 225.642L171.979 224.555L170.431 223.505L169.986 221.044L167.517 220.674L166.445 218.092L163.788 215.397L164.12 214.725L162.572 212.77L162.437 211.706L163.244 211.215L163.418 209.758L162.437 207.908L160.119 209.879L158.941 210.309L157.175 209.796L156.11 211.396L155.801 212.853L154.547 213.616L151.882 209.879L150.78 209.629L149.64 210.226L148.915 211.992H148.327L147.708 211.313L147.617 210.203L145.714 208.52L144.424 209.796L143.865 208.958L142.944 209.056L142.612 207.35L141.57 205.689L137.32 204.186L136.074 204.458L134.768 205.666L134.896 206.655L131.552 213.736L130.563 212.627L128.728 212.687L128.94 211.872L127.626 213.208L127.347 212.687L125.875 212.136L126.358 211.456L126.071 211.275L123.421 211.441L123.504 210.943L122.198 209.629L121.254 209.735L118.257 207.923L114.196 208.791L113.237 207.78L112.316 208.686L110.866 208.625L110.323 209.222L109.59 207.455L109.032 203.65L108.367 202.586L106.42 201.083V198.268L105.906 196.705L107.809 195.497L108.058 193.066L109.062 192.432V190.967L108.601 190.107L108.956 188.914L107.567 189.427L107.28 187.985L108.043 187.638L107.997 186.483L109.99 186.77L110.594 186.422L111.5 183.976L112.376 183.954L112.029 182.799L112.633 181.893L111.84 181.44L112.572 180.76H113.38L113.275 179.485L113.561 179.077L114.55 179.092L114.641 178.186L115.962 178.556L116.936 178.269L117.049 176.85L118.642 175.883L118.627 174.977L120.492 173.845L120.839 171.882L121.941 171.022L122.168 170.357L121.866 166.711L122.817 164.672L123.889 164.091L124.508 162.936L127.49 162.959L128.298 161.29L129.159 160.732L134.964 161.638L136.474 161.23L137.576 162.242L139.426 162.091L140.173 160.467L139.833 159.697L140.03 158.852L138.686 157.538L139.071 154.979L140.279 154.133L141.509 153.907L142.642 151.861L143.329 152.397L143.85 152.088L143.865 151.114L145.496 151.265L145.556 152.291L146.16 152.541L146.734 151.695L146.545 150.102H148.613L152.169 148.079L150.674 146.637L149.927 145.15L149.799 143.64L150.961 143.889L152.441 143.459L153.46 143.806L153.475 144.176L157.25 143.64L158.783 142.673L157.477 141.783L157.824 141.352L159.054 141.186L160.141 141.866L162.799 141.888L163.471 142.296L164.362 141.556L164.588 140.356L165.585 139.427L166.257 139.472L166.672 138.997L167.502 139.321L169.473 137.487L169.797 136.551L170.56 135.917L170.446 134.588L173.957 131.802L172.825 130.021L173.225 129.092L171.164 128.428L171.103 127.831L171.934 126.631L174.417 126.525L173.043 125.038L173.444 123.958L171.292 123.09L171.949 121.724L169.812 118.04L170.831 116.613L172.296 115.556L172.455 114.974L172.107 114.272L170.658 113.668L170.19 112.966L170.129 112.468L171.345 111.147L171.926 109.592L171.647 108.595L170.212 107.561V107.123L171.322 106.504L173.127 106.315L173.776 105.47Z" fill="#CCCCCC" stroke="white" stroke-width="0.5"/>
<path d="M172.438 225.641L172.914 224.713L176.885 225.083L177.074 223.981L177.428 223.935L178.274 224.283L180.425 223.935L182.351 224.532L183.128 224.2L184.804 224.698L185.748 223.505L187.416 222.969L188.994 220.878L190.987 221.21L192.95 223.18L193.252 224.426L198.106 227.952L198.831 230.579L200.054 232.36L200.469 232.753L201.156 232.323L201.964 233.568L207.226 237.789L210.51 241.088L211.642 241.865L212.79 241.646L213.062 242.356L214.172 243.141L214.647 242.114L215.938 241.276L215.78 237.26L216.535 236.422L216.082 235.29L216.323 233.984L214.504 232.73L212.465 232.919L211.816 233.425L211.273 231.953L210.699 231.892L210.012 233.508L207.528 232.934L205.935 229.371V227.423L206.698 226.253L206.426 225.619L206.698 225.06L205.761 224.079L203.527 223.445L203.429 222.131L204.002 221.452L203.882 220.9L202.734 219.995L201.843 219.836L201.806 218.764L201.156 217.881L199.812 218.666L199.639 214.129L200.711 213.366L201.202 212.098L202.319 211.728L201.119 208.852L199.48 207.802L198.688 206.156L198.846 203.778L199.654 203.756L199.941 203.28L198.537 201.763L197.789 200.102L196.853 196.274L197.616 195.451L196.853 195.429L196.294 194.915L195.962 195.413L195.305 194.591L194.717 194.711L194.649 195.285L193.645 194.055L194.656 191.669L195.366 191.465L194.86 190.431L195.804 189.548L196.008 190.061L196.408 189.834L196.468 188.068L197.789 186.279L198.68 186.158L198.22 185.395L199.292 183.81L201.028 184.572L202.908 183.312L203.021 181.998L204.387 181.892L205.618 180.534L206.237 181.009L206.335 181.643L207.037 181.485L207.626 182.262L208.487 181.5L209.076 182.428L209.649 182.119L210.57 182.512L211.371 181.953L214.043 182.308L215.032 181.236L214.942 179.628L215.719 179.59L216.263 178.805L217.327 179.318L218.112 181.568H219.366L219.335 183.478L220.309 184.323L220.755 185.554L221.963 186.649L223.782 186.543L225.979 185.848L226.137 183.478L227.466 182.617L229.331 182.904L230.365 184.097L232.622 183.893L234.381 185.184L235.083 185.207L235.242 184.633L236.624 184.859L237.265 184.346L236.926 183.048L237.915 182.572L238.201 181.975L239.145 181.915L239.591 180.805L238.73 178.269L237.998 177.921L238.458 176.91L242.474 177.076L243.078 177.899L245.404 178.805L245.977 177.159L247.306 176.087L248.544 176.502L248.182 177.114L250.537 177.136L253.595 178.125L254.108 179.733L254.757 179.22L254.916 178.208L255.361 178.042L257.807 178.125L259.015 178.744L259.204 180.081L258.774 181.115L257.037 181.938L256.66 184.036L258.026 184.731L258.215 186.754L259.748 187.638L263.13 190.884L266.316 192.205L267.252 192.243L267.161 191.178L267.75 190.763L268.958 191.337L269.116 190.167L270.332 190.106L270.74 189.548L270.536 187.962L271.585 187.902L272.431 188.438L273.835 190.967L275.186 190.869L275.269 189.593L274.091 188.257L274.695 187.388V186.566L275.171 186.362L277.119 186.981L278.787 188.438L278.697 186.173L280.954 186.996L282.728 186.852L282.788 189.465L284.721 190.061L285.325 191.095L285.28 191.646L284.223 192.824L284.812 201.128L283.634 204.209L284.48 204.948L287.862 206.036L289.485 207.04L289.017 208.376L289.447 208.648L289.591 210.595L291.395 210.573L290.549 212.075L287.295 212.732L287.031 213.532L287.967 214.272L288.337 216.122L289.613 217.82L291.886 225.392L290.202 226.683L289.643 227.733L288.496 227.65L287.877 228.201L286.676 228.306L281.55 231.341L278.025 232.587L276.862 234.044L275.065 234.988L272.544 238.204L269.388 239.004L269.215 239.389L270.823 240.574L272.144 240.023L273.019 240.287L273.518 242.054L273.933 242.341L275.556 241.79L276.19 242.711L276.288 245.104L277.708 246.395L277.549 245.7L278.108 244.266L279.52 244.206L279.044 246.168L281.135 249.218L281.784 248.562L280.69 245.557L280.833 244.591L282.615 243.383L283.634 241.027L286.231 240.967L286.518 241.865L286.103 243.851L286.978 244.062L287.046 244.9L286.661 246.599L285.295 246.969L285.068 249.626L285.416 249.875L285.755 249.483L285.899 248.682L286.79 248.705L287.107 246.538L287.967 245.98L288.05 247.089L289.055 248.728L290.157 249.46L291.01 250.728V251.695L291.636 252.306L291.923 253.884L293.388 254.722L291.765 256.436L290.489 256.911L288.715 256.255L288.209 255.235L287.137 255.537L284.683 255.107L284.095 255.824L285.401 256.458L285.257 257.153L283.83 257.832L281.641 257.628L278.266 258.383L278.251 260.037L278.968 262L276.673 262.287L274.627 263.94L277.723 268.175L278.108 277.733L278.697 278.442L279.973 278.563L279.859 280.081L281.392 280.79L282.396 282.753L286.027 284.935L286.993 286.256L288.066 285.69L288.481 286.445L290.308 287.751L286.374 290.174L284.54 294.047L283.219 294.153L282.268 294.825L277.677 293.662L273.895 292.19L269.743 294.764L267.523 297.92L267.282 299.815L266.806 300.162L264.194 300.222L262.647 298.245L261.982 298.856L261.997 299.815L260.895 300.917L258.66 301L257.611 300.592L256.086 299.551L254.652 296.803L252.5 296.025L249.805 292.99L247.283 292.054L246.966 291.42L247.14 288.687L246.121 288.664L244.8 287.645L243.494 287.524L242.686 286.399L241.976 286.46L240.61 287.811L238.662 288.113L238.239 287.26L236.548 285.871L232.275 285.38L230.297 283.055L224.945 279.137L223.608 279.341L223.276 280.36L222.332 281.243L222.702 284.218L222.129 285.139L222.521 286.279L221.547 289.744L219.003 289.97L216.897 290.748L215.863 291.888L208.517 293.194L208.23 290.967L207.015 289.525L206.909 287.955L206.033 286.935L206.524 286.097L205.648 284.542L204.342 284.912L204.153 283.833L201.549 283.523L201.556 282.527L200.054 282.693L198.763 281.077L197.344 280.284L196.71 279.182L194.43 278.08L192.248 277.914L191.765 279.545L190.557 279.665L189.583 278.012L190.187 274.071L191.161 273.588L191.78 272.274L190.889 270.5L190.783 269.421L188.904 266.945L185.008 266.393L183.272 263.879L181.747 263.577L181.218 261.917L178.908 261.079L176.945 259.199L177.685 256.504L177.443 255.907L178.591 252.555L179.565 251.778L178.251 251.362L177.376 250.306L176.394 250.917L174.763 251.098L174.446 250.2L174.175 250.547L173.918 249.83L173.442 249.792L172.408 249.664L171.751 242.711L168.837 236.339L168.422 234.082L169.758 233.553L171.193 236.89L174.031 236.316L173.17 233.206L172.121 232.564L173.027 228.095L172.363 227.733L170.845 227.808L169.668 226.11L170 225.785L172.438 225.641Z" fill="#CCCCCC" stroke="white" stroke-width="0.5"/>
<path d="M221.73 141.02V142.771L223.353 143.7L224.772 145.647L227.528 145.768L230.472 145.006L231.703 144.258L233.469 144.802L235.93 144.757L236.081 145.209L236.368 145.111L236.164 146.244L236.866 146.448L237.886 145.421L239.003 145.353L240.241 144.341L241.6 144.877L245.133 144.673L248.787 142.258L249.836 142.733L250.236 143.722L252.192 145.353L252.403 146.719L253.249 146.802L253.007 148.554L254.2 148.765L255.363 148.146L256.087 148.267L256.88 151.634L259.507 153.491L259.688 154.586L260.292 154.835L260.783 156.337L261.885 157.304L260.051 157.764L259.462 158.255L259.205 159.267L255.846 157.991L255.061 157.145L254.6 157.243L254.842 158.134L254.238 158.466L253.521 160.837L256.85 162.837L255.212 163.698L253.883 163.887L251.973 163.245L251.497 163.434L249.663 162.445L249.134 163.041L249.315 163.97L247.768 164.544L247.141 164.362L247.164 166.899L246.922 167.103L246.001 166.091L244.627 167.141L244.529 168.092L244.929 168.605L237.599 169.949L234.775 168.877L233.507 167.782L232.994 166.688L234.76 166.401L234.956 165.97L233.967 165.389L233.937 163.721L232.948 162.113L234.972 161.886L235.477 160.958L233.809 158.255L230.729 159.621L229.302 160.792L227.898 163.124L226.078 163.577L223.126 163.456L221.571 163.268L219.578 161.161L219.525 160.006L218.952 159.229L219.435 157.1L218.733 156.149L217.744 155.718L214.082 156.254L213.637 156.005L212.58 156.564H211.591L211.47 154.956L212.406 152.91L211.342 152.374L210.783 150.932L210.043 150.562L210.141 149.505L208.722 149.218L208.201 148.388L213.38 148.184L214.588 147.92L216.249 146.742L218.876 147.399L218.967 146.078L219.91 145.851L220.658 145.028L220.469 141.186L221.73 141.02Z" fill="#CCCCCC" stroke="white" stroke-width="0.5"/>
<path d="M277.95 79.8613L279.045 80.7748L280.623 80.4653L280.849 82.5187L282.14 84.0362L282.261 86.0896L283.522 86.3161L285.054 85.6744L286.375 86.6709L286.587 87.6901L288.368 88.5809L289.863 87.5467L291.637 89.5397L292.687 89.9549L291.97 91.2383L292.158 92.3557L291.751 94.3487H290.663L290.46 94.9149L290.95 95.6397L292.324 96.0926L293.2 97.0892L292.483 97.7535L293.102 98.6217L292.928 98.9539L290.996 99.3314L291.796 100.177L293.932 100.653L293.849 101.649L294.551 102.125L297.496 102.774L297.42 103.786L298.485 104.367L300.863 104.306L302.025 103.68L303.248 104.556L304.381 103.514L305.166 103.914L305.294 105.446L305.944 106.481L309.598 105.424L310.549 106.254L310.443 107.953L311.168 109.198L311.855 112.075L311.825 114.272L312.814 115.449L312.028 117.812L312.972 118.515L313.085 119.322L311.998 120.024V120.462L313.463 120.523L314.897 121.247L314.678 122.425L315.169 124.063L316.8 124.252L317.494 124.848L319.986 124.169L321.224 125.075L324.032 124.456L326.644 125.452L326.84 126.547L329.196 127.204L331.159 127.249L331.249 127.604L332.352 127.951L334.073 127.747L333.658 128.963L334.058 129.522L335.152 129.091L336.972 129.356L338.293 128.903L339.471 129.174L340.429 129.008L341.962 129.914L342.709 129.522L344.189 132.421L345.925 132.526L349.368 131.696L349.715 133.432L348.877 133.991L348.719 135.539L347.73 137.894L346.643 138.747L343.744 139.925L342.438 139.238L343.109 137.818L342.483 137.026L340.731 136.95L340.256 137.856L339.41 138.105L339.154 136.762L334.881 136.656L332.412 135.727L330.102 137.26L329.573 137.131L327.95 137.917L326.856 139.864L327.837 140.649L327.52 141.246L327.852 142.96L327.444 144.077L326.372 144.326L326.214 145.436L325.549 146.349L322.137 148.184L321.609 149.565L322.658 150.373L322.998 151.362L320.559 152.563L321.533 154.004L322.137 154.05L321.835 154.54L322.628 154.669L322.756 155.696L322.099 156.752L322.673 156.934L322.394 157.409L321.994 157.349L322.281 158.074L321.609 159.017L322.409 160.814L322.968 160.776L322.869 162.196L324.017 162.218L324.364 162.754L323.745 163.909L324.017 164.528L325.542 165.532L326.84 165.389L327.286 164.71L327.663 164.793L328.079 165.306L327.935 165.782L328.622 165.683L329.256 166.152L329.43 168.28L330.962 167.473L331.566 168.318L332.412 167.986L334.465 169.888L336.685 170.734L337.387 170.568L338.233 171.882L336.255 171.497L334.737 172.501L332.797 171.927L330.947 172.131L329.573 174.788L328.683 174.871L326.886 175.898L325.021 179.031L323.556 180.329L320.016 181.749L315.041 182.285L316.03 180.307L318.936 178.457L319.616 177.362L319.872 175.43L316.943 174.977L315.652 175.671L314.995 175.49L313.916 176.026L313.402 175.739L313.591 175.015L312.912 173.452L312.61 170.666L311.175 170.319L309.96 167.888L308.322 167.163L306.646 168.401V167.888L305.694 166.959L303.271 165.683L300.047 166.34L297.707 165.782L296.446 166.446L295.427 166.174L293.661 166.446L290.95 165.925L289.773 164.838L286.836 166.506L283.19 166.318L281.657 166.627L279.219 165.865L277.769 166.446L275.942 166.152L275.799 168.877L274.666 168.009L274.81 164.46L273.662 163.909L273.677 162.279L272.847 161.207L272.318 161.161L272.16 162.158L271.495 162.792L269.902 163.124L268.196 162.875L266.46 161.456L264.701 162.09L263.576 161.554L262.074 162.467L261.455 162.399L261.183 163.434L263.304 164.755L263.274 165.532L262.247 167.473L262.776 168.462L261.968 169.33L264.021 170.115L263.795 173.24L261.87 171.821L259.892 171.036L254.426 169.722L253.309 169.7L252.773 170.198L249.33 171.164L247.435 170.772L245.661 170.274L244.929 168.605L244.529 168.092L244.627 167.14L246.001 166.091L246.922 167.103L247.164 166.899L247.141 164.362L247.768 164.543L249.315 163.97L249.134 163.041L249.662 162.445L251.497 163.434L251.973 163.245L253.883 163.887L255.211 163.698L256.85 162.837L253.52 160.837L254.237 158.466L254.841 158.134L254.6 157.243L255.06 157.145L255.845 157.991L259.205 159.266L259.462 158.255L260.05 157.764L261.885 157.304L260.783 156.337L260.292 154.835L259.688 154.586L259.507 153.491L256.88 151.634L256.087 148.267L255.362 148.146L254.2 148.765L253.007 148.554L253.248 146.802L252.403 146.719L252.191 145.353L250.236 143.722L249.836 142.733L248.787 142.258L245.133 144.673L241.6 144.877L240.241 144.341L239.003 145.353L237.885 145.421L236.866 146.447L236.164 146.244L236.368 145.111L236.081 145.209L235.93 144.756L233.469 144.802L231.702 144.258L230.472 145.006L227.527 145.768L224.772 145.647L223.353 143.699L221.729 142.771V141.019L222.288 139.759L223.149 140.023L223.881 139.094L222.107 138.807L221.216 136.309L220.227 136.701L219.548 135.848L218.287 135.667L217.97 134.859L215.705 133.991L213.886 132.398L206.585 131.839L203.226 132.919L201.301 132.315L200.357 132.896L196.439 131.59H192.996L191.947 129.876L193.094 127.831L193.079 126.381L191.864 124.622L193.11 122.244L193.011 120.976L190.127 121.746L188.897 121.293L189.282 118.824L188.965 116.197L188.391 115.472L186.625 115.389L184.073 112.513L184.39 111.516L184.246 105.982L181.046 107.168L178.018 106.956L177.248 107.809L173.775 105.469L173.79 105.258L174.515 104.14L174.077 103.68L174.847 102.917L175.293 101.506L175.61 97.5874L174.749 96.6362L175.164 94.2053L176.267 93.707L176.727 92.7558L178.29 92.2349L181.619 92.1896L184.458 91.0496L186.021 91.0345L186.609 90.0984L187.976 89.7889L188.331 88.7093L191.358 89.434L195.941 88.9735L196.31 89.7662L197.269 89.8266L198.221 90.4683L199.98 94.6431L200.5 94.7262L201.444 94.0392L201.859 92.4614L202.826 92.1896L203.611 92.9219L204.721 92.6274L205.778 93.5636L207.529 93.9335L211.5 93.4201L213.342 94.6809L215.803 94.0165L219.404 94.2657L221.903 91.7366L226.138 91.865L226.569 90.4683L228.705 89.8266L227.701 87.4787L228.471 87.5014L229.604 88.3545L230.91 88.4979L235.356 91.5479L238.429 91.797L240.195 92.7935L244.242 93.9184L247.541 96.304L247.299 94.6658L247.858 94.0165L250.078 95.2471L251.905 95.6774L251.973 96.8853L252.607 97.1949L253.037 98.6066L255.619 99.9731L256.321 99.7239L256.782 100.819L257.899 100.758L258.027 99.6786L259.273 98.9765L259.975 99.1653L261.009 98.7727L261.243 100.328L260.941 101.03L259.749 101.732L259.718 102.774L259.937 103.166L262.044 103.582L262.587 104.118L264.323 103.68L268.702 101.279L268.4 100.011L268.944 99.8447L270.461 96.5683L271.065 96.1379L271.141 92.9219L272.515 89.0566L274.379 88.3771L275.799 87.1918L279.4 86.3841L280.132 84.9874L277.98 82.6471L277.535 80.1709L277.95 79.8613Z" fill="#CCCCCC" stroke="white" stroke-width="0.5"/>
<path d="M256.593 46.5759L256.91 46.8854L258.012 46.6363L258.511 47.2403L260.813 47.0138L262.248 48.6746L265.788 49.8222L266.589 49.5957L268.212 50.4488L271.783 49.3616L274.395 49.4673L276.607 47.7838L278.683 47.6781L280.419 48.7199L281.469 47.5724L283.552 47.9499L282.903 50.8262L283.129 53.846L279.06 54.0121L278.517 54.5934L278.524 57.2584L276.561 58.7532L275.957 59.8554L275.301 59.7572L274.727 60.2555L274.636 62.3995L273.164 68.8845L271.745 70.4473L270.522 70.719L270.122 71.5872L269.231 71.859L269.201 73.5652L268.642 74.8561L267.91 74.8108L267.857 75.6186L267.291 75.6035L267.427 76.7208L266.694 79.9671L267.427 80.2162L268.023 79.8992L270.19 77.7174L272.341 78.0344L272.892 78.4723L275.067 77.2644L275.859 77.9514L277.377 77.5966L278.041 78.7592L277.951 79.8614L277.535 80.1709L277.981 82.6472L280.132 84.9875L279.4 86.3841L275.799 87.1919L274.38 88.3772L272.515 89.0566L271.141 92.922L271.065 96.138L270.461 96.5683L268.944 99.8448L268.4 100.011L268.702 101.279L264.324 103.68L262.587 104.118L262.044 103.582L259.938 103.167L259.719 102.774L259.749 101.732L260.942 101.03L261.244 100.328L261.01 98.7728L259.975 99.1653L259.273 98.9766L258.028 99.6787L257.899 100.758L256.782 100.819L256.321 99.724L255.619 99.9731L253.037 98.6067L252.607 97.195L251.973 96.8854L251.905 95.6775L250.078 95.2472L247.858 94.0166L247.3 94.6659L247.541 96.3041L244.242 93.9185L240.196 92.7936L238.429 91.7971L235.357 91.548L230.91 88.498L229.604 88.3545L228.471 87.5015L227.701 87.4788L228.706 89.8267L226.569 90.4684L226.139 91.865L221.903 91.7367L219.405 94.2658L215.803 94.0166L213.342 94.681L211.5 93.4202L207.529 93.9336L205.778 93.5637L204.721 92.6275L203.611 92.922L202.826 92.1897L201.86 92.4614L201.444 94.0393L200.501 94.7263L199.98 94.6432L198.221 90.4684L197.27 89.8267L196.311 89.7663L195.941 88.9736L191.358 89.4341L188.331 88.7094L188.135 87.4184L189.154 86.2331L190.528 87.1315L191.66 86.7541L191.751 85.5537L191.147 84.8667L191.804 83.6814L193.065 83.4776L193.027 81.1448L193.487 80.3974L193.502 79.1518L194.892 80.2313L195.533 81.8092L197.39 78.4723L198.538 80.0653L199.897 78.6384L202.32 78.5931L203.8 79.5519L206.782 77.9514L208.307 77.657V74.9165L209.394 73.5425L209.168 72.2742L210.368 71.4211L209.092 70.6133L209.409 69.798L210.338 69.4658L211.304 67.2236L210.73 66.0384L211.817 65.6609L211.546 64.2492L213.237 62.6034L213.773 60.7764L214.158 60.4442L214.815 60.7538L215.449 59.9837L215.388 58.0888L217.585 56.6091L218.65 56.3826L220.401 57.0696L222.017 58.3002L222.273 57.6962L222.923 58.7154L223.64 58.2549L223.398 54.299L224.742 55.4012L226.335 53.6346L227.973 52.7212L229.996 54.533L230.442 56.7979L231.318 58.0888L233.771 55.9221L233.635 54.0725L235.591 52.321L236.738 50.177L238.573 49.3465L240.671 47.7385L244.008 47.8669L246.19 49.0295L246.922 48.116L248.47 47.5347L249.761 46.2588L252.501 47.3686L252.75 48.116L253.249 48.0707L253.551 46.8477L254.759 46.7193L254.97 46.1758L256.593 46.5759Z" fill="#CCCCCC" stroke="white" stroke-width="0.5"/>
<path d="M247.436 170.772L249.33 171.164L252.773 170.198L253.309 169.7L254.426 169.722L259.892 171.036L261.87 171.821L263.795 173.24L264.022 170.115L261.968 169.33L262.776 168.461L262.248 167.472L263.274 165.532L263.304 164.755L261.183 163.434L261.455 162.399L262.074 162.467L263.576 161.554L264.701 162.09L266.46 161.456L268.197 162.875L269.903 163.124L271.496 162.792L272.16 162.158L272.319 161.161L272.847 161.206L273.677 162.278L273.662 163.909L274.81 164.46L274.666 168.008L275.799 168.877L275.942 166.151L277.769 166.446L279.219 165.864L281.657 166.627L283.19 166.317L286.836 166.506L289.773 164.838L290.951 165.925L293.661 166.446L294.68 166.174L296.447 166.446L297.707 165.781L300.048 166.34L303.271 165.683L305.695 166.959L306.646 167.888V168.401L308.322 167.163L309.96 167.888L311.176 170.319L312.61 170.666L312.912 173.452L313.591 175.014L313.403 175.739L313.916 176.026L314.996 175.49L315.652 175.671L316.943 174.977L319.872 175.43L319.616 177.362L318.936 178.457L316.03 180.307L315.041 182.284L320.016 181.748L323.557 180.329L325.021 179.031L326.886 175.898L328.683 174.871L329.574 174.788L330.948 172.13L332.797 171.927L334.737 172.5L336.255 171.496L338.233 171.881L339.811 173.942L338.633 174.252L338.421 175.014L337.561 175.573L337.893 176.124L337.259 178.268L337.765 178.683L337.417 178.97L337.047 178.721L336.202 179.687L336.655 180.065L337.1 179.876L336.987 181.877H336.398L336.066 182.7L335.485 182.617L335.266 183.523L336.202 184.73L335.334 185.206L335.983 185.803L336.67 190L336.474 193.601L336.783 195.186L336.202 197.429L336.353 198.72L335.507 199.195L332.442 202.751L333.575 206.775L333.129 207.885L334.058 209.772L333.114 211.108L334.292 211.539L336.126 213.486L336.338 214.392L333.945 215.276L330.328 215.502L326.999 219.767L325.036 217.163L323.3 216.446L322.537 215.525L318.181 214.211L316.989 213.018L315.441 214.785L315.207 215.849L314.293 215.359L313.863 214.105L312.172 213.819L311.462 217.699L310.217 218.93L306.85 219.239L306.563 217.963L305.257 217.246L303.203 218.273L302.916 219.549L301.641 219.79L302.697 224.199L301.18 224.878L298.87 224.509L297.405 224.856L294.997 224.592L291.887 225.392L289.614 217.82L288.338 216.121L287.969 214.271L287.032 213.532L287.297 212.731L290.55 212.075L291.396 210.572L289.592 210.595L289.448 208.647L289.018 208.375L289.486 207.039L287.863 206.035L284.481 204.948L283.635 204.208L284.813 201.128L284.224 192.824L285.281 191.646L285.326 191.095L284.722 190.06L282.79 189.464L282.729 186.852L280.955 186.995L278.698 186.172L278.788 188.437L277.12 186.98L275.172 186.361L274.697 186.565V187.388L274.093 188.256L275.27 189.592L275.187 190.868L273.836 190.966L272.432 188.437L271.586 187.901L270.537 187.962L270.741 189.547L270.333 190.106L269.118 190.166L268.959 191.336L267.751 190.763L267.162 191.178L267.253 192.242L266.317 192.204L263.131 190.883L259.749 187.637L258.216 186.754L258.027 184.73L256.661 184.036L257.038 181.937L258.775 181.114L259.205 180.08L259.016 178.744L257.808 178.125L255.362 178.042L254.917 178.208L254.758 179.219L254.109 179.733L253.596 178.125L250.538 177.136L250.033 176.645L249.806 175.445L247.654 172.485L247.436 170.772Z" fill="#CCCCCC" stroke="white" stroke-width="0.5"/>
<path d="M347.616 35.9014L351.504 41.6163L351.949 40.8387L353.429 40.3027L354.848 42.5902L353.859 43.5716L353.988 43.9038L354.848 44.7191L356.154 44.7644L356.985 46.3423L358.276 46.531L358.563 46.9689L359.325 46.8481L359.755 47.301L360.503 46.9311L360.933 48.2372L361.975 47.4294L363.455 48.056L364.413 47.988L364.647 49.1808L366.799 49.4677L368.264 50.9474L368.558 51.8232L370.528 52.865L370.438 53.6728L369.336 54.6995L368.649 54.7825L368.505 55.4846L367.728 55.9904L366.656 55.8848L366.18 56.4208L367.01 57.6136L367.041 59.3198L367.984 60.8598L370.725 61.1467L372.605 61.9168L373.767 61.6299L376.009 62.0451L375.904 66.1596L374.9 67.7449L375.315 69.7002L377.542 72.335L378.048 73.8751L379.059 74.5847L379.49 75.6039L379.61 76.6004L378.772 77.4686L379.724 78.284L379.965 79.8165L379.135 80.8961L383.068 84.5727L383.468 85.6371L382.608 90.3027L380.63 92.5449L380.743 94.9305L381.43 95.391L382.91 95.0966L383.566 93.5867L384.314 93.481L384.518 96.7575L383.853 97.3614L385.65 99.7848L386.322 100.094L385.922 100.736L386.684 102.774L386.118 102.752L386.133 103.643L388.677 108.119L389.176 110.996L388.745 112.679L383.71 113.178L381.06 117.601L378.463 118.432L377.414 117.692L377.187 118.334L376.553 118.515L375.488 118.039L373.684 120.855L371.261 121.701L370.37 122.471L369.094 122.426L366.482 123.196L365.795 122.365L365.002 122.78L363.9 122.41L363.122 123.399L359.74 124.102L358.849 125.158L358.638 126.336L356.887 127.763L354.992 127.393L353.64 128.057L353.165 129.258L348.522 129.854L349.367 131.696L345.925 132.527L344.188 132.421L342.709 129.522L341.961 129.915L340.429 129.009L339.47 129.175L338.496 128.903L336.971 129.356L335.152 129.092L334.057 129.522L333.657 128.963L334.072 127.748L332.351 127.952L331.249 127.605L331.158 127.25L329.195 127.204L326.84 126.548L326.644 125.453L324.031 124.456L321.223 125.075L319.985 124.17L317.494 124.849L316.799 124.253L315.168 124.064L314.678 122.426L314.897 121.248L313.462 120.523L311.998 120.463V120.025L313.085 119.323L312.971 118.515L312.028 117.813L312.813 115.45L311.824 114.272L311.854 112.075L311.167 109.199L310.442 107.953L310.548 106.255L309.597 105.424L305.943 106.481L305.294 105.447L305.165 103.914L304.38 103.514L303.248 104.556L302.025 103.68L300.862 104.307L298.484 104.367L297.42 103.786L297.495 102.774L294.551 102.125L293.849 101.65L293.932 100.653L291.795 100.177L290.995 99.3318L292.928 98.9544L293.101 98.6222L292.482 97.754L293.199 97.0896L292.324 96.0931L290.95 95.6401L290.459 94.9154L290.663 94.3492H291.75L292.158 92.3561L291.969 91.2388L292.686 89.9554L291.637 89.5402L289.863 87.5471L288.368 88.5814L286.586 87.6906L286.375 86.6714L285.054 85.6749L283.521 86.3166L282.26 86.0901L282.14 84.0366L280.849 82.5192L280.622 80.4658L279.044 80.7753L277.95 79.8618L278.04 78.7596L277.376 77.597L275.858 77.9518L275.066 77.2648L272.891 78.4727L272.34 78.0348L270.189 77.7178L268.022 79.8995L267.426 80.2166L266.693 79.9675L267.426 76.7212L267.29 75.6039L267.856 75.619L267.909 74.8112L268.641 74.8565L269.2 73.5656L269.23 71.8594L270.121 71.5876L270.521 70.7194L271.744 70.4476L273.163 68.8849L274.635 62.3999L274.726 60.2559L275.3 59.7576L275.957 59.8558L276.56 58.7535L278.523 57.2588L278.516 54.5938L279.059 54.0125L283.129 53.8464L282.902 50.8266L283.551 47.9503L285.28 47.1953L285.854 47.988L287.839 48.1768L294.777 47.2784L295.193 47.9503L295.042 48.8034L296.37 48.9921L296.816 49.8452L297.797 50.2982L298.854 49.7999L300.017 50.4718L299.941 52.4271L301.021 53.4916L301.225 55.4695L302.931 56.0282L304.018 54.6995L304.992 54.322L306.215 54.7146L306.743 55.6507L306.932 55.2582L307.966 55.1978L308.095 53.9898L309 54.1937L311.635 51.6344L312.081 51.4306L312.526 52.261L313.5 50.5095L313.56 50.1547L312.67 49.4073L312.987 48.8034L313.976 48.592L312.971 44.1529L313.53 43.632L314.647 43.866L316.203 42.0693L317.494 41.7824V41.3672L319.17 41.1935L320.189 39.9252L321.751 40.3857L321.246 40.8614L320.159 40.4235L319.63 42.0919L320.528 43.0733L321.45 43.3225L322.152 43.0507L321.419 41.6993L322.053 41.1935L324.364 41.9485L325.322 41.4049L325.466 40.3857L326.1 39.5477L328.236 39.4043L328.425 36.611L328.856 36.3996L331.724 36.3392L334.865 38.1511L337.862 38.5286L340.399 37.7132L344.362 37.8416L347.616 35.9014Z" fill="#CCCCCC" stroke="white" stroke-width="0.5"/>
<path d="M415.706 1.60396L420.25 1.79269L421.473 4.28401L423.663 5.57497L425.241 7.25094L426.637 7.50007L428.087 9.46293L427.996 10.6557L427.309 11.2446L426.924 12.4752L426.962 15.193L426.562 16.3178L424.153 16.8236L422.878 18.0165L422.893 21.459L425.097 21.4137L425.331 22.1309L423.821 26.2831L428.185 30.7675L428.072 32.753L428.472 32.8587L429.234 34.6479L431.069 33.0399L432.36 34.5044L432.284 35.6067L431.069 36.8825L431.695 37.5091L439.592 38.717L438.143 46.2816L436.15 46.2589L435.025 45.2624L434.224 45.2398L434.081 47.0139L433.251 47.7009L433.394 49.2636L434.383 50.0941L434.209 51.3246L435.1 51.7625L435.817 51.4681L436.55 52.0116L437.826 53.6348L438.641 55.7788L441.902 56.4431L443.359 58.9647L444.363 59.5913L445.345 61.607L445.934 61.3352L446.96 62.4601L447.383 65.5176L448.583 65.8951L448.931 66.4084L451.022 66.2046L452.419 68.4317L452.517 70.0095L451.996 70.8399L452.404 72.0479L453.566 72.1686L454.336 72.9009L453.332 75.5206L453.574 76.2454L454.427 76.721L454.08 77.7628L453.408 77.5967L453.007 78.5932L456.631 80.9411L460.919 82.8285L463.275 85.7803L462.082 85.7577L461.365 86.4447L459.915 85.0556L459.319 85.969L457.024 84.7007L456.631 83.9911L455.627 83.908L455.068 82.8285L453.876 83.742L452.857 83.4777L452.26 82.8738L453.03 81.8319L452.962 81.2506L450.697 80.6089L448.727 79.469L449.248 78.5706L448.757 77.8005L446.085 76.8871L444.899 77.0984L444.696 76.0189L443.963 75.2488L443.02 75.3545L442.272 75.9736L441.049 75.9358L440.392 75.1205L440.309 73.7087L439.773 73.2105L438.384 73.5426L437.32 72.75L437.169 73.5879L436.693 73.7314L435.055 72.3347L435.455 71.3005L435.055 70.6965L434.353 70.6739L433.809 72.4178L431.831 73.3539L431.409 73.1878L430.397 70.9834L429.748 71.2552L429.317 72.0705L427.536 71.2552L426.766 73.8748L426.147 74.0032L425.845 73.2709L425.09 73.1274L423.051 73.9805L422.357 75.3092L420.635 76.3737L420.054 76.0566L416.596 76.351L415.215 80.1937L414.022 81.1902V82.4963L416.249 87.4789L416.966 93.979L418.318 96.1532L421.066 98.3954L422.213 100.449L422.062 102.585L420.651 104.986L419.45 106.005L417.238 106.171L416.68 104.412L415.313 102.857L414.468 103.831L413.063 104.533L411.357 104.307L410.768 103.786L408.503 105.092L407.356 104.578L405.952 105.054L403.898 101.778L399.376 98.8106L398.146 98.9994L396.024 100.698L394.303 103.62L393.427 103.68L392.189 103.038L389.955 104.035L388.09 103.763L386.686 102.774L385.923 100.736L386.323 100.094L385.651 99.7845L383.855 97.3612L384.519 96.7572L384.315 93.4807L383.568 93.5864L382.911 95.0963L381.431 95.3907L380.744 94.9302L380.631 92.5446L382.609 90.3024L383.47 85.6369L383.069 84.5724L379.136 80.8958L379.967 79.8162L379.725 78.2837L378.774 77.4684L379.612 76.6002L379.491 75.6036L379.061 74.5845L378.049 73.8748L377.543 72.3347L375.316 69.7L374.901 67.7447L375.905 66.1593L376.011 62.0448L373.768 61.6296L372.606 61.9165L370.726 61.1465L367.986 60.8596L367.042 59.3195L367.012 57.6133L366.181 56.4205L366.657 55.8845L367.729 55.9902L368.507 55.4844L368.65 54.7823L369.337 54.6992L370.439 53.6725L370.53 52.8647L368.559 51.8229L368.265 50.9472L366.8 49.4675L364.649 49.1806L364.415 47.9878L363.456 48.0557L361.976 47.4291L360.934 48.2369L360.504 46.9308L359.757 47.3008L359.326 46.8478L358.564 46.9686L358.277 46.5307L356.986 46.342L356.156 44.7641L354.85 44.7189L353.989 43.9035L353.861 43.5713L354.85 42.5899L353.43 40.3024L351.951 40.8384L351.505 41.616L347.617 35.9011L349.308 34.7989L354.072 33.2965L359.643 33.2512L366.227 36.2333L370.009 39.5701L377.045 41.5103L378.487 42.7786L379.536 45.0737L383.024 47.1347L383.802 46.1381L383.968 41.3442L382.224 37.8791L382.035 36.6938L382.548 35.4179L380.918 35.1311L380.201 34.0213L378.532 34.0439L378.804 33.0399L376.886 31.311L376.169 29.4992L376.479 28.4724L376.222 27.0305L376.713 25.5282L376.441 22.2743L377.475 19.3905L377 16.2348L377.702 15.9026L378.004 15.0269L376.939 13.7737L376.094 11.388L377.815 9.71961L378.532 10.618L379.061 10.701L379.695 9.90835L382.133 8.98732L382.511 8.91937L382.85 10.1801L384.232 8.67024L385.395 9.17605L386.595 9.07036L387.184 8.23237L387.086 7.33399L388.618 5.95244L389.607 6.08078L391.147 3.74045L391.804 3.58946L392.491 4.38215L393.797 2.77412L394.499 2.52499L394.703 3.42337L395.692 3.44602L396.568 4.78227L398.659 5.45417H400.524L401.256 4.42745L403.211 4.67658L405.016 2.96286L410.149 2.17016L412.12 1L415.706 1.60396Z" fill="#CCCCCC" stroke="white" stroke-width="0.5"/>
</svg>
