<svg width="28" height="28" viewBox="0 0 28 28" fill="none" xmlns="http://www.w3.org/2000/svg">
<path d="M20.3667 2.555C28.7297 7.97909 30.0921 17.4443 25.0857 23.4766C20.0793 29.5089 8.54074 29.1905 2.23677 24.3998C-4.0672 19.6092 4.9222 14.953 5.2461 7.97907C5.57001 1.0051 12.0036 -2.86908 20.3667 2.555Z" fill="#F7AD30"/>
<mask id="mask0_1717_43975" style="mask-type:alpha" maskUnits="userSpaceOnUse" x="3" y="3" width="24" height="25">
<rect x="3" y="3.5" width="24" height="24" fill="#D9D9D9"/>
</mask>
<g mask="url(#mask0_1717_43975)">
<path d="M15 16.5C14.0167 16.5 13.1875 16.1625 12.5125 15.4875C11.8375 14.8125 11.5 13.9833 11.5 13C11.5 12.0167 11.8375 11.1875 12.5125 10.5125C13.1875 9.8375 14.0167 9.5 15 9.5C15.9833 9.5 16.8125 9.8375 17.4875 10.5125C18.1625 11.1875 18.5 12.0167 18.5 13C18.5 13.9833 18.1625 14.8125 17.4875 15.4875C16.8125 16.1625 15.9833 16.5 15 16.5ZM15 14.5C15.4333 14.5 15.7917 14.3583 16.075 14.075C16.3583 13.7917 16.5 13.4333 16.5 13C16.5 12.5667 16.3583 12.2083 16.075 11.925C15.7917 11.6417 15.4333 11.5 15 11.5C14.5667 11.5 14.2083 11.6417 13.925 11.925C13.6417 12.2083 13.5 12.5667 13.5 13C13.5 13.4333 13.6417 13.7917 13.925 14.075C14.2083 14.3583 14.5667 14.5 15 14.5ZM15 25.5C12.6833 24.9167 10.7708 23.5875 9.2625 21.5125C7.75417 19.4375 7 17.1333 7 14.6V8.5L15 5.5L23 8.5V14.6C23 17.1333 22.2458 19.4375 20.7375 21.5125C19.2292 23.5875 17.3167 24.9167 15 25.5ZM15 7.625L9 9.875V14.6C9 15.5 9.125 16.375 9.375 17.225C9.625 18.075 9.96667 18.875 10.4 19.625C11.1 19.275 11.8333 19 12.6 18.8C13.3667 18.6 14.1667 18.5 15 18.5C15.8333 18.5 16.6333 18.6 17.4 18.8C18.1667 19 18.9 19.275 19.6 19.625C20.0333 18.875 20.375 18.075 20.625 17.225C20.875 16.375 21 15.5 21 14.6V9.875L15 7.625ZM15 20.5C14.4 20.5 13.8167 20.5667 13.25 20.7C12.6833 20.8333 12.1417 21.0167 11.625 21.25C12.1083 21.75 12.6333 22.1833 13.2 22.55C13.7667 22.9167 14.3667 23.2 15 23.4C15.6333 23.2 16.2333 22.9167 16.8 22.55C17.3667 22.1833 17.8917 21.75 18.375 21.25C17.8583 21.0167 17.3167 20.8333 16.75 20.7C16.1833 20.5667 15.6 20.5 15 20.5Z" fill="black"/>
</g>
</svg>
