<svg width="14" height="15" viewBox="0 0 14 15" fill="none" xmlns="http://www.w3.org/2000/svg">
<path d="M7 0.71875C3.25391 0.71875 0.21875 3.75391 0.21875 7.5C0.21875 11.2461 3.25391 14.2812 7 14.2812C10.7461 14.2812 13.7812 11.2461 13.7812 7.5C13.7812 3.75391 10.7461 0.71875 7 0.71875ZM10.9375 8.26562C10.9375 8.44609 10.7898 8.59375 10.6094 8.59375H8.09375V11.1094C8.09375 11.2898 7.94609 11.4375 7.76562 11.4375H6.23438C6.05391 11.4375 5.90625 11.2898 5.90625 11.1094V8.59375H3.39062C3.21016 8.59375 3.0625 8.44609 3.0625 8.26562V6.73438C3.0625 6.55391 3.21016 6.40625 3.39062 6.40625H5.90625V3.89062C5.90625 3.71016 6.05391 3.5625 6.23438 3.5625H7.76562C7.94609 3.5625 8.09375 3.71016 8.09375 3.89062V6.40625H10.6094C10.7898 6.40625 10.9375 6.55391 10.9375 6.73438V8.26562Z" fill="#2E66E2"/>
</svg>
