<svg width="14" height="15" viewBox="0 0 14 15" fill="none" xmlns="http://www.w3.org/2000/svg">
<path d="M6.33333 10.834H7.66666V8.16732H10.3333V6.83398H7.66666V4.16732H6.33333V6.83398H3.66666V8.16732H6.33333V10.834ZM7 14.1673C6.07777 14.1673 5.21111 13.9923 4.39999 13.6423C3.58888 13.2923 2.88333 12.8173 2.28333 12.2173C1.68333 11.6173 1.20833 10.9118 0.858328 10.1007C0.508328 9.28954 0.333328 8.42287 0.333328 7.50065C0.333328 6.57843 0.508328 5.71176 0.858328 4.90065C1.20833 4.08954 1.68333 3.38398 2.28333 2.78398C2.88333 2.18398 3.58888 1.70898 4.39999 1.35898C5.21111 1.00898 6.07777 0.833984 7 0.833984C7.92222 0.833984 8.78888 1.00898 9.6 1.35898C10.4111 1.70898 11.1167 2.18398 11.7167 2.78398C12.3167 3.38398 12.7917 4.08954 13.1417 4.90065C13.4917 5.71176 13.6667 6.57843 13.6667 7.50065C13.6667 8.42287 13.4917 9.28954 13.1417 10.1007C12.7917 10.9118 12.3167 11.6173 11.7167 12.2173C11.1167 12.8173 10.4111 13.2923 9.6 13.6423C8.78888 13.9923 7.92222 14.1673 7 14.1673ZM7 12.834C8.48888 12.834 9.75 12.3173 10.7833 11.284C11.8167 10.2507 12.3333 8.98954 12.3333 7.50065C12.3333 6.01176 11.8167 4.75065 10.7833 3.71732C9.75 2.68398 8.48888 2.16732 7 2.16732C5.51111 2.16732 4.25 2.68398 3.21666 3.71732C2.18333 4.75065 1.66666 6.01176 1.66666 7.50065C1.66666 8.98954 2.18333 10.2507 3.21666 11.284C4.25 12.3173 5.51111 12.834 7 12.834Z" fill="white"/>
</svg>
