<svg width="16" height="16" viewBox="0 0 16 16" fill="none" xmlns="http://www.w3.org/2000/svg">
<g clip-path="url(#clip0_1344_49495)">
<path d="M1.72404 11.1513C1.47397 10.9013 1.33345 10.5622 1.33337 10.2087V5.79265C1.33345 5.43906 1.47397 5.09997 1.72404 4.84998L4.84937 1.72465C5.09936 1.47459 5.43845 1.33406 5.79204 1.33398H10.208C10.5616 1.33406 10.9007 1.47459 11.1507 1.72465L14.276 4.84998C14.5261 5.09997 14.6666 5.43906 14.6667 5.79265V10.2087C14.6666 10.5622 14.5261 10.9013 14.276 11.1513L11.1507 14.2767C10.9007 14.5267 10.5616 14.6672 10.208 14.6673H5.79204C5.43845 14.6672 5.09936 14.5267 4.84937 14.2767L1.72404 11.1513Z" stroke="black" stroke-opacity="0.5" stroke-width="2" stroke-linecap="round" stroke-linejoin="round"/>
<path d="M10.6667 6L7.00004 9.33333L5.33337 7.81818" stroke="black" stroke-opacity="0.5" stroke-width="2" stroke-linecap="round" stroke-linejoin="round"/>
</g>
<defs>
<clipPath id="clip0_1344_49495">
<rect width="16" height="16" fill="white"/>
</clipPath>
</defs>
</svg>
