<svg width="15" height="17" viewBox="0 0 15 17" fill="none" xmlns="http://www.w3.org/2000/svg">
<path d="M14.028 12.9689C13.786 13.5279 13.4996 14.0424 13.1677 14.5155C12.7154 15.1604 12.345 15.6068 12.0596 15.8547C11.6172 16.2616 11.1431 16.47 10.6355 16.4818C10.271 16.4818 9.83154 16.3781 9.31995 16.1678C8.80669 15.9584 8.335 15.8547 7.9037 15.8547C7.45137 15.8547 6.96625 15.9584 6.44736 16.1678C5.92767 16.3781 5.50902 16.4878 5.18893 16.4986C4.70213 16.5194 4.21691 16.3051 3.73258 15.8547C3.42345 15.5851 3.0368 15.1229 2.5736 14.4681C2.07663 13.7688 1.66805 12.958 1.34796 12.0336C1.00516 11.0351 0.833313 10.0682 0.833313 9.13214C0.833313 8.05987 1.06501 7.13506 1.52909 6.36007C1.89382 5.73757 2.37904 5.24653 2.98633 4.88604C3.59362 4.52556 4.2498 4.34186 4.95644 4.33011C5.34309 4.33011 5.85014 4.44971 6.48024 4.68477C7.10857 4.92061 7.51201 5.04021 7.6889 5.04021C7.82114 5.04021 8.26932 4.90036 9.0291 4.62156C9.7476 4.363 10.354 4.25594 10.8508 4.29811C12.1969 4.40675 13.2082 4.9374 13.8808 5.89342C12.6769 6.62288 12.0813 7.64458 12.0932 8.95525C12.1041 9.97616 12.4744 10.8257 13.2023 11.5003C13.5322 11.8133 13.9005 12.0553 14.3104 12.2272C14.2215 12.4849 14.1277 12.7318 14.028 12.9689ZM10.9406 0.820091C10.9406 1.62027 10.6483 2.3674 10.0656 3.05894C9.36242 3.88104 8.51188 4.35608 7.58954 4.28112C7.57779 4.18513 7.57097 4.08409 7.57097 3.97792C7.57097 3.20975 7.90538 2.38765 8.49924 1.71547C8.79572 1.37514 9.1728 1.09215 9.63007 0.86641C10.0864 0.644037 10.5179 0.521059 10.9239 0.5C10.9357 0.606972 10.9406 0.713951 10.9406 0.820081V0.820091Z" fill="black"/>
<path d="M10.8089 4.7959L10.8109 4.79688C11.8229 4.87861 12.5882 5.21503 13.1468 5.78906C12.1154 6.57971 11.5812 7.64648 11.5931 8.95996V8.96094C11.6054 10.1124 12.0292 11.0922 12.8577 11.8623V11.8633C13.1117 12.1043 13.388 12.3085 13.6859 12.4766C13.6473 12.5764 13.609 12.6746 13.5687 12.7705C13.3395 13.2998 13.0695 13.7846 12.7581 14.2285C12.3102 14.8671 11.9687 15.2717 11.7318 15.4775L11.7269 15.4814L11.721 15.4863C11.3547 15.8232 10.9963 15.9702 10.6351 15.9814C10.3596 15.9814 9.98775 15.9015 9.51007 15.7051H9.50909C8.95161 15.4777 8.41475 15.3545 7.90363 15.3545C7.3745 15.3545 6.82536 15.476 6.26007 15.7041C5.761 15.9061 5.40585 15.991 5.17218 15.999H5.1673C4.85615 16.0122 4.49465 15.8808 4.07257 15.4883L4.06769 15.4834L4.06085 15.4775C3.79797 15.2481 3.43895 14.826 2.98175 14.1797L2.98077 14.1787L2.80988 13.9277C2.4749 13.4148 2.18404 12.8386 1.93878 12.1963L1.82062 11.8701C1.49367 10.9175 1.33331 10.0056 1.33331 9.13184C1.33336 8.13292 1.54893 7.30087 1.95831 6.61719L1.96027 6.61328C2.2832 6.06212 2.70883 5.63265 3.24152 5.31641C3.77174 5.00167 4.34121 4.8411 4.96027 4.83008C5.25748 4.83089 5.69694 4.92557 6.30499 5.15234V5.15332C6.62419 5.27312 6.89476 5.36647 7.11261 5.43066C7.31373 5.48993 7.52082 5.54002 7.68878 5.54004C7.78603 5.54004 7.88897 5.51812 7.96417 5.5C8.05161 5.47893 8.15567 5.44965 8.27277 5.41309C8.50769 5.33972 8.81851 5.23135 9.20148 5.09082L9.2005 5.08984C9.88199 4.84487 10.4118 4.76219 10.8089 4.7959ZM10.4251 1.09082C10.368 1.65954 10.1297 2.20604 9.68292 2.73633C9.17929 3.32423 8.6352 3.66869 8.08234 3.76172C8.13765 3.19112 8.40778 2.57496 8.87433 2.04688L8.87628 2.04395C9.12396 1.75964 9.44612 1.51476 9.85187 1.31445L9.85089 1.31348C10.053 1.21515 10.2446 1.14251 10.4251 1.09082Z" stroke="black" stroke-opacity="0.5"/>
</svg>
