<svg width="22.023804" height="21.027100" viewBox="0 0 22.0238 21.0271" fill="none" xmlns="http://www.w3.org/2000/svg" xmlns:xlink="http://www.w3.org/1999/xlink">
	<desc>
			Created with Pixso.
	</desc>
	<defs/>
	<path id="Vector" d="M8.05 9.92L16.12 1.86C16.38 1.59 16.7 1.37 17.05 1.23C17.39 1.08 17.77 1 18.15 1C18.52 0.99 18.9 1.06 19.25 1.21C19.6 1.35 19.92 1.56 20.18 1.83C20.45 2.1 20.66 2.41 20.81 2.76C20.95 3.11 21.02 3.49 21.02 3.87C21.02 4.25 20.94 4.62 20.79 4.97C20.64 5.31 20.42 5.63 20.15 5.89L12.09 13.97M3.06 15.98C3.06 17.31 0.56 17.5 1.06 18C2.14 19.1 3.55 20.02 5.06 20.02C7.26 20.02 9.06 18.22 9.06 15.98C9.06 15.59 8.99 15.2 8.84 14.83C8.69 14.46 8.47 14.13 8.19 13.85C7.91 13.57 7.58 13.35 7.21 13.2C6.85 13.04 6.46 12.96 6.06 12.96C4.4 12.96 3.06 14.31 3.06 15.98Z" stroke="#000000" stroke-opacity="0.500000" stroke-width="2.000000" stroke-linejoin="round" stroke-linecap="round"/>
</svg>
