<svg width="22.105652" height="22.000000" viewBox="0 0 22.1057 22" fill="none" xmlns="http://www.w3.org/2000/svg" xmlns:xlink="http://www.w3.org/1999/xlink">
	<desc>
			Created with Pixso.
	</desc>
	<defs/>
	<path id="Vector" d="M17.1 10L17.1 5C17.1 4.46 16.89 3.96 16.51 3.58C16.14 3.21 15.63 3 15.1 3C14.57 3 14.06 3.21 13.69 3.58C13.31 3.96 13.1 4.46 13.1 5M13.1 9L13.1 3C13.1 2.46 12.89 1.96 12.51 1.58C12.14 1.21 11.63 1 11.1 1C10.57 1 10.06 1.21 9.69 1.58C9.31 1.96 9.1 2.46 9.1 3L9.1 5L9.1 9.5M9.1 5C9.1 4.46 8.89 3.96 8.51 3.58C8.14 3.21 7.63 3 7.1 3C6.57 3 6.06 3.21 5.69 3.58C5.31 3.96 5.1 4.46 5.1 5L5.1 13M17.1 7C17.1 6.46 17.31 5.96 17.69 5.58C18.06 5.21 18.57 5 19.1 5C19.63 5 20.14 5.21 20.51 5.58C20.89 5.96 21.1 6.46 21.1 7L21.1 13C21.1 15.12 20.26 17.15 18.76 18.65C17.26 20.15 15.22 21 13.1 21L11.1 21C8.3 21 6.6 20.14 5.11 18.66L1.51 15.06C1.17 14.67 0.98 14.18 1 13.66C1.01 13.15 1.22 12.66 1.58 12.3C1.95 11.94 2.44 11.73 2.95 11.72C3.46 11.7 3.96 11.89 4.34 12.24L6.1 14" stroke="#000000" stroke-opacity="0.500000" stroke-width="2.000000" stroke-linejoin="round" stroke-linecap="round"/>
</svg>
