<svg width="19.004211" height="20.000000" viewBox="0 0 19.0042 20" fill="none" xmlns="http://www.w3.org/2000/svg" xmlns:xlink="http://www.w3.org/1999/xlink">
	<desc>
			Created with Pixso.
	</desc>
	<defs/>
	<path id="Vector" d="M4 7C2.34 7 1 5.65 1 4C1 2.34 2.34 1 4 1C5.65 1 7 2.34 7 4C7 5.65 5.65 7 4 7ZM6.12 6.12L10 10M18 2L6.12 13.88M4 19C2.34 19 1 17.65 1 16C1 14.34 2.34 13 4 13C5.65 13 7 14.34 7 16C7 17.65 5.65 19 4 19ZM12.8 12.8L18 18" stroke="#000000" stroke-opacity="0.500000" stroke-width="2.000000" stroke-linejoin="round" stroke-linecap="round"/>
</svg>
