<svg width="22.001953" height="22.003174" viewBox="0 0 22.002 22.0032" fill="none" xmlns="http://www.w3.org/2000/svg" xmlns:xlink="http://www.w3.org/1999/xlink">
	<desc>
			Created with Pixso.
	</desc>
	<defs/>
	<path id="Vector" d="M19.35 1.36C19.24 1.24 19.11 1.15 18.96 1.09C18.81 1.03 18.65 1 18.49 1C18.33 1 18.18 1.03 18.03 1.09C17.88 1.15 17.75 1.24 17.63 1.36L1.35 17.64C1.24 17.75 1.15 17.88 1.09 18.03C1.03 18.18 1 18.34 1 18.5C1 18.66 1.03 18.81 1.09 18.96C1.15 19.11 1.24 19.24 1.35 19.36L2.63 20.64C2.75 20.75 2.88 20.84 3.03 20.9C3.17 20.97 3.33 21 3.49 21C3.65 21 3.81 20.97 3.96 20.9C4.11 20.84 4.24 20.75 4.35 20.64L20.63 4.36C20.75 4.24 20.84 4.11 20.9 3.96C20.96 3.81 21 3.66 21 3.5C21 3.33 20.96 3.18 20.9 3.03C20.84 2.88 20.75 2.75 20.63 2.64L19.35 1.36ZM12.99 6L15.99 9M3.99 5L3.99 9M17.99 13L17.99 17M8.99 1L8.99 3M5.99 7L1.99 7M19.99 15L15.99 15M9.99 2L7.99 2" stroke="#000000" stroke-opacity="0.500000" stroke-width="2.000000" stroke-linejoin="round" stroke-linecap="round"/>
</svg>
