<svg width="20.000000" height="21.998047" viewBox="0 0 20 21.998" fill="none" xmlns="http://www.w3.org/2000/svg" xmlns:xlink="http://www.w3.org/1999/xlink">
	<desc>
			Created with Pixso.
	</desc>
	<defs/>
	<path id="Vector" d="M10 20.99C10.35 20.99 10.69 20.9 11 20.72L18 16.72C18.3 16.55 18.55 16.3 18.73 15.99C18.9 15.69 18.99 15.34 19 14.99L19 6.99C18.99 6.64 18.9 6.3 18.73 5.99C18.55 5.69 18.3 5.44 18 5.26L11 1.26C10.69 1.09 10.35 1 10 1C9.64 1 9.3 1.09 9 1.26L2 5.26C1.69 5.44 1.44 5.69 1.26 5.99C1.09 6.3 1 6.64 1 6.99L1 14.99C1 15.34 1.09 15.69 1.26 15.99C1.44 16.3 1.69 16.55 2 16.72L9 20.72C9.3 20.9 9.64 20.99 10 20.99ZM10 20.99L10 10.99M1.3 5.99L9 10.73C9.3 10.9 9.65 10.99 10 10.99C10.34 10.99 10.69 10.9 10.99 10.73L18.7 5.99M5.5 3.26L14.5 8.41" stroke="#000000" stroke-opacity="0.500000" stroke-width="2.000000" stroke-linejoin="round" stroke-linecap="round"/>
</svg>
