<svg width="22.015259" height="16.000244" viewBox="0 0 22.0153 16.0002" fill="none" xmlns="http://www.w3.org/2000/svg" xmlns:xlink="http://www.w3.org/1999/xlink">
	<desc>
			Created with Pixso.
	</desc>
	<defs/>
	<path id="Vector" d="M20.85 6.54C20.96 6.38 21.01 6.19 21.01 5.99C21.01 5.8 20.95 5.61 20.84 5.44C20.73 5.28 20.58 5.15 20.39 5.08L11.82 1.18C11.56 1.06 11.28 1 10.99 1C10.71 1 10.42 1.06 10.16 1.18L1.59 5.08C1.42 5.15 1.26 5.28 1.16 5.44C1.05 5.61 1 5.8 1 5.99C1 6.19 1.05 6.38 1.16 6.54C1.26 6.7 1.42 6.83 1.59 6.91L10.16 10.82C10.42 10.93 10.71 11 10.99 11C11.28 11 11.56 10.93 11.82 10.82L20.41 6.92C20.59 6.84 20.74 6.71 20.85 6.54ZM20.99 6L20.99 12M4.99 8.5L4.99 12C4.99 12.79 5.63 13.55 6.75 14.12C7.88 14.68 9.4 15 10.99 15C12.59 15 14.11 14.68 15.24 14.12C16.36 13.55 16.99 12.79 16.99 12L16.99 8.5" stroke="#000000" stroke-opacity="0.500000" stroke-width="2.000000" stroke-linejoin="round" stroke-linecap="round"/>
</svg>
