<svg width="32.000000" height="32.000000" viewBox="0 0 32 32" fill="none" xmlns="http://www.w3.org/2000/svg" xmlns:xlink="http://www.w3.org/1999/xlink">
	<desc>
			Created with Pixso.
	</desc>
	<defs/>
	<rect id="Property 1=Denied" rx="15.500000" width="31.000000" height="31.000000" transform="translate(0.500000 0.500000)" fill="#FDE9E9" fill-opacity="1.000000"/>
	<mask id="mask20_1583" mask-type="alpha" maskUnits="userSpaceOnUse" x="4.000000" y="4.000000" width="24.000000" height="24.000000">
		<rect id="Bounding box" x="4.000000" y="4.000000" width="24.000000" height="24.000000" fill="#D9D9D9" fill-opacity="1.000000"/>
	</mask>
	<g mask="url(#mask20_1583)">
		<path id="cancel" d="M12.4 21L16 17.4L19.59 21L21 19.59L17.4 16L21 12.4L19.59 11L16 14.59L12.4 11L11 12.4L14.59 16L11 19.59L12.4 21ZM16 26C14.61 26 13.31 25.73 12.09 25.21C10.88 24.68 9.82 23.97 8.92 23.07C8.02 22.17 7.31 21.11 6.78 19.9C6.26 18.68 6 17.38 6 16C6 14.61 6.26 13.31 6.78 12.09C7.31 10.88 8.02 9.82 8.92 8.92C9.82 8.02 10.88 7.31 12.09 6.78C13.31 6.26 14.61 6 16 6C17.38 6 18.68 6.26 19.9 6.78C21.11 7.31 22.17 8.02 23.07 8.92C23.97 9.82 24.68 10.88 25.21 12.09C25.73 13.31 26 14.61 26 16C26 17.38 25.73 18.68 25.21 19.9C24.68 21.11 23.97 22.17 23.07 23.07C22.17 23.97 21.11 24.68 19.9 25.21C18.68 25.73 17.38 26 16 26ZM16 24C18.23 24 20.12 23.22 21.67 21.67C23.22 20.12 24 18.23 24 16C24 13.76 23.22 11.87 21.67 10.32C20.12 8.77 18.23 8 16 8C13.76 8 11.87 8.77 10.32 10.32C8.77 11.87 8 13.76 8 16C8 18.23 8.77 20.12 10.32 21.67C11.87 23.22 13.76 24 16 24Z" fill="#EA3A3A" fill-opacity="1.000000" fill-rule="nonzero"/>
	</g>
</svg>
