<svg width="21" height="6" viewBox="0 0 21 6" fill="none" xmlns="http://www.w3.org/2000/svg">
<path d="M15 2.625C15 3.32119 15.2766 3.98887 15.7688 4.48116C16.2611 4.97344 16.9288 5.25 17.625 5.25C18.3212 5.25 18.9889 4.97344 19.4812 4.48116C19.9734 3.98887 20.25 3.32119 20.25 2.625C20.25 1.92881 19.9734 1.26113 19.4812 0.768845C18.9889 0.276562 18.3212 -3.04316e-08 17.625 0C16.9288 3.04316e-08 16.2611 0.276562 15.7688 0.768845C15.2766 1.26113 15 1.92881 15 2.625ZM7.5 2.625C7.5 3.32119 7.77656 3.98887 8.26884 4.48116C8.76113 4.97344 9.42881 5.25 10.125 5.25C10.8212 5.25 11.4889 4.97344 11.9812 4.48116C12.4734 3.98887 12.75 3.32119 12.75 2.625C12.75 1.92881 12.4734 1.26113 11.9812 0.768845C11.4889 0.276562 10.8212 2.97403e-07 10.125 3.27835e-07C9.42881 3.58266e-07 8.76113 0.276562 8.26884 0.768845C7.77656 1.26113 7.5 1.92881 7.5 2.625ZM2.625 6.55671e-07C1.92881 6.86103e-07 1.26113 0.276563 0.768845 0.768846C0.276562 1.26113 -3.04316e-08 1.92881 0 2.625C3.04316e-08 3.32119 0.276562 3.98887 0.768845 4.48116C1.26113 4.97344 1.92881 5.25 2.625 5.25C3.32119 5.25 3.98887 4.97344 4.48116 4.48116C4.97344 3.98887 5.25 3.32119 5.25 2.625C5.25 1.92881 4.97344 1.26113 4.48115 0.768845C3.98887 0.276562 3.32119 6.2524e-07 2.625 6.55671e-07Z" fill="black" fill-opacity="0.5"/>
</svg>
