<svg width="14" height="14" viewBox="0 0 14 14" fill="none" xmlns="http://www.w3.org/2000/svg">
<path d="M7 12.3332H13M9 2.33317L11 4.33317M9.91732 1.41449C10.1827 1.1491 10.5427 1 10.918 1C11.2933 1 11.6533 1.1491 11.9187 1.41449C12.184 1.67988 12.3331 2.03983 12.3331 2.41516C12.3331 2.79048 12.184 3.15043 11.9187 3.41582L3.91198 11.4232C3.75338 11.5818 3.55733 11.6978 3.34198 11.7605L1.42732 12.3192C1.36995 12.3359 1.30914 12.3369 1.25126 12.3221C1.19337 12.3072 1.14054 12.2771 1.09828 12.2349C1.05603 12.1926 1.02591 12.1398 1.01108 12.0819C0.996249 12.024 0.997252 11.9632 1.01398 11.9058L1.57265 9.99116C1.63546 9.77605 1.75148 9.58024 1.90998 9.42182L9.91732 1.41449Z" stroke="black" stroke-opacity="0.5" stroke-width="2" stroke-linecap="round" stroke-linejoin="round"/>
</svg>
