<svg width="29" height="28" viewBox="0 0 29 28" fill="none" xmlns="http://www.w3.org/2000/svg">
<path d="M21.1167 2.555C29.4797 7.97909 30.8421 17.4443 25.8357 23.4766C20.8293 29.5089 9.29074 29.1905 2.98677 24.3998C-3.3172 19.6092 5.6722 14.953 5.9961 7.97907C6.32001 1.0051 12.7536 -2.86908 21.1167 2.555Z" fill="#F7AD30"/>
<g clip-path="url(#clip0_3041_18934)">
<path d="M15.75 3.5C9.12264 3.5 3.75 8.87264 3.75 15.5C3.75 21.1275 7.62456 25.8498 12.8513 27.1467V19.1672H10.3769V15.5H12.8513V13.9198C12.8513 9.83552 14.6998 7.9424 18.7097 7.9424C19.47 7.9424 20.7818 8.09168 21.3185 8.24048V11.5645C21.0353 11.5347 20.5433 11.5198 19.9322 11.5198C17.9647 11.5198 17.2044 12.2653 17.2044 14.203V15.5H21.1241L20.4506 19.1672H17.2044V27.4122C23.1463 26.6946 27.7505 21.6354 27.7505 15.5C27.75 8.87264 22.3774 3.5 15.75 3.5Z" fill="black"/>
</g>
<defs>
<clipPath id="clip0_3041_18934">
<rect width="24" height="24" fill="white" transform="translate(3.75 3.5)"/>
</clipPath>
</defs>
</svg>
