<svg width="60" height="26" viewBox="0 0 60 26" fill="none" xmlns="http://www.w3.org/2000/svg">
<rect width="60" height="26" rx="13" fill="#D2F0E5"/>
<circle cx="14.5" cy="12.5" r="2.5" fill="#1DB27B"/>
<path d="M25.5 13.62V16H23.9V9C24.2067 9 24.5433 8.99667 24.91 8.99C25.2833 8.98333 25.66 8.98 26.04 8.98C27.0267 8.98 27.7467 9.2 28.2 9.64C28.6467 10.0667 28.87 10.62 28.87 11.3C28.87 11.9533 28.6333 12.51 28.16 12.97C27.6867 13.4233 27.06 13.65 26.28 13.65C25.9333 13.65 25.6733 13.64 25.5 13.62ZM26.2 10.48C26.1933 10.48 26.1633 10.4833 26.11 10.49C26.0567 10.49 25.9733 10.4933 25.86 10.5C25.7467 10.5 25.6267 10.5 25.5 10.5V12.1C25.78 12.1333 26.0233 12.15 26.23 12.15C26.5033 12.15 26.7267 12.08 26.9 11.94C27.08 11.7933 27.17 11.5767 27.17 11.29C27.17 10.75 26.8467 10.48 26.2 10.48ZM30.335 16H28.725L31.635 9H33.065L35.975 16H34.265L33.685 14.53H30.915L30.335 16ZM33.085 13.03L32.305 11.05L31.515 13.03H33.085ZM38.6711 16H37.0711V9H38.6711V16ZM40.8446 16H40.6746V9H40.8146C41.1146 9 41.4479 8.99667 41.8146 8.99C41.9546 8.99 42.1079 8.99 42.2746 8.99C42.4479 8.98333 42.5813 8.98 42.6746 8.98C42.7679 8.97333 42.8379 8.97 42.8846 8.97C44.1979 8.97 45.1813 9.29667 45.8346 9.95C46.4879 10.6033 46.8146 11.4333 46.8146 12.44C46.8146 13.4733 46.4646 14.33 45.7646 15.01C45.0713 15.6833 44.0846 16.02 42.8046 16.02C42.5446 16.02 42.2546 16.0167 41.9346 16.01C41.6146 16.0033 41.2513 16 40.8446 16ZM42.8646 10.47C42.6046 10.47 42.4079 10.48 42.2746 10.5V14.5C42.4613 14.5133 42.6546 14.52 42.8546 14.52C43.5613 14.52 44.1146 14.3367 44.5146 13.97C44.9146 13.6033 45.1146 13.0933 45.1146 12.44C45.1146 11.82 44.9113 11.3367 44.5046 10.99C44.0979 10.6433 43.5513 10.47 42.8646 10.47Z" fill="#1DB27B"/>
</svg>
