<svg width="100" height="26" viewBox="0 0 100 26" fill="none" xmlns="http://www.w3.org/2000/svg">
<rect width="100" height="26" rx="13" fill="#E8EEFC"/>
<circle cx="14.5" cy="12.5" r="2.5" fill="#2E66E2"/>
<path d="M25.5 13.62V16H23.9V9C24.2067 9 24.5433 8.99667 24.91 8.99C25.2833 8.98333 25.66 8.98 26.04 8.98C27.0267 8.98 27.7467 9.2 28.2 9.64C28.6467 10.0667 28.87 10.62 28.87 11.3C28.87 11.9533 28.6333 12.51 28.16 12.97C27.6867 13.4233 27.06 13.65 26.28 13.65C25.9333 13.65 25.6733 13.64 25.5 13.62ZM26.2 10.48C26.1933 10.48 26.1633 10.4833 26.11 10.49C26.0567 10.49 25.9733 10.4933 25.86 10.5C25.7467 10.5 25.6267 10.5 25.5 10.5V12.1C25.78 12.1333 26.0233 12.15 26.23 12.15C26.5033 12.15 26.7267 12.08 26.9 11.94C27.08 11.7933 27.17 11.5767 27.17 11.29C27.17 10.75 26.8467 10.48 26.2 10.48ZM31.8695 13.55V16H30.2695V9C30.6495 9 31.0695 8.99667 31.5295 8.99C31.9895 8.98333 32.3629 8.98 32.6495 8.98C34.3762 8.98 35.2395 9.72667 35.2395 11.22C35.2395 12.18 34.8462 12.8533 34.0595 13.24L36.0995 16H34.1595L32.4595 13.55H31.8695ZM32.5695 10.48C32.5629 10.48 32.5329 10.4833 32.4795 10.49C32.4262 10.49 32.3429 10.4933 32.2295 10.5C32.1162 10.5 31.9962 10.5 31.8695 10.5V12.05H32.4495C33.1762 12.05 33.5395 11.78 33.5395 11.24C33.5395 10.7333 33.2162 10.48 32.5695 10.48ZM36.2953 12.5C36.2953 11.4667 36.6386 10.6067 37.3253 9.92C38.0186 9.22667 38.9153 8.88 40.0153 8.88C41.1086 8.88 41.9986 9.21 42.6853 9.87C43.3853 10.53 43.7353 11.4067 43.7353 12.5C43.7353 13.5533 43.382 14.42 42.6753 15.1C41.9753 15.78 41.0886 16.12 40.0153 16.12C38.9286 16.12 38.0353 15.79 37.3353 15.13C36.642 14.47 36.2953 13.5933 36.2953 12.5ZM37.9953 12.5C37.9953 13.0933 38.192 13.5967 38.5853 14.01C38.972 14.4167 39.4486 14.62 40.0153 14.62C40.6553 14.62 41.152 14.4233 41.5053 14.03C41.8586 13.6233 42.0353 13.1133 42.0353 12.5C42.0353 11.8667 41.842 11.3567 41.4553 10.97C41.062 10.5767 40.582 10.38 40.0153 10.38C39.4286 10.38 38.9453 10.5767 38.5653 10.97C38.1853 11.3633 37.9953 11.8733 37.9953 12.5ZM49.9775 14.11L50.5875 15.31C50.3742 15.55 50.0575 15.7467 49.6375 15.9C49.2242 16.0467 48.7808 16.12 48.3075 16.12C47.2208 16.12 46.3375 15.79 45.6575 15.13C44.9775 14.4567 44.6375 13.58 44.6375 12.5C44.6375 11.4467 44.9575 10.58 45.5975 9.9C46.2375 9.22 47.1375 8.88 48.2975 8.88C48.7375 8.88 49.1475 8.94667 49.5275 9.08C49.9075 9.21333 50.2108 9.39 50.4375 9.61L49.7275 10.81C49.2608 10.5233 48.7842 10.38 48.2975 10.38C47.7308 10.38 47.2608 10.5667 46.8875 10.94C46.5208 11.3067 46.3375 11.8267 46.3375 12.5C46.3375 13.1133 46.5342 13.6233 46.9275 14.03C47.3208 14.4233 47.8308 14.62 48.4575 14.62C49.0175 14.62 49.5242 14.45 49.9775 14.11ZM56.0402 16H51.7902V9H55.9402V10.5H53.3902V11.73H55.6402V13.23H53.3902V14.5H56.0402V16ZM60.2122 14.08C60.2122 13.7867 59.8689 13.4767 59.1822 13.15C58.9822 13.0633 58.8055 12.9833 58.6522 12.91C58.5055 12.83 58.3389 12.7233 58.1522 12.59C57.9722 12.45 57.8222 12.3067 57.7022 12.16C57.5889 12.0133 57.4889 11.83 57.4022 11.61C57.3222 11.39 57.2855 11.1533 57.2922 10.9C57.2922 10.34 57.4989 9.86333 57.9122 9.47C58.3255 9.07667 58.8722 8.88 59.5522 8.88C60.4455 8.88 61.1322 9.13667 61.6122 9.65L60.7522 10.85C60.5589 10.67 60.3889 10.5467 60.2422 10.48C60.1022 10.4133 59.9189 10.38 59.6922 10.38C59.4722 10.38 59.2989 10.4267 59.1722 10.52C59.0522 10.6133 58.9922 10.74 58.9922 10.9C58.9922 11.08 59.0622 11.24 59.2022 11.38C59.3489 11.52 59.5289 11.6367 59.7422 11.73C59.9622 11.8167 60.1989 11.9267 60.4522 12.06C60.7055 12.1933 60.9389 12.3367 61.1522 12.49C61.3722 12.6367 61.5522 12.8467 61.6922 13.12C61.8389 13.3867 61.9122 13.7 61.9122 14.06C61.9122 14.66 61.6822 15.1533 61.2222 15.54C60.7755 15.9267 60.2055 16.12 59.5122 16.12C59.0055 16.12 58.5255 16.0167 58.0722 15.81C57.6122 15.6033 57.3022 15.3233 57.1422 14.97L58.0522 13.88C58.2322 14.1133 58.4589 14.2967 58.7322 14.43C59.0055 14.5567 59.2789 14.62 59.5522 14.62C59.7589 14.62 59.9189 14.5733 60.0322 14.48C60.1522 14.38 60.2122 14.2467 60.2122 14.08ZM65.8786 14.08C65.8786 13.7867 65.5353 13.4767 64.8486 13.15C64.6486 13.0633 64.4719 12.9833 64.3186 12.91C64.1719 12.83 64.0053 12.7233 63.8186 12.59C63.6386 12.45 63.4886 12.3067 63.3686 12.16C63.2553 12.0133 63.1553 11.83 63.0686 11.61C62.9886 11.39 62.9519 11.1533 62.9586 10.9C62.9586 10.34 63.1653 9.86333 63.5786 9.47C63.9919 9.07667 64.5386 8.88 65.2186 8.88C66.1119 8.88 66.7986 9.13667 67.2786 9.65L66.4186 10.85C66.2253 10.67 66.0553 10.5467 65.9086 10.48C65.7686 10.4133 65.5853 10.38 65.3586 10.38C65.1386 10.38 64.9653 10.4267 64.8386 10.52C64.7186 10.6133 64.6586 10.74 64.6586 10.9C64.6586 11.08 64.7286 11.24 64.8686 11.38C65.0153 11.52 65.1953 11.6367 65.4086 11.73C65.6286 11.8167 65.8653 11.9267 66.1186 12.06C66.3719 12.1933 66.6053 12.3367 66.8186 12.49C67.0386 12.6367 67.2186 12.8467 67.3586 13.12C67.5053 13.3867 67.5786 13.7 67.5786 14.06C67.5786 14.66 67.3486 15.1533 66.8886 15.54C66.4419 15.9267 65.8719 16.12 65.1786 16.12C64.6719 16.12 64.1919 16.0167 63.7386 15.81C63.2786 15.6033 62.9686 15.3233 62.8086 14.97L63.7186 13.88C63.8986 14.1133 64.1253 14.2967 64.3986 14.43C64.6719 14.5567 64.9453 14.62 65.2186 14.62C65.4253 14.62 65.5853 14.5733 65.6986 14.48C65.8186 14.38 65.8786 14.2467 65.8786 14.08ZM70.675 16H69.075V9H70.675V16ZM78.7785 9V16H77.4985L74.1785 11.8V16H72.6785V9H73.9585L77.2785 13.22V9H78.7785ZM85.0489 13.51H83.5589V12.01H86.5489V15.13C86.2489 15.43 85.8489 15.67 85.3489 15.85C84.8622 16.03 84.3889 16.12 83.9289 16.12C82.7556 16.12 81.8356 15.7933 81.1689 15.14C80.5089 14.4867 80.1789 13.6067 80.1789 12.5C80.1789 11.4667 80.5022 10.6067 81.1489 9.92C81.8022 9.22667 82.6622 8.88 83.7289 8.88C84.6489 8.88 85.4122 9.12333 86.0189 9.61L85.3489 10.9C85.2089 10.7533 85.0022 10.63 84.7289 10.53C84.4622 10.43 84.1922 10.38 83.9189 10.38C83.2989 10.38 82.8022 10.5633 82.4289 10.93C82.0622 11.2967 81.8789 11.82 81.8789 12.5C81.8789 13.1467 82.0656 13.6633 82.4389 14.05C82.8189 14.43 83.3222 14.62 83.9489 14.62C84.1356 14.62 84.3456 14.5833 84.5789 14.51C84.7989 14.4367 84.9556 14.3567 85.0489 14.27V13.51Z" fill="#2E66E2"/>
</svg>
