<svg width="16" height="17" viewBox="0 0 16 17" fill="none" xmlns="http://www.w3.org/2000/svg">
<path d="M7.99988 7.04492V10.1431H12.3053C12.1163 11.1395 11.5489 11.9831 10.698 12.5504L13.2944 14.565C14.8071 13.1686 15.6798 11.1177 15.6798 8.68136C15.6798 8.1141 15.6289 7.5686 15.5344 7.04501L7.99988 7.04492Z" fill="#4285F4"/>
<path d="M3.51643 10.0234L2.93085 10.4717L0.858093 12.0862C2.17445 14.6971 4.87244 16.5008 7.99968 16.5008C10.1596 16.5008 11.9705 15.788 13.2942 14.5662L10.6978 12.5517C9.9851 13.0317 9.076 13.3226 7.99968 13.3226C5.91969 13.3226 4.15247 11.919 3.5197 10.0281L3.51643 10.0234Z" fill="#34A853"/>
<path d="M0.858119 4.91406C0.312695 5.99038 0 7.20494 0 8.49947C0 9.79399 0.312695 11.0086 0.858119 12.0849C0.858119 12.0921 3.51998 10.0194 3.51998 10.0194C3.35998 9.53942 3.26541 9.03036 3.26541 8.49939C3.26541 7.96841 3.35998 7.45935 3.51998 6.97935L0.858119 4.91406Z" fill="#FBBC05"/>
<path d="M7.99985 3.68545C9.17805 3.68545 10.2253 4.09271 11.0617 4.87818L13.3525 2.5873C11.9635 1.29278 10.1599 0.5 7.99985 0.5C4.8726 0.5 2.17445 2.29636 0.858093 4.91455L3.51988 6.98001C4.15256 5.08908 5.91986 3.68545 7.99985 3.68545Z" fill="#EA4335"/>
</svg>
