<svg width="29" height="28" viewBox="0 0 29 28" fill="none" xmlns="http://www.w3.org/2000/svg">
<path d="M20.6167 2.555C28.9797 7.97909 30.3421 17.4443 25.3357 23.4766C20.3293 29.5089 8.79074 29.1905 2.48677 24.3998C-3.8172 19.6092 5.1722 14.953 5.4961 7.97907C5.82001 1.0051 12.2536 -2.86908 20.6167 2.555Z" fill="#F7AD30"/>
<g clip-path="url(#clip0_3041_12762)">
<path d="M15.25 5.66094C18.4563 5.66094 18.8359 5.675 20.0969 5.73125C21.2688 5.78281 21.9016 5.97969 22.3234 6.14375C22.8813 6.35938 23.2844 6.62188 23.7016 7.03906C24.1234 7.46094 24.3813 7.85938 24.5969 8.41719C24.7609 8.83906 24.9578 9.47656 25.0094 10.6437C25.0656 11.9094 25.0797 12.2891 25.0797 15.4906C25.0797 18.6969 25.0656 19.0766 25.0094 20.3375C24.9578 21.5094 24.7609 22.1422 24.5969 22.5641C24.3813 23.1219 24.1187 23.525 23.7016 23.9422C23.2797 24.3641 22.8813 24.6219 22.3234 24.8375C21.9016 25.0016 21.2641 25.1984 20.0969 25.25C18.8313 25.3062 18.4516 25.3203 15.25 25.3203C12.0438 25.3203 11.6641 25.3062 10.4031 25.25C9.23125 25.1984 8.59844 25.0016 8.17656 24.8375C7.61875 24.6219 7.21563 24.3594 6.79844 23.9422C6.37656 23.5203 6.11875 23.1219 5.90313 22.5641C5.73906 22.1422 5.54219 21.5047 5.49063 20.3375C5.43438 19.0719 5.42031 18.6922 5.42031 15.4906C5.42031 12.2844 5.43438 11.9047 5.49063 10.6437C5.54219 9.47187 5.73906 8.83906 5.90313 8.41719C6.11875 7.85938 6.38125 7.45625 6.79844 7.03906C7.22031 6.61719 7.61875 6.35938 8.17656 6.14375C8.59844 5.97969 9.23594 5.78281 10.4031 5.73125C11.6641 5.675 12.0438 5.66094 15.25 5.66094ZM15.25 3.5C11.9922 3.5 11.5844 3.51406 10.3047 3.57031C9.02969 3.62656 8.15313 3.83281 7.39375 4.12812C6.60156 4.4375 5.93125 4.84531 5.26563 5.51562C4.59531 6.18125 4.1875 6.85156 3.87813 7.63906C3.58281 8.40313 3.37656 9.275 3.32031 10.55C3.26406 11.8344 3.25 12.2422 3.25 15.5C3.25 18.7578 3.26406 19.1656 3.32031 20.4453C3.37656 21.7203 3.58281 22.5969 3.87813 23.3563C4.1875 24.1484 4.59531 24.8188 5.26563 25.4844C5.93125 26.15 6.60156 26.5625 7.38906 26.8672C8.15313 27.1625 9.025 27.3687 10.3 27.425C11.5797 27.4812 11.9875 27.4953 15.2453 27.4953C18.5031 27.4953 18.9109 27.4812 20.1906 27.425C21.4656 27.3687 22.3422 27.1625 23.1016 26.8672C23.8891 26.5625 24.5594 26.15 25.225 25.4844C25.8906 24.8188 26.3031 24.1484 26.6078 23.3609C26.9031 22.5969 27.1094 21.725 27.1656 20.45C27.2219 19.1703 27.2359 18.7625 27.2359 15.5047C27.2359 12.2469 27.2219 11.8391 27.1656 10.5594C27.1094 9.28438 26.9031 8.40781 26.6078 7.64844C26.3125 6.85156 25.9047 6.18125 25.2344 5.51562C24.5688 4.85 23.8984 4.4375 23.1109 4.13281C22.3469 3.8375 21.475 3.63125 20.2 3.575C18.9156 3.51406 18.5078 3.5 15.25 3.5Z" fill="black"/>
<path d="M15.25 9.33594C11.8469 9.33594 9.08594 12.0969 9.08594 15.5C9.08594 18.9031 11.8469 21.6641 15.25 21.6641C18.6531 21.6641 21.4141 18.9031 21.4141 15.5C21.4141 12.0969 18.6531 9.33594 15.25 9.33594ZM15.25 19.4984C13.0422 19.4984 11.2516 17.7078 11.2516 15.5C11.2516 13.2922 13.0422 11.5016 15.25 11.5016C17.4578 11.5016 19.2484 13.2922 19.2484 15.5C19.2484 17.7078 17.4578 19.4984 15.25 19.4984Z" fill="black"/>
<path d="M23.0969 9.09214C23.0969 9.88902 22.45 10.5312 21.6578 10.5312C20.8609 10.5312 20.2188 9.88433 20.2188 9.09214C20.2188 8.29526 20.8656 7.65308 21.6578 7.65308C22.45 7.65308 23.0969 8.29995 23.0969 9.09214Z" fill="black"/>
</g>
<defs>
<clipPath id="clip0_3041_12762">
<rect width="24" height="24" fill="white" transform="translate(3.25 3.5)"/>
</clipPath>
</defs>
</svg>
