<svg width="12" height="13" viewBox="0 0 12 13" fill="none" xmlns="http://www.w3.org/2000/svg">
<path fill-rule="evenodd" clip-rule="evenodd" d="M6 1.24992C4.91703 1.24992 3.87842 1.68013 3.11265 2.4459C2.34687 3.21167 1.91667 4.25028 1.91667 5.33325C1.91667 6.59285 2.62639 7.95047 3.54868 9.16224C4.44018 10.3336 5.46316 11.2821 6 11.748C6.53684 11.2821 7.55982 10.3336 8.45132 9.16224C9.3736 7.95047 10.0833 6.59285 10.0833 5.33325C10.0833 4.25028 9.65313 3.21167 8.88735 2.4459C8.12158 1.68013 7.08297 1.24992 6 1.24992ZM2.28769 1.62094C3.27226 0.636376 4.60761 0.083252 6 0.083252C7.39239 0.083252 8.72774 0.636375 9.71231 1.62094C10.6969 2.60551 11.25 3.94087 11.25 5.33325C11.25 6.98623 10.3442 8.60158 9.37968 9.86882C8.40166 11.1538 7.289 12.1764 6.73181 12.6575C6.72188 12.6661 6.71166 12.6743 6.70117 12.6822C6.49901 12.8342 6.25293 12.9164 6 12.9164C5.74707 12.9164 5.50099 12.8342 5.29883 12.6822C5.28834 12.6743 5.27812 12.6661 5.26819 12.6575C4.711 12.1764 3.59834 11.1538 2.62032 9.86882C1.65581 8.60158 0.75 6.98623 0.75 5.33325C0.75 3.94087 1.30312 2.60551 2.28769 1.62094ZM6 4.16659C5.35567 4.16659 4.83333 4.68892 4.83333 5.33325C4.83333 5.97758 5.35567 6.49992 6 6.49992C6.64433 6.49992 7.16667 5.97758 7.16667 5.33325C7.16667 4.68892 6.64433 4.16659 6 4.16659ZM3.66667 5.33325C3.66667 4.04459 4.71134 2.99992 6 2.99992C7.28866 2.99992 8.33333 4.04459 8.33333 5.33325C8.33333 6.62192 7.28866 7.66659 6 7.66659C4.71134 7.66659 3.66667 6.62192 3.66667 5.33325Z" fill="black"/>
</svg>
