<svg width="9.000000" height="10.999878" viewBox="0 0 9 10.9999" fill="none" xmlns="http://www.w3.org/2000/svg" xmlns:xlink="http://www.w3.org/1999/xlink">
	<desc>
			Created with Pixso.
	</desc>
	<defs/>
	<path id="Vector (Stroke)" d="M4.5 1C3.57 1 2.68 1.36 2.02 2.02C1.36 2.68 1 3.57 1 4.5C1 5.57 1.6 6.74 2.39 7.78C3.16 8.78 4.03 9.59 4.5 9.99C4.96 9.59 5.83 8.78 6.6 7.78C7.39 6.74 8 5.57 8 4.5C8 3.57 7.63 2.68 6.97 2.02C6.31 1.36 5.42 1 4.5 1ZM1.31 1.31C2.16 0.47 3.3 0 4.5 0C5.69 0 6.83 0.47 7.68 1.31C8.52 2.16 9 3.3 9 4.5C9 5.91 8.22 7.3 7.39 8.38C6.55 9.48 5.6 10.36 5.12 10.77C5.11 10.78 5.1 10.79 5.1 10.79C4.92 10.92 4.71 10.99 4.5 10.99C4.28 10.99 4.07 10.92 3.89 10.79C3.89 10.79 3.88 10.78 3.87 10.77C3.39 10.36 2.44 9.48 1.6 8.38C0.77 7.3 0 5.91 0 4.5C0 3.3 0.47 2.16 1.31 1.31ZM4.5 3.5C3.94 3.5 3.5 3.94 3.5 4.5C3.5 5.05 3.94 5.5 4.5 5.5C5.05 5.5 5.5 5.05 5.5 4.5C5.5 3.94 5.05 3.5 4.5 3.5ZM2.5 4.5C2.5 3.39 3.39 2.5 4.5 2.5C5.6 2.5 6.5 3.39 6.5 4.5C6.5 5.6 5.6 6.5 4.5 6.5C3.39 6.5 2.5 5.6 2.5 4.5Z" fill="#1DB27B" fill-opacity="1.000000" fill-rule="evenodd"/>
</svg>
