<svg width="12" height="16" viewBox="0 0 12 16" fill="none" xmlns="http://www.w3.org/2000/svg">
<path fill-rule="evenodd" clip-rule="evenodd" d="M6 1.99935C4.76232 1.99935 3.57534 2.49101 2.70017 3.36618C1.825 4.24135 1.33333 5.42834 1.33333 6.66602C1.33333 8.10556 2.14445 9.65712 3.19849 11.042C4.21735 12.3807 5.38646 13.4647 6 13.9971C6.61354 13.4647 7.78265 12.3807 8.80151 11.042C9.85555 9.65712 10.6667 8.10556 10.6667 6.66602C10.6667 5.42834 10.175 4.24135 9.29983 3.36618C8.42466 2.49101 7.23768 1.99935 6 1.99935ZM1.75736 2.42338C2.88258 1.29816 4.4087 0.666016 6 0.666016C7.5913 0.666016 9.11742 1.29816 10.2426 2.42338C11.3679 3.54859 12 5.07472 12 6.66602C12 8.55514 10.9648 10.4012 9.86249 11.8495C8.74475 13.3181 7.47315 14.4868 6.83636 15.0366C6.825 15.0464 6.81332 15.0558 6.80133 15.0648C6.5703 15.2386 6.28906 15.3325 6 15.3325C5.71094 15.3325 5.4297 15.2386 5.19867 15.0648C5.18668 15.0558 5.175 15.0464 5.16364 15.0366C4.52685 14.4868 3.25525 13.3181 2.13751 11.8495C1.03522 10.4012 0 8.55514 0 6.66602C0 5.07472 0.632141 3.54859 1.75736 2.42338ZM6 5.33268C5.26362 5.33268 4.66667 5.92964 4.66667 6.66602C4.66667 7.4024 5.26362 7.99935 6 7.99935C6.73638 7.99935 7.33333 7.4024 7.33333 6.66602C7.33333 5.92964 6.73638 5.33268 6 5.33268ZM3.33333 6.66602C3.33333 5.19326 4.52724 3.99935 6 3.99935C7.47276 3.99935 8.66667 5.19326 8.66667 6.66602C8.66667 8.13878 7.47276 9.33268 6 9.33268C4.52724 9.33268 3.33333 8.13878 3.33333 6.66602Z" fill="black" fill-opacity="0.5"/>
</svg>
