<svg width="14" height="16" viewBox="0 0 14 16" fill="none" xmlns="http://www.w3.org/2000/svg">
<g clip-path="url(#clip0_3179_4188)">
<path d="M3.30859 1.375H10.6914C11.23 1.375 11.7028 1.71842 11.874 2.21973L11.9043 2.32227L13.4629 8.55371L13.4639 8.55664C13.4883 8.65261 13.5 8.75297 13.5 8.85645V11.375C13.5 12.0641 12.9391 12.625 12.25 12.625H1.75C1.06091 12.625 0.5 12.0641 0.5 11.375V8.85645C0.500007 8.80483 0.502783 8.75399 0.508789 8.7041L0.536133 8.55664L0.537109 8.55371L2.0957 2.32227C2.2343 1.76594 2.73408 1.375 3.30859 1.375ZM1.35547 8.375H3.40137C3.5068 8.375 3.60662 8.42084 3.67676 8.49707L3.73633 8.58301L4.12695 9.36426V9.36328C4.35989 9.83308 4.83772 10.1249 5.35645 10.125H8.64844C9.10456 10.125 9.52665 9.89794 9.78027 9.53027L9.87793 9.36426L10.2695 8.58301V8.58105C10.3319 8.45517 10.4609 8.37515 10.6035 8.375H12.6445L11.082 2.125H2.91797L1.35547 8.375Z" fill="black" stroke="black"/>
</g>
<defs>
<clipPath id="clip0_3179_4188">
<rect width="14" height="14" fill="white"/>
</clipPath>
</defs>
</svg>
