<svg width="16" height="16" viewBox="0 0 20 20" fill="none" xmlns="http://www.w3.org/2000/svg" xmlns:xlink="http://www.w3.org/1999/xlink">
	<desc>
			Created with Pixso.
	</desc>
	<defs/>
	<path id="Vector" d="M15 12L15 12M5 5L17 5C17.53 5 18.03 5.21 18.41 5.58C18.78 5.96 19 6.46 19 7L19 17C19 17.53 18.78 18.03 18.41 18.41C18.03 18.78 17.53 19 17 19L3 19C2.46 19 1.96 18.78 1.58 18.41C1.21 18.03 1 17.53 1 17L1 3C1 2.46 1.21 1.96 1.58 1.58C1.96 1.21 2.46 1 3 1L17 1" stroke="#9747FF" stroke-opacity="1.000000" stroke-width="2.000000" stroke-linejoin="round" stroke-linecap="round"/>
</svg>
