<svg width="28" height="29" viewBox="0 0 28 29" fill="none" xmlns="http://www.w3.org/2000/svg">
<path d="M20.3667 3.055C28.7297 8.47909 30.0921 17.9443 25.0857 23.9766C20.0793 30.0089 8.54074 29.6905 2.23677 24.8998C-4.0672 20.1092 4.9222 15.453 5.2461 8.47907C5.57001 1.5051 12.0036 -2.36908 20.3667 3.055Z" fill="#F7AD30"/>
<path d="M16.5 12.5L11.5 17.5M11.5 12.5L16.5 17.5M24 25L19.7 20.7M22 15C22 19.4183 18.4183 23 14 23C9.58172 23 6 19.4183 6 15C6 10.5817 9.58172 7 14 7C18.4183 7 22 10.5817 22 15Z" stroke="white" stroke-width="2" stroke-linecap="round" stroke-linejoin="round"/>
</svg>
