<svg width="66" height="22" viewBox="0 0 66 22" fill="none" xmlns="http://www.w3.org/2000/svg">
<rect x="0.333008" y="0.5" width="65" height="21" rx="10.5" fill="#E8EEFC"/>
<circle cx="8.83301" cy="11" r="2.5" fill="#2E66E2"/>
<path d="M17.733 11C17.733 9.96667 18.0763 9.10667 18.763 8.42C19.4563 7.72667 20.353 7.38 21.453 7.38C22.5463 7.38 23.4363 7.71 24.123 8.37C24.823 9.03 25.173 9.90667 25.173 11C25.173 12.0533 24.8197 12.92 24.113 13.6C23.413 14.28 22.5263 14.62 21.453 14.62C20.3663 14.62 19.473 14.29 18.773 13.63C18.0797 12.97 17.733 12.0933 17.733 11ZM19.433 11C19.433 11.5933 19.6297 12.0967 20.023 12.51C20.4097 12.9167 20.8863 13.12 21.453 13.12C22.093 13.12 22.5897 12.9233 22.943 12.53C23.2963 12.1233 23.473 11.6133 23.473 11C23.473 10.3667 23.2797 9.85667 22.893 9.47C22.4997 9.07667 22.0197 8.88 21.453 8.88C20.8663 8.88 20.383 9.07667 20.003 9.47C19.623 9.86333 19.433 10.3733 19.433 11ZM32.6752 7.5V14.5H31.3952L28.0752 10.3V14.5H26.5752V7.5H27.8552L31.1752 11.72V7.5H32.6752ZM36.8156 12.45H34.1756V11.05H36.8156V12.45ZM40.8882 12.58C40.8882 12.2867 40.5448 11.9767 39.8582 11.65C39.6582 11.5633 39.4815 11.4833 39.3282 11.41C39.1815 11.33 39.0148 11.2233 38.8282 11.09C38.6482 10.95 38.4982 10.8067 38.3782 10.66C38.2648 10.5133 38.1648 10.33 38.0782 10.11C37.9982 9.89 37.9615 9.65333 37.9682 9.4C37.9682 8.84 38.1748 8.36333 38.5882 7.97C39.0015 7.57667 39.5482 7.38 40.2282 7.38C41.1215 7.38 41.8082 7.63667 42.2882 8.15L41.4282 9.35C41.2348 9.17 41.0648 9.04667 40.9182 8.98C40.7782 8.91333 40.5948 8.88 40.3682 8.88C40.1482 8.88 39.9748 8.92667 39.8482 9.02C39.7282 9.11333 39.6682 9.24 39.6682 9.4C39.6682 9.58 39.7382 9.74 39.8782 9.88C40.0248 10.02 40.2048 10.1367 40.4182 10.23C40.6382 10.3167 40.8748 10.4267 41.1282 10.56C41.3815 10.6933 41.6148 10.8367 41.8282 10.99C42.0482 11.1367 42.2282 11.3467 42.3682 11.62C42.5148 11.8867 42.5882 12.2 42.5882 12.56C42.5882 13.16 42.3582 13.6533 41.8982 14.04C41.4515 14.4267 40.8815 14.62 40.1882 14.62C39.6815 14.62 39.2015 14.5167 38.7482 14.31C38.2882 14.1033 37.9782 13.8233 37.8182 13.47L38.7282 12.38C38.9082 12.6133 39.1348 12.7967 39.4082 12.93C39.6815 13.0567 39.9548 13.12 40.2282 13.12C40.4348 13.12 40.5948 13.0733 40.7082 12.98C40.8282 12.88 40.8882 12.7467 40.8882 12.58ZM45.6846 14.5H44.0846V7.5H45.6846V14.5ZM48.9881 9H46.8881V7.5H52.6881V9H50.5881V14.5H48.9881V9ZM58.0342 14.5H53.7842V7.5H57.9342V9H55.3842V10.23H57.6342V11.73H55.3842V13H58.0342V14.5Z" fill="#2E66E2"/>
</svg>
