<svg width="32.000000" height="32.000000" viewBox="0 0 32 32" fill="none" xmlns="http://www.w3.org/2000/svg" xmlns:xlink="http://www.w3.org/1999/xlink">
	<desc>
			Created with Pixso.
	</desc>
	<defs/>
	<rect id="Property 1=Refunded" rx="15.500000" width="31.000000" height="31.000000" transform="translate(0.500000 0.500000)" fill="#E8EEFC" fill-opacity="1.000000"/>
	<mask id="mask20_1581" mask-type="alpha" maskUnits="userSpaceOnUse" x="4.000000" y="4.000000" width="24.000000" height="24.000000">
		<rect id="Bounding box" x="4.000000" y="4.000000" width="24.000000" height="24.000000" fill="#D9D9D9" fill-opacity="1.000000"/>
	</mask>
	<g mask="url(#mask20_1581)">
		<path id="cached" d="M16.05 24C13.81 24 11.91 23.22 10.34 21.67C8.78 20.12 8 18.23 8 16L8 15.82L6.4 17.42L5 16.02L9 12.02L13 16.02L11.59 17.42L10 15.82L10 16C10 17.66 10.58 19.08 11.76 20.25C12.93 21.41 14.36 22 16.05 22C16.48 22 16.9 21.95 17.32 21.84C17.74 21.75 18.15 21.59 18.55 21.4L20.05 22.9C19.41 23.26 18.76 23.54 18.09 23.72C17.43 23.9 16.75 24 16.05 24ZM23 19.97L19 15.97L20.4 14.57L22 16.17L22 16C22 14.33 21.41 12.91 20.23 11.75C19.06 10.58 17.63 10 15.94 10C15.51 10 15.09 10.04 14.67 10.15C14.25 10.25 13.84 10.4 13.44 10.59L11.94 9.09C12.58 8.73 13.23 8.45 13.9 8.27C14.56 8.09 15.25 8 15.94 8C18.18 8 20.08 8.77 21.65 10.32C23.21 11.87 24 13.76 24 16L24 16.17L25.59 14.57L27 15.97L23 19.97Z" fill="#2E66E2" fill-opacity="1.000000" fill-rule="nonzero"/>
	</g>
</svg>
