<svg width="16" height="15" viewBox="0 0 16 15" fill="none" xmlns="http://www.w3.org/2000/svg">
<path d="M6.99935 9.00008L4.99935 7.00008M4.99935 7.00008L6.99935 5.00008M4.99935 7.00008H9.66602C10.0196 7.00008 10.3588 7.14056 10.6088 7.39061C10.8589 7.64065 10.9993 7.97979 10.9993 8.33341V9.00008M5.59935 12.3334C6.87173 12.9862 8.33541 13.1629 9.72661 12.832C11.1178 12.501 12.3451 11.684 13.1872 10.5282C14.0293 9.37246 14.431 7.95392 14.3197 6.52822C14.2085 5.10252 13.5917 3.76343 12.5806 2.75224C11.5694 1.74106 10.2303 1.12428 8.80458 1.01306C7.37888 0.901833 5.96033 1.30348 4.80456 2.14561C3.64879 2.98774 2.83181 4.21499 2.50083 5.60619C2.16985 6.99739 2.34664 8.46106 2.99935 9.73345L1.66602 13.6668L5.59935 12.3334Z" stroke="black" stroke-width="2" stroke-linecap="round" stroke-linejoin="round"/>
</svg>
