<svg width="16" height="16" viewBox="0 0 16 16" fill="none" xmlns="http://www.w3.org/2000/svg">
<path d="M8.00001 13.334C9.4145 13.334 10.7711 12.7721 11.7712 11.7719C12.7714 10.7717 13.3333 9.41514 13.3333 8.00065C13.3333 6.58616 12.7714 5.22961 11.7712 4.22942C10.7711 3.22922 9.4145 2.66732 8.00001 2.66732M8.00001 13.334C6.58552 13.334 5.22897 12.7721 4.22877 11.7719C3.22858 10.7717 2.66668 9.41514 2.66668 8.00065M8.00001 13.334V14.6673M8.00001 2.66732C6.58552 2.66732 5.22897 3.22922 4.22877 4.22942C3.22858 5.22961 2.66668 6.58616 2.66668 8.00065M8.00001 2.66732V1.33398M2.66668 8.00065H1.33334M9.33334 8.00065C9.33334 8.35427 9.19287 8.69341 8.94282 8.94346C8.69277 9.19351 8.35363 9.33398 8.00001 9.33398C7.64639 9.33398 7.30725 9.19351 7.0572 8.94346C6.80715 8.69341 6.66668 8.35427 6.66668 8.00065C6.66668 7.64703 6.80715 7.30789 7.0572 7.05784C7.30725 6.80779 7.64639 6.66732 8.00001 6.66732C8.35363 6.66732 8.69277 6.80779 8.94282 7.05784C9.19287 7.30789 9.33334 7.64703 9.33334 8.00065ZM9.33334 8.00065H14.6667M11.3333 13.7739L10.6667 12.6206M7.33334 6.84738L4.66668 2.22738M13.7733 11.334L12.62 10.6673M2.22674 4.66732L3.38007 5.33398M13.7733 4.66732L12.62 5.33398M2.22674 11.334L3.38007 10.6673M11.3333 2.22738L10.6667 3.38071M7.33334 9.15397L4.66668 13.774" stroke="black" stroke-width="2" stroke-linecap="round" stroke-linejoin="round"/>
</svg>
