<svg width="11" height="14" viewBox="0 0 11 14" fill="none" xmlns="http://www.w3.org/2000/svg">
<path d="M5.66732 7.66671C5.01176 7.66671 4.45898 7.44171 4.00898 6.99171C3.55898 6.54171 3.33398 5.98893 3.33398 5.33337C3.33398 4.67782 3.55898 4.12504 4.00898 3.67504C4.45898 3.22504 5.01176 3.00004 5.66732 3.00004C6.32287 3.00004 6.87565 3.22504 7.32565 3.67504C7.77565 4.12504 8.00065 4.67782 8.00065 5.33337C8.00065 5.98893 7.77565 6.54171 7.32565 6.99171C6.87565 7.44171 6.32287 7.66671 5.66732 7.66671ZM5.66732 6.33337C5.95621 6.33337 6.1951 6.23893 6.38398 6.05004C6.57287 5.86115 6.66732 5.62226 6.66732 5.33337C6.66732 5.04449 6.57287 4.8056 6.38398 4.61671C6.1951 4.42782 5.95621 4.33337 5.66732 4.33337C5.37843 4.33337 5.13954 4.42782 4.95065 4.61671C4.76176 4.8056 4.66732 5.04449 4.66732 5.33337C4.66732 5.62226 4.76176 5.86115 4.95065 6.05004C5.13954 6.23893 5.37843 6.33337 5.66732 6.33337ZM5.66732 13.6667C4.12287 13.2778 2.84787 12.3917 1.84232 11.0084C0.836762 9.62504 0.333984 8.08893 0.333984 6.40004V2.33337L5.66732 0.333374L11.0007 2.33337V6.40004C11.0007 8.08893 10.4979 9.62504 9.49232 11.0084C8.48676 12.3917 7.21176 13.2778 5.66732 13.6667ZM5.66732 1.75004L1.66732 3.25004V6.40004C1.66732 7.00004 1.75065 7.58337 1.91732 8.15004C2.08398 8.71671 2.31176 9.25004 2.60065 9.75004C3.06732 9.51671 3.55621 9.33337 4.06732 9.20004C4.57843 9.06671 5.11176 9.00004 5.66732 9.00004C6.22287 9.00004 6.75621 9.06671 7.26732 9.20004C7.77843 9.33337 8.26732 9.51671 8.73398 9.75004C9.02287 9.25004 9.25065 8.71671 9.41732 8.15004C9.58398 7.58337 9.66732 7.00004 9.66732 6.40004V3.25004L5.66732 1.75004ZM5.66732 10.3334C5.26732 10.3334 4.87843 10.3778 4.50065 10.4667C4.12287 10.5556 3.76176 10.6778 3.41732 10.8334C3.73954 11.1667 4.08954 11.4556 4.46732 11.7C4.8451 11.9445 5.2451 12.1334 5.66732 12.2667C6.08954 12.1334 6.48954 11.9445 6.86732 11.7C7.2451 11.4556 7.5951 11.1667 7.91732 10.8334C7.57287 10.6778 7.21176 10.5556 6.83398 10.4667C6.45621 10.3778 6.06732 10.3334 5.66732 10.3334Z" fill="black" fill-opacity="0.5"/>
</svg>
