<svg width="10.666992" height="13.333374" viewBox="0 0 10.667 13.3334" fill="none" xmlns="http://www.w3.org/2000/svg" xmlns:xlink="http://www.w3.org/1999/xlink">
	<desc>
			Created with Pixso.
	</desc>
	<defs/>
	<path id="shield_person" d="M5.33 7.33C4.67 7.33 4.12 7.1 3.67 6.65C3.22 6.2 3 5.65 3 5C3 4.34 3.22 3.79 3.67 3.34C4.12 2.89 4.67 2.66 5.33 2.66C5.98 2.66 6.54 2.89 6.99 3.34C7.44 3.79 7.66 4.34 7.66 5C7.66 5.65 7.44 6.2 6.99 6.65C6.54 7.1 5.98 7.33 5.33 7.33ZM5.33 6C5.62 6 5.86 5.9 6.04 5.71C6.23 5.52 6.33 5.28 6.33 5C6.33 4.71 6.23 4.47 6.04 4.28C5.86 4.09 5.62 4 5.33 4C5.04 4 4.8 4.09 4.61 4.28C4.42 4.47 4.33 4.71 4.33 5C4.33 5.28 4.42 5.52 4.61 5.71C4.8 5.9 5.04 6 5.33 6ZM5.33 13.33C3.78 12.94 2.51 12.05 1.5 10.67C0.5 9.29 0 7.75 0 6.06L0 2L5.33 0L10.66 2L10.66 6.06C10.66 7.75 10.16 9.29 9.15 10.67C8.15 12.05 6.87 12.94 5.33 13.33ZM5.33 1.41L1.33 2.91L1.33 6.06C1.33 6.66 1.41 7.25 1.58 7.81C1.75 8.38 1.97 8.91 2.26 9.41C2.73 9.18 3.22 9 3.73 8.86C4.24 8.73 4.77 8.66 5.33 8.66C5.88 8.66 6.42 8.73 6.93 8.86C7.44 9 7.93 9.18 8.4 9.41C8.68 8.91 8.91 8.38 9.08 7.81C9.25 7.25 9.33 6.66 9.33 6.06L9.33 2.91L5.33 1.41ZM5.33 10C4.93 10 4.54 10.04 4.16 10.13C3.78 10.22 3.42 10.34 3.08 10.5C3.4 10.83 3.75 11.12 4.13 11.36C4.51 11.61 4.91 11.8 5.33 11.93C5.75 11.8 6.15 11.61 6.53 11.36C6.91 11.12 7.26 10.83 7.58 10.5C7.23 10.34 6.87 10.22 6.5 10.13C6.12 10.04 5.73 10 5.33 10Z" fill="#2E66E2" fill-opacity="1.000000" fill-rule="nonzero"/>
</svg>
