<svg width="15.333344" height="14.666664" viewBox="0 0 15.3333 14.6667" fill="none" xmlns="http://www.w3.org/2000/svg" xmlns:xlink="http://www.w3.org/1999/xlink">
	<desc>
			Created with Pixso.
	</desc>
	<defs/>
	<path id="Vector" d="M1 13C0.99 11.97 1.29 10.96 1.85 10.1C2.4 9.24 3.2 8.56 4.13 8.13C5.07 7.71 6.11 7.57 7.12 7.72C8.14 7.87 9.09 8.32 9.86 8.99M6.33 7.66C4.49 7.66 3 6.17 3 4.33C3 2.49 4.49 1 6.33 1C8.17 1 9.66 2.49 9.66 4.33C9.66 6.17 8.17 7.66 6.33 7.66ZM12.33 9.66L12.33 13.66M14.33 11.66L10.33 11.66" stroke="#F8B647" stroke-opacity="1.000000" stroke-width="2.000000" stroke-linejoin="round" stroke-linecap="round"/>
</svg>
