<svg width="11.145508" height="10.667969" viewBox="0 0 11.1455 10.668" fill="none" xmlns="http://www.w3.org/2000/svg" xmlns:xlink="http://www.w3.org/1999/xlink">
	<desc>
			Created with Pixso.
	</desc>
	<defs/>
	<path id="Vector" d="M4.97 0.37L3.61 3.12L0.57 3.57C0.02 3.65 -0.2 4.32 0.2 4.71L2.4 6.85L1.88 9.88C1.79 10.43 2.36 10.84 2.84 10.58L5.57 9.15L8.29 10.58C8.77 10.84 9.35 10.43 9.26 9.88L8.74 6.85L10.94 4.71C11.33 4.32 11.12 3.65 10.57 3.57L7.53 3.12L6.17 0.37C5.92 -0.13 5.22 -0.13 4.97 0.37Z" fill="#F7AD30" fill-opacity="1.000000" fill-rule="nonzero"/>
	<path id="Vector" d="M3.61 3.12L0.57 3.57C0.02 3.65 -0.2 4.32 0.2 4.71L2.4 6.85L1.88 9.88C1.79 10.43 2.36 10.84 2.84 10.58L5.57 9.15L8.29 10.58C8.77 10.84 9.35 10.43 9.26 9.88L8.74 6.85L10.94 4.71C11.33 4.32 11.12 3.65 10.57 3.57L7.53 3.12L6.17 0.37C5.92 -0.13 5.22 -0.13 4.97 0.37L3.61 3.12ZM0.57 3.61L3.62 3.17L3.64 3.16L5.01 0.39Q5.06 0.28 5.14 0.21Q5.19 0.16 5.25 0.12Q5.31 0.09 5.38 0.07Q5.47 0.04 5.57 0.04Q5.67 0.04 5.76 0.07Q5.83 0.09 5.89 0.13Q5.95 0.16 6 0.21Q6.08 0.29 6.13 0.39L7.5 3.16L10.56 3.61Q10.68 3.63 10.77 3.68Q10.83 3.71 10.88 3.76Q10.94 3.81 10.98 3.86Q11.04 3.94 11.07 4.04Q11.1 4.13 11.1 4.23Q11.1 4.3 11.08 4.37Q11.07 4.44 11.04 4.5Q10.99 4.6 10.91 4.67L8.69 6.84L9.21 9.89Q9.23 10.01 9.21 10.11Q9.2 10.18 9.17 10.24Q9.15 10.31 9.1 10.36Q9.05 10.44 8.97 10.5Q8.89 10.56 8.8 10.59Q8.73 10.61 8.66 10.62Q8.58 10.62 8.51 10.61Q8.41 10.6 8.31 10.55L5.57 9.1L2.83 10.55Q2.73 10.6 2.63 10.61Q2.56 10.62 2.48 10.62Q2.41 10.61 2.34 10.59Q2.25 10.56 2.17 10.5Q2.09 10.44 2.03 10.36Q1.99 10.31 1.96 10.24Q1.93 10.18 1.92 10.11Q1.9 10 1.92 9.89L2.45 6.84L0.23 4.67Q0.15 4.6 0.1 4.5Q0.07 4.44 0.05 4.37Q0.04 4.3 0.04 4.23Q0.04 4.13 0.07 4.04Q0.1 3.94 0.16 3.86Q0.2 3.81 0.25 3.76Q0.3 3.71 0.37 3.68Q0.46 3.63 0.57 3.61Z" fill="#F7AD30" fill-opacity="1.000000" fill-rule="evenodd"/>
</svg>
