<svg width="14.672363" height="14.672318" viewBox="0 0 14.6724 14.6723" fill="none" xmlns="http://www.w3.org/2000/svg" xmlns:xlink="http://www.w3.org/1999/xlink">
	<desc>
			Created with Pixso.
	</desc>
	<defs/>
	<path id="Vector" d="M9.06 12.83C10.45 12.5 11.67 11.68 12.52 10.53C13.36 9.37 13.76 7.95 13.65 6.53C13.54 5.1 12.92 3.76 11.91 2.75C10.9 1.74 9.56 1.12 8.13 1.01C6.71 0.9 5.29 1.3 4.13 2.15C2.98 2.99 2.16 4.22 1.83 5.61C1.5 7 1.68 8.46 2.33 9.73L1 13.67L4.93 12.33C6.2 12.99 7.66 13.16 9.06 12.83ZM5.72 5C5.88 4.56 6.19 4.18 6.6 3.94C7 3.7 7.48 3.61 7.95 3.69C8.41 3.77 8.83 4.02 9.14 4.38C9.44 4.74 9.61 5.2 9.61 5.67C9.61 7 7.61 7.67 7.61 7.67M7.66 10.33L7.67 10.33" stroke="#F8B647" stroke-opacity="1.000000" stroke-width="2.000000" stroke-linejoin="round" stroke-linecap="round"/>
</svg>
