<svg width="14.000000" height="14.000000" viewBox="0 0 14 14" fill="none" xmlns="http://www.w3.org/2000/svg" xmlns:xlink="http://www.w3.org/1999/xlink">
	<desc>
			Created with Pixso.
	</desc>
	<defs/>
	<path id="Vector" d="M7 0C7.48 0 7.87 0.39 7.87 0.87L7.87 1.82C10.07 2.19 11.8 3.92 12.17 6.12L13.12 6.12C13.6 6.12 14 6.51 14 7C14 7.48 13.6 7.87 13.12 7.87L12.17 7.87C11.8 10.07 10.07 11.8 7.87 12.17L7.87 13.12C7.87 13.6 7.48 14 7 14C6.51 14 6.12 13.6 6.12 13.12L6.12 12.17C3.92 11.8 2.19 10.07 1.82 7.87L0.87 7.87C0.39 7.87 0 7.48 0 7C0 6.51 0.39 6.12 0.87 6.12L1.82 6.12C2.19 3.92 3.92 2.19 6.12 1.82L6.12 0.87C6.12 0.39 6.51 0 7 0ZM3.5 7C3.5 7.92 3.86 8.81 4.52 9.47C5.18 10.13 6.07 10.5 7 10.5C7.92 10.5 8.81 10.13 9.47 9.47C10.13 8.81 10.5 7.92 10.5 7C10.5 6.07 10.13 5.18 9.47 4.52C8.81 3.86 7.92 3.5 7 3.5C6.07 3.5 5.18 3.86 4.52 4.52C3.86 5.18 3.5 6.07 3.5 7ZM7 4.81C7.58 4.81 8.13 5.04 8.54 5.45C8.95 5.86 9.18 6.41 9.18 7C9.18 7.58 8.95 8.13 8.54 8.54C8.13 8.95 7.58 9.18 7 9.18C6.41 9.18 5.86 8.95 5.45 8.54C5.04 8.13 4.81 7.58 4.81 7C4.81 6.41 5.04 5.86 5.45 5.45C5.86 5.04 6.41 4.81 7 4.81Z" fill="#000000" fill-opacity="1.000000" fill-rule="nonzero"/>
</svg>
