<svg width="29" height="28" viewBox="0 0 29 28" fill="none" xmlns="http://www.w3.org/2000/svg">
<path d="M21.1167 2.555C29.4797 7.97909 30.8421 17.4443 25.8357 23.4766C20.8293 29.5089 9.29074 29.1905 2.98677 24.3998C-3.3172 19.6092 5.6722 14.953 5.9961 7.97907C6.32001 1.0051 12.7536 -2.86908 21.1167 2.555Z" fill="#F7AD30"/>
<g clip-path="url(#clip0_3041_11632)">
<path fill-rule="evenodd" clip-rule="evenodd" d="M27.75 15.5C27.75 22.1274 22.3774 27.5 15.75 27.5C9.12258 27.5 3.75 22.1274 3.75 15.5C3.75 8.87258 9.12258 3.5 15.75 3.5C22.3774 3.5 27.75 8.87258 27.75 15.5ZM16.18 12.3589C15.0128 12.8444 12.6801 13.8492 9.18189 15.3733C8.61383 15.5992 8.31626 15.8202 8.28917 16.0363C8.24339 16.4015 8.70071 16.5453 9.32347 16.7411C9.40818 16.7678 9.49595 16.7954 9.58594 16.8246C10.1986 17.0238 11.0228 17.2568 11.4513 17.266C11.8399 17.2744 12.2737 17.1142 12.7526 16.7853C16.0212 14.579 17.7084 13.4638 17.8143 13.4398C17.889 13.4228 17.9926 13.4015 18.0628 13.4638C18.1329 13.5262 18.126 13.6443 18.1186 13.676C18.0733 13.8691 16.2781 15.5381 15.3491 16.4018C15.0595 16.671 14.8541 16.862 14.8121 16.9056C14.718 17.0033 14.6221 17.0958 14.53 17.1846C13.9608 17.7333 13.5339 18.1448 14.5536 18.8168C15.0436 19.1397 15.4358 19.4067 15.827 19.6731C16.2542 19.9641 16.6803 20.2543 17.2316 20.6157C17.3721 20.7077 17.5062 20.8034 17.6369 20.8965C18.1341 21.251 18.5807 21.5694 19.1326 21.5186C19.4532 21.4891 19.7845 21.1876 19.9527 20.2884C20.3502 18.1631 21.1316 13.5585 21.3122 11.661C21.328 11.4947 21.3081 11.282 21.2922 11.1886C21.2762 11.0952 21.2428 10.9621 21.1214 10.8636C20.9776 10.7469 20.7556 10.7223 20.6564 10.7241C20.205 10.732 19.5126 10.9728 16.18 12.3589Z" fill="black"/>
</g>
<defs>
<clipPath id="clip0_3041_11632">
<rect width="24" height="24" fill="white" transform="translate(3.75 3.5)"/>
</clipPath>
</defs>
</svg>
