<svg width="14" height="14" viewBox="0 0 14 14" fill="none" xmlns="http://www.w3.org/2000/svg">
<path d="M7.00004 13.6673C6.07782 13.6673 5.21115 13.4923 4.40004 13.1423C3.58893 12.7923 2.88337 12.3173 2.28337 11.7173C1.68337 11.1173 1.20837 10.4118 0.858374 9.60065C0.508374 8.78954 0.333374 7.92287 0.333374 7.00065C0.333374 6.07843 0.508374 5.21176 0.858374 4.40065C1.20837 3.58954 1.68337 2.88398 2.28337 2.28398C2.88337 1.68398 3.58893 1.20898 4.40004 0.858984C5.21115 0.508984 6.07782 0.333984 7.00004 0.333984C7.92226 0.333984 8.78893 0.508984 9.60004 0.858984C10.4112 1.20898 11.1167 1.68398 11.7167 2.28398C12.3167 2.88398 12.7917 3.58954 13.1417 4.40065C13.4917 5.21176 13.6667 6.07843 13.6667 7.00065C13.6667 7.92287 13.4917 8.78954 13.1417 9.60065C12.7917 10.4118 12.3167 11.1173 11.7167 11.7173C11.1167 12.3173 10.4112 12.7923 9.60004 13.1423C8.78893 13.4923 7.92226 13.6673 7.00004 13.6673ZM7.00004 12.334C7.71115 12.334 8.39449 12.2007 9.05004 11.934C9.7056 11.6673 10.2834 11.284 10.7834 10.784L7.00004 7.00065V1.66732C5.51115 1.66732 4.25004 2.18398 3.21671 3.21732C2.18337 4.25065 1.66671 5.51176 1.66671 7.00065C1.66671 8.48954 2.18337 9.75065 3.21671 10.784C4.25004 11.8173 5.51115 12.334 7.00004 12.334Z" fill="black" fill-opacity="0.5"/>
</svg>
