<svg width="12.500000" height="20.000000" viewBox="0 0 12.5 20" fill="none" xmlns="http://www.w3.org/2000/svg" xmlns:xlink="http://www.w3.org/1999/xlink">
	<desc>
			Created with Pixso.
	</desc>
	<defs/>
	<path id="attach_file" d="M12.5 13.75C12.5 15.48 11.89 16.95 10.67 18.17C9.45 19.39 7.98 20 6.25 20C4.51 20 3.04 19.39 1.82 18.17C0.6 16.95 0 15.48 0 13.75L0 4.5C0 3.25 0.43 2.18 1.31 1.31C2.18 0.43 3.25 0 4.5 0C5.75 0 6.81 0.43 7.68 1.31C8.56 2.18 9 3.25 9 4.5L9 13.25C9 14.01 8.73 14.66 8.2 15.2C7.66 15.73 7.01 16 6.25 16C5.48 16 4.83 15.73 4.29 15.2C3.76 14.66 3.5 14.01 3.5 13.25L3.5 4L5.5 4L5.5 13.25C5.5 13.46 5.57 13.64 5.71 13.78C5.85 13.92 6.03 14 6.25 14C6.46 14 6.64 13.92 6.78 13.78C6.92 13.64 7 13.46 7 13.25L7 4.5C6.98 3.8 6.73 3.2 6.26 2.72C5.78 2.24 5.2 2 4.5 2C3.79 2 3.2 2.24 2.72 2.72C2.24 3.2 2 3.8 2 4.5L2 13.75C1.98 14.93 2.39 15.93 3.22 16.76C4.05 17.58 5.06 18 6.25 18C7.41 18 8.4 17.58 9.22 16.76C10.04 15.93 10.46 14.93 10.5 13.75L10.5 4L12.5 4L12.5 13.75Z" fill="#000000" fill-opacity="0.500000" fill-rule="nonzero"/>
</svg>
