<svg width="14.000000" height="18.000000" viewBox="0 0 14 18" fill="none" xmlns="http://www.w3.org/2000/svg" xmlns:xlink="http://www.w3.org/1999/xlink">
	<desc>
			Created with Pixso.
	</desc>
	<defs/>
	<path id="format_underlined" d="M0 18L0 16L14 16L14 18L0 18ZM7 14C5.31 14 4 13.47 3.07 12.42C2.14 11.37 1.67 9.98 1.67 8.25L1.67 0L4.25 0L4.25 8.39C4.25 9.33 4.48 10.09 4.95 10.67C5.41 11.25 6.09 11.55 7 11.55C7.9 11.55 8.58 11.25 9.04 10.67C9.51 10.09 9.75 9.33 9.75 8.39L9.75 0L12.32 0L12.32 8.25C12.32 9.98 11.85 11.37 10.92 12.42C9.99 13.47 8.68 14 7 14Z" fill="#000000" fill-opacity="0.500000" fill-rule="nonzero"/>
</svg>
