<svg width="10.000000" height="8.000000" viewBox="0 0 10 8" fill="none" xmlns="http://www.w3.org/2000/svg" xmlns:xlink="http://www.w3.org/1999/xlink">
	<desc>
			Created with Pixso.
	</desc>
	<defs/>
	<path id="video_camera_front" d="M2 6L6 6L6 5.72C6 5.35 5.81 5.06 5.44 4.83C5.08 4.61 4.59 4.5 4 4.5C3.4 4.5 2.91 4.61 2.55 4.83C2.18 5.06 2 5.35 2 5.72L2 6ZM4 4C4.27 4 4.5 3.9 4.7 3.7C4.9 3.51 5 3.27 5 3C5 2.72 4.9 2.48 4.7 2.29C4.5 2.09 4.27 2 4 2C3.72 2 3.49 2.09 3.29 2.29C3.09 2.48 3 2.72 3 3C3 3.27 3.09 3.51 3.29 3.7C3.49 3.9 3.72 4 4 4ZM1 8C0.72 8 0.49 7.9 0.29 7.7C0.09 7.51 0 7.27 0 7L0 1C0 0.72 0.09 0.48 0.29 0.29C0.49 0.09 0.72 0 1 0L7 0C7.27 0 7.5 0.09 7.7 0.29C7.9 0.48 8 0.72 8 1L8 3.25L10 1.25L10 6.75L8 4.75L8 7C8 7.27 7.9 7.51 7.7 7.7C7.5 7.9 7.27 8 7 8L1 8ZM1 7L7 7L7 1L1 1L1 7Z" fill="#9747FF" fill-opacity="1.000000" fill-rule="nonzero"/>
</svg>
