<svg width="16" height="14" viewBox="0 0 16 14" fill="none" xmlns="http://www.w3.org/2000/svg">
<path d="M5.97306 1.67383L3.50167 4.14466H0.666667C0.298333 4.14466 0 4.44299 0 4.81133V8.81133C0 9.17938 0.298333 9.47799 0.666667 9.47799H3.50167L5.97306 11.9488C6.39056 12.3663 7.11111 12.073 7.11111 11.4774V2.14522C7.11111 1.5491 6.39 1.25688 5.97306 1.67383ZM12.4542 0.254938C12.1439 0.0513266 11.7269 0.13716 11.5233 0.447993C11.3194 0.758271 11.4061 1.17522 11.7164 1.37883C13.5572 2.58688 14.6558 4.61772 14.6558 6.8116C14.6558 9.00549 13.5572 11.0363 11.7164 12.2444C11.4061 12.4477 11.3194 12.8649 11.5233 13.1749C11.7189 13.4724 12.1325 13.5794 12.4542 13.368C14.6742 11.9108 16 9.45938 16 6.81133C16 4.16327 14.6742 1.71216 12.4542 0.254938ZM13.3333 6.81133C13.3333 5.0466 12.4428 3.4241 10.9508 2.47133C10.64 2.27299 10.2278 2.36522 10.0308 2.67855C9.83389 2.99188 9.92583 3.4066 10.2367 3.60522C11.3408 4.31049 12 5.50883 12 6.81133C12 8.11383 11.3408 9.31216 10.2367 10.0174C9.92583 10.2158 9.83389 10.6305 10.0308 10.9441C10.2117 11.2319 10.6175 11.3647 10.9508 11.1513C12.4428 10.1985 13.3333 8.57633 13.3333 6.81133ZM9.39528 4.67605C9.07361 4.50022 8.66778 4.61605 8.48944 4.93855C8.31194 5.26105 8.42944 5.66633 8.75194 5.84438C9.11056 6.04133 9.33333 6.41216 9.33333 6.81133C9.33333 7.21077 9.11056 7.58133 8.75222 7.77827C8.42972 7.95633 8.31222 8.3616 8.48972 8.6841C8.66833 9.00799 9.07444 9.12299 9.39556 8.9466C10.1797 8.51466 10.6669 7.6966 10.6669 6.81105C10.6669 5.92549 10.1797 5.10772 9.39528 4.67605Z" fill="black"/>
<path d="M11.541 0.459961C11.7133 0.196881 12.0442 0.100102 12.3252 0.211914L12.4424 0.273438C14.6561 1.72668 15.9785 4.17091 15.9785 6.81152C15.9785 9.36961 14.7377 11.7439 12.6475 13.2109L12.4424 13.3496C12.1701 13.5285 11.8298 13.4717 11.6221 13.2617L11.541 13.1631C11.3685 12.9007 11.4116 12.5589 11.626 12.3457L11.7285 12.2627C13.5754 11.0506 14.6777 9.01272 14.6777 6.81152C14.6777 4.74785 13.7084 2.82826 12.0654 1.59766L11.7285 1.36035C11.4659 1.18802 11.3687 0.858133 11.4805 0.577148L11.541 0.459961ZM5.98828 1.68945C6.39171 1.28602 7.08984 1.56896 7.08984 2.14551V11.4775C7.08977 12.0176 6.47679 12.3006 6.06738 12.001L5.98828 11.9336L3.5166 9.46289L3.51074 9.45605H0.666992C0.310716 9.45605 0.0215906 9.16751 0.0214844 8.81152V4.81152C0.0214844 4.45518 0.310644 4.16602 0.666992 4.16602H3.51074L3.5166 4.16016L5.98828 1.68945ZM10.0488 2.69043C10.2155 2.42522 10.5419 2.32344 10.8223 2.43066L10.9395 2.48926C12.4251 3.43807 13.3115 5.05425 13.3115 6.81152C13.3115 8.45905 12.5323 9.9816 11.2109 10.9473L10.9395 11.1328C10.6574 11.3133 10.3208 11.238 10.124 11.0293L10.0488 10.9326C9.88215 10.6671 9.92983 10.3267 10.1455 10.1172L10.248 10.0361C11.3584 9.32693 12.0214 8.12141 12.0215 6.81152C12.0215 5.58341 11.439 4.44718 10.4512 3.72559L10.248 3.58691C9.94765 3.3948 9.85857 2.99362 10.0488 2.69043ZM8.50879 4.94922C8.65971 4.67632 8.97867 4.5564 9.26465 4.64453L9.38477 4.69531C10.1623 5.12323 10.6455 5.93402 10.6455 6.81152C10.6453 7.634 10.2207 8.39775 9.52734 8.84277L9.38477 8.92773C9.11286 9.07689 8.7781 9.01025 8.58301 8.78125L8.50879 8.67383C8.35858 8.4009 8.42697 8.06682 8.65527 7.87207L8.7627 7.79688C9.12759 7.59624 9.3554 7.21897 9.35547 6.81152C9.35547 6.45499 9.18103 6.12053 8.89258 5.9082L8.7627 5.8252C8.48973 5.67449 8.36814 5.3557 8.45703 5.06934L8.50879 4.94922Z" stroke="black" stroke-opacity="0.5" stroke-width="0.0434028"/>
</svg>
