<svg width="12" height="13" viewBox="0 0 12 13" fill="none" xmlns="http://www.w3.org/2000/svg">
<path d="M6.71969 1.06183L3.93937 3.84183H0.75C0.335625 3.84183 0 4.17746 0 4.59183V9.09183C0 9.50589 0.335625 9.84183 0.75 9.84183H3.93937L6.71969 12.6215C7.18937 13.0912 8 12.7612 8 12.0912V1.59246C8 0.921518 7.18875 0.59308 6.71969 1.06183ZM10.5697 4.43933C10.2078 4.24152 9.75125 4.37183 9.55062 4.73464C9.35094 5.09746 9.48313 5.55339 9.84594 5.75371C10.2494 5.97558 10.5 6.39246 10.5 6.84183C10.5 7.29121 10.2494 7.70808 9.84625 7.92964C9.48344 8.12996 9.35125 8.58589 9.55094 8.94871C9.75188 9.31308 10.2087 9.44246 10.57 9.24402C11.4522 8.75808 12.0003 7.83777 12.0003 6.84152C12.0003 5.84527 11.4522 4.92527 10.5697 4.43933Z" fill="black"/>
<path d="M6.7373 1.0791C7.1912 0.625797 7.97559 0.943935 7.97559 1.59277V12.0908C7.97559 12.6982 7.28678 13.0172 6.82617 12.6807L6.7373 12.6045L3.95703 9.82422L3.94922 9.81738H0.75C0.349115 9.81738 0.0244141 9.49238 0.0244141 9.0918V4.5918C0.0244321 4.19092 0.34912 3.86621 0.75 3.86621H3.94922L3.95703 3.85938L6.7373 1.0791ZM9.57227 4.74609C9.74213 4.43935 10.1013 4.30423 10.4229 4.40332L10.5576 4.46094C11.4324 4.94265 11.9756 5.85458 11.9756 6.8418C11.9755 7.76728 11.498 8.62627 10.7178 9.12695L10.5586 9.22266C10.2528 9.39061 9.87589 9.31589 9.65625 9.05859L9.57227 8.93652C9.4034 8.62932 9.48011 8.25312 9.7373 8.03418L9.8584 7.95117C10.269 7.72541 10.5244 7.30025 10.5244 6.8418C10.5244 6.44048 10.3283 6.06519 10.0039 5.82617L9.85742 5.73242C9.55045 5.56282 9.41462 5.20394 9.51465 4.88184L9.57227 4.74609Z" stroke="black" stroke-opacity="0.5" stroke-width="0.0488281"/>
</svg>
