<svg width="32.000000" height="32.000000" viewBox="0 0 32 32" fill="none" xmlns="http://www.w3.org/2000/svg" xmlns:xlink="http://www.w3.org/1999/xlink">
	<desc>
			Created with Pixso.
	</desc>
	<defs/>
	<rect id="Property 1=Waitging" rx="15.500000" width="31.000000" height="31.000000" transform="translate(0.500000 0.500000)" fill="#FEF6E8" fill-opacity="1.000000"/>
	<path id="Vector 92 (Stroke)" d="M15.25 11.5L16.75 11.5L16.75 15.68L19.53 18.46L18.46 19.53L15.25 16.31L15.25 11.5Z" fill="#F7AD30" fill-opacity="1.000000" fill-rule="evenodd"/>
	<path id="Ellipse 12 (Stroke)" d="M16 23.5C20.14 23.5 23.5 20.14 23.5 16C23.5 11.85 20.14 8.5 16 8.5C11.85 8.5 8.5 11.85 8.5 16C8.5 20.14 11.85 23.5 16 23.5ZM16 25C20.97 25 25 20.97 25 16C25 11.02 20.97 7 16 7C11.02 7 7 11.02 7 16C7 20.97 11.02 25 16 25Z" fill="#F7AD30" fill-opacity="1.000000" fill-rule="evenodd"/>
</svg>
