<svg width="44" height="44" viewBox="0 0 44 44" fill="none" xmlns="http://www.w3.org/2000/svg">
<rect width="44" height="44" rx="22" fill="black" fill-opacity="0.1"/>
<path d="M13.6 16.375V24.6875C13.6 25.9975 14.6762 27.0625 16 27.0625H31.6C32.9238 27.0625 34 25.9975 34 24.6875V16.375C34 15.065 32.9238 14 31.6 14H16C14.6762 14 13.6 15.065 13.6 16.375ZM16 22.3125C17.3238 22.3125 18.4 23.3775 18.4 24.6875H16V22.3125ZM18.4 16.375C18.4 17.685 17.3238 18.75 16 18.75V16.375H18.4ZM31.6 22.3125V24.6875H29.2C29.2 23.3775 30.2763 22.3125 31.6 22.3125ZM29.2 16.375H31.6V18.75C30.2763 18.75 29.2 17.685 29.2 16.375ZM20.8 20.5312C20.8 19.7439 21.1161 18.9888 21.6787 18.432C22.2413 17.8753 23.0044 17.5625 23.8 17.5625C24.5956 17.5625 25.3587 17.8753 25.9213 18.432C26.4839 18.9888 26.8 19.7439 26.8 20.5312C26.8 21.3186 26.4839 22.0737 25.9213 22.6305C25.3587 23.1872 24.5956 23.5 23.8 23.5C23.0044 23.5 22.2413 23.1872 21.6787 22.6305C21.1161 22.0737 20.8 21.3186 20.8 20.5312ZM11.8 17.2656C11.8 16.7721 11.3988 16.375 10.9 16.375C10.4013 16.375 10 16.7721 10 17.2656V26.1719C10 28.6322 12.0138 30.625 14.5 30.625H29.5C29.9988 30.625 30.4 30.2279 30.4 29.7344C30.4 29.2408 29.9988 28.8438 29.5 28.8438H14.5C13.0075 28.8438 11.8 27.6488 11.8 26.1719V17.2656Z" fill="black" fill-opacity="0.5"/>
</svg>
