<svg id="Слой_1" data-name="Слой 1" xmlns="http://www.w3.org/2000/svg" viewBox="0 0 28 28"><defs><style>.cls-1{fill:#f7ad30;}.cls-2{fill:#1d1d1b;}</style></defs><title>whatsapp-color</title><path class="cls-1" d="M20.62,2.55C29,8,30.34,17.44,25.34,23.48S8.79,29.19,2.49,24.4,5.17,15,5.5,8,12.25-2.87,20.62,2.55Z" transform="translate(-0.25 0)"/><path class="cls-2" d="M3.25,27.5l1.69-6.16a11.83,11.83,0,1,1,4.61,4.51Zm6.6-3.81a9.89,9.89,0,1,0-4.49-8.3A10,10,0,0,0,7.1,21l-1,3.64Zm11.38-5.46c-.07-.13-.27-.2-.57-.35s-1.75-.87-2-1-.47-.14-.67.15A13.68,13.68,0,0,1,17,18.23c-.17.2-.34.22-.64.07A8,8,0,0,1,14,16.83a8.9,8.9,0,0,1-1.65-2.06c-.18-.3,0-.46.13-.61s.29-.34.44-.52a1.9,1.9,0,0,0,.3-.49.55.55,0,0,0,0-.52c-.08-.15-.67-1.62-.92-2.21s-.49-.5-.67-.51H11a1.07,1.07,0,0,0-.79.37,3.36,3.36,0,0,0-1,2.48,5.73,5.73,0,0,0,1.21,3.07,13.3,13.3,0,0,0,5.08,4.49,17.33,17.33,0,0,0,1.69.63,4.3,4.3,0,0,0,1.88.12,3.06,3.06,0,0,0,2-1.42A2.39,2.39,0,0,0,21.23,18.23Z" transform="translate(-0.25 0)"/></svg>