<svg width="16" height="16" viewBox="0 0 16 16" fill="none" xmlns="http://www.w3.org/2000/svg">
<path d="M8.93337 1.33415H4.00004C3.64642 1.33415 3.30728 1.47462 3.05723 1.72467C2.80718 1.97472 2.66671 2.31386 2.66671 2.66748V13.3341C2.66671 13.6878 2.80718 14.0269 3.05723 14.277C3.30728 14.527 3.64642 14.6675 4.00004 14.6675H12C12.3537 14.6675 12.6928 14.527 12.9428 14.277C13.1929 14.0269 13.3334 13.6878 13.3334 13.3341V8.40081M1.33337 4.00081H4.00004M1.33337 6.66748H4.00004M1.33337 9.33415H4.00004M1.33337 12.0008H4.00004M14.252 3.75142C14.5176 3.48585 14.6668 3.12566 14.6668 2.75008C14.6668 2.37451 14.5176 2.01432 14.252 1.74875C13.9865 1.48318 13.6263 1.33398 13.2507 1.33398C12.8751 1.33398 12.5149 1.48318 12.2494 1.74875L8.90936 5.09008C8.75086 5.2485 8.63484 5.44431 8.57202 5.65942L8.01402 7.57275C7.99729 7.63012 7.99629 7.69092 8.01112 7.74881C8.02595 7.8067 8.05607 7.85953 8.09832 7.90179C8.14058 7.94404 8.19341 7.97416 8.2513 7.98899C8.30918 8.00382 8.36999 8.00282 8.42736 7.98608L10.3407 7.42808C10.5558 7.36527 10.7516 7.24925 10.91 7.09075L14.252 3.75142Z" stroke="black" stroke-opacity="0.5" stroke-width="2" stroke-linecap="round" stroke-linejoin="round"/>
</svg>
