<svg id="Слой_1" data-name="Слой 1" xmlns="http://www.w3.org/2000/svg" viewBox="0 0 28 28.01"><defs><style>.cls-1{fill:#f7ad30;}.cls-2{fill-rule:evenodd;}</style></defs><title>youtube-color</title><path class="cls-1" d="M20.37,2.55C28.75,8,30.09,17.44,25.09,23.48S8.54,29.19,2.24,24.4,4.92,15,5.25,8,12-2.87,20.37,2.55Z" transform="translate(0 0)"/><g id="Page-1"><g id="Dribbble-Light-Preview"><g id="icons"><path class="cls-2" d="M12.58,18.46V11.82c2.35,1.11,4.18,2.19,6.34,3.34-1.78,1-4,2.1-6.34,3.3M25.71,8.52a3.12,3.12,0,0,0-1.84-1.09A129.82,129.82,0,0,0,6,7.43a3.11,3.11,0,0,0-1.57.8C2.53,10,3.13,19.49,3.59,21a3.32,3.32,0,0,0,.76,1.47,3.08,3.08,0,0,0,1.6.83c1.78.37,11,.57,17.89.05a3,3,0,0,0,1.64-.84c1.76-1.76,1.64-11.79.23-14" transform="translate(0 0)"/></g></g></g></svg>