<svg width="589" height="302" viewBox="0 0 589 302" fill="none" xmlns="http://www.w3.org/2000/svg">
<path d="M581.323 104.903L583.011 107.444L581.573 108.499L582.513 110.551L581.189 111.759L582.58 112.862L581.247 114.425L582.925 115.643L584.526 114.493L588.237 117.235L583.174 121.407L584.833 122.577L582.982 125.444L584.651 126.499L582.484 132.272L577.277 133.068L576.701 134.17L579.885 136.52L579.53 137.661L581.554 139.876L579.866 141.65L581.275 149.101L582.819 151.259L566.93 153.522L566.047 153.349L565.587 149.83L562.633 154.155L556.611 154.299L554.358 148.478L549.553 147.529L547.779 145.524L545.727 145.275L541.191 146.397L540.654 150.933L537.307 151.949L535.552 154.366L533.471 152.573L533.155 155.219L531.63 156.13L536.099 157.866L536.636 159.026L539.724 158.748L543.588 161.414L547.29 160.34L549.122 160.944L550.618 163.006L550.944 165.979L550.033 167.197L553.964 170.38L551.951 173.718L549.122 174.888L550.455 177.822L549.841 179.855L544.26 183.585L543.387 185.369L538.372 185.148L537.317 187.354L536.435 185.427L533.433 185.302L534.603 188.208L533.874 191.046L532.436 191.516L534.728 193.482L536.684 199.657L534.987 202.764L532.234 202.86L532.791 206.744L531.026 208.106L531.976 210.407L533.932 210.062L534.67 212.287L533.989 215.193L538.746 214.55L539.743 216.967L537.614 217.312L537.499 218.865L534.603 220.639L535.409 222.922L539.053 224.725L533.059 226.93L532.81 227.832L533.5 228.608L534.929 227.736L538.477 230.919L536.281 231.811L533.577 230.574L533.424 231.773L532.167 231.974L530.748 230.593L527.708 231.351L525.944 230.066L525.311 231.658L522.29 231.332L521.552 229.615L520.19 235.34L518.579 235.35L516.181 238.255L514.283 237.872L512.911 241.487L509.344 245.035L506.16 246.435L503.734 249.283L499.045 249.629L500.34 244.172L503.926 240.931L504.664 238.572L506.352 238.275L508.471 232.463L511.195 232.003L509.076 229.855L507.887 227.563L508.51 226.278L506.036 222.375L508.078 214.694L505.153 205.785L505.911 204.951L505.106 202.16L505.374 201.777L501.768 192.408V191.257L501.625 188.428L504.204 187.881L505.595 185.359L506.467 185.503L505.489 186.673L506.333 187.44L507.56 184.631L512.163 183.614L516.306 183.096L520.698 179.922L525.186 173.142L522.942 169.748L523.249 167.465L524.505 163.735L527.631 160.944L527.775 158.595L526.145 155.507L526.577 154.539L522.75 153.675L521.408 149.092L522.424 142.676L519.739 141.727L521.082 139.665L523.201 140.212L522.693 142.024L524.083 142.197L528.907 136.04L526.02 133.413L528.888 131.476L530.786 131.667L531.323 129.644L531.649 128.992L531.18 128.301L533.529 125.588L538.957 124.59L543.598 131.006L547.587 126.163L547.482 124.283L552.746 121.982L553.399 116.641L557.081 116.669L560.236 114.751L562.72 114.934L563.918 111.932L567.457 109.554L569.509 110.302L569.624 112.296L573.661 113.371L573.402 115.039L574.313 115.384L576.989 109.592L573.47 107.07L573.891 106.102L574.802 105.315L576.251 106.715L577.507 106.159L576.155 107.646L578.533 108.259L580.997 104.51L581.323 104.903Z" fill="#CCCCCC" stroke="white" stroke-width="0.5"/>
<path d="M242.33 219.747L243.673 217.436L248.678 216.4L249.081 219.555L253.128 220.639L255.497 220.14L257.414 221.991L263.034 222.02L264.348 222.528L266.563 226.757L270.14 226.22L271.051 227.946L273.659 229.135L288.274 225.769L288.216 222.049L290.345 220.543L293.078 221.56L297.096 220.207L299.81 223.372L302.054 222.097L304.576 222.269L313.504 225.319L317.8 224.878L318.912 226.728L322.374 226.709L322.528 230.487L325.376 232.357L327.121 232.099L329.317 237.392L331.868 240.307L334.371 241.209L335.617 240.048L340.642 239.952L339.54 238.006L342.157 237.622V235.79L346.54 234.199L347.106 230.641L350.922 230.229L355.42 226.383L355.986 224.254L358.431 225.3L361.5 222.825L363.839 228.157L365.163 227.179L366.17 228.32L374.014 228.483L375.203 229.5L375.27 233.278L376.594 233.441L378.857 231.188L380.88 231.792L380.899 229.96L382.098 230.286L382.443 228.589L384.438 228.215L385.339 230.037L390.825 229.768L392.982 231.494L393.97 229.5L410.521 225.616L411.068 227.764L415.288 231.207L419.354 232.348L421.933 238.121L424.58 241.209L422.969 245.073L423.573 249.686L421.655 250.875L420.629 254.998L424.724 256.916L425.932 263.082L424.215 267.647L426.402 268.069L427.581 270.006L423.698 271.243L420.801 275.463L419.018 272.595L417.292 274.034L416.572 273.439L416.314 275.798L414.031 274.552L412.296 275.463L409.802 279.711L408.508 285.915L403.291 287.2L402.677 286.347L401.689 288.13L400.606 286.711L399.522 290.892L398.285 290.499L396.617 293.059L390.815 294.757L390.882 298.65L389.041 301L385.905 295.284L383.69 296.55L380.075 295.562L378.857 292.858L369.833 294.642L367.781 293.184L364.156 294.392L362.67 293.213L358.009 294.191L354.902 289.463L349.858 287.737L346.54 288.974L339.146 284.525L333.057 284.707L330.171 286.251L324.561 284.352L321.396 284.621L316.63 282.453L313.053 282.885L312.161 281.351L308.863 281.849L307.712 279.701L301.881 280.746L300.433 280.277L300.587 279.087L297.835 278.311L297.671 279.672L295.686 279.452L293.912 281.37L290.105 280.296L287.564 281.351L282.098 277.237L275.865 275.712L272.969 276.517L263.782 274.743L257.491 275.156L256.532 272.461L251.057 270.495L248.621 271.876L245.571 269.392L245.638 265.02L246.156 264.185L247.911 264.502L246.856 263.14L247.451 260.388L254.384 258.163L257.223 259.103L261.528 256.274L263.964 257.597L266.678 254.298L257.472 246.876L256.762 240.71L253.742 239.674L249.82 235.512L248.113 231.619L251.814 226.546L247.528 226.115L246.243 222.749L242.33 219.747Z" fill="#CCCCCC" stroke="white" stroke-width="0.5"/>
<path d="M425.194 1.06713L427.534 1L427.821 2.8412L430.439 3.47411L432.76 2.66858L434.572 3.57L434.093 5.01803L435.56 7.24281L434.899 9.44841L437.114 9.37169L439.799 7.39624L442.637 8.16341L443.961 3.35903L445.38 5.05639L450.702 4.89336L455.18 8.42232L457.53 9.14154L458.498 8.38397L460.982 10.1772L462.018 12.8623L466.88 14.8377L469.526 14.6555L475.491 19.5558L476.92 18.9613L480.19 20.0257L482.242 17.331L486.874 17.0146L487.843 18.1653L487.114 19.0859L488.859 19.9106L489.626 19.0284L490.432 21.1381L491.362 20.3805L491.918 21.4833L490.969 21.023L491.026 21.9628L492.973 21.4737L494.057 23.7369L494.776 22.7779L495.927 23.2957L495.409 25.3863L498.698 28.4549L506.408 32.1853L520.428 32.7798L524.618 33.9306L525.376 32.1661L526.786 34.3813L528.282 34.2183L532.53 29.9509L533.623 26.0192L535.148 25.2616L538.993 26.1343L540.614 24.3985L544.699 28.0905L550.031 28.196L551.325 30.7372L551.46 34.3525L554.749 33.2209L556.446 33.8539L557.252 35.743L560.522 36.9225L563.073 35.6375L565.643 36.2512L566.592 34.9087L568.309 35.5416L570.236 44.2394L569.565 46.5409L571.281 47.2601L570.927 52.5056L572.202 55.3824L571.483 58.1155L569.172 59.1799L569.536 61.0499L567.781 61.0978L567.915 62.354L564.444 66.4296L565.039 71.9532L564.434 74.0245L563.13 74.389L563.907 77.659L566.141 78.0234L566.103 79.2413L568.865 80.6222L567.887 82.5401L570.025 86.7403L572.595 87.7472L571.847 90.9118L573.938 98.3725L577.975 101.901L580.123 101.662L580.986 104.539L578.521 108.288L576.143 107.674L577.495 106.188L576.23 106.744L574.791 105.334L573.871 106.121L573.458 107.089L576.978 109.602L574.292 115.394L573.391 115.049L573.65 113.38L569.603 112.306L569.498 110.302L567.446 109.563L563.907 111.942L562.708 114.943L560.225 114.761L557.079 116.679L553.397 116.641L552.745 121.982L547.48 124.283L547.576 126.163L543.587 131.006L538.945 124.59L533.518 125.578L531.178 128.292L531.648 128.982L531.322 129.634L530.785 131.658L528.886 131.466L526.009 133.403L528.895 136.031L524.072 142.187L522.681 142.015L523.19 140.202L521.07 139.656L519.728 141.717L522.413 142.657L521.396 149.072L522.749 153.656L526.575 154.519L526.134 155.488L527.764 158.585L527.62 160.935L524.494 163.725L523.247 167.465L522.94 169.738L525.175 173.133L520.687 179.913L516.295 183.087L512.162 183.605L510.311 182.157L508.537 178.225L508.556 173.535L507.846 174.025L507.683 172.49L506.705 172.212L503.454 176.316L501.191 173.42L495.668 172.864L492.867 171.215L490.729 166.679L487.555 167.197L488.418 161.232L486.989 161.414L485.57 159.381L482.376 158.796L479.576 160.005L478.157 158.087L477.716 151.211L475.951 150.885L474.484 152.419L472.672 150.338L471.387 150.578L469.488 146.531L461.884 147.011L462.133 144.978L457.108 144.249L456.168 141.871L454.106 142.705L453.627 139.339L449.053 137.872L445.562 138.802L444.699 142.13L439.233 141.602L438.14 144.422H438.658L437.862 146.282L433.345 145.371L432.607 146.963L429.317 147.72L427.198 147.768L425.232 146.244L422.336 147.596L420.524 147.241L417.11 150.962L415.547 151.077L413.111 150.357L411.893 147.404L410.177 148.353L408.853 147.001L404.759 149.226L402.63 146.752L403.195 145.927L400.654 141.995L402.179 140.873L400.434 138.629L401.69 136.194L400.443 135.081L404.615 132.521L405.209 131.313L404.269 129.232L401.815 125.501L399.935 126.566L394.248 124.686L388.667 120.15L384.477 118.865L381.005 113.476L380.967 108.94L382.089 108.346L381.159 107.885L383.959 105.44L381.993 104.184L383.47 93.1461L386.136 90.9214L390.154 92.2255L396.464 99.2163L399.062 100.147L401.038 97.6628L402.85 98.2574L409.899 96.2532L411.596 92.3598L413.677 91.42L417.848 91.6118L419.536 94.7764L420.859 95.112L419.239 92.2927L421.799 88.5527L421.387 81.4948L418.107 80.977L419.785 73.3916L416.151 73.4971L418.28 71.4929L417.973 69.6517L413.226 65.6529L412.325 62.8048L416.592 60.0046L414.933 58.0004L410.579 57.1469L411.049 56.3702L407.923 54.1454L405.267 54.4139L404.183 53.1672L402.419 54.7016L398.957 50.8466L399.686 51.1918L401.191 49.0054L400.52 43.2996L401.642 39.061L407.866 33.6525L407.961 28.4166L413.408 28.2535L413.974 29.4331L419.152 30.8236L421.003 29.2317L418.961 27.1028L420.131 21.771L421.368 21.0518L420.361 17.4653L421.339 17.2927L421.933 14.0322L420.898 5.06598L422.375 3.70426L422.231 1L425.194 1.06713ZM525.836 84.9566L524.666 85.6567L521.329 87.1239L518.798 90.4898L517.446 90.5665L515.547 88.4568L514.914 88.102L514.214 91.842L513.169 92.4845L514.367 92.6763L514.655 95.0641L513.207 98.5547L514.406 100.367L515.911 100.501L515.23 101.173L516.122 102.649L517.359 102.582L516.17 103.934L519.92 102.851L523.123 104.443L524.331 102.429L532.587 104.443L532.348 102.467L538.543 99.9643L542.82 102.486L543.462 101.815L543.194 99.8109L541.496 99.5807L541.276 97.7491L540.269 97.3751L541.065 88.1596L539.176 87.9965L538.101 86.8362L538.475 85.3594L537.2 84.6977L536.049 84.621L535.627 86.5965L533.144 84.7169L533.009 83.3168L532.885 82.8757L531.782 81.3893L529.969 81.6578L529.912 81.84L529.327 81.6291L527.783 82.1565L528.195 83.5086L527.975 85.1964L526.297 85.6855L525.836 84.9566Z" fill="#CCCCCC" stroke="white" stroke-width="0.5"/>
<path d="M334.285 29.4619L336.299 29.7688L342.609 36.0116L346.205 36.5966L348.574 40.2694L350.52 40.557L350.012 43.0216L347.855 43.012L346.752 44.6038L348.219 46.071L349.571 45.8505L349.149 47.6341L351.211 48.3629L351.077 49.6959L353.34 49.1589L353.292 50.0315L354.836 50.3768L356.044 49.3986L360.628 49.9548L364.492 51.7577L366.775 51.3069L371.618 54.6729L373.353 52.0741L375.76 52.3522L375.607 49.9261L378.915 50.4727L380.843 46.282L379.96 44.1915L381.965 43.5873L384.458 47.1834L387.699 47.4328L388.955 48.6506L392.782 45.8313L393.76 48.3917L395.611 48.0177L396.867 51.2494L398.948 50.8466L402.41 54.7017L404.174 53.1673L405.267 54.414L407.924 54.1455L411.05 56.3702L410.58 57.147L414.934 58.0005L416.593 60.0047L412.325 62.8048L413.227 65.6529L417.973 69.6518L418.28 71.493L416.151 73.4876L419.786 73.3917L418.108 80.9771L421.387 81.4949L421.809 88.5528L419.249 92.2928L420.87 95.1121L419.546 94.7765L417.858 91.6119L413.687 91.4201L411.606 92.3599L409.909 96.2532L402.86 98.2575L401.038 97.6629L399.063 100.147L396.464 99.226L390.154 92.2352L386.136 90.9214L383.47 93.1462L381.984 104.193L383.95 105.45L381.14 107.895L382.07 108.355L380.958 108.95L380.996 113.486L384.458 118.875L388.658 120.17L394.23 124.705L399.916 126.585L401.796 125.53L404.241 129.251L405.181 131.341L404.586 132.55L400.415 135.11L401.662 136.223L400.405 138.658L402.151 140.902L400.626 142.024L403.167 145.956L402.601 146.79L399.14 144.93L397.672 147.596L395.515 148.804L392.973 148.67L390.595 150.492L386.337 151.096L385.8 154.462L383.278 154.529L379.375 157.646L376.681 157.521L376.288 159.429L369.93 162.824L365.586 162.172L363.236 159.055L363.773 157.837L349.849 161.606L350.166 155.843L346.656 152.074L339.723 151.604L336.491 149.197L335.235 149.111L334.506 150.569L328.973 150.29L325.655 153.954L325.741 155.152L324.053 155.795L322.576 160.321L322.452 165.423L325.664 166.19L327.199 168.913L326.46 170.524L327.563 172.644L324.283 177.976L324.734 179.174L314.195 177.928L309.084 175.367L306.715 173.305L305.871 170.831L305.939 167.178L308.058 165.605L309.362 161.549L308.863 160.149L307.185 160.187L306.399 158.883L311.059 150.636L302.889 147.989L303.541 144.009L304.903 142.417L308.95 143.99L310.58 142.868L309.746 141.046L306.84 141.976L305.066 140.48L299.255 141.478L291.257 137.44L291.957 134.477L290.029 130.574L290.835 129.865L290.71 123.794L292.964 122.299L296.675 125.012L297.567 120.803L294.632 119.575L292.13 116.852L290.969 118.424L280.603 121.531L280.833 118.865L278.637 119.383L274.983 117.475L273.018 113.054L267.609 115.404L264.214 113.994L261.318 118.491L258.633 118.338L257.214 115.394L250.799 109.17L250.146 105.603L250.894 103.513L252.918 103.992L253.982 101.326L257.674 98.9L259.41 94.9491L266.104 94.0572L270.956 88.5528L283.278 84.2855L288.888 84.5348L294.93 80.7373L300.789 75.137L302.947 68.6928L301.978 65.6721L304.375 59.3238L302.947 53.9728L303.848 53.292L305.804 54.2126L308.125 51.9878L308.307 50.3384L313.275 53.7619L315.787 53.0139L319.441 55.1236L320.333 56.7538L325.367 59.017L326.633 56.9744L326.422 54.5099L327.362 53.2632L328.215 54.4236L330.651 52.1029L330.613 49.6192L332.377 47.5191L331.562 38.6104L333.47 37.7952L331.524 37.4308L330.191 35.839L334.285 29.4619Z" fill="#CCCCCC" stroke="white" stroke-width="0.5"/>
<path d="M402.602 146.79L404.731 149.264L408.826 147.04L410.149 148.382L411.865 147.433L413.083 150.386L415.519 151.096L417.082 150.991L420.506 147.26L422.318 147.615L425.214 146.263L427.18 147.788L429.299 147.74L432.589 146.982L433.327 145.39L437.844 146.301L438.649 144.431H438.131L439.224 141.612L444.7 142.139L445.554 138.802L449.054 137.872L453.628 139.339L454.108 142.705L456.169 141.881L457.109 144.249L462.134 144.978L461.894 147.011L469.489 146.531L471.388 150.578L472.683 150.339L474.495 152.419L475.962 150.885L477.727 151.211L478.168 158.087L479.587 160.005L482.387 158.797L485.58 159.381L487 161.414L488.419 161.232L487.556 167.197L490.73 166.679L492.869 171.215L495.669 172.864L501.192 173.421L503.455 176.317L506.706 172.212L507.684 172.49L507.847 174.034L508.557 173.545L508.538 178.235L510.322 182.166L512.163 183.614L507.56 184.631L506.332 187.441L505.488 186.673L506.467 185.503L505.594 185.36L504.203 187.882L501.624 188.428L501.768 191.257V192.408L505.373 201.777L505.105 202.161L505.91 204.951L505.153 205.785L508.078 214.694L506.035 222.375L508.509 226.278L507.886 227.563L509.075 229.855L511.194 232.003L508.471 232.464L506.351 238.275L504.664 238.572L503.925 240.931L500.339 244.172L499.044 249.629L498.124 250.53L499.14 252.467L498.162 260.197L499.428 262.623L501.566 263.361L501.825 269.614L498.632 266.612L494.873 265.576L489.752 262.354L487.028 262.124L480.642 264.742L472.893 263.879L472.567 265.49L470.496 266.842L469.259 266.449L468.943 267.581L467.964 266.919L469.096 266.008L468.262 265.768L464.407 268.022L464.694 271.416L461.089 274.169L458.135 274.063L457.493 271.397L454.309 269.614L444.988 269.959L440.51 271.388L433.72 269.105L432.512 270.112L430.651 269.153L428.743 270.63L427.583 270.007L426.403 268.07L424.217 267.648L425.933 263.083L424.725 256.917L420.63 254.999L421.656 250.876L423.574 249.686L422.97 245.074L424.581 241.209L421.935 238.121L419.355 232.348L415.289 231.207L411.07 227.765L410.523 225.617L393.971 229.5L392.984 231.495L390.826 229.769L385.341 230.037L384.439 228.215L382.445 228.589L382.099 230.287L380.901 229.961L380.882 231.792L378.858 231.188L376.595 233.442L375.272 233.279L375.205 229.5L374.015 228.484L366.171 228.321L365.164 227.18L363.841 228.158L361.501 222.826L358.432 225.3L355.987 224.255L355.421 226.384L350.924 230.229L347.107 230.642L346.541 234.199L342.159 235.791V237.623L339.541 238.006L340.644 239.953L335.619 240.049L334.372 241.209L331.869 240.308L329.318 237.393L331.735 236.462L334.075 232.416L335.628 231.6L335.648 228.685L338.851 223.756L336.53 220.333L336.722 219L341.258 215.912L342.782 217.274L344.911 217.082L345.486 215.394L338.122 210.609L338.544 209.372L334.583 205.373L335.811 204.165L335.485 202.774L332.56 201.221L332.406 198.142L331.495 197.855L327.966 201.019L324.706 199.993L323.833 202.055L321.091 200.377L315.845 199.293L314.896 195.659L315.615 194.297L312.518 183.816L314.656 179.414L314.196 177.928L324.735 179.174L324.284 177.976L327.564 172.644L326.461 170.525L327.199 168.913L325.665 166.19L322.452 165.423L322.577 160.321L324.054 155.795L325.742 155.152L325.655 153.954L328.973 150.291L334.506 150.569L335.235 149.111L336.491 149.197L339.723 151.604L346.656 152.074L350.166 155.843L349.85 161.606L363.774 157.838L363.237 159.055L365.586 162.172L369.93 162.824L376.288 159.429L376.681 157.521L379.376 157.646L383.279 154.529L385.801 154.462L386.338 151.096L390.596 150.492L392.974 148.67L395.515 148.804L397.673 147.596L399.14 144.93L402.602 146.79Z" fill="#CCCCCC" stroke="white" stroke-width="0.5"/>
<path d="M258.634 118.338L261.319 118.491L264.215 113.993L267.61 115.403L273.018 113.054L274.984 117.475L278.638 119.383L280.834 118.865L280.604 121.531L290.97 118.424L292.13 116.851L294.633 119.575L297.568 120.802L296.676 125.012L292.965 122.298L290.711 123.794L290.836 129.864L290.03 130.574L291.958 134.477L291.258 137.44L299.255 141.477L305.067 140.48L306.841 141.976L309.746 141.046L310.581 142.868L308.951 143.99L304.904 142.417L303.542 144.009L302.89 147.989L311.06 150.635L306.4 158.882L307.186 160.186L308.864 160.148L309.363 161.548L308.059 165.605L305.939 167.177L305.872 170.831L306.716 173.305L309.085 175.367L314.196 177.927L314.656 179.414L312.518 183.815L315.615 194.297L314.896 195.658L315.845 199.293L321.091 200.376L323.833 202.054L324.706 199.993L327.967 201.019L331.496 197.854L332.407 198.142L332.56 201.22L335.485 202.774L335.811 204.164L334.583 205.372L338.544 209.371L338.122 210.608L345.487 215.394L344.911 217.081L342.782 217.273L341.258 215.911L336.722 218.999L336.53 220.332L338.851 223.756L335.648 228.685L335.629 231.6L334.075 232.415L331.735 236.462L329.319 237.392L327.123 232.099L325.377 232.358L322.529 230.488L322.376 226.709L318.914 226.728L317.802 224.878L313.506 225.319L304.578 222.269L302.056 222.097L299.812 223.372L297.098 220.208L293.08 221.56L290.347 220.543L288.218 222.049L288.275 225.769L273.661 229.135L271.053 227.946L270.142 226.22L266.565 226.757L264.349 222.528L263.036 222.02L257.416 221.991L255.498 220.14L253.13 220.639L249.083 219.555L248.68 216.4L243.674 217.436L242.332 219.747L240.606 217.762L236.53 216.161L234.929 216.774L230.527 213.591L224.601 215.202L223.268 214.08L220.698 215.394L219.825 218.865L216.996 219.335L216.315 220.735L214.877 220.553L212.71 223.036L210.84 223.439L209.871 221.847L206.831 220.716L203.043 222.068L198.901 209.275L201.039 203.742L198.488 200.443L201.077 197.03L203.782 198.506L205.623 197.01L208.538 197.288L209.756 196.099L210.84 197.356L212.105 196.588L212.988 197.231L215.347 193.884L221.34 196.205L224.073 195.975L226.624 194.306L228.686 194.786L230.815 192.503L229.367 189.511L231.419 186.932L235.753 186.203L236.923 187.066L240.404 184.275L241.565 181.83L241.239 178.685L243.626 178.848L246.235 177.409L241.028 169.565L243.732 166.209L242.552 164.914L236.76 163.313V159.88L239.091 155.296L242.476 155.574L244.873 154.155L248.776 154.404L250.876 156.274L252.736 155.209L250.914 157.741L255.93 162.124L253.887 162.919L252.573 165.633L253.81 168.549L257.675 169.575L258.116 171.416L260.351 172.384L262.374 175.175L266.891 177.745L267.341 176.527L268.885 177.237L269.566 178.972L272.961 175.702L272.99 172.269L271.82 170.879L273.814 167.829L272.635 166.228L274.812 164.943L274.14 163.322L276.902 159.582L275.243 155.612L275.521 153.685L270.65 149.542L267.255 151.326L263.851 150.99L262.297 149.542L264.963 144.92L263.822 144.009L269.624 135.234L264.608 124.561L263.381 124.983L262.748 123.065L259.737 122.298L258.634 118.338Z" fill="#CCCCCC" stroke="white" stroke-width="0.5"/>
<path d="M210.839 223.439L212.709 223.037L214.876 220.563L216.315 220.745L216.996 219.345L219.824 218.875L220.697 215.403L223.267 214.09L224.6 215.212L230.526 213.591L234.928 216.784L236.52 216.171L240.595 217.772L242.331 219.757L246.234 222.749L247.519 226.125L251.806 226.546L248.104 231.619L249.811 235.513L253.733 239.675L256.754 240.701L257.463 246.867L266.669 254.289L263.946 257.588L261.52 256.265L257.214 259.093L254.376 258.154L247.442 260.369L246.848 263.121L247.893 264.492L246.138 264.166L245.62 265.001L245.563 269.373L241.746 269.815L240.5 268.789L235.887 269.93L232.473 267.014L229.673 267.158L224.485 264.579L221.8 262.45L219.853 256.197L214.397 255.191L214.483 251.719L216.18 248.957L213.841 244.172L211.194 243.52L209.142 245.121L206.984 241.66L203.599 241.008L205.546 238.14L203.139 235.82L201.902 230.123L203.858 228.282L208.259 227.86L209.103 224.581L210.839 223.439ZM211.577 150.99L211.136 152.908L212.556 154.721L218.405 152.601L220.822 154.04L226.365 152.803L226.297 155.018L230.862 160.724L233.902 159.477L236.76 159.889L236.75 163.322L242.552 164.924L243.722 166.228L241.027 169.575L246.225 177.419L243.616 178.858L241.228 178.695L241.554 181.83L240.394 184.276L236.913 187.066L235.743 186.213L231.409 186.932L229.366 189.512L230.804 192.503L228.685 194.795L226.623 194.306L224.073 195.975L221.34 196.215L215.346 193.894L212.987 197.241L212.095 196.598L210.829 197.365L209.746 196.1L208.528 197.298L205.613 197.02L203.771 198.516L201.067 197.039L198.478 200.453L201.029 203.752L198.89 209.285L203.033 222.087L199.936 222.298L198.258 224.437L195.524 224.149L194.163 225.76L190.739 225.501L188.562 227.227L186.203 227.333L180.143 231.984L176.029 232.147L173.325 234.64L171.781 234.199L170.477 232.08L166.9 231.984L163.486 229.721L157.205 233.058L152.832 229.893L149.84 233.969L147.059 235.148L143.482 232.233L141.89 232.943L140.615 232.07L131.984 235.407L130.613 234.487L128.743 235.043L128.541 237.948L126.767 239.272L124.811 239.003L123.459 240.95L123.67 243.635L121.531 247.557L122.462 251.192L119.048 252.985L117.638 257.252L109.803 256.418L107.32 257.722L103.608 255.545L101.844 256.284L99.7631 254.021L97.3273 255.248L95.3231 254.903L97.941 250.952L97.2698 249.744L92.5229 247.816L92.5421 246.311L90.5091 245.16L81.399 249.408L81.9552 248.094L77.7742 248.382L75.6165 247.279L75.1946 243.904L77.0454 237.901L72.2602 235.704V233.691L69.3066 230.967L65.5858 233.019L64.6269 236.194L63.1501 236.894L63.7734 239.387L62.335 240.001L58.0676 238.792L56.8881 242.619L57.2909 246.042L54.4524 246.023L52.5344 247.826L50.6837 247.778L46.8574 239.483L48.9 237.891L50.559 233.048L51.681 233.067L51.6522 231.37L49.3603 228.695L51.3933 225.645L51.0385 224.36L49.7247 224.053L49.6576 222.001L51.5084 218.347L53.7331 217.868L53.4455 216.928L55.6606 214.502L54.5003 209.448L55.5456 205.785L54.6154 204.855L56.3895 202.774L54.3756 202.266L53.292 200.722L54.9414 200.022L57.4155 200.722L64.8474 196.8L69.9299 188.821L72.9506 188.227L72.989 184.899L75.9905 182.415L75.4631 177.505L73.5164 176.604L72.5958 174.513L74.226 168.769L72.5191 166.171L73.1232 165.355L76.3933 165.269L74.437 168.616L79.6441 170.937L83.3649 171.08L85.3691 167.12L92.3983 168.204L92.7435 169.843L97.615 171.023L99.063 173.286L107.425 170.706L109.717 173.411L106.294 174.686L106.006 176.892L111.079 177.064L110.599 178.157L114.79 182.77L113.716 184.496L114.253 186.366L124.907 186.568L125.837 184.784L131.802 182.348L135.446 183L133.211 186.711L136.625 186.481L138.246 185.292L138.351 183.077L141.928 180.584L148.382 181.102L147.318 178.484L145.505 177.966L149.284 173.344L154.903 174.274L159.995 173.152L161.184 171.972L162.412 165.95L164.723 165.758L164.905 164.157L166.938 165.346L176.086 164.531L180.833 165.595L181.696 163.322L186.117 161.97L190.893 162.018L193.386 160.704L194.307 162.44L197.452 161.424L203.302 162.958L206.294 161.98L206.063 163.485L208.221 162.872L208.001 159.276L205.181 152.247L209.094 150.894L212.287 147.375L212.93 148.526L211.577 150.99Z" fill="#CCCCCC" stroke="white" stroke-width="0.5"/>
<path d="M24.3704 164.205L26.1637 165.883L25.3773 169.479L29.8557 171.647L30.3351 169.383L33.375 171.474L36.6259 170.899L37.1917 169.594L36.7889 172.395L39.1 174.495L38.4671 175.08L39.5124 176.758L42.792 176.24L44.8154 179.807L46.3785 179.5L47.5292 182.924L44.9113 185.225L47.0402 191.171L48.5457 188.975L52.1035 189.685L53.5227 186.923L55.8338 188.409L56.9174 187.469L57.675 188.121L54.7981 194.278L55.6036 196.819L52.8706 198.632L53.2734 200.703L54.3474 202.247L56.3612 202.746L54.5872 204.826L55.5269 205.766L54.4817 209.429L55.642 214.483L53.4268 216.909L53.7145 217.849L51.4897 218.338L49.6389 221.992L49.7061 224.044L51.0294 224.351L51.3746 225.636L49.3512 228.685L51.6336 231.361L51.6719 233.068L50.5499 233.039L48.8909 237.891L46.858 239.474L50.6842 247.769L47.6059 248.843L46.2538 246.627L43.7893 246.551L40.9892 242.13L38.8315 242.034L37.815 240.509L34.871 240.807L30.1817 238.39L29.7022 235.139L31.3325 232.262L29.7406 229.951L30.316 228.752L27.0651 229.616L22.9416 226.767L18.0125 226.163L15.0685 224.034L11.4725 225.291L9.52578 224.236L9.66962 222.404L11.3478 221.445L11.319 216.449L10.6478 214.445L6.50507 211.625L7.47361 208.231L5.80503 205.833L6.60096 204.011L3.61861 200.655L7.67499 195.831L9.30522 191.439L10.7628 189.8L13.8219 189.1L14.5315 187.134L12.9397 185.484L12.3451 182.272L13.3808 179.989L9.70798 178.1L8.586 178.781L1.35547 168.003L19.0195 171.071L21.5223 164.867L24.3704 164.205Z" fill="#CCCCCC" stroke="white" stroke-width="0.5"/>
<path d="M529.587 81.7343L529.913 81.8111L529.971 81.6289L531.783 81.3604L532.886 82.8467L533.011 83.2783L533.145 84.6783L535.629 86.5675L536.05 84.592L537.192 84.6688L538.477 85.34L538.103 86.8168L539.177 87.9772L541.066 88.1402L540.27 97.3557L541.277 97.7297L541.497 99.5709L543.204 99.7915L543.473 101.796L542.83 102.477L538.553 99.9545L532.349 102.467L532.589 104.442L524.332 102.429L523.124 104.442L519.921 102.851L516.171 103.944L517.36 102.592L516.114 102.659L515.222 101.182L515.903 100.501L514.397 100.367L513.198 98.5544L514.647 95.0638L514.359 92.676L513.16 92.4842L514.215 91.8417L514.905 88.1018L515.538 88.4566L517.437 90.5663L518.789 90.4896L521.321 87.1237L524.658 85.6565L525.799 84.9468L526.307 85.6661L527.986 85.177L528.206 83.4892L527.794 82.1371L529.338 81.6097L529.587 81.7343Z" fill="#CCCCCC" stroke="white" stroke-width="0.5"/>
</svg>
