<svg width="349" height="302" viewBox="0 0 349 302" fill="none" xmlns="http://www.w3.org/2000/svg">
<path d="M28.381 211.88L31.1999 211.885L31.3126 211.302L34.107 211.434L34.1609 210.733L35.2786 210.37L36.7248 211.15L36.6072 212.63L37.1415 213.081L37.9063 212.905L38.5877 213.302L38.6465 212.846L39.0583 214.042L39.4015 213.807V212.851L40.2839 212.273L40.7399 212.523L40.4261 213.39L41.0291 212.709L42.9165 213.709L44.8824 212.567L45.4363 212.704L45.4265 213.885L49.8092 213.792L51.3437 212.949L51.7309 213.41L51.7653 212.13L51.2456 211.047L52.0055 209.052L52.3094 209.037L52.6036 207.674L51.7555 207.865L52.2114 207.463L51.4956 206.723L52.7801 204.713L54.2214 204.257L53.3978 203.777L53.5252 203.394L52.8144 203.184L52.9663 202.448L54.9763 201.061L55.0695 200.394L56.1872 200.124L56.398 199.433L57.1432 199.517L56.9029 201.634L58.0354 202.125L59.261 201.58L59.9179 202.291L60.918 201.183L61.2072 201.316L61.0062 201.958L61.5259 202.144L61.8592 201.767L63.629 201.953L64.3741 201.09L64.9428 201.08L65.2566 201.482L65.5801 201.286L66.6194 203.198L66.0262 203.904L67.4822 205.493L67.9431 205.301L68.7961 203.125L69.4089 203.336L69.4824 204.326L69.051 205.468L69.3991 205.875L68.9137 206.782L69.3794 207.316L68.9382 207.978L69.2863 208.591L69.7863 208.488L70.1638 207.458L71.1002 208.106L71.0217 207.664L72.115 207.184L72.0316 206.831L72.8013 206.855L73.0954 207.87L73.5416 207.679L74.2622 208.194L74.6544 207.806L74.3995 207.566L74.9338 206.38L76.8752 205.556L77.3458 207.865L78.6988 208.38L79.7725 207.042L79.5273 206.395L78.287 206.522L78.037 205.252L79.2479 204.174L78.5126 203.453L78.1106 202.154L80.0813 202.183L80.1499 202.497L82.3021 202.051L82.1844 200.095L82.709 199.86L83.111 198.678L85.67 197.448L86.4985 196.149L88.3124 195.752L88.0231 195.477L88.1604 194.972L88.9007 194.095L87.7878 193.055L87.729 192.447L88.5183 192.241L89.082 190.589H88.6212L88.8026 188.82L87.8221 188.241L87.4054 187.481L88.2339 186.746L88.3124 185.491L88.9938 185.486L88.3516 184.192L88.7879 182.432L89.1654 182.29L88.6702 181.295L89.4448 181.545L90.1655 181.049L89.8615 180.75L90.1214 179.647L90.7488 179.515L90.592 178.427L90.9351 177.995L90.6802 176.338L91.2048 176.441L91.4695 175.461L91.9842 175.593L92.2343 174.72L93.303 174.608L94.1119 174.843L94.3913 175.412L95.71 175.622L96.715 174.946L98.0387 175.407L98.6073 174.431L99.9849 174.299L99.8231 174.985L100.509 174.745L101.343 175.186L102.353 175.176L102.358 175.809H103.725L104.132 176.054L103.917 176.471L104.735 176.775L105.417 176.662L106.255 175.524L106.28 176.441L106.574 176.637L107.794 175.877L108.75 176.377L113.736 176.397L114.368 177.564L114.849 177.005L115.653 176.706L115.937 177.108L116.094 176.828L116.869 179.446L117.56 179.559L117.026 183.118L115.516 183.172L115.457 184.29L114.525 184.515L114.069 185.109L114.295 185.824L112.917 186.182L113.31 187.545L114.702 188.06L115.182 188.731L115.192 189.516L115.996 189.364L116.643 189.918L116.712 190.986L117.8 191.727L120.05 191.688L120.477 193.58L121.496 193.648L122.085 195.761L121.845 196.006L120.065 195.457L119.482 196.32L119.79 196.521L119.482 196.83L119.678 198.678L118.276 198.531L117.932 199.134L117.217 199.271L117.03 199.914L117.834 201.992L118.736 202.963L119.055 203.919L119.648 204.287L116.991 206.949L116.815 207.733L117.119 208.753L119.109 209.9L119.163 210.562L121.531 207.125L121.987 208.821L123.1 208.238L124.207 205.233L125.796 206.772L125.61 206.939L126.747 207.13L127.002 206.826L127.855 208.164L128.85 208.429L128.649 207.87L129.576 207.909L129.634 207.561L130.149 207.757L130.551 210.939L131.88 212.67L133.208 212.807L134.36 212.326L135.047 213.341L135.463 213.282L137.684 214.655L139.625 211.988L140.449 214.14L140.125 215.704L141.096 216.155L141.508 217.92L140.018 218.381L139.792 219.219L140.302 219.41L140.41 221.705L139.39 221.719L139.439 222.916L139.866 223.514L140.527 223.47L140.66 225.122L141.248 225.176L141.282 227.475L140.915 227.504L141.341 227.872L141.336 229.294L143.724 229.396L144.087 231.573L145.082 231.475L145.243 233.495L147.518 233.456L147.577 234.632L149.254 235.093L148.66 237.083L148.901 239.231L152.783 239.191L152.827 240.162L154.087 241.201L156.244 241.299L157.102 242.491L157.877 242.432L158.593 242.927L158.622 243.746L159 243.854L159.161 244.618L159.019 245.388L159.485 245.829L158.298 247.285L159.068 248.432L158.72 248.677L157.936 251.501L158.284 252.173L158.102 254.335L158.995 254.747L159.887 254.595L159.73 255.119L160.21 256.242H161.456L161.495 257.717L161.304 258.33L158.784 259.992L157.95 261.237L158.75 262.777L158.794 264.218L158.279 265.615L157.441 266.63L158.47 268.174L159.642 269.194L158.725 271.405L159.343 272.052L159.387 272.655L158.397 273.91L157.568 273.768L157.102 274.39L156.926 275.552L157.303 276.41L156.887 277.489L158.132 279.013L157.975 279.396L157.666 279.798L157.794 281.092L158.333 281.062L157.499 282.234L156.583 281.71L156.945 280.886L156.73 280.553L156.053 281.018L155.637 280.278L154.734 280.749L154.69 281.219L153.45 281.072L152.337 280.484L151.612 281.17L148.097 281.322L148.126 280.214L149.17 278.347L148.303 277.601L146.817 277.763L146.562 271.4L139.018 271.689L137.361 273.64L136.204 272.915L134.865 272.846L133.713 271.846L131.782 272.371L131.561 271.812L130.301 271.199L130.502 270.145L130.193 269.669L128.693 269.12L128.036 268.4L125.281 268.483L124.477 268.164L124.35 268.664L123.124 269.081L122.673 269.993L120.104 269.895L119.987 269.091L119.065 268.856L118.295 267.679L117.408 267.802L117.3 265.439L116.29 266.149L114.104 266.297L113.535 265.811L111.108 265.62L109.946 266.199L109.505 265.875L108.77 266.027L108.687 265.243L108.108 265.346L106.427 263.38L104.858 263.11L104.686 262.507L103.372 262.095L100.225 263.139L96.7787 262.561L96.6807 261.473L95.0629 261.056L94.6462 261.193L95.1218 262.698L94.3717 262.551L92.5235 263.022L88.7928 262.679L86.0524 261.683L85.4543 262.713L84.513 262.228L84.1209 262.85H81.7873L81.4785 262.409L79.091 261.924L76.331 260.041L75.1691 260.502L73.8798 259.973L71.8895 260.997L70.3109 261.007L67.5705 262.924L66.7567 263.036L65.5703 264.189L64.3643 264.193L63.8986 263.36L61.1925 264.184L60.9425 263.365L60.4964 263.247L58.0746 264.973H57.5255L56.5794 264.213L54.9665 264.434L53.4223 263.855L51.2848 264.561L47.8875 265.061L44.6274 265.027L42.8626 266.336L43.0293 266.988L41.3134 269.704L42.1321 272.768L40.4261 274.655L35.0433 277.616L33.3814 280.258L31.4401 281.391L30.5331 282.577L27.8515 281.548L26.3563 281.969L26.2583 280.989L27.4643 279.606L24.3954 278.773L23.1257 279.165L23.0865 277.984L22.7139 277.557L20.1205 278.548L18.9832 278.327L18.4831 279.048L16.4437 280.038L17.336 281.857L18.4684 282.504L18.3312 283.327L17.5027 284.249L18.9391 286.926L18.5518 287.308L16.9732 287.014L16.4928 285.607L14.8603 285.2L14.7868 284.568L15.3015 283.921L14.8309 283.175L14.9534 282.636L14.4828 282.43L13.9681 281.298L14.1936 280.258L13.919 279.459L14.2132 279.126L13.8749 278.896L14.0367 277.989L14.4828 277.704L14.1887 276.533L14.6446 275.719L14.2181 275.435L14.4828 275.214L14.1249 274.175L13.7818 274.336L13.517 273.939L13.6151 273.219L14.6544 272.072L15.1054 272.366L15.6349 272.214L16.0221 271.439L17.2134 271.003L17.135 270.331L17.4389 270.321L17.5713 269.792L16.9242 268.174L16.2526 268.052L16.1839 267.439L16.6349 266.522L16.3506 265.35L17.2379 265.581L16.9193 264.836L17.4978 264.409L16.7526 263.777L16.5614 262.987L16.7575 262.649L17.233 262.796L17.287 262.193L17.7576 262.036L17.5713 261.115L17.0713 261.105L18.0272 260.218L18.6596 260.272L18.488 259.463L19.3116 258.605L18.2919 257.075L18.3802 255.801L18.0615 254.879L17.6448 254.698L18.0958 254.595L17.6889 254.276L18.0027 253.384L16.7281 252.678L16.5075 252.139L16.8604 251.844L16.0614 251.212L14.6005 251.129L14.2573 251.624L13.973 250.619L13.0219 250.026L12.9533 249.413L12.0512 249.133L12.2424 247.859L12.7327 247.937L12.5464 247.56L11.9777 247.422L11.2963 247.849L10.9531 247.231L9.77654 247.962L9.45788 247.388L8.89411 247.668L8.68821 246.31L7.97247 246.614L7.6244 245.893L5.67326 245.814L5.31048 245.648L5.3448 245.055L4.01626 245.471L1.85432 244.795L1.47194 243.996L1.79059 241.898L0.917969 241.397L3.19266 237.005L5.5458 233.877L5.86445 232.681L9.68829 227.357L11.6738 225.357L15.5221 223.102L17.5076 222.317L20.1695 221.847L20.9931 222.303L26.1994 218.008L26.6946 217.979L28.3565 216.013L28.381 211.88Z" fill="#CCCCCC" stroke="white" stroke-width="0.5"/>
<path d="M192.389 217.88L192.889 218.233L193.918 217.238L194.247 217.772L195.198 217.429L196.688 217.787L197.08 217.262L197.821 217.37L198.782 216.792L200.492 217.439L201.404 216.752L202.694 217.414L203.836 216.135L203.821 215.645L205.723 215.635L205.674 214.625L204.988 214.811L204.865 214.184L204.385 214.164L204.699 212.566L206.405 213.12L207.199 212.154L208.008 212.296L210.885 208.276L210.684 206.796L215.327 206.173L215.489 206.438L216.327 206.002L215.852 203.879L217.989 200.491L218.724 200.084L219.651 200.648L221.019 200.727L221.592 201.604L224.259 201.874L225.156 202.202L225.2 202.599L225.509 201.869L226.151 201.952L226.088 202.727L226.73 202.722L227.127 203.251L228.853 202.472L230.416 200.766L230.784 201.045L232.083 200.933L232.338 201.232L233.539 200.864L234.598 200.996L235.368 201.668L235.446 201.315L235.745 201.487L236.044 202.05L238.054 201.408L237.731 200.717L238.471 199.883L236.5 199.026L236.025 198.633L235.755 197.535L235.27 197.27L236.775 195.373L236.353 194.452L235.275 194.829L234.471 193.202L235.407 192.569L234.917 191.373L235.039 190.927L235.554 191.03L235.569 190.5L235.917 190.471L236.334 191.422L237.358 191.152L237.883 191.549L239.883 190.51L239.27 190.378L239.143 189.721L239.898 188.986L239.491 189.079L239.363 188.49L239.883 188.093L238.858 187.583L240.604 186.956L239.569 184.166L239.932 184.064L239.8 183.407L239.099 182.563L239.064 180.068L240.849 178.269L242.53 177.44L242.927 179.362L243.971 178.921L243.648 178.485L244.119 178.244L244.82 178.764L244.967 179.274L244.457 179.529L244.266 180.259L245.977 180.514L246.54 179.534L246.481 178.882L251.001 179.946L251.472 180.524L251.394 181.014L252.31 181.593L253.355 184.975L253.889 185.426L254.801 184.936L255.075 185.216L255.776 184.799L256.502 185.005L257.507 183.701L257.546 184.318L259.286 183.951L259.919 183.313L261.581 183.573L261.684 182.588L262.792 181.71L264.468 182.23L264.988 181.573L264.89 181.073L265.772 181.225L266.228 179.96L267.537 180.093L268.331 178.872L268.483 177.838L269.086 178.171L268.375 179.485L269.047 179.847L268.738 180.544L272.165 181.21L271.65 182.269L272.587 183.171L274.087 182.995L274.062 182.132L275.302 182.019L275.631 181.578L278.146 181.936L278.798 181.362L278.641 180.686L279.391 180.431L280.867 180.137L281.077 180.583L284.411 180.308L284.592 180.651L284.151 181.612L283.132 182.583L283.7 183.475L284.401 182.975L284.936 183.539L285.372 183.279L285.671 183.662L285.357 184.794L286.303 185.387L286.357 186.809L287.568 186.569L287.867 187.559L288.534 187.745L288.607 188.721L287.818 189.481L288.353 190.461L291.515 190.177L292.132 191.888L292.402 191.535L292.941 191.809L293.142 191.515L293.152 191.942L295.941 192L296.441 193.108H297.177L296.191 193.403L296.005 196.373L295.157 196.667L293.652 196.324L292.882 197.128L295.299 198.702L295.75 199.364L296.961 199.79L297.265 201.07L297.77 201.634L297.638 203.256L301.604 207.247L303.584 207.36L303.619 208.423L302.952 209.017L303.373 209.772L304.462 210.458L304.565 211.056L305.374 211.291L305.457 213.257L305.854 214.257L304.918 215.14L304.447 216.375L302.099 217.208L304.359 219.949L304.677 220.723L304.521 222.974L305.084 223.13L306.982 224.954L308.467 225.121L307.134 226.317L306.692 225.616L306.281 225.783L306.231 226.503L305.663 226.817L305.614 227.832L304.339 227.68L304.888 228.945L305.932 228.459L306.687 229.288L306.011 230.778L305.133 231.18L306.084 231.464L306.148 232.126L305.702 232.371L305.932 233.2L305.579 233.651L306.575 233.563L306.923 234.729L306.732 238.744L305.212 238.877V239.21L306.741 241.132L306.923 240.745L307.722 241.848L308.893 241.916L309.849 242.608L309.335 243.157L309.781 244.279L309.761 245.534L308.996 246.765L309.697 247.24L310.619 246.927L312.369 247.25L312.511 250.324L313.002 251.113L310.232 252.569L309.947 251.897L308.433 251.446L306.011 251.471L302.908 250.799L301.535 251.309L300.839 251.069L300.491 249.927L298.716 249.873L297.741 250.383L298.03 251.079L295.819 252.015L295.383 253.089L295.637 253.412L294.833 255.099L293.284 255.702L292.274 255.202L291.75 254.555L291.799 253.966L289.897 253.52L289.235 252.192L287.632 252.898L286.49 252.868L283.607 253.628L282.7 253.304L282.734 252.858L282.283 252.942L282.347 253.8L281.666 253.898L282.2 255.251L281.842 255.221L281.636 254.623L281.327 254.76L281.872 255.56L281.303 255.878L281.739 256.3L281.288 256.236L281.548 256.8L280.965 256.913L281.205 257.285L280.96 257.692L281.587 257.932L281.602 258.521L281.043 258.663L280.509 257.932L280.171 258.442L280.798 258.972L279.906 259.173L280.048 260.006L279.44 260.163L279.107 259.879L278.234 260.447L278.219 260.864L278.759 260.884L278.42 261.3L277.656 260.82L277.185 261.232L277.724 262.835L276.945 264.153L274.935 263.943L274.611 265.031L273.469 266.007L273.067 267.791L271.488 268.487L272.131 270.159L271.528 270.821L271.645 271.311L270.738 271.291L270.081 271.698L270.204 272.13L271.091 271.88L271.366 272.159L270.626 273.566L270.454 274.841L268.287 275.301L268.738 276.944L268.523 277.87L267.777 277.787L267.042 277.076L266.566 277.424L267.223 278.164L266.361 279.228L266.267 279.89L267.238 280.15L267.184 280.542L267.998 281.086L267.655 281.42L266.669 281.174L266.307 281.611L266.983 282.371L267.92 282.645L267.017 283.091L267.003 283.581L267.674 284.841L268.498 284.278L268.92 284.533L268.439 286.621L268.959 287.116L269.214 288.548L270.366 289.204L270.322 289.577L268.875 290.116L269.042 291.401L269.356 291.739L270.229 291.509L270.278 292.126L271.523 294.146L270.895 295.303L271.385 296.553L270.4 296.965L269.326 298.019L269.998 298.406L269.675 298.803L270.4 298.534L269.861 299.877L269.326 299.848L267.429 301L266.194 299.916L264.223 300.333L264.576 298.436L262.439 298.279L259.625 295.386L260.728 294.376L260.149 291.96L260.527 291.724L259.909 291.582L258.306 289.45L256.752 288.165L255.149 287.621L254.105 286.641L253.688 287.94L252.418 286.886L252.178 287.003L252.423 287.847L252.119 288.013L248.403 287.062L248.232 287.905L247.477 288.386L246.982 288.224L246.589 288.989L245.212 287.915L244.045 288.219L243.623 288.626L243.864 288.95L243.418 290.479L242.133 289.803L241.148 290.224L240.756 289.651L240.344 289.783L240.339 290.68L238.589 289.758L237.951 287.945L238.618 287.65L238.554 286.444L238.29 285.591L237.535 285.601L237.28 286.087L235.981 286.685L235.863 287.155L235.397 286.998L234.878 287.376L234.52 287.052L234.123 287.714L233.623 287.817L233.598 288.768L232.721 289.474L231.147 288.459L230.343 290.386L230.441 291.729L229.774 293.175L226.514 292.401L225.475 292.935L224.44 294.092L223.303 294.357L223.362 292.911L222.636 289.93L221.327 289.508V288.734L220.573 287.528L221.043 285.567L220.783 283.434L219.268 283.067L219.067 281.674L218.013 280.812L218.268 280.194L217.528 279.875L217.989 278.762L217.636 278.419L215.518 278.517L212.67 282.16L211.591 282.998L210.743 283.072L210.488 282.096L208.317 282.165L206.351 283.577L205.282 283.792L203.037 288.028L203.571 288.739L203.767 290.053L203.478 290.175L203.355 291.489L202.713 292.165L202.154 290.989L202.164 289.214L200.88 290.587L200.213 290.303L198.732 284.18L199.154 283.743L198.463 284.018L198.345 283.763L199.335 283.287L195.649 283.184L195.644 282.591L194.536 282.444L194.266 281.993L192.546 281.856L189.746 284.297L188.33 284.984L188.011 282.964L185.751 280.116L184.849 280.243L185.217 277.056L184.864 276.694L181.785 278.782L181.638 280.052L181.079 280.998L180.148 281.15L179.29 282.66L178.648 282.939L178.035 282.689L176.873 283.464L173.368 283.91L174.647 281.802L173.927 281.836L173.476 282.611L172.696 282.807L172.745 281.219L172.338 280.508L170.323 279.714L169.333 280.209L169.019 280.542L169.706 281.052L169.24 283.14L170.049 284.846L169.519 285.283L168.264 285.469L166.676 288.802L166.009 288.631L163.333 286.356L163.798 286.155L163.886 285.018L165.362 283.596L165.691 282.199L165.494 281.312L164.367 281.272L163.97 280.851L162.705 280.611L161.813 281.243L159.244 279.429L158.788 280.228L158.043 279.439L158.205 279.057L156.959 277.532L157.376 276.453L156.999 275.591L157.17 274.429L157.636 273.806L158.464 273.953L159.455 272.693L159.416 272.09L158.798 271.443L159.715 269.232L158.543 268.217L157.513 266.668L158.352 265.658L158.871 264.261L158.822 262.82L158.028 261.281L158.862 260.031L161.381 258.374L161.573 257.756L161.533 256.285H160.288L159.808 255.162L159.97 254.633L159.077 254.785L158.185 254.373L158.366 252.211L158.018 251.54L158.803 248.716L159.151 248.471L158.386 247.324L159.572 245.868L159.107 245.426L159.254 244.662L159.092 243.897L158.715 243.789L158.685 242.97L157.974 242.475L157.195 242.534L156.342 241.343L154.185 241.245L152.92 240.205L152.876 239.235L148.998 239.279L148.758 237.127L149.351 235.141L149.366 234.788L150.43 234.264L150.851 233.484L152.435 232.185L152.763 231.562L151.856 229.322L152.645 229.229L152.66 228.749L153.042 228.724L153.793 226.856L156.043 227.302L156.165 226.748L158.175 227.067L158.916 226.773L159.014 226.062L159.945 226.94L160.837 226.008L161.033 226.523L161.671 226.204L161.622 227.101L162.337 227.131L161.729 229.866L162.705 229.896L165.548 231.656L165.735 232.783L168.652 232.489L171.951 233.391L172.971 232.793H173.976L174.015 231.175L174.848 230.695L174.427 228.43L175.319 227.945L179.971 227.342L180.407 229.533L182.672 229.106L182.888 230.214L188.021 229.396L191.32 226.111L191.374 220.013L192.389 217.88ZM303.467 230.151L303.378 229.523L304.687 229.587L305.07 229.935L304.815 230.822L304.383 230.097L303.467 230.151Z" fill="#CCCCCC" stroke="white" stroke-width="0.5"/>
<path d="M110.428 76.1045L111.271 76.2663L111.952 76.8693L112.595 78.5066L112.423 79.1341L113.33 79.6685L113.202 80.1342L116.296 82.9825L115.668 83.3698L115.644 84.3993L115.114 84.8307L115.595 86.6495L115.359 87.2378L116.061 86.8014L116.644 87.0515L117.276 86.571L118.482 86.4289L119.237 87.0956L121.335 90.6155L122.958 91.292L123.198 92.2676L122.757 94.0275L123.738 95.8757L123.948 97.4053L124.591 97.768L124.841 98.4053L125.512 97.7827L126.159 97.9249L126.336 98.3318L127.679 98.0033L127.164 98.9152L127.199 100.994L128.4 101.455L128.248 102.082L127.096 102.058L127.13 104.087L125.331 103.352L125.846 103.93L125.458 104.367L125.414 105.239L126.003 105.494L125.802 106.166L126.444 106.068L126.331 107.288L126.811 107.906L126.032 109.642L126.228 109.97L125.605 110.269L126.547 110.799L124.801 113.063L123.527 113.009L123.056 114.113L122.483 114.157L122.728 115.279L122.154 115.274L120.835 118.304L120.973 119.456L120.164 119.579L119.786 120.03L119.35 119.75L119.164 120.216L118.634 120.255L117.968 121.863L117.644 121.799L116.84 123.108L117.046 123.677L116.355 123.79L116.546 124.148L115.752 125.167L115.016 124.937L114.399 125.275L112.913 124.535L112.536 124.839L112.398 124.172L111.658 123.505L111.021 124.089L110.393 123.599L108.707 125.158L107.393 125.863L106.815 126.8L105.717 126.873L105.197 126.368L105.398 125.746L105.074 125.579L104.672 125.981L104.491 127.133L103.158 128.908L103.349 129.584L106.447 131.305L106.668 130.682L105.682 129.785L106.182 129.31L106.844 129.575L107.722 129.001L108.447 129.016L108.457 129.609L107.766 129.942L107.55 131.58L108.153 132.188L107.869 132.526L108.432 133.639L108.271 134.497L109.001 135.301L109.129 136.266L110.354 136.722L111.648 135.786L112.016 135.948L112.8 135.178L114.639 134.649L114.908 137.531L114.129 139.634L115.752 139.262L117.448 137.909L118.816 141.071L117.767 142.409L116.771 142.777L115.923 142.63L116.884 144.375L114.85 145.1L113.752 146.252L113.247 145.63L112.776 146.346L111.418 146.439L112.359 148.625L111.295 148.757L111.614 149.512L111.227 149.645L111.83 150.243L112.546 149.807L113.144 150.522L112.403 151.135L113.041 152.076L112.58 152.537L114.207 155.297L114.33 156.136L116.482 156.758L116.09 158.449L116.987 158.445L117.624 159.013L117.561 159.744L119.051 161.053L119.458 162.43L120.85 163.69L120.605 163.989L122.782 165.063L122.733 166.71L121.027 167.989L121.659 168.475L121.968 167.813L122.345 167.808L122.59 168.529L123.125 168.367L123.267 172.524L124.13 174.544L122.081 174.951L121.728 175.431L119.781 175.176L118.556 175.877L118.134 175.534L117.149 176.711L116.497 176.524L116.11 176.838L115.953 177.118L115.668 176.721L114.864 177.02L114.384 177.583L113.752 176.417L108.766 176.397L107.81 175.897L106.589 176.662L106.295 176.461L106.275 175.549L105.437 176.686L104.756 176.794L103.937 176.49L104.153 176.073L103.746 175.833H102.378L102.373 175.196L101.363 175.206L100.53 174.765L99.8435 175.005L100.005 174.313L98.6277 174.446L98.059 175.421L96.7403 174.961L95.7353 175.637L94.4166 175.426L94.1372 174.858L93.3283 174.622L92.2596 174.735L92.0095 175.608L91.4948 175.475L91.2301 176.456L90.7055 176.353L90.9604 178.01L90.6222 178.441L90.7741 179.53L90.1466 179.662L89.8868 180.77L90.1908 181.064L89.4701 181.559L88.6955 181.309L89.1907 182.304L88.8132 182.442L88.3769 184.206L89.0191 185.496L88.3328 185.501L88.2592 186.756L87.4307 187.491L87.8474 188.251L88.8279 188.829L88.6465 190.599H89.1073L88.5485 192.256L87.7592 192.462L87.8131 193.07L88.9259 194.109L88.1857 194.987L88.0435 195.492L88.3377 195.766L86.5238 196.163L85.6904 197.462L83.1363 198.693L82.7343 199.874L82.2097 200.11L82.3274 202.071L80.1752 202.512L80.1115 202.198L78.1407 202.169L78.5427 203.468L79.2781 204.188L78.0672 205.267L78.3172 206.537L79.5575 206.409L79.8027 207.056L78.729 208.395L77.376 207.88L76.9054 205.571L74.964 206.395L74.4297 207.581L74.6846 207.821L74.2924 208.208L73.5717 207.694L73.1256 207.885L72.8315 206.87L72.0667 206.846L72.1501 207.199L71.0568 207.679L71.1353 208.12L70.1989 207.473L69.8214 208.503L69.3165 208.606L68.9684 207.998L69.4096 207.336L68.9488 206.801L69.4293 205.895L69.0812 205.488L69.5175 204.345L69.444 203.355L68.8312 203.144L67.9781 205.316L67.5173 205.507L66.0613 203.924L66.6545 203.218L65.6152 201.306L65.2917 201.502L64.9828 201.1L64.4141 201.105L63.669 201.968L61.8943 201.781L61.5659 202.159L61.0462 201.973L61.2472 201.33L60.9531 201.198L59.953 202.306L59.2961 201.595L58.0705 202.139L56.9429 201.649L57.1832 199.531L56.438 199.448L56.2223 200.139L55.1095 200.409L55.0163 201.076L53.0063 202.468L52.8544 203.203L53.5652 203.414L53.4377 203.796L54.2613 204.277L52.82 204.733L51.5356 206.743L52.2514 207.483L51.7955 207.885L52.6436 207.694L52.3494 209.057L52.0504 209.066L51.2856 211.062L51.8053 212.15L51.7709 213.425L51.3837 212.964L49.8492 213.807L45.4665 213.9L45.4763 212.719L44.9272 212.581L42.9614 213.719L41.074 212.723L40.471 213.405L40.7847 212.537L40.3288 212.287L39.4513 212.866L39.4464 213.822L39.1032 214.057L38.6963 212.866L38.6375 213.322L37.9512 212.929L37.1864 213.101L36.657 212.655L36.7746 211.174L35.3284 210.39L34.2107 210.753L34.1568 211.454L31.3624 211.321L31.2497 211.905L28.4308 211.9V210.062L27.9161 209.022L27.6121 202.595L28.6906 201.34L28.1367 200.296L27.9308 197.404L26.9405 195.923L27.0483 195.354L26.4797 195.183L26.009 194.036L27.6513 189.447L27.1219 188.369L25.7345 187.192L25.4207 184.981L24.0677 184.197L18.3466 167.47L15.6552 156.337L15.5278 153.939L14.3218 152.326L14.4444 147.351L13.4198 146.64L12.9688 143.639L13.1011 140.884H13.5668L13.8512 141.605L15.4739 141.669L16.5132 142.688L17.9103 142.154L19.9252 142.198L20.1997 141.879L22.244 142.85L22.798 143.615L22.5529 144.272L23.097 144.345L24.0971 143.684L23.4108 142.585L23.4941 142.129L25.1217 140.909L26.3767 141.713L26.9454 141.576L27.6464 140.08L29.3868 141.1L29.6221 142.585L30.3378 142.674L34.3283 141.889L34.8088 140.791L35.8285 140.982L36.3432 140.423L37.9855 140.002L38.4463 140.747L38.3189 141.242L39.0983 141.551L39.8337 141.066L40.0788 141.781L42.0447 143.963L42.6575 144.125L43.2212 143.458L43.6085 144.144L45.8832 143.796L45.7606 144.086L46.1087 144.282L46.045 143.747L46.3587 143.762L46.3783 144.144L47.1774 143.747L47.8343 142.458L49.4766 140.62L51.3199 139.021L52.4328 138.615L53.1779 137.521L54.1731 137.781L55.2075 136.948L56.0605 137.168L55.6144 140.419L57.3891 140.208L57.291 139.737L58.5362 138.57L59.4382 138.247L60.1932 138.467L60.5952 138.222L60.6295 137.614L61.1296 137.712L60.9825 136.443L62.0904 136.467L62.2669 136.016L61.9826 135.781L61.2031 136.065L60.4628 135.364L60.3795 133.771L58.6441 131.251L58.7372 130.913L59.4235 131.075L60.7766 130.021L60.3256 129.158L62.2228 129.089L65.424 127.555L66.1937 127.986L66.0515 128.349L66.7084 129.344L67.532 129.766L68.7478 129.555L69.6106 129.859L71.1892 127.726L74.2826 124.564L74.2336 123.525L74.9542 122.157L75.3709 121.902L76.0376 122.608L76.6357 121.29L77.9054 122.005L78.077 121.633L78.582 122.005L79.0722 121.677L79.7193 121.858L80.0674 121.368L81.744 120.726L82.2244 119.75L83.3961 119.794L83.3176 120.216L83.8569 120.221L84.3864 119.922L84.3275 119.515L84.9011 119.495L85.0139 118.961L85.607 119.216L85.7002 120.633L87.3033 121.27L87.0582 121.711L87.6464 122.368L87.5288 122.912L88.269 124.118L86.6022 123.971L86.666 124.594L87.2738 124.952L87.2591 126.015L85.5629 126.721L85.406 127.364L86.2738 128.54L86.9699 129.06L87.4356 128.824L88.7691 129.452L89.6368 129.3L89.524 129.619L90.1466 130.236L90.9702 129.511H91.7252L91.7791 128.501L92.4115 128.496L92.4753 127.78L93.7106 128.574L94.2744 128.266L94.2989 127.599L94.6666 128.192L95.6716 128.462L95.8873 128.133L95.1323 127.829L94.8627 126.873L95.1912 126.256L94.9657 125.667L94.2107 124.594L93.946 124.662L95.6961 123.447L95.3627 123.682L94.6519 123.221L94.0979 121.461L93.0586 121.133L92.7204 121.383L92.3527 121L92.6272 119.78L91.8036 118.417L90.931 118.319L90.2055 118.976L89.7299 118.593L89.3524 119.044L88.323 118.711L88.2494 118.284L86.9356 118.77L86.8424 117.711L86.3032 117.618L86.362 117.054L87.0532 116.975L87.3376 115.647L88.3426 114.961L88.1269 113.921L88.3818 113.309L88.8524 113.627L89.7495 112.083L89.3721 110.46L89.6711 109.955L88.8622 109.784L90.0535 109.127L91.6419 105.068L94.1568 103.278L94.5244 102.489L94.2548 99.8123L93.7303 98.9838L93.9411 98.5328L93.4802 95.9738L93.8087 95.7434L93.5979 94.655L94.0783 91.7479L93.5979 88.429L94.1715 87.0417L95.0686 86.9142L95.2843 84.9434L96.0442 84.5562L96.5001 83.5659L97.8237 82.3991L98.0639 80.4823L98.7503 80.4431L99.0542 79.997L99.7749 80.2862L100.598 79.9774L101.231 79.242L102.53 78.6439L103.099 79.2371L105.467 79.6538L105.128 79.2518L106.104 78.9037L106.001 77.9919L107.114 77.8497L107.526 76.8202L108.119 77.0359L108.957 76.4967L109.805 76.6879L110.428 76.1045ZM84.4011 121.054L83.8863 120.927L84.2001 120.471L84.9109 120.441L84.4011 121.054Z" fill="#CCCCCC" stroke="white" stroke-width="0.5"/>
<path d="M225.971 123.029L226.996 122.779L227.594 123.323L228.069 122.563L228.501 122.715L228.628 122.152L229.177 122.431L229.937 121.279L229.834 120.431L230.545 120.25L230.751 119.117L232.329 119.245L231.913 117.887L232.359 117.043L234.133 116.377L234.119 117.092L235.663 117.666L236.683 118.759L237.443 118.303L239.521 118.539L241.134 118.146L242.065 117.293L243.115 117.994L243.757 117.107L243.595 116.813L244.036 116.607L244.443 116.94L243.825 117.813L244.796 118.803L244.394 119.352L246.027 120.171L246.11 119.813L246.87 119.887L247.684 119.2L247.115 120.98L248.443 120.975L248.88 120.745L248.032 119.362L248.1 118.622L249.767 119.151L249.762 118.583L250.713 118.264L249.684 117.784L249.233 116.896L250.424 116.97L251.115 117.911L252.022 116.401L251.115 115.416L251.375 114.607L252.787 114.342L252.88 114.764L252.434 115.264L251.978 115.249L252.032 115.72L253.508 115.215L254.415 116.475L254.365 117.524L255.179 117.47L255.699 116.303L255.312 115.749L255.733 115.435L256.925 116.357L257.258 116.058L257.876 116.695L258.336 116.475L258.827 113.94L259.787 114.445L259.224 115.681L259.498 116.514L258.111 117.725L257.464 119.715L260.111 120.406L261.243 118.597L262.788 118.735L262.562 117.813L262.9 117.156L263.239 117.695L263.704 117.7L263.984 119.495L264.675 120.058L264.955 121.382L265.915 120.681L266.092 121.799L266.773 121.759L266.45 122.201L267.391 122.416L266.92 121.799L266.984 121.088L268.352 121.068L267.023 120.603L268.612 119.318L268.004 119.009L268.729 117.406L269.225 117.078L269.568 117.269L269.891 116.597L269.367 115.793L268.651 115.73L268.367 115.293L269.063 114.852L269.828 114.97L271.092 114.18L271.445 114.421L272.823 113.935L272.293 112.514L272.588 111.984L273.573 111.666L274.666 112.082L274.818 112.455L276.112 112.445L276.343 113.563L277.72 113.136L279.25 113.636L280.181 113.171L280.098 112.107L280.637 111.842L280.588 110.999L281.485 110.288L282.191 111.705L283.118 111.572L283.5 112.077L284.451 111.916L285.084 113.519L286.348 112.166L286.598 111.371L287.721 111.19L287.981 110.695L289.368 110.067L288.8 108.989L289.687 108.852L290.221 109.42L291.432 109.082L292.501 109.347L292.643 111.234L293.055 111.455L293.207 112.538L293.854 113.323L293.217 114.744L294.967 115.514L295.737 117.2L294.442 118.421L295.687 118.852L295.31 120.808L295.511 122.965L296.251 122.848L297.139 123.436L297.781 122.715L298.046 124.294L299.001 124.176L298.884 124.76L298.168 124.554L297.884 125.103L299.884 125.304L301.374 127.005L302.07 126.917L302.281 127.284L301.909 128.177L303.208 128.765L304.11 128.755L304.463 129.642L306.747 129.878L307.757 129.339L307.644 129.76L308.507 130.755L308.537 131.667L310.292 131.054L310.62 131.672L311.091 131.236L312.125 131.089L311.855 132.687L311.38 133.256L312.591 133.334L313.88 132.28L314.439 132.996L315.047 132.554L315.41 133.167L315.88 132.731L316.562 132.976L316.008 133.805L316.478 134.81L316.307 135.839L315.071 137.687L315.464 138.383L316.273 138.619L316.326 140.158L314.988 141.085L315.091 142.188L314.758 142.305L314.12 144.227L314.204 145.207L313.057 145.629L313.498 146.016L313.748 145.85L313.777 146.301L313.459 146.825L312.743 146.909L312.409 147.678L312.875 147.86L312.757 148.213L311.566 148.335L312.11 149.022L311.743 150.625L312.032 150.835L312.306 150.046L312.659 150.33L312.782 149.948L313.277 149.909L313.444 150.316L313.88 150.213L316.63 151.845L316.9 151.183L317.675 150.982L318.513 151.316L319.881 150.11L321.989 150.438L321.851 149.997L323.268 150.164L323.837 149.487L324.847 149.232L325.631 150.291L326.509 150.379L326.67 150.806L326.989 150.428H327.813L328.484 152.37L329.519 152.448L329.744 152.012L330.587 151.816L330.7 152.184L330.146 152.787L331.97 152.713L332.754 153.478L333.107 155.12L333.593 155.419L334.544 154.654L335.701 154.728L336.882 154.14L336.98 155.154L338.01 155.596L338.284 156.101L338.363 157.331L336.701 158.429L335.75 158.292L335.23 158.674L335.205 159.297L335.382 160.424L335.818 160.665L335.794 159.449L336.48 160.297L335.72 162.214L336.882 164.106L337.642 164.537L337.402 165.631L338.765 165.866L340.221 166.925L339.833 167.587L342.069 167.866L342.152 169.969L342.971 170.141L343.662 168.371L343.927 168.95L345.133 169.651L344.172 169.91L344.044 170.518L346.971 171.097L347.383 170.719L348.104 170.842L347.383 171.867L347.912 173.313L347.108 173.406L347.079 174.136L347.442 174.739L348.05 174.622L348.354 175.303L347.746 174.916L347.045 175.019L347.167 175.587L346.515 176.298L347.466 178.593L345.696 178.921L345.074 178.328L344.353 178.803L343.829 179.906L342.564 178.362L342.662 179.843L341.941 179.877L341.397 181.284L340.005 180.622L339.289 181.132L339.196 180.303L337.892 180.539L337.961 180.892L338.867 181.181L338.818 181.72L336.456 186.25L335.897 186.417L335.156 187.583L334.191 187.378L333.181 187.677L332.509 188.412L332.656 189.216L332.244 190.069L331.171 191.079L329.033 191.118L328.636 191.907L328.803 192.844L326.965 192.324L326.455 193.506L323.68 194.197L320.915 193.398L320.851 192.849L320.033 193.265L319.881 193.731L317.846 193.849L317.111 193.54L317.376 192.53L316.959 192.285L316.042 191.912L315.493 192.368L314.115 192.152L312.934 190.353L312.601 188.186L311.954 187.966L311.047 186.927L310.512 187.186L306.816 185.039L305.056 187.226L303.718 187.363L303.482 186.858L302.497 186.833L302.252 186.52L298.644 186.059L299.139 188.231L298.428 188.618L298.364 189.52L297.202 190.353L297.271 191.221L297.732 191.236L298.462 192.211L298.144 192.976L297.139 193.074H296.403L295.903 191.966L293.119 191.907L293.109 191.476L292.903 191.775L292.364 191.496L292.094 191.849L291.471 190.143L288.314 190.427L287.78 189.441L288.569 188.687L288.496 187.706L287.829 187.52L287.53 186.534L286.319 186.775L286.265 185.353L285.319 184.76L285.633 183.627L285.339 183.245L284.902 183.505L284.368 182.946L283.667 183.446L283.098 182.549L284.113 181.578L284.554 180.617L284.378 180.274L281.039 180.544L280.833 180.098L279.358 180.397L278.608 180.647L278.765 181.323L278.113 181.897L275.598 181.544L275.274 181.985L274.029 182.098L274.053 182.961L272.558 183.137L271.617 182.235L272.132 181.181L268.705 180.514L269.019 179.818L268.342 179.455L269.053 178.146L268.45 177.813L268.298 178.847L267.499 180.068L266.19 179.936L265.734 181.196L264.852 181.049L264.95 181.549L264.425 182.206L262.753 181.686L261.645 182.563L261.543 183.549L259.881 183.289L259.248 183.926L257.508 184.294L257.464 183.681L256.464 184.985L255.738 184.779L255.042 185.196L254.767 184.917L253.856 185.407L253.316 184.951L252.277 181.573L251.36 180.995L251.439 180.504L250.968 179.921L246.448 178.857L246.507 179.514L245.943 180.49L244.237 180.24L244.428 179.504L244.938 179.254L244.791 178.745L244.09 178.225L243.619 178.465L243.948 178.901L242.899 179.343L242.502 177.421L240.82 178.249L239.036 180.049L239.065 182.544L239.771 183.392L239.899 184.049L239.536 184.152L240.57 186.941L238.83 187.569L239.854 188.084L239.33 188.481L239.457 189.069L239.864 188.981L239.104 189.716L239.232 190.373L239.845 190.5L237.849 191.545L237.32 191.148L236.3 191.417L235.884 190.466L235.535 190.495L235.521 191.025L235.006 190.927L234.883 191.368L235.369 192.564L234.437 193.197L235.241 194.829L236.32 194.447L236.741 195.368L235.236 197.266L235.722 197.53L235.991 198.629L236.467 199.021L238.443 199.879L237.702 200.712L238.026 201.398L236.021 202.041L235.717 201.477L235.423 201.305L235.344 201.658L234.575 200.987L233.516 200.854L232.315 201.222L232.065 200.918L230.766 201.036L230.398 200.751L228.834 202.462L227.108 203.237L226.711 202.712L226.074 202.717L226.133 201.943L225.491 201.859L225.182 202.595L225.138 202.197L224.24 201.869L221.574 201.599L221 200.722L219.632 200.643L218.706 200.08L217.97 200.487L215.833 203.874L216.304 205.997L215.47 206.433L215.308 206.173L210.671 206.796L210.872 208.276L207.994 212.296L207.19 212.154L206.396 213.12L204.69 212.566L204.376 214.164L204.861 214.184L204.984 214.811L205.67 214.625L205.719 215.63L203.812 215.645L203.827 216.135L202.69 217.414L201.4 216.753L200.489 217.439L198.778 216.787L197.812 217.365L197.072 217.257L196.684 217.782L195.194 217.424L194.243 217.772L193.919 217.233L192.89 218.228L192.39 217.88L192.581 217.718L191.806 216.694L190.458 215.757L188.679 215.267L188.718 214.243L188.885 213.331L190.728 212.076L191.679 209.781L190.904 208.056L190.468 207.879L190.527 207.188L192.228 206.737L192.091 206.296L192.753 205.443L192.326 203.938L192.003 203.854L191.012 201.737L191.517 200.482L191.851 200.192L192.355 200.55L193.209 199.594L194.258 200.354L195.101 200.428L195.841 198.972L194.748 197.717L194.679 196.172L194.312 195.815L194.826 194.751L194.253 192.868L194.826 192.251L194.277 191.986L193.856 190.853L193.292 191.123L193.91 190.093L193.189 189.089L190.267 189.888L189.625 189.755L189.595 189.363L190.037 189.299L188.968 188.799L189.193 189.692L187.992 190.064L187.752 189.363L187.992 188.956L186.718 189.309L187.566 188.809L188.027 187.539L187.885 187.069L186.6 186.569L185.688 188.044L184.968 187.093L184.291 187.162L184.12 187.863L183.654 187.775L183.414 187.093L182.149 187.633L181.913 186.441L181.286 186.588L179.364 185.461L179.565 184.544L178.737 183.97L178.389 182.333L179.443 182.701L180.531 182L180.82 182.485L182.541 183.083L186.056 183.397L187.272 183.323L187.267 182.377L190.399 182.279L191.061 181.96L191.027 179.495L189.895 178.142L188.277 177.509L188.154 176.838L188.502 175.45L189.233 175.592L189.267 175.087L190.061 174.636L190.076 171.445L188.909 170.371L187.581 169.945L188.095 169.95L188.287 169.337L188.919 169.209L190.017 169.861L190.483 168.984L191.081 169.092L192.439 167.351L192.723 167.773L193.159 167.43V166.494L193.542 166.646L194.101 167.891L194.478 167.249L195.983 167.121L196.052 166.459L195.429 166.621L195.013 166.008L195.292 166.891L193.228 166.366L194.566 165.131L196.557 165.229L196.689 163.881L197.959 163.935L197.591 163.351L197.939 161.836L201.194 163.841L203.621 163.939L203.479 162.88L204.969 162.346L205.553 163.802L207.004 163.949L208.298 165.655L208.352 166.567L210.078 166.856L210.102 167.351L210.455 167.459L209.857 164.709L210.607 164.537L209.793 164.243L209.749 163.783L211.47 162.954L211.671 163.454L214.343 163.724L214.779 162.944L214.151 162.425L214.245 161.17L213.823 160.841L214.112 160.155L214.931 160.567L215.357 159.91L215.088 158.503L215.308 157.292L216.181 157.38L216.25 158.179L217.127 157.856L218.005 159.336L218.735 159.155L219.098 158.4L220.495 158.091L220.848 157.253L222.49 156.777L222.995 155.934L222.902 154.561L223.235 153.689L223.99 153.684L224.912 155.096L225.79 154.86L225.643 153.12L226.128 153.208L226.834 152.659L225.368 152.188L225.677 151.144L228.716 151.375L229.295 151.046L229.442 150.105L228.388 149.899L228.099 149.306L226.971 149.526L226.628 148.296L224.892 148.757L224.446 148.443L225.481 147.997L226.799 146.311L225.53 147.051L224.853 146.556L224.883 146.222L225.701 146.114L226.045 145.565L225.049 145.158L225.996 143.183L225.089 142.634L225.177 140.952L224.221 140.178L224.902 139.393L224.701 138.472L223.515 137.3L224.01 136.452L225.907 135.413L227.197 135.432L226.775 134.824L227.594 127.74L227.079 127.196L227.961 126.431L228.157 125.554L227.814 125.392L228.354 125.069L227.716 124.863L227.844 124.451L227.388 124.505L227.353 123.882H226.187L225.971 123.029Z" fill="#CCCCCC" stroke="white" stroke-width="0.5"/>
<path d="M180.713 1.02941L180.983 1.05393L181.105 2.84329L182.561 3.18645L184.223 4.81404L184.247 6.51025L185.007 6.68674L185.522 6.16709L185.841 7.34366L186.807 8.21137L187.831 7.94665L189.12 8.16725L189.464 6.83381L188.949 5.79941L189.067 5.08857L189.424 4.95621L190.797 5.74549L190.65 6.36809L192.322 5.21603L194.542 5.25035L194.631 4.85816L195.302 4.65226L197.763 5.68176L198.592 5.30427L199.994 5.48076L200.018 6.00531L199.386 6.78479L198.788 6.6034L198.518 7.34366L199.249 8.33393L199.288 9.15263L200.783 10.4223L200.95 12.2607L202.166 14.1775L202.381 13.9177L203.009 14.1775L204.553 13.8932L206.034 15.0208L206.534 12.9323L208.529 12.5647L208.946 12.1774L209.622 12.5353L209.617 11.4469L211.838 11.344L212.147 10.4419L214.799 9.94191L215.691 11.1087L216.5 10.3341L217.329 10.437L219.554 12.9373L220.937 12.3784L222.005 12.8392L222.697 12.6431L224.555 13.9766L225.746 13.7756L226.937 14.153L227.977 14.9913L227.138 15.3982L227.011 15.9179L228.246 16.266L228.967 17.4033L227.844 18.0259L227.187 17.9965L227.114 18.3936L225.922 18.5554L227.04 20.3594L226.295 20.3643L225.766 21.3252L225.854 23.5362L224.849 24.9137L225.089 26.3648L224.628 27.2521L224.805 27.811L226.163 28.0561L228.055 29.4141L228.285 30.2818L229.173 30.9877L230.393 31.1985L232.619 29.2082L232.923 27.6247L234.1 26.3158L234.683 26.5658L236.105 25.551L237.463 25.6L238.791 24.8549L239.389 25.654L239.316 26.2325L239.811 26.4727L240.683 26.2423L242.081 24.6882L242.027 23.8548L242.399 24.0215L243.385 22.4037L243.027 21.7762L244.017 21.0163L245.944 21.6831L246.821 21.3056L246.831 20.5506L247.718 20.4869L249.571 21.2811L250.219 22.1733L250.645 21.9625L251.67 22.9773L252.65 22.9577L253.023 21.786L253.92 21.7615L253.964 20.7467L253.636 20.232L253.881 19.9329L254.361 20.9967L255.351 20.6879L256.077 20.8889L256.606 20.4869L257.832 20.9624L257.95 20.6094L258.283 22.992L260.121 22.7714L261.146 24.3009L262.337 23.9431L262.739 24.4725L265.465 24.149L265.632 24.7617L266.597 25.453L265.793 26.1687L267.009 28.2032L268.936 28.2669L270.681 29.669L271.426 31.4584L271.009 32.2526L271.108 33.0958L272.191 33.1889L271.662 34.1007L272.284 34.1449L272.176 35.4881L272.745 35.5469L273.108 34.189L274.333 33.9831L275.338 37.5079L275.127 37.9001L275.608 38.454L277.206 38.4442L277.186 37.8314L277.883 37.7677L278.089 36.8068L278.75 36.5372L278.24 35.9244L279.26 35.8068L280.873 36.9833L281.579 36.3411L281.711 38.6305L282.442 41.4837L281.001 42.1112L280.912 42.5426L281.55 42.9593L281.486 43.4299L282.074 43.3809L282.608 44.3124L281.167 45.5576L280.324 45.685L280.849 46.7537L280.584 47.8274L281.697 50.6707L281.206 52.0826L280.412 52.2542L279.368 53.8278L278.388 54.3475L277.765 55.2299L277.476 55.828L277.574 58.2253L279.834 58.7939L279.844 59.6568L280.662 59.9999L281.251 63.0835L282.608 63.6767L283.001 65.0739L283.589 65.1817L283.133 66.6818L283.996 66.8534L283.697 68.2065L283.986 68.7801L283.476 70.0988L284.02 71.5793L284.055 73.952L283.667 74.2805L283.427 73.9079L281.834 73.4814L280.775 74.5844L282.094 75.6728L282.824 77.0994L281.834 77.4082L281.903 78.4426L280.638 78.4671L280.643 79.1878L278.922 79.0652L277.628 79.7074L277.603 80.5604L277.897 80.6242L278.142 81.7272L277.397 82.7028L277.696 83.4136L276.804 83.6293L275.108 88.0218L278.378 89.3455L279.912 91.0172L280.883 91.2182L282.422 92.4045L283.256 93.8801L284.001 93.2919L284.02 94.9734L283.613 95.5813L283.805 96.5127L285.045 96.3411L287.437 97.1745L288.281 96.4539L288.888 96.9441L290.712 96.7725L291.325 97.7432L291.614 99.3267L290.261 101.636L289.236 102.361L288.825 103.268L288.908 104.479L287.511 105.195L287.682 106.048L287.192 106.69L287.874 107.617L288.928 107.769L289.933 108.724L290.501 108.867L291.34 108.474L291.433 109.082L290.222 109.421L289.687 108.852L288.8 108.989L289.369 110.068L287.981 110.695L287.722 111.19L286.599 111.372L286.349 112.166L285.084 113.519L284.452 111.916L283.501 112.078L283.118 111.573L282.192 111.705L281.486 110.288L280.589 110.999L280.638 111.842L280.098 112.107L280.182 113.171L279.25 113.637L277.721 113.137L276.343 113.563L276.113 112.445L274.819 112.455L274.667 112.083L273.573 111.666L272.588 111.985L272.294 112.514L272.823 113.936L271.446 114.421L271.093 114.181L269.828 114.97L269.063 114.852L268.367 115.294L268.651 115.73L269.367 115.794L269.892 116.598L269.568 117.269L269.225 117.078L268.73 117.407L268.004 119.01L268.612 119.318L267.024 120.603L268.352 121.069L266.985 121.088L266.921 121.799L267.392 122.417L266.45 122.201L266.774 121.76L266.092 121.799L265.916 120.681L264.955 121.382L264.676 120.059L263.984 119.495L263.705 117.701L263.239 117.696L262.901 117.157L262.563 117.813L262.788 118.735L261.244 118.598L260.112 120.407L257.464 119.716L258.111 117.725L259.499 116.514L259.224 115.681L259.788 114.446L258.827 113.941L258.337 116.475L257.876 116.696L257.258 116.058L256.925 116.357L255.734 115.436L255.312 115.75L255.699 116.304L255.18 117.47L254.366 117.524L254.415 116.475L253.508 115.215L252.032 115.72L251.979 115.25L252.434 115.264L252.881 114.764L252.787 114.343L251.376 114.607L251.116 115.416L252.023 116.402L251.116 117.912L250.424 116.97L249.233 116.897L249.684 117.784L250.714 118.264L249.763 118.583L249.768 119.152L248.101 118.622L248.032 119.363L248.88 120.745L248.444 120.975L247.115 120.98L247.684 119.201L246.87 119.887L246.11 119.814L246.027 120.172L244.395 119.353L244.797 118.804L243.826 117.813L244.444 116.941L244.037 116.607L243.595 116.813L243.757 117.108L243.115 117.995L242.066 117.294L241.134 118.147L239.522 118.539L237.443 118.304L236.683 118.76L235.663 117.666L234.119 117.093L234.134 116.377L232.359 117.044L231.913 117.887L232.33 119.245L230.751 119.118L230.545 120.25L229.835 120.431L229.938 121.279L229.178 122.431L228.629 122.152L228.501 122.716L228.07 122.564L227.594 123.324L226.996 122.78L225.971 123.03L224.844 123.618L223.756 122.936L224.52 121.878L224.231 121.392L224.413 120.877L224.829 121.583L225.437 120.853L225.452 119.201L226.03 118.539L226.643 118.436L225.339 118.088L224.614 116.789L224.942 116.014L224.167 115.882L224.05 115.049L226.05 115.088L226.423 114.955L226.766 114.063L227.545 114.279L227.722 114.019L226.834 112.847L226.923 111.465L227.477 111.323L226.731 110.19L226.834 109.617L226.476 109.744L226.153 109.337L227.928 107.028L227.977 106.362L227.555 105.847L228.388 104.018L228.261 102.533L229.398 101.601L228.428 99.6453L227.04 99.9836L227.124 100.753L226.579 100.925L226.275 101.989L224.981 101.714L225.579 100.817L224.261 102.42L223.966 101.793L223.373 101.709L222.368 102.744L221.349 102.489L220.829 102.798L220.628 102.351L219.76 102.302L219.598 100.547L219.196 100.199L219.902 99.5032L219.069 99.0963L219.383 98.4491L217.892 98.6158L217.451 99.111L216.039 98.9296L215.353 98.3952L212.833 99.8316L212.583 100.243L212.779 101.366L212.211 101.964L211.612 101.763L211.505 101.243L211.122 101.366L209.926 100.601L208.558 100.542L208.156 99.9934L206.847 100.489L207.411 101.165L207.431 101.886L207.284 102.376L206.548 102.69L204.783 102.886L204.264 102.719L204.239 102.19L202.837 101.846L203.053 102.15L201.254 102.611L200.009 102.307L200.107 101.827L199.607 101.234L200.077 100.694L200.072 99.7777L198.361 96.8314L197.484 97.0029L197.19 96.3755L196.65 96.297L196.312 96.9931L192.032 96.949L191.655 100.224L191.072 102.126L190.199 103.641L189.464 103.651L187.748 101.18L186.846 100.851L186.561 99.6061L185.841 100.003L185.532 98.9051L185.243 99.1355L185.581 99.6159L185.424 100.258L184.934 99.4884L185.051 98.2236L183.625 97.2677L183.159 96.5176L182.463 96.3558L180.335 97.3755L180.448 96.9245L179.973 97.6059L180.36 98.508L179.227 98.8364L178.772 99.5816L178.517 99.0472L177.968 99.0227L176.026 100.106L175.801 101.616L174.786 102.013L173.801 100.337L172.227 100.542L171.006 99.8316L171.403 98.8708L170.663 98.2972L169.344 99.7777L168.986 99.8365L168.864 99.4394L167.56 100.243L166.844 100.214L166.56 99.0815L165.736 98.5325L166.084 97.2971L164.584 95.9686L164.56 91.7672L162.957 91.0221L162.177 90.2475L161.53 90.5416L158.603 90.3946L159.314 87.7963L158.314 87.409L157.186 87.9385L156.99 85.9481L155.873 85.4138L155.652 84.7912L154.922 84.8696L154.667 84.4578L153.921 84.9578L152.063 83.8156L151.245 82.139L150.269 81.8694L150.681 79.6486L149.603 79.2466L149.529 78.4916L149.259 78.3397L149.034 78.6632L148.676 78.1289L148.823 77.2219L149.176 77.0013L148.637 76.0061L146.803 76.3689L146.48 75.5257L145.808 76.0699L145.372 75.4718L144.622 76.5601L144.244 75.5649L142.813 76.0699L142.009 75.7365L141.21 76.1042L141.469 76.5013L142.146 76.3934L141.974 77.0994L139.832 77.1141L139.327 77.6974L138.102 77.9671L137.852 76.614L136.44 75.5698L135.66 74.4325L135.077 74.8345L134.67 74.6384L133.714 76.0306L133.263 75.5257L133.312 74.9276L132.557 74.8541L131.998 75.2512L131.88 75.9571L132.376 76.7219L132.89 76.7366L132.944 77.5994L132.606 77.8935L131.998 77.3347L131.503 77.9328L130.606 77.5014L129.89 77.7563L129.88 78.4965L129.071 78.5554L128.532 78.3544L128.096 77.2758L127.542 77.4866L126.498 76.5846L125.86 77.2562L124.566 77.0013L124.399 77.2562L125.223 78.0749L123.595 79.6045L121.429 78.2122L120.718 78.874L119.438 77.9328L118.708 78.222L118.404 77.4915L117.57 77.0013L115.511 76.4522L115.031 77.2415L115.418 77.5455L115.742 77.3543L115.673 78.0455L115.139 78.374L114.413 77.8053L113.325 79.6731L112.423 79.1387L112.595 78.5112L111.952 76.8739L111.271 76.2709L110.428 76.1042L110.643 75.0404L111.648 73.3491L111.825 71.6872L112.575 71.5548L112.482 71.2067L112.81 71.0646L111.389 69.0644L112.599 68.2555L113.972 68.0104L114.32 67.7309L113.982 67.4466L114.904 67.3191L114.806 66.7309L115.982 66.422L117.262 66.8926L117.492 67.4662L118.046 67.0054L119.777 67.7162L120.35 67.2309L120.424 66.5348L121.723 65.7847L122.669 66.8289L124.203 66.1818L125.556 66.5887L126.723 65.7063L127.493 65.9465L127.645 65.2209L128.223 65.4415L128.547 64.9954L127.959 64.6768L127.561 63.3531L128.199 62.9119L128.576 63.2355L129.483 62.2648L129.532 60.4509L130.042 59.8528L131.219 59.4999L131.979 58.6126L133.204 58.1811L133.091 56.5045L131.67 55.6074L129.116 55.5388L127.15 54.4406L126.954 55.0534L126.449 54.7446L125.963 55.5633L125.821 54.7397L125.297 54.9309L125.434 55.2986L125.032 55.73L124.272 55.6858L124.198 55.2838L123.443 55.7202L122.772 55.0583L119.473 54.2936L119.105 53.8867L120.09 53.3915L120.286 52.5287L121.228 52.5091L122.282 51.3424L123.11 51.3227L122.909 50.156L123.292 49.8324L122.654 47.9597L123.252 48.0333L122.738 47.2979L123.581 46.0625L123.198 45.386L122.718 45.2879L122.149 43.7192L122.767 42.5328L124.154 41.8906L125.233 40.1159L125.571 40.2581L126.4 39.5718L126.365 37.7383L126.042 37.2481L126.674 36.1793L126.429 34.4537L125.919 34.3802L125.909 32.8065L126.684 31.576L126.512 31.2819L129.081 31.4976L130.042 32.7183L131.464 33.0124L132.086 31.7427L134.655 30.6691L134.856 29.3307L135.68 28.3111L136.548 25.8207L137.415 25.9138L138.352 24.3205L139.827 23.2861L140.489 23.6342L141.028 23.2175L142.808 23.4234L143.117 22.3155L143.847 21.938L144.48 22.1341L144.872 21.7762L145.524 22.7518L146.705 23.0802L148.147 24.7765L148.313 25.4383L149.5 26.0315L151.897 25.1392L152.539 24.1784L154.931 25.4726L159.098 26.1001L161.603 25.8942L162.471 22.0213L161.917 19.1878L162.957 17.8347V16.8297L166.001 14.0305L167.217 13.9128L168.227 13.3834L168.766 12.2656L168.281 11.6528L168.687 11.6185L169.413 10.7214L168.599 9.88798L170.232 9.45657L170.898 8.79475L171.943 9.22126L173.085 7.49073L173.688 5.45625L174.315 5.11798L174.58 4.43165L175.301 4.06888L176.997 4.58853L177.095 3.99534L177.958 3.25018L178.801 3.46099L178.924 2.56385L180.365 1L180.713 1.02941Z" fill="#CCCCCC" stroke="white" stroke-width="0.5"/>
<path d="M160.931 151.071L160.569 150.973L160.054 149.772L160.397 149.272L160.774 149.394L160.931 151.071ZM172.109 146.585L171.756 146.551L171.731 145.693L172.349 146.056L172.109 146.585ZM177.153 145.169L177.942 146.149L177.266 146.659L176.021 145.193L177.153 145.169ZM160.657 140.379L161.863 141.036L162.628 140.693L162.456 141.33L163.147 141.761L163.976 141.604L164.52 141.036L165.657 141.217L165.917 140.805L166.383 140.933L166.01 142.722L163.985 143.747L164.657 146.031L164.167 147.35L165.755 148.512L165.991 146.86L168.157 146.963L168.878 147.737L167.795 148.566L167.746 149.394L166.765 149.6L165.451 148.669L164.961 149.34L165.118 150.09L163.932 150.659L163.672 150.375L163.981 149.86L163.387 149.448L163.981 149.036L163.672 148.389L162.897 148.958L161.863 149.086L156.882 148.595L156.446 148.904L156.215 148.389L155.132 148.027L154.72 146.762L153.867 147.071L153.892 147.433L152.936 146.84L153.867 145.963H154.357V143.536L155.053 142.114L156.112 141.055L157.274 140.644L160.657 140.379Z" fill="#CCCCCC" stroke="white" stroke-width="0.5"/>
<path d="M113.325 79.6732L114.413 77.8054L115.139 78.3741L115.673 78.0456L115.742 77.3544L115.418 77.5505L115.031 77.2416L115.516 76.4572L117.57 77.0063L118.408 77.4965L118.712 78.227L119.438 77.9378L120.717 78.8839L121.428 78.2221L123.595 79.6144L125.228 78.0848L124.404 77.2661L124.571 77.0063L125.865 77.2661L126.497 76.5945L127.542 77.4965L128.096 77.2906L128.532 78.3643L129.071 78.5653L129.88 78.5113L129.89 77.7711L130.606 77.521L131.498 77.9476L131.993 77.3495L132.601 77.9083L132.939 77.6142L132.885 76.7514L132.37 76.7416L131.88 75.9719L131.998 75.266L132.557 74.8689L133.312 74.9424L133.263 75.5405L133.714 76.0454L134.67 74.6532L135.076 74.8493L135.66 74.4473L136.444 75.5895L137.856 76.6337L138.106 77.9868L139.332 77.7171L139.837 77.1338L141.979 77.1191L142.151 76.4131L141.479 76.521L141.219 76.1239L142.018 75.7513L142.817 76.0847L144.249 75.5797L144.626 76.5749L145.381 75.4866L145.818 76.0847L146.489 75.5454L146.818 76.3886L148.651 76.0258L149.185 77.021L148.833 77.2416L148.685 78.1486L149.043 78.6829L149.274 78.3643L149.543 78.5162L149.617 79.2712L150.695 79.6732L150.284 81.894L151.259 82.1636L152.078 83.8402L153.936 84.9824L154.686 84.4873L154.941 84.8942L155.671 84.8207L155.892 85.4433L157.01 85.9776L157.201 87.9729L158.328 87.4385L159.333 87.8258L158.623 90.4241L161.549 90.5662L162.196 90.2721L162.976 91.0467L164.584 91.7918L164.603 95.9932L166.104 97.3217L165.76 98.5571L166.584 99.1061L166.868 100.234L167.584 100.263L168.893 99.4591L169.016 99.8562L169.368 99.7925L170.687 98.312L171.427 98.8855L171.03 99.8464L172.256 100.557L173.83 100.351L174.81 102.028L175.83 101.631L176.055 100.121L177.997 99.0375L178.546 99.062L178.801 99.6013L179.257 98.8512L180.384 98.5277L179.997 97.6207L180.477 96.9393L180.36 97.3903L182.487 96.3706L183.188 96.5324L183.654 97.2825L185.085 98.2384L184.968 99.5032L185.458 100.273L185.615 99.6307L185.277 99.1503L185.566 98.9199L185.875 100.018L186.6 99.6258L186.885 100.866L187.787 101.195L189.507 103.67L190.238 103.66L191.11 102.146L191.699 100.243L192.076 96.9687L196.361 97.0128L196.699 96.3216L197.238 96.3951L197.533 97.0275L198.41 96.8511L200.121 99.7974L200.126 100.714L199.66 101.258L200.16 101.851L200.062 102.332L201.307 102.636L203.107 102.175L202.891 101.871L204.293 102.214L204.317 102.744L204.837 102.91L206.602 102.709L207.337 102.396L207.484 101.905L207.465 101.19L206.906 100.508L208.215 100.018L208.622 100.567L209.985 100.626L211.181 101.391L211.563 101.268L211.666 101.793L212.269 101.994L212.838 101.396L212.637 100.273L212.892 99.8611L215.411 98.4247L216.098 98.9542L217.51 99.1356L217.951 98.6453L219.441 98.4786L219.127 99.1258L219.961 99.5326L219.255 100.234L219.662 100.582L219.824 102.332L220.691 102.381L220.892 102.832L221.412 102.523L222.432 102.778L223.437 101.744L224.025 101.827L224.324 102.454L225.643 100.851L225.04 101.749L226.334 102.023L226.638 100.959L227.182 100.793L227.104 100.018L228.491 99.6797L229.462 101.636L228.324 102.562L228.452 104.053L227.618 105.876L228.04 106.391L227.991 107.058L226.211 109.372L226.54 109.774L226.893 109.651L226.79 110.225L227.535 111.357L226.981 111.499L226.893 112.882L227.78 114.053L227.609 114.313L226.829 114.098L226.491 114.99L226.118 115.122L224.118 115.083L224.236 115.911L225.01 116.049L224.682 116.823L225.407 118.118L226.707 118.47L226.094 118.569L225.515 119.23L225.501 120.882L224.893 121.613L224.476 120.907L224.295 121.422L224.584 121.912L223.819 122.971L224.907 123.652L226.035 123.064L226.251 123.917H227.417L227.452 124.54L227.908 124.486L227.78 124.897L228.417 125.103L227.883 125.432L228.221 125.594L228.025 126.471L227.143 127.236L227.658 127.78L226.839 134.864L227.261 135.472L225.971 135.452L224.074 136.492L223.574 137.34L224.76 138.506L224.961 139.428L224.275 140.212L225.236 140.987L225.148 142.669L226.055 143.223L225.108 145.198L226.104 145.61L225.755 146.154L224.937 146.267L224.907 146.595L225.584 147.09L226.854 146.35L225.535 148.042L224.5 148.488L224.947 148.801L226.682 148.341L227.025 149.571L228.153 149.35L228.442 149.944L229.496 150.145L229.354 151.086L228.77 151.414L225.736 151.184L225.427 152.228L226.893 152.699L226.187 153.248L225.706 153.164L225.854 154.905L224.976 155.135L224.054 153.723L223.304 153.728L222.971 154.601L223.064 155.974L222.559 156.817L220.922 157.292L220.569 158.126L219.172 158.439L218.809 159.194L218.083 159.376L217.206 157.895L216.328 158.219L216.264 157.42L215.392 157.327L215.166 158.542L215.436 159.949L215.009 160.606L214.191 160.194L213.902 160.881L214.323 161.209L214.23 162.464L214.858 162.984L214.421 163.763L211.745 163.494L211.544 162.994L209.823 163.822L209.867 164.283L210.676 164.577L209.931 164.749L210.529 167.504L210.176 167.396L210.156 166.906L208.431 166.612L208.377 165.7L207.082 163.994L205.631 163.847L205.048 162.391L203.562 162.925L203.705 163.984L201.278 163.886L198.018 161.876L197.67 163.391L198.038 163.974L196.773 163.92L196.64 165.268L194.65 165.17L193.317 166.406L195.38 166.93L195.101 166.048L195.518 166.661L196.135 166.499L196.067 167.161L194.567 167.288L194.189 167.93L193.63 166.685L193.248 166.533L193.253 167.47L192.817 167.818L192.532 167.391L191.179 169.136L190.576 169.029L190.115 169.911L189.017 169.254L188.39 169.381L188.194 169.994L187.684 169.989L189.012 170.421L190.179 171.494L190.164 174.681L189.37 175.137L189.336 175.637L188.605 175.5L188.257 176.887L188.38 177.559L189.993 178.186L191.125 179.539L191.16 182.005L190.498 182.324L187.365 182.422L187.37 183.368L186.154 183.441L182.639 183.128L180.918 182.53L180.629 182.049L179.541 182.75L178.487 182.383L178.835 184.02L179.663 184.594L179.462 185.51L181.384 186.638L182.012 186.496L182.247 187.682L183.512 187.148L183.757 187.829L184.223 187.917L184.394 187.211L185.071 187.143L185.791 188.094L186.698 186.618L187.983 187.118L188.13 187.589L187.669 188.859L186.821 189.359L188.096 189.006L187.855 189.417L188.096 190.118L189.297 189.746L189.071 188.854L190.145 189.354L189.704 189.422L189.733 189.815L190.375 189.947L193.302 189.148L194.022 190.153L193.405 191.182L193.969 190.913L194.39 192.045L194.939 192.31L194.366 192.928L194.939 194.81L194.424 195.874L194.792 196.237L194.856 197.781L195.949 199.036L195.209 200.492L194.366 200.418L193.317 199.658L192.464 200.61L191.959 200.257L191.625 200.546L191.12 201.801L192.111 203.924L192.439 204.007L192.861 205.507L192.204 206.365L192.336 206.801L190.64 207.257L190.581 207.943L191.017 208.125L191.797 209.85L190.846 212.145L188.998 213.4L188.831 214.312L188.797 215.336L190.576 215.826L191.924 216.763L192.699 217.787L192.508 217.949L191.385 220.013L191.331 226.112L188.032 229.401L182.899 230.22L182.683 229.112L180.423 229.538L179.987 227.352L175.335 227.955L174.442 228.44L174.864 230.705L174.031 231.186L173.991 232.803H172.991L171.972 233.401L168.672 232.499L165.755 232.794L165.569 231.666L162.726 229.906L161.75 229.877L162.358 227.141L161.647 227.112L161.696 226.215L161.059 226.533L160.863 226.018L159.971 226.95L159.039 226.072L158.941 226.783L158.201 227.082L156.191 226.764L156.068 227.318L153.823 226.872L153.073 228.739L152.691 228.764L152.676 229.244L151.887 229.337L152.794 231.578L152.465 232.2L150.882 233.499L150.46 234.279L149.396 234.804L149.382 235.161L147.705 234.701L147.646 233.524L145.371 233.568L145.21 231.548L144.214 231.641L143.847 229.465L141.459 229.362L141.464 227.94L141.038 227.573L141.405 227.543L141.371 225.244L140.783 225.19L140.65 223.538L139.994 223.577L139.567 222.979L139.518 221.783L140.538 221.773L140.43 219.479L139.925 219.288L140.15 218.449L141.641 217.988L141.224 216.224L140.258 215.773L140.582 214.209L139.758 212.057L137.817 214.723L135.596 213.351L135.175 213.41L134.488 212.395L133.336 212.87L132.013 212.733L130.684 211.003L130.282 207.826L129.762 207.63L129.704 207.978L128.777 207.943L128.978 208.502L127.983 208.238L127.13 206.899L126.875 207.203L125.733 207.012L125.919 206.845L124.331 205.306L123.223 208.311L122.11 208.899L121.659 207.203L119.291 210.64L119.237 209.978L117.242 208.831L116.943 207.816L117.119 207.032L119.771 204.37L119.178 203.997L118.864 203.046L117.957 202.075L117.153 199.997L117.34 199.355L118.055 199.217L118.399 198.614L119.801 198.756L119.61 196.908L119.918 196.604L119.61 196.398L120.198 195.541L121.977 196.09L122.222 195.844L121.634 193.736L120.615 193.663L120.188 191.775L117.943 191.81L116.854 191.07L116.786 190.006L116.144 189.452L115.34 189.604L115.33 188.819L114.849 188.143L113.457 187.633L113.065 186.27L114.442 185.907L114.217 185.197L114.673 184.598L115.604 184.378L115.668 183.26L117.178 183.206L117.712 179.647L117.021 179.534L116.251 176.916L116.639 176.603L117.291 176.789L118.276 175.612L118.698 175.956L119.923 175.255L121.87 175.509L122.222 175.029L124.272 174.622L123.409 172.602L123.267 168.445L122.737 168.607L122.492 167.886L122.115 167.891L121.806 168.553L121.026 167.989L122.708 166.685L122.757 165.038L120.58 163.964L120.825 163.665L119.438 162.405L119.031 161.028L117.546 159.719L117.609 158.988L116.972 158.42L116.075 158.425L116.467 156.738L114.315 156.116L114.192 155.282L112.57 152.522L113.031 152.066L112.393 151.125L113.134 150.512L112.535 149.797L111.825 150.233L111.222 149.635L111.609 149.502L111.29 148.752L112.354 148.62L111.413 146.434L112.771 146.34L113.241 145.625L113.746 146.247L114.849 145.095L116.884 144.375L115.923 142.629L116.776 142.776L117.771 142.409L118.82 141.07L117.452 137.908L115.756 139.261L114.134 139.634L114.913 137.531L114.643 134.648L112.805 135.178L112.021 135.947L111.653 135.786L110.359 136.722L109.133 136.266L109.006 135.3L108.275 134.496L108.437 133.643L107.873 132.53L108.158 132.192L107.555 131.584L107.77 129.947L108.462 129.614L108.452 129.02L107.726 129.011L106.849 129.584L106.187 129.319L105.687 129.795L106.672 130.697L106.452 131.32L103.353 129.599L103.162 128.922L104.496 127.148L104.677 125.996L105.079 125.594L105.402 125.76L105.201 126.383L105.721 126.888L106.819 126.814L107.398 125.878L108.712 125.172L110.398 123.613L111.03 124.103L111.668 123.525L112.408 124.192L112.545 124.858L112.923 124.554L114.408 125.295L115.026 124.956L115.761 125.187L116.56 124.167L116.369 123.809L117.06 123.696L116.854 123.128L117.658 121.819L117.987 121.883L118.654 120.275L119.188 120.235L119.374 119.77L119.811 120.049L120.193 119.598L121.002 119.475L120.865 118.323L122.188 115.294L122.762 115.299L122.522 114.176L123.095 114.132L123.566 113.029L124.84 113.083L126.586 110.818L125.644 110.288L126.267 109.989L126.071 109.661L126.85 107.925L126.37 107.308L126.483 106.087L125.84 106.185L126.041 105.514L125.453 105.259L125.497 104.386L125.885 103.95L125.37 103.371L127.169 104.107L127.135 102.077L128.292 102.101L128.444 101.474L127.243 101.013L127.208 98.9346L127.723 98.0227L126.38 98.3561L126.203 97.9492L125.556 97.807L124.884 98.4296L124.634 97.7923L123.992 97.4295L123.781 95.9L122.801 94.0518L123.242 92.2968L123.002 91.3212L121.379 90.6447L119.281 87.1248L118.526 86.463L117.32 86.6051L116.693 87.0905L116.109 86.8404L115.413 87.2817L115.648 86.6934L115.173 84.8746L115.702 84.4432L115.727 83.4137L116.354 83.0264L113.261 80.1781L113.325 79.6732ZM160.657 140.379L161.863 141.036L162.628 140.693L162.456 141.33L163.147 141.762L163.976 141.605L164.52 141.036L165.657 141.217L165.917 140.806L166.383 140.933L166.01 142.722L163.986 143.747L164.657 146.032L164.167 147.35L165.755 148.512L165.991 146.86L168.158 146.963L168.878 147.738L167.795 148.566L167.746 149.395L166.765 149.6L165.452 148.669L164.961 149.341L165.118 150.091L163.932 150.659L163.672 150.375L163.981 149.86L163.388 149.448L163.981 149.037L163.672 148.39L162.897 148.958L161.863 149.086L156.882 148.595L156.446 148.904L156.215 148.39L155.132 148.027L154.72 146.762L153.867 147.071L153.892 147.434L152.936 146.84L153.867 145.963H154.357V143.536L155.054 142.115L156.113 141.056L157.274 140.644L160.657 140.379ZM177.153 145.169L177.943 146.149L177.266 146.659L176.08 145.031L177.153 145.169ZM172.109 146.586L171.756 146.551L171.731 145.693L172.349 146.056L172.109 146.586ZM160.75 151.184L160.054 149.772L160.397 149.272L160.775 149.395L161.034 150.772L160.75 151.184Z" fill="#CCCCCC" stroke="white" stroke-width="0.5"/>
</svg>
