<svg width="371" height="302" viewBox="0 0 371 302" fill="none" xmlns="http://www.w3.org/2000/svg">
<path d="M230.68 8.52591L229.206 9.2284L229.275 11.8271L227.104 10.879L227.457 9.24314L228.376 10.2207L229.187 9.02699L228.41 8.50626L230.68 8.52591ZM214.749 1L220.187 3.93766L220.619 7.38131L218.576 9.21857L219.273 12.9471L220.831 12.8243L219.76 13.6938L213.919 11.3997L213.766 13.9837L222.663 14.809L224.706 13.5563L227.772 17.1768L235.75 9.39542L236.064 5.81423L238.167 3.18114L239.763 5.26403L242.917 5.46053L245.422 11.4537L242.308 17.3389L248.06 24.2999L248.321 29.3057L251.008 30.1162L254.574 28.4558L258.426 31.0005L257.021 36.6253L258.121 37.6176L256.117 39.8577L255.915 43.8319L260.351 49.3977L260.484 54.4134L257.826 57.071L255.125 56.0541L253.95 58.6676L251.411 58.9869L250.635 59.1244L247.923 59.2914L244.587 64.1155L236.639 65.7857L236.408 68.4532L233.647 71.9116L232.164 70.261L229.192 71.5775H228.745L225.64 73.8668L217.967 75.4731L215.481 71.2631L212.538 73.4296L209.89 73.1888L206.452 77.3251L207.4 74.9328L205.194 73.3706L197.683 75.537L197.108 78.1897L195.561 78.509L192.436 76.4655L190.506 78.2536L186.694 75.8612L185.692 78.4501L183.132 76.3132L177.62 77.841L177.075 75.5517L175.508 75.0359L176.206 72.5502L172.708 74.6871L173.022 73.0955L166.695 70.6393L162.785 71.5039L162.067 70.5508L160.157 72.1277L158.054 71.0077L158.791 68.3402L157.671 67.8391L156.551 61.787L160.058 58.643L163.546 59.7385L169.834 58.0093L171.48 53.5586L171.411 49.2553L170.207 48.6608L170.905 46.4404L168.822 45.8018L167.456 38.5559L170.522 34.002L166.538 31.2609L165.555 25.2529L162.47 23.4844L160.466 20.2618L171.809 19.7755L172.546 22.6444L176.436 23.1454L181.044 21.7847L176.515 13.1829L177.719 10.0635L175.95 9.20875L185.009 4.41908L191.228 3.79029L192.117 5.18052L190.471 8.77645L190.987 12.7506L194.799 11.3309L200.935 12.8145L203.715 12.2496L203.544 9.48385L206.019 8.35398L211.703 1.08351L214.749 1Z" fill="#CCCCCC" stroke="white" stroke-width="0.5"/>
<path d="M149.369 121.488L154.616 117.902L156.954 121.473L159.661 121.169L163.453 124.121L164.878 122.539H169.113L169.874 119.439L171.873 119.965L170.871 118.206L171.864 117.273L173.46 119.891L175.514 119.936V118.054L187.038 114.036L186.955 116.006L190.079 118.221L190.143 116.517L194.825 115.313L196.814 112.768L197.634 116.202L200.533 115.976L202.557 114.016L200.837 111.501L201.334 107.463L206.133 108.942L207.916 107.974L208.299 109L209.208 107.026L212.583 106.333L215.585 107.581L217.628 110.838L219.795 110.975L219.814 112.901L225.847 112.046H226.574L226.564 114.905L228.347 115.903L233.776 111.85L237.362 114.832L237.028 117.47L234.783 118.747L237.062 121.92L235.564 123.173L235.662 127.697L233.864 131.141L230.784 130.419L228.504 133.425L225.758 133.185L225.901 134.221L215.069 137.36L215.437 139.04L213.404 137.345L210.864 139.252L209.945 135.995L207.975 136.353L207.145 138.456L203.303 136.609L202.463 138.696L203.78 142.641L201.442 143.574L197.266 142.209L194.81 143.363L195.085 146.35L188.817 148.674L187.765 146.542L185.319 146.949L184.459 148.325L184.754 143.751L182.863 144.37L179.232 142.779L174.069 143.181L171.598 145.957L171.893 142.341L168.808 142.371L165.988 138.353L163.483 138.318L164.068 135.091L159.003 133.936L159.42 130.507L157.175 128.208L153.486 132.688L149.964 132.629L148.52 129.549L148.785 122.132L150.593 121.65L149.369 121.488Z" fill="#CCCCCC" stroke="white" stroke-width="0.5"/>
<path d="M180.588 92.5195L180.971 92.8044L181.649 95.3589L180.244 97.0488L183.811 99.4215L185.25 103.843L182.921 105.336L183.295 106.407L184.813 106.574L186.625 108.534L185.27 108.652L184.027 109.183L176.555 112.661L171.701 111.035L169.034 105.459L166.808 106.122L163.571 104.491L163.33 104.732L163.271 104.55L164.239 103.297L164.514 101.942L166.971 101.819L166.725 97.1863L168.326 94.8136L169.972 93.2907L170.498 92.9862L171.863 92.0184L172.477 91.8858L176.029 92.5342L178.068 90.2646L179.306 91.1735L180.283 91.8366L180.588 92.5195Z" fill="#CCCCCC" stroke="white" stroke-width="0.5"/>
<path d="M88.1648 112.288L91.4316 113.81L95.6858 112.798L96.0002 117.451L102.539 117.677L103.944 119.165L104.469 119.332L108.999 111.59L112.143 110.126L112.536 112.312L116.79 110.264L116.323 111.772L118.367 115.314L121.786 114.965L124.483 116.262L128.393 114.817L129.94 117.632L129.376 121.037L131.468 123.896L135.531 124.21H136.17L144.702 122.314L145.543 123.4L148.018 120.3V120.649L149.374 121.494L150.597 121.661L148.79 122.142L148.524 129.555L149.969 132.635L153.496 132.694L157.185 128.214L159.43 130.513L159.008 133.937L164.072 135.091L163.488 138.319L165.993 138.348L168.813 142.372L171.898 142.342L171.603 145.958L174.079 143.182L179.237 142.779L182.868 144.371L184.759 143.757L184.464 148.33L185.324 146.95L187.77 146.547L188.821 148.674L195.09 146.351L193.238 152.108V152.604L193.611 154.176L196.573 152.648L195.807 153.562L197.099 156.559L194.422 161.378L198.799 163.893L197.487 167.14L195.699 167.74L197.649 169.685L196.092 170.417L195.252 173.777L196.563 178.375L189.406 179.972L187.981 178.061L185.967 178.09L183.722 181.568L178.382 180.674L177.916 182.929L175.229 183.602L174.187 186.048L171.318 185.778L167.354 188.996L172.851 193.275L174.924 190.936L175.852 191.472H176.791L178.147 192.454L178.068 192.96L177.876 195.402H177.542L177.763 199.631L174.526 201.955L178.206 208.719L176.791 210.876L177.248 219.458L179.046 220.082L179.502 227.156L182.376 233.159L181.241 235.542L173.416 233.852L169.422 231.469L158.516 233.41L158.241 231.322L153.491 230.049L155.412 226.846L152.926 224.105L155.22 219.846L158.384 219.669L161.921 216.717L158.767 211.353L159.032 207.251L154.572 207.177L154.685 208.218L152.169 207.147L154.709 202.746L154.297 195.333L156.409 194.842L161.027 189.389L159.813 186.51L156.89 186.019L155.402 183.961L154.208 186.078L155.869 188.568L153.039 188.613L151.059 181.829L149.07 180.276L147.178 180.723L142.227 173.541L138.636 175.978L137.353 175.172L136.857 176.189L136.779 175.113L130.51 178.321L125.549 174.573L123.255 174.499L122.125 175.83L121.486 174.249L115.734 174.71L114.417 175.889L114.014 180.37L112.035 179.279L112.875 181.352L111.946 181.593L108.65 177.176L107.186 171.964L108.773 166.988L107.338 159L102.362 153.1L99.9449 153.926L98.5498 152.442L92.0407 154.422L91.6035 152.712L93.7847 148.979L89.5698 147.539L86.9514 151.543L85.9689 150.959L80.1378 153.837L78.7427 151.921L72.0617 148.866L70.8581 146.724L70.868 138.245L67.0755 128.828L69.5612 126.062L68.3773 124.136L69.124 122.27L62.6543 118.914L63.2487 117.288L61.1855 114.051L65.2383 112.514L69.2911 114.67L73.4667 114.144L75.2548 119.234L78.6297 121.042L83.0656 115.5L85.7233 115.107V114.518L88.1648 112.288ZM31.1064 121.395L31.7745 120.521L29.0137 117.131L30.0158 116.301L29.107 114.842L31.6566 113.363L32.4966 114.194L32.5261 113.108L34.1816 114.42L36.7115 113.801L36.6526 112.656L40.4843 111.285L38.2197 108.299L44.3062 105.749L45.6817 106.894L45.0873 109.925L47.0867 110.347L46.0845 111.403L42.0514 114.749L38.4849 115.756L39.0892 117.745L35.6308 123.493L31.1064 121.395Z" fill="#CCCCCC" stroke="white" stroke-width="0.5"/>
<path d="M301.641 105.562L302.407 109.993L300.648 113.643L303.679 115.254L304.146 115.313L305.458 114.095L306.671 114.998L306.804 115.421H310.464L313.912 120.373L317.705 119.906L319.778 120.992L322.455 117.165L320.706 114.016L323.079 114.694L327.328 112.92L329.175 114.321L332.968 114.065L335.031 115.721L334.839 119.577L335.424 118.142L342.218 119.046L348.565 129.741L347.214 130.989L348.638 132.6L347.99 133.484L349.96 132.492L356.744 133.469L354.317 139.084L352.578 138.922L347.877 143.815L348.093 146.109L349.783 146.885L349.061 148.433L350.913 149.288L352.642 153.124L356.857 151.641L364.53 154.112L363.558 158.081L366.554 159.26L366.977 162.016L363.612 170.436L369.919 177.127L369.634 179.038L365.621 180.246L365.503 181.784L362.742 178.993L360.345 179.558L357.746 187.256L351.561 188.73L349.822 191.638L347.857 191.982L346.949 194.124L349.243 199.798L344.969 200.883L343.726 204.111L345.725 205.85L344.35 207.682L341.786 206.788L342.989 204.857L341.864 202.269L338.794 201.537L338.651 203.772L336.848 204.214L333.999 202.622L333.37 199.724L334.274 196.359L332.27 196.403L331.985 180.202L329.421 179.244L329.038 177.829L317.886 175.275L316.801 178.276L318.52 180.231L316.226 185.183H316.732L319.655 185.409L315.902 188.194L312.984 187.674L312.63 189.147L311.839 187.6L308.754 187.138L304.632 188.091L307.015 182.201L304.785 182.157L302.712 177.991L304.431 173.781L299.676 173.958L300.103 172.165L295.937 171.762L292.125 167.641L286.736 168.623L284.383 163.765L280.188 166.398L275.649 163.077L274.303 165.622H275.811L276.548 167.326L273.08 170.657L269.086 169.311L263.908 172.779L262.361 170.853L262.911 168.49L257.934 167.027L256.652 165.066L257.984 161.819L254.368 155.669L251.023 157.226L249.819 155.084L250.797 154.303L248.188 153.856L247.726 152.014L248.93 150.634L246.552 151.891L244.46 150.334L244.258 147.951L238.81 147.563L240.476 146.394L239.94 143.407L237.98 139.237L233.367 134.761L233.863 131.141L235.661 127.697L235.563 123.173L237.061 121.92L234.782 118.747L237.027 117.469L237.361 114.831L239.891 116.384L239.655 118.761L242.092 121.336L245.064 121.036L251.263 123.035L252.727 121.714L251.504 120.161L252.143 118.747L257.458 119.724L258.259 118.309L260.17 120.058L261.869 118.084L264.557 119.906L268.811 115.465L272.441 115.18L275.384 119.543L278.184 119.395L279.52 116.61L281.003 118.82L285.493 116.084L285.734 113.549L286.275 113.824L293.663 111.064L297.819 106.48L300.889 106.691L301.105 105.547L301.641 105.562Z" fill="#CCCCCC" stroke="white" stroke-width="0.5"/>
<path d="M310.321 112.061L312.709 113.913L316.187 112.631L316.663 114.154L320.048 111.924L320.706 114.017L322.455 117.165L319.778 120.987L317.705 119.902L313.912 120.368L310.464 115.417H306.804L306.671 114.994L305.458 114.09L304.146 115.309L303.68 115.25L300.649 113.638L306.087 113.275L308.828 109.959L310.321 112.061ZM286.545 34.965L288.667 36.9595L289.05 43.4194L297.696 47.0841L298.315 49.0147L308.524 49.2259L309.644 54.0893L314.114 51.6429L317.007 55.2585L312.679 59.2818L314.811 62.3177L311.363 63.3051L311.776 67.8688L309.28 67.687L307.782 72.01L309.511 73.6311L308.563 77.4776L304.235 82.8518L304.972 83.9719L307.133 83.2448L307.737 84.7137L304.441 90.8837L302.226 90.7167L300.202 95.1428L296.989 96.5773L297.411 103.234L301.12 105.543L300.899 106.687L297.834 106.476L293.678 111.059L286.29 113.815L285.744 113.545L285.504 116.075L281.014 118.816L279.53 116.601L278.194 119.386L275.394 119.538L272.451 115.171L268.821 115.456L264.567 119.897L261.88 118.074L260.18 120.044L258.269 118.3L257.468 119.715L252.143 118.747L251.504 120.162L252.728 121.714L251.264 123.041L245.059 121.041L246.901 117.052L245.172 116.163L245.767 113.8L246.562 112.774L245.924 109.399L249.996 105.99L249.318 105.96L247.854 105.159L248.439 100.09L250.188 95.4818L252.31 95.7667L253.199 91.7483L251.391 90.25L248.39 90.3237L248.095 89.071L246.145 89.8128L244.165 90.9329L242.863 89.0563L241.63 89.7686L239.528 85.8681L242.76 83.235L243.075 79.3443L247.432 77.62L246.572 74.0585L247.624 73.528L247.825 74.8298L250.527 73.5132L246.675 69.6324L243.045 70.0892L243.36 73.5918L240.952 74.9575L239.606 73.4592L237.646 74.1567L236.374 71.2191L233.633 71.9167L236.394 68.4583L236.625 65.7908L244.573 64.1206L247.908 59.2965L250.62 59.1295L251.396 58.9919L253.936 58.6726L255.11 56.0592L257.812 57.0761L260.47 54.4184L260.337 49.4028L255.901 43.8369L256.102 39.8628L258.107 37.6227L267.49 37.377L268.438 35.5201L275.271 37.3476L281.824 31.541L284.737 32.3024L286.545 34.965Z" fill="#CCCCCC" stroke="white" stroke-width="0.5"/>
<path d="M273.079 170.657L276.547 167.326L275.81 165.622H274.302L275.648 163.077L280.187 166.398L284.383 163.765L286.736 168.623L292.125 167.641L295.937 171.762L300.102 172.165L299.675 173.958L304.43 173.781L302.711 177.991L304.784 182.157L307.014 182.201L304.632 188.091L308.753 187.138L311.838 187.6L312.629 189.148L312.983 187.674L315.901 188.195L319.654 185.409L316.731 185.183H316.225L318.519 180.232L316.8 178.276L317.886 175.275L329.037 177.829L329.42 179.244L331.984 180.202L332.269 196.403L334.274 196.359L333.37 199.724L327.824 201.257L327.283 207.398L321.192 210.311L320.278 215.375L317.114 218.166L318.564 219.993L317.63 222.651L313.74 225.068L315.405 229.779L312.516 232.387L309.564 232.761L308.321 239.348L305.703 241.893L310.36 244.909L309.451 246.624L307.594 245.872L308.1 248.161L306.803 248.682L307.884 249.596L306.189 251.236L307.511 257.912L310.748 257.279L314.732 264.372L314.354 268.017L318.013 267.546L319.978 270.007L318.013 274.792L322.351 276.663L321.919 280.579L320.096 280.888L318.917 284.843L316.417 286.68L316.79 287.962L318.519 287.874L318.529 289.883L315.719 292.938L313.376 294.073L307.928 291.632L306.651 294.982L297.455 293.145L294.198 296.495L293.785 299.619L291.933 297.36L288.548 296.289L287.109 298.224L281.745 299.384L280.531 301L278.394 297.979L280.015 296.642L279.893 294.864L277.638 292.968L278.881 290.752L277.264 290.355L276.405 286.592L268.712 281.458L267.739 283.507L265.366 284.356L264.629 281.664L267.042 278.059L261.736 272.39L260.847 271.771L258.572 273.451L254.991 271.918L251.243 272.272L250.85 268.975L247.519 269.314L244.346 262.029L241.477 262.206L236.117 259.15L234.904 256.522L232.35 256.301L234.187 253.01L234.329 248.697L240.848 244.246L239.497 242.826L242.283 239.997L246.837 238.43L244.754 236.357L245.127 232.893L241.143 229.337L236.26 229.931L236.432 227.47L232.821 222.754L234.29 222.975L235.106 220.44L236.471 221.403L239.414 219.119L239.841 215.763L241.133 215.69L240.386 214.039L241.698 208.827L242.681 213.253L254.598 212.732L261.161 210.237V209.643L258.602 207.221L262.615 205.02L262.291 203.399L258.793 199.218L259.432 198.368L257.772 197.966L258.956 196.566L255.257 194.959L260.036 193.353L259.422 191.697L262.139 190.341L263.583 191.368L265.312 190.489L273.108 184.23L272.583 180.094L270.308 179.814L268.751 181.646L268.186 180.29L273.128 177.112L271.856 174.828L273.747 172.421L273.079 170.657Z" fill="#CCCCCC" stroke="white" stroke-width="0.5"/>
<path d="M195.085 146.35L194.809 143.363L197.266 142.209L201.441 143.575L203.78 142.641L202.463 138.696L203.303 136.609L207.145 138.456L207.975 136.353L209.945 135.995L210.863 139.252L213.403 137.346L215.437 139.04L215.068 137.36L225.9 134.221L225.758 133.185L228.504 133.425L230.783 130.419L233.864 131.141L233.367 134.762L237.98 139.237L239.94 143.408L240.476 146.394L238.81 147.563L244.258 147.952L244.46 150.334L246.553 151.891L248.93 150.634L247.727 152.014L248.188 153.856L250.797 154.303L249.819 155.084L251.023 157.226L254.368 155.669L257.984 161.819L256.653 165.067L257.935 167.027L262.911 168.491L262.361 170.854L263.908 172.779L269.086 169.311L273.08 170.657L273.748 172.421L271.857 174.828L273.129 177.112L268.187 180.29L268.752 181.646L270.309 179.814L272.584 180.094L273.109 184.23L265.313 190.489L263.584 191.368L262.14 190.341L259.423 191.697L260.037 193.353L255.257 194.959L258.957 196.565L257.773 197.965L259.433 198.368L258.794 199.218L262.292 203.399L262.616 205.02L258.603 207.221L261.162 209.642V210.237L254.599 212.732L242.681 213.253L241.699 208.827L240.387 214.039L241.134 215.69L239.842 215.763L239.415 219.119L236.472 221.403L235.106 220.44L234.291 222.975L232.822 222.754L236.433 227.47L236.261 229.931L241.144 229.337L245.128 232.893L244.755 236.356L246.837 238.43L242.284 239.997L239.498 242.826L240.849 244.246L234.33 248.697L234.188 253.01L232.351 256.301L228.548 258.428L221.135 257.544L223.361 253.629L220.713 246.668L222.015 246.624L224.643 240.34L220.733 234.613L215.344 233.144L215.211 231.572L215.525 229.543L217.942 227.794L218.085 223.137L220.138 221.3L218.124 217.306L219.843 216.982L221.086 211.873L223.086 213.892L222.673 209.181L225.404 206.656L223.542 204.244L219.603 204.052L218.763 201.94L212.666 206.67L211.463 210.369L206.044 214.324L204.747 217.07L206.609 219.354L205.131 223.108L205.961 227.558L196.922 228.86L191.503 231.454L189.917 234.21L181.226 235.526L182.366 233.144L179.487 227.141L179.031 220.067L177.233 219.443L176.776 210.861L178.19 208.709L174.511 201.94L177.748 199.621L177.532 195.391H177.866L178.058 192.95L178.132 192.444L176.776 191.456H175.837L174.914 190.921L172.841 193.259L167.344 188.985L171.308 185.763L174.177 186.033L175.218 183.587L177.901 182.919L178.372 180.664L183.712 181.558L185.957 178.08L187.976 178.05L189.401 179.961L196.558 178.365L195.247 173.767L196.087 170.406L197.644 169.67L195.699 167.729L197.482 167.13L198.793 163.883L194.416 161.372L197.094 156.553L195.802 153.557L196.568 152.643L193.606 154.171L193.233 152.599V152.103L195.085 146.35Z" fill="#CCCCCC" stroke="white" stroke-width="0.5"/>
<path d="M162.45 23.4697L165.535 25.2382L166.522 31.2462L170.507 33.9923L167.436 38.5461L168.807 45.792L170.89 46.4306L170.192 48.6511L171.396 49.2455L171.46 53.5439L169.819 57.9946L163.531 59.7287L160.043 58.6332L156.535 61.7772L157.655 67.8294L158.771 68.3305L158.034 70.9979L160.136 72.118L162.047 70.546L162.764 71.499L162.411 74.3188L161.025 74.9083L162.067 76.8929L158.761 79.6488L157.729 79.6783L155.16 78.74L153.657 81.9331L154.929 86.261L155.415 87.381L153.141 89.5425L148.931 87.3172L149.398 90.8738L147.123 92.2788L148.459 93.8508L147.914 95.8403L143.807 101.549L146.455 102.123L145.811 108.927L141.361 111.939L139.735 110.705L138.541 112.572L135.014 111.02L133.373 113.643L135.284 117.632L132.513 118.099L131.668 118.055L129.929 117.632L128.382 114.817L124.477 116.261L121.78 114.969L118.361 115.313L116.312 111.771L116.784 110.268L112.529 112.317L112.136 110.131L108.992 111.595L104.463 119.337L103.938 119.17L102.533 117.676L95.999 117.45L95.6846 112.798L91.4304 113.81L88.1636 112.287L94.088 106.51L91.9855 103.72L93.1792 102.03L87.5053 97.1421L89.9861 92.6227L88.1832 91.085L85.5993 92.5932L84.0224 91.537L85.7172 89.5278L84.9803 87.6954L87.4464 87.6807L86.2428 86.0498L88.2864 85.7157L83.8357 83.6132L86.7095 82.2524L85.0491 79.9485L87.4955 76.1806L85 71.1797H85.5747L86.9306 69.9221L85.8989 68.92L75.9512 62.0965L80.0482 59.3652L83.5262 52.753L81.1191 48.8328L78.6825 47.9977L80.9865 46.3078L79.3064 42.5645L82.2637 41.1203L80.7163 35.407L85.2112 39.9609L94.6431 39.7791L93.5329 33.5059L95.6551 33.9775L98.0131 32.3318L99.9044 33.5354L100.769 30.6223L110.741 35.2105L118.587 37.1313L120.316 38.3201L119.888 44.5148L126.309 45.0158L129.08 43.2031L129.035 46.6566L132.931 43.66L133.678 44.8488L135.844 44.2249L141.258 39.8234L145.669 40.01L155.857 32.3613L162.45 23.4697Z" fill="#CCCCCC" stroke="white" stroke-width="0.5"/>
<path d="M233.632 71.9064L236.373 71.2088L237.645 74.1465L239.605 73.4489L240.951 74.9472L243.358 73.5815L243.044 70.0789L246.674 69.6221L250.526 73.5029L247.824 74.8195L247.622 73.5177L246.571 74.0482L247.431 77.6098L243.073 79.334L242.759 83.2247L239.527 85.8578L241.629 89.7583L242.862 89.046L244.164 90.9226L246.144 89.8025L248.094 89.0607L248.389 90.3134L251.39 90.2397L253.198 91.738L252.309 95.7564L250.187 95.4715L248.438 100.079L247.853 105.149L249.317 105.95L249.995 105.979L245.923 109.389L246.561 112.763L245.765 113.79L245.171 116.153L246.9 117.042L245.058 121.031L242.086 121.331L239.649 118.757L239.89 116.379L237.355 114.827L233.774 111.845L228.346 115.898L226.558 114.905L226.567 112.041H225.84L219.813 112.901L219.793 110.97L217.622 110.833L215.578 107.576L212.577 106.323L209.202 107.016L208.293 108.991L207.91 107.964L206.122 108.927L201.327 107.448L200.831 111.486L202.55 114.001L200.526 115.961L197.633 116.187L196.813 112.754L194.823 115.298L190.141 116.502L190.073 118.202L186.948 115.986L187.037 114.011L175.512 118.035V119.916L173.459 119.872L171.862 117.253L170.87 118.187L171.872 119.95L169.873 119.425L169.106 122.525H164.872L163.447 124.106L159.655 121.159L156.948 121.459L154.605 117.892L149.358 121.473L148.002 120.628V120.28L145.526 123.379L144.686 122.294L136.153 124.19H135.515L131.452 123.875L129.359 121.016L129.924 117.612L131.663 118.035L132.503 118.079L135.274 117.612L133.363 113.623L135.009 111L138.536 112.552L139.73 110.685L141.356 111.923L145.806 108.907L146.445 102.103L143.797 101.529L147.904 95.8203L148.449 93.8258L147.113 92.2539L149.388 90.8489L148.921 87.2972L153.136 89.5176L155.41 87.3561L154.924 86.2361L153.652 81.9082L155.15 78.7151L157.719 79.6533L158.751 79.6239L162.057 76.868L161.015 74.8833L162.401 74.2938L162.754 71.4741L166.665 70.6095L172.992 73.0657L172.678 74.6574L176.175 72.5204L175.478 75.0061L177.045 75.522L177.59 77.8112L183.102 76.2834L185.661 78.4203L186.663 75.8314L190.475 78.2238L192.406 76.4357L195.53 78.4793L197.078 78.16L197.653 75.5072L205.164 73.3408L207.369 74.903L206.421 77.2954L209.86 73.1591L212.508 73.3998L215.451 71.2334L217.936 75.4434L225.61 73.837L228.714 71.5478H229.161L232.133 70.2312L233.632 71.9064ZM172.476 91.8854L171.862 92.023L170.496 92.9907L169.971 93.2953L168.325 94.8231L166.719 97.1958L166.969 101.828L164.513 101.951L164.238 103.307L163.275 104.56L163.334 104.741L163.575 104.501L166.812 106.132L169.037 105.468L171.705 111.049L176.558 112.675L184.03 109.192L185.273 108.666L186.629 108.544L184.811 106.584L183.293 106.417L182.92 105.346L185.254 103.852L183.809 99.431L180.243 97.0583L181.648 95.3684L180.97 92.8139L180.282 91.8461L179.309 91.1829L178.067 90.2741L176.033 92.5388L172.476 91.8854Z" fill="#CCCCCC" stroke="white" stroke-width="0.5"/>
<path d="M79.4836 21.1807L81.0065 26.383L78.5994 29.2961L80.2303 31.2807L79.3804 31.8751L80.7166 35.4072L82.2641 41.1204L79.3068 42.5647L80.9868 46.308L78.6829 47.9979L81.1195 48.833L83.5266 52.7531L80.0485 59.3653L75.9515 62.0967L85.8993 68.9201L86.9309 69.9223L85.5751 71.1798H85.0003L87.4959 76.1807L85.0494 79.9486L86.7099 82.2526L83.8361 83.6133L88.2868 85.7159L86.2432 86.0499L87.4467 87.6808L84.9807 87.6956L85.7175 89.5279L84.0227 91.5371L85.5996 92.5933L88.1836 91.0852L89.9865 92.6228L87.5057 97.1423L93.1796 102.03L91.9859 103.72L94.0884 106.51L88.164 112.287L85.7077 114.488V115.073L83.0501 115.466L78.6141 121.007L75.2441 119.199L73.456 114.11L69.2804 114.636L65.2276 112.484L61.1748 114.017L58.5761 108.913L56.2279 109.453L54.8967 108.323L52.185 111.595L49.9498 110.401L47.4543 112.061L46.0886 111.413L47.0907 110.357L45.0963 109.934L45.6858 106.903L44.3103 105.759L38.2237 108.308L40.4884 111.29L36.6566 112.661L36.7156 113.81L34.1808 114.424L32.5302 113.113L32.5007 114.198L31.6607 113.373L29.1062 114.847L30.015 116.311L29.0128 117.136L31.7736 120.526L31.1055 121.395L29.6023 119.062L26.8317 120.118L24.1397 118.477L23.2603 114.788L17.9156 108.505L17.8026 105.847L13.4943 105.351L12.615 104.084L9.43171 105.533L7.5797 100.144L6.01754 99.9178L7.22601 97.5795L6.90669 92.5933L6.69055 90.2845L5.13329 89.3314L9.10748 85.1411L6.74458 78.6468L3.55639 76.785L0.6875 63.6588L21.7473 51.8738L51.4481 31.2316L61.7299 26.7956L60.3839 23.578L61.9805 21.8045L60.8408 23.0572L62.3342 24.9191L63.69 24.0496L62.0198 26.157L62.9826 25.3612L63.1349 27.0265L63.7932 25.1499L64.7314 25.7738L64.0928 24.7373L65.6943 25.1499L65.0065 22.8313L64.2746 23.3029L65.4192 22.2319L63.1644 21.6817L65.5322 22.2663L66.0136 25.2236L79.4836 21.1807Z" fill="#CCCCCC" stroke="white" stroke-width="0.5"/>
</svg>
