<svg width="527" height="302" viewBox="0 0 527 302" fill="none" xmlns="http://www.w3.org/2000/svg">
<path d="M130.794 187.573L132.114 188.216L135.227 186.046L136.677 188.01L139.078 186.286L139.73 187.676L141.171 187.521L140.587 188.37L143.735 189.091L145.107 187.067L147.097 187.864L147.594 186.346L148.795 186.998L150.098 184.537L149.695 183.165L150.784 183.439L151.994 182.067L154.635 182.444L154.575 185.78L156.822 185.832L157.216 184.948L158.657 185.935L158.357 184.665L160.544 185.686L164.163 184.76L165.209 185.429L166.547 181.758L170.243 181.338L172.173 183.928L172.696 183.319L174.9 184.58L174.694 186.055L175.415 185.343L177.405 186.072L178.991 184.082L181.075 184.82L180.501 182.256L182.087 184.245L183.365 183.379L185.012 185.489L185.998 183.782L192.43 185.489L194.677 183.971L194.119 187.024L198.142 186.878L199.119 188.782L199.368 186.929L201.898 184.631L206.014 183.405L204.925 181.149L205.526 177.607L206.829 177.847L206.546 176.655L208.09 176.106L208.467 174.691L209.393 176.638H209.994L212.035 176.99L214.513 180.18L215.319 178.671L216.966 178.851L218.064 182.839L220.079 183.928L220.842 183.696L221.254 183.208L222.043 186.286L219.222 186.261L218.784 187.401L221.323 191.14L220.182 192.212L220.791 194.339L218.784 197.744L219.865 198.147L217.832 203.867L221.331 206.346L219.067 209.047L224.873 215.925L225.851 216.131L228.827 213.395L231.348 216.345L234.598 216.603L234.307 219.03L232.334 218.55L234.178 219.99L236.074 219.21L237.326 222.289H238.072L239.35 222.889L241.288 220.513L246.365 222.683L246.056 224.175L247.162 223.009L252.994 222.846L253.68 225.625L252.608 228.781L259.383 234.527L260.713 232.76L262.762 234.364L265.481 234.39L266.579 232.983L268.019 233.678L268.671 232.451L270.464 233.249L270.892 234.741L269.606 234.844L272.402 236.088L271.707 236.748L273.165 238.154L272.273 238.48L272.762 239.595L269.392 239.381L269.486 241.208L268.405 241.585L269.023 243.36L267.265 244.003L267.908 245.418L264.323 248.72L264.838 249.689L265.935 248.617L267.136 249.115L267.17 251.233L271.467 252.434L270.97 253.6L271.947 254.475L270.489 255.238L269.898 256.833L270.712 256.945L269.177 257.416L268.44 259.252L266.424 258.651L265.378 255.933L262.839 254.106L261.879 254.886L259.495 254.149L254.958 250.581L249.572 250.753L248.14 249.029L246.802 253.892L243.938 253.12L241.211 255.118L238.972 255.204L239.65 252.965L238.166 250.71L238.621 249.226L231.743 248.497L231.194 246.576L226.194 246.636L226.314 249.398L224.65 252.031L225.859 259.68L225.259 263.154L224.264 263.325L225.285 266.962L224.324 267.004L222.875 272.201L224.95 274.414L224.642 275.623L223.046 276.858L217.806 275.452L217.232 274.251L211.717 274.414L211.615 279.714L205.32 285.186L204.179 289.474L204.857 295.254L203.33 297.458L200.483 297.518L199.214 294.242L197.344 294.628L196.349 292.038L192.473 294.885L191.203 293.659L187.919 293.402L185.38 289.765L183.365 290.374L184.265 292.493L182.31 296.738L178.965 296.189L179.12 298.642L176.684 298.359L174.84 301L174.111 299.611L170.021 297.578L167.714 298.033L163.803 296.206L159.163 295.649L157.945 296.643L156.385 296.292L156.427 295.4L154.146 295.949L154.275 294.594L152.191 293.856L152.611 292.055L151.239 292.278L149.764 290.794L150.879 289.182L153.057 289.191L153.58 286.695L151.608 286.403L149.206 282.69L145.57 282.098L139.181 275.778L134.413 274.98L134.567 272.219L132.869 268.488L130.639 267.828L128.641 261.867L126.926 262.845L123.504 262.579L119.705 255.675L120.262 254.492L118.615 255.787L116.437 251.953L114.139 252.254L113.041 250.135L113.624 246.173L115.777 242.494L117.037 243.18L118.281 241.859L117.818 237.992L116.411 236.036L117.758 235.625L117.106 233.463L117.929 231.774L117.063 231.165L120.296 232.366L122.458 229.613L125.245 229.141L124.516 228.858L125.073 226.311L127.192 225.333L125.09 222.417V221.92L125.596 220.265L126.454 220.522L126.111 219.527L127.655 219.707L127.929 217.966L126.24 217.932L125.691 215.394L127.783 215.565L128.418 213.867L127.234 213.104L127.432 211.68L131.299 210.008L131.059 208.018L132.706 205.291L130.253 201.2L130.631 198.447L132.466 197.015L130.733 194.871L131.094 191.063L129.49 190.806L129.773 189.905V189.477L130.794 187.573Z" fill="#CCCCCC" stroke="white" stroke-width="0.5"/>
<path d="M431.865 265.846L428.108 267.57L427.491 269.217L424.017 270.323L421.642 270.46L416.719 266.867L412.371 270.563L409.85 270.632L406.496 267.004L405.304 267.33L403.203 265.237L396.745 263.299L393.589 266.85L390.202 268.599L388.495 273.813L385.039 276.172L381.643 282.475L382.398 284.233L379.293 287.338L379.696 289.799L377.02 293.461L375.28 292.732L375.957 290.408L374.002 281.601L372.261 280.957L371.3 282.312L368.693 281.695L366.112 282.998L362.801 281.806L361.987 279.894L360.271 279.251L356.944 280.4L355.529 274.199L350.109 274.071L345.975 270.34L344.328 272.098L340.435 271.215L338.891 271.978L337.785 275.957L333.48 280.271L331.97 280.434L330.547 278.196L329.775 279.98L325.53 278.822L312.031 278.376L303.541 274.448L300.205 271.335L300.728 269.225L299.561 268.694L298.832 269.671L297.743 267.381L295.771 267.879L295.719 266.927L296.68 267.399L296.114 266.284L295.179 267.047L294.364 264.911L293.592 265.803L291.826 264.972L292.563 264.045L291.586 262.879L286.894 263.196L284.819 265.923L281.509 264.843L280.171 265.469L274.39 260.675H271.346L268.447 259.277L269.185 257.442L270.72 256.97L269.905 256.867L270.497 255.263L271.963 254.5L271.981 253.668L274.005 253.325L274.939 255.315L276.818 255.752L277.804 252.725L281.277 252.253L283.069 254.723L285.308 250.744L288.061 250.238L289.922 247.185L294.33 247.382L295.093 243.866L297.606 244.998L298.875 243.866L298.704 242.442L300.942 241.816L301.568 243.9L303.695 245.289L305.702 244.766L306.542 242.794L310.676 244.775L310.873 243.78L315.436 242.957L314.038 241.516L314.792 240.564L320.264 240.067L321.336 236.928L323.206 236.636L324.715 234.784L324.921 233.214L323.591 232.631L324.132 231.388L322.236 232.288L322.494 230.015L321.49 229.046L322.005 227.871L325.195 226.602L325.23 224.793L322.417 223.395L323.591 218.635L326.319 218.043L324.012 215.865L324.106 214.038L325.761 213.292L326.447 210.067L331.696 207.495H332.382L333.994 205.977L332.828 202.898L333.814 199.416L332.682 199.176L332.313 195.994L334.226 192.101L331.456 189.313L333.934 190.077L336.473 186.432L335.778 184.554L334.08 184.605L332.931 183.096L334.38 181.715L334.337 179.494L335.495 180.523L336.336 177.899L338.291 177.358L338.582 178.799L341.901 177.238L343.239 178.439L345.958 178.473L347.124 173.628L350.983 174.811L352.381 173.499L354.508 174.983L355.64 174.039L358.316 174.502L364.259 177.684L366.438 177.375L365.211 178.362L365.734 180.386L361.875 179.442L361.18 184.09L368.659 185.463L366.926 185.523L366.48 187.727L365.143 188.087L365.854 194.347L367.501 195.025L368.273 196.817L366.095 197.735L365.812 199.665L370.7 203.327L373.213 200.822L374.731 197.092L372.347 191.62L374.087 189.896L376.9 190.531L380.399 198.275L381.489 198.704L381.54 201.886L384.739 202.786L385.545 200.625L386.094 202.1L383.813 203.884L384.019 205.548L392.355 210.059L393.864 216.011L391.583 219.51L392.972 221.199L392.183 223.103L394.439 225.968L392.869 227.768L395.905 227.966L396.84 226.791L397.234 227.88L396.051 232.168L393.272 232.751L392.577 236.259L390.451 236.353L390.159 239.329L392.809 239.758L398.221 237.571L399.576 240.796L398.812 244.629L401.025 243.883L401.102 244.792L402.277 244.44L402.997 246.79L407.594 246.662L409.515 247.768L409.018 251.044L410.802 251.481L412.174 250.555L415.167 254.311L417.714 252.888L419.009 253.531L420.193 252.236L421.007 254.003L424.172 254.757L423.4 257.673L428.245 259.106L431.865 265.846Z" fill="#CCCCCC" stroke="white" stroke-width="0.5"/>
<path d="M63.0417 77.2585L67.3983 80.4574L69.4737 82.2069L73.0242 81.6752L75.0825 83.1674L76.3861 82.1126L77.6811 83.3732L79.0532 83.1502L79.0275 85.9889L80.3911 87.4212L81.8147 85.9203L85.6568 87.1038L87.6636 85.7488L89.7905 88.8276L89.0015 90.9116H88.8128L89.4989 93.4759L88.1096 96.2202L89.5504 96.5461L89.7219 99.3419L88.5727 100.071L91.1884 101.966L89.4989 104.29L91.6687 104.582L92.7492 109.093L93.6755 109.127L93.3924 110.457L92.0031 110.422L93.3238 112.832L89.7733 112.283L89.7305 112.378L89.1987 113.269L90.4337 114.256L92.6292 113.998L94.8075 117.42L93.2724 117.455L92.9551 120.105L94.576 120.405L93.2467 123.106L89.4732 123.466L89.5246 129.736L87.0805 129.084L85.8455 127.317L85.3995 128.14L83.8473 126.365L79.7822 126.442L78.9761 125.173L72.8527 130.962L71.8322 130.567L71.4119 131.948L68.3074 132.531V133.466L68.7791 136.202L66.4292 138.466L65.5288 138.14L65.8032 138.886L63.3676 137.291L59.9714 138.535L56.6611 136.648L54.9802 136.554L53.8224 137.909L52.9048 137.334L52.9305 137.488L51.4811 137.334L50.4777 138.629L48.4023 138.252L49.1227 139.95L46.0525 140.327L46.6614 142.394L43.9942 139.401L42.0389 139.821L39.9977 142.137L36.6273 140.713L36.1471 138.689L30.444 136.133L32.588 132.729L31.8762 131.622L29.5864 129.95L27.3909 131.219L27.3137 129.075L25.0754 128.775L24.9553 127.463L22.4082 127.283L20.0841 124.607L19.3037 125.456L18.4889 123.012L14.1151 122.343L15.1957 120.165L13.1031 117.635L11.8167 118.012L9.34682 116.202L8.92659 112.232L10.5989 109.05L8.52352 105.928L9.14957 105.388L8.05183 105.328L7.39147 103.596L6.25943 103.922L5.51331 100.928L3.72949 101.263L0.976562 99.2733L1.45682 97.6953L4.73289 96.0916L3.10343 93.4844L3.58369 92.3781L1.69695 90.9716L8.16332 90.4742L9.34682 92.4381L9.43258 96.5032L13.6263 96.7176L14.4925 99.1789L12.8802 98.1927L12.4342 99.7278L16.6279 102.764L15.17 105.688L16.3363 108.089L19.9812 108.578L18.9349 107.523L20.1184 106.22L18.9349 104.436L19.8439 103.004L19.5095 100.242L21.7736 100.199L21.2161 97.7382L22.6483 94.9853L24.8181 94.0419L24.8352 90.5257L27.3051 90.4399L28.1199 88.1329L30.221 86.5206L31.8333 87.181L31.6361 84.5825L33.5914 81.4264L46.0267 79.008L48.6424 81.3836L50.8722 77.1127L55.5119 75.0544L56.6782 77.2413L57.3815 73.7852L63.0417 77.2585Z" fill="#CCCCCC" stroke="white" stroke-width="0.5"/>
<path d="M269.956 35.1583L273.352 35.2354L279.201 37.834L281.208 40.0381L286.868 39.3606L289.698 37.8083L292.546 43.5028L293.257 47.6708L295.058 48.091L300.753 45.5782L303.266 46.4701L304.141 51.307L305.71 53.0737L302.974 55.1062L305.804 56.8729L307.339 55.0462L308.506 55.475L309.235 51.9588L311.962 49.0429L317.176 51.1956L318.505 53.3739L320.932 52.5506L322.176 48.031L325.486 48.4083L326.104 49.3603L330.563 49.1544L336.695 55.8781L338.462 59.3085L335.383 60.5521L335.863 63.0563L334.088 63.7938L335.092 65.4833L331.987 68.725L330.761 69.4369L328.282 68.1076L326.893 71.3922L324.071 71.3665L323.805 72.8931L321.25 73.8536L321.953 75.8261L320.564 74.7798L319.226 77.0867L320.409 79.7453L322.476 79.3594L323.677 80.4572L323.222 81.4948L324.474 81.9751L325.735 85.0539L327.69 83.1414L332.056 83.5617L332.159 87.2751L333.762 89.6765L335.023 90.8342L337.853 90.6284L341.944 97.4549L347.373 102.678L347.364 108.793L349.499 110.834L349.216 112.103L348.264 112.652L341.961 109.384L340.615 112.858L336.935 115.027L334.594 115.147L333.282 117.103L330.606 118.072L331.541 120.01L328.128 121.965L329.8 124.487L325.881 123.218L323.265 124.229L323.188 122.686L322.631 123.801L319.252 124.667L317.065 121.923L314.758 121.828L312.648 119.264L309.861 118.869L309.003 115.825L304.878 115.868L304.887 111.88L303.394 111.777L303.386 110.371L299.424 110.096L297.674 108.741L297.666 109.556L295.376 109.796L295.239 111.64L292.743 111.597L291.311 113.595L288.944 112.532L289.372 110.088L286.62 108.287L283.987 109.95L283.918 112.18L282.795 113.149L281.199 112.592L279.922 114.247L276.766 112.429L276.586 113.364L272.761 112.592L273.172 113.346L271.946 113.286L270.539 111.254L269.313 113.149L268.19 112.369L267.006 113.021L266.963 115.233L264.416 115.585V116.125L261.672 117.772L260.806 116.648L261.063 114.461L258.722 112.532L257.65 113.183L256.14 111.88L253.507 111.837L255.506 110.619L254.116 109.29L257.229 105.825L256.835 103.141L255.334 101.94L255.068 99.539L256.303 98.6299L255.789 95.045L253.705 93.124L250.266 95.3795L247.075 93.8787L244.888 94.8221L242.538 93.6901L243.267 90.8514L240.583 89.7108L241.132 88.3557L236.647 87.6611L235.986 86.246L236.775 85.4656L234.494 83.7846L235.592 82.2924L237.504 82.5068L237.093 80.5944L238.679 80.0112L238.516 76.3664L236.647 74.8656L237.719 72.0011L235.3 68.545L237.702 66.1265L243.765 69.5655L245.231 69.2053L244.923 68.0476L247.118 65.6977L250.703 67.533L252.59 67.3186L255.12 69.4712L255.96 67.9018L256.929 71.3408L260.788 70.2688L261.577 68.948L260.36 66.2809L263.558 64.9001L263.507 63.2621L264.931 64.1626L264.776 65.9293L265.171 65.0631L268.052 67.2414L270.102 65.7234L272.529 67.7045L272.195 66.3924L275.522 66.1351L273.815 62.8076L272.332 62.0529L273.189 61.7098L271.912 60.7579L272.52 59.8574L270.771 59.0255L273.164 54.9604L270.308 52.1732L271.62 50.2779L269.725 43.0311L270.977 40.1581L268.232 37.4224L267.881 34.8066L269.956 35.1583Z" fill="#CCCCCC" stroke="white" stroke-width="0.5"/>
<path d="M228.071 4.86816L229.571 6.30894L230.815 6.28321L231.244 5.03111L234.631 6.48045L234.623 9.12189L237.496 8.85604L237.53 6.49761L239.605 5.39129L239.768 9.5078L241.183 10.2882L245.154 8.0413L245.008 9.66219L247.736 10.3654L247.778 12.5523L249.125 13.53L247.272 16.2057L247.984 21.3514L250.463 24.8847L253.953 26.1969L254.991 28.0579L255.403 35.0388L257.101 35.3304L260.394 31.3683L267.881 34.8073L268.232 37.423L270.977 40.1587L269.725 43.0317L271.62 50.2785L270.308 52.1738L273.164 54.961L270.771 59.0261L272.52 59.858L271.912 60.7585L273.189 61.7104L272.332 62.0535L273.815 62.8082L275.522 66.1357L272.195 66.393L272.529 67.7051L270.102 65.724L268.052 67.242L265.171 65.0637L264.776 65.9299L264.931 64.1632L263.507 63.2627L263.558 64.9008L260.36 66.2815L261.577 68.9486L260.788 70.2694L256.929 71.3414L255.96 67.9024L255.12 69.4718L252.59 67.3192L250.703 67.5336L247.118 65.6983L244.923 68.0482L245.231 69.2059L243.765 69.5661L237.702 66.1271L234.28 64.9608L233.808 62.2851L231.493 60.2696L229.511 61.0072L226.879 56.1875L224.554 56.4447L223.963 57.7397L220.592 54.4379L219.314 54.6695L219.898 55.853L218.414 56.4876L218.911 58.2286L214.357 60.2868L214.615 61.9763L213.037 64.652L211.63 65.724L210.841 65.0551L209.881 67.6194L205.181 66.5559L204.615 68.9486L202.574 69.7891L202.454 71.187L199.701 70.6467L199.015 71.4271L197.943 70.5009L196.339 72.2075L194.658 72.0361L193.698 67.5507L191.348 69.3603L188.518 67.7223L187.763 69.8063L186.434 68.2283L185.473 65.6555L183.123 65.2952L180.413 58.1771L178.398 56.7192L176.837 53.3059L177.009 49.8497L175.508 49.7211L175.997 47.5342L178.278 45.656L178.235 42.1055L179.419 41.651L180.096 41.4023L180.962 39.7471L181.151 40.5876L182.283 40.1931L181.288 39.3783L182.103 36.5139L184.41 34.7558L183.672 34.0869L184.427 31.6255L183.355 30.9652L185.816 30.3648L189.564 32.8005L191.751 32.6289L193.02 27.7148L195.713 27.3289L196.991 25.2106L202.377 27.6377L203.8 27.2689L204.641 29.5158L206.622 28.7697L208.577 29.9875L210.867 29.6445L213.466 23.3668L214.932 23.8127L216.527 22.7922L218.491 24.07L218.766 23.0494L223.319 24.7304L226.638 24.1644L226.038 21.0941L226.99 19.4389L225.678 17.2863L227.582 15.3224L228.191 11.8748L227.042 9.6193L225.584 10.5284L224.048 9.0104L225.343 6.49761L228.071 4.86816Z" fill="#CCCCCC" stroke="white" stroke-width="0.5"/>
<path d="M438.787 93.0302L439.901 93.2703L437.775 98.3388L440.853 100.877L440.356 104.454L437.303 104.539L436.325 107.078L428.264 108.853L427.518 110.105L431.463 113.982L431.96 115.971L434.018 116.88L434.524 115.311H435.622L438.178 117.601L441.325 123.552L441.84 127.017L445.767 128.081L445.665 130.062L448.984 132.669L452.903 132.026L455.501 128.801L457.765 128.767L459.463 127.172L459.721 128.124L462.611 128.784L462.559 125.019L461.033 124.71L459.892 125.756L459.446 124.753L459.498 122.995L461.719 121.468L466.033 124.127L465.75 125.439L467.07 126.597L466.376 127.643L468.1 130.036L469.437 129.641L471.058 131.502L472.439 130.593L472.13 129.573L475.132 129.616L475.767 132.755L480.621 133.647L480.972 137.188L483.854 139.59L484.729 137.729L485.526 138.346L486.435 137.266L484.986 135.559L487.739 137.025L492.456 136.828L492.679 138.012L497.035 140.91L500.44 141.253L501.521 140.37L500.972 138.295L503.519 138.835L504.033 140.808L502.979 143.775L506.032 146.022L504.351 147.128L503.356 150.053L507.884 159.709L507.61 162.651L510.954 164.958L514.093 164.803L514.805 167.359L516.64 168.208L519.779 167.11L521.949 168.5L521.64 171.15L523.158 177.573L524.161 177.856L524.119 181.921L525.722 183.251L524.359 186.741L519.951 188.336L517.789 190.42L511.872 188.259L507.232 189.657L505.852 189.443L505.406 188.002L503.039 188.276L500.672 190.214L501.486 193.156L497.275 196.827L496.058 200.043L493.125 202.058L490.56 201.586L487.49 200.489L487.584 197.315L482.988 193.465L482.267 190.343L479.995 190.12L478.682 191.261L474.755 190.454L471.882 187.213L469.652 188.139L468.957 186.793L458.923 188.799L457.028 184.734L452.543 184.649L451.702 181.552L449.953 181.432L448.52 183.851L447.791 183.113L446.882 181.638L448.495 179.571L444.704 174.657L441.882 173.465L441.531 171.055L439.335 168.165L437.492 169.486L435.21 168.122L434.421 164.752L435.553 161.141H435.365L434.807 161.888L432.097 159.675L431.48 159.709L430.665 159.135L427.723 161.339L423.024 158.071L421.866 160.55L419.902 160.078L419.001 158.346L414.808 158.68L410.374 152.66L409.276 151.922L407.801 152.668H407.407L406.661 153.646L406.515 152.66L401 150.293L398.29 151.227L398.959 146.305L395.966 148.02L392.99 144.015L393.17 142.694L393.556 142.729L395.16 140.121L394.114 138.886L395.76 137.514H396.103L397.072 134.418L393.573 131.425L394.868 130.679L394.843 127.729L399.817 121.837L398.813 116.897L401.052 114.642L400.366 112.086L403.676 108.527L405.143 108.536L405.691 106.743L408.007 107.112L410.983 102.532L414.027 104.119L415.056 98.6818L416.926 98.3645L417.08 96.7779L419.988 96.1605L423.941 96.8037L427.475 95.7059L429.276 97.2153L434.936 93.0559L434.919 89.7627L437.234 90.6289L438.787 93.0302Z" fill="#CCCCCC" stroke="white" stroke-width="0.5"/>
<path d="M375.143 75.6289L379.594 78.7849L381.404 77.6528L385.632 80.1828L390.091 80.3972L390.16 81.8036L392.681 83.313L397.364 82.7299L397.141 85.3113L400.846 89.1877L404.25 90.9544L408.727 89.7194L407.869 91.5118L409.036 92.0949L407.989 95.088L408.77 97.3607L409.842 97.3092L409.996 95.3281L411.926 95.2167L414.336 95.8942L415.056 98.6814L414.027 104.119L410.983 102.532L408.007 107.112L405.691 106.743L405.142 108.535L403.676 108.527L400.365 112.086L401.051 114.642L398.813 116.897L399.816 121.837L394.842 127.729L394.868 130.679L393.573 131.425L397.072 134.418L396.103 137.514H395.76L394.113 138.886L395.16 140.121L393.556 142.728L393.17 142.694L392.99 144.015L395.966 148.02L398.959 146.304L398.29 151.227L401 150.292L406.514 152.659L406.66 153.646L407.406 152.668H407.801L409.276 151.922L410.374 152.659L414.807 158.68L419.001 158.345L419.902 160.078L421.866 160.549L423.023 158.071L427.723 161.338L430.665 159.134L431.479 159.709L432.097 159.675L434.807 161.887L435.364 161.141H435.553L434.421 164.752L435.21 168.122L437.491 169.486L439.335 168.165L441.531 171.055L441.882 173.465L444.704 174.657L448.494 179.571L446.882 181.638L447.791 183.113L448.52 183.851L449.952 181.432L451.702 181.552L452.542 184.648L451.384 187.89L446.891 186.509L446.625 188.747L442.611 190.677L443.572 192.735L441.848 194.142L441.788 195.857L441.445 196.663L437.414 196.629L435.261 193.644L433.169 194.416L433.057 196.457L431.848 195.017L429.884 195.282L432.011 199.279L430.364 201.191L427.346 201.431L426.608 200.239L422.526 201.552L420.639 200.925L421.548 203.078L418.298 206.466L416.317 203.635L414.859 204.064L411.892 202.572L410.588 203.473L411.463 200.522L410.211 199.433L407.423 203.087L409.156 207.829L406.523 209.279L404.362 212.778L402.672 213.661L399.362 213.189L398.05 214.304L396.618 213.395L395.34 216.791L393.873 215.985L392.355 210.033L384.019 205.522L383.814 203.867L386.095 202.083L385.546 200.608L384.74 202.769L381.541 201.869L381.489 198.687L380.4 198.258L376.901 190.514L374.088 189.879L372.347 191.603L374.723 197.075L373.205 200.814L370.692 203.318L365.812 199.656L366.095 197.735L368.274 196.818L367.502 195.017L365.855 194.339L365.143 188.079L366.473 187.727L366.919 185.523L368.651 185.463L361.173 184.091L361.867 179.442L365.727 180.386L365.212 178.362L366.438 177.367L366.687 174.657L367.622 174.537L366.164 172.753L366.353 170.66L369.68 167.633L369.774 163.431L368.574 161.827L365.263 162.136L367.004 159.623L365.478 158.38L366.421 157.256L363.008 153.757L363.042 151.193L361.13 149.872L361.293 146.099L363.583 144.332L359.277 129.495L361.996 129.229L362.125 130.001L362.493 129.435L363.591 127.317L367.03 125.559L367.245 122.274L366.01 121.031L367.896 119.084L366.507 116.331L368.205 115.345L371.267 107.961L371.172 105.414L372.605 105.216L373.857 102.429L378.265 102.472L379.774 99.8392L381.575 103.27L383.831 101.632L381.815 98.4327L383.213 95.8513L381.901 92.8926L377.562 91.2974L374.637 82.3439L370.709 80.1228L372.442 75.8433L375.143 75.6289Z" fill="#CCCCCC" stroke="white" stroke-width="0.5"/>
<path d="M371.053 105.397L371.173 105.414L371.267 107.961L368.205 115.345L366.507 116.332L367.897 119.084L366.01 121.031L367.245 122.275L367.03 125.559L363.591 127.317L362.494 129.436L362.125 130.002L361.996 129.23L359.278 129.496L363.583 144.332L361.293 146.099L361.13 149.873L363.043 151.193L363.008 153.758L366.422 157.257L365.478 158.38L367.005 159.624L365.264 162.136L368.574 161.828L369.775 163.431L369.68 167.634L366.353 170.661L366.164 172.754L367.622 174.537L366.687 174.657L366.439 177.368L364.26 177.676L358.317 174.495L355.641 174.023L354.509 174.966L352.382 173.491L350.993 174.803L347.125 173.62L345.968 178.465L343.24 178.431L341.911 177.222L338.592 178.791L338.301 177.342L336.345 177.882L335.505 180.506L334.347 179.477L331.062 175.772L327.503 174.409L326.285 174.932L324.948 173.808L325.196 172.488L319.124 167.805L315.591 167.934L314.999 166.57L312.109 167.325L310.197 164.16L308.584 163.457H308.087L305.446 163.226L304.159 160.713L301.732 163.474V164.075L301.869 164.958L300.471 165.318L301.072 166.502L297.83 167.171L292.281 163.217L293.508 160.07L292.418 160.944L289.108 158.406L286.63 158.672L287.179 155.781L283.722 155.953L281.458 153.054L279.94 153.397L279.803 152.12L278.148 151.579L276.699 152.668L276.021 151.485L272.488 152.48L271.064 149.924L265.052 146.039L265.044 141.622L266.879 141.091L268.157 138.055L266.553 136.34L267.711 133.912L262.505 131.185L263.337 129.161L262.128 129.676L262.102 128.141L259.649 128.364L259.881 127.403L257.522 127.163L255.121 124.745L255.936 123.621L257.728 123.707L256.047 122.129L258.603 121.803L257.814 118.853L259.701 118.724L257.514 117.789L258.097 116.735L260.55 117.429L260.807 116.649L261.673 117.772L264.418 116.126V115.585L266.965 115.234L267.008 113.021L268.191 112.369L269.315 113.15L270.541 111.254L271.947 113.287L273.174 113.347L272.762 112.592L276.587 113.364L276.767 112.429L279.923 114.248L281.201 112.592L282.796 113.15L283.92 112.181L283.988 109.951L286.621 108.287L289.374 110.088L288.945 112.532L291.312 113.596L292.744 111.598L295.24 111.64L295.377 109.797L297.667 109.556L297.676 108.742L299.425 110.097L303.387 110.371L303.396 111.778L304.888 111.881L304.88 115.868L309.005 115.826L309.862 118.87L312.649 119.265L314.759 121.829L317.066 121.923L319.253 124.667L322.632 123.801L323.189 122.686L323.267 124.23L325.882 123.218L329.802 124.487L328.129 121.966L331.543 120.011L330.608 118.072L333.284 117.103L334.596 115.148L336.937 115.028L340.616 112.858L341.963 109.385L348.266 112.652L349.218 112.104L353.231 115.868L358.84 117.669L362.005 113.055L364.895 111.838L367.176 106.212L367.974 106.563L369.861 104.316L371.053 105.397Z" fill="#CCCCCC" stroke="white" stroke-width="0.5"/>
<path d="M490.56 201.586L487.489 200.488L487.584 197.315L482.987 193.465L482.267 190.343L479.994 190.12L478.682 191.261L474.754 190.454L471.881 187.213L469.651 188.139L468.956 186.792L458.922 188.799L457.027 184.734L452.542 184.648L451.384 187.89L446.89 186.509L446.624 188.748L442.611 190.677L443.571 192.736L441.847 194.142L441.444 196.664L437.414 196.629L435.261 193.645L433.168 194.417L433.057 196.458L431.848 195.017L429.995 195.231L432.011 199.279L430.364 201.192L427.345 201.432L426.608 200.24L422.526 201.552L420.639 200.926L421.548 203.078L418.298 206.466L416.316 203.636L414.859 204.065L411.891 202.572L410.588 203.473L411.462 200.523L410.21 199.434L407.423 203.087L409.155 207.83L406.523 209.279L404.361 212.778L402.672 213.661L399.362 213.19L398.049 214.304L396.617 213.395L395.339 216.792L393.873 215.985L391.592 219.484L392.981 221.174L392.183 223.086L394.447 225.942L392.878 227.743L395.914 227.949L396.857 226.774L397.252 227.863L396.068 232.151L393.29 232.735L392.586 236.242L390.468 236.336L390.168 239.312L392.827 239.733L398.238 237.554L399.593 240.779L398.821 244.612L401.034 243.866L401.111 244.775L402.286 244.424L403.006 246.765L407.603 246.636L409.524 247.743L409.027 251.019L410.811 251.456L412.183 250.521L415.176 254.286L417.731 252.854L419.026 253.506L420.201 252.211L421.016 253.977L424.181 254.732L423.409 257.648L428.254 259.08L431.865 265.847L436.153 265.152L442.276 257.614L450.063 257.202L452.31 247.511L453.742 246.113L461.032 245.985L464.574 244.252L466.804 241.645L468.167 237.554L467.739 232.717L469.677 229.51L469.291 226.405L471.161 222.941L470.534 219.373L473.536 216.474L473.51 214.639L479.745 213.464L487.532 210.179L490.482 206.989L491.057 203.233L490.56 201.586Z" fill="#CCCCCC" stroke="white" stroke-width="0.5"/>
<path d="M94.8082 117.421L96.5663 116.94L97.3467 118.87L98.9934 117.069L100.271 119.951L103.178 118.578L104.791 121.863L103.496 121.975L102.364 125.491L105.117 126.031L106.043 124.384L108.273 124.264L109.182 125.542L111.317 124.359L112.964 125.585L110.348 126.125L111.909 127.841L114.276 128.244L115.562 130.028L119.893 129.907H120.331L121.454 129.153L123.169 129.762L125.734 133.681L129.37 133.578L129.061 136.588L132.123 136.434L134.284 138.192L135.888 138.115L134.824 140.302L136.085 145.233L134.052 145.259L133.289 149.675L134.207 152.034L132.672 153.303L133.383 155.73L132.106 158.054L133.555 157.565L134.91 158.903L131.977 160.258L130.442 163.166L128.538 161.553L125.382 163.294L123.538 165.781L124.198 168.225L125.716 167.05L127.835 167.865L124.867 168.62L124.696 169.872L127.029 171.879L125.588 172.676L126.909 173.011L126.3 173.851L129.859 174.838L128.572 183.817L129.13 183.071L130.656 183.774L130.793 187.573L129.773 189.477V189.906L129.49 190.806L131.094 191.064L130.733 194.871L132.466 197.015L130.631 198.448L130.253 201.2L132.706 205.291L131.059 208.018L131.299 210.008L127.432 211.68L127.234 213.104L128.418 213.867L127.783 215.565L125.691 215.394L126.24 217.932L127.929 217.967L127.655 219.708L126.111 219.528L126.454 220.522L125.596 220.265L125.09 221.92V222.418L127.192 225.334L125.073 226.311L124.516 228.858L125.245 229.141L122.458 229.613L120.296 232.366L117.063 231.165L117.929 231.774L117.106 233.464L117.758 235.625L116.411 236.037L117.818 237.992L118.281 241.86L117.037 243.18L115.777 242.494L113.624 246.173L113.041 250.136L114.139 252.254L110.803 252.082V255.213L109.868 255.367L102.69 250.007L101.909 242.108L93.8391 234.45L89.6712 234.999L85.263 232.263L84.7313 228.061L80.0574 224.536L80.2718 222.666L78.2478 221.517L77.7161 219.279L76.1552 218.807L75.5892 217.255L74.0112 217.161L73.6424 212.469L71.8843 212.255L69.2258 208.919L62.7937 206.904L62.2706 209.442L59.6291 207.65L54.4406 207.401L52.5882 201.689L48.7975 198.139L44.8354 196.972L44.7925 194.726L42.9915 191.895L43.8063 186.355L43.2059 185.292L42.0567 185.995L39.5954 184.64L37.3142 174.906L34.8099 175.086L34.3211 166.948L31.6625 166.862L28.1377 164.898L25.1704 160.232L25.0332 158.054L30.5219 154.967L29.913 152.068L30.702 149.075L32.5115 148.783L32.4687 146.588L33.5493 146.288L36.6281 140.713L39.9985 142.137L42.0396 139.821L43.9949 139.401L46.6621 142.394L46.0532 140.327L49.1234 139.95L48.403 138.252L50.4784 138.629L51.4818 137.334L52.9312 137.489L52.9055 137.334L53.8231 137.909L54.9809 136.554L56.6618 136.648L59.9722 138.535L63.3683 137.291L65.8039 138.887L65.5295 138.14L66.43 138.466L68.7798 136.202L68.3081 133.467V132.532L71.4127 131.949L71.8329 130.568L72.8535 130.962L78.9768 125.173L79.7829 126.443L83.848 126.366L85.4003 128.141L85.8462 127.317L87.0812 129.084L89.5254 129.736L89.4739 123.467L93.2474 123.107L94.5767 120.405L92.9558 120.105L93.2731 117.455L94.8082 117.421Z" fill="#CCCCCC" stroke="white" stroke-width="0.5"/>
<path d="M190.157 108.853L190.303 109.128L191.863 109.617L192.584 110.534L191.332 111.786L194.925 110.843L195.414 113.742L199.633 114.642L200.225 117.163L203.475 118.287L203.098 120.731L198.484 122.575L198.759 124.324L200.028 123.904L199.642 125.851L200.628 127.189L199.779 128.835L198.904 128.244L198.493 130.208L194.016 127.515L193.236 128.304L192.026 127.592L191.126 128.75L189.865 128.175L189.848 128.321L189.779 129.556L187.49 129.462L184.651 132.772L181.666 133.741L179.96 133.132L179.591 136.46L178.459 135.259L175.011 135.688L174.034 134.367L175.509 133.226L174.222 132.892L175.475 130.474L172.756 129.89L172.43 125.8L170.346 125.619L169.797 122.806L168.099 122.189L168.922 120.817L171.667 120.045L168.142 117.189L166.152 117.069L168.82 115.543L170.852 115.671L172.516 113.776L173.433 113.887L173.048 115.551L176.958 115.345L176.401 112.79L177.327 111.495L179.505 112.344L182.095 110.363L185.286 110.869L184.985 110.097L184.96 109.471L188.913 108.407L190.122 108.133L190.062 108.665L190.157 108.853Z" fill="#CCCCCC" stroke="white" stroke-width="0.5"/>
<path d="M186.435 68.2279L187.764 69.8058L188.519 67.7133L191.349 69.3513L193.699 67.5418L194.66 72.0271L196.34 72.1986L197.944 70.5005L199.016 71.4267L199.702 70.6463L202.455 71.178L202.575 69.7801L204.616 68.9396L205.182 66.5469L209.882 67.6189L210.843 65.0547L211.632 65.7236L213.038 64.6516L214.616 61.9759L214.359 60.2864L218.913 58.2281L218.415 56.4872L219.899 55.8525L219.316 54.669L220.594 54.4375L223.955 57.7393L224.556 56.4443L226.871 56.187L229.504 60.9982L231.485 60.2692L233.792 62.2761L234.264 64.9518L237.686 66.1181L235.284 68.5366L237.703 71.9927L236.631 74.8572L238.5 76.3666L238.663 80.0114L237.085 80.5946L237.497 82.507L235.585 82.2926L234.487 83.7848L236.777 85.4658L235.988 86.2376L236.648 87.6527L241.133 88.3473L240.584 89.7024L243.269 90.843L242.54 93.6903L244.89 94.8137L247.077 93.8703L250.267 95.3711L253.706 93.1156L255.79 95.0367L256.304 98.6215L255.069 99.5306L255.335 101.94L256.836 103.141L257.231 105.825L254.118 109.29L255.507 110.619L253.517 111.837L256.15 111.889L257.659 113.192L258.731 112.54L261.073 114.47L260.815 116.648L260.558 117.429L258.097 116.726L257.514 117.789L259.701 118.715L257.814 118.844L258.594 121.794L256.047 122.12L257.728 123.698L255.927 123.612L255.112 124.736L257.514 127.154L259.872 127.394L259.649 128.355L262.102 128.123L262.128 129.667L263.337 129.152L262.505 131.176L267.711 133.903L266.553 136.339L268.148 138.054L266.879 141.09L265.043 141.622L265.052 146.039L262.625 148.895L261.064 147.9L259.109 149.521L258.706 150.987L260.438 152.908L259.195 154.306L258.749 154.272L256.141 153.423L255.001 156.201L253.44 157.085L248.612 157.488L246.999 159.297L245.962 158.843L246.279 157.839L244.967 158.543L244.641 158.534L243.672 159.074L243.252 162.153L240.567 164.186L240.301 166.801L240.902 169.168L244.675 169.631L245.782 172.059L245.258 174.588L243.68 175.686L241.168 174.829L240.722 175.995L239.71 175.669L239.024 178.576L235.55 176.012L234.204 177.393L230.765 178.002L229.007 176.81L228.209 177.702L226.751 176.295L224.864 176.578L224.075 177.796L225.388 179.665L221.803 179.76L222.189 182.324L221.245 182.384L221.271 183.019L221.245 183.207L220.834 183.696L220.062 183.919L218.055 182.839L216.957 178.842L215.311 178.662L214.505 180.18L212.026 176.981L209.985 176.638H209.376L208.45 174.691L208.073 176.098L206.529 176.647L206.812 177.839L205.5 177.599L204.899 181.141L205.989 183.396L201.872 184.622L199.333 186.921L199.085 188.782L198.107 186.878L194.093 187.024L194.642 183.971L192.404 185.48L185.972 183.773L184.986 185.48L183.339 183.37L182.061 184.237L180.475 182.247L181.049 184.811L178.974 184.074L177.387 186.063L175.398 185.334L174.686 186.046L174.892 184.571L172.688 183.31L172.164 183.919L170.235 181.329L166.547 181.749L165.209 185.42L164.163 184.751L160.552 185.677L158.366 184.657L158.657 185.935L157.216 184.948L156.83 185.832L154.583 185.78L154.635 182.444L152.002 182.067L150.793 183.439L149.704 183.164L150.098 184.537L148.795 187.007L147.594 186.355L147.097 187.881L145.115 187.084L143.743 189.108L140.596 188.379L141.179 187.53L139.738 187.684L139.086 186.286L136.694 188.01L135.244 186.046L132.131 188.216L130.811 187.573L130.673 183.773L129.147 183.07L128.589 183.825L129.876 174.846L126.317 173.851L126.926 173.019L125.596 172.685L127.037 171.887L124.704 169.88L124.885 168.628L127.843 167.873L125.725 167.059L124.207 168.234L123.547 165.798L125.39 163.311L128.546 161.561L130.45 163.174L131.985 160.266L134.927 158.911L133.572 157.573L132.123 158.062L133.401 155.738L132.689 153.311L134.224 152.042L133.306 149.683L134.069 145.267L136.102 145.241L134.85 140.31L135.913 138.123L134.31 138.192L132.148 136.442L129.087 136.596L129.396 133.578L125.759 133.689L123.204 129.77L121.48 129.161L120.365 129.916H119.919L115.588 130.036L114.302 128.252L111.926 127.84L110.365 126.134L112.989 125.593L111.334 124.367L109.199 125.55L108.29 124.273L106.06 124.393L105.134 126.039L102.381 125.499L103.513 121.983L104.808 121.871L103.196 118.578L102.895 117.54L104.405 116.322L107.286 116.623L107.895 113.484L109.439 114.076L108.65 112.266L109.653 111.546L109.259 109.376L110.262 109.445H110.545L113.796 106.306L115.579 107.069L118.555 106.237L119.181 104.059L120.468 104.084L123.401 101.229L123.409 102.489L129.567 102.395L129.824 101.126L131.188 101.417L134.455 97.6438L136.659 100.38L138.512 100.088L139.481 96.8377L142.706 96.5032L145.553 94.2391L145.27 92.3609L148.323 92.7983L147.585 89.1449L149.566 87.5926L159.952 89.5222L162.902 89.1706L163.1 87.7641L168.177 89.7281L168.623 88.8962L168.76 88.922L170.243 86.6321L171.813 87.2753L172.456 86.8723L174.051 86.169L177.302 86.9923L178.356 81.5894L176.796 77.5586L178.288 76.7611L181.598 78.4077L180.741 77.3013L181.958 76.2293L181.735 74.6256L185.577 75.0887L184.3 69.317L185.715 68.9654L185.415 67.7733L186.435 68.2279ZM184.986 110.096L185.277 110.868L182.087 110.362L179.497 112.343L177.319 111.503L176.392 112.789L176.941 115.345L173.031 115.551L173.417 113.887L172.499 113.775L170.835 115.671L168.803 115.542L166.135 117.077L168.117 117.197L171.641 120.053L168.897 120.825L168.074 122.197L169.772 122.815L170.321 125.636L172.396 125.816L172.722 129.907L175.441 130.482L174.188 132.9L175.475 133.235L173.991 134.375L174.969 135.696L178.416 135.267L179.548 136.468L179.909 133.14L181.624 133.749L184.6 132.771L187.447 129.461L189.737 129.555L189.805 128.32L189.823 128.175L191.075 128.749L191.984 127.591L193.193 128.303L193.965 127.506L198.45 130.199L198.862 128.235L199.737 128.826L200.586 127.18L199.574 125.628L199.985 123.895L198.725 124.315L198.45 122.566L203.055 120.722L203.433 118.278L200.183 117.154L199.591 114.633L195.371 113.733L194.874 110.834L191.281 111.777L192.533 110.525L191.812 109.607L190.243 109.127L190.003 108.655L190.063 108.124L188.854 108.398L184.9 109.462L184.986 110.096Z" fill="#CCCCCC" stroke="white" stroke-width="0.5"/>
<path d="M174.96 2.92962L177.087 2.27783L178.991 4.66198L181.383 5.50244L184.179 3.37557L187.138 4.91928L187.747 2.05487L187.592 5.08222L190.131 5.74257L190.397 7.36344L192.704 6.60877L195.517 10.245L192.815 17.8005L194.17 18.4266L199.35 16.2054L199.547 19.4129L198.33 20.382L196.992 25.2103L195.714 27.3286L193.021 27.7145L191.752 32.6286L189.565 32.8001L185.817 30.3645L183.356 30.9648L184.428 31.6252L183.673 34.0865L184.411 34.7555L182.104 36.5136L181.289 39.378L182.284 40.1927L181.152 40.5872L180.963 39.7467L180.097 41.4019L179.419 41.6506L178.236 42.1052L178.279 45.6557L175.998 47.5338L175.509 49.7207L177.009 49.8494L176.838 53.3055L178.399 56.7188L180.414 58.1767L183.124 65.2949L185.474 65.6551L186.435 68.2279L185.38 67.7563L185.68 68.9483L184.265 69.2999L185.543 75.0716L181.709 74.6085L181.932 76.2123L180.714 77.2843L181.572 78.382L178.262 76.7354L176.778 77.533L178.339 81.5637L177.284 86.9752L174.034 86.1433L172.43 86.8466L171.787 87.2497L170.226 86.6065L168.742 88.8963L168.605 88.8706L168.159 89.711L163.082 87.7471L162.885 89.1535L159.935 89.5052L149.549 87.5756L147.576 89.1279L148.314 92.7898L145.252 92.3525L145.535 94.2306L142.688 96.4861L139.463 96.8292L138.494 100.079L136.642 100.371L134.438 97.6353L131.17 101.409L129.807 101.117L129.549 102.395L123.4 102.489L123.392 101.229L120.459 104.085L119.172 104.059L118.546 106.237L115.562 107.069L113.778 106.306L110.536 109.445H110.245L109.241 109.376L109.644 111.546L108.641 112.266L109.43 114.076L107.886 113.484L107.277 116.623L104.387 116.323L102.878 117.54L103.178 118.578L100.271 119.95L98.9929 117.069L97.3463 118.87L96.5658 116.94L94.8077 117.42L92.6294 113.998L90.4339 114.256L89.199 113.27L89.7307 112.378L89.7736 112.283L93.3241 112.832L92.0034 110.422L93.3927 110.457L93.6757 109.127L92.7495 109.093L91.6689 104.582L89.4991 104.29L91.1886 101.966L88.5729 100.071L89.7221 99.3419L89.5506 96.5461L88.1098 96.2202L89.4991 93.4759L88.8131 90.9117H89.0017L89.7907 88.8277L87.6639 85.7489L85.6571 87.1039L81.815 85.9204L80.3913 87.4212L79.0277 85.989L79.0535 83.1503L77.6813 83.3733L76.3863 82.1126L75.0827 83.1675L73.0245 81.6752L69.474 82.2069L67.3986 80.4574L66.8926 79.5398L69.8856 78.7165L73.0245 75.1317L73.8907 67.6791L78.0501 68.914L81.6263 66.6242L82.1323 68.0564L86.549 68.4595L90.5797 57.6793L92.9982 57.6536L93.9587 59.789L96.4372 59.1887L96.6344 55.8355L100.622 53.3913L100.262 50.6298L101.703 51.0586L103.624 54.7292L107.612 56.3157L109.893 53.0225L112.106 51.9333L111.231 50.1924L113.521 47.3109L112.243 43.8633L114.721 42.7484L118.152 43.2973L122.963 40.673L126.273 42.4311L127.791 40.4157L128.855 41.2304L131.711 40.167L137.817 41.1704L138.254 39.3265L141.059 39.095L140.184 36.1276L141.213 33.1432L144.094 33.4948L145.407 31.3765L148.151 29.91L151.273 31.831L154.926 30.8533L155.827 29.1381L166.324 24.9787L167.053 21.6426L169.634 20.6993L172.507 22.0543L176.04 20.9909L176.092 19.876L178.973 20.3133L179.762 15.6565L173.073 13.3753L173.562 12.7321L172.481 12.0117L174.445 11.0769L174.188 9.67899L170.989 10.6481L169.094 9.29306L169.171 6.78027L170.749 6.02557L171.135 4.45616L170.183 2.98966L173.373 1L174.96 2.92962Z" fill="#CCCCCC" stroke="white" stroke-width="0.5"/>
<path d="M265.052 146.039L271.064 149.924L272.487 152.48L276.021 151.485L276.698 152.668L278.148 151.579L279.803 152.12L279.94 153.397L281.458 153.054L283.722 155.953L287.178 155.781L286.629 158.672L289.108 158.406L292.418 160.944L293.507 160.07L292.281 163.217L297.83 167.171L301.071 166.502L300.471 165.318L301.869 164.958L301.732 164.075V163.474L304.159 160.713L305.445 163.226L308.087 163.457H308.584L310.196 164.16L312.109 167.325L314.999 166.57L315.591 167.934L319.124 167.805L325.196 172.488L324.947 173.808L326.285 174.932L327.503 174.409L331.062 175.772L334.347 179.477L334.398 181.698L332.949 183.079L334.089 184.597L335.787 184.546L336.491 186.424L333.952 190.069L331.474 189.305L334.244 192.093L332.323 195.986L332.7 199.168L333.832 199.408L332.846 202.89L334.012 205.969L332.391 207.487H331.714L326.465 210.06L325.771 213.284L324.124 214.03L324.03 215.857L326.328 218.035L323.601 218.627L322.426 223.387L325.239 224.785L325.205 226.594L322.014 227.863L321.5 229.03L322.503 229.999L322.246 232.272L324.141 231.371L323.592 232.615L324.922 233.198L324.707 234.767L323.198 236.62L321.328 236.911L320.256 240.059L314.785 240.548L314.03 241.508L315.428 242.949L310.865 243.772L310.668 244.758L306.534 242.777L305.694 244.75L303.687 245.273L301.569 243.875L300.934 241.791L298.696 242.417L298.867 243.841L297.598 244.973L295.085 243.841L294.322 247.357L289.914 247.151L288.053 250.204L285.3 250.71L283.053 254.698L281.261 252.22L277.787 252.691L276.801 255.719L274.932 255.281L273.988 253.292L271.964 253.635L271.947 254.475L270.969 253.6L271.467 252.434L267.17 251.233L267.136 249.115L265.935 248.618L264.838 249.69L264.323 248.72L267.908 245.419L267.265 244.004L269.023 243.36L268.405 241.585L269.486 241.208L269.391 239.381L272.762 239.596L272.273 238.481L273.165 238.155L271.707 236.748L272.402 236.088L269.606 234.844L270.892 234.741L270.463 233.249L268.671 232.452L268.019 233.678L266.578 232.983L265.481 234.39L262.762 234.364L260.712 232.76L259.383 234.527L252.608 228.781L253.68 225.625L252.994 222.846L247.162 223.009L246.056 224.176L246.365 222.684L241.288 220.514L239.349 222.889L238.072 222.289H237.325L236.073 219.21L234.178 219.991L232.334 218.55L234.307 219.03L234.598 216.603L231.348 216.346L228.827 213.396L225.851 216.131L224.873 215.926L219.067 209.048L221.331 206.346L217.832 203.868L219.865 198.147L218.784 197.744L220.791 194.34L220.182 192.213L221.322 191.141L218.784 187.401L219.221 186.261L222.043 186.287L221.254 183.208L221.28 183.019L221.254 182.385L222.197 182.333L221.811 179.769L225.396 179.666L224.084 177.796L224.873 176.578L226.76 176.296L228.218 177.702L229.015 176.81L230.773 178.002L234.212 177.393L235.559 176.004L239.032 178.577L239.727 175.661L240.739 175.987L241.185 174.812L243.697 175.678L245.267 174.572L245.799 172.042L244.684 169.623L240.91 169.152L240.319 166.785L240.576 164.169L243.26 162.136L243.68 159.066L244.649 158.526L244.975 158.534L246.287 157.831L245.97 158.835L247.008 159.289L248.62 157.48L253.448 157.076L255.009 156.193L256.15 153.414L258.757 154.264L259.194 154.298L260.438 152.891L258.706 150.979L259.109 149.512L261.064 147.9L262.625 148.895L265.052 146.039Z" fill="#CCCCCC" stroke="white" stroke-width="0.5"/>
</svg>
