<svg width="373" height="302" viewBox="0 0 373 302" fill="none" xmlns="http://www.w3.org/2000/svg">
<path d="M352.157 234.015L352.108 234.53L352.998 235.012L352.979 235.231L353.57 235.708L354.532 237.928L355.18 238.405L355.771 238.447L356.135 238.943L357.192 239.333L357.657 240.178L359.635 240.974L360.354 241.69L360.775 241.871L362.123 241.375L362.593 241.826L363.161 243.307L364.824 244.89L365.934 245.341L366.858 246.333L368.373 247.284L369.767 247.674L369.942 247.943L370.945 247.875L371.332 248.174L371.37 248.78L371.817 248.852L371.703 249.405L371.881 249.799L371.46 250.053L371.248 250.727L371.335 251.208L371.385 251.678L371.93 252.69L371.767 252.905L371.976 253.462L371.646 254.178L370.968 254.796L371.067 255.481L370.998 255.86L370.449 255.924L370.241 256.803L369.498 257.474L369.654 258.102L370.101 258.61L369.866 259.193L370.048 259.743L369.317 260.33L368.074 262.102L367.521 262.205L366.078 261.606L364.858 261.542L361.82 260.697L360.32 259.678L359.76 259.712L357.733 258.159L355.548 257.197L354.942 257.318L352.976 256.14L352.036 256.273L350.362 255.262L349.301 253.826L348.555 253.64L348.048 252.981L347.563 252.75L347.65 252.557L347.926 252.349L347.695 251.943L347.097 252.171L347.32 251.621L347.983 251.288L348.131 250.633L347.949 249.928L348.377 249.14L348.309 245.455L348.036 244.296L348.245 243.962L348.082 243.11L348.627 240.682L350.771 236.515L351.025 235.663L350.745 235.273L350.726 234.765L351.854 233.678L352.157 234.015ZM245.229 203.326L244.938 202.318L245.218 202.178L245.025 201.811L245.07 201.637L245.245 201.527L245.241 200.655L245.532 200.341L245.404 200.012L245.559 199.697H245.843L246.479 199.625L246.76 199.197L247.18 199.712L247.32 200.307L247.392 202.121L247.582 202.262L247.517 203.803L247.862 204.046L247.604 204.466L248.108 204.981L247.46 205.349L246.521 205.345L246.366 204.625L245.964 204.337L245.998 203.962L245.419 204.125L245.207 203.705L245.43 203.799L245.464 203.462L245.229 203.326ZM238.654 197.856L239.661 197.542L239.82 197.799L239.029 198.421L239.544 199.345L239.692 199.258L239.245 198.47L239.801 198.049L239.991 198.477L239.654 198.905L240.286 198.583L240.502 198.928L239.979 199.61L239.722 199.307L239.551 199.394L239.635 200L240.139 201.193L240.487 201.508V202.004L240.938 202.432L240.801 202.78L241.915 202.898L242.188 203.258L242.214 204.674L241.608 205.523L241.873 206.508L242.248 206.644L241.979 206.811L242.146 206.977L241.309 207.58L239.627 208.08L238.892 209.061L237.525 210.114L236.055 209.618L235.695 208.296L234.854 208.481L234.188 208.102L233.351 206.474L233.18 205.14L234.54 203.061L235.457 202.171L236.286 200.262L236.892 199.447L237.756 198.697L238.04 198.144H238.195L238.245 197.671L238.305 197.493L238.381 196.913L239.256 196.898L239.438 197.208L238.654 197.856ZM205.714 176.792L206.165 176.879L206.692 176.625L207.741 177.364L207.862 178.019L207.059 178.97L206.915 179.512L206.544 179.739L206.362 181.477L206.567 181.928L208.059 182.599L208.407 183.868L208.51 185.932L209.252 186.455L208.657 186.777L208.627 187.458L208.782 187.731L209.173 187.644L209.563 187.618L209.26 188.811L210.017 190.474L209.832 191.057L209.4 191.402L209.464 191.663L209.824 191.769L209.661 192.057L209.722 192.936L209.911 193.11L209.767 193.887L209.411 193.553L208.968 193.583L208.593 193.936L208.252 194.068L207.839 194.102L207.237 194.633L206.873 194.553L206.839 193.458L206.301 193.72L206.013 192.898L205.513 193.875L202.934 192.466L201.525 193.762L199.991 193.159L198.998 193.284L198.964 191.822L198.669 191.94L198.426 191.458L198.79 191.515L199.07 190.887L199.396 187.72L200.146 187.239L200.101 186.076L201.953 185.474L202.388 185.833L203.419 185.371L203.832 184.784L204.419 182.583L203.631 180.762L203.029 180.443L202.801 179.845L202.9 178.83L201.373 176.36L201.567 174.534L204.642 175.299L205.714 176.792ZM222.737 156.955L223.688 157.33L224.794 157.489L226.684 159.22L227.945 159.387L229.286 159.981L230.415 159.833L232.604 160.155L234.782 161.235L238.264 164.602L239.207 165.038L239.101 165.254L238.707 165.197L238.764 165.705L238.351 166.121L237.775 167.504L236.055 169.14L235.078 171.277L234.154 174.303L233.892 174.773L233.907 175.364L233.612 175.993L234.945 179.235L235.089 179.724L236.502 182.89L236.756 186.269L237.271 186.993L237.729 188.462L237.544 189.735L238.006 191.125L236.915 193.674L237.309 194.133L237.173 194.333L237.127 195.197L237.453 195.481L237.718 194.837L237.957 194.758L238.07 194.28L239.161 195.015L238.881 195.231L239.085 195.33L238.555 195.765L237.748 195.496L237.71 195.724L238.067 195.993L237.525 196.095L237.65 196.379L237.684 197.046L237.889 197.057L237.987 197.508L237.635 198.602L235.987 200.068L236.051 200.356L236.013 200.451L235.779 201.012L235.498 201.523L235.184 201.167L234.979 201.311L235.04 201.69L235.218 201.515L235.495 201.652L235.203 202.114L235.12 202.296L234.347 202.981L234.366 202.417L233.192 202.743L233.051 202.606L232.388 204.11L232.601 204.5L232.904 204.572L232.229 205.883L229.991 205.546L229.854 205.072L229.813 204.879L228.097 204.724L227.483 204.894L227.513 204.663L227.983 204.583L229.794 204.803L229.676 204.523L227.578 204.432L227.347 204.909L227.21 204.606L226.597 204.75L226.301 205.091L226.358 205.227L226.612 204.996L226.745 205.087L226.972 204.943L227.036 205.243L227.335 205.121L227.46 205.352L225.551 206.489L225.203 206.182L225.131 206.095L224.184 205.208L221.498 204.352L220.987 203.887L219.252 204.652L218.832 203.989L217.794 204.303L217.495 205.519L214.885 204.754L215.26 202.773L214.752 202.799L214.805 201.375L214.4 199.36L216.237 197.765L217.631 197.86L219.661 195.894L217.756 194.186L218.188 193.019L218.426 192.943L217.457 191.97L215.271 192.315L214.362 191.428L213.252 190.928L212.214 189.727L211.199 189.155L210.37 188.625L210.623 187.447L210.097 186.58L209.824 184.743L209.532 184.803L209.184 184.163L209.317 183.985L209.165 183.458L208.718 183.284L208.96 181.985L209.889 181.792L210.021 180.159L209.434 179.402L208.957 178.061L209.044 176.708L208.589 175.296L207.71 173.705L207.464 172.485L207.104 172.534L206.745 172.409L206.373 172.057L205.945 171.985L205.301 171.818L203.87 172.614L203.589 173.095L203.017 173.405L200.786 174.167L199.763 173.864L199.506 173.905L199.487 174.178L198.839 173.769L198.32 171.815L198.949 170.909L200.907 169.849L206.979 165.818L209.786 163.174L215.923 158.599L216.805 158.125L221.567 156.618L222.123 156.754L222.752 156.599L222.737 156.955Z" fill="#CCCCCC" stroke="white" stroke-width="0.5"/>
<path d="M118.881 190.182L118.574 192.254L118.423 192.538L117.798 192.803L116.411 192.19L114.635 192.307L113.999 191.849L113.987 191.5L114.726 190.928L116.059 191.163L117.427 190.784L117.26 190.171L117.733 189.428L117.62 189.004L118.006 187.936L118.536 188.898L118.881 190.182ZM106.339 184.603L106.68 184.621L107.014 185.031L106.548 185.576L106.01 185.743L105.593 185.69L105.021 185.299L104.688 184.519L105.563 184.121L106.339 184.603ZM10.7523 178.928L11.1425 179.36L11.0553 179.565L10.5932 179.296L10.0743 179.334L10.1462 178.724L10.7523 178.928ZM125.483 173.538L124.658 173.996L124.173 173.875L123.377 173.288L122.786 172.478L123.226 172.368L125.934 173.193L125.483 173.345V173.538ZM3.83564 168.515L3.99473 168.614L3.84701 168.89L4.0061 169.913L4.59322 170.746L4.47958 171.121L4.98716 172.129L5.0667 172.807L5.82807 173.398L5.77125 173.943L5.7561 174.265L5.64246 175.424L6.01746 175.75L5.91898 176.584L6.05534 176.97L6.00231 177.606L5.77504 177.89L6.46822 179.674L6.23716 180.481L6.53261 181.008L7.15004 181.413L5.97958 183.22L6.06291 185.008L6.79397 185.75L5.80913 185.932L4.92655 180.288L4.16519 172.822L3.72958 170.693L2.93413 168.799L3.83564 168.515ZM132.195 173.777L133.408 175.345L134.116 175.728L135.851 176.512L135.874 176.693L135.419 177.057L134.703 176.728L134.052 176.834L133.639 177.341L134.059 178.811L134.714 179.023L134.468 179.432L134.832 180.095L135.214 180.273L135.445 180.451L137.195 179.576L137.29 180.754L136.226 181.777L135.294 183.864L135.116 185.712L135.427 186.462L135.374 187.637L134.976 188.864L134.491 189.527L134.23 190.659L132.093 190.156L130.593 190.243L129.851 189.413L129.362 187.86L129.222 185.186L129.453 182.561L130.438 181.432L131.911 181.307L132.267 180.966L132.783 179.777L133.154 177.432L132.839 176.307L132.014 175.228L130.87 174.5L129.771 174.652L129.411 174.061L128.995 171.989L129.059 170.663L131.135 168.466L131.635 172.409L132.195 173.777ZM31.2144 113.875L30.9379 114.296L30.6803 114.11L30.3659 114.25L30.4569 114.72L30.9606 114.97L30.0212 116.591L29.8697 117.671L30.1803 118.273V119.284L29.3129 120.258L29.1425 120.156L29.8394 119.284L29.3849 118.39L29.4 117.667L28.9114 116.531L30.3394 113.959L31.2144 113.875ZM27.4038 103.728L27.8205 104.542L27.3015 105.042L27.0553 106.413L26.7069 106.951L27.4682 108.167L28.0553 108.413L28.3432 107.985L28.2031 107.371L27.5023 107.084L27.6917 106.989L27.8432 106.186L28.4076 106.334L28.9076 106.099L29.8962 106.565L30.4531 106.296L30.2712 107.049L29.8091 107.72L30.1917 108.33L29.9152 109.409L30.3356 110.197L28.8622 108.754L28.0705 108.667L28.1311 109.853L27.8773 111.682L27.6349 112.065L25.6576 112.129L24.6387 112.799L24.6803 113.432L25.6728 113.822L26.0402 114.125L25.847 114.25L24.544 113.974L24.2106 113.368L23.8281 113.167L23.6311 112.152L23.1576 111.663L22.6387 109.546L22.1576 108.913L21.4266 108.512L20.8962 107.656L20.0478 107.049L19.1841 106.034L18.0175 105.455L18.0781 104.936L18.5516 105.027L18.7069 105.398L19.15 105.44L20.1159 104.508L21.4531 104.065L22.2523 104.269L21.8319 104.273L21.8053 104.807L22.1766 105.307L22.9569 105.818L23.4038 105.777L24.5023 105.061L25.097 104.224L25.7372 104.262L26.0288 103.758L26.9266 104.049L27.2031 103.481L27.3887 103.47L27.4038 103.728ZM188.165 99.0268L188.855 99.201L186.434 100.928L184.836 103.178L184.245 103.64L183.086 103.849L182.351 103.659L181.514 101.936L181.025 101.156L180.741 101.049L182.017 100.125L183.695 100.44L188.165 99.0268ZM52.7599 92.8184L55.169 94.4548L54.8849 95.1555L55.0743 96.0192L56.1462 98.7843L58.2599 101.303L58.4417 101.856L56.9682 102.746L56.3129 103.553L55.5819 104.746L55.4379 105.777L54.3584 105.686L54.5061 107.659L54.7788 108.015L54.0288 107.879L53.6425 108.084L52.1273 109.565L51.6538 111.095L51.4985 112.807L51.6122 113.534L51.9531 114.409L52.15 114.978L52.0023 115.288L52.2334 115.667L51.8849 115.803L52.2902 116.284L53.2599 116.277L54.0856 115.103L54.3508 114.163L53.9606 113.156L54.2523 111.887L55.294 111.413L55.7599 112.068L56.3622 112.19L57.2068 111.231L57.2144 110.379L55.8962 110.644L55.0478 110.239L56.4796 108.955L57.2068 106.921L57.4569 107.243L57.4417 107.853L57.1879 108.11L57.1425 108.803L57.5894 109.674L58.2144 110.114L58.9985 110.174L60.3015 109.322L61.0212 109.584L63.1008 109.478L62.7864 109.614L63.0175 109.985L63.5175 109.754L64.1728 110.072L64.7372 111.288L64.4796 111.269L64.3205 111.746L64.4606 111.936L62.972 112.955L62.7182 112.822L62.6122 113.799L62.1197 114.637L62.6349 114.868L62.9114 116.375L63.6462 117.459L64.7561 118.462L65.4303 118.481L65.0212 119.034L64.9909 119.712L65.3735 119.595L65.3508 119.273L66.9038 117.796L67.8167 118.049L68.3129 118.436L68.6425 118.318L68.4303 116.769L68.5553 115.796L68.8962 115.337L68.5478 115.209L68.0061 115.379L66.9985 116.186L65.4531 116.735L64.8015 116.621L64.294 115.576L64.8432 112.576L64.8735 111.981L64.5553 111.633L65.1008 111.39L65.5515 110.621L65.7258 109.799L65.6008 108.909L66.0402 108.368L66.2826 107.205L66.0023 105.307L67.8091 105.383L68.4 106.216L70.0061 105.955L69.9455 107.087L71.8243 108.424L73.1235 108.663L74.2599 105.076L75.0629 105.015L75.222 104.337L76.7864 104.504L76.9834 104.625L76.6538 105.36L76.8773 105.565L77.1917 105.417L77.2599 105.837L77.4682 105.792L77.6387 106.148L76.9568 106.792L77.1046 107.341L79.0364 107.572L78.8243 108.845L80.5591 109.436L82.0629 109.144L84.4038 109.478L84.6917 110.818L83.0364 111.383L82.9872 114.087L84.7561 113.121L86.6273 113.595L88.6046 116.417L90.9682 115.826L92.9076 116.887L95.3281 116.353L95.5099 115.049L95.8243 114.625L96.6311 114.686L98.9909 113.978L99.544 112.493L100.555 113.034L103.87 112.019L106.252 110.364L107.745 109.924L108.199 108.693L108.131 107.773L109.976 107.224L109.889 106.042L111.983 104.709L111.851 104.144L112.415 104.383L114.858 102.834L115.654 102.815L116.567 103.292L117.48 102.959L117.892 102.561L119.408 102.523L120.165 103.345L120.695 106.307L120.116 106.368L120.002 106.652L120.548 107.837L120.491 108.466L119.669 109.974L117.294 111.296L116.472 112.993L115.536 113.292L114.586 114.258L114.427 115.137L114.014 116.095L113.695 116.478L113.252 116.443L112.934 117.584L113.601 121.326L112.839 123.89L112.529 124.114L111.26 124.273L108.408 125.557L107.911 125.375L107.779 124.818L106.264 124.648L105.574 124.837L105.642 125.027L104.506 125.163L103.874 125.61L103.51 125.765L101.392 125.633L100.214 126.754L100.586 126.637L101.063 126.076L101.449 125.693L103.533 125.879L105.108 125.205L106.366 124.989L107.525 125.315L108.586 125.769L111.438 124.379L112.082 124.364L113.177 124.012L114.764 124.674L117.097 124.515L116.987 124.341L115.62 124.174L114.779 124.277L114.218 124.046L113.885 123.515L113.843 122.996L113.927 121.496L113.892 121.182L113.942 120.034L113.752 119.682L114.059 117.69L114.362 117.061L114.927 116.765L114.945 116.012L115.995 114.371L116.741 113.978L117.544 112.955L117.533 111.447L117.964 111.512L118.374 112.046L118.817 112.049L119.669 112.553L119.847 114.277L120.218 115.152L121.491 117.031L122.957 118.481L124.086 119.246L128.286 120.398L131.036 120.258L136.866 118.811L139.158 118.709L140.555 118.515L141.904 118.027L143.411 118.08L144.195 118.485L145.544 118.724L146.839 119.959L147.669 122.853L148.809 123.447L149.673 124.322L150.173 124.474L151.48 125.762L151.624 126.553L151.908 126.834L151.745 127.61L151.218 127.595L150.699 128.023L150.177 129.174L150.392 129.398L150.249 130.125L150.302 130.39L149.93 130.667L149.976 131.796L149.627 133.099L149.616 136.417L147.408 139.47L146.942 140.542L145.688 141.334L145.283 141.917L144.203 144.576L143.173 145.803L141.915 146.193L141.059 146.993L140.438 148.118L140.169 149.337L140.468 151.822L139.124 155.406L137.809 155.466L137.336 155.027L137.214 154.171L136.783 153.887L135.502 152.815L135.108 151.913L135.097 151.152L135.392 151.068L136.029 151.534L136.495 151.341L136.771 150.913L136.722 150.44L137.184 149.565L137.029 148.678L136.491 147.868L136.04 147.527L133.908 147.307L133.207 147.47L132.404 148.106L131.896 149.197L131.934 149.693L131.18 150.228L130.15 151.69L129.642 153.334L130.173 154.459L130.635 154.879L130.987 157.072L130.892 158.099L130.271 159.163L128.563 159.856L126.915 155.625L127.427 155.023L128.779 155.129L129.4 152.974L128.98 152.538L128.142 152.773L128.192 152.981L127.495 152.731L126.286 151.83L125.449 151.682L124.631 152.076L124.438 152.784L123.68 153.504L122.358 153.512L121.51 152.909L121.184 151.277L120.464 150.667L119.972 150.743L119.851 150.531L119.983 149.845L120.555 150.061L123.002 149.262L123.283 148.815L123.154 148.322L123.521 148.118L124.033 148.277L124.082 148.019L124.76 148.137L123.98 149.084L124.468 149.818L125.4 149.932L125.707 150.212L126.124 150.031L126.9 149.288L126.245 148.012L126.396 147.58L126.18 147.254L125.714 147.148L125.226 147.709L125.135 147.326L126.017 146.148L126.608 145.788L127.048 145.046L127.127 144.307L127.499 144.114L128.294 144.193L128.362 143.784L128.01 143.428L128.188 142.94L126.908 142.197L126.506 143.125L126.139 143.004L126.574 142.432L125.76 142.406L125.499 142.171L125.646 141.209L125.457 141.015L125.078 141.394L124.146 140.981L123.529 141.538L123.586 141.398L123.154 141.239L122.775 141.409L122.165 141.254L121.764 141.565L121.695 141.932L122.112 142.61L121.408 143.409L120.658 143.212L119.828 144.065L119.881 145.084L120.214 145.47L119.722 145.898L119.48 145.648L119.389 146.712L117.745 147.565L116.726 149.125L116.43 149.981L115.271 150.478L114.423 151.224L113.62 152.955L113.9 153.228L113.173 153.966L113.002 153.826L112.976 154.481L113.673 153.955L113.218 155.459L114.404 154.781L114.582 154.47L114.339 154.262L114.646 153.898L114.874 154.296L114.722 154.443L114.889 154.716L113.646 155.674L112.923 155.697L112.695 156.027L112.957 156.701L113.646 157.47L114.199 159.148L114.737 159.996L115.336 162.97L115.934 164.231L115.938 164.924L115.745 166.443L115.154 166.746L115.082 166.265L114.559 166.428L113.661 167.568L112.953 167.86L113.249 168.072L114.218 167.83L114.885 166.75L115.211 166.845L115.487 166.603L116.154 166.549L116.491 166.83L115.908 167.39L115.021 169.402L114.983 170.648L115.688 172.674L115.245 175.315L115.241 177.065L114.211 177.371L112.62 179.322L111.817 179.409L111.923 180.837L112.377 181.394L112.476 181.902L112.343 182L111.828 182.542L112.146 183.553L111.847 183.94L110.093 183.103L109.199 182.065L109.036 181.656L109.313 180.591L108.714 179.871L108.514 180.417L107.98 180.811L107.809 181.443L108.059 181.587L107.999 181.834L107.211 181.671L106.014 182.853L104.578 182.993L103.767 183.432L103.692 182.603L104.82 180.928L107.714 181.44L107.908 180.784L107.589 180.334L107.529 179.728L105.502 179.584L105.036 179.993L103.669 180.36L102.612 180.394L101.669 179.928L100.415 179.962L100.097 180.038L99.7599 181.167L100.029 181.485L100.002 181.924L98.2258 181.686L97.3584 182.023L96.1084 180.902L96.1765 180.428L96.6273 180.383L96.4606 180.174L95.5061 179.951L95.0099 180.246L94.7864 179.974L94.1046 179.966L94.1803 180.345L95.1008 180.599L96.0288 180.383L95.9568 180.746L96.2826 181.387L95.5023 181.603L95.1879 182.125L95.1993 182.5L95.3546 182.985L95.4947 183.068L96.1008 183.462L98.9569 184.341L100.105 184.436L100.434 184.758L101.745 185.065L102.18 184.989L102.783 184.171L102.938 184.512L102.601 184.924L102.866 185.095L102.491 185.796L103.358 185.22L104.392 185.224L104.548 185.406L104.552 185.879L105.214 186.652L102.794 189.216L102.605 189.686L102.669 190.61L103.078 191.258L105.794 191.799L106.067 192.481L104.582 192.455L103.658 193.493L102.624 193.614L101.82 194.106L101.745 194.947L102.589 195.417L102.764 195.246L103.317 197.004L102.419 196.561L100.476 197.137L97.6311 197.349L95.5705 197.928L94.5591 198.394L93.669 199.159L92.2712 199.576L91.7068 198.735L90.4038 198.402L88.4606 198.504L87.0402 196.951L86.8394 196.447L86.0061 196.409L85.6993 196.027L84.5629 195.565L85.2182 193.36L85.0629 192.099L83.5137 191.159L83.2978 191.69L82.0781 191.281L80.9038 191.864L79.9985 190.743L80.6197 189.917L80.044 189.137L79.7182 189.75L77.6122 189.887L77.6993 188.924L76.6159 188.731L75.9303 186.447L75.7523 184.887L74.6614 184.86L74.6841 184.36L72.794 184.174L73.2296 182.746L72.419 182.394L73.4682 181.64L69.6046 176.303L69.7599 176.216L69.5894 175.705L69.6084 175.508L67.6311 174.436L67.4417 174.693L67.4493 174.72L67.1955 174.871L67.0023 175.076L66.1652 174.86L65.6046 174.443L65.2712 174.644L64.0743 174.515L62.8394 173.095L60.8584 172.981L59.5894 175.22L59.6197 176.527L57.222 179.625L55.525 180.955L54.4644 180.216L53.8129 181.174L53.0781 183.269L52.4455 182.69L51.7902 184.019L50.9417 183.633L49.8584 184.557L47.1614 183.171L47.5667 179.504L43.1614 178.493L43.0364 178.674L42.3015 178.523L41.8016 179.936L40.9644 179.792L40.1008 182.989L38.597 183.89L40.2902 185.603L36.7372 186.841L34.8243 186.118L34.0705 183.89L32.4038 182.909L28.044 184.159L26.8319 182.97L24.8622 183.576L25.597 185.33L25.1008 186.193L23.8394 186.455L23.9038 188.568L22.8962 189.572L20.5212 189.603L20.0667 188.519L18.7258 187.834L19.1955 187.5L16.8849 187.269L15.3546 185.337L13.8356 187.322L11.8622 187.277L11.5894 187.656L11.1841 187.678L9.79398 186.337L8.70307 185.743L8.74852 184.943L6.90004 184.447L6.40382 184.565L6.78261 183.095L6.62352 183.087L6.6917 182.686L7.30913 182.546L7.93034 181.595L7.76367 181.33L7.6917 181.091L7.86594 180.743L7.18413 180.121L7.35458 179.894L7.55155 180.042L8.11594 179.906L7.73337 179.262L7.93034 179.091L7.7561 178.614L8.05155 178.341L9.13867 178.542L9.1614 178.966L8.66519 178.917L9.31291 179.746L9.22579 179.909L9.72958 180.239L9.99852 180.171L9.98337 179.724L10.5402 179.576L10.9606 179.788L11.1235 179.614L11.6273 180.091L10.6349 181.239L10.775 182.334L10.5023 183.053L11.1235 183.508L11.419 182.822L11.6728 182.712L12.5288 182.243L12.8356 181.811L14.1273 180.97L14.4834 180.231L15.6879 178.856L16.9569 177.921L17.0819 177.591L16.8546 176.856L16.3622 176.402L16.7069 175.97L16.65 175.341L16.6728 174.512L16.6955 173.837L16.3319 173.561L16.2637 173.186L16.0326 172.811L15.5856 172.349L15.0137 171.629L14.419 170.981L13.3811 169.103L13.0553 167.436L13.169 166.197L12.8281 165.159L13.0856 163.853L12.9228 163.315L11.4682 162.292L9.91898 160.799L9.07428 160.057L5.77882 158.868L5.39625 158.924L5.26367 158.618L3.62352 157.652L4.29019 158.421L4.30155 158.943L4.64625 159.462L3.95685 160.371L3.86216 160.826L3.6311 163.265L3.7561 163.943L3.47958 165.22L4.0364 167.883L4.54019 168.049L3.73716 168.402L3.3167 168.22L3.40382 168.519L2.97579 168.803L2.13867 164.625L2.43791 158.864L3.72201 149.023L3.80913 145.262L2.96064 133.807L3.14246 133.803L3.80155 133.834L3.97201 134.046L3.43034 133.981L3.29397 134.25L3.9114 134.159L4.18034 134.5L3.7864 135.156L3.83185 135.841L3.55155 135.97L3.69928 137.898L4.57807 137.656L4.74852 137.531L5.51746 137.068L5.69928 138.364L6.89625 138.015L7.74473 138.648L9.33943 138.523L9.19928 139.201L9.66519 140.383L9.11216 140.678L9.65382 141.515L10.0364 141.678L11.0743 140.834L11.4152 140.784L12.1462 139.25L12.6955 138.716L12.7031 138.417L12.1349 138.936L11.775 138.576L10.5478 138.216L10.3697 138.118L10.2372 137.815L9.90382 137.743L10.0478 137.387L10.4341 137.299L10.097 136.14L9.56291 135.815L9.55913 135.406L9.25231 135.065L8.30534 134.288L7.36973 133.871L6.61973 133.019L6.35079 132.087L5.65761 131.095L5.66519 130.008L5.37731 129.871L5.73716 129.496L5.47201 127.735L4.5667 128.061L3.75231 127.383L3.67276 127.924L3.36973 127.849L3.68413 128.318L3.77125 129.034L3.60458 129.413L3.30913 129.459L3.59322 130.273L3.28261 130.413L3.71443 130.686L3.26746 131.114L3.72958 131.148L3.95685 132.08L3.37352 131.981L3.75231 132.489L3.23716 132.989L3.71064 133.129L3.67276 133.527L2.87731 133.686L3.40382 124.14L2.91519 120.894L2.89246 119.299L3.32807 116.084L5.70685 106.44L7.49473 102.421L8.01746 101.796L8.50231 101.981L8.50988 102.341L8.27504 102.485L8.55155 102.754L8.70307 102.909L8.61216 103.633L8.49094 103.69L8.61973 104.152L8.91897 104.265L7.5667 105.932L8.26746 106.928L7.65382 107.205L7.11594 106.879L6.66519 109.103L7.29776 108.921L8.95307 109.716L8.99852 110.087L8.77504 110.22L8.98716 110.432L8.93413 111.538L9.27125 111.523L9.65761 111.97L11.0743 112.364L12.1387 112.258L12.65 112.606L12.8697 113.318L11.8887 113.368L11.6841 113.621L11.7826 114.246L12.5478 115.47L12.2788 115.765L12.3962 116.58L12.7372 116.879L12.9909 116.807V114.837L14.0743 114.254L15.2902 114.504L17.1766 114.156L22.4228 116.671L23.4152 117.629L23.8281 117.728L24.8129 117.167L25.9228 115.743L26.5212 113.97L26.5932 115.735L27.0591 116.481L26.9228 117.542L27.5326 117.996L28.5061 119.902L28.1008 120.228L27.4152 121.648L27.5288 122.087L27.3015 122.072L27.1955 121.296L26.5894 121.118L25.7106 121.402L25.3129 121.981L25.5061 122.349L25.2485 122.951L24.5629 122.864L24.294 123.163L24.6387 123.406L25.5819 123.224L25.6159 122.493L26.0402 121.822L26.7296 122.231L27.8167 122.152L28.2182 122.356L28.4266 122.193L28.2258 122.046L28.9038 121.644L28.9076 123.042L29.4606 124.072L30.8584 124.758L31.3508 124.754L35.1728 123.693L35.4947 123.364L35.8205 121.644L35.6538 119.621L35.3205 118.656L36.0099 117.462L36.5364 117.171L36.7788 116.652L36.2485 115.462L34.9341 114.674L33.5099 113.254L33.0402 111.508L32.2069 111.167L32.525 109.716L33.1425 109.538L33.9455 109.936L34.9493 109.924L36.5478 108.353L37.4228 106.951L37.9531 105.068L39.4531 103.174L39.9 103.129L40.6917 103.875L41.15 103.799L41.4834 103.262L42.3773 103.455L42.3659 102.822L43.0023 102.44L43.5932 103.356L44.3622 103.277L44.9947 102.746L44.8205 101.906L44.1159 101.625L43.4606 101.894L43.1993 101.019L42.7637 102.144L42.0629 101.508L41.4341 101.94L40.1728 102.159L40.0819 101.974L41.597 98.5078L42.5061 97.5002L42.0629 96.5268L42.7485 96.6366L43.1576 96.4624L44.7258 95.3942L45.4114 94.273L47.3773 92.9283L49.6652 94.0798L50.4152 94.3374L50.9379 94.5987L51.3205 94.4586L51.3735 94.076L50.9379 93.8828L51.0326 93.504L50.5819 93.0836L51.5705 92.9321L52.1387 93.1139L52.7599 92.8184ZM51.2561 88.6328L53.1917 88.9207L52.775 89.0798L52.3622 89.6139L52.4947 90.2427L53.3281 90.3563L52.6387 91.2124L52.1387 91.4245L51.722 91.1366L51.0856 91.4396L50.8167 91.273L50.4606 92.023L50.4341 92.7464L49.7637 92.9245L49.775 93.4813L48.1425 92.0154L47.3622 90.3639L46.6652 89.9358L46.9493 89.5154L51.2561 88.6328Z" fill="#CCCCCC" stroke="white" stroke-width="0.5"/>
<path d="M25.3848 102.992L24.5363 102.765L24.6689 102.367L25.2143 102.208L25.3848 102.992ZM54.0779 85.2121L53.3166 84.8561L52.8242 84.1591L53.5552 83.0644L53.8204 83.0417L54.5855 84.5189L54.3696 85.3371L54.0779 85.2121ZM44.5704 78.1742L44.4113 79.1061L45.2029 81.7689L44.4832 82.75L43.5817 86.803L43.2029 87.2765L43.3961 86.5644L43.3052 85.3258L42.8961 85.2311L42.487 85.4811L42.5817 85.9205L42.0098 85.4015L42.1613 85.0114L41.8961 84.7841L41.0742 84.9242L40.9302 85.4015L40.2749 86.4015L40.2257 86.9205L40.7939 88.0341L40.987 89.8977L41.5249 91.2121L42.6802 92.4659L42.934 93.6098L42.8469 94.5L42.5098 93.5795L42.1386 93.5189L41.9719 93.8636L41.6613 93.8333L41.6082 94.2992L42.1764 94.8182L41.0666 95.5189L40.8734 95.9621L40.6613 96.7159L40.8886 96.8144L40.7598 97.2311L40.9189 97.8901L40.5628 97.8977L40.3242 98.1705L40.3848 98.9129L39.6272 99.3599L39.3052 99.8674L38.7219 100.087L37.0931 102.273L37.4908 103.205L35.1764 104.345L35.1083 104.557L33.7408 104.33L30.5136 105.64L30.4643 105.121L30.1083 104.625L29.8848 104.261L30.1196 103.345L28.9075 102.057L28.9795 101.223L29.6764 101V100.75L29.4795 100.621L28.6992 100.867L28.3923 101.167L27.9302 100.958L28.1348 100.405L27.8242 99.6742L27.1348 99.7008L27.0439 100.076L27.0666 100.477L27.7749 100.568L27.2749 101.015L27.7484 101.83L26.3166 102.39L26.256 101.943L25.8772 100.902L25.9075 100.667L26.9719 100.458L26.7295 99.947L25.1461 98.8068L23.8317 100.197L23.2029 100.504L23.3923 99.7008L23.2484 98.9773L23.5817 98.1932L24.3582 98.0265L25.2749 97.2008L25.8204 97.3864L26.1045 97.0795L25.5363 94.75L25.1461 94.3409L25.7522 93.9545L25.987 94.428L26.3317 94.4621L26.9605 93.5833L27.5855 93.4773L29.3545 93.9129L31.6916 92.5871L31.7673 91.7576L31.5439 91.4924L28.7749 91.0114L28.7787 90.6326L29.4226 89.875L30.3772 90.1894L30.7673 89.9394L30.7976 89.3674L29.9151 89.375L30.8166 87.8788L30.756 86.4621L30.5098 85.9394L30.6537 85.5417L30.2484 85.0189L31.9416 84.4697L32.8961 84.7538L34.8848 84.375L35.4226 84.6212L36.4984 83.75L37.6348 83.6894L38.4075 83.2689L39.6613 83.2045L40.1007 82.3977L40.362 80.5985L41.4454 79.3295L41.8848 78.1742L42.3317 78.7348L43.3734 78.5265L43.8734 78.7008L44.987 77.4053L45.112 76.3864L45.4226 76.4091L45.3355 77.3068L44.5704 78.1742ZM94.2105 68.625L93.4492 68.7765L92.4567 68.322L92.0893 67.9356L91.9189 67.0417L93.4416 66.7311L94.2484 66.9205L94.5742 67.4318L95.1423 67.7652L95.131 68.0189L94.2105 68.625ZM102.953 66.5947L103.62 68.0947L105.104 69.2727L104.983 69.7008L106.551 70.5492L108.082 71.9432L108.858 73.0795L111.695 75.1515L113.794 75.947L117.449 75.5833L117.336 77.2311L116.854 77.2348L116.483 77.875L116.873 78.0341L116.945 78.2879L115.93 79.8977L115.396 84.1439L115.623 84.9697L115.892 90.4205L116.146 92.7689L117.271 97.4356L119.135 100.394L119.108 101.845L118.68 102.239L117.392 101.595L114.934 101.417L113.567 100.731L113.161 100.765L112.339 101.515L112.131 102.087L111.313 102.348L110.347 101.852L110.104 101.258L110.188 100.773L109.658 100.788L109.18 100.674L107.169 101.678L106.93 102.587L106.002 102.989L105.972 103.212L105.604 103.227L105.43 102.731L104.873 102.436L103.896 102.75L103.703 103.121L102.957 103.159L102.362 103.913L102.453 104.413L100.915 104.655L99.7484 105.894L98.987 105.792L99.3885 106.64L98.9416 106.428L98.3204 106.761L98.2295 107.045L97.9681 106.917L97.2635 107.284L96.2181 107.186L95.7522 107.436L94.006 107.432L93.5817 107.795L92.3204 107.746L91.1613 108.473L91.5742 108.58L92.059 108.333L93.6537 108.61L94.3242 107.92L95.5514 107.943L96.6613 107.648L96.7939 107.841L97.7484 107.811L98.5098 107.402L98.9567 107.621L99.5552 107.409L99.9908 106.883L100.756 107.11L100.949 106.723L100.741 106.595L101.29 105.943L101.752 105.932L102.214 105.356L102.673 105.538L103.313 105.231L103.354 104.739L104.313 103.519L104.752 103.436L105.684 104.307L106.229 104.258L107.54 102.955L107.631 101.894L107.9 101.405L108.207 101.72L108.854 101.674L109.703 102.201L110.275 102.053L111.851 104.121L111.983 104.686L109.889 106.023L109.976 107.205L108.131 107.754L108.199 108.674L107.745 109.905L106.252 110.345L103.873 112L100.559 113.015L99.5476 112.473L98.9946 113.958L96.6348 114.667L95.8279 114.606L95.5136 115.03L95.3317 116.333L92.9113 116.867L90.9719 115.807L88.612 116.398L86.6348 113.576L84.7635 113.102L82.9946 114.068L83.0439 111.364L84.7029 110.799L84.4151 109.458L82.0742 109.125L80.5704 109.417L78.8355 108.826L79.0476 107.553L77.1158 107.322L76.9681 106.773L77.6499 106.129L77.4795 105.773L77.2711 105.818L77.2029 105.398L76.8886 105.545L76.6651 105.345L76.9946 104.61L76.7976 104.489L75.237 104.322L75.0779 105.004L74.2749 105.064L73.1385 108.652L71.8393 108.413L69.9605 107.076L70.0211 105.943L68.4151 106.205L67.8242 105.371L66.0173 105.295L65.2673 103.36L64.6537 102.826L64.0401 102.758L63.1007 103.091L62.4643 103.682L61.6083 103.723L60.9984 104.409L59.6651 105.011L58.7939 105.894L58.4757 105.973L57.7825 105.239L57.6234 104.75L57.6537 104.295L58.4302 103.905L59.3242 102.53L59.5742 102.523L60.7749 101.284L61.6954 99.7311L62.0363 98.3068L61.8961 97.3409L61.4302 96.8106L59.7143 96.1932L59.0363 96.4583L58.9378 96.2765L59.1234 94.3523L58.4037 92.6212L58.0931 92.5114L59.1726 91.0265L60.1954 89.0758L60.3279 87.2197L59.737 86.0492L58.0628 84.9015L57.9454 84.2538L58.612 81.8674L59.5931 80.7311L59.684 80.0985L60.506 79.6667L61.256 78.7652L61.987 77.125L63.8166 76.5568L64.1348 76.1212L64.3772 74.6439L64.7939 74.1174L65.0931 74.2197L67.8204 73.1705L71.6992 72.2955L74.9264 72.428L76.0287 72.6932L78.8923 74.2197L79.862 75.1023L79.0969 75.9886L78.9037 76.7917L79.2825 77.7879L78.9075 78.2462L78.4719 77.3106L78.1083 77.25L77.4795 78.197L78.2257 80.0379L78.6196 80.3106L79.0401 81.1098L79.2257 81.0492L79.5704 78.8636L79.4189 77.9962L80.3885 77.3523L81.059 77.3598L81.7711 76.875L82.3658 75.178L82.8658 75.0265L84.4605 72.8977L84.4151 71.6705L84.6045 71.1174L84.8885 70.6477L85.8923 70.0265L88.309 69.5568L90.0893 68.9432L93.4984 69.8068L94.8204 68.7424L95.3696 68.5417L96.1385 68.4015L96.8999 68.4508L98.0401 69.2462L98.809 69.1894L99.559 68.8826L100.389 67.3674L101.593 66.4356L102.953 66.5947ZM153.707 54.3523L153.472 54.3068V53.9432L154.131 53.6402L153.707 54.3523ZM155.9 53.4242L156.116 53.7008L155.877 54.2576L154.29 54.4962L153.938 54.7311L153.737 54.4659L153.839 53.9697L154.309 53.5871L155.51 53.303L155.9 53.4242ZM149.741 50.7348L148.782 50.7841L148.43 50.2386L148.612 50.1212L149.741 50.7348ZM146.851 48.7576L146.987 49.0303L147.154 48.9886L147.248 49.1023L148.9 51.1288L148.548 51.0795L146.752 48.9167L146.642 48.4735L147.067 48.5758L146.851 48.7576ZM164.567 43.0455L164.264 46.4318L164.063 46.3485L164.275 45.6212L164.165 45.1553L163.639 44.875L163.87 44.0947L163.078 44.8144L163.04 45.1477L161.862 44.9205L160.654 45.2652L160.192 45.1591L158.195 46.1402L157.911 46.6477L158.074 46.9129L159.006 47.0568L158.904 48.6098L158.593 49.4697L157.559 50.6174L155.237 50.4167L154.771 50.5909L157.631 50.7765L157.211 51.3523L154.354 52.9545L153.574 52.7652L152.896 53.125L152.521 51.8561L152.328 51.7614L152.407 51.4356L151.328 51.1818L151.43 50.8258L151.063 50.3598L150.086 50.1439L149.453 50.428L147.741 49.572L147.396 49.1288L147.419 48.4053L149.161 47.0038L149.983 45.5909L151.362 44.7689L152.279 44.7652L152.801 44.3977L154.006 44.5606L154.654 44.3826L155.237 43.4583L155.673 43.2008L157.29 43.3068L160.362 43.0833L160.926 42.947L161.817 42.2803L163.04 42.6932L164.476 42.7424L164.567 43.0455ZM133.301 4.06061L132.885 4.44697L132.506 4.17803L132.188 4.44318L132.442 4.61742L131.919 4.56061L130.54 5.73485L127.282 9.81061L124.892 13.928L124.351 15.3826L123.934 17.9659L124.37 20.2576L125.112 22.2424L128.082 26.0492L128.059 26.6515L129.123 28.1667L129.711 28.5909L130.294 30.4091L130.555 30.5833L130.843 30.4394L131.07 30.697L130.782 31.4545L130.404 31.0417L130.248 31.2311L130.582 31.8068L130.12 31.4621L129.904 31.8523L130.275 32.0606L129.745 32.053L129.699 32.3333L129.377 32.3258L129.248 32.5947L129.362 33.7159L129.161 33.9735L129.18 34.8371L128.665 37.0189L129.055 40.7386L129.711 41.9205L129.4 42.2045L129.313 42.6932L130.271 47.6326L130.514 49.9356L130.354 52.0833L130.059 52.1742L129.32 53.1401L128.529 53.8106L127.536 54.2197L126.222 55.6439L124.858 57.5758L123.616 60.1553L122.748 62.4015L121.396 68.5152L121.37 69.2576L120.154 72.875L119.006 75.0379L118.04 74.7538L117.404 74.5341L115.953 74.7879L115.203 75.2727L113.324 74.9583L111.146 73.2841L110.657 72.5379L107.407 69.4583L106.593 68.8295L105.779 68.6477L104.017 67.1174L102.597 65.5758L101.873 65.3409L100.676 65.8333L99.3431 67.197L99.3545 68.4129L98.3014 68.8106L97.6764 68.6212L96.737 67.8864L96.2749 67.8939L95.0552 67.2424L94.6575 66.5947L93.1689 65.1894L92.6348 65.0606L90.5363 63.6136L90.0439 63.5265L90.006 64.0682L90.1992 64.25L89.9719 64.7992L88.9416 66.7992L89.0401 67.0455L88.309 67.5795L86.0666 67.9432L84.1802 66.7917L83.3923 67.0985L83.4113 66.0152L84.3961 65.7538L84.9757 65.0152L84.9984 64.7424L84.1954 64.8144L82.7257 65.4583L82.0476 66.1098L81.3128 66.7424L81.9416 67.3409L82.684 67.2348L82.9302 67.3939L81.987 68.0455L81.3279 69.1856L80.1045 69.1136L79.4302 70.0265L77.8545 69.6515L75.8848 69.6553L75.2787 69.9318L74.8583 69.5455L73.2067 70.2273L71.7711 70.3977L68.9567 71.678L67.7901 71.6894L65.4226 72.7879L64.9037 73.2235L64.3886 73.7954L63.1082 74.3333L63.1234 74.5644L62.7257 74.7121L61.5704 74.5455L60.9189 74.428L60.2484 73.9735L57.881 71.5795L56.2408 70.1553L52.4946 71.7652L52.3734 72.2955L51.5552 73.1742L51.0211 73.1136L51.006 72.1591L50.6537 71.7992L49.3317 71.9242L48.4416 72.2841L47.4908 73.6136L46.381 73.3333L45.4075 73.8788L44.6575 75.7197L43.881 75.7159L43.4643 74.7917L42.184 74.428L41.6272 75.1023L41.5173 74.3712L41.1386 74.4432L40.7408 74.5682L40.3204 74.6136L40.0969 74.7841L40.2749 75.2538L41.2067 75.9242L41.2446 76.5606L40.4833 76.8106L40.2522 77.1553L39.6045 77.1856L38.3583 77.803L38.0249 78.5568L36.7711 79.0795L36.1158 79.1326L35.0931 78.7045L34.559 78.8068L33.862 78.4583L33.1689 78.5189L32.1158 78.4773L31.8204 78.7083L31.2711 80.2462L31.5401 81.25L30.3772 82.3977L30.3658 83.5682L29.5931 84.6515L29.8961 85.7992L29.4984 86.3295L29.5363 86.6023L30.006 86.9318L28.8014 88.7386L28.7976 89.1061L26.9492 91.322L24.8242 91.4394L24.6878 91.6553L24.8582 92.5492L24.0439 92.4773L22.3658 93.4886L21.4037 94.8902L21.8469 95.8826L23.0401 97.4167L22.4567 98.1364L21.9113 100.473L20.8848 101.428L22.1726 101.068L22.9226 101.254L23.8582 101.277L24.0855 101.708L23.5817 102.75L24.2333 102.383L24.5136 102.595L23.7143 103.602L23.8166 104.625L22.5325 104.182L22.0173 103.436L20.6007 102.905L19.1537 103.64L19.2181 103.917L18.737 104.364L18.2522 104.155L18.0098 104.273L17.7901 104.928L18.0817 104.951L18.0211 105.473L15.4719 104.818L15.0628 103.345L14.6802 102.992L14.2143 101.905L13.434 101.182L13.0211 100.061L12.5098 97.125L11.612 96.0492L10.2749 95.2462L9.79764 102.186L9.80143 102.598L9.69537 102.807L9.33174 102.538L9.33552 101.496L8.77113 100.485L8.38477 100.462L8.58931 99.6136L8.77871 94.9356L9.25977 92.7311L11.0931 87.5454L15.7825 77.9508L16.7825 77.3788L18.3355 75.4015L20.3166 72.3295L21.3052 70.2273L21.7825 69.7273L22.559 69.7992L23.1726 69.4735L24.6764 67.7045L27.8166 62.4508L27.7522 62.2159L27.9113 62.0985L28.0779 62.1894L28.2219 62.428L29.3923 61.7879L29.7067 62.1061L32.4757 63.0038L35.6423 64.4167L36.434 64.4205L39.9946 63.5417L42.1499 62.6818L43.862 61.7311L46.9492 59.3485L48.2636 58.7879L49.4908 59.0114L50.8355 58.7083L54.6689 60.2045L57.0363 60.6288L59.0363 60.7121L62.5779 60.3182L63.9454 60.0152L66.0779 59.1174L68.506 58.928L70.1916 58.2424L76.8128 53.0455L77.5401 52.25L82.7598 44.4242L86.1651 38.1023L86.8166 37.3258L90.9151 27.9205L94.5325 24.1023L95.7787 22.3636L98.2673 17.5455L99.4984 16.2348L99.2711 16.7159L100.479 16.4697L100.491 16.2159L100.957 16.5833L101.801 16.75L103.199 16.8788L104.4 16.6894L106.203 16.9924L107.336 17L110.059 16.5303L114.529 14.7955L118.631 12.3371L129.051 3.18182L130.889 1.9053L131.885 1.42803L133.62 1L134.461 1.07197L135.597 1.74242L133.851 3.2803L133.301 4.06061Z" fill="#CCCCCC" stroke="white" stroke-width="0.5"/>
<path d="M180.578 269.016L180.328 269.285L179.999 269.103L179.499 269.421L180.215 270.44L181.207 271.035L181.253 271.436L180.65 271.137L179.26 271.493L179.037 270.398L179.794 270.16L179.469 269.603L179.298 269.656L178.916 269.281L178.866 268.963L180.578 269.016ZM167.919 264.989L169.457 266.012L170.798 267.989L171.184 267.902L172.215 268.197L172.938 268.671L173.025 270.391L174.177 271.671L174.999 272.216L175.552 272.277L176.116 272.811L176.654 272.838L176.431 273.463L176.76 273.705L177.476 273.281L178.366 273.5L178.65 273.879L178.4 275.133L178.601 275.648L179.037 275.489L179.912 275.769L179.927 276.387L180.908 276.22L181.972 276.588L183.177 276.603L183.715 277.103L185.018 276.822L185.177 276.474L184.294 276.156L183.51 275.076L183.673 274.497L184.169 274.504L184.696 274.023L186.01 274.815L187.044 274.463L187.529 273.966L188.256 273.921L188.215 273.375L187.787 272.898L188.078 271.201L187.438 270.228L187.484 269.807L188.673 270.053L188.878 270.406L189.332 270.523L189.953 271.398L191.431 272.474L191.844 272.66L192.984 272.429L193.268 272.732L192.836 273.266L192.722 273.841L193.378 275.675L193.885 275.705L194.957 276.394L195.469 276.36L195.006 277.41L195.075 278.648L195.908 279.319L196.01 279.785L196.488 279.792L196.631 280.057L197.162 280.186L197.783 281.046L198.684 281.633L199.041 282.076L199.014 282.819L199.025 283.232L199.389 283.747L199.442 284.997L198.488 285.667L198.476 285.913L197.783 285.944L196.84 285.167L196.991 285.538L196.802 286.235L197.23 286.629L196.404 287.016L196.654 287.584L196.859 287.955L197.601 288.463L198.416 288.834L198.738 288.641L199.169 289.088L199.086 289.667L198.041 289.853L198.764 290.557L198.078 290.985L198.541 291.394L198.173 291.372L196.927 292.023L197.817 292.705L197.332 292.879L196.995 292.713L196.897 293.141L196.48 292.997L196.219 293.322L195.256 292.929L193.726 292.675L192.874 292.758L192.279 292.523L192.556 292.125L192.139 291.413L191.851 291.648L192.022 292.345L191.381 292.682L191.006 291.936L190.147 291.535L189.207 291.777L188.942 291.345L188.7 291.743L188.878 291.944L188.594 292.19L188.488 291.951L188.181 292.144L187.692 291.732L187.041 291.69L186.991 291.978L186.491 292.057L185.942 291.997L185.059 291.508L184.643 291.701L185.056 292.038L184.953 292.148L183.495 292.035L183.45 292.326L183.927 292.675L182.976 292.728L182.927 293.258L182.578 293.766L181.457 293.872L181.184 294.186L180.15 294.182L178.275 296.345L179.904 297.451L180.378 297.459L180.809 297.785L181.453 297.724L181.692 297.436L181.715 297.788L180.919 297.947L180.238 297.8L177.522 296.129L175.408 294.36L173.389 293.235L172.488 292.459L172.124 292.398L169.696 289.629L167.9 288.163L166.522 287.565L165.95 287.538L164.684 286.766L160.044 284.894L156.897 283.959L154.253 282.538L152.15 278.913L151.734 276.459L151.934 276.072L152.253 275.921L153.272 276.648L152.207 276.103L152.109 276.341L152.434 276.678L152.431 276.989L152.094 276.849L151.878 277.216L152.181 278.754L152.643 279.584L152.923 279.625L153.097 279.504L154.01 279.508L154.541 279.122L154.813 278.599L154.495 278.118L153.317 277.375L154.154 277.459L154.889 277.94L155.177 277.807L155.647 278.338L156.063 278.345L156.465 279.406L157.787 279.341L158.298 278.697L157.662 278.05L157.745 277.304L158.59 278.281L159.003 278.171L159.313 277.338L159.98 277.069L159.851 276.504L160.563 276.629L160.802 276.466L160.669 276.171L160.226 276.379L159.654 276.137L158.961 276.296L158.919 276.516L158.522 276.027L158.222 276.182V274.959H157.73L157.643 274.243L157.037 273.762L157.298 273.019L156.488 273.182L156.51 272.482L156.283 272.349L155.866 272.947L155.703 272.902L155.673 271.875L155.374 272.288L155.044 272.008L154.934 271.228L155.571 269.008L157.268 267.66L157.866 266.682L158.461 266.372L158.817 266.595L159.7 266.508L160.166 266.86L160.385 267.36L160.393 266.713L159.961 265.982L160.264 265.75L160.885 266.167L160.931 265.538L161.613 265.747L162.325 265.133L162.859 265.239L163.639 264.701L167.919 264.989ZM175.624 263.91L176.423 264.451L177.684 264.292L178.703 265.451L178.768 265.788L178.669 266.243L176.798 266.095L175.328 268.118L175.078 268.182L174.916 267.834L173.575 266.928L173.105 264.913L172.658 264.917L172.427 263.944L172.851 263.932L173.268 264.338L173.397 264.72L173.234 265.031L173.495 265.675L173.813 265.633L173.866 265.107L174.025 265.103L174.851 265.368L175.26 265.822L175.499 265.766L175.624 265.345L175.457 264.474L175.624 263.91ZM198.075 264.735L198.571 264.94L198.768 264.978L200.109 266.201L199.893 266.614L200.669 267.254L200.738 268.156L201.484 268.591L202.131 268.701L202.287 268.546L202.431 268.144L202.537 267.929L202.601 266.504L203.022 266.902L203.991 266.55L204.779 266.622L205.51 267.182L205.359 267.519L205.51 268.716L205.859 269.413L205.711 269.769L206.696 270.55L208.086 270.921L208.783 270.86L209.563 271.201L210.325 270.769L211.476 271.197L212.828 271.357L213.181 273.129L214.681 274.936L215.188 276.152L214.87 276.671L213.563 277.209L213.158 278.523L212.597 279.243L210.749 280.307L208.62 283.167L207.828 285.478L207.325 286.273L205.851 287.561L204.991 289.144L204.499 291.379L204.476 292.826L205.147 299.553L204.969 301L202.192 299.637L202.465 299.152L202.453 298.955L202.275 299L202.325 297.819L200.844 294.728L199.817 293.235L199.484 292.19L200.082 290.19L200.131 289.269L201.238 287.974L201.821 286.815L201.624 286.531L201.363 286.618L199.681 285.879L199.946 284.561L200.438 284.031L199.563 282.894L199.268 281.633L198.548 280.739L197.934 280.436L197.635 279.561L196.647 279.349L195.821 278.519L195.73 278.194L196.359 277.694L196.787 276.682L196.741 276.307L196.245 275.936L196.363 275.303L195.158 274.368L193.669 274.22L193.832 273.724L193.59 272.944L193.366 272.815L193.756 271.872L193.234 271.493L192.897 270.489L193.067 269.868L193.647 269.088L193.669 268.383L193.139 267.478L191.268 267.451L191.01 267.232L191.863 266.125L192.302 266.391L192.684 266.334L192.866 265.91L192.37 265.641L193.056 264.641H194.268L195.128 265.171L196.056 266.849L196.764 266.682L197.184 266.152L197.537 264.777L197.188 264.315L197.215 264.016L197.601 264.103L198.075 264.735ZM211.938 264.565L211.806 265.065L211.525 265.144L211.707 265.713L211.291 265.285L210.48 265.769L209.643 265.315L211.938 264.565ZM181.222 261.815L182.863 262.122L183.825 263.557L182.525 265.125L182.279 265.913L181.582 264.936L181.075 263.641L180.166 262.834L180.408 262.281L181.222 261.815ZM213.389 262.088L212.631 263.08L212.567 263.72L212.101 263.572L211.923 264.004L211.828 263.55L212.522 262.838L212.321 262.451L212.559 262.167L212.991 262.372L213.389 262.088ZM200.953 261.993L201.166 263.129L200.525 262.777L199.912 261.55L200.37 261.228L200.779 261.508L200.953 261.993ZM172.768 258.36L172.109 258.913L172.056 258.406L173.188 257.474L173.669 257.451L173.605 257.978L172.768 258.36ZM218.893 255.713L217.912 257.997L216.916 257.387L216.291 257.349L215.934 256.788L216.855 256.607L217.469 255.819L217.866 255.648L218.389 255.497L218.931 255.538L218.893 255.713ZM221.139 257.118L221.662 257.853L223.071 258.535L226.836 258.576L228.556 259.016L229.309 258.838L230.719 258.966L233.847 260.345L235.169 262.811L235.453 264.232L235.461 264.857L234.847 265.947L233.177 266.205L230.984 265.417L230.673 265.088L228.423 264.5L226.692 264.216L225.321 264.3L223.052 265.3L221.294 266.728L219.283 269.152L218.741 270.296L217.336 271.841L215.942 272.118L213.919 271.845L213.033 270.224L213.347 270.175L213.544 270.364L213.416 270.474L213.938 270.554L213.927 270.209L214.306 270.247L214.238 270.099L212.166 269.944L206.635 268.148L206.162 267.11L206.279 266.364L205.609 265.671L205.681 265.197L206.12 264.963L206.347 265.148L206.351 266.084L206.609 266.705L206.988 266.762L206.938 267.061L207.563 267.19L208.158 266.671L210.113 266.679L211.113 267.785L210.442 269.285L210.745 269.125L210.87 269.402L211.946 269.709L212.893 269.341L212.556 268.697L212.215 268.61L212.738 267.186L214.166 266.247L213.306 265.891L212.991 265.531L212.859 264.857L214.116 264.209L214.109 263.929L215.048 263.637L216.003 264L216.124 263.724L215.408 262.875L215.26 262.273L216.828 262.819L217.12 263.088L217.105 263.732L217.325 264.099L218.696 263.326L219.821 263.05L220.139 262.675L221.018 262.55L221.397 262.872L220.916 263.572L220.775 264.269L220.484 264.417L220.844 264.603L221.192 264.311L221.753 264.247L222.851 262.997L224.919 262.459L225.071 262.338L224.594 262.194L222.817 262.474L222.423 262.262L222.222 262.175L221.457 262.743L221.162 262.413L220.684 261.148L221.298 260.194L221.313 259.625L220.525 258.277L220.139 258.054L220.226 257.841L219.787 257.447L219.442 257.512L219.397 257.762L218.885 257.648L218.669 257.19L218.813 256.584L219.768 256.103L220.219 255.497L220.7 255.887L221.139 257.118ZM220.828 255.08L220.639 255.129L220.571 254.686L220.067 254.197L220.056 253.622L219.658 253.269L220.033 253.334L220.378 253.769L220.23 253.891L220.775 254.205L220.828 255.08ZM212.847 249.076L212.173 249.436L211.461 249.25L212.12 249.023L212.847 249.076ZM192.23 248.508L191.65 249.762L191.416 248.614L191.802 247.591L191.961 247.686L191.802 248.042L192.23 248.508ZM163.359 245.455L163.488 245.819L162.616 246.584L161.972 248.258L161.071 246.447L162.408 245.338L162.628 245.493L163.461 244.913L163.359 245.455ZM189.7 244.625L189.688 246.224L190.476 246.694L190.756 247.194L190.946 247.148L191.317 247.444L191.397 247.838L191.158 247.875L189.825 246.5L188.73 246.148L188.003 244.97L188.287 244.804L188.881 245.144L189.363 244.629L189.7 244.625ZM179.071 243.459L178.775 243.451L179.052 243.004L179.662 242.857L179.749 243.016L179.071 243.459ZM191.866 244.254L191.575 245.334L191.041 245.088L190.238 245.319L190.086 245L190.412 243.807L190.847 243.281L190.889 242.569L191.143 242.504L191.597 242.947L192.469 243.175L191.866 244.254ZM164.044 239.054L163.643 239.375L163.416 239.167L163.287 239.459L163.484 239.41L163.363 239.879L164.226 240.713L164.438 241.932L164.919 242.944L164.775 243.288L164.419 243.125L164.393 243.338L165.082 243.781L165.597 242.951L165.408 244.069L165.177 244.269L163.234 242.91L163.029 239.955L163.275 238.944L162.957 238.338L163.162 238.114L163.738 238.455L164.044 239.054ZM153.499 229.913L152.832 230.394L153.684 230.292L151.188 231.273L152.639 229.951L153.503 229.75L153.499 229.913ZM225.181 206.178L225.529 206.485L225.056 206.773L224.931 206.5L225.033 206.322L225.181 206.178ZM169.916 190.209L170.128 190.588L169.416 190.118L168.756 188.679L169.003 187.724L169.548 188.273L169.287 188.766L170.029 189.607L169.916 190.209ZM198.412 188.989L198.344 189.747L197.772 190.929L197.912 191.391L196.783 192.004L196.135 191.296L195.62 191.254L194.7 189L194.942 188.72L195.503 188.713L195.927 188.08L196.381 188.777L196.863 188.989L197.431 187.512L197.12 186.845L197.423 186.519L198.2 187.678L198.412 188.989ZM162.787 179.254L164.094 180.758L165.26 181.406L165.438 182.273L164.851 181.648L162.26 180.796L161.624 180.281L160.158 178.364L158.518 177.618L158.215 176.239L160.15 176.94L160.522 177.735L161.753 178.345L162.787 179.254ZM172.397 170.728L174.131 171.777L176.048 172.281L179.37 172.41L181.453 173.262L185.086 172.288L185.976 173.777L187.203 174.406L188.154 174.391L190.76 173.572L191.783 173.016L193.097 171.822L194.794 170.875L195.529 172.72L195.609 173.485L195.404 173.572L195.397 173.144L194.942 173.057L193.635 174.281L193.317 175.804L193.571 176.91L193.484 177.591L192.541 178.163L191.34 177.713L191.143 176.864L190.601 176.697L190.15 176.974L189.677 176.66L189.389 176.913L188.969 178.512L189.105 179.811L190.321 180.459L191.226 181.686L191.488 182.61L192.393 183.997L192.514 185.451L191.537 186.819L191.321 186.41L188.844 185.694L188.078 186.595L188.45 187.042L187.991 187.235L187.972 187.913L186.113 188.822L186.048 189.262L187.158 190.027L188.203 189.913L189.128 189.663L189.832 188.898L190.45 188.758L190.919 188.281L191.904 188.197L192.453 187.724L193.078 188.402L193.351 189.811L193.953 190.61L193.544 190.857L193.363 190.125L192.934 190.785L193.279 191.398L194.431 191.947L194.442 192.565L194.097 192.497L193.34 193.076L192.495 193.031L191.9 193.353L188.798 193.523L188.256 193.819L188.529 194.368L188.275 194.425V194.732L188.859 194.868L188.897 195.213L191.09 194.891L191.465 194.644L191.904 194.834L192.211 194.788L192.722 194.826L193.374 194.542L194.423 194.773L194.703 194.254L194.147 193.97L194.128 193.732L194.283 193.603L194.552 193.83L195.162 194.504L195.658 195.546L195.613 196.758L195.9 196.978L196.203 196.883L196.397 197.883L196.158 198.277L195.472 198.394V199.368L194.783 199.618L194.404 200.326L194.499 200.554L195.101 200.557L195.495 200.417L195.969 200.133L196.2 200.379L196.586 199.944L196.711 199.141L197.673 198.41L197.95 198.228L198.143 196.088L199.022 193.796L199.431 193.75L199.988 193.197L201.522 193.8L202.934 192.504L205.514 193.913L205.48 195.186L205.181 195.497L204.612 197.118L204.359 197.171L203.529 198.629L203.253 199.853L202.976 199.921L202.836 200.258L202.688 201.042L202.969 201.591L203.442 200.334L204.025 200.069L203.863 199.857L203.976 198.959L206.359 198.716L206.025 198.247L206.01 197.618L205.476 197.311L206.059 196.883L206.041 196.069L206.234 196.447L206.923 196.209L206.34 197.141L206.491 197.364L206.813 197.504L207.23 197.027L207.525 197.315L208.143 197.148L208.806 197.591L208.658 198.084L209.025 198.103L209.268 198.413L209.147 198.724L208.446 198.304L207.756 198.478L207.253 197.906L206.419 197.667L206.313 198.046L206.783 198.057L207.131 199.144L206.874 199.679L207.37 199.375L207.673 199.391L207.825 199.697L208.124 199.637L208.366 199.353L208.722 199.663L208.889 199.254L209.571 199.167L209.503 199.618L209.745 199.807L209.45 200.122L209.442 200.679L210.184 200.853L210.703 201.364L211.006 200.982L211.264 199.493L210.798 199.538L210.351 199.095L210.192 198.576L210.639 197.781L210.972 197.671L211.321 198.171L211.491 197.387L210.806 197.531L210.87 197.247L211.025 197.038L211.681 197.11L212.241 196.451L212.465 195.872L211.836 195.743V194.947L212.336 194.75L212.147 194.519L212.696 194.292L212.756 194.061L212.62 193.883L212.041 193.928L212.203 193.682L211.495 192.694L211.809 192.072L211.779 191.538L210.976 190.622L211.188 189.224L212.203 189.796L213.241 190.997L214.351 191.497L215.26 192.383L217.446 192.038L218.416 193.016L218.177 193.091L217.745 194.258L219.65 195.966L217.62 197.932L216.23 197.838L214.393 199.436L214.798 201.451L214.745 202.875L215.253 202.849L214.878 204.83L217.488 205.595L217.787 204.379L218.828 204.065L219.249 204.728L220.984 203.966L221.495 204.432L224.181 205.288L225.128 206.175L224.817 206.625L224.95 206.872L222.022 208.391L221.514 208.898L220.347 209.834L219.097 211.36L217.84 214.69L216.654 218.19L216.957 219.213L216.855 219.508L216.749 219.781L217.014 220.697L217.84 221.951L218.431 222.357L222.393 224.425L225.65 224.758L228.344 227.33L229.825 229.292L229.95 230.485L230.332 230.853L229.84 232.349L229.972 233.686L230.363 234.281L230.226 235.095L229.832 235.822L229.219 236.11L228.211 237.338L227.427 237.667L227.253 237.947L226.711 237.781L226.351 238.031L225.904 237.902L225.078 239.561L224.4 239.345L222.128 239.353L220.84 239.012L218.772 239.622L217.245 240.603L216.62 240.644L215.241 241.75L215.158 241.531L214.919 241.569L213.662 243.588L212.506 244.444L212.184 245.133L212.094 246.504L212.4 248.292L211.673 248.875L211.014 248.947L210.586 248.512L210.95 247.107L210.912 246.273L211.544 245.186L211.294 244.955L209.726 245.133L208.078 245.936L207.086 247.569L207.097 247.811L207.476 248.053L208.169 248.046L208.381 248.281L208.624 248.913L208.302 249.5L208.374 249.947L209.006 249.656L209.222 249.773L209.048 249.982L209.438 250.163L210.067 249.269L211.022 249.292L211.249 249.497L211.029 249.963L211.836 249.906L211.972 249.576L212.484 249.822L213.131 249.595L212.976 249.186L213.351 249.144L215.181 249.807L216.022 250.709L215.98 251.546L215.692 251.61L215.457 252.122L215.453 253.171L214.616 254.209L213.613 253.61L212.98 253.963L212.84 253.463L212.446 253.285L212.283 253.072L211.753 252.849L211.938 253.447L212.612 253.516L212.794 254.057L212.586 254.266L213.131 254.398L212.544 254.913L212.9 254.932L212.991 255.678L213.366 256.065L213.203 256.804L214.063 256.974L213.809 257.663L215.484 260.807L215.378 261.724L215.162 261.527L214.241 261.542L213.9 261.796L212.881 261.625L212.222 262.038L211.953 262.603L211.469 262.822L210.563 263.841L209.245 264.58L207.847 264.565L205.366 263.296L204.499 262.44L204.101 261.474L201.927 260.716L201.692 260.887L202.2 261.11L202.253 261.607L201.135 261.675L200.438 260.97L199.374 260.485L198.806 259.758L197.559 258.978L196.529 257.732L194.692 256.822L192.359 256.16L190.753 255.391L189.738 254.618L186.9 253.857L186.597 253.576L187.309 253.614L191.984 255.171L193.256 255.296L197.363 257.391L197.764 256.913L197.571 256.262L196.662 255.209L196.518 254.61L195.029 253.766L194.703 253.269L194.325 253.535L194.51 253.978L194.931 254.247L193.984 254.171L193.328 253.167L193.76 253.179L194.086 252.584L193.745 252.83L193.063 252.663L191.844 250.845L191.825 249.811L192.078 249.421L192.442 249.728L192.272 250.22L193.381 250.114L193.934 250.349L194.207 250.107L194.381 249.398L194.908 249.08L196.431 249.425L196.897 249.22L196.969 248.857L196.563 247.493L196.112 247.478L195.787 247.141L195.472 247.16L195.249 247.701L194.934 247.781L194.51 247.493L194.616 246.906L193.529 247.137L192.95 246.921L192.548 247.281L191.673 246.917L191.499 246.667L191.582 245.728L193.056 244.709L192.817 244.315L192.238 244.607L192.048 244.58L192.071 244.357L193.166 243.103L192.681 243.171L192.457 242.769L191.48 242.084L190.063 242.288L188.423 243.993L188.484 244.599L187.616 245.057L187.135 244.561L186.556 244.516L185.393 243.807L184.529 243.989L184.048 243.758L182.995 243.796L181.772 243.205L180.488 242.917L179.942 243.118L179.707 242.444L179.128 242.262L178.594 242.478L178.643 241.997L178.048 241.383L177.586 241.641L177.09 241.205L176.654 241.148L176.317 241.947L175.847 242.319L175.991 242.625L176.378 242.554L176.51 242.296L177.397 242.459L177.696 242.69L177.556 242.997L177.965 243.239L178.022 243.974L176.87 244.201L175.298 243.766L174.397 243.872L174.821 243.25L175.116 243.614L175.321 243.429L175.965 243.887L176.234 243.811L175.938 243.625L175.756 242.322L174.931 242.088L173.953 243.008L173.431 243.099L173.056 242.864L172.575 242.019L172.018 242.368V242.758L171.768 242.898L171.431 242.042L170.7 242.061L170.453 242.887L170.7 243.315L170.355 243.391L169.597 243.58L168.866 242.875L167.62 242.792L167.158 242.432L166.916 242.182L167.23 242.076L166.559 241.209L166.609 241.016L167.294 240.83L166.37 238.887L166.669 238.667L167.094 238.868L167.071 239.19L168.309 239.413L168.559 239.758L168.859 239.61L169.249 238.194L169.442 237.845L169.745 237.796L170.184 236.724L169.931 235.648L169.397 235.781L169.177 236.148L168.999 237.686L169.393 237.985L168.461 238.61L168.12 239.357L167.65 238.603L167.336 238.47L167.052 238.671L166.65 238.349L166.961 237.137L166.548 236.182L166.434 234.989L164.616 233.754L163.275 233.19L162.018 231.838L160.95 231.326L160.885 230.732L161.222 230.523L161.457 230.887L162.143 230.97L162.211 231.175L163.056 231.11L163.537 231.417L163.976 231.296L164.109 230.826L164.889 230.391L164.995 229.83L164.836 229.599L164.423 229.508L163.586 228.762L162.779 228.735L162.332 229.125L162.582 229.523L162.4 229.955L162.684 230.232L161.514 230.841L161.325 230.349L160.616 230.292L159.855 229.292L158.98 229.425L159.063 228.951L160.09 227.281L160.419 227.777L162.033 227.519L163.419 226.413L164.719 226.133L165.34 225.235L165.408 224.754L165.321 224.254L164.355 222.857L164.844 220.489L164.658 219.576L163.442 217.535L163.465 216.307L163.238 215.599L161.537 213.894L161.291 213.175L160.791 212.902L160.586 212.3L160.177 212.694L160.309 213.254L160.635 213.148L160.048 214.178L159.086 214.319L158.351 213.929L158.832 212.129L159.143 211.978L159.601 212.205L160.166 211.898L161.491 211.944L161.431 212.163L161.715 212.349L162.143 212.118L162.302 211.762L161.616 212.072L161.575 211.868L162.139 210.97L162.397 210.046L162.018 207.421L160.938 204.913L159.934 203.864L156.192 201.485L154.605 200.989L151.184 200.607L150.647 200.186L150.594 199.557L151.033 199.235L151.988 199.44L152.283 199.743L153.469 199.864L154.075 199.66L157.139 200.36L157.798 200.379L158.567 200L158.715 200.387L158.919 200.088L159.484 199.978L159.578 199.675L159.34 199.777L158.844 199.531L158.912 199.326L159.287 199.413L159.26 199.228L159.548 199.224L159.491 199L159.2 199.137L157.897 198.625L158.328 199.554L158.15 199.584L157.355 198.413L155.419 196.982L153.866 194.576L153.325 194.288L152.495 194.065L150.404 194.315L149.393 194.129L148.139 193.55L147.275 192.815L148.745 192.758L151.283 192.031L153.45 192.493L154.541 192.925L154.991 193.368L156.578 193.86L158.408 193.546L159.828 192.811L160.851 191.966L161.821 191.857L162.544 192.069L163.484 191.754L163.616 192.33L163.412 192.429L164.469 193.857L165.298 193.8L165.639 193.133L165.423 192.667L165.821 192.387L166.105 192.864L167.613 194.061L168.306 193.891L169.139 193.137L169.431 191.857L169.7 191.788L170.075 192.849L170.385 191.807L171.389 191.868L172.469 191.478L173.582 190.478L173.931 189.576L174.215 188.55L173.87 187.716L173.923 185.41L173.711 184.421L173.26 183.648L172.745 183.747L172.889 183.466L173.181 183.285L173.787 183.777L173.912 184.19L174.791 184.679L175.48 184.459L177.616 183.11L178.844 182.997L179.488 183.269L179.946 183.163L181.192 181.466L181.673 179.724L181.578 178.61L181.741 176.671L181.241 175.235L178.344 173.625L173.9 173.247L171.764 171.747L170.393 171.186L169.779 171.194L169.309 170.394L168.7 167.891L170.052 169.894L172.397 170.728Z" fill="#CCCCCC" stroke="white" stroke-width="0.5"/>
<path d="M134.446 269.901L134.28 270.598L133.692 271.113L133.427 271.019L133.003 270.17L133.113 270.019L132.764 269.67L132.651 268.822L134.026 268.477L134.321 268.719L134.151 269.253L134.446 269.901ZM127.317 268.5L127.435 268.863L126.548 268.621L126.886 267.92L127.317 268.5ZM128.014 266.958L128.476 267.659L127.795 267.727L127.632 267.045L127.905 266.647L128.014 266.958ZM136.564 264.636L137.31 264.837L137.605 264.666L138.291 264.95L138.488 265.704L137.889 265.708L137.662 265.246L137.325 265.272L137.215 264.939L136.533 264.863L136.564 264.636ZM127.726 264.102L127.336 264.788L127.086 264.833L126.624 264.056L127.329 264.166L127.658 263.928L127.726 264.102ZM112.446 263.628L113.314 263.863L113.446 264.685L114.961 266.231L116.48 266.538L118.673 268.799L119.306 270.14L120.757 270.621L121.113 271.549L121.78 271.371L122.999 269.856L122.742 269.42L122.139 269.159L122.09 268.856L122.378 268.871L123.344 269.939L123.276 270.337L123.014 270.261L122.905 270.45L123.37 271.022L123.677 272.246L124.533 273.208L125.158 273.594L125.677 273.155L125.859 272.405L126.935 273.431L127.158 273.276L126.711 272.909L126.715 272.602L125.84 271.447L125.223 271.125L125.249 270.871L126.351 270.757L125.673 270.966L125.662 271.227L126.393 271.341L128.992 274L129.101 274.863L128.935 275.193L129.598 275.015L129.276 274.738L129.242 274.31L129.825 274.996L129.147 275.265L125.655 275.689L124.912 276.136L124.583 276.5L124.458 277.219L123.738 277.769L122.56 276.674L121.219 275.878L119.677 274.132L118.469 272.303L116.768 271.2L114.594 268.435L114.211 266.375L112.768 264.882L112.484 264.394L112.446 263.628ZM123.806 262.481L124.742 263.769L123.995 264.477L123.704 264.469L121.992 263.11L121.613 263.193L121.173 263.708L120.798 263.625L120.571 263.155L121.011 262.924L121.264 263.057L121.662 262.674L121.882 262.712L121.905 263.015L123.026 263L123.329 263.356L123.783 263.367L123.995 263.136L123.806 262.481ZM126.071 259.962L126.882 260.295L127.42 260.848L126.613 260.674L126.196 261.159L125.56 261.083L125.439 260.473L125.992 259.693L126.071 259.962ZM116.022 258.939L116.552 259.306L117.355 259.257L118.287 259.943L119.34 259.519L119.484 260.492L118.961 260.621L117.912 260.113L117.155 259.386L115.139 259.397L114.018 258.193L114.192 257.625L114.882 257.42L115.696 258.242L116.022 258.939ZM134.738 255.992L135.041 256.181L134.897 256.587L135.363 256.897L135.128 257.689L135.461 257.947L136.086 257.958L136.219 258.795L136.06 259.117L135.666 259.212L135.128 261.204L134.886 261.549L134.647 261.572L134.609 261.344L134.325 261.969L134.893 262.765L136.018 263.022L136.647 262.394L136.833 261.534L137.492 261.231L137.931 261.337L137.666 262.394L137.761 263.416L137.639 263.644L137.522 263.435L136.772 263.409L135.859 263.621L135.389 264.329L134.84 264.538L134.166 265.769L132.264 265.094L131.867 265.159L132.522 265.841L131.605 265.719L130.719 266.227L130.761 265.882L131.242 265.473L131.136 265.288L130.473 265.405L130.518 264.492L129.435 263.587L129.2 263.113L129.139 261.697L129.393 261.341L128.749 261.022L128.666 260.288L129.579 260.295L130.204 259.413L131.708 258.644L132.42 257.719L132.969 257.625L133.397 256.901L134.446 256.227L134.2 256.019L134.738 255.992ZM138.397 255.939L138.772 256.178L139.261 258.333L138.859 258.318L138.465 257.977L137.412 258.352L136.677 258.284L136.821 257.621L137.942 257.579L138.382 257.265L136.757 257.193L135.87 257.598L135.742 257.485L135.583 256.583L135.897 256.31L136.798 256.477L138.397 255.939ZM110.041 256.519L110.814 256.708L111.098 257.2L110.583 257.757L109.363 258.132L108.851 257.897L108.264 256.928L108.208 256.079L109.022 255.496L108.98 256.223L110.041 256.519ZM115.62 255.95L115.666 256.132L115.033 255.92L114.253 255.276L113.942 254.799L114.041 254.519L115.238 255.348L115.62 255.95ZM93.3098 256.53L93.95 256.803L94.3932 257.666L95.2492 258.579L96.2985 259.204L97.7985 259.322L99.003 259.852L99.8515 260.492L100.655 261.606L100.87 261.788L101.484 262.462L103.03 265.61L103.98 267.28L104.011 268.42L104.253 269.318L104.734 270.409L105.136 270.738L105.408 272.25L105.052 272.579L103.556 272.428L102.791 272.666L101.075 274.481L98.6469 274.367L96.8932 273.401L95.9462 273.341L94.7341 272.242L94.8023 271.981L96.4159 270.458L97.325 271.61L97.8856 271.7L99.1545 272.503L99.2757 273.034L100.158 273.098L101.132 274.151L101.541 273.769L101.052 272.575L100.59 272.053L99.2606 271.182L98.9954 270.788L97.3818 270.147L96.9159 269.613L95.9992 269.42L95.7038 269.545L95.3704 270.235L94.931 270.136L92.8591 271.132L90.9803 270.371L90.306 269.583L90.4159 269.174L90.2265 268.742L89.5863 268.458L89.5977 267.723L89.2606 267.045L89.3629 266.189L89.0523 263.67L88.6242 263.079L89.0788 262.632L89.7947 263.727L90.8326 264.041L92.2492 266.36L92.7454 266.716L92.4273 267.068L93.0144 267.091L93.2757 266.966L95.0485 266.284L95.0219 266.106L93.9992 266.337L93.0485 265.75L94.1469 265.337L94.0636 265.155L93.2985 265.288L92.8969 264.977L93.431 264.147L93.9273 264.261L94.1091 264.083L93.9348 263.837L93.5788 263.913L92.378 262.924L90.3894 262.621L90.1886 262.147L90.3704 261.822L91.3515 261.378L90.1469 261.67L89.9197 261.439L89.9613 261.087L90.7719 260.753L90.8742 260.147L89.4045 260.038L85.9689 260.443L84.7757 259.693L84.3023 259.14L83.95 259.113L83.9045 258.443L85.2227 258.098L85.8023 257.568L86.2379 257.708L86.2 258.166L86.9273 258.204L86.3477 257.644L86.4689 257.53L85.8553 257.469L86.3174 257.242L86.2871 256.977L85.7795 257.019L85.7947 257.212L85.2492 257.564L85.4235 257.837L84.9083 257.852L83.9538 257.5L83.0219 257.496L82.7416 256.996L82.7644 256.386L83.45 256.06L84.2417 255.049L85.9273 253.985L88.2682 253.409L89.5257 253.693L92.0712 255.17L93.3098 256.53ZM79.2113 250.704L78.9689 250.928L78.2303 250.939L78.1886 250.223L77.8667 250.113L77.825 249.689L78.056 249.136L78.7038 249.235L79.2189 249.985L79.2113 250.704ZM151.753 247.689L150.708 253.519L148.643 260.36L148.564 261.534L146.624 264.015L145.189 267.231L144.999 268.621L144.518 269.36L144.367 271.458L142.352 276.587L142.261 277.526L141.219 280.397L140.23 284.352L139.227 285.818L138.052 286.318L137.632 286.155L136.658 284.681L136.802 284.5L136.609 283.875L137.033 283.587L137.086 283.038L136.257 281.083L136.173 279.477L134.973 277.613L133.249 276.481L132.886 275.716L133.083 275.689L133.155 275.966L134.276 276.038L134.901 276.519L135.064 276.246L135.31 276.288L135.295 276.575L135.598 276.485L136.257 275.041L136.776 274.897L136.435 274.564L136.859 271.81L137.435 271.735L137.62 272.45L138.461 272.848L138.658 272.272L139.81 272.181L139.242 271.572L139.173 271.189L138.954 270.757L138.723 270.424L138.704 269.5L138.23 270.424L137.632 270.079L137.306 270.341L137.048 269.227L137.435 268.916L137.601 268.019L138.314 267.337L138.556 266.666L139.162 266.288L139.386 266.026L139.609 265.227L141.298 263.265L141.867 262.981L142.003 262.628L142.958 262.735L144.056 261.545L144.276 260.776L144.84 260.068L145.014 259.185L146.03 257.92L146.147 256.95L146.817 255.583L147.594 251.738L148.764 249.594L148.908 248.409L149.923 247.462L150.446 246.42L150.912 246.019L151.571 246.549L151.753 247.689ZM88.9235 236.144L89.1773 237.663L89.306 237.636L89.6129 237.242L89.2038 237.056L89.2492 236.761L89.5219 236.825L90.0788 236.397L89.9273 237.041L89.0295 238.223L87.9765 238.257L87.2492 237.375L87.6394 237.098L87.3212 236.375L88.3667 235.981L88.9235 236.144ZM92.2379 231.117L92.7644 232.636L92.6356 233.515L91.1166 234.022L90.9235 233.75L90.9462 232.651L90.6659 232.125L90.9689 231.219L91.7454 231.86L91.8136 231.511L91.4916 231.458L92.2379 231.117ZM86.6697 228.534L85.9576 228.905L85.2719 228.363L85.8174 227.753L86.4386 227.659L87.0636 228.333L86.6697 228.534ZM14.9159 218.992L15.2114 219.466L15.4424 218.697L16.3098 218.003L17.5295 218.087L18.2985 218.435L18.0939 221.166L18.3704 221.697L18.8856 222.098L19.5257 221.072L19.9007 220.913L20.6659 221.435L20.6129 221.901L21.2833 223.852L20.2985 224.905L20.3704 225.371L21.3363 226.503L21.6394 228.503L22.1507 228.431L21.5598 229.666L21.7227 230L20.4954 229.814L19.1697 228.784L16.5182 222.947L15.2909 221.39L14.2189 220.636L14.0523 219.056L15.6432 217.935L14.9159 218.992ZM126.541 218.284L125.594 218.598L125.514 218.238L125.556 217.613L125.973 217.14L126.514 216.988L126.09 217.666L126.541 218.284ZM86.0257 217.507L85.3515 217.367L85.2417 216.818L84.6659 215.981L84.8666 215.132L85.5371 215.375L86.1621 216.424L86.7379 216.526L86.8023 217.14L86.0257 217.507ZM133.742 208.125L133.56 208.144L133.458 207.579L133.609 207.193L133.742 208.125ZM133.829 206.113L133.942 206.969L134.329 207.015L134.045 207.151L134.12 207.61L133.639 206.78L133.829 206.113ZM132.844 204.909L133.147 205.068L133.916 204.962L134.037 204.212L133.526 204.306L133.397 204.704L133.34 204.458L133.071 204.549L133.238 204.314L134.048 204.128L134.386 204.579L136.889 208.825L137.439 210.208L138.639 211.602L138.514 212.636L139.075 214.204L139.48 214.852L140.423 215.64L140.946 216.871L140.859 217.318L140.317 217.575L139.673 217.64L139.041 217.42L136.977 218.5L136.56 219.231L136.571 219.723L135.901 220.079L135.545 219.685L134.905 219.564L134.836 219.95L135.014 220.053L134.545 220.151L133.905 219.86L133.518 219.197L132.162 218.666L132.128 219L130.73 219.413L130.946 219.86L130.776 220.242L130.173 220.189L130.223 220.587L131.662 222.314L131.905 222.348L132.257 221.81L131.833 219.742L132.507 219.117L133.45 219.579L133.458 219.981L134.442 220.318L135.192 220.882L135.673 220.454L136.083 220.5L136.211 220.075L136.655 219.784L136.7 220.083L137.753 220.996L138.469 222.159L139.083 222.814L139.711 222.996L140.594 224.549L141.689 225.507L142.314 226.977L143.166 228.163L144.624 232.64L145.727 233.594L146.382 233.587L146.359 233.765L145.889 233.856L146.329 234.36L146.245 234.621L144.946 234.981L144.791 234.878L144.95 234.663L145.162 234.772L145.253 234.617L144.908 234.31L145.011 233.981L144.602 233.712L144.408 234.034L144.336 233.731L144.014 233.678L143.893 233.348L143.477 233.102L143.295 233.242L142.897 233.041L143.041 233.769L142.806 233.56L142.473 233.897L141.439 233.746L140.874 234.041L142.605 234.022L143.018 234.405L143.204 234.81L142.98 236.091L144.427 239.932L144.109 240.969L144.276 242.204L143.984 244.556L143.177 246.113L143.139 246.886L142.787 247.678L142.863 248.397L142.526 249.007L142.514 250.049L142.109 251.026L142.344 251.822L141.802 251.89L141.355 252.288L141.064 253.947L140.67 254.803L139.617 255.197L138.662 255.894L138.73 255.507L137.836 255.272L137.56 255.78L136.704 255.731L136.495 255.943L136.162 255.776L135.359 256.053L135.048 255.621L134.382 255.647L133.927 255.386L133.863 256.166L133.458 256.28L133.041 256.753L129.473 258.14L128.772 258.655L127.333 258.231L126.886 257.496L126.382 257.216L125.73 257.416L123.84 257.276L123.473 257.473L121.946 256.606L122.079 256.144L121.314 255.125L120.992 255.235L121.105 255.674L120.291 256.454L119.844 256.382L119.814 256.174L119.109 256.307L118.488 256.144L118.42 255.36L117.314 255.003L117.204 254.564L116.624 254.144L116.583 253.761L116.071 253.363L115.325 253.242L114.583 252.61L114.223 252.594L113.893 252.295L114.037 252.128L113.685 251.852L112.647 252.492L113.408 253.007L113.73 254.007L113.469 254.435L112.958 254.621L112.878 255.068L112.31 255.015L112.317 255.303L113.071 255.227L112.526 255.659L112.117 255.36L112.022 254.708L111.423 253.878L110.124 253.803L108.56 252.848L105.632 254.159L105.37 253.2L105.969 252.068L106.067 251.367L106.359 251.163L106.639 251.416L107.158 251.363L107.825 250.477L108.454 250.235L108.81 250.325L109.003 249.981L109.355 250.091L109.351 249.795L109.969 249.954L110.874 249.363L110.253 249L109.249 247.057L108.988 247.2L108.772 247.003L108.692 245.882L107.992 244.977L107.62 243.761L107.317 243.716L106.965 244.36L106.651 244.216L106.192 244.981L104.226 244.878L102.715 244.485L102.651 243.208L101.405 242.621L101.162 242.89L101.586 243.515L101.859 243.693L101.492 244.291L101.151 244.068L100.984 245.038L101.476 244.666L101.295 245.246L101.594 245.935L102.359 246.454L104.033 248.89L103.526 249.761L103.018 250.087L101.965 249.833L100.602 248.966L100.53 248.738L101.079 248.197L101.257 247.621L100.772 245.803L101.098 242.636L100.95 242.159L100.556 241.538L99.9348 241.094L97.9538 241.045L97.6053 240.159L96.9083 239.447L95.5371 238.606L95.3742 238.829L94.7341 238.041L95.0788 237.871L95.325 238.178L95.9083 238.265L95.5939 238.522L96.0523 238.731L96.1204 238.651L96.431 238.049L96.2682 237.647L95.7038 237.348L95.4954 236.727L95.7076 236.761L95.95 236.458L96.1318 233.098L95.8326 231.757L95.3136 230.666L95.3666 229.992L95.825 230.25L96.2151 230.394L96.4273 229.973L95.503 229.632L95.1356 228.924L95.2038 228.39L94.5144 228.943L93.3591 229L90.5636 227.78L90.7189 226.727L92.2568 226.583L92.9121 226.329L93.3629 225.852L93.3932 225.212L92.5068 224.178L92.0485 223.772L90.6583 223.409L91.181 222.981L92.1166 223.325L92.5485 223.189L92.7227 222.753L92.6166 222.261L90.8212 221.447L89.8515 221.526L88.3212 221.197L88.1432 220.95L88.4727 220.197L87.3326 218.932L86.9083 218.079L87.2 217.625L87.5068 218.299L88.9235 219.485L89.3969 219.632L89.556 220.163L90.4462 220.757L91.95 221.416L92.5901 221.185L92.2985 220.655L91.6166 220.352L91.4727 219.761L91.0598 219.844L90.3363 219.367L90.3439 219.121L90.0598 219.113L90.2416 218.693L90.5901 219.022L91.0901 219.06L90.7454 218.458L90.4083 218.53L90.075 218.038L89.0863 218.265L88.2151 217.697L87.5674 215.897L86.1129 215.742L85.8932 215.178L85.0523 214.598L84.878 213.784L85.2227 213.503L85.8856 213.564L87.2265 214.477L88.4197 214.636L88.9462 214.174L89.6697 212.405L88.9879 211.276H90.4083L91.6091 210.416L93.075 210.17L93.806 210.556L93.9992 211.038L93.8553 212.916L94.7113 213.981L97.378 214.386L98.5901 214.147L101.594 211.7L102.98 210.977L103.639 209.977L105.605 209.541L105.988 209.075L106.226 208.905L107.287 208.375L108.234 208.136L108.976 208.117L109.814 207.492L111.105 207L111.905 207.053L112.018 206.886L111.647 206.314L112.075 206.397L112.336 206.791L112.772 205.977L113.973 205.572L116.776 205.132L117.147 205.367L116.567 205.257L116.412 205.549L116.738 206.496L116.416 206.769L116.552 206.935L116.594 207.155L116.442 207.526L117.086 207.704L117.351 207.431L118.23 207.435L118.344 207.083L117.696 206.488L117.723 205.155L117.079 204.094L118.109 203.913L123.548 207.011L125.393 208.882L130.011 212.341L131.204 213.735L130.798 213.966L129.969 213.2L129.249 211.871L127.738 210.803L127.499 211.022L127.817 211.64L127.37 211.742L127.833 212.288L127.083 212.049L126.795 212.443L126.492 212.344L126.45 212.795L127.139 213.344L127.158 214.159L127.514 214.719L127.98 214.856L128.196 215.31L127.613 215.697L127.173 215.481L126.882 215.981L127.321 216.208L127.427 216.659L125.772 216.257L125.579 216.45L125.601 217.216L125.033 217.098L124.764 218.03L125.014 218.314L124.681 218.477L124.518 219.363L124.613 219.655L124.041 220.89L124.143 221.083L124.458 220.837L125.026 221.06L125.726 220.416L126.567 220.931L127.033 220.363L127.503 220.17L127.882 219.575L127.56 218.901L127.287 219.038L127.378 219.299L126.935 219.174L127.014 218.746L127.249 219.007L127.507 218.833L127.071 217.719L129.173 218.428L129.579 218.212L130.048 217.439L130.727 217.897L131.045 217.856L131.052 217.526L131.859 217.36L132.173 216.852L133.101 216.689L133.817 217.231L134.476 216.435L134.605 216.106L134.242 215.602L134.257 214.844L132.753 214.007L131.677 213.727L131.476 213.424L131.518 213.015L132.06 212.473L132.609 212.288L133.011 212.431L133.367 213.261L133.984 213.67L134.363 213.784L134.715 213.443L134.764 213.091L134.173 212.447L134.298 211.038L133.518 209.814L133.469 208.765L133.022 207.469L133.416 206.526L133.533 206.772L133.374 206.844L133.094 207.428L133.768 208.852L134.62 209.913L134.912 209.352L134.825 209.117L135.075 209.007L134.401 208.454L134.423 208.272L134.905 208.318L134.704 206.954L134.302 206.439L134.064 205.238L133.726 205.204L133.579 205.545L132.594 204.788L132.73 204.098L133.136 204.772L132.844 204.909ZM110.548 201.61L111.617 201.939L111.715 202.492L111.196 203.128L111.204 204.503L111.507 205.083L111.242 205.469L111.007 205.064L111.117 203.299L110.351 202.394L110.158 201.594L110.548 201.61ZM65.1659 174.606L65.6507 174.663L65.8515 175.106L66.3818 174.966L66.7076 175.299L66.8969 175.041L67.0901 174.837L67.6091 174.829L67.3439 174.685L67.3401 174.659L67.5939 174.534L68.3667 175.212L69.4917 175.67L69.6621 176.181L69.5068 176.272L73.3704 181.613L72.3212 182.367L73.1318 182.719L72.7 184.147L74.5901 184.333L74.5674 184.833L75.6583 184.86L75.8363 186.42L76.5219 188.704L77.6053 188.897L77.5219 189.86L79.628 189.723L79.9538 189.11L80.5295 189.89L79.9083 190.716L80.8136 191.837L81.9879 191.253L83.2113 191.666L83.4273 191.136L84.9765 192.075L85.1356 193.337L84.4803 195.541L80.8742 196.223L80.6356 195.988L79.6394 196.269L78.9613 196.11L78.8515 195.814L78.5068 195.689L78.3666 196.113L78.575 196.303L78.4197 196.761L80.075 197.602L83.0826 197.216L83.6129 197.613L84.2417 197.159L85.2151 198.269L85.3439 198.92L86.1848 199.913L86.5977 199.784L87.9348 200.526L88.3932 202.89L88.6394 203.5L89.0674 203.822L91.128 203.553L91.5485 203.318L94.3326 203.625L93.6886 204.424L90.9348 206.439L90.6735 207.564L89.6129 208.841L89.5106 210.019L88.8666 209.723L88.2568 209.856L87.8894 209.723L87.7038 209.871L87.4462 210.416L87.5144 211.231L88.1621 212.973L88.075 213.473L87.2 213.519L85.6659 212.852L84.5523 212.64L82.8212 214.36L82.1015 213.935L81.6545 214.231L81.1432 214.235L80.9841 213.371L80.7757 213.462L79.0788 212.659L78.8288 212.977L79.2 213.587L79.4576 213.67L79.7871 213.405L80.1432 213.466V213.64L79.5257 214.17L78.7189 213.636L78.4841 213.829L79.7076 214.299L79.8704 215.473L79.3288 215.28L77.6583 215.534L76.6356 215.416L76.2492 215.113L74.5523 216.132L75.2757 216.178L76.2227 216.723L76.9348 216.36L79.1166 215.886L79.4992 216.401L80.0182 216.522L80.8969 215.496L81.2644 215.659L82.0674 215.322L85.6166 218.803L85.2947 219.45L83.5257 221.06L82.4576 221.617L81.3818 221.663L80.6432 222.003L80.3439 222.7L81.4121 224.81L81.8553 225.2L81.8742 225.663L81.5219 226.992L80.8098 228.03L80.681 227.545L80.2379 227.11L79.3174 226.795L78.8288 227.003L79.1015 227.083L79.4197 227.905L79.8212 228.064L80.2341 227.939L80.3515 228.125L80.6053 227.977L80.7606 228.39L81.9879 228.439L83.181 229.78L83.3477 231.121L82.4045 232.485L82.9538 232.454L84.4916 234.973L84.2076 234.757L83.4045 234.89L82.8363 234.492L82.2076 234.587L81.3023 236.007L79.878 236.378L79.8212 237.431L79.2454 237.488L78.8742 238.102L78.825 238.371L79.0598 238.45L79.2076 238.007L80.1697 237.53L79.9879 236.905L80.1697 236.522L81.3212 236.272L82.1962 235.045L82.5863 234.969L83.1356 235.405L83.753 235.159L85.1204 236.325L86.6129 237.094L86.9538 238.136L86.5977 238.848L86.7909 239.352L85.8439 240.333L85.503 241.007L85.7644 242.788L85.628 243.276L82.2682 245.163L81.8288 244.545L82.0939 243.791L82.3666 244.2L82.2038 244.257L82.253 245.03L82.6394 245.038L82.7341 244.837L82.2606 243.772L80.1848 243.413L78.7113 244.852L77.9803 245.136L76.8288 246.132L75.4121 246.761L75.306 247.136L75.5977 247.435L75.753 248.712L76.5333 249.276L76.4916 249.481L75.4197 249.507L74.1356 249.087L73.5977 249.708L73.6735 249.969L73.8742 249.901L73.8326 250.447L73.5219 250.431L73.5523 250.117L73.253 250.659L73.7189 250.693L74.3401 250.265L74.5485 250.613L75.0219 250.182L75.3439 250.231L75.8553 250.962L76.5333 251.094L77.2454 251.958L77.5485 252.708L78.1621 252.916L78.1394 254.216L75.5144 256.966L75.2682 256.746L73.7303 256.689L73.4159 257.079L72.4538 257.382L71.753 257.193L71.6356 256.822L71.6962 257.208L71.4613 257.28L71.7 257.31L71.4689 257.413L71.6773 257.401L71.7379 257.674L71.4348 257.617L71.5674 257.89L71.3818 258.03L71.5674 258.822L72.0485 259.117L72.1015 258.844L72.4083 258.784L73.0674 259.61L74.4727 259.469L75.0863 259.746L75.825 259.579L76.4689 258.863L77.9954 258.216L79.3326 257.958L79.3666 257.235L79.8098 257.083L81.075 257.86L81.6659 259.344L82.3136 260.159L83.5257 260.549L85.0826 261.568L85.6318 262.197L86.6848 261.985L87.9576 262.238L88.0409 263.454L88.6962 264.185L88.575 264.829L88.8477 267.572L89.3212 267.875L89.5068 268.757L90.2909 269.204L90.056 269.894L88.9386 270.469L86.503 269.89L86.0598 270.583L86.1432 271.064L86.5826 271.299L87.2909 271.204L88.075 271.909L88.2151 272.977L89.0447 273.689L89.1924 274.716L88.7379 275.636L87.4007 276.113L87.1091 275.575L86.2189 275.057L86.3136 274.541L84.95 274.106L83.7757 274.295L82.7682 273.772L82.6394 273.235L83.3856 272.708L83.7113 271.943L83.2492 271.875L82.9424 271.564L82.6621 270.799L81.8969 270.621L81.2227 269.871L80.6659 269.682L81.0598 269.261L82.7038 268.799L83.2909 268.844L83.6735 269.447L84.3704 269.356L84.6507 269.019L84.4348 268.477L83.5712 267.795L82.7985 267.28L81.8742 267.068L81.5295 267.538L81.3439 268.807L81.1432 268.916L80.8932 268.469L80.4689 268.579L80.1735 268.947L80.6129 268.935L80.8401 269.36L79.3932 270.163L79.6507 270.42L79.575 271.144L78.9727 272.106L78.4841 272.397L77.5333 271.905L77.3932 272.356L76.7568 272.333L76.5409 272.78L75.9954 272.833L75.4083 273.795L75.0333 273.996L74.6886 274.867L73.9273 275.144L73.4841 275.689L72.7227 275.776L71.8969 276.329L71.1583 276.325L71.1621 275.795L70.6735 275.39L70.3515 275.575L69.3212 275.689L69.1091 276.25L68.8629 277.325L67.9348 277.863L67.4083 278.644L67.2644 279.227L66.5182 278.742L64.6394 278.443L64.7113 279.098L64.2644 278.863L64.1507 278.378L63.431 278.151L62.3629 278.378L61.6166 276.42L61.5939 276.041L62.0901 275.272L61.8477 274.716L60.003 273.894L59.4538 273.875L57.2795 272.788L55.0409 272.534L54.0106 272.878L51.7606 272.716L50.0106 271.397L48.4197 270.886L46.5447 269.947L44.7113 269.992L43.6053 269.731L41.8932 270.473L41.3212 270.42L40.5182 269.56L40.0409 269.556L39.7454 269.818L39.3704 269.636L38.7227 269.75L38.7265 269.935L37.5447 270.598L37.5674 270.841L36.4121 270.458L34.9917 270.833L32.5371 269.231L31.8818 269.147L31.4235 269.382L30.1507 269.125L31.3212 264.424L31.3818 262.31L29.95 257.424L30.7113 252.901L30.9045 252.928L31.3932 252.019L32.1507 249.538L32.6053 249.147L32.3742 248.685L32.806 247.909L32.1053 247.583L31.0144 247.515L28.7379 247.848L25.9992 247.405L25.6962 248.106L25.9424 249.636L26.1621 249.901L25.7227 251.829L26.6962 253.31L26.4045 253.344L26.0636 253.943L25.5295 254.246L24.3667 254.117L24.7757 254.42L24.5333 254.644L24.9841 255.155L24.4348 255.416L24.0712 255.534L23.3515 255.753L22.9651 255.428L21.3288 252.761L21.1659 252.837L21.0598 252.064L21.1432 251.897L21.6924 251.947L21.7568 251.765L21.1659 251.757L21.8098 247.973L21.9727 244.818L22.3704 244.136L22.9045 244.485L23.0485 244.333L23.0333 244.106L22.4083 243.871L22.7341 242.651L23.2947 242.102L23.4083 242.238L24.4007 241.92L24.1621 242.655L25.7871 242.625L26.9235 242.894L27.0977 243.11L27.8515 243.693L27.9386 243.992L27.5712 244.674L26.8515 245.352L26.6848 246.064L26.9348 246.276L26.6129 247.049L29.9007 247.564L31.681 247.299L31.6507 247.06L32.0409 246.693L32.4348 246.655L32.6204 246.988L32.9045 246.996L32.7909 246.765L33.0598 246.507L32.7454 246.223L31.7492 240.765L31.5636 241.272L31.2303 241.17L31.2379 240.572L31.5674 240.556L31.4273 239.886L31.7303 239.511L31.325 239.306L31.2682 238.829L31.5409 238.473L31.3439 238.219L31.7151 237.844L31.2341 237.719L31.147 237.337L31.6204 237.17L31.522 236.848L31.1167 236.931L31.0144 236.594L30.7 236.602L30.5712 236.378L30.8932 236.132L30.9803 235.545L31.1697 235.818L31.4386 235.746L31.128 234.181L31.4045 233.144L30.5788 232.867L29.022 233.769L28.6432 234.253L27.6204 234.647L26.7417 236.598L26.0939 236.856L25.4045 236.795L24.753 236.098L24.772 235.303L25.575 234.242L26.3098 233.992L27.8591 234.219L30.556 232.594L31.4651 232.878L31.9765 231.488L32.0295 230.651L31.7227 230.25L31.7795 229.822L31.3136 229.155L29.5333 222.057L28.575 221.541L27.6015 220.644L26.4576 220.151L25.8326 219.424L25.3591 219.276L24.1356 219.704L21.647 219.098L21.3363 219.738L20.0257 219.163L20.4576 219.128L20.3894 218.886L19.7871 218.719L19.7113 219.068L19.4689 218.863L19.7568 218.337L19.3932 217.837L18.931 217.136L18.7227 216.78L13.4917 210.939L12.2492 209.057L12.4273 208.36L13.4007 207.878L13.4197 207.53L13.0523 207L12.075 206.458L10.9538 206.363L9.90074 207.738L9.73787 208.428L9.2909 209.049L9.30226 210.136L9.58256 210.962L10.1053 211.708L11.0333 212.094L10.5257 213.003L10.9879 213.746L11.806 214.253L12.9235 215.556L12.95 216.954L12.2833 217.352L6.93105 212.712L0.787109 209.81L0.813625 209.242L1.82499 206.753L5.23787 195.556L6.08635 189.913L5.80226 185.928L6.78711 185.746L6.64317 185.28L6.24923 185.019L6.27196 184.519L6.76817 184.405L8.61665 184.901L8.5712 185.7L9.66211 186.295L11.0523 187.636L11.4576 187.613L11.7303 187.235L13.7076 187.28L15.2265 185.295L16.7568 187.227L19.0674 187.458L18.5977 187.791L19.9386 188.481L20.3932 189.564L22.7682 189.534L23.7757 188.53L23.7151 186.416L24.9765 186.159L25.4727 185.295L24.7379 183.541L26.7113 182.935L27.9235 184.128L32.2833 182.878L33.95 183.86L34.7038 186.087L36.6166 186.81L40.1735 185.572L38.4803 183.86L39.9841 182.958L40.8477 179.761L41.6848 179.905L42.1848 178.492L42.9197 178.644L43.0447 178.462L47.45 179.473L47.0447 183.144L49.7417 184.53L50.825 183.606L51.6735 183.992L52.3288 182.663L52.9613 183.242L53.6962 181.147L54.3477 180.189L55.4083 180.928L57.1053 179.598L59.503 176.5L59.4727 175.197L60.7416 172.958L62.7227 173.072L63.9576 174.492L65.1659 174.606ZM83.7454 241.401L83.5371 241.435L83.7113 241.822L85.056 241.587L84.8629 241.193L84.8363 241.007L84.431 240.295L83.7644 240.697L83.7454 241.401Z" fill="#CCCCCC" stroke="white" stroke-width="0.5"/>
</svg>
