<svg width="489" height="302" viewBox="0 0 489 302" fill="none" xmlns="http://www.w3.org/2000/svg">
<path d="M205.874 167.011L206.446 165.539L205.102 163.256L209.875 164.33L210.042 164.927L213.097 166.422L214.903 165.436L215.508 163.272L218.014 162.437L219.915 159.827L222.549 159.931L223.193 160.925L224.808 157.218L226.71 156.701L227.529 155.65L228.834 155.897L233.106 160.177L230.934 162.763L229.406 166.208L232.358 170.408L234.562 167.64L234.419 166.566L235.477 166.558L238.906 163.312L242.398 164.33L244.522 157.361L248.564 158.864L250.322 157.234L252.685 161.347L254.34 166.701L257.554 170.337L254.992 171.403L248.969 169.573L246.089 173.447L245.294 172.612L243.273 174.561L247.299 179.478L247.728 182.548L249.351 182.564L251.078 184.585L252.096 184.641L254.626 187.656L254.324 189.032L255.843 188.436L257.418 188.841L258.874 187.441L258.779 186.399L259.71 185.874L260.426 186.51L262.78 185.468L262.454 184.681L263.592 183.71L266.289 186.065L267.363 184.06L269.583 182.23L269.766 181.299L267.888 175.921L268.548 175.874L271.118 170.416L274.961 172.803L278.843 173.94L278.747 172.023L279.869 170.106L284.961 168.069L286.783 169.263L289.4 170.734L290.108 171.761L289.368 172.508L289.694 174.036L287.737 174.959L287.745 176.081L290.355 176.431L291.58 178.682L289.058 179.947L288.875 180.997L286.369 182.899L284.913 182.27L284.293 182.668L283.394 184.681L282.646 183.981L280.538 185.699L279.837 185.5L281.031 187.107L282.288 187.338L282.741 186.773L283.012 187.672L280.522 188.125L280.426 189.86L282.55 191.26L282.956 190.17L282.375 188.841L283.219 188.436L284.444 189.693L284.468 190.496L281.818 192.891L277.737 198.468L280.848 201.825L278.644 207.951L279.607 209.272L279.217 211.491L279.607 212.708L275.86 217.084L272.12 213.981L264.157 218.993L266.257 221.603L269.137 221.062L272.407 224.244L272.828 226.249L271.619 228.015L272.876 230.521L271.42 234.117L269.742 235.541L267.005 233.695L261.595 237.872L260.004 236.639L255.27 238.151L255.811 239.909L257.808 242.486L253.886 246.703L256.973 251.118L258.246 254.619L257.251 255.303L255.851 254.34L253.751 256.401L248.858 255.613L248.126 257.165L244.546 259.098L245.986 261.668L241.706 264.142L241.738 265.622L238.134 269.21L235.668 270.268L234.49 268.684L228.643 272.4L230.051 274.723L229.637 275.105L228.826 274.253L218.945 274.277L218.086 270.268L215.969 269.902L213.05 273.935L214.052 277.603L209.271 277.698L207.958 279.329L208.897 281.748L207.966 281.843L207.337 280.936L205.563 281.541L201.601 280.626L199.644 282.575L198.483 282.137L198.777 283.18L195.953 283.816L195.348 282.806L194.863 283.355L193.749 282.36L194.298 281.04L196.558 279.799L197.743 279.846L195.905 278.184L198.706 272.145L197.075 270.864L197.138 269.83L198.873 269.138L196.876 268.135L196.176 264.611L197.17 263.505L195.022 262.614L194.95 261.493L195.937 261.938L196.565 260.22L193.686 259.36L193.749 257.539L194.553 256.584L195.619 256.385L195.348 257.992L195.842 259.034L197.433 254.563L198.825 254.086L198.403 252.892L198.992 251.293L196.351 253.131L195.42 252.495L197.743 249.766L198.348 250.283L199.175 249.352L198.507 246.194L199.262 246.09L200.663 247.156L201.832 247.021L202.62 242.319L200.933 239.471L199.971 232.916L200.305 231.269L202.556 227.426L202.588 224.411L200.694 219.908L200.496 215.461L198.371 212.223L198.165 210.624L199.819 208.054L203.105 207.561L205.858 205.986L208.443 202.04L208.571 200.162L207.194 197.64L206.216 193.655L204.871 191.053L202.866 189.191L202.739 184.879L205.102 178.475L205.794 176.741L204.688 172.095L205.364 169.66L205.874 167.011Z" fill="#CCCCCC" stroke="white" stroke-width="0.5"/>
<path d="M140.233 243.242L141.904 243.847L142.365 243.011L143.71 242.884L145.253 244.905L145.794 244.157L144.633 243.632L144.561 241.269L145.953 240.585L147.194 241.381L150.798 239.018L150.782 237.379L149.684 236.106L149.669 233.075L152.66 231.802L155.588 232.47L158.969 230.871L161.22 232.852L161.029 235.072L161.594 236.718L164.204 238.063L164.307 239.225L163.241 240.346L163.376 243.648L165.126 244.34L166.177 243.966L166.622 245.159L165.23 249.002L163.734 250.068L162.358 250.195L162.986 251.405L163.981 251.444L168.436 248.692L168.38 247.793L169.876 247.554L169.566 246.973L170.894 246.074L170.791 242.916L171.356 243.696L172.859 243.974L174.021 246.011L174.657 246.194L174.793 245.223L175.214 245.867L174.721 246.671L175.326 247.976L174.538 250.251L176.121 251.357L177.593 251.174L177.044 252.216L178.77 255.176L180.314 254.372L180.926 255.955L182.836 257.157L185.732 260.896L186.288 260.387L190.322 262.805L191.539 262.153L192.478 262.765L195.04 262.63L197.188 263.521L196.193 264.627L196.893 268.151L198.89 269.154L197.156 269.846L197.092 270.888L198.731 272.169L195.923 278.207L197.768 279.878L196.575 279.83L194.324 281.079L193.775 282.4L194.889 283.394L194.578 286.449L193.544 286.593L191.197 285.423L190.306 284.309L188.365 283.84L187.156 282.551L184.713 283.188L183.981 282.647L184.093 284.683L182.581 285.558L183.464 286.863L182.382 287.682L181.833 286.791L181.292 289.043L180.68 289.114L181.237 290.539L179.693 291.103L179.12 292.488L177.712 293.06L177.72 294.516L176.591 294.238L176.201 295.224L174.84 295.232L173.886 295.757L173.941 296.29L171.753 295.153L171.085 298.057L169.287 297.723L168.539 298.494L168.643 301L165.731 300.666L165.047 300.197L164.856 298.789L162.676 297.309L162.827 297.993L162.183 297.89L160.767 300.022L160.488 299.345L157.839 298.59L156.423 299.147L154.036 298.462L153.018 296.72L149.915 295.837L148.626 296.943L147.298 295.765L145.285 295.622L143.94 297.715L142.397 298.104L138.316 296.784L136.351 295.097L131.371 296.163L129.724 295.511L127.639 296.704L126.526 298.192L125.682 296.529L124.632 295.972L123.837 293.657L123.001 294.254L120.559 292.941L119.063 293.434L117.695 291.589L115.682 291.453L114.481 290.714L112.699 291.064L111.45 289.751L112.715 289.337L112.532 288.422L113.884 287.126L114.528 288.597L115.101 287.746L116.828 288.056L117.337 286.68L116.732 285.105L117.233 284.508L116.303 283.8L116.525 282.822L114.735 281.74L114.767 280.276L112.508 280.196L111.935 278.923L111.386 279.162L112.038 280.681L110.893 280.562L109.477 275.494L111.64 274.874L111.704 273.338L110.129 271.174L109.819 269.424L111.8 268.613L111.903 267.746L113.033 267.563L113.454 264.643L112.372 263.457L113.852 262.67L113.979 257.745L115.213 255.494L115.229 254.086L116.732 252.59L116.008 251.094L117.4 250.036L118.395 252.861L119.835 253.338L121.1 251.914L120.941 250.991L121.633 250.681L122.11 251.532L123.16 251.261L123.248 252.2L125.245 252.479L126.207 251.397L127.21 251.643L127.615 250.824L129.246 251.094L129.676 250.53L130.535 251.047L131.418 250.283L131.14 247.419L132.874 242.447L136.597 242.264L136.955 243.33L138.045 242.892L139.74 243.688L140.233 243.242ZM153.893 260.275L150.894 259.48L148.412 261.214L148.937 262.988L145.921 263.084L146.144 264.794L147.266 266.544L146.852 268.637L149.764 270.315L152.135 273.251L156.24 271.644L156.868 268.167L158.022 267.547L158.261 265.319L159.335 264.524L161.491 265.263L162.994 264.006L161.873 260.872L159.39 257.602L154.744 259.71L153.893 260.275Z" fill="#CCCCCC" stroke="white" stroke-width="0.5"/>
<path d="M350.062 145.785L351.057 146.589L351.637 145.658L353.181 146.334L355.464 149.883L356.387 149.556L356.411 148.22L360.914 151.776L366.085 152.46L368.241 154.322L373.452 154.051L372.823 156.032L373.356 157.433L372.266 158.26L372.76 160.814L368.599 163.916L369.299 166.367L368.352 166.836L368.344 167.847L369.569 169.151L377.31 172.302L381.336 172.341L382.378 173.384L383.301 173.121L383.42 174.402L382.633 174.609L382.084 176.28L383.667 174.816L385.616 175.452L386.316 176.343L387.573 174.951L392.466 174.203L391.861 172.23L392.545 169.923L395.067 170.361L396.571 169.064L396.937 167.807L397.685 167.369L397.884 168.411L399.069 167.56L400.469 168.173L401.193 169.971L400.358 170.432L399.674 173.026L400.652 173.352L400.66 173.901L400.103 174.967L399.061 174.68L397.557 177.059L394.845 177.688L394.781 179.565L395.911 182.024L395.147 182.214L394.956 184.307L389.22 187.163L389.124 190.942L388.353 192.827L386.571 194.625L386.626 195.357L389.594 197.458L389.729 199.431L388.599 200.33L387.183 203.019L385.688 202.024L384.033 202.716L382.816 202.183L383.078 203.918L384.518 205.437L383.325 206.742L381.972 207.171L381.264 209.59L378.162 208.062L376.984 208.866L375.29 208.938L374.351 210.107L373.539 212.907L374.78 213.814L372.72 217.585L371.582 217.999L370.524 222.231L371.479 224.753L373.062 224.881L374.502 227.323L374.223 228.421L372.569 231.15L372.966 232.033L367.811 231.325L367.278 232.423L366.594 232.502L366.045 238.278L364.295 240.092L364.756 242.59L363.992 243.306L362.409 243.226L362.218 242.55L359.975 243.035L359.132 246.958L356.904 247.873L356.323 248.883L354.374 248.294L353.451 246.56L351.24 247.292L348.304 246.806L347.819 245.382L346.41 245.597L345.83 247.005L343.904 246.043L342.695 244.42L336.848 245.908L335.774 245.693L333.833 244.205L334.612 241.182L334.509 237.864L333.117 234.34L329.775 234.857L329.051 237.801L324.962 237.387L324.851 237.84L321.509 236.186L319.393 233.449L321.048 231.953L321.851 231.993L321.796 228.58V227.196L323.562 226.639L323.164 224.523L324.222 219.463L324.007 218.508L322.058 217.768L321.127 216.511L321.708 215.453L321.525 207.792L321.04 207.45L321.541 203.727L322.52 203.703L321.756 198.969L322.925 195.492L320.547 193.631L316.465 193.671L312.535 189.844L310.363 190.703L309.273 184.951L312.877 180.934L316.879 181.101L318.948 180.202L319.544 178.786L321.589 179.279L322.909 178.706L326.068 180.552L328.343 179.064L329.664 179.43L330.499 178.841L332.058 176.431L332.194 174.76L330.539 174.505L331.112 173.917L332.106 174.291L331.891 172.731L330.897 172.373L331.422 170.162L330.65 169.406L330.913 166.645L332.09 166.749L332.329 165.627L334.318 164.553L334.501 166.287L338.033 166.263L337.93 165.444L338.638 165.269L338.2 164.983L340.125 164.155L340.714 162.962L341.923 163.423L341.017 162.286L341.351 160.639L340.46 158.745L340.651 157.703L342.25 157.337L340.841 154.489L344.278 151.824L345.424 151.848L346.936 150.376L347.906 150.4L350.062 145.785ZM354.589 197.704L350.205 199.614L348.447 198.412L345.504 201.053L347.182 203.098L348.32 203.074L350.5 206.408L348.789 210.616L360.81 207.323L361.773 206.909L363.372 204.634L365.09 205.31L366.912 204.204L366.363 203.138L366.689 202.12L364.764 199.82L363.03 199.741L361.86 198.436L359.657 198.571L358.376 200.003H357.302L356.148 197.489L355.361 198.221L354.589 197.704Z" fill="#CCCCCC" stroke="white" stroke-width="0.5"/>
<path d="M356.538 198.157L357.294 200.011H358.376L359.649 198.579L361.853 198.444L363.03 199.749L364.765 199.836L366.69 202.127L366.364 203.154L366.913 204.22L365.083 205.317L363.372 204.641L361.773 206.917L360.811 207.338L348.79 210.624L350.5 206.415L348.32 203.082L347.183 203.098L345.504 201.053L348.447 198.412L350.206 199.613L354.589 197.704L355.353 198.229L356.141 197.497L356.538 198.157Z" fill="#CCCCCC" stroke="white" stroke-width="0.5"/>
<path d="M383.492 1L384.184 2.13766L386.849 3.91177L387.74 3.73675L388.902 4.88236L388.878 6.02002L390.835 9.42505L392.156 9.03522L393.444 9.85465L394.423 8.74086L395.282 9.41709L395.879 9.17842L396.595 11.0798L396.563 13.6734L399.403 19.2662L399.491 21.462L400.143 22.2973L400.962 22.1223L402.426 22.9894L402.323 24.2942L403.246 24.7317L403.103 25.9649L404.097 26.5775L407.001 27.556L409.372 27.3969L411.018 28.4311L411.766 28.0333L412.085 24.8988L413.429 24.9068L413.954 26.0603L415.028 25.1454L415.617 25.5671L415.275 24.8272L415.704 24.3021L415.927 25.0818L416.317 24.326L416.5 24.8749L417.176 24.4772L418.473 25.2329L418.521 24.1987L420 23.4111L422.681 23.6577L425.728 21.9075L427.741 23.5304L429.205 22.5598L429.945 24.0953L430.613 23.1088L430.828 23.6816L432.228 23.427L431.894 24.6999L432.61 25.4159L431.202 25.4637L432.531 26.3388L431.385 26.6013L429.523 29.2028L430.207 31.0326L428.441 30.8178L428.481 31.9237L427.24 31.1838L428.107 32.1226L427.558 32.8942L427.184 31.8918L426.118 31.2793L426.19 32.226L424.583 32.2498L425.41 30.7224L424.511 30.8417L422.387 32.7749L421.886 33.8092L422.268 34.6127L421.504 34.2944L419.714 36.3868L419.189 35.8538L419.26 36.7766L418.298 37.238L417.805 38.4234L416.134 37.7313L414.543 38.6701L412.92 38.3677L412.196 40.0623L411.384 38.0893L411.066 39.1792L410.199 38.3121L410.318 39.76L409.22 39.9668L409.372 41.0488L408.552 41.2557L408.146 42.274L407.216 41.7728L406.937 43.1173L405.744 43.6185L405.807 42.2262L404.455 42.9502L403.85 42.3933L403.588 43.6503L402.928 43.0934L399.586 43.5787L395.752 43.1332L393.245 41.6614L392.816 42.4729L391.615 42.5445L388.862 44.1754L389.148 45.2255L387.899 45.5517L387.812 45.0664L386.197 44.7323L385.536 46.2041L384.518 44.8834L383.54 44.9391L382.163 47.1588L382.537 49.4261L381.495 50.9536L382.1 52.5527L384.081 54.3109L383.89 54.8678L382.832 54.5814L383.134 55.727L384.271 55.5758L384.94 56.3078L383.166 56.9681L383.094 58.957L382.577 59.2275L381.407 58.416L380.986 60.4686L377.143 60.4765L375.894 61.7176L374.589 60.6913L373.094 60.8743L373.006 59.8719L370.85 59.9355L370.007 58.1694L367.835 59.8719L368.217 61.1209L367.485 61.6142L365.536 60.93L363.961 61.2482L364.168 59.8162L363.666 59.315L362.656 59.6969L361.264 59.0127L361.009 59.9355L357.413 63.4997L359.466 66.5865L359.076 67.1752L360.508 68.1776L359.728 71.4076L358.352 72.5691L359.418 73.1181L360.675 72.768L360.755 73.3488L357.755 75.7037L357.763 78.5279L355.774 79.7531L357.445 83.2934L356.649 84.4628L356.474 86.3404L355.321 87.8679L354.875 90.4614L354.366 90.9865L353.133 89.7693L351.693 90.3262L351.248 92.2594L351.717 93.7312L348.145 94.4711L346.967 95.744L347.119 96.7384L346.299 96.5714L344.74 97.6295L343.554 96.2531L343.674 98.2898L344.756 98.5921L343.897 99.141L342.719 98.9262H341.112L341.542 100.621L342.934 101.472L342.472 102.124L341.589 101.711L341.239 100.509L340.277 100.446L340.189 99.324L339.449 99.4275L337.031 98.0273L334.835 99.6502L335.32 100.931L330.642 97.2396L329.648 97.6215L328.614 96.8021L328.303 97.5181L325.917 97.4624L321.732 94.9405L321.08 94.0812L322.727 91.8696L318.049 87.9077L317.15 85.8869L316.243 85.2664L315.948 83.3331L316.831 81.384L316.219 78.7666L313.434 77.5335L312.177 75.3377L313.402 73.7148L313.935 73.6432L314.445 74.1762L315.964 74.1205L315.352 73.1181L317.261 71.694L316.895 70.5643L313.943 69.0607L312.336 67.3661L315.185 61.6142L315.216 59.5457L314.397 57.8352L315.662 57.6045L316.267 56.7533L325.137 56.0611L328.065 58.424L330.69 59.0684L331.868 61.5505L334.668 60.0708L335.734 59.8958L336.808 60.58L338.224 59.9992L339.417 58.5115L340.762 58.3046L341.661 55.3929L340.706 54.9792L340.977 51.6617L339.68 50.4444L339.744 49.6091L336.418 48.6306L334.612 49.1238L332.743 47.2065L331.939 48.1293L327.118 47.8588L323.124 50.2933L317.484 50.0864L314.437 51.6139L312.344 47.9225L309.671 48.0737L308.955 47.6043L307.865 48.0498L308.128 49.4102L306.25 51.6617L305.733 54.1916L303.418 52.4493L302.845 50.9138L301.612 51.4469L300.65 50.9536L300.069 53.6187L297.579 54.47L295.343 53.9927L294.444 52.7038L292.296 51.9003L291.723 49.5773L289.05 48.7022L287.149 49.267L286.632 48.726L286.25 47.7475L284.563 47.4849L283.656 46.0131L285.701 44.422L284.977 43.7378L285.597 42.9741L286.401 42.9979L289.52 40.1259L290.14 37.9461L289.806 36.8482L292.805 37.3812L294.969 37.0789L294.651 36.0447L296.481 35.9015L296.982 34.907L296.401 34.2944L297.38 33.9444L300.634 35.9572L302.519 35.639L302.169 34.74L303.498 34.7957L304.341 31.9157L306.378 29.9427L306.958 28.9801L306.569 28.3993L309.6 24.7158L309.114 23.0451L310.157 21.629L310.109 18.8843L312.392 15.9646L313.928 15.0577L313.49 14.1268L314.93 13.204L315.702 11.6288L316.609 11.4378L316.808 8.84428L316.211 7.03835L317.372 6.28256L318.645 7.30884L319.465 5.51086L322.201 6.56896L327.341 3.72879L329.059 3.73675L331.454 2.70251L332.679 3.19576L340.802 1.22276L340.324 2.06606L340.945 1.89103V3.36283L342.305 4.68347L346.013 4.00724L347.174 6.1314L347.652 5.71771L347.747 6.45758L348.765 6.65648L348.853 7.818L350.07 7.76231L350.595 8.3749L352.918 6.76786L355.671 7.34066L355.679 7.8896L356.586 7.40431L358.614 8.39877L359.068 10.4434L360.564 11.1435L361.351 10.9366L362.632 8.49423L364.239 7.79414L364.748 8.27147L365.281 7.58729L366.872 7.30088L366.857 6.62465L367.429 6.79172L367.732 6.19505L368.559 6.55305L369.068 5.99616L371.065 7.47591L373.834 7.78618L374.589 6.73603L374.192 5.94842L374.677 6.02002L374.987 5.20059L374.486 4.69143L375.337 4.38116L374.613 4.1584L374.932 3.63332L379.013 3.91177L380.572 3.34692L381.702 3.87199L382.259 1.67623L383.492 1Z" fill="#CCCCCC" stroke="white" stroke-width="0.5"/>
<path d="M216.114 105.562L215.891 105.991L216.75 106.612L218.437 106.962L219.391 108.298L219.376 109.006L218.771 109.078L220.839 110.462L219.909 111.003L221.603 112.785L223.361 113.008L224.157 113.843L225.923 113.358L227.268 116.381L231.214 115.657L230.903 118.036L232.327 121.139L229.941 121.863L228.477 124.082L227.371 123.86L226.249 125.912L225.772 125.729L223.099 128.347L221.189 131.99L219.026 132.444L218.317 133.215L215.27 130.129L215.772 129.309L214.228 127.408L210.537 129.731L209.733 128.8L205.214 130.479L204.753 128.712L205.533 127.869L205.191 125.785L206.559 124.52L206.686 122.801L206.129 122.443L206.989 121.377L205.612 119.118L204.459 119.126L203.655 118.163L204.355 117.368L203.496 116.548L204.133 115.283L202.987 114.909L203.607 114.814L203.647 112.674L202.955 112.69L203.981 111.862L203.186 109.651L204.705 108.855L206.623 109.515L207.506 108.251L210.712 108.052L210.083 106.182L211.309 105.562L213.838 105.888L213.584 107.996L215.159 105.577L216.114 105.562Z" fill="#CCCCCC" stroke="white" stroke-width="0.5"/>
<path d="M286.664 256.13L288.303 252.955L289.854 253.425L292.678 252.239L293.943 253.87L296.935 261.166L294.993 260.076L294.922 259.336L293.06 257.594L290.093 259.057L287.841 257.371L287.475 255.811L286.664 256.13ZM319.362 233.392L321.478 236.129L324.827 237.792L324.939 237.338L329.028 237.752L329.752 234.808L333.101 234.291L334.493 237.816L334.597 241.133L333.817 244.156L335.758 245.644L333.952 248.46L334.613 252.86L332.425 252.605L331.311 256.981L328.678 259.24L327.166 258.485L325.965 261.006L319.187 255.541L315.917 254.204L315.591 256.488L313.355 259.01L311.366 259.185L308.757 257.705L308.343 258.429L307.388 257.57L306.41 258.508L305.479 256.512L302.496 258.612L302.201 257.888L300.753 258.97L298.367 261.993L297.945 261.468L299.067 260.903L299.353 259.216L298.828 258.564L300.101 253.894L297.022 254.539L295.853 253.998L295.2 253.329L295.057 249.869H296.712L297.309 250.449L301.509 250.242L301.987 246.718L301.414 243.488L305.964 243.345L307.929 242.661L310.539 240.815L312.544 238.118L319.378 234.18L319.362 233.392ZM310.3 190.631L312.472 189.771L316.41 193.598L320.491 193.558L322.87 195.42L321.701 198.897L322.464 203.63L321.486 203.654L320.985 207.377L321.47 207.719L321.653 215.389L321.072 216.447L322.003 217.704L323.952 218.444L324.167 219.398L323.109 224.458L323.515 226.574L321.748 227.139V228.524L316.689 228.42L312.87 223.09L311.629 223.257L310.467 221.332L307.317 223.066L306.291 221.26L301.469 221.451L301.923 223.742L298.749 224.498L299.958 226.646L296.768 229.804L295.153 229.16L295.702 226.781L295.129 225.874L293.8 226.527L292.448 230.703L292.559 232.613L291.74 232.47L290.825 233.281L290.912 236.352L292.822 237.776L292.05 239.852L291.668 239.343L289.417 239.375L288.279 238.452L285.685 238.19L284.914 240.218L285.296 242.788L282.694 241.404L281.692 241.467L278.088 244.817L280.665 246.917L284.126 247.593L285.423 248.492L283.712 251.324L284.015 253.011L284.93 253.258V254.881L283.911 256.01L281.803 256.4L275.176 255.883L273.752 257.1L269.527 258.548L266.966 260.768L262.845 258.898L260.824 256.432L259.798 256.456L258.262 254.634L256.981 251.126L253.895 246.71L257.825 242.494L255.828 239.916L255.279 238.166L260.02 236.654L261.604 237.887L267.013 233.711L269.75 235.556L271.429 234.132L272.885 230.528L271.628 228.03L272.837 226.264L272.415 224.259L269.146 221.077L266.266 221.618L264.165 219.009L272.129 213.996L275.876 217.099L279.615 212.732L279.225 211.514L279.623 209.295L278.653 207.974L280.856 201.856L277.746 198.499L281.827 192.922L284.468 190.527L284.778 191.999L286.012 192.524L286.545 194.903L287.762 194.465L287.356 192.986L288.04 192.556L292.551 195.881L294.445 192.89L295.813 193.184L295.582 191.92L296.784 191.148L298.47 191.593L301.016 194.37L303.617 195.046L304.644 194.386L305.137 192.572L308.86 192.476L310.3 190.631Z" fill="#CCCCCC" stroke="white" stroke-width="0.5"/>
<path d="M383.198 114.416L383.055 112.245L385.346 106.676L392.299 105.49L397.407 102.944L397.908 103.255L396.444 106.333L397.041 106.485L398.894 103.883L400.875 104.886L403.429 104.44L404.153 105.251L402.53 110.478L405.999 110.908L407.932 108.784L410.565 107.726L414.185 110.749L413.501 111.592L413.302 116.342L410.637 121.195L408.919 120.972L406.158 123.565L403.318 123.931L400.581 125.395L399.77 124.616L399.626 122.698L398.385 122.149L395.513 122.388L394.002 123.995L391.647 125.069L390.891 119.826L389.825 118.315L389.626 115.443L387.128 115.037L383.198 114.416Z" fill="#CCCCCC" stroke="white" stroke-width="0.5"/>
<path d="M205.101 178.475L202.428 179.454L199.731 179.207L197.408 176.637L197.941 176.184L196.859 174.481L195.547 173.988L194.584 171.434L198.148 169.947L205.364 169.66L204.688 172.095L205.794 176.741L205.101 178.475Z" fill="#CCCCCC" stroke="white" stroke-width="0.5"/>
<path d="M312.176 75.3377L310.307 75.7753L309.917 78.9337L306.615 79.8645L305.231 79.4667L305.462 78.0586L303.783 76.8175L302.773 75.115L302.924 74.4865L303.465 74.3592L303.179 72.243L301.723 67.1355L303.72 63.1895L306.623 64.1521L307.594 65.1227L307.133 67.2309L308.732 70.3098L310.8 71.6543L312.176 70.5405L313.25 71.1531L313.02 71.8134L313.935 73.6432L313.402 73.7148L312.176 75.3377Z" fill="#CCCCCC" stroke="white" stroke-width="0.5"/>
<path d="M185.913 108.998L186.653 110.557L186.08 111.647L186.343 113.899L188.682 118.139L190.44 118.171L192.811 121.751L193.073 124.925L190.83 127.551L195.094 133.406L198.34 136.278L198.634 137.384L198.149 137.988L199.525 138.315L199.143 139.349L199.652 140.662L202.485 141.234L201.665 145.865L199.796 149.254L199.175 154.099L201.053 162.198L204.466 165.07L205.866 167.035L205.357 169.692L198.141 169.978L194.577 171.466L195.539 174.012L196.844 174.505L197.926 176.215L197.393 176.669L199.716 179.239L202.405 179.493L205.086 178.507L202.723 184.919L201.124 184.696L201.045 185.189L198.181 185.953L199.31 187.003L198.316 188.746L193.551 192.135L193.471 194.028L190.082 194.402L187.918 196.065L188.92 198.475L185.102 201.952L183.232 202.557L181.529 202.35L181.76 200.735L180.567 198.181L180.511 196.574L179.708 196.646L177.583 195.269L176.287 192.731L172.723 194.704L173.16 196.542L171.561 196.813L171.02 196.343L169.874 197.115L167.018 196.391L166.979 194.076L166.286 192.914L166.724 192.023L165.642 190.456L165.499 194.1L164.934 194.132L164.735 192.469L164.282 193.503L163.772 191.936L162.651 193.304L160.694 192.079L159.039 191.936L158.402 191.275L158.84 189.875L158.394 189.064L154.385 192.103L154.321 192.692L151.513 193.264L150.487 188.937L151.33 187.25L150.63 184.282L151.393 183.893L149.938 183.383L151.767 181.824L150.248 177.297L148.028 174.394L151.226 171.625L151.704 170.169L153.207 169.27L153.327 168.522L155.212 167.957L154.981 167.377L153.327 167.727L151.64 164.576L151.051 161.8L153.239 160.065L152.42 158.888L152.571 157.05L151.648 153.582L152.499 151.203L152.515 147.368L152.022 146.429L150.598 146.39L149.015 144.87L147.766 142.141L146.827 142.149L144.13 143.868L141.855 140.534L140.582 140.86L139.874 137.981L141.194 136.405L139.659 136.175L139.086 134.846L138.863 134.265L140.319 133.104L142.682 132.356L142.149 130.876L144.138 127.972L143.939 125.816L145.053 124.886L144.758 123.151L146.437 122.356L147.447 123.668L148.768 122.825L149.564 123.342L150.415 122.379L149.946 119.818L153.86 121.727L154.257 124.154L156.191 125.116L157.519 127.161L158.88 127.861L160.161 126.318L161.099 126.755L163.462 126.039L161.624 124.026L161.959 123.135L163.295 121.592L164.616 122.626L166.66 120.279L167.034 118.959L168.824 118.131L170.933 116.787L170.773 115.975L171.442 116.071L170.519 114.599L171.792 114.352L171.283 112.021L174.21 111.48L174.887 111.83L175.809 109.977L176.82 110.207L177.703 109.467L180.615 110.518L181.243 109.81L183.996 109.897L185.913 108.998ZM165.57 142.913L164.361 143.43L164.107 144.56L162.197 145.793L159.604 149.198L162.802 154.902L164.138 155.61L164.393 160.248L166.851 159.843L168.657 158.61L169.508 159.715L172.221 156.446L174.099 155.244L174.879 155.936L175.937 155.356L174.465 151.863L172.961 151.959L172.929 150.972L173.844 149.707L172.46 148.283L172.341 146.915L173.574 145.196L171.394 142.73L169.015 142.889L167.36 140.105L165.928 140.837L165.57 142.913Z" fill="#CCCCCC" stroke="white" stroke-width="0.5"/>
<path d="M108.894 94.6784L109.714 94.7818L109.626 94.2328L112.641 92.0928L114.591 93.5805L119.666 93.0156L122.65 94.9091L124.177 99.1176L114.328 104.329L112.029 103.613L109.968 106.397L109.626 107.837L107.9 108.108L102.092 106.007L101.416 104.758L101.567 104.026L102.832 104.138L105.036 103.215L105.768 98.2505L106.969 96.1263H107.812L108.894 94.6784Z" fill="#CCCCCC" stroke="white" stroke-width="0.5"/>
<path d="M82.3866 62.2109L82.9117 64.0089L83.8584 64.4385L88.7193 64.6931L95.4339 71.9407L97.5182 76.4356L102.849 78.695L105.291 83.4684L108.457 83.0229L115.848 89.9761L119.683 90.8354L120.948 91.79L126.469 91.0899L128.959 91.8059L129.627 95.8952L128.887 97.359L128.824 98.3694L129.484 99.0615L128.482 102.713L129.842 104.424L131.553 104.869L130.948 107.622L130.168 108.378L130.773 108.728L129.659 110.931L131.187 111.95L131.242 111.313L131.958 112.18L129.938 112.912L128.076 112.117L128.163 114.082L130.081 116.771L130.049 117.598L129.603 117.32L128.426 118.282L128.537 119.683L127.416 119.659L128.346 121.194L127.241 121.854L126.286 119.643L124.369 118.139L122.881 120.12L122.077 119.969L121.823 118.243L118.839 121.934L117.463 119.937L116.858 120.12L117.137 120.59L116.524 121.29L117.081 122.284L115.212 122.626L115.689 121.337L115.06 120.343L113.636 120.916L113.048 120.263L112.308 120.685L112.125 121.878L110.653 122.395L110.303 121.306L109.643 121.6L109.173 120.995L108.028 121.894L105.426 118.632L103.151 120.796L98.5207 118.752L96.2374 118.505L94.7895 119.667L92.3312 119.046L92.0448 121.632L90.8514 123.366L85.2984 124.496H84.4471L81.1057 123.82L80.5568 123.875L80.4534 124.591L78.6713 123.247L77.1677 124.504L75.0753 123.915L73.6831 126.087L69.5223 127.328L68.2494 128.537L67.8516 128.251L69.6655 123.637L68.4642 121.512L64.2238 125.403L62.1315 126.182L60.5881 128.394L59.4902 126.668L58.3684 126.628L58.2093 125.896L56.2681 126.445L55.0032 125.323L53.7701 122.746L51.0174 124.241L50.5719 123.31L49.4581 124.058L49.0285 123.35L46.968 124.209L44.1039 126.684L42.29 125.49L41.4945 125.8L39.2192 123.032L40.3489 122.006L40.9217 120.104L39.6647 117.36L40.3489 116.437L41.0728 116.906L42.3219 116.262L44.2074 113.135L42.9583 112.332L42.3935 111.083L41.1365 111.011L40.5159 110.16L41.3672 109.014L40.7864 107.351L41.0649 106.238L40.2216 106.015L39.7522 104.368L37.9542 103.739L35.2732 104.877L33.7695 104.201L37.103 102.427L42.2662 101.48L43.8812 102.323L46.4986 97.7886L52.3301 97.9477L53.1734 95.6485L55.1066 93.8903L55.5362 97.184L56.3636 97.3431L71.2487 95.2269L69.8007 93.2061L69.5382 88.7828L68.4801 86.229L70.0633 84.5663L68.1778 82.4899L68.5119 81.4238L65.5444 79.1644L66.0616 78.1938L67.7243 78.2893L70.3099 77.2153L70.8588 77.5574L72.0044 75.4412L71.7021 74.1046L72.975 72.0361L71.4078 71.0496L73.1421 68.3606L71.6067 67.2309L77.112 62.8235L79.1964 61.9881L80.9625 62.3541L82.1797 61.7256L82.3866 62.2109ZM107.813 96.1259H106.97L105.768 98.25L105.036 103.214L102.833 104.137L101.568 104.034L101.417 104.766L102.093 106.007L107.9 108.107L109.627 107.845L109.969 106.405L112.029 103.62L114.329 104.336L124.186 99.1331L122.658 94.9246L119.675 93.0311L114.599 93.596L112.658 92.1083L109.643 94.2483L109.73 94.8052L108.903 94.7018L107.813 96.1259Z" fill="#CCCCCC" stroke="white" stroke-width="0.5"/>
<path d="M360.508 68.1773L362.25 68.957L362.91 67.875L365.735 68.591L368.344 70.3333L368.734 71.2721L370.429 71.996L371.272 74.3589L374.788 72.6643L377.087 72.4018L378.671 72.9905L382.322 72.4256L382.625 71.7971L387.414 72.1472L387.517 71.1209L388.416 71.113L388.933 70.2776L390.739 70.9857L392.315 71.646L391.67 73.0144L391.638 75.8545L392.338 76.0693L390.747 83.4999L390.731 86.356L393.85 88.2972L394.9 88.3529L397.605 93.1104L400.724 93.54L400.803 92.9035L402.458 92.7842L403.421 95.3936L407.208 95.6403L406.866 97.3666L408.926 97.7962L409.419 98.9578L411.52 99.6499L413.238 98.7827L413.556 97.7724L415.33 96.2767L415.569 93.4922L418.178 92.7444L421.154 95.4573L422.57 95.8232L422.204 98.735L424.28 99.9761L423.731 102.06L425.004 104.495L426.548 103.222L428.179 99.3556L428.903 99.2044L430.955 100.493L431.982 106.205L432.857 107.041L432.817 107.956L430.494 110.955L429.205 110.836L427.574 112.14L428.648 113.437L427.988 114.296L426.85 113.206L425.076 115.633L424.097 119.881L424.988 122.125L425.872 122.538L425.394 123.461L426.023 126.659L424.257 130.399L422.944 129.985L419.237 130.757L414.877 139.786L415.505 141.298L412.896 145.124L412.641 146.556L413.397 147.161V150.32L410.446 152.038L408.576 157.13L408.608 158.824L406.802 158.697L403.914 159.771L403.102 162.293L400.74 165.284L398.417 165.754L399.101 167.583L397.915 168.435L397.716 167.392L396.969 167.83L396.603 169.087L395.099 170.392L392.577 169.954L391.893 172.261L392.498 174.234L387.605 174.982L386.348 176.374L385.656 175.483L383.707 174.847L382.123 176.319L382.672 174.648L383.46 174.441L383.341 173.16L382.426 173.423L381.384 172.389L377.358 172.349L369.617 169.198L368.392 167.894L368.4 166.883L369.347 166.414L368.647 163.963L372.807 160.861L372.314 158.307L373.404 157.48L372.871 156.079L373.499 154.098L368.289 154.369L366.133 152.507L360.961 151.823L356.458 148.267L356.435 149.604L355.512 149.93L353.228 146.381L351.685 145.705L351.104 146.636L350.11 145.833L353.276 143.565L354.112 133.994L351.367 120.374L352.21 118.417L351.001 116.588L351.08 110.326L349.863 108.361L347.787 107.208L343.984 108.735L340.483 107.144L339.123 102.665L339.513 99.4908L340.253 99.3874L340.34 100.517L341.303 100.581L341.653 101.782L342.536 102.196L342.997 101.535L341.605 100.684L341.176 98.9976H342.783L343.96 99.2124L344.819 98.6634L343.737 98.3691L343.626 96.3244L344.811 97.7087L346.371 96.6427L347.19 96.8097L347.039 95.8073L348.216 94.5424L351.788 93.7945L351.311 92.3228L351.757 90.3895L353.197 89.8326L354.43 91.0498L354.939 90.5248L355.384 87.9312L356.53 86.4117L356.713 84.5342L357.509 83.3647L355.838 79.8244L357.827 78.5992L357.819 75.775L360.81 73.4281L360.739 72.8393L359.474 73.1894L358.416 72.6484L359.792 71.4869L360.508 68.1773ZM387.128 115.036L389.634 115.442L389.824 118.314L390.899 119.825L391.654 125.068L394.009 124.002L395.521 122.395L398.401 122.149L399.642 122.697L399.785 124.615L400.596 125.394L403.333 123.939L406.165 123.565L408.934 120.971L410.652 121.194L413.326 116.341L413.516 111.591L414.209 110.74L410.581 107.717L407.955 108.775L406.014 110.899L402.546 110.478L404.169 105.243L403.445 104.439L400.891 104.885L398.918 103.874L397.056 106.476L396.46 106.325L397.923 103.246L397.422 102.936L392.315 105.481L385.361 106.659L383.07 112.228L383.213 114.4L387.128 115.036Z" fill="#CCCCCC" stroke="white" stroke-width="0.5"/>
<path d="M286.632 48.7262L287.149 49.2672L289.05 48.7024L291.723 49.5775L292.296 51.9006L294.444 52.7041L295.343 53.9929L297.579 54.4702L300.069 53.619L300.65 50.9538L301.612 51.4471L302.845 50.914L303.418 52.4495L305.733 54.1918L306.25 51.6619L308.128 49.4104L307.865 48.05L308.955 47.6045L309.671 48.0739L312.344 47.9227L314.437 51.6141L314.572 54.2156L316.267 56.7535L315.662 57.6048L314.397 57.8355L315.216 59.5459L315.185 61.6144L312.336 67.3664L313.943 69.0609L316.895 70.5645L317.261 71.6942L315.352 73.1183L315.964 74.1207L314.445 74.1764L313.936 73.6434L313.021 71.8136L313.251 71.1533L312.177 70.5407L310.801 71.6545L308.733 70.3099L307.133 67.2311L307.595 65.1229L306.624 64.1523L303.72 63.1896L301.724 67.1356L303.179 72.2432L303.466 74.3594L302.925 74.4867L302.774 75.1152L303.784 76.8177L305.463 78.0588L305.232 79.4669L306.616 79.8647L309.918 78.9339L310.308 75.7755L312.177 75.3379L313.434 77.5337L316.219 78.7668L316.831 81.3842L315.948 83.3334L316.243 85.2666L317.15 85.8871L318.049 87.9079L322.727 91.8698L321.08 94.0815L321.732 94.9407L325.917 97.4626L328.303 97.5183L328.614 96.8023L329.648 97.6217L330.642 97.2399L335.32 100.931L334.461 102.276L332.703 102.22L331.335 103.223L331.422 105.832L330.054 106.779L330.889 108.107L330.475 109.388L328.478 110.247L327.786 111.807L323.713 113.835L321.398 115.864L317.404 117.256L316.004 120.781L314.747 121.29L313.029 120.486L312.75 119.301L313.665 118.195L311.382 119.054L311.024 119.699L311.875 123.502L310.849 124.687L308.788 125.53L307.141 125.005L307.308 122.968L305.16 123.74L304.031 123.494L303.076 122.213L300.729 118.808L301.724 116.453L300.705 113.143L298.223 112.284L298.478 111.465L296.449 110.725L294.81 105.824L292.026 106.142L287.236 107.789L289.543 110.375L287.921 111.624L281.532 108.752L280.498 107.352L281.365 105.005L280.466 103.732L280.339 100.319L279.726 98.9185L277.992 98.5366L277.411 99.3481L273.887 100.836L271.086 99.547L270.665 103.469L268.859 104.273L268.413 105.752L266.941 107.216L262.271 104.464L258.898 105.84L258.612 108.441L257.434 107.662L256.066 107.924L255.103 106.906L255.39 105.18L254.085 101.767L252.717 101.377L250.656 97.3274L251.754 94.6702L249.248 92.188L252.343 89.4115L253.234 90.0241L254.451 89.0933L253.982 88.7034L254.65 87.5021L253.6 84.7415L255.087 84.0016L255.827 85.545L255.971 84.4472L257.14 84.2085L257.578 83.3493L259.877 83.4686L259.503 82.7606L260.569 80.7L262.884 78.4406L263.33 74.4389L263.998 74.2719L267.689 77.5894L268.867 77.0325L269.455 75.3936L268.405 74.3753L266.249 73.7229L265.947 72.3307L270.864 71.4953L272.646 72.9035L274.754 72.8398L275.82 70.2543L277.682 69.2359L277.483 67.08L278.994 66.2923L278.27 65.2024L278.708 64.2875L282.2 63.0305L280.999 61.8054L280.562 58.5037L281.206 58.2889L279.05 56.6819L279.177 56.2125L277.952 55.8784L277.777 54.4702L282.702 52.7518L283.243 50.9936L285.104 51.1925L285.597 49.5218L286.632 48.7262Z" fill="#CCCCCC" stroke="white" stroke-width="0.5"/>
<path d="M292.559 232.613L292.447 230.704L293.8 226.535L295.12 225.875L295.701 226.782L295.152 229.161L296.767 229.805L299.965 226.647L298.748 224.499L301.922 223.735L301.469 221.452L306.29 221.261L307.324 223.075L310.475 221.332L311.636 223.258L312.877 223.091L316.696 228.421L321.756 228.524L321.812 231.937L321.008 231.897L319.361 233.393L319.369 234.173L312.535 238.111L310.53 240.808L307.913 242.654L305.948 243.338L301.397 243.481L301.787 241.77L297.706 240.712L292.559 232.613Z" fill="#CCCCCC" stroke="white" stroke-width="0.5"/>
<path d="M339.45 99.4275L339.068 102.61L340.429 107.089L343.929 108.68L347.74 107.152L349.809 108.306L351.034 110.271L350.954 116.532L352.156 118.37L351.32 120.327L354.065 133.947L353.23 143.518L350.063 145.785L347.836 150.32L346.865 150.304L345.353 151.776L344.208 151.752L340.763 154.417L342.171 157.265L340.572 157.639L340.389 158.673L341.272 160.567L340.946 162.222L341.853 163.351L340.636 162.89L340.047 164.091L338.122 164.919L338.559 165.205L337.859 165.38L337.963 166.199L334.43 166.223L334.239 164.489L332.25 165.563L332.02 166.685L330.842 166.581L330.572 169.342L331.351 170.098L330.826 172.309L331.821 172.667L332.036 174.227L331.041 173.853L330.468 174.434L332.123 174.688L331.988 176.351L330.429 178.761L329.593 179.35L328.273 178.984L325.997 180.472L322.839 178.626L321.518 179.207L319.474 178.714L318.877 180.13L316.809 181.029L312.815 180.862L309.211 184.879L310.301 190.631L308.861 192.453L305.13 192.549L304.636 194.362L303.61 195.023L301.009 194.339L298.463 191.562L296.776 191.117L295.575 191.888L295.806 193.153L294.437 192.859L292.544 195.85L288.033 192.525L287.349 192.954L287.762 194.434L286.537 194.872L286.004 192.493L284.771 191.968L284.469 190.496L284.445 189.692L283.22 188.435L282.376 188.841L282.957 190.17L282.551 191.26L280.427 189.86L280.523 188.125L283.013 187.672L282.742 186.773L282.289 187.338L281.032 187.107L279.839 185.5L280.539 185.699L282.647 183.98L283.395 184.68L284.294 182.668L284.914 182.27L286.37 182.898L288.876 180.997L289.059 179.947L291.581 178.682L290.356 176.43L287.747 176.08L287.739 174.959L289.696 174.036L289.369 172.508L290.109 171.76L289.401 170.734L286.784 169.262L288.041 166.486L286.434 165.603L285.734 162.023L283.936 158.856L283.482 156.812L284.596 154.155L288.558 156.7L288.049 157.353L289.179 158.586L292.727 158.825L293.602 160.4L295.281 161.291L297.564 161.315L298.534 159.62L299.433 160.145L300.484 158.49L299.338 155.189L297.031 154.027L298.137 149.699L299.036 148.936L296.832 149.206L296.856 148.586L297.977 148.259L296.593 146.342L295.018 146.406L292.281 143.979L290.475 143.502L288.932 145.905L286.092 148.108L285.758 146.827L283.244 144.926L279.162 143.486L281.326 138.116L279.393 135.252L279.242 133.438L277.078 131.051L273.792 129.532L267.818 124.917L265.622 121.473L261.97 118.37L264.969 113.883L264.182 113.366L263.164 114.058L261.143 113.573L258.692 115.538L255.033 112.292L255.415 111.274L254.945 110.725L256.067 107.924L257.435 107.662L258.613 108.441L258.899 105.84L262.272 104.463L266.942 107.216L268.414 105.752L268.86 104.273L270.666 103.469L271.087 99.5469L273.888 100.836L277.412 99.348L277.993 98.5365L279.727 98.9184L280.34 100.319L280.467 103.732L281.366 105.004L280.499 107.351L281.533 108.752L287.922 111.624L289.544 110.375L287.237 107.789L292.027 106.142L294.811 105.824L296.45 110.725L298.479 111.464L298.224 112.284L300.706 113.143L301.725 116.453L300.73 118.808L303.077 122.213L304.032 123.493L305.161 123.74L307.309 122.968L307.142 125.005L308.789 125.53L310.85 124.687L311.876 123.501L311.025 119.699L311.383 119.054L313.666 118.195L312.751 119.301L313.03 120.486L314.748 121.29L316.005 120.781L317.405 117.256L321.399 115.864L323.714 113.835L327.787 111.807L328.479 110.247L330.476 109.388L330.89 108.107L330.055 106.779L331.423 105.832L331.336 103.222L332.704 102.22L334.462 102.276L335.321 100.931L334.836 99.6503L337.032 98.0273L339.45 99.4275Z" fill="#CCCCCC" stroke="white" stroke-width="0.5"/>
<path d="M120.979 230.354L121.082 230.895L123.079 228.683L125.848 232.263L126.763 237.625L126.11 238.206L124.71 238.071L124.288 239.065L124.901 240.012L123.946 245.032L122.681 244.69L122.124 242.534L121.83 243.035L120.358 242.932L119.984 244.746L118.457 244.165L118.282 241.667L116.325 236.591L116.293 234.817L117.128 233.894L116.548 229.765L117.447 228.222L120.979 230.354Z" fill="#CCCCCC" stroke="white" stroke-width="0.5"/>
<path d="M267.888 175.921L269.766 181.299L269.583 182.23L267.363 184.06L266.289 186.064L263.592 183.709L262.455 184.68L262.781 185.468L260.426 186.51L259.71 185.873L258.779 186.398L258.874 187.441L257.419 188.841L255.843 188.435L254.324 189.032L254.626 187.655L252.096 184.64L251.078 184.585L249.352 182.564L247.729 182.548L247.299 179.477L243.273 174.56L245.294 172.611L246.09 173.447L248.97 169.572L254.992 171.402L257.554 170.336L264.245 175.308L265.804 174.688L267.888 175.921Z" fill="#CCCCCC" stroke="white" stroke-width="0.5"/>
<path d="M194.402 83.0391L197.035 83.5403L201.148 85.3303L201.785 88.3375L202.517 89.1649L202.429 91.8858L204.013 93.3655L202.588 94.9407L200.981 93.7633L197.553 94.6384L197.282 96.8183L198.34 99.1731L198.356 101.13L195.078 100.685L192.23 99.0777L192.302 100.184L190.122 100.176L192.517 102.499L189.661 104.201L189.39 105.1L188.181 105.697L188.173 107.184L185.913 108.998L183.98 109.81L181.227 109.73L180.607 110.438L177.687 109.388L176.804 110.128L175.794 109.897L174.871 111.751L174.195 111.401L173.996 109.619L170.917 106.898L169.883 107.192L167.321 105.673L164.29 105.697L163.518 106.357L161.601 109.802L162.874 112.324L163.948 111.934L164.29 113.796L167.862 116.023L168.809 118.06L167.027 118.887L166.653 120.208L164.6 122.563L163.28 121.521L161.951 123.064L161.609 123.955L163.447 125.968L161.084 126.684L160.145 126.254L158.864 127.798L157.504 127.098L156.175 125.053L154.242 124.09L153.852 121.672L149.938 119.762L150.407 122.324L149.548 123.287L148.752 122.77L147.432 123.621L146.421 122.308L144.743 123.096L145.037 124.838L143.923 125.761L144.122 127.925L142.133 130.829L142.666 132.308L140.304 133.056L138.848 134.218L139.07 134.799L137.718 134.274L133.708 134.862L133.533 133.207L131.513 131.855L132.785 131.386L132.817 130.192L131.735 129.285L130.256 129.126L129.746 129.731L127.678 128.641L129.349 125.196L127.232 121.863L128.338 121.202L127.407 119.667L128.521 119.691L128.418 118.291L129.595 117.328L130.041 117.606L130.065 116.779L128.147 114.09L128.068 112.125L129.921 112.921L131.942 112.189L131.226 111.321L131.163 111.958L129.635 110.94L130.749 108.728L130.144 108.378L130.932 107.63L131.528 104.877L129.826 104.432L128.466 102.721L129.468 99.0697L128.808 98.3776L128.879 97.3672L129.619 95.9034L128.951 91.8142L132.73 91.2732L134.575 89.8809L136.811 91.0822L138.736 89.9923L141.919 90.0082L148.959 91.6471L152.818 91.5596L157.472 92.6972L166.438 90.398L169.008 89.157L172.174 90.4776L175.404 89.157L182.914 89.7616L185.532 88.8547L188.332 86.9612L189.565 84.0335L194.402 83.0391Z" fill="#CCCCCC" stroke="white" stroke-width="0.5"/>
<path d="M314.438 51.6135L317.485 50.086L323.125 50.2929L327.119 47.8584L331.94 48.1289L332.743 47.2061L334.613 49.1234L336.419 48.6301L339.744 49.6087L339.681 50.444L340.978 51.6612L340.707 54.9787L341.662 55.3924L340.763 58.3042L339.418 58.5111L338.225 59.9988L336.809 60.5795L335.735 59.8953L334.669 60.0704L331.868 61.5501L330.691 59.0679L328.066 58.4235L325.138 56.0607L316.267 56.7528L314.573 54.215L314.438 51.6135Z" fill="#CCCCCC" stroke="white" stroke-width="0.5"/>
<path d="M66.9279 233.29L64.0718 235.366L63.8093 238.174L61.176 237.594L60.3008 238.357L58.3438 235.517L60.5156 223.862L62.6557 224.029L63.0217 222.104L62.3534 221.523L62.4966 219.988L63.4195 219.622L64.0082 220.513L65.5595 219.67L66.371 218.277L67.9542 218.723L68.4634 220.775L67.8508 224.284L70.3568 226.344L70.0386 228.278L71.1762 228.779L71.3751 230.505L70.6352 230.593L70.2454 232.049L69.5771 232.367L68.4793 230.808L67.453 230.863L66.9279 233.29Z" fill="#CCCCCC" stroke="white" stroke-width="0.5"/>
<path d="M255.055 38.4396L256.542 38.3123L257.258 41.1047L258.34 42.1151L260.473 42.2663L261.292 40.9377L262.048 40.8342L263.082 41.1047L265.071 43.3164L265.843 43.1493L266.328 44.3029L264.713 46.3475L265.652 47.5329L267.346 45.7986L269.017 46.5782L269.868 44.8837L270.21 45.7747L272.931 46.1884L274.013 48.225L273.09 50.6038L275.795 49.7207L276.742 47.7398L277.673 47.5806L278.468 46.268L279.391 46.5703L280.441 45.5917L282.359 45.0587L283.655 46.0134L284.562 47.4852L286.249 47.7477L286.631 48.7263L285.597 49.5218L285.103 51.1925L283.242 50.9936L282.701 52.7518L277.776 54.4702L277.951 55.8784L279.176 56.2125L279.049 56.6819L281.205 58.289L280.561 58.5038L280.998 61.8054L282.199 63.0305L278.707 64.2875L278.269 65.2024L278.993 66.2924L277.482 67.08L277.681 69.236L275.819 70.2543L274.753 72.8399L272.645 72.9035L270.863 71.4954L265.946 72.3307L266.248 73.7229L268.404 74.3753L269.454 75.3936L268.866 77.0325L267.688 77.5894L263.997 74.2719L263.329 74.439L262.883 78.4407L260.568 80.7001L259.502 82.7606L259.876 83.4686L257.577 83.3493L257.139 84.2085L255.97 84.4472L255.826 85.5451L255.087 84.0017L253.599 84.7415L254.649 87.5022L253.981 88.7035L254.45 89.0933L253.233 90.0241L252.342 89.4115L249.247 92.188L247.059 91.0822L245.293 93.5564L243.447 94.5509L243.312 95.3385L244.474 95.5056L244.999 96.2693L242.668 97.3035L240.56 93.2382L240.249 88.783L237.958 88.4966L238.905 85.7996L240.225 85.1632L238.69 83.5959L236.351 83.0947L233.972 83.4129L231.49 81.973L224.768 82.7288L223.972 81.6866L220.829 80.0079L220.082 80.883L216.048 80.1591L215.229 81.0342L214.011 80.8751L212.826 79.0851L212.15 79.4749L211.291 76.8893L208.896 75.4891L204.123 70.6521L204.568 68.6711L207.679 66.4276L207.416 65.7355L208.57 64.7251L208.801 63.0703L208.371 62.951L208.832 62.3225L207.496 60.9223L206.454 61.5269L205.268 60.8666L203.279 57.8673L207.09 58.0423L209.532 55.7591L210.829 57.1115L211.712 56.841L212.595 57.748L214.21 56.3796L215.969 57.1593L217.958 56.2125L221.824 57.7321L224.059 57.2547L225.674 58.2731L226.597 56.5626L228.228 56.1091L229.788 54.7089L235.07 54.7407L235.993 54.2077L237.027 55.1544L238.69 54.685L240.178 53.2053L240.989 53.3087L241.021 54.3748L242.031 55.1067L242.135 53.8974L243.535 53.3405L243.901 49.0843L245.158 47.8273L244.808 45.5519L246.311 43.6824L246.16 42.2981L250.067 40.7229L253.71 37.2383L255.055 38.4396Z" fill="#CCCCCC" stroke="white" stroke-width="0.5"/>
<path d="M390.732 70.9781L394.36 63.4997L396.731 64.4067L397.184 63.8259L399.826 63.9771L399.897 62.378L400.979 62.195L401.003 61.0176L399.571 59.4662L399.873 58.2729L402.539 57.9785L403.43 59.156L404.647 59.4821L406.198 58.8775L407.622 59.0923L408.665 61.837L407.813 64.0248L409.11 64.1601L409.261 65.2341L412.714 65.0909L413.47 70.8746L414.369 72.0998L413.685 72.4101L413.852 73.5875L412.093 73.7387L411.624 75.298L409.158 74.0251L409.054 78.6314L410.773 78.9656L409.89 81.0261L408.489 81.4636L407.089 80.0555L406.811 78.8303L400.979 79.3076L399.332 77.0642L398.203 76.4436L396.58 76.547L395.975 74.94L391.663 73.0068L392.308 71.6463L390.732 70.9781Z" fill="#CCCCCC" stroke="white" stroke-width="0.5"/>
<path d="M161.067 260.045L162.985 264.023L161.481 265.28L159.325 264.54L158.251 265.327L158.013 267.555L156.859 268.175L156 271.931L152.125 273.259L149.755 270.324L146.843 268.637L147.256 266.545L146.143 264.794L145.92 263.084L148.935 262.988L148.41 261.214L149.389 260.18L150.892 259.48L153.891 260.276L156.939 258.366L159.381 257.61L161.067 260.045Z" fill="#CCCCCC" stroke="white" stroke-width="0.5"/>
<path d="M201.69 58.4242L203.281 57.8673L205.27 60.8666L206.455 61.5269L207.497 60.9143L208.834 62.3145L208.373 62.943L208.802 63.0623L208.571 64.7171L207.418 65.7195L207.68 66.4116L204.562 68.6551L204.116 70.6281L208.89 75.4652L211.284 76.8654L212.136 79.4589L212.82 79.0611L214.005 80.8512L215.222 81.0103L216.05 80.1352L220.083 80.8591L220.831 79.984L223.966 81.6547L224.761 82.6969L231.492 81.9411L233.974 83.3811L236.353 83.0628L238.692 83.5641L240.219 85.1313L238.906 85.7678L237.96 88.4647L240.251 88.7511L240.561 93.2143L242.669 97.2796L245 96.2454L244.475 95.4816L243.314 95.3146L243.441 94.527L245.295 93.5405L247.061 91.0583L249.241 92.1641L251.747 94.6463L250.649 97.3035L252.71 101.353L254.078 101.743L255.383 105.156L255.096 106.882L256.059 107.9L254.937 110.701L255.406 111.25L255.025 112.268L258.684 115.514L261.135 113.557L263.163 114.034L264.182 113.342L264.961 113.859L261.962 118.338L265.614 121.441L267.809 124.894L273.784 129.508L277.07 131.028L279.242 133.414L279.393 135.228L281.326 138.092L279.154 143.462L283.243 144.91L285.757 146.804L286.091 148.092L287.245 150.933L284.588 154.131L283.474 156.796L283.928 158.833L285.733 161.999L286.434 165.579L288.041 166.462L286.784 169.247L284.962 168.053L279.87 170.09L278.748 172.007L278.844 173.924L274.962 172.779L271.119 170.4L268.549 175.85L267.889 175.905L265.805 174.672L264.237 175.293L257.547 170.321L254.34 166.693L252.686 161.339L250.323 157.226L248.565 158.856L244.523 157.353L242.399 164.322L238.914 163.304L235.486 166.55L234.427 166.558L234.563 167.632L232.367 170.4L229.415 166.2L230.935 162.755L233.107 160.169L228.835 155.889L227.53 155.634L226.71 156.685L224.809 157.202L223.194 160.917L222.55 159.922L219.916 159.819L218.015 162.436L215.509 163.264L214.904 165.428L213.106 166.414L210.051 164.927L209.884 164.33L205.111 163.256L206.455 165.539L205.883 167.011L204.482 165.046L201.069 162.182L199.192 154.083L199.812 149.238L201.682 145.849L202.501 141.219L199.669 140.646L199.16 139.341L199.542 138.307L198.165 137.981L198.651 137.376L198.356 136.27L195.111 133.398L190.846 127.543L193.09 124.918L192.827 121.743L190.456 118.163L188.698 118.131L186.359 113.891L186.097 111.648L186.67 110.558L185.93 108.998L188.189 107.184L188.197 105.697L189.414 105.1L189.685 104.201L192.533 102.499L190.146 100.175L192.318 100.183L192.246 99.0776L195.095 100.685L198.372 101.13L198.356 99.1731L197.298 96.8102L197.569 94.6304L200.99 93.7553L202.597 94.9327L204.029 93.3575L202.446 91.8777L202.533 89.1569L201.801 88.3295L201.173 85.3223L197.06 83.5322L197.688 82.5935L196.232 81.6308L195.62 80.0079L193.472 78.4963L191.332 77.8917L191.634 73.8184L191.077 72.6966L192.254 71.3203L191.777 69.212L192.422 69.1166L191.013 66.8651L192.103 65.4013L194.164 65.6797L195.214 64.7489L195.246 61.6939L196.073 60.7631L195.644 60.0232L196.272 59.0367L197.171 58.5355L197.951 59.0527L199.979 58.7424L200.314 57.7002L201.69 58.4242ZM213.584 107.996L213.846 105.888L211.316 105.561L210.091 106.19L210.72 108.06L207.513 108.258L206.63 109.523L204.713 108.863L203.201 109.659L203.989 111.862L202.963 112.69L203.663 112.682L203.623 114.822L203.003 114.917L204.148 115.291L203.52 116.556L204.371 117.384L203.679 118.179L204.482 119.142L205.636 119.134L207.004 121.385L206.153 122.451L206.71 122.809L206.583 124.52L205.222 125.793L205.564 127.877L204.785 128.72L205.246 130.487L209.773 128.808L210.576 129.739L214.268 127.416L215.811 129.317L215.31 130.144L218.357 133.231L219.057 132.46L221.221 132.006L223.138 128.362L225.811 125.753L226.289 125.936L227.418 123.883L228.524 124.106L229.988 121.886L232.375 121.17L230.951 118.068L231.261 115.681L227.315 116.413L225.971 113.382L224.204 113.867L223.409 113.032L222.128 113.119L219.964 111.035L220.895 110.494L218.826 109.118L219.431 109.046L219.447 108.338L218.492 107.001L216.806 106.651L215.684 105.601L213.584 107.996Z" fill="#CCCCCC" stroke="white" stroke-width="0.5"/>
<path d="M94.7421 196.153L99.7542 195.906L112.873 189.518L115.713 187.394L122.46 184.8L125.69 182.787L128.235 182.954L129.978 181.355L129.938 178.674L140.79 173.662L147.218 174.879L147.679 174.044L148.021 174.362L150.241 177.266L151.76 181.793L149.931 183.352L151.386 183.869L150.623 184.259L151.323 187.234L150.479 188.921L151.506 193.249L148.427 194.387L148.745 196.98L147.003 196.845L144.505 198.237L145.65 200.958L146.43 200.56L146.701 201.252L145.802 202.199L145.563 203.846L143.479 205.851L144.012 206.782L141.585 209.614L142.619 212.446L141.625 215.541L140.081 216.551L139.135 216.034L139.151 221.547L138.586 222.168L139.286 222.733L141.386 229.01L141.235 230.131L140.201 230.275L139.692 231.046L139.27 230.609L137.973 232.232L136.748 232.582L137.408 234.332L140.121 233.377L141.044 236.217L142.237 235.955L142.643 239.901L141.8 242.168L140.225 243.266L139.747 243.688L138.053 242.892L136.963 243.33L136.605 242.264L132.882 242.447L131.147 247.419L131.426 250.283L130.543 251.047L129.683 250.53L129.254 251.103L127.623 250.832L127.225 251.651L126.223 251.405L125.26 252.495L123.263 252.216L123.176 251.278L122.126 251.548L121.648 250.697L120.956 251.007L121.115 251.93L119.85 253.354L118.418 252.877L117.424 250.052L116.031 251.11L116.755 252.614L115.252 254.11L115.236 255.518L114.003 257.769L113.875 262.694L112.396 263.482L113.478 264.667L113.056 267.587L111.926 267.77L111.823 268.637L109.842 269.448L110.152 271.199L111.735 273.362L111.672 274.898L109.508 275.518L110.924 280.586L112.07 280.714L111.417 279.194L111.966 278.955L112.539 280.228L114.798 280.308L114.767 281.772L116.557 282.854L116.334 283.832L117.265 284.54L116.763 285.137L117.368 286.712L116.859 288.088L115.132 287.778L114.56 288.629L113.915 287.158L112.563 288.454L112.746 289.369L111.481 289.783L109.317 284.007L105.315 280.57L102.547 280.841L95.8798 279.194L95.3468 279.974L95.9912 281.064L95.2831 281.581L94.233 281.239L94.042 280.292L92.9998 281.199L92.3873 280.984L92.1327 279.464L89.388 279.99L89.3561 278.064L89.8892 278.884L90.645 278.263L92.4668 278.2L92.427 277.802L90.3983 278.017L90.4142 277.125L91.4007 277.102L90.9075 276.577L91.2814 275.176L90.7245 275.073L90.645 276.258L89.9846 276.736L88.9106 274.643L88.2901 274.548L88.0753 275.049L88.8311 275.701L88.5844 276.958L86.9854 277.404L87.8287 275.168L87.0649 275.121L86.7308 275.996L86.0386 275.757L85.8318 274.946L86.683 273.824L84.9408 273.927L83.2542 272.631L85.6011 271.644L85.8477 270.904L82.9916 271.008L83.1985 269.297L84.1372 268.215L81.3289 267.857L81.4403 267.253L82.8007 267.499L81.9892 267.26L81.6073 265.916L79.2922 266.059L79.3877 265.558L80.406 265.598L81.3687 263.824L79.7696 263.847L80.406 262.933L79.9764 262.304L79.7378 262.781L77.4704 262.964L77.2158 260.713L77.9159 260.259L77.8125 258.557L76.1577 257.682L76.2373 256.568L74.6541 256.186L73.7869 256.664L73.4846 255.685L72.7845 255.924L72.0446 255.255L72.1242 254.698L71.265 254.364L70.7479 254.889L69.3874 253.298L65.5051 251.293L62.9672 250.904L62.7126 249.01L61.2965 249.273L59.4508 247.276L56.4515 245.589L55.6719 240.37L57.6528 241.906L60.0475 241.42L60.4214 244.062L61.575 243.672L63.6594 241.516L65.7119 242.574L66.4757 242.16L67.6531 241.413L67.3428 240.012L68.1066 238.843H68.8703L68.9578 237.952L67.8599 233.95L67.0166 233.393L67.5417 230.967L68.568 230.919L69.6659 232.478L70.3342 232.16L70.724 230.704L71.4639 230.625L72.7686 231.261L72.8561 232.009L73.8347 232.12L74.7814 231.802L74.8928 229.765L78.1387 229.535L78.3535 223.854L79.1729 223.918L80.8993 221.142L80.3424 209.725L80.7083 205.055L83.2144 202.7L84.0656 197.975L90.8677 198.285L92.9044 196.805L94.7421 196.153ZM117.129 233.894L116.286 234.817L116.326 236.591L118.275 241.667L118.14 243.664L119.985 244.738L120.359 242.924L121.831 243.028L122.126 242.534L122.682 244.69L123.947 245.032L124.902 240.012L124.289 239.066L124.711 238.071L126.111 238.206L126.764 237.626L125.849 232.264L123.08 228.683L121.083 230.895L120.693 229.877L117.646 228.103L116.557 229.765L117.129 233.894Z" fill="#CCCCCC" stroke="white" stroke-width="0.5"/>
<path d="M37.3904 90.0792L38.4246 89.8246L38.7588 90.8668L40.0953 91.6942L44.5903 92.5932L46.5155 97.7484L43.8981 102.283L42.2831 101.448L37.1199 102.395L33.7865 104.169L29.8882 101.83L29.2836 102.522L27.8993 102.442L27.4856 101.384L24.4227 100.748L23.293 99.7612L24.725 98.91L25.0273 96.4278L25.974 97.8678L26.9764 98.1144L27.1515 97.1518L28.6233 95.847L30.278 94.8765L31.7498 94.8924L32.5215 93.7388L31.4793 92.2829L32.2192 91.6783L32.259 90.644L36.5073 89.5859L37.3904 90.0792Z" fill="#CCCCCC" stroke="white" stroke-width="0.5"/>
<path d="M440.646 19.927L442.651 20.0383L441.943 21.9L440.917 22.5364L442.834 25.3925L446.597 26.371L446.08 29.1078L447.759 31.0012L447.973 33.9687L449.461 35.4723L450.973 38.6784L452.405 37.1271L454.449 37.3499L454.696 36.9123L456.565 38.0022L458.865 36.7373L459.652 37.3021L459.342 38.217L460.647 38.4875L460.607 39.7127L461.8 41.5504L462.286 41.3197L464.593 42.879L464.1 44.9475L464.879 47.008L465.484 46.8966L466.534 48.6071L465.842 48.8697L466.621 51.3757L466.065 52.402L468.117 52.6088L469.295 53.6351L471.816 54.192L476.558 51.1609L478.054 51.1927L478.881 52.3383L479.494 51.9246L479.223 50.9699L480.544 51.4393L481.268 50.9222L481.618 52.6009L482.31 51.3757L483.002 51.5268L483.392 52.3065L482.867 53.4998L483.591 54.0011L483.853 55.3615L484.339 55.1467L485.564 56.34L486.049 58.6472L486.455 58.0823L486.988 58.3608L485.858 62.8557L483.766 65.2026L484.052 66.03L486.129 66.3642L487.553 67.3904L487.998 69.1884L487.163 69.3555L484.14 73.922L482.859 73.9618L480.417 75.7757L477.911 75.6405L478.587 76.985L478.229 78.3295L479.438 79.8967L479.223 80.931L477.354 81.814L474.673 81.7186L472.397 86.7386L467.791 87.8365L467.369 88.4332L463.01 88.3775L458.165 84.3042L455.762 85.0441L454.163 90.7005L454.441 91.695L449.079 90.8039L446.327 88.9344L446.295 91.4881L444.043 92.9202L442.54 92.8167L442.102 96.1899L439.914 97.073L439.453 100.128L438.164 100.868L437.17 105.379L436.088 107.423L432.834 107.002L431.959 106.166L430.932 100.446L428.872 99.1654L428.148 99.3165L426.525 103.183L424.981 104.456L423.709 102.021L424.25 99.937L422.181 98.696L422.547 95.7842L421.131 95.4182L418.148 92.7054L415.538 93.4532L415.299 96.2377L413.525 97.7413L413.215 98.7516L411.497 99.6188L409.404 98.9267L408.903 97.7731L406.843 97.3435L407.193 95.6251L403.406 95.3784L402.443 92.769L400.788 92.8883L400.709 93.5248L397.59 93.1031L394.885 88.3456L393.835 88.29L390.724 86.3567L390.732 83.5006L392.331 76.0621L391.631 75.8473L391.663 73.0071L395.975 74.9404L396.58 76.5474L398.203 76.444L399.332 77.0645L400.979 79.308L406.811 78.8307L407.089 80.0558L408.489 81.464L409.89 81.0264L410.773 78.9659L409.054 78.6318L409.158 74.0255L411.624 75.2984L412.093 73.7391L413.852 73.5879L413.684 72.4105L414.369 72.1002L413.47 70.875L412.714 65.0912L409.261 65.2344L409.11 64.1604L407.813 64.0252L408.664 61.8374L407.622 59.0927L406.198 58.8779L404.647 59.4825L403.43 59.1563L402.539 57.9789L399.873 58.2732L399.571 59.4666L401.003 61.0179L400.979 62.1954L399.897 62.3784L399.826 63.9775L397.184 63.8263L396.731 64.4071L394.36 63.5001L390.732 70.9784L388.926 70.2783L388.409 71.1057L387.51 71.1216L387.415 72.1479L382.626 71.7899L382.323 72.4264L378.672 72.9912L377.088 72.4025L374.789 72.665L371.273 74.3676L370.43 72.0047L368.735 71.2808L368.345 70.342L365.736 68.5997L362.911 67.8837L362.251 68.9657L360.509 68.178L359.077 67.1756L359.467 66.5869L357.414 63.5001L361.01 59.936L361.265 59.0131L362.657 59.6973L363.667 59.3154L364.168 59.8166L363.962 61.2487L365.537 60.9304L367.486 61.6146L368.218 61.1214L367.836 59.8723L370.008 58.1698L370.851 59.936L373.007 59.8723L373.095 60.8747L374.59 60.6918L375.895 61.718L377.144 60.477L380.987 60.469L381.408 58.4164L382.578 59.2279L383.095 58.9574L383.167 56.9685L384.941 56.3082L384.272 55.5763L383.135 55.7274L382.832 54.5818L383.891 54.8682L384.081 54.3113L382.101 52.5531L381.496 50.954L382.538 49.4265L382.164 47.1592L383.54 44.9396L384.519 44.8839L385.537 46.2045L386.198 44.7327L387.813 45.0668L387.9 45.5521L389.149 45.226L388.863 44.1758L391.615 42.5449L392.817 42.4733L393.246 41.6618L395.752 43.1336L399.587 43.5791L402.928 43.0938L403.589 43.6507L403.851 42.3937L404.456 42.9506L405.808 42.2267L405.745 43.6189L406.938 43.1177L407.217 41.7732L408.147 42.2744L408.553 41.2561L409.372 41.0492L409.221 39.9673L410.319 39.7604L410.2 38.3125L411.067 39.1797L411.385 38.0897L412.197 40.0627L412.921 38.3682L414.544 38.6705L416.135 37.7317L417.806 38.4239L418.299 37.2385L419.261 36.777L419.19 35.8542L419.715 36.3872L421.505 34.2949L422.269 34.6131L421.887 33.8096L422.388 32.7753L424.512 30.8421L425.411 30.7228L424.584 32.2503L426.191 32.2264L426.119 31.2797L427.185 31.8923L427.559 32.8947L428.108 32.123L427.241 31.1842L428.482 31.9241L428.442 30.8183L430.208 31.0331L429.524 29.2033L431.386 26.6018L432.531 26.3392L431.203 25.4641L432.611 25.4164L431.895 24.7003L432.229 23.4274L433.518 23.149L433.136 22.0591L434.624 21.4226L434.918 19.9349L438.307 18.2881L440.646 19.927Z" fill="#CCCCCC" stroke="white" stroke-width="0.5"/>
<path d="M292.56 232.613L297.707 240.712L301.788 241.77L301.398 243.48L301.971 246.71L301.494 250.235L297.293 250.442L296.696 249.869H295.042L295.185 253.329L295.837 253.998L297.007 254.539L300.086 253.894L298.813 258.572L299.338 259.217L299.051 260.903L297.93 261.468L297.826 260.593L296.927 261.158L293.936 253.87L292.671 252.232L289.847 253.425L288.295 252.956L286.664 256.13L284.683 258.978L282.734 258.851L281.788 256.384L283.896 255.995L284.914 254.873V253.25L284.007 252.995L283.705 251.317L285.415 248.477L284.111 247.578L280.65 246.909L278.072 244.801L281.676 241.46L282.687 241.396L285.288 242.788L284.906 240.219L285.678 238.182L288.271 238.444L289.409 239.367L291.668 239.335L292.042 239.845L292.822 237.768L290.913 236.352L290.825 233.281L291.74 232.47L292.56 232.613Z" fill="#CCCCCC" stroke="white" stroke-width="0.5"/>
<path d="M168.396 141.783L169.001 142.881L171.372 142.722L173.56 145.188L172.319 146.907L172.446 148.275L173.83 149.699L172.915 150.964L172.955 151.951L174.459 151.863L175.93 155.356L174.88 155.928L174.101 155.236L172.223 156.438L169.51 159.707L168.651 158.602L166.853 159.835L164.395 160.24L164.148 155.602L162.812 154.902L159.605 149.198L162.199 145.793L164.108 144.56L164.371 143.43L165.572 142.913L166.439 140.327L167.346 140.097L168.396 141.783Z" fill="#CCCCCC" stroke="white" stroke-width="0.5"/>
<path d="M286.091 148.108L288.932 145.905L290.475 143.502L292.281 143.979L295.018 146.406L296.593 146.342L297.977 148.259L296.855 148.586L296.832 149.206L299.035 148.936L298.136 149.699L297.03 154.027L299.338 155.189L300.483 158.49L299.433 160.145L298.534 159.62L297.563 161.315L295.28 161.291L293.602 160.4L292.726 158.825L289.178 158.586L288.048 157.353L288.558 156.7L284.596 154.155L287.253 150.956L286.091 148.108Z" fill="#CCCCCC" stroke="white" stroke-width="0.5"/>
<path d="M37.722 142.054L40.2519 143.677L41.3975 142.412L42.0896 142.483L42.9647 145.037L41.119 146.732L42.0419 148.371L41.9941 153.693L41.3975 153.995L39.8541 152.197L39.2813 152.229L37.6583 154.815L36.6479 155.133L33.943 153.104L33.9669 151.481L32.6701 149.214L32.2962 145.499L29.9493 144.13L29.8379 143.175L31.3415 142.611L32.6224 143.613L33.5532 143.486L35.566 143.064L35.4069 142.133L36.7275 142.547L37.722 142.054Z" fill="#CCCCCC" stroke="white" stroke-width="0.5"/>
<path d="M168.809 118.06L167.863 116.023L164.291 113.796L163.948 111.934L162.874 112.324L161.602 109.802L163.519 106.357L164.291 105.697L167.322 105.673L169.883 107.192L170.918 106.898L173.996 109.619L174.195 111.401L171.268 111.942L171.777 114.281L170.504 114.52L171.435 115.991L170.766 115.896L170.918 116.715L168.809 118.06Z" fill="#CCCCCC" stroke="white" stroke-width="0.5"/>
<path d="M151.522 193.225L154.322 192.652L154.386 192.063L158.403 189.024L158.849 189.835L158.411 191.236L159.048 191.896L160.703 192.047L162.66 193.264L163.781 191.896L164.291 193.463L164.744 192.429L164.943 194.092L165.508 194.06L165.651 190.416L166.733 191.983L166.295 192.866L166.995 194.028L167.035 196.351L169.891 197.067L171.045 196.295L171.578 196.765L173.185 196.494L172.747 194.657L176.312 192.684L177.608 195.221L179.74 196.598L180.544 196.526L180.6 198.133L181.793 200.687L181.562 202.31L183.265 202.517L185.126 201.912L188.945 198.435L187.943 196.025L190.099 194.362L193.488 193.988L193.567 192.095L198.333 188.706L199.327 186.963L198.198 185.913L201.062 185.149L201.141 184.656L202.74 184.879L202.868 189.191L204.872 191.053L206.217 193.654L207.195 197.64L208.572 200.162L208.444 202.039L205.859 205.985L203.106 207.561L199.821 208.054L198.166 210.624L198.373 212.223L200.497 215.461L200.696 219.908L202.589 224.411L202.557 227.426L200.306 231.268L199.972 232.915L200.934 239.471L202.621 242.319L201.833 247.021L200.664 247.156L199.264 246.09L198.508 246.193L199.176 249.352L198.349 250.283L197.744 249.765L195.421 252.494L196.352 253.131L198.993 251.293L198.404 252.892L198.826 254.085L197.434 254.563L195.843 259.034L195.349 257.992L195.62 256.384L194.554 256.583L193.75 257.538L193.687 259.36L196.567 260.219L195.938 261.938L194.952 261.492L195.023 262.614L192.462 262.749L191.523 262.144L190.314 262.789L186.28 260.378L185.715 260.879L182.827 257.14L180.91 255.947L180.305 254.364L178.762 255.167L177.028 252.216L177.576 251.166L176.105 251.357L174.522 250.251L175.317 247.975L174.712 246.671L175.206 245.859L174.784 245.215L174.649 246.193L174.004 246.002L172.843 243.966L171.347 243.687L170.774 242.908L170.878 246.066L169.549 246.965L169.86 247.546L168.364 247.784L168.42 248.683L163.964 251.436L162.97 251.396L162.341 250.187L163.718 250.06L165.213 248.994L166.606 245.159L166.16 243.966L165.118 244.34L163.36 243.647L163.224 240.338L164.298 239.224L164.195 238.063L161.586 236.71L161.021 235.063L161.22 232.844L158.968 230.863L155.587 232.462L152.659 231.794L149.668 233.074L149.684 236.098L150.782 237.378L150.79 239.017L147.186 241.372L145.945 240.577L144.553 241.261L144.624 243.624L145.786 244.149L145.253 244.897L143.709 242.876L142.365 243.003L141.903 243.838L140.233 243.242L141.808 242.144L142.643 239.876L142.237 235.923L141.044 236.185L140.121 233.345L137.408 234.3L136.748 232.541L137.973 232.191L139.27 230.568L139.692 231.006L140.201 230.234L141.235 230.091L141.386 228.969L139.294 222.7L138.594 222.135L139.167 221.515L139.151 216.002L140.097 216.519L141.641 215.508L142.635 212.422L141.601 209.581L144.027 206.749L143.502 205.818L145.579 203.821L145.817 202.175L146.716 201.22L146.446 200.536L145.658 200.934L144.513 198.205L147.011 196.82L148.753 196.956L148.435 194.362L151.522 193.225Z" fill="#CCCCCC" stroke="white" stroke-width="0.5"/>
<path d="M39.2349 123.016L41.5102 125.785L42.3057 125.482L44.1196 126.676L46.9837 124.202L49.0442 123.342L49.4738 124.05L50.5876 123.303L51.0331 124.233L53.7858 122.746L55.0189 125.331L56.2838 126.453L58.225 125.904L58.3841 126.636L59.5059 126.676L60.6038 128.402L62.1472 126.19L64.2395 125.411L68.4799 121.521L69.6812 123.645L67.8673 128.259L68.2651 128.545L69.538 127.344L73.6988 126.111L75.091 123.939L77.1834 124.536L77.9073 127.233L79.5939 128.752L78.1858 129.85L79.9917 132.014L80.3975 131.767L80.9066 132.698L83.2854 134.059L84.0173 133.788L85.8073 135.586L80.8509 137.527L80.1667 138.49L80.3259 140.264L79.1007 141.266L79.5144 147.79L79.9917 148.252L79.6655 151.466L78.7745 152.627L78.7665 154.942L80.0315 158.276L80.1667 161.522L78.2096 163.152L76.6424 161.999L76.0537 162.548L75.0433 161.728L72.3861 163.041L70.1028 163.113L69.9437 165.054L69.9835 167.449L68.7026 166.748L67.6445 167.528L67.3979 165.674L66.2125 166.072L65.9261 165.547L64.9157 166.263L65.9102 169.851L63.8576 171.983L64.0884 172.906L63.3007 174.02L59.2752 173.821L58.9888 173.025L57.4295 172.508L56.1406 173.145L53.9688 173.033L53.6346 172.238L50.8899 175.173L49.4261 175.46L48.7737 177.831L45.6949 177.059L43.1888 177.393L42.1466 176.598L40.9533 176.765L39.6486 178.356L38.2006 177.823L35.3127 181.427L34.899 183.583L33.65 185.07L28.9561 187.489L28.9243 190.576L27.906 191.514L24.8033 192.97L24.6203 193.591L21.8677 192.278L19.115 193.169L19.107 194.307L21.9074 193.464L22.0904 194.267L20.9687 195.071L21.1676 197.083L19.4094 199.04L18.4944 199.844L17.9694 197.903L15.7338 195.556L16.5055 193.281L15.2247 192.946L15.5349 191.148L17.3091 190.393L17.8182 186.932L14.62 184.649L14.0075 183.408L9.93416 183.01L4.13448 185.237L2.15352 184.903L1.11133 183.774L2.41606 183.066L4.63569 180.114L5.75743 179.748L7.04625 176.367L8.47032 176.232L8.82832 176.725L10.4831 175.667L11.0798 173.996L12.5913 173.988L12.7664 171.426L13.8722 168.626L14.5723 170.233L16.1475 169.859L17.4045 170.543L17.9932 169.056L19.1468 169.39L19.648 170.265L22.4882 169.549L23.8247 170.854L24.9942 170.663L25.1454 169.541L27.6832 170.694L28.0412 169.97L29.6722 169.963L26.4103 166.876L25.0738 167.695L24.4294 166.971L24.6601 166.12L30.2768 164.059L29.3301 163.017L26.8718 162.365L26.9911 161.164L26.108 160.217L26.9513 159.031L27.3173 159.485L27.6514 158.721L28.8209 158.562L28.9243 157.114L30.9291 156.788L29.9904 154.529L25.5352 155.125L25.2011 154.179L26.1717 152.404L25.4795 150.32L23.6497 150.646L22.7587 148.49L23.0053 147.933L23.244 148.379L24.1987 148.021L24.4135 147.217L24.5805 144.385L23.8884 143.582L26.474 143.486L27.3968 142.515L27.3014 140.964L28.0572 140.574L26.2274 134.791L25.1693 134.456L24.0873 132.961L25.4318 132.515L25.8296 131.378L25.2886 130.502L25.5273 129.826L26.116 129.858L25.026 127.145L25.7102 126.7L27.8344 127.257L27.6514 128.219L28.5106 128.402L28.6618 129.07L29.5846 128.291L29.6403 127.002L34.1194 127.376L35.1616 125.546L37.5164 124.711L38.0097 123.533L39.2349 123.016ZM35.4082 142.134L35.5673 143.064L32.6237 143.613L31.3428 142.611L29.8392 143.184L29.9506 144.13L32.2975 145.499L32.6794 149.222L33.9682 151.489L33.9443 153.112L36.6493 155.141L37.6517 154.823L39.2746 152.237L39.8474 152.205L41.3908 154.003L41.9875 153.701L42.0353 148.387L41.1124 146.74L42.9661 145.045L42.0909 142.492L41.3988 142.42L40.2532 143.685L37.7233 142.062L36.7288 142.555L35.4082 142.134Z" fill="#CCCCCC" stroke="white" stroke-width="0.5"/>
<path d="M77.1686 124.503L78.6722 123.246L80.4543 124.591L80.5577 123.875L81.1146 123.819L84.456 124.496H85.3073L90.8603 123.366L92.0537 121.631L92.3401 119.046L94.8063 119.674L96.2543 118.513L98.5375 118.759L103.168 120.804L105.443 118.648L108.045 121.91L109.19 121.011L109.66 121.616L110.32 121.321L110.67 122.411L112.142 121.894L112.333 120.701L113.073 120.279L113.661 120.939L115.085 120.367L115.714 121.361L115.236 122.65L117.106 122.308L116.549 121.313L117.162 120.613L116.883 120.152L117.488 119.969L118.864 121.974L121.848 118.282L122.102 120.009L122.906 120.16L124.393 118.179L126.311 119.682L127.265 121.894L129.382 125.227L127.711 128.672L129.779 129.762L130.289 129.158L131.768 129.317L132.85 130.224L132.818 131.417L131.538 131.878L133.558 133.231L133.733 134.886L137.743 134.297L139.095 134.822L139.668 136.151L141.204 136.381L139.883 137.956L140.591 140.836L141.864 140.51L144.139 143.844L146.836 142.125L147.775 142.117L149.024 144.846L150.607 146.366L152.031 146.405L152.525 147.344L152.509 151.179L151.665 153.558L152.588 157.026L152.437 158.864L153.257 160.041L151.069 161.776L151.657 164.552L153.344 167.703L154.999 167.353L155.23 167.933L153.344 168.498L153.225 169.246L151.721 170.145L151.244 171.601L148.046 174.37L147.704 174.059L147.242 174.895L140.814 173.677L129.962 178.689L130.002 181.371L128.26 182.97L125.714 182.803L122.484 184.815L115.738 187.409L112.897 189.533L99.7866 195.921L94.7745 196.176L90.4944 191.737L89.7227 189.414L87.9804 187.449L87.9724 185.921L89.0385 185.126L87.5189 183.391L88.0838 182.317L87.7337 181.267L86.8745 180.973L85.0049 178.499L83.0638 179.032L81.0192 178.093L81.8625 174.998L82.7376 174.401L82.5705 173.256L81.1703 172.166L80.8044 170.972L79.4439 169.779L77.8608 170.622L75.6173 170.058L69.9688 165.061L70.1279 163.12L72.4111 163.049L75.0683 161.736L76.0787 162.555L76.6674 162.006L78.2347 163.16L80.1918 161.529L80.0565 158.283L78.7916 154.95L78.7995 152.635L79.6906 151.473L80.0247 148.259L79.5553 147.798L79.1416 141.274L80.3668 140.272L80.2077 138.497L80.8919 137.535L85.8562 135.594L84.0662 133.796L83.3343 134.074L80.9555 132.714L80.4464 131.783L80.0486 132.03L78.2506 129.866L79.6587 128.768L77.9721 127.248L77.1686 124.503ZM122.961 152.667L123.319 153.709L125.849 154.791L126.247 157.575L123.304 160.686L127.393 165.022L127.552 167.345L129.238 167.575L130.161 167.122L131.442 164.17L134.449 164.075L135.444 160.137L135.03 159.294L135.706 158.474L132.333 152.698L129.533 150.057L127.878 149.556L125.356 152.452L122.961 152.667Z" fill="#CCCCCC" stroke="white" stroke-width="0.5"/>
<path d="M131.426 151.657L135.308 157.488L135.435 160.145L134.282 164.267L131.442 164.187L130.161 167.139L128.029 167.687L127.177 166.526L127.392 165.038L123.295 160.694L126.239 157.584L125.849 154.799L123.319 153.709L122.961 152.667L125.356 152.46L127.87 149.564L129.524 150.074L131.426 151.657Z" fill="#CCCCCC" stroke="white" stroke-width="0.5"/>
<path d="M69.9105 165.021L75.559 170.018L77.8104 170.582L79.3936 169.747L80.754 170.94L81.12 172.134L82.5202 173.224L82.6873 174.369L81.8121 174.966L80.9688 178.061L83.0134 179.008L84.9546 178.475L86.8322 180.949L87.6914 181.243L88.0414 182.293L87.4766 183.375L88.9961 185.11L87.938 185.905L87.946 187.433L89.6882 189.398L90.4679 191.721L94.748 196.16L92.8069 196.693L90.7702 198.173L83.9761 197.862L83.1328 202.588L80.6267 204.943L80.2608 209.613L80.8177 221.029L79.0913 223.806L78.2719 223.742L78.0571 229.423L74.8112 229.653L74.6998 231.69L73.753 232.008L72.7745 231.897L72.687 231.149L71.3823 230.512L71.1834 228.778L70.0537 228.277L70.3719 226.344L67.8659 224.283L68.4784 220.767L67.9772 218.722L66.3941 218.277L65.5826 219.669L64.0312 220.512L63.4425 219.621L62.5197 219.987L62.3765 221.531L63.0447 222.111L62.6788 224.037L60.5387 223.87L58.3748 235.525L60.3239 238.365L61.199 237.601L63.8323 238.182L64.0949 235.373L66.951 233.297L67.7943 233.862L68.8921 237.864L68.8046 238.755H68.0409L67.2771 239.924L67.5874 241.324L66.41 242.072L65.6462 242.486L63.5937 241.428L61.5093 243.584L60.3557 243.981L59.9818 241.34L57.5951 241.825L55.6141 240.29L55.9483 239.407L54.7708 238.214L55.0493 237.434L54.031 237.354L53.7366 236.487L52.9331 236.209V235.262L52.2012 236.018L49.9497 234.037L48.7961 234.777L48.112 234.116L47.4994 234.729L46.9982 233.83L46.0435 233.91L45.5423 232.549L44.5399 233.392L41.1905 227.601L40.1483 227.911L40.6257 226.559L39.6233 226.025L38.0719 226.24L37.7457 225.5L35.7489 225.914L34.3805 223.957L30.4186 221.841L31.1266 220.902L30.5777 220.297L31.0789 218.985L30.1083 218.555L29.6389 215.946L27.6023 215.293L27.3954 213.766L24.8576 210.759L23.1471 210.361L22.5981 208.977L21.0945 208.292L20.5695 207.107L21.0468 205.118L22.9721 205.683L23.696 201.896L19.75 201.291L19.4079 200.965L20.1239 200.098L19.4079 199.04L21.1582 197.059L20.9593 195.046L22.081 194.243L21.898 193.439L19.0977 194.282L19.1056 193.145L21.8662 192.254L24.6189 193.574L24.8019 192.962L27.9046 191.506L28.9229 190.567L28.9547 187.48L33.6486 185.062L34.8976 183.574L35.3113 181.418L38.1992 177.814L39.6471 178.347L40.9519 176.756L42.1452 176.589L43.1874 177.385L45.6934 177.05L48.7723 177.83L49.4246 175.459L50.8885 175.173L53.6332 172.237L53.9673 173.033L56.1392 173.144L57.428 172.508L58.9873 173.025L59.2737 173.82L63.2993 174.019L64.0869 172.906L63.8562 171.983L65.9088 169.851L64.9143 166.263L65.9247 165.547L66.2111 166.072L67.3965 165.674L67.6033 167.488L68.6694 166.708L69.9582 167.408L69.9105 165.021ZM49.5201 181.625L48.8996 183.733L48.7325 185.261L49.719 186.184L49.2178 189.207L50.5146 191.164L49.1939 193.272L50.5464 195.046L51.6124 194.815L52.3444 193.757L55.288 194.028L57.9849 193.32L57.4837 190.583L58.1918 190.01L58.2236 188.077L56.8632 185.881L57.2291 184.688L56.3779 183.654L54.8265 183.431L54.1344 181.736L52.2489 181.529L51.9864 182.063L49.5201 181.625Z" fill="#CCCCCC" stroke="white" stroke-width="0.5"/>
<path d="M53.0283 181.864L54.1342 181.728L54.8263 183.423L56.3777 183.646L57.2289 184.68L56.863 185.873L58.2313 188.069L58.1995 190.002L57.4915 190.583L57.9927 193.32L55.2957 194.028L52.3521 193.757L51.6202 194.815L50.5462 195.038L49.2017 193.264L50.5223 191.156L49.2176 189.199L49.7267 186.176L48.7402 185.253L48.9073 183.725L49.5199 181.625L53.0283 181.864Z" fill="#CCCCCC" stroke="white" stroke-width="0.5"/>
</svg>
