<svg width="241" height="302" viewBox="0 0 241 302" fill="none" xmlns="http://www.w3.org/2000/svg">
<path d="M166.098 175.388L166.219 175.009L166.551 169.882L166.02 166.422L164.622 164.423L162.889 164.821L161.858 165.723L162.658 161.959L162.057 160.764L160.261 158.765L158.199 158.499L157.531 157.5L157.863 154.571L159.261 152.775L158.929 151.447L160.858 149.878L165.255 149.28L165.852 149.811L166.317 150.612L166.786 152.806L167.984 154.005L168.914 153.673L169.98 152.408L172.51 149.077L176.036 148.745L176.637 148.281L176.903 146.016L176.505 143.353L177.102 142.22L178.832 141.225L179.566 138.761H180.366L181.495 139.128L185.091 142.919L186.024 145.317L185.892 146.914L184.693 149.643L185.489 151.174L185.025 151.975L182.03 151.041L181.03 151.174L180.765 153.572L181.163 154.571L183.029 156.102L185.622 157.168L187.09 156.434L188.488 155.571L189.886 154.837L192.213 155.77L193.08 156.77L192.881 158.167L192.014 159.499L192.413 160.963L193.346 163.158L192.682 164.489L192.28 163.357L192.147 162.693H191.55L191.351 162.228L191.815 162.025L191.284 161.561L187.688 161.229L187.356 161.893L186.954 162.826V164.357L186.356 165.423L187.29 167.219L187.821 167.886L188.687 170.147L181.831 169.948L178.902 172.478L176.305 173.142L174.373 175.075L174.306 176.407L175.107 178.07L174.841 179.8L172.643 179.734L171.709 178.871L171.112 177.805L169.382 175.739L167.516 175.009L166.098 175.388Z" fill="#CCCCCC" stroke="white" stroke-width="0.5"/>
<path d="M77.7949 73.3286L77.8105 73.3052L78.2986 72.7429L78.2752 72.5438L83.3163 73.7191L83.4295 72.9694L82.2307 71.9932L82.4924 71.509L83.8786 69.9354L86.1238 69.8221L86.3347 69.4863L87.0258 70.9819L87.8849 71.0951L90.0559 72.7078L91.2195 72.2939L93.0509 69.9744L93.6132 70.0838L94.2496 71.919L94.8861 72.4071L94.9642 74.2033L93.4648 75.5895L94.8861 76.8624L94.5894 78.3619L92.7541 78.2838L91.6686 77.4247L90.4698 78.2486L87.1351 78.6235L86.4635 78.9203L83.1679 79.26L82.4182 78.8851L82.1566 78.1745L83.3553 77.0499V76.4876L81.8949 75.4411L78.0761 74.6523L77.7949 73.3286Z" fill="#CCCCCC" stroke="white" stroke-width="0.5"/>
<path d="M193.696 169.444L193.083 170.444L188.554 169.721L187.82 167.886L187.289 167.218L186.355 165.422L186.953 164.356V162.826L187.355 161.892L187.687 161.229L191.283 161.56L191.814 162.025L191.35 162.228L191.549 162.693H192.146L192.279 163.357L192.681 164.489L192.751 167.968L193.419 169.374L193.696 169.444Z" fill="#CCCCCC" stroke="white" stroke-width="0.5"/>
<path d="M35.9048 12.7458L36.4476 12.5115L39.8682 14.2101L38.6381 17.576L42.5664 20.3054L42.992 21.5862L42.0548 24.6593L43.1638 25.8541L42.9061 26.6234L41.5394 27.9041L39.9189 27.6464L39.1497 29.1849L37.2754 29.0131L35.0536 27.3926L34.8857 26.3657L35.7369 24.6593L35.3113 24.2337L34.2023 23.8939L32.8357 24.5734L32.4959 25.5144L30.9575 26.5375L30.6177 33.1092L26.8457 37.5489L25.3658 38.5408L24.1631 37.9707L22.7418 36.4205L24.1085 35.7801L24.8738 36.0651L25.2721 35.3545L22.5661 34.511L22.6989 33.445L22.078 31.8909L20.9222 31.0943L20.4302 31.2779L20.5239 32.6445L20.1686 33.1795L19.2158 33.1912L18.4817 32.0237V30.4266L15.9983 28.4742L14.6667 28.1619L14.6199 27.3653L13.2883 26.2993L11.2461 25.1435H10.3598L9.22738 26.4399L8.52452 26.5297L8.1848 24.7452L7.34137 24.8779L6.79861 26.2368L6.18946 26.2563L5.74432 24.6554L4.95165 25.2645L4.9907 26.3891L4.5026 26.7874L3.56936 25.3231L1.76145 24.9287L1.03906 22.703L2.72593 20.2195L4.5026 19.954V16.9356L5.5647 16.3577L6.09965 16.5334L8.80566 20.8404L11.6483 20.7975L12.1364 20.0868L11.6913 19.5987L11.8709 17.291L11.2461 14.8036L10.1372 12.8083L13.999 12.4529L14.9323 9.78989L15.7288 9.9656L17.7749 12.1054L22.078 15.159L23.0112 15.2019L25.319 13.3393L27.1386 14.7607L27.8922 14.4053L27.0917 10.0554L28.1148 9.3877L30.8637 10.4537L32.7341 12.0234L35.9048 12.7458Z" fill="#CCCCCC" stroke="white" stroke-width="0.5"/>
<path d="M145.98 206.895L145.246 205.763L145.515 204.767L147.643 204.033L149.709 202.635L154.235 198.043L155.367 197.773L158.097 198.707L159.897 201.092L160.127 202.237L161.658 202.701L160.888 204.138L158.729 204.345L155.898 206.028L156.831 211.022L158.229 212.6L159.362 216.348L158.698 219.39L156.898 220.542L156.433 221.409L156.234 222.139L156.98 222.975L152.638 221.874L150.24 219.808L148.178 220.609L147.643 221.874L144.582 221.409L141.919 222.338L140.72 222.139L140.787 220.808L139.521 217.879L140.787 217.547L143.118 217.879L149.444 216.149L150.107 215.884L151.041 213.486L150.638 212.088L147.511 210.023L146.648 207.895L145.925 207.633L145.98 206.895Z" fill="#CCCCCC" stroke="white" stroke-width="0.5"/>
<path d="M128.849 287.587V288.587L124.578 289.645L123.313 290.512L122.715 290.18L122.184 288.052L121.985 283.327L122.383 282.527L125.448 281.863L127.077 282.874L128.849 287.587ZM125.241 240.945L125.109 242.409H125.136L124.91 242.807L122.047 243.272L121.313 243.94L121.114 247.333L120.181 249.465L120.579 250.199L120.911 256.525L122.84 258.387L123.305 259.453L122.504 260.519L122.04 260.918L121.442 260.851L117.912 260.785L117.381 261.25L118.182 265.51L118.916 266.443L122.379 267.111L124.445 269.907L125.511 268.641L126.577 269.442V271.504L127.108 272.636L128.506 273.768L128.307 275.166L127.643 275.365L127.377 276.322L125.913 276.463L123.785 277.064L121.587 276.931L119.525 276.064L116.928 275.865L114.332 273.87L113.398 273.936L112.867 274.467L112.934 280.457L113.867 282.456V286.252L112.071 288.384V289.782L113.07 290.981L113.668 291.847L113.601 292.913L112.801 293.179L112 293.776V294.55L110.505 294.675L107.975 298.337L107.709 301L106.217 300.571L105.495 299.872L104.827 297.982L104.882 294.37L103.492 293.425L103.547 291.316L101.157 290.985L99.6027 288.876L98.158 288.321L99.1576 286.322L99.9893 286.268L100.766 285.045L103.097 284.877L104.042 283.878L103.543 281.488L104.488 279.544L103.933 275.822L102.766 273.433L103.043 270.988L101.711 270.266L100.103 265.963L100.434 258.684L99.3802 254.795L99.7121 253.241L99.0443 250.465L97.4902 248.075L98.1033 246.798L98.2712 243.467L97.826 242.3L99.1029 240.632L99.0326 239.863L102.746 238.895L105.807 239.094L107.873 240.027L108.607 239.496L110.872 239.297L111.872 240.429L113.469 242.026L114.203 242.159L117.998 241.359L120.197 241.89L120.864 238.629L122.727 238.231L123.594 237.567L124.316 237.099L125.191 237.567L125.241 240.945Z" fill="#CCCCCC" stroke="white" stroke-width="0.5"/>
<path d="M126.344 109.193L126.508 115.261L129.838 116.46L130.569 117.257L130.038 117.858L129.038 118.389L128.308 120.587L125.711 121.118L124.18 123.25L120.85 124.648L120.584 125.379L122.783 126.113L123.645 129.041L122.982 131.704L120.916 131.903L119.651 133.766L114.926 136.031L111.197 136.429L110.264 135.836L110.467 135.566L106.07 133.567L103.743 133.501L101.947 131.505H100.279L98.2839 130.506L97.6162 130.107L97.5499 128.374L95.0898 126.8L97.952 123.782L100.412 119.123L105.406 114.996L105.805 109.869L106.129 108.998L107.437 109.267L113.161 109.935L115.293 111.2L117.089 111.399L120.018 110.333L125.278 109.537L126.344 109.193Z" fill="#CCCCCC" stroke="white" stroke-width="0.5"/>
<path d="M138.691 175.848L141.053 175.872L143.119 176.672L144.251 177.473L144.849 179.601L145.915 180.667L147.512 180.6L148.312 180.136V177.937L148.91 176.473L149.909 175.407L150.843 175.142L153.236 176.34L154.103 177.27L154.903 179.335L154.369 181.998L154.599 181.991L154.7 183.264L156.7 186.723V187.856L157.363 189.855H159.23L161.694 187.723H162.889L163.822 188.055L164.154 188.988L164.22 191.717L163.623 193.713L163.291 198.707L163.822 199.769L162.83 199.886L162.799 200.944L161.659 202.702L160.128 202.237L159.898 201.093L158.098 198.707L155.368 197.774L154.236 198.043L149.71 202.635L147.644 204.033L145.516 204.767L145.247 205.763L145.981 206.895L145.915 207.762L144.65 208.16L142.986 207.762L140.589 206.298L134.466 204.767L132.002 202.901L129.671 203.9L126.84 202.37L127.34 202.038L129.671 199.105L129.472 196.177L130.737 194.447L131.069 193.115L130.202 184.126H130.604H131.736L132.865 182.662L133.068 180.401L132.666 179.667L133.798 176.871L135.13 176.739L135.665 178.07L136.594 178.004L136.859 177.203L137.992 176.407L138.691 175.848Z" fill="#CCCCCC" stroke="white" stroke-width="0.5"/>
<path d="M177.102 142.22L176.505 143.352L176.903 146.015L176.638 148.28L176.04 148.745L172.514 149.076L169.984 152.403L168.918 153.668L167.985 154L166.786 152.802L166.321 150.603L165.857 149.803L165.259 149.272L162.264 149.537L160.866 149.869L158.937 151.439L157.938 151.501L157.274 151.302L157.141 150.17L157.672 147.573L160.136 147.44L161.468 146.441L166.126 146.839L167.391 144.976L167.458 143.977L166.962 143.481L167.836 141.864L171.944 138.635L173.647 136.054L176.646 134.695L178.641 135.226L180.706 138.088L180.375 138.756H179.566L178.836 141.22L177.102 142.22ZM159.796 121.345V122.087L161.393 123.617L161.46 124.219L162.526 125.085H163.857L163.99 126.085L163.26 127.085L167.786 127.885L169.937 127.503L172.112 126.171V126.191L173.311 127.522L175.775 128.455L173.58 129.205L172.096 130.435L170.847 133.746L169.117 135.878L166.454 136.476L164.057 140.006L163.857 141.005L163.194 141.204L162.53 141.603L160.933 142.602L159.867 142.27L157.27 142.872L154.673 142.739L153.607 142.075L153.01 140.677L152.877 138.014L152.346 137.35L150.484 137.284L149.086 137.952L148.355 139.217L148.82 139.615L148.621 140.349L147.82 140.548L147.09 139.15L143.068 137.885L144.494 136.288H145.161L145.427 134.625L144.654 133.141L145.095 132.825V126.768L145.692 125.57L146.223 125.039L148.82 125.773L151.218 124.906L153.217 123.508L154.947 122.977L156.743 122.176L159.796 121.345Z" fill="#CCCCCC" stroke="white" stroke-width="0.5"/>
<path d="M188.554 169.722L193.083 170.444L193.696 169.445L193.954 169.507H194.688L194.754 170.511L196.226 171.78L197.226 171.979L197.359 171.311L199.167 172.049L200.034 171.78L200.502 167.969L201.037 167.637H202.041L202.708 168.371L202.373 169.308L202.841 169.64L205.715 169.507L205.914 172.783L208.187 177.727L206.516 181.069L205.649 181.604L205.535 182.834L205.313 182.873L204.645 184.947L202.576 185.415L201.303 187.02L197.827 187.086L194.688 189.824L192.415 188.957L188.671 191.897L190.545 193.9L187.203 195.907L187.402 197.711L190.549 201.304L189.748 201.37L187.78 203.904L187.113 207.583L185.891 207.895L184.692 205.962L184.493 204.1L183.692 202.635L182.911 202.065L181.896 202.167L180.631 203.502L180.365 204.498L180.229 205.63L181.228 208.492L180.955 209.344L178.058 209.668L177.034 210.824L175.902 213.42H174.04L173.106 212.354L173.442 210.156L175.238 207.563L174.84 205.896L175.902 200.171L175.504 199.242L176.16 199.043L175.703 196.376L174.571 194.912L172.376 195.181L171.294 196.095L170.537 198.965L164.59 199.23L163.821 199.769L163.29 198.707L163.622 193.713L164.219 191.717L164.153 188.988L163.821 188.055L162.887 187.723H161.693L159.229 189.855H157.362L156.698 187.856V186.723L154.699 183.264L154.598 181.991L158.362 182.264L159.494 181.132L161.759 179.8L164.02 178.336L165.886 176.075L166.097 175.388L167.515 175.009L169.381 175.739L171.111 177.805L171.708 178.871L172.642 179.734L174.84 179.8L175.106 178.07L174.305 176.407L174.371 175.075L176.304 173.142L178.901 172.479L181.83 169.948L188.686 170.147L188.554 169.722Z" fill="#CCCCCC" stroke="white" stroke-width="0.5"/>
<path d="M99.0293 239.851L100.353 236.677L100.517 232.721L100.978 232.178L100.892 230.636L99.3924 228.805L99.0996 226.969L100.435 225.845L100.017 224.638L100.267 223.971L101.81 222.514L103.684 221.807L104.102 220.179L105.183 219.304L103.684 216.056L105.433 213.764L105.765 212.389L106.644 211.35L106.687 210.206L112.962 210.023L115.027 212.022L118.354 212.752L119.42 212.088L119.686 211.354V210.491L118.885 209.89L119.287 209.425L120.752 208.359L122.282 208.227L123.012 210.023L121.681 211.421L121.95 212.221L124.68 214.751L125.543 214.884H125.734L124.512 217.379V219.109L128.639 221.573V225.501L128.175 229.297L127.573 230.16L124.512 229.562L122.782 231.159L124.379 235.619L124.18 237.016L124.301 237.083L123.579 237.551L122.716 238.215L120.849 238.617L120.185 241.878L117.987 241.347L114.192 242.143L113.461 242.011L111.864 240.414L110.865 239.281L108.6 239.48L107.87 240.015L105.804 239.082L102.743 238.883L99.0293 239.851Z" fill="#CCCCCC" stroke="white" stroke-width="0.5"/>
<path d="M164.122 141.322L163.751 141.021L163.189 141.189L162.525 141.587L160.924 142.587L159.862 142.255L157.265 142.852L154.668 142.72L153.602 142.056L153.005 140.658L152.872 137.995L152.337 137.327L150.475 137.261L149.077 137.928L148.343 139.194L148.811 139.592L148.612 140.326L147.812 140.525L147.078 139.127L146.082 139.061L143.95 137.862H143.056L142.817 139.592L142.021 141.255L138.292 141.923L136.16 143.321L135.496 144.184L135.363 145.648L136.226 147.581L136.183 147.655L142.021 152.607L142.419 154.602L143.419 155.27L146.547 155.867L148.542 157.331L149.276 161.994L150.939 164.258L154.204 164.458L157.796 166.984L159.995 167.519L161.592 167.121L161.857 165.723L162.658 161.958L162.056 160.764L160.26 158.764L158.198 158.499L157.531 157.499L157.863 154.571L159.261 152.774L158.929 151.443L157.265 151.31L157.663 147.581L160.127 147.448L161.459 146.449L166.117 146.847L167.382 144.984L167.449 143.985L166.652 143.188L164.122 141.322Z" fill="#CCCCCC" stroke="white" stroke-width="0.5"/>
<path d="M56.373 31.1678L56.8182 30.8906L57.6733 27.4778L56.99 25.0881L57.2438 23.9752L57.5015 23.0381L59.8912 20.6484L59.2938 18.5125L59.8053 17.833L61.8553 17.1497L63.5617 18.0868L66.8886 17.4035L67.9976 17.0638L71.0706 14.76L73.2885 15.0997L74.9129 17.0638L76.7911 17.3176L80.3757 13.0536L85.2371 12.7178L86.2797 16.2672L82.8904 18.942L82.4648 20.4766L85.6237 21.8432L87.5878 23.7214L85.366 26.1971H84.1711L82.8045 26.8765L81.0981 27.6457L75.2956 30.8906L74.6982 33.2803L72.6481 36.0098L72.4802 37.3764L67.4431 40.961L67.529 41.7303L71.5392 45.4827L71.2854 46.5097L70.5161 47.1071H69.0636H68.3841L67.7008 46.5097V45.7405L64.7995 46.0802L61.3829 43.6905L60.1373 43.5225L60.1451 43.3507L59.0361 42.3277L59.3797 40.7892L59.0361 40.0239L59.122 34.5611L58.2669 33.2803L56.5605 32.4252L56.373 31.1678Z" fill="#CCCCCC" stroke="white" stroke-width="0.5"/>
<path d="M93.6028 52.141L95.356 56.7954L95.1842 58.5877L94.2432 59.5249L93.8176 60.8057V61.6569L91.0022 66.9518L89.4637 66.0966L89.3778 65.1595L87.5035 66.2684L86.6484 67.5492L85.7112 68.5723L84.6843 67.2915L82.9779 67.1197L80.5882 67.803L79.4792 67.5492L73.0793 60.0364L71.287 59.2672L68.5537 59.0134L67.0191 57.6467V54.6595L65.8242 51.6724L67.6165 50.989L68.2998 49.966L68.2139 48.4275L68.8114 47.1077H69.0652H70.5178L71.287 46.5103L71.5408 45.4833L67.5306 41.7308L67.4447 40.9616L72.4819 37.377L72.6498 36.0103L74.6998 33.2809L75.2972 30.8912L81.0997 27.6463L82.1969 27.1543L83.1497 27.6463L84.6843 31.2309L89.3778 31.6604L95.1842 37.377L97.8278 41.559L97.5739 44.2885L96.6329 44.8039L96.2073 46.5103H94.2432L93.8176 47.873L92.0253 49.2397L93.306 52.141H93.6028Z" fill="#CCCCCC" stroke="white" stroke-width="0.5"/>
<path d="M176.636 134.7L173.637 136.059L171.935 138.64L167.827 141.869L166.952 143.486L164.121 141.322L163.754 141.022L163.856 140.99L164.055 139.991L166.453 136.461L169.116 135.864L170.845 133.732L172.095 130.42L173.579 129.19L175.773 128.441L178.569 128.109L178.967 127.308L180.83 126.578L183.095 124.715L183.895 124.45L184.36 124.915L183.161 127.246L181.099 128.113L179.768 130.178V131.045L178.237 131.713L176.574 133.243L176.175 134.309L176.636 134.7ZM172.177 116.925L174.172 116.992L175.172 116.125L180.365 114.992L181.498 114.528L182.829 113.005L183.345 114.278L183.294 114.731L176.371 117.859L175.972 118.925L173.575 119.659L172.111 122.056L172.177 124.653L172.111 126.164L169.936 127.496L167.784 127.878L163.258 127.082L163.993 126.082L163.86 125.082H162.528L161.462 124.216L161.396 123.618L159.799 122.087V121.346L161.931 120.287L162.329 118.757L160.267 115.297L160.467 113.966H163.13L163.196 112.568L164.594 111.17L165.191 111.037L166.433 110.639L168.319 112.005L170.451 114.137L171.384 116.601L172.177 116.925Z" fill="#CCCCCC" stroke="white" stroke-width="0.5"/>
<path d="M42.6171 20.4657L44.1009 16.9788L46.8343 16.0416L47.7714 15.0146L49.306 15.1006L49.5637 18.0877L48.9663 18.9429L48.6265 21.3326L49.5637 25.0031L53.7457 29.5248L56.3072 30.7197L56.561 32.426L58.2674 33.2812L59.1226 34.562L59.0367 40.0247L59.3803 40.7901L59.0367 42.3286L60.1456 43.3516L60.0597 44.8042L57.7559 47.5336L54.2572 49.7515H53.2342L51.9534 48.9862L50.5008 49.1541L49.5637 51.2041L48.3688 51.5438L46.065 49.7515L43.9291 49.8374L42.1368 51.0323L40.9419 55.6399L39.5792 57.2643L37.3574 57.8618L37.2129 57.0144L35.5182 55.5189L36.635 53.6836L36.4124 53.0198L34.0852 52.0827L33.9719 51.4657L34.8154 50.6653L33.3667 50.0717L32.9059 50.798L31.672 50.5091L31.6212 49.8687L32.82 48.5801L32.5974 48.0022L30.4732 47.6273L30.1843 46.0108L27.7789 44.195L27.447 42.0552L28.2007 40.3254L28.0249 38.9939L26.8457 37.5491L30.6177 33.1094L30.9574 26.5376L32.4959 25.5146L32.8356 24.5735L34.2023 23.8941L35.3113 24.2338L35.7369 24.6594L34.8856 26.3658L35.0535 27.3928L37.2754 29.0133L39.1497 29.1851L39.9189 27.6466L41.5394 27.9043L42.906 26.6235L43.1638 25.8543L42.0548 24.6594L42.992 21.5864L42.6171 20.4657Z" fill="#CCCCCC" stroke="white" stroke-width="0.5"/>
<path d="M65.3863 115.754L63.3871 114.93L63.516 113.711L64.7342 111.654L64.5429 111.013L63.1294 110.306L64.1563 106.515L62.6803 105.679L61.8447 104.27L60.6889 104.91L56.9637 102.727L56.5147 101.892V99.7088L55.355 98.8732L54.0352 94.535L58.0415 90.9035L61.2238 88.9589L62.4226 88.8067L64.5585 90.0054L65.7573 89.818L69.2013 82.4028L70.6968 80.3801L71.3333 80.345L73.4302 82.028L75.0038 81.2822L76.7649 78.2481L77.3271 73.9802L77.7957 73.3281L78.0769 74.6518L81.8957 75.4406L83.3561 76.4871V77.0494L82.1574 78.174L82.419 78.8846L83.1687 79.2595L86.4643 78.9198L86.8157 78.7636L87.9989 79.5797V80.5793L86.3355 82.7074L86.7337 83.8398L89.3968 87.5688L91.6616 89.0331L91.728 90.0289L90.662 91.0949L88.6627 91.6962L88.198 95.4877L84.8712 97.8853V99.084L85.3358 99.3496H90.33L90.5956 100.548L89.4632 103.742L88.3972 104.477L87.3976 104.344L85.6014 103.61L84.469 103.809L83.9379 104.41V107.272L82.8055 108.737L78.6118 108.471L75.7496 108.869L73.887 110.4L70.4899 111.4L67.9596 115.328L65.3863 115.754Z" fill="#CCCCCC" stroke="white" stroke-width="0.5"/>
<path d="M94.6715 52.1412L102.438 52.2271L107.303 53.6797L110.119 51.5438L111.653 51.3758L114.64 52.7386L121.212 53.0822L123.516 50.263L128.381 46.9361L128.893 45.5694L127.87 44.2067L125.917 43.086L126.648 42.5667L127.229 38.451L128.705 38.1074L130.701 38.7712L131.833 40.9032L135.629 41.3015L136.429 41.9653L136.562 43.0313L134.43 44.4293L133.032 43.4999L132.634 45.4289L131.501 46.7604L128.905 48.4902L129.17 49.3571L130.97 51.0869H131.9L132.567 50.755L134.231 47.76L136.226 48.0256L138.358 49.0252L141.353 52.6176L142.021 52.7503L142.154 53.75L141.888 54.4138L141.021 54.7496L140.822 56.9441L138.292 58.9433V62.0046L134.898 63.0707L134.364 63.6681L134.43 65.5346L132.766 66.132L131.9 65.6009L132.501 64.5349L132.368 63.2034L131.169 61.8719L129.639 61.2706L127.042 61.8055L123.18 64.1367L122.313 67.5299L120.849 68.3968V70.7904L121.65 71.0598L123.711 70.2593L125.312 71.0598L127.772 77.7838L127.573 78.7796L126.64 79.6464L124.777 80.646L124.047 82.6414L122.716 82.575L120.65 81.4426L120.053 81.509L118.83 82.985L118.155 82.3095L110.9 77.3153L105.706 73.0552L93.8163 61.5907V60.8059L94.2419 59.5251L95.183 58.588L95.3548 56.7957L93.6016 52.1412H94.6715Z" fill="#CCCCCC" stroke="white" stroke-width="0.5"/>
<path d="M116.922 275.861L119.519 276.06L121.584 276.927L123.783 277.06L125.915 276.462L126.801 276.501L126.079 280.191L125.142 280.601L125.45 281.859L122.385 282.526L121.986 283.327L122.186 288.052L122.717 290.184L123.318 290.516L124.583 289.649L128.859 288.59L128.691 289.204L126.247 290.426L126.348 292.113L127.082 292.281L127.414 293.147L127.48 294.811L123.884 296.541L122.022 296.076L120.292 296.408L115.032 294.479L112.002 294.553V293.78L112.802 293.183L113.603 292.917L113.669 291.851L113.072 290.984L112.072 289.785V288.387L113.868 286.259V282.464L112.935 280.469L112.869 274.479L114.333 273.881L116.922 275.861ZM142.541 260.785L143.318 262.35L143.252 264.014L141.92 265.08L138.461 266.411L137.945 267.185L137.164 266.642L133.502 268.239L132.838 268.504L131.307 268.77L127.98 266.107L127.648 265.041L127.848 263.51L128.781 262.979L130.913 263.178L136.836 261.448L142.541 260.785ZM125.38 260.785L124.981 262.382L124.115 263.049L122.916 263.58L122.186 263.381L121.385 261.585L121.483 260.855L122.053 260.917L122.518 260.519L123.068 259.789H123.849L125.38 260.785ZM126.84 202.369L129.675 203.9L132.006 202.9L134.47 204.763L140.597 206.293L142.994 207.758L144.658 208.156L145.923 207.758L145.934 207.633L146.657 207.894L147.524 210.026L150.651 212.092L151.05 213.49L150.116 215.887L149.453 216.153L143.127 217.883L140.796 217.551L139.531 217.883L140.796 220.811L140.729 222.143L141.928 222.342L144.591 221.409L147.653 221.874L148.184 220.608L150.249 219.808L152.647 221.874L156.989 222.975L157.208 224.177L159.906 226.016L159.402 226.501L155.142 230.694L153.611 233.291L153.744 235.22L154.677 239.347L153.014 239.945L149.753 242.342L149.355 245.271L149.753 245.736L151.218 245.536L151.682 247.934L152.01 250.359L145.755 251.702L144.693 249.004L142.963 246.54L142.162 245.474L140.433 244.744L138.504 245.544L138.105 246.876L139.902 252.136V252.936L139.304 253.202L135.243 253.401L131.116 256.329L129.652 256.396L127.922 254.799L125.993 254.064L125.727 252.136L126.727 251.804H127.324L129.12 251.87L129.519 250.937V249.937L128.789 249.34L125.329 248.274V247.543L127.059 246.677L127.859 244.947L127.992 243.881L127.192 241.819L126.528 241.62L125.661 242.42H125.13L125.263 240.956L125.196 237.563L124.197 237.032L124.396 235.634L122.799 231.175L124.528 229.578L127.59 230.175L128.191 229.308L128.656 225.513V221.585L124.528 219.121V217.391L125.751 214.896H126.692L128.023 214.763L129.886 213.763L130.284 212.365L129.687 209.636L126.293 205.708L125.895 203.377L126.559 202.58L126.84 202.369Z" fill="#CCCCCC" stroke="white" stroke-width="0.5"/>
<path d="M54.0349 94.5351L51.8248 93.4769L50.0911 89.8182L45.6592 85.9017L45.7217 84.4881L44.4409 83.1371L44.5034 82.3678L43.0898 81.1456L43.5389 80.4428L45.0188 80.1187L45.4015 79.4119L44.8743 76.5458L45.3859 75.964L48.7908 71.208L49.4273 68.623L50.1419 68.3614L51.899 69.5211L52.7971 69.4118L56.655 66.3036L57.6312 66.0029L67.4791 69.1502L69.4627 69.0721L71.5205 67.5375L74.2929 66.8659L78.225 72.1061L78.2992 72.7426L77.8111 73.3049L77.3269 73.9804L76.7646 78.2483L75.0036 81.2823L73.4299 82.0281L71.3331 80.3452L70.6966 80.3803L69.2011 82.403L65.7571 89.8182L64.5583 90.0056L62.4224 88.8068L61.2236 88.9591L58.0412 90.9037L54.0349 94.5351Z" fill="#CCCCCC" stroke="white" stroke-width="0.5"/>
<path d="M112.793 144.317L114.527 144.388L117.389 146.516L119.385 145.317L120.982 146.051L122.981 144.786L123.981 145.516L125.566 145.848L129.803 157.434L131.134 157.566L135.597 162.959L136.527 163.158L137.526 162.295L138.526 162.361L141.123 166.688L141.388 168.418L139.654 170.55V172.213L140.72 172.412L140.654 173.943L138.991 175.606L137.991 176.407L136.859 177.203L136.593 178.004L135.664 178.07L135.129 176.739L133.797 176.871L132.665 179.667L133.067 180.401L132.864 182.662L131.735 184.127H130.603H128.073L124.078 184.396L120.685 180.999L120.017 180.866L118.354 182.264L116.089 182.932L116.023 183.861L117.155 185.325L117.022 189.121L116.222 190.32L113.227 190.386L112.094 189.722L110.497 186.993L109.017 187.059L107.522 187.793L105.206 180.89L103.73 178.062L103.09 173.181L100.841 170.483L100.903 169.394L99.7476 168.109L99.6187 165.731L98.9783 164.575L99.1697 161.752L98.4629 160.979L99.6851 160.015L99.7241 158.831L100.146 158.597L102.942 160.53L103.941 159.597L106.803 160.128L108.334 159.862L107.936 152.408L109.865 151.143L112.528 150.745L112.793 147.414L112.196 145.684L112.727 144.419L112.793 144.317Z" fill="#CCCCCC" stroke="white" stroke-width="0.5"/>
<path d="M161.857 165.723L162.888 164.821L164.622 164.422L166.02 166.422L166.551 169.881L166.219 175.008L165.887 176.074L164.021 178.335L161.76 179.799L159.495 181.131L158.363 182.263L154.368 181.998L154.903 179.335L154.102 177.269L153.236 176.34L150.842 175.141L149.909 175.406L148.909 176.472L148.312 177.937V180.135L147.511 180.6L145.914 180.666L144.848 179.6L144.251 177.472L143.118 176.672L141.053 175.871L138.69 175.848L138.991 175.606L140.654 173.942L140.721 172.412L139.655 172.212V170.549L141.389 168.417L141.123 166.687L138.526 162.361L137.527 162.294L136.527 163.157L135.598 162.958L131.135 157.566L129.803 157.433L125.566 145.847L125.578 145.851L126.242 144.984L126.91 145.051L127.573 147.116L128.374 147.581L130.635 150.709L132.435 151.708H133.567L133.833 151.31L133.231 150.576L133.833 148.444L135.828 148.245L136.183 147.655L142.021 152.607L142.419 154.602L143.419 155.27L146.547 155.867L148.542 157.331L149.276 161.994L150.94 164.258L154.204 164.457L157.796 166.984L159.995 167.519L161.592 167.121L161.857 165.723Z" fill="#CCCCCC" stroke="white" stroke-width="0.5"/>
<path d="M106.687 210.206L106.558 209.245L108.163 207.254L108.1 206.16L107.456 205.711L107.776 203.4L105.207 199.803V199.03L106.621 196.207L106.367 192.931L107.843 190.041L107.523 187.792L109.018 187.058L110.498 186.992L112.095 189.721L113.227 190.385L116.222 190.319L117.023 189.12L117.156 185.324L116.023 183.86L116.09 182.931L118.354 182.263L120.018 180.865L120.686 180.998L124.079 184.395L128.073 184.126H130.202L131.068 193.115L130.736 194.446L129.471 196.176L129.67 199.104L127.339 202.037L126.543 202.568L125.875 203.365L126.277 205.696L129.67 209.624L130.272 212.353L129.87 213.751L128.007 214.751L126.675 214.884H125.543L124.68 214.751L121.951 212.221L121.681 211.42L123.013 210.022L122.283 208.226L120.752 208.359L119.288 209.425L118.885 209.889L119.686 210.491V211.354L119.42 212.088L118.354 212.752L115.028 212.021L112.962 210.022L106.687 210.206Z" fill="#CCCCCC" stroke="white" stroke-width="0.5"/>
<path d="M95.0893 126.8L97.5493 128.373L97.6156 130.107L98.2834 130.505L100.279 131.505H101.946L103.742 133.5L106.069 133.567L110.466 135.566L110.064 136.097L109.533 138.362L107.87 138.295L108.002 139.225L109.998 141.091L112.395 142.021L113.262 143.618L112.727 144.418L112.196 145.683L112.794 147.413L112.528 150.744L109.865 151.142L107.936 152.407L108.334 159.862L106.804 160.127L103.941 159.596L102.942 160.529L100.146 158.596L99.6852 158.854V160.014L98.463 160.978L98.7871 160.143L98.1428 158.28L98.0139 155.519L97.2447 154.043L97.436 152.95L95.4954 150.92L95.6203 147.745L94.156 145.285L89.361 141.622L88.6308 139.424L88.3652 136.562L89.7631 135.097L90.6261 133.301L89.6304 130.24L90.0951 129.307L95.0893 126.8Z" fill="#CCCCCC" stroke="white" stroke-width="0.5"/>
<path d="M63.4457 4.28392L63.6214 5.12735L65.7534 5.34992L68.682 7.43507L69.8339 7.56783L73.2311 5.34602L76.1831 5.34992L77.9285 5.92783L83.5397 9.94975L84.7502 11.1641L85.2383 12.7182L80.3768 13.054L76.7922 17.3181L74.914 17.0642L73.2896 15.1001L71.0717 14.7604L67.9987 17.0642L66.8897 17.404L63.5629 18.0873L61.8565 17.1502L59.8065 17.8335L59.2949 18.5129L59.8924 20.6488L57.5026 23.0386L57.2449 23.9757L56.9911 25.0886L57.6744 27.4783L56.8193 30.8911L56.3742 31.1683L56.3078 30.7192L53.7462 29.5244L49.5642 25.0027L48.6271 21.3322L48.9668 18.9424L49.5642 18.0873L49.3065 15.1001L47.7719 15.0142L46.8348 16.0412L44.1015 16.9783L42.6176 20.4653L42.5669 20.3052L38.6387 17.5758L39.8687 14.2099L41.251 14.3153L42.1413 13.4289L44.4919 8.10279L45.9562 6.32611L47.5533 5.30697L48.6193 4.99459L51.1496 5.79506L52.2585 7.88022L52.8364 7.83726L53.7228 6.68145L54.5663 6.54869L56.9208 4.46354L58.8732 4.54944L60.2477 3.70601L61.669 1.13276L62.6023 1L64.375 2.24172L63.4457 4.28392Z" fill="#CCCCCC" stroke="white" stroke-width="0.5"/>
<path d="M166.43 110.634L165.188 111.032L164.587 111.165L163.189 112.563L163.123 113.961H160.46L160.194 114.629L162.322 118.756L161.924 120.287L160.261 121.286L156.731 122.149L154.935 122.95L153.205 123.481L151.205 124.879L148.812 125.746L146.215 125.011L145.68 125.546L145.083 126.745V132.801L144.618 133.133L141.022 132.005L140.756 129.807L139.889 128.409H138.691L136.496 125.347L136.43 124.48L134.497 123.016L133.767 120.353L134.231 119.955L133.767 119.353L130.768 119.553L129.237 118.284L130.038 117.858L130.569 117.257L129.839 116.46L126.508 115.261L126.344 109.193L126.941 109.002L129.206 107.471V106.472L128.538 105.675L128.671 104.543L130.206 102.278L135.329 98.8182L139.19 98.0177L139.655 97.5531L139.323 95.0228L138.792 93.4921L140.057 90.8954L140.288 90.6963L141.088 90.7627L144.481 95.4874L146.68 96.6862L149.741 96.2879L153.935 93.0938L156.465 94.4253L158.129 96.4871L157.929 99.2165L160.995 99.6148L161.78 99.6773L163.256 102.278L165.653 101.946L167.25 104.277L168.117 104.543L168.648 105.339L167.918 107.538L166.184 109.537L166.43 110.634Z" fill="#CCCCCC" stroke="white" stroke-width="0.5"/>
<path d="M134.283 81.9969L134.9 81.4425L136.828 78.5139L137.625 78.0492H139.292L142.088 79.1113L144.548 78.7794L144.818 77.9164L143.818 74.5857L144.482 73.5197L145.614 73.055H149.144L153.205 69.2596L153.404 67.7953L154.736 66.331L155.802 64.1365L157.133 63.5352L158.199 63.8007L159.129 64.4684L160.195 66.331L160.394 68.5294L159.328 71.3252L159.195 74.3202L159.73 78.0492L159.394 83.7736L159.863 85.7026L159.461 86.7022V92.1611L161.858 94.2931V99.6817L160.995 99.6153L157.93 99.217L158.129 96.4876L156.466 94.4258L153.935 93.0943L149.742 96.2884L146.68 96.6867L144.482 95.4879L141.089 90.7632L140.288 90.6968L139.956 89.9627L134.165 85.1051L132.834 84.5038L132.568 83.9064L133.502 83.3753L134.283 81.9969Z" fill="#CCCCCC" stroke="white" stroke-width="0.5"/>
<path d="M44.9515 76.8507L41.6754 73.3442L40.3283 70.3883L41.9331 69.8104L41.5465 68.2719H40.4571L39.5551 67.5651L40.2619 66.4093L39.3013 64.5468L39.8128 62.1063L39.0436 61.3331L37.1146 61.1418L35.5098 60.3062L36.2165 58.8302L37.3567 57.8618L39.5785 57.2643L40.9413 55.64L42.1362 51.0323L43.9285 49.8375L46.0644 49.7516L48.3682 51.5438L49.5631 51.2041L50.5002 49.1541L51.9528 48.9862L53.2335 49.7516H54.2566L57.7553 47.5336L60.0591 44.8042L60.1372 43.5234L61.3828 43.6913L64.7995 46.0811L67.7007 45.7414V46.5106L68.3841 47.108H68.8097L68.2123 48.4278L68.2982 49.9663L67.6148 50.9894L65.8225 51.6727L67.0174 54.6599V57.647L68.552 59.0137L71.2853 59.2675L73.0776 60.0367L79.4775 67.5495L80.5865 67.8033L82.9762 67.12L84.6826 67.2918L85.7096 68.5726L85.7798 68.4945L86.4241 69.334L86.1235 69.8221L83.8782 69.9353L82.492 71.509L82.2304 71.9932L83.4292 72.9693L83.3159 73.7191L78.2749 72.5437L78.2241 72.1064L74.292 66.8662L71.5196 67.5378L69.4618 69.0724L67.4782 69.1505L57.6303 66.0032L56.6541 66.3039L52.7962 69.4121L51.8981 69.5214L50.141 68.3617L49.4264 68.6233L48.7899 71.2083L45.3849 75.9643L44.9515 76.8507Z" fill="#CCCCCC" stroke="white" stroke-width="0.5"/>
<path d="M127.367 78.9708L127.574 78.7795L127.773 77.7838L125.313 71.0597L123.712 70.2593L121.65 71.0597L120.85 70.7903V68.3967L122.314 67.5298L123.181 64.1366L127.043 61.8054L129.639 61.2705L131.17 61.8718L132.369 63.2033L132.501 64.5349L131.9 65.6009L132.767 66.1319L134.43 65.5345L134.364 63.668L134.899 63.0706L138.292 62.0046V58.9432L140.823 56.944L141.022 54.7495L141.889 54.4137L142.154 53.7499L144.083 53.418L146.016 53.8826L148.812 58.6113L148.21 59.4743L148.144 60.673L148.613 61.3408L153.603 62.2037L156.133 63.7344L155.801 64.1366L154.735 66.3311L153.404 67.7954L153.205 69.2596L149.144 73.0551H145.614L144.481 73.5198L143.818 74.5858L144.817 77.9165L144.548 78.7795L142.088 79.1114L139.292 78.0493H137.625L136.828 78.514L134.899 81.4425L134.231 82.0439L131.104 79.3144L127.367 78.9708Z" fill="#CCCCCC" stroke="white" stroke-width="0.5"/>
<path d="M87.1788 104.247L87.3975 104.344L88.3971 104.477L89.4631 103.743L90.5955 100.549L90.33 99.35H85.3358L84.8711 99.0845V97.8857L88.198 95.4882L88.6626 91.6966L90.6619 91.0953L91.7279 90.0293L91.6615 89.0336L89.3967 87.5693L86.7337 83.8402L86.3354 82.7078L87.9988 80.5797V79.5801L86.8157 78.764L87.1359 78.6234L90.4705 78.2486L91.6693 77.4247L92.7548 78.2837L94.5901 78.3618L94.8868 76.8624L93.4655 75.5894L94.9649 74.2032L94.8868 72.407L94.2504 71.919L93.6139 70.0837L93.0516 69.9744L91.2203 72.2938L90.0566 72.7077L87.8856 71.095L87.0265 70.9818L86.3354 69.4863L86.4252 69.334L85.7809 68.4945L86.6478 67.5495L87.5029 66.2687L89.3772 65.1598L89.4631 66.0969L91.0016 66.9521L93.8169 61.6572V61.5908L105.707 73.0552L110.9 77.3154L118.155 82.3096L119.155 83.3092L119.62 85.3709V90.0293L117.62 91.8294L118.487 94.9571L118.288 96.4878L116.492 97.2219L113.294 95.7576L107.105 95.824L106.105 94.6252L105.508 94.5588L103.575 95.4882L102.111 97.6866L102.712 102.88L103.641 105.008L103.575 106.14L102.923 107.07L97.3195 106.074L95.6522 107.671L91.9934 105.141L87.8661 106.074L87.1788 104.247Z" fill="#CCCCCC" stroke="white" stroke-width="0.5"/>
<path d="M186.079 112.939L186.587 113.349L187.013 115.375L186.079 116.402L186.392 117.718L187.013 118.222L186.973 120.428L189.59 121.15L192.959 120.475L192.878 115.071L197.138 113.782L198.114 113.962L198.824 115.691L200.023 124.614L199.711 125.235L197.227 125.988L199.121 135.457L198.75 137.133L193.491 137.531L194.197 138.593L193.932 138.827L194.924 139.261L195.767 140.417L196.966 143.037L197.247 141.783L198.383 141.084L201.691 141.397L202.444 145.454L200.691 147.051L200.738 153.521L198.149 154.376L198.469 155.126L199.27 156.106L202.999 155.04L204.026 158.386L207.173 157.968L208.059 157.437L209.004 158.062L209.242 159.179L209.613 159.089L210.902 163.474L212.499 164.228L213.92 163.607L217.251 163.341L217.739 161.967L219.59 162.4L220.445 164.978L219.738 165.028L219.649 165.829L221.335 168.636L222.581 168.047L223.737 166.539H224.448L225.779 167.844L226.025 168.558L224.787 168.625L223.534 170.308L225.494 173.49L226.084 175.579L225.853 184.736L224.35 186.102L225.053 189.226L226.521 190.663L226.853 193.127L226.052 194.259L222.257 194.392L220.992 195.009L216.56 191.44L212.148 191.307L210.609 190.839L210.008 189.101L212.214 187.164L212.882 185.091L212.347 183.955L209.137 184.291L206.064 182.752L205.548 182.846L205.662 181.616L206.533 181.081L208.204 177.738L205.931 172.795L205.732 169.519L202.858 169.652L202.39 169.32L202.725 168.383L202.058 167.648H201.054L200.519 167.984L200.051 171.795L199.18 172.065L197.376 171.331L197.243 171.998L196.24 171.799L194.767 170.53L194.701 169.527H193.967L193.432 169.394L192.764 167.992L192.694 164.513L193.362 163.181L192.428 160.983L192.03 159.519L192.897 158.187L193.096 156.789L192.229 155.79L189.898 154.856L188.5 155.59L187.102 156.457L185.638 157.191L183.041 156.125L181.179 154.595L180.781 153.595L181.046 151.198L182.046 151.065L185.041 151.998L185.505 151.198L184.705 149.667L185.904 146.937L186.036 145.34L185.103 142.943L180.492 138.554L180.71 138.117L178.648 135.254L176.653 134.723L176.188 134.325L176.587 133.259L178.25 131.728L179.781 131.065V130.198L181.112 128.136L183.178 127.269L184.377 124.938L183.912 124.473L183.116 124.739L180.851 126.601L178.988 127.336L178.59 128.136L175.794 128.468L173.33 127.535L172.131 126.203L172.198 124.672L172.131 122.076L173.596 119.678L175.993 118.948L176.392 117.882L183.315 114.754L183.365 114.301L183.221 113.579L186.079 112.939ZM131.53 33.289L132.037 33.8669L133.259 33.6014L135.036 35.1984L136.547 35.3312L138.164 36.4167L139.3 36.2215L139.655 37.9513L141.288 37.5725L141.565 38.0411L142.584 38.1309L142.896 37.5999L144.376 37.3773L145.837 38.5644L147.734 37.5999L149.999 38.6659L151.108 40.4855L150.753 42.7034L150.042 43.5468L150.487 45.632L150.089 47.3618L152.041 49.1814L152.354 51.0909L155.239 54.5544L155.688 54.8434L157.414 53.0901L158.433 53.2229L159.234 53.6212L160.386 55.3393L161.319 55.5736L162.12 56.8153L163.283 56.4209L165.321 56.7216L166.001 56.4287L165.521 54.2615L166.868 55.1987L166.45 53.0315L169.062 53.0003L168.797 51.8406L171.35 52.3521L171.706 52.5317L171.663 54.3943L172.463 55.636L173.131 62.118L173.635 62.9341L174.642 62.1609L174.685 62.692L176.563 62.3718L178.192 62.8716L177.348 64.7342L175.907 65.3863L174.912 66.7451L173.787 69.1153L175.162 71.6456L175.853 71.587L176.442 70.8139L177.926 71.4816L177.008 76.0151L174.755 77.4208L174.107 79.5059L175.798 82.9343L175.08 83.1257L175.119 85.3709L174.572 85.5427L174.158 87.2257L175.919 87.1476L174.998 88.5103L174.408 88.5494L174.861 90.1191L173.084 94.0161L168.527 95.5194L170.882 100.295L172.647 99.4281L172.99 99.9162L172.647 100.334L172.674 101.822L173.221 102.552L172.686 103.27L172.905 103.758L171.35 105.422L173.221 104.586L173.463 105.086L172.393 106.324L172.643 107.921L173.732 108.171L176.567 105.277L176.966 109.764L178.629 107.87L181.667 106.535L182.788 113.017L181.456 114.54L175.13 116.137L174.131 117.003L172.135 116.937L171.335 116.605L169.605 113.146L166.388 110.65L166.145 109.553L167.875 107.558L168.609 105.359L168.078 104.563L167.211 104.297L165.614 101.966L163.217 102.298L162.217 100.9L161.553 98.7018L161.819 94.3089L159.421 92.1769V86.718L159.82 85.7184L159.355 83.7895L159.687 78.0651L159.156 74.336L159.289 71.341L160.355 68.5452L160.155 66.3468L159.089 64.4843L158.156 63.8204L156.048 63.8048L153.564 62.2195L148.57 61.3526L148.105 60.6888L148.172 59.49L148.769 58.6232L145.973 53.8984L144.044 53.4337L142.115 53.7656L141.983 52.766L141.319 52.6333L137.793 48.6387L134.197 47.7718L132.533 50.7668L131.869 51.0987H130.936L129.538 50.0991L128.874 48.502L131.471 46.7722L132.603 45.4407L133.002 43.5117L134.4 44.4449L136.532 43.047L136.399 41.981L135.598 41.3172L131.803 40.9189L130.671 38.7869L130.007 38.3886L127.246 38.4667L127.062 37.6858L127.949 37.2133L127.992 36.2371L127.414 35.4835L130.475 33.1328L131.53 33.289Z" fill="#CCCCCC" stroke="white" stroke-width="0.5"/>
<path d="M87.2754 17.646L88.6538 18.3098L95.7488 18.4113L97.8574 19.3719L98.8882 21.7265L98.4899 23.9756L96.5532 26.4317L96.5102 27.5875L97.5294 28.2513L99.9777 27.775L101.524 25.5883L103.168 24.3466L104.585 24.4793L105.163 25.0572L105.831 28.5169L107.561 29.6727L109.259 29.4072L113.441 25.967L115.187 26.8339L116.503 25.9202L117.038 26.0998L118.104 27.607V31.5587L116.948 33.8235L114.597 34.8426L114.995 37.3729L118.014 37.0176L119.302 34.62L120.853 33.9094L122.274 34.089L122.672 34.5341V36.4865L121.876 38.0367L122.215 41.469L124.539 43.1871L125.917 43.0856L127.869 44.2063L128.893 45.569L128.381 46.9357L123.516 50.2626L121.212 53.0818L114.64 52.7382L111.653 51.3754L110.118 51.5433L107.303 53.6792L102.438 52.2267L94.6711 52.1408H93.3044L92.0236 49.2395L93.8159 47.8728L94.2415 46.5101H96.2056L96.6313 44.8037L97.5723 44.2883L97.8261 41.5588L95.1826 37.3768L89.3762 31.6602L84.6827 31.2307L83.1481 27.6461L82.1953 27.1541L82.8045 26.8769L84.1711 26.1974H85.366L87.5878 23.7218L85.6237 21.8436L82.4647 20.4769L82.8904 18.9424L86.2797 16.2676L87.2754 17.646Z" fill="#CCCCCC" stroke="white" stroke-width="0.5"/>
<path d="M144.64 133.118L145.414 134.598L145.148 136.266H144.48L143.082 137.664L142.817 139.593L142.02 141.256L138.291 141.924L136.159 143.322L135.495 144.185L135.363 145.649L136.226 147.582L135.827 148.246L133.832 148.445L133.231 150.577L133.832 151.311L133.566 151.709H132.434L130.634 150.709L128.373 147.582L127.573 147.117L126.909 145.051L126.241 144.985L125.577 145.852L123.98 145.516L122.981 144.786L120.981 146.051L119.384 145.317L117.389 146.516L114.527 144.388L112.793 144.317L113.262 143.618L112.395 142.021L109.997 141.092L108.002 139.225L107.869 138.296L109.533 138.363L110.064 136.098L110.263 135.836L111.196 136.43L114.925 136.031L119.65 133.767L120.915 131.904L122.981 131.705L123.644 129.042L122.781 126.113L120.583 125.379L120.849 124.649L124.179 123.251L125.71 121.119L128.307 120.588L129.037 118.39L129.236 118.284L130.767 119.553L133.766 119.354L134.23 119.955L133.766 120.354L134.496 123.017L136.429 124.481L136.495 125.348L138.69 128.409H139.888L140.755 129.807L141.021 132.006L144.617 133.134L144.64 133.118Z" fill="#CCCCCC" stroke="white" stroke-width="0.5"/>
<path d="M220.972 194.997L222.104 196.712L224.767 198.375L228.028 198.64L228.762 199.773L228.961 201.835L230.757 204.767L231.69 204.9L232.557 206.497L233.518 206.665L234.552 205.365L235.751 205.763L237.415 207.36L239.613 206.962L240.011 207.961L239.414 208.891L233.42 212.553L232.623 212.155L226.43 212.221L224.166 211.222L221.971 212.686L221.104 215.216L219.773 215.615L217.446 213.951L216.512 211.487L215.083 209.871L213.849 205.033L212.518 203.568L210.921 202.768L210.561 203.236L211.385 205.033L210.655 206.829L208.941 207.051L207.524 205.962L205.954 206.27L205.86 208.492L206.528 211.956L204.329 213.553H201.467L198.933 211.96L198.406 210.757L198.66 209.578L198.273 207.828L195.876 206.895L194.306 206.923L193.611 206.298L192.814 202.37L191.483 201.237L190.55 201.304L187.402 197.711L187.203 195.907L190.546 193.9L188.671 191.897L192.416 188.957L194.689 189.824L197.828 187.086L201.303 187.02L202.576 185.415L204.646 184.946L205.313 182.873L206.051 182.74L209.125 184.279L212.33 183.943L212.865 185.079L212.198 187.153L209.991 189.089L210.593 190.827L212.131 191.296L216.544 191.428L220.972 194.997Z" fill="#CCCCCC" stroke="white" stroke-width="0.5"/>
<path d="M129.507 250.933L129.109 251.866L127.313 251.8H126.715L125.716 252.132L125.981 254.061L127.914 254.795L129.644 256.392L131.108 256.325L135.235 253.397L139.296 253.198L139.894 252.932V252.132L138.098 246.872L138.496 245.54L140.425 244.74L142.155 245.474L142.955 246.54L144.685 249.004L145.747 251.706L143.256 252.6L141.858 253.733L142.256 257.528L142.721 257.926L142.545 260.789L136.833 261.452L130.909 263.182L128.777 262.983L127.844 263.514L127.645 265.045L127.976 266.111L131.303 268.774L132.834 268.508L133.502 268.243L137.164 266.646L137.945 267.189L138.063 268.875L137.395 270.207L135.798 271.207L131.139 271.671L130.741 272.405L131.007 275.533L130.94 274.936L130.675 276.201L127.379 276.326L127.645 275.369L128.312 275.17L128.511 273.772L127.114 272.64L126.582 271.507V269.446L125.516 268.645L124.45 269.91L122.389 267.114L118.925 266.451L118.195 265.517L117.395 261.257L117.926 260.793L121.455 260.859L122.19 263.389L122.924 263.588L124.122 263.057L124.989 262.393L125.388 260.796L123.857 259.797H123.076L123.326 259.465L122.861 258.399L120.932 256.536L120.6 250.214L120.202 249.48L121.135 247.352L121.334 243.959L122.069 243.295L124.931 242.831L125.161 242.432H125.665L126.532 241.636L127.199 241.835L128 243.9L127.867 244.966L127.067 246.696L125.337 247.563V248.297L128.8 249.363L129.534 249.961V250.933H129.507ZM159.23 244.939L158.699 247.235L156.638 248.832L152.006 250.355L151.678 247.93L151.214 245.533L149.749 245.732L149.351 245.267L149.749 242.339L153.01 239.941L154.673 239.344L153.74 235.216L153.607 233.287L155.138 230.691L159.398 226.497L159.902 226.013L163.026 227.793L163.826 228.727L163.924 229.617L163.693 231.257L160.964 233.686L160.093 235.985L156.833 238.246L156.368 239.812L158.699 243.342L159.23 244.939Z" fill="#CCCCCC" stroke="white" stroke-width="0.5"/>
<path d="M140.263 90.6382L140.056 90.8959L138.791 93.4926L139.322 95.0232L139.654 97.5535L139.189 98.0182L135.327 98.8187L130.204 102.278L128.67 104.543L128.537 105.675L129.205 106.472V107.472L126.94 109.002L125.276 109.537L120.017 110.334L117.088 111.4L115.292 111.201L113.16 109.936L107.435 109.268L104.573 108.471L102.922 107.069L103.574 106.14L103.64 105.008L102.711 102.88L102.109 97.6863L103.574 95.4879L105.507 94.5586L106.104 94.625L107.104 95.8237L113.293 95.7573L116.491 97.2216L118.287 96.4875L118.486 94.9569L117.619 91.8291L119.618 90.029V85.3706L119.154 83.3089L118.83 82.9848L120.052 81.5088L120.649 81.4424L122.715 82.5748L124.046 82.6412L124.777 80.6459L126.639 79.6462L127.365 78.9707L131.102 79.3143L134.23 82.0438L134.281 81.9969L133.5 83.3753L132.567 83.9063L132.832 84.5038L134.164 85.1051L139.954 89.9627L140.263 90.6382Z" fill="#CCCCCC" stroke="white" stroke-width="0.5"/>
<path d="M95.4613 151.236L94.3406 150.639L93.958 149.354L92.0954 149.291L89.8462 147.558L88.1125 147.234L87.5971 145.371L86.5076 145.242L84.3873 142.353L81.4978 140.49L81.5603 138.756L78.9285 137.667L78.5419 133.813L76.5505 129.443L75.7187 128.932L75.3322 125.785L74.2388 124.691L73.4032 122.637L71.4157 123.278L70.1935 121.864L68.3309 121.353L67.2376 120.068L67.0462 118.717L65.5039 117.561L65.3672 115.769L67.96 115.347L70.4903 111.419L73.8874 110.419L75.75 108.889L78.6122 108.49L82.8059 108.756L83.4072 108.358L83.9383 107.292V104.429L84.4693 103.828L85.6017 103.629L87.1793 104.265L87.8665 106.093L91.9938 105.16L95.6526 107.69L97.32 106.093H98.5187L100.647 106.893L102.923 107.089L104.575 108.49L106.129 109.014L105.407 115.011L100.413 119.139L97.9525 123.801L95.9533 126.199L90.0961 129.326L89.6315 130.259L90.6272 133.321L89.7642 135.117L88.3663 136.581L88.6318 139.444L89.362 141.642L94.1571 145.301L95.0864 146.835L95.6214 147.765L95.4613 151.236Z" fill="#CCCCCC" stroke="white" stroke-width="0.5"/>
</svg>
