<svg width="406" height="302" viewBox="0 0 406 302" fill="none" xmlns="http://www.w3.org/2000/svg">
<path d="M215.4 272.033L215.39 272.73L214.051 273.285L213.572 274.384L211.699 274.885L209.316 271.946L207.705 270.673L206.257 270.411L204.482 271.543L203.013 270.564L203.394 270.956L202.915 270.607L200.466 271.315L198.637 274.831L197.897 275.625L196.329 276.246L194.25 276.311L192.977 275.429L191.943 275.81L189.755 273.699L188.176 274.221L180.023 273.623L177.519 274.199L176.736 275.081L175.103 275.832L173.318 275.713L171.946 274.678L172.066 274.929L171.086 275.059L169.715 273.982L168.082 273.884L167.483 274.515L166.362 274.395L165.948 274.896L165.35 274.221L164.827 274.515L162.835 273.601L159.221 274.635L155.901 273.818L154.824 274.711L152.527 275.048L148.216 275.168L146.235 274.755L145.604 275.332L145.647 274.907L142.73 279.272L142.077 279.936L139.987 280.687L139.007 282.668L135.916 283.506L132.683 282.712L130.93 282.734L128.144 284.453L125.923 284.769L123.724 286.064L123.06 286.032L121.808 287.48L120.97 289.918L118.956 292.792L118.281 295.524L117.519 295.48L116.888 294.686L115.713 294.805L115.059 296.068L115.56 298.659L114.559 299.41L113.916 299.268L110.324 300.999L109.247 299.464L107.984 298.789L106.906 299.018L105.252 298.006L104.686 298.365L102.813 295.916L101.137 294.501L97.6102 294.588L95.5855 290.821L94.4534 290.397L93.354 287.828L92.2655 286.837L90.1211 282.102L89.272 281.928L90.4041 281.373L90.0558 281.732L90.4367 281.841L90.5021 281.493L90.3714 281.95L90.9375 283.038L91.079 282.614L91.1661 282.886L91.9716 281.471L92.2219 280.469L91.9498 279.969L90.8613 280.023L89.8598 278.641L89.1958 278.837L89.5006 278.641L88.9563 278.39L89.0543 278.913L88.51 278.336L88.1073 278.728L87.0297 278.031L85.5819 274.199L88.1073 272.186L86.899 271.478L85.4948 268.082L83.0565 265.175L76.1225 260.571L73.0964 259.178L71.0391 257.556L71.6922 258.601L74.0979 260.571L70.8105 257.73L70.1029 257.643L70.5275 258.1L70.1574 258.078L67.2292 256.739L59.2067 257.36L58.129 258.22L57.0732 257.806L56.7466 255.999L56.2024 255.27L56.5507 254.399L55.9411 253.038L55.9738 250.088L55.2989 249.37L55.8431 249.022L55.1247 247.138L55.3097 246.496L54.6893 246.083L54.4607 245.168L53.8729 245.103L53.5137 243.96L53.9708 243.742L54.0797 242.055L55.5601 240.433L56.5616 236.362L57.378 236.112L60.1428 233.303L60.7198 231.213L61.4926 230.114L61.3946 228.046L63.0819 227.284L65.2263 227.273L65.346 226.304L66.0754 225.781L67.2727 226.696L68.8729 226.554L69.4933 223.517L70.5166 221.645L70.1029 221.416L70.1356 220.861L71.137 219.609L73.6625 220.742L75.1646 220.698L74.6857 223.18L75.8286 223.158L75.8613 223.626L76.5471 223.92L77.3308 223.583L79.4426 223.964L80.0521 223.67L80.8032 224.464L81.2713 225.03L81.4019 226.478L82.1203 226.26H82.4687L84.5804 227.077L84.9179 226.848L84.7437 226.184L85.5383 225.553L85.2662 225.205L86.3874 225.096L87.7372 225.444L88.042 226.696L88.8475 227.382L88.989 227.436L89.6639 228.122L91.1878 228.394L91.5906 228.84L92.7118 228.731L93.3214 229.537L95.2481 227.893L97.1857 227.392L100.092 227.49L100.625 225.553L101.398 224.769L100.778 223.974L100.865 223.343L102.215 222.331L102.302 221.471L103.075 220.861L104.609 220.752L105.143 220.339L105.894 220.524L106.743 219.914L107.973 220.491L108.017 221.286L107.734 220.894L107.396 221.079L107.679 221.667L106.329 222.527L106.536 224.04L107.374 224.29L109.475 222.189L111.021 222.429L111.228 221.732L112.349 221.253L112.186 220.415L112.567 219.697L112.676 219.642L112.719 217.465L111.304 214.983L111.783 213.59L110.977 212.817L111.01 212.218L112.109 210.411L112.893 209.911H113.938L114.08 209.127L116.093 207.766L115.974 207.483L116.398 206.754L116.91 207.037L116.67 206.493L117.345 205.371L119.196 205.556L119.098 205.001L119.664 204.305L120.72 203.76L121.678 202.563L121.95 202.846L122.113 202.16L122.353 202.574L122.461 202.193L122.821 202.487L122.81 201.91L123.321 201.845L123.365 201.757L122.864 200.299L125.422 200.691L126.946 199.853L128.024 200.321L128.252 201.17L129.961 201.638L132.008 201.551L132.563 204.218L137.026 205.752L137.157 206.482L138.267 206.667L139.551 207.636L140.4 209.018L140.64 208.713L141.206 208.909L141.424 209.453L141.946 209.257L144.548 212.316L149.435 214.493L149.969 214.352L149.697 213.122L150.099 212.371L154.062 213.154L160.451 213.568L162.204 213.35L162.933 212.665L163.14 211.805L163.869 211.587L164.414 211.413L165.654 211.837L165.948 211.456L169.345 212.61L170.139 212.197L170.313 210.564L170.727 210.488L171.652 210.825L171.881 212.044L173.666 212.458L174.972 212.131L176.398 210.847L176.355 210.107L176.474 209.769L177.9 209.312L178.064 209.388L179.381 210.194L183.517 210.89L185.618 209.443L187.512 212.044L187.763 210.433L188.579 209.747L190.386 209.758L191.072 210.379L191.66 209.508L192.345 209.138L192.574 209.421V209.051L193.728 208.496L193.847 208.027L194.065 208.212L194.381 207.374L197.189 208.757L199.138 208.082H199.41L200.346 208.931L200.226 211.805L202.882 212.48L202.817 216.05L204.112 216.649L204.287 217.432L203.742 219.261L203.96 220.437L200.792 224.279L201.609 224.758H201.99L204.7 226.195L207.117 226.413L208.325 227.262L209.686 229.689L212.07 231.54L213.496 231.093L214.66 232.117L215.313 231.736L216.522 232.291L217.001 231.866L217.534 232.095L217.719 232.084L217.937 232.367L217.316 233.227L216.914 235.72L217.316 237.516L216.805 238.517L217.131 240.302L217.327 240.509L221.768 247.694L222.835 248.477L222.792 247.802L225.023 248.205L228.245 250.731L226.787 251.493L225.829 253.278L223.118 256.217L221.66 262.019L220.136 264.969L220.277 266.46L219.961 266.917H218.971L218.187 268.289L217.501 268.43L217.12 268.942L217.24 270.455L216.075 271.01L215.4 272.033Z" fill="#CCCCCC" stroke="white" stroke-width="0.5"/>
<path d="M221.725 72.8976L222.03 73.4963L224.066 73.4636L225.622 74.9767L227.473 74.6392L230.325 76.6312L231.043 76.7728L231.609 76.5986L231.958 76.272L234.69 76.4353L235.517 75.4556L235.419 74.9222L236.714 72.5275L237.727 71.5151L237.553 70.3177L237.248 70.3504L236.334 70.3286L235.909 69.0006L234.951 68.206L235.158 66.0398L234.418 64.4723L235.18 62.3279L234.962 61.6095L237.019 59.1167L236.867 58.4636L236.148 58.1697L236.682 56.341L238.598 54.3054L238.238 52.3678L238.935 51.018L239.98 51.5949L240.601 51.3228H240.753L240.796 50.1581L242.081 49.2981L241.471 48.7974L242.124 48.8192L242.255 47.3388L245.586 47.3823L245.597 45.6189L246.011 45.2379L247.687 45.1182L249.058 43.5071L249.722 43.518L249.733 42.8214L250.789 42.7343L251.29 41.7655L250.931 41.2756L251.05 39.3598L252.139 38.4999L252.226 37.1283L253.249 36.3555L254.958 36.4317L254.708 37.3569L255.753 38.0645L256.297 37.825L256.907 38.7938L258.529 39.9694L258.572 40.9817L259.552 40.9709L259.585 41.9614L260.042 42.1356L260.292 41.526L260.76 41.5042L260.826 40.7967L261.49 40.1327L263.318 41.4498L264.254 40.9491L265.016 41.1994L266.105 39.7517L266.747 39.8714L267.117 39.2619L268.739 40.4157L269.185 40.3286L269.327 40.9055L270.829 41.7764L271.635 41.3301L273.246 44.4433L274.345 44.563L274.552 45.4665L275.923 45.8693L276.631 45.6951L276.816 45.2161L277.872 45.423L278.677 44.6828L279.744 44.846L281.181 44.3453L281.606 43.7793L284.077 44.6283L284.196 45.5318L285.1 46.3264L285.884 45.9346L286.014 45.0746L287.048 44.2909L288.899 45.6298L290.575 45.2597L291.707 45.5971L292.023 45.1399L293.775 45.4556L294.08 45.0311L295.974 45.608L296.094 45.891L296.334 46.0434L296.997 46.936L297.291 48.3947L299.12 48.8518L298.369 51.5188L298.641 51.9324L298.173 51.7256L297.781 52.2154L297.738 52.7815L298.315 53.0862L297.574 53.8047L297.204 53.5217L296.878 53.87L298.489 57.8976L297.814 58.6487L299.207 59.2147L298.326 59.8134L299.033 60.4121L297.204 65.7241L297.074 66.3772L297.574 66.7256L296.954 67.2481L297.215 68.587L296.268 71.4063L295.844 71.6675V73.3112L295.484 73.9861L295.354 73.5616L294.766 73.7575L294.385 74.8352L293.852 74.6066L293.122 75.7495L294.439 76.468L294.102 76.5442L294.004 77.7851L294.439 78.3402L293.656 78.6777L293.634 79.1349L292.915 79.1022L292.556 80.354L291.675 80.3323L290.771 81.1595L290.314 82.5638L288.278 82.8359L288.18 83.8482L287.843 83.5325L286.123 85.9382L286.08 86.6784L287.027 87.8214L286.798 89.0841L288.344 89.3453L289.117 88.9861L289.693 91.3156L288.213 93.3729L286.569 93.6015L286.939 94.9186L285.916 97.1066L287.484 98.7503L286.722 99.7191L287.342 100.187L287.222 100.753L287.865 101.776L287.636 103.42L287.212 103.366L287.157 103.877L285.916 103.943L285.132 106.522L283.913 106.816L283.728 107.578L282.749 107.295L282.378 107.731L282.389 109.287L282.945 109.385L283.271 110.441L282.901 110.942L283.304 110.746L283.293 111.236L283.696 111.007L284.664 111.791L284.131 111.998L284.784 113.315L284.73 113.62L285.1 113.859L283.913 115.84L283.946 116.058L283.521 117.223L284.654 119.65L283.358 120.967L283.206 121.729L281.649 122.208L281.595 122.731L281.17 122.393L281.442 123.014L280.767 123.58L279.614 123.264L277.611 124.646L277.262 124.527L276.914 123.427L276.903 123.308L276.315 123.123L275.728 123.155L274.541 123.253L273.202 122.622L272.146 121.686L272.124 121.011L270.59 121.065L269.566 122.742L269.392 124.668L267.291 125.866L266.627 125.115L265.18 125.659L265.463 127.694L266.812 128.097L267.727 127.825L267.52 131.537L268.228 132.146L268.358 133.017L266.529 133.758L266.148 134.345L267.923 136.468L268.086 137.328L266.355 138.318L265.55 139.657L264.864 139.625L264.537 140.071L265.049 141.247L263.765 142.03L261.805 142.629L260.292 141.715L259.258 146.123L258.355 146.548L257.81 147.44L258.202 148.703L257.723 148.562L256.232 149.715L254.088 149.65L253.293 151.653L251.693 152.295L251.638 154.353L252.857 155.985L250.648 157.292L249.396 156.345L249.722 155.659L249.352 154.592L249.614 153.765L249.135 152.796L248.786 153.101L247.143 152.176L244.672 152.263L244.073 152.676L243.365 152.524L243.126 152.927L242.614 152.567L241.929 150.989L244.345 149.998L244.704 149.487L244.519 148.736L242.44 147.059L239.556 146.918V145.808L238.674 145.263L238.195 144.12L238.01 143.652L237.977 143.304L237.389 143.805L237.4 145.742L236.91 145.96L236.377 146.428L235.702 146.102L235.169 146.319L234.842 146.123L233.449 145.927L233.765 143.859L232.72 144.305L231.685 143.609L230.738 144.099L226.352 139.451L225.47 140.713L225.209 139.766L225.481 139.146L226.145 139.091L225.426 138.264L225.252 138.166L223.804 136.337L223.01 136.022L223.042 135.608L223.282 135.26L223.543 135.499L224.73 133.409L226.265 132.549L225.992 130.721L226.254 129.153L226.831 128.543L229.051 129.686L230.597 128.358L230.074 127.673L230.891 124.864L230.172 122.861L230.76 122.045L230.836 120.673L230.314 119.324L229.824 119.226L228.409 117.375L228.779 115.503L228.507 114.871L227.571 114.044L227.233 113.511L223.032 109.157L221.508 108.645L220.114 107.317L219.744 107.426L218.296 105.913L215.532 106.838L214.726 105.858L212.799 105.379L211.939 101.265L212.538 99.5558L212.353 98.7503L213.496 98.0863L214.193 95.1581L216.109 95.8656L215.869 97.1066L216.304 97.5746L218.971 96.6712L219.004 96.1378L218.503 95.9963L218.558 94.5267L217.741 93.5579L218.166 91.2176L217.339 89.8569L217.393 89.0732L219.418 89.1058L220.223 87.7234L220.484 87.571L220.887 87.5492L221.355 86.6349L222.857 86.5478L222.759 85.6225L223.848 84.1312L222.857 83.6523L222.988 82.9774L221.497 81.5732L222.498 80.0819L222.542 79.0369L221.453 77.0122L221.399 74.5086L221.725 72.8976Z" fill="#CCCCCC" stroke="white" stroke-width="0.5"/>
<path d="M103.357 6.50781L103.716 7.19359L105.185 7.67254L104.935 8.24947L105.577 8.64134L105.904 9.59925L108.233 10.0673L107.776 10.4701L107.537 10.2088L107.678 10.8946L108.048 10.6007L107.7 11.1776L108.397 11.2647L108.647 10.9055L109.159 11.2212L109.997 10.5789L110.748 10.9926L112.979 10.7966L113.643 11.1341L116.245 10.6987L116.8 11.711L117.279 11.3409L119.576 11.5151L121.927 14.0187L124.648 13.5942L127.914 14.6609L130.505 14.4977L132.04 15.2814L133.085 15.1508L133.193 15.6624L133.847 15.4229L137.308 16.7074L139.572 17.2081L142.729 17.2625L142.762 17.7959L141.945 18.7756L142.587 20.5499L142.435 21.9323L141.662 22.3242L141.532 21.6058L139.964 21.0615L139.191 22.3678L136.339 22.7923L136.633 23.7067L136.111 25.6007L134.913 25.3939L133.944 25.8075L133.792 25.7313L133.128 25.8184L132.225 24.0332L130.973 23.6087L129.405 24.6646L128.458 26.1776L127.729 25.7313L126.14 25.8728L125.356 29.0514L124.224 29.0078L123.995 28.5506L122.243 29.4106L122.156 29.6065L118.738 29.9984L118.172 29.367L117.431 29.3453L116.974 29.6827L116.767 31.174L114.144 30.9563L113.73 32.317L109.54 31.7836L107.896 30.8474L106.786 31.4679L105.621 33.7103L105.708 34.3634L104.445 34.6355L103.368 34.6682L102.78 33.9606L101.952 33.9824L102.04 33.4382L101.256 33.4817L99.9713 32.3823L99.4597 30.5427L98.0882 30.9454L96.303 30.129L95.7914 31.9033L94.6158 32.3823L93.4401 31.272L92.319 31.2937L91.938 32.785L90.8386 32.502L90.2398 31.7292L89.9133 32.0993L88.988 31.9033L88.8683 31.3373L88.0628 30.793L87.6383 31.5114L86.9416 31.6421L87.0613 32.3496L86.5171 32.4694L86.1578 33.6667L85.7442 33.4926L85.483 33.9498L84.721 33.547L84.525 33.5579L84.6666 34.5702L85.7986 34.7117L85.7877 35.6479L84.5359 35.9091L84.1549 36.4643L83.5127 36.1377L82.5548 36.7364L80.5301 36.2575L78.266 36.3663L77.2319 36.584L76.1216 37.9991L75.7297 37.9556L75.7841 37.3024L74.2711 36.6711L73.7703 36.1704L73.9227 34.9077L72.8995 33.6776L71.7892 33.645L70.4068 31.7727L70.3523 33.3837L69.906 33.4055L69.1658 32.3932L69.6339 31.555L70.1129 31.8162L70.0802 30.7495L70.8857 29.7262L71.615 30.2161L72.2028 29.5303H72.8777L74.0969 28.2676L74.3037 27.4294L73.3132 26.2756L72.4532 26.4824L72.5077 26.8634L70.9075 27.8649L70.3632 27.7778L69.6666 26.5368L70.1238 25.6225L69.9605 24.9911L69.0679 24.817L68.7957 24.1965L68.4692 24.5557L67.2609 23.3366L66.9779 22.3678L67.2718 20.9091L66.0962 20.9744L65.2036 19.875L65.2689 18.2096L65.0076 17.6544L64.3654 18.0136L63.832 17.6871L63.9627 16.9469L63.9191 16.8053L63.93 15.7821L65.9873 15.891L66.401 14.748L67.4133 14.0405L68.0882 13.0064L67.7834 12.6036L68.1208 11.7219L68.8828 11.7872L68.1426 11.1885L68.2079 10.5789L69.8081 10.7204L70.4612 10.1217L70.6354 10.3503L70.6898 9.84961L72.3117 10.0673L72.6927 10.5354L73.422 10.002L74.6956 10.666L76.6223 10.1871L77.2536 10.9164L77.6673 10.3286L78.7123 10.4701L80.1383 9.96935L80.3777 10.383L80.824 10.2306L80.9329 10.6878L82.6092 10.6551L82.8705 11.0688L84.6666 10.9381L84.7537 10.0564L86.0055 10.7858L86.9851 10.4918L88.2043 10.862L91.1325 9.76253L91.4808 9.07675L92.1666 9.7081L92.5149 9.43597L92.6891 9.94758L93.1245 9.68633L93.1136 10.2959L93.93 10.1109L95.2689 10.6878L98.1317 9.338L98.8284 9.96935L99.9605 9.69722L100.516 9.08764L100.233 8.93524L101.191 8.56514V7.8576L102.203 7.83582L102.856 7.32421L102.889 6.55135L103.357 6.50781Z" fill="#CCCCCC" stroke="white" stroke-width="0.5"/>
<path d="M179.152 25.112L178.499 22.9131L179.685 22.358L180.197 22.641L179.609 23.784L179.642 24.9269L179.152 25.112ZM170.204 12.3652L170.226 12.8224L171.293 12.5285L171.63 13.2034L172.283 13.0837L172.708 13.9436L174.798 14.3246L175.004 15.1737L174.134 15.3587L174.95 16.469L175.472 16.1316L176.8 16.4581L178.063 16.1533L178.009 16.9371L178.651 16.5561L180.872 17.0786L181.884 18.4175L183.07 18.8529L182.951 20.9647L181.96 21.0953L181.416 21.694L180.959 20.6816L179.369 21.4436L178.901 21.0191L178.085 21.3348L177.813 21.0082L177.595 21.9226L176.3 22.2382L175.843 23.207L174.329 23.6207L174.569 24.3935L174.765 24.6983L175.266 27.7462L173.078 27.7571L170.661 26.9843L169.769 27.0822L169.518 26.342L168.386 25.8631L167.396 27.3761L167.374 27.5612L166.753 28.4755L165.316 29.096L164.957 29.9124H163.009L162.236 29.5314L162.41 31.5126L161.158 31.5017L160.374 32.5684L159.329 33.1236L158.252 35.8776L158.742 36.7811L160.015 36.6396L159.939 37.26L161.877 35.0176L162.965 36.0953L161.909 37.2818L160.592 36.7593L161.093 37.6737L160.189 37.6628L160.951 37.9893L160.505 38.588L160.462 38.8166L161.659 39.1758L161.909 37.7063L162.726 38.0982L163.357 39.8834L163.183 41.2767L161.964 41.7774L161.071 41.059L160.549 42.5285L159.95 42.2999L158.557 42.9095L158.426 42.4959H157.925L157.751 39.9922L157.294 40.4712L157.446 40.961L156.946 41.2114L157.087 41.6686L156.478 41.9734L156.565 42.6156L155.52 42.7898L154.997 41.6033L153.517 41.6795L152.526 40.8522L152.483 40.395L153.212 39.731L153.876 39.9378L154.181 38.9581L153.517 38.403L152.036 39.4697L151.307 38.9799L151.383 36.8246L150.948 36.5851L150.882 34.9632L147.671 34.2557L146.082 31.7847L144.232 30.6853L143.785 31.5779L142.523 31.2948L141.401 32.3943L140.008 31.7303L139.05 32.4922L137.733 32.1221L136.165 32.3398L136.013 30.9465L135.327 30.9247L135.316 30.1519L133.368 29.0634L132.813 28.1054L133.292 26.821L132.791 26.157L133.161 25.8195L133.825 25.7324L133.978 25.8086L134.946 25.395L136.144 25.6018L136.666 23.7078L136.372 22.7934L139.224 22.3689L139.997 21.0626L141.565 21.6069L141.695 22.3253L142.468 21.9335L142.62 20.551L141.978 18.7767L142.795 17.797L142.762 17.2636L143.981 17.4487L145.527 17.0677L146.594 17.3725L147.943 16.7738L148.422 17.4269L149.685 17.4705L152.798 16.9371L154.66 16.2186L155.552 15.424L156.358 15.62L156.586 15.141L156.956 15.6091L157.37 14.9668L158.981 15.4022L158.589 15.2607L159.602 14.0633L162.769 13.7259L163.553 13.0728L164.359 13.2034L164.293 13.7694L164.979 14.194L163.825 14.4552L162.845 15.2281L162.835 15.6635L163.542 15.9139L163.422 16.8391L163.695 16.2513L163.825 16.5452L164.511 16.1098L164.13 15.6635L164.533 15.62L164.685 14.9777L165.48 14.9015L164.75 14.5205L165.85 14.5641L166.22 13.9654L167.221 13.9001L168.484 12.953L169.409 13.0184L170.204 12.3652ZM154.692 40.2317L154.736 40.1773H154.758L155.15 40.3732L155.269 41.2223L154.899 41.4835L154.605 40.5909L154.692 40.2317ZM153.005 40.3623L153.168 40.5365L153.136 40.7216L152.809 40.8522L152.602 40.5692L152.559 40.4603L152.581 40.3623L152.689 40.3188L153.005 40.3623Z" fill="#CCCCCC" stroke="white" stroke-width="0.5"/>
<path d="M189.362 48.9385L189.721 49.3848L189.166 49.1671L189.362 48.9385ZM187.827 49.0909L187.621 49.1997L187.653 49.0147L187.729 48.8949L187.708 48.7534L187.697 48.7099L187.991 48.6772L187.969 48.8949L187.827 49.0909ZM192.682 41.8848L192.769 41.8303L195.491 41.5147L198.092 42.6576L199.29 42.4508L199.703 43.2454L200.607 42.7556L200.15 44.3122L199.714 44.8238L199.388 44.6714L199.126 45.4225L200.073 46.5546L201.684 45.9341L201.848 47.4472L200.933 47.7411L200.748 47.3166L198.343 47.3928L197.657 46.4022L196.318 46.3369L195.904 46.8158L194.446 46.6525L193.923 45.3681L192.758 44.9544L191.43 43.7135L192.323 42.0372L192.497 41.5256L192.606 41.7106L192.682 41.8848ZM152.777 40.3499L153.005 40.3717L153.103 40.4152L153.168 40.535L153.136 40.72L152.809 40.8507L152.602 40.5676L152.559 40.4588L152.581 40.3608L152.689 40.3173L152.777 40.3499ZM154.975 40.2846L155.16 40.3717L155.28 41.2208L154.91 41.482L154.616 40.5894L154.747 40.1758H154.769L154.975 40.2846ZM74.2933 36.6054L75.8063 37.2367L75.7519 37.8899L76.1438 37.9334L77.2541 36.5183L78.2882 36.3006L80.5523 36.1917L82.577 36.6707L83.5349 36.072L84.1771 36.3986L84.5581 35.8434L85.8099 35.5822L85.8208 34.646L84.6887 34.5045L84.5473 33.4922L84.7432 33.4813L85.5051 33.884L85.7664 33.4269L86.1801 33.601L86.5393 32.4036L87.0835 32.2839L86.9638 31.5764L87.6605 31.4457L88.085 30.7273L88.8905 31.2716L89.0102 31.8376L89.9355 32.0335L90.2621 31.6634L90.8608 32.4363L91.9602 32.7193L92.3411 31.228L93.4624 31.2063L94.638 32.3166L95.8136 31.8376L96.3252 30.0633L98.1104 30.8797L99.482 30.4769L99.9936 32.3166L101.278 33.416L102.062 33.3724L101.975 33.9167L102.802 33.8949L103.39 34.6025L104.467 34.5698L105.73 34.2977L105.643 33.6446L106.808 31.4022L107.918 30.7817L109.562 31.7179L113.753 32.2512L114.166 30.8906L116.79 31.1083L116.996 29.617L117.454 29.2795L118.194 29.3013L118.76 29.9327L122.178 29.5408L122.265 29.3449L124.017 28.4849L124.246 28.9421L125.378 28.9856L126.162 25.8071L127.751 25.6656L128.48 26.1119L129.428 24.5988L130.995 23.543L132.247 23.9675L133.15 25.7527L132.78 26.0901L133.281 26.7541L132.802 28.0386L133.357 28.9965L135.306 30.0851L135.316 30.8579L136.002 30.8797L136.155 32.273L137.722 32.0553L139.039 32.4254L139.997 31.6634L141.391 32.3274L142.512 31.228L143.774 31.511L144.221 30.6184L146.071 31.7179L147.66 34.1888L150.872 34.8964L150.937 36.5183L151.372 36.7578L151.296 38.9131L152.025 39.4029L153.506 38.3361L154.17 38.8913L153.865 39.871L153.201 39.6642L152.472 40.3282L152.515 40.7854L153.506 41.6126L154.986 41.5364L155.509 42.7229L156.554 42.5488L156.467 41.9065L157.076 41.6018L156.935 41.1446L157.436 40.8942L157.283 40.4044L157.74 39.9254L157.914 42.429H158.415L158.546 42.8427L159.939 42.2331L160.538 42.4617L161.06 40.9922L161.953 41.7106L163.172 41.2099L163.357 39.8057L162.726 38.0205L161.909 37.6286L161.659 39.0981L160.462 38.7389L160.505 38.5103L160.951 37.9116L160.189 37.5851L161.093 37.5959L160.592 36.6816L161.909 37.2041L162.965 36.0176L161.877 34.9399L159.939 37.1823L160.015 36.5618L158.742 36.7033L158.252 35.7999L159.33 33.0459L160.375 32.4907L161.093 31.424L162.345 31.4348L162.171 29.4537L162.943 29.8347H164.892L165.251 29.0183L166.688 28.3978L167.309 27.4835L167.33 27.2984L168.321 25.7854L169.453 26.2643L169.703 27.0045L170.596 26.9065L173.012 27.6794L175.2 27.6685L180.055 25.0669L180.981 26.1337L182.592 25.8942L183.299 26.3514L182.145 28.3325L182.994 28.9094L183.31 28.6917L183.528 29.1925L182.853 30.1286L183.343 30.4116L183.321 31.9356L182.287 32.2512L183.212 32.8499L185.683 33.0132L186.412 33.884L186.271 34.3195L188.1 35.6039L186.935 36.8122L184.79 37.1714L183.114 36.4203L183.179 35.7672L180.839 35.1467L179.043 37.879L181.133 40.1105L181.416 40.056L180.959 39.6097L181.851 38.3906L182.864 38.8913L184.007 37.4762L184.311 38.3144L182.831 41.0357L183.832 41.6562L183.147 42.9298L186.053 42.6141L186.249 43.6591L187 43.6047V43.7462L188.078 45.0851L189.558 44.9327L190.385 45.4987L190.538 46.4457L190.462 46.5219L190.777 47.2839L191.692 47.6975L190.951 48.3942L190.549 48.1221L190.135 48.4486L189.123 47.6649L188.034 47.8064L187.37 47.4254L186.967 47.9261L185.03 47.5778L185.716 49.6569L185.269 49.7658L184.42 51.0611L183.549 51.5292L183.832 51.8884L184.867 51.6816L185.346 52.0626L185.226 53.0967L184.66 53.7063L186.107 55.3826L185.618 56.2425L185.814 58.4087L185.063 57.3746L185.182 56.5909L184.518 56.5691L184.398 57.7883L185.008 57.7991L185.639 58.7897L184.268 59.1489L184.507 60.0742L184.682 60.2048L184.344 60.6946L184.856 63.3833L184.431 64.6787L183.691 65.31L186.521 69.7186L189.373 69.6315L190.015 71.5691V71.8848L190.962 72.7991L191.866 71.9501L193.172 71.6888L193.629 69.109L193.705 68.8369L194.228 68.2273L194.881 68.4777L195.36 68.1946L196.198 69.0437L196.122 69.8383L194.729 71.8739L195.055 72.7991L196.285 72.5597L197.178 73.2781L198.626 72.8971L199.91 73.3216L200.879 71.0793L201.848 70.3826L201.902 68.6083L202.729 68.8913L203.557 68.5539L204.057 67.7266L207.617 67.4L208.76 67.9443L209.174 69.6315L210.153 69.0764L213.332 69.2505L213.299 70.0016L212.352 70.5459L213.92 72.9733L213.528 73.3108L213.778 74.6605L216.684 75.3681L216.859 75.5423L217.664 76.326L218.208 76.2933L221.376 74.3993L221.42 76.892L222.519 78.9167L222.465 79.9726L221.474 81.453L222.954 82.8572L222.824 83.5321L223.814 84.011L222.726 85.5023L222.824 86.4276L221.332 86.5147L220.864 87.4399L220.462 87.4617L220.211 87.6141L219.406 88.9965L217.37 88.9639L217.316 89.7476L218.132 91.1083L217.719 93.4486L218.535 94.4283L218.48 95.8978L218.981 96.0393L218.949 96.5836L216.282 97.4762L215.846 97.0081L216.086 95.7672L214.159 95.0597L213.462 97.9878L212.319 98.6627L212.515 99.4573L211.917 101.166L212.777 105.292L214.703 105.771L215.509 106.751L215.182 108.057L215.661 109.45L215.389 109.809L213.125 107.85L211.862 109.178L210.316 108.645L209.413 109.755L208.531 109.624L207.617 110.169L206.626 109.036L204.798 110.136L204.406 109.559L203.295 109.363L202.882 107.904L202.087 107.73L201.848 106.62L201.249 106.119L200.139 107.001L199.518 106.587L199.975 105.466L198.724 105.216L199.562 104.682L199.671 103.692L198.495 104.029L198.005 103.104L196.155 102.658L195.893 101.798L194.598 101.83L194.119 102.571L192.9 102.451L191.507 101.787L191.387 100.089L190.266 99.6751L189.275 100.187L188.959 101.025L186.946 101.166L185.672 101.754L181.96 100.589L180.578 101.014L179.946 102.44L179.413 101.754L178.88 102.462L177.911 102.331L177.552 102.69L175.832 102.505L175.255 101.917L175.712 103.017L175.581 104.269L174.395 104.203L173.753 105.423L172.555 105.945L172.283 106.195L172.218 106.25L171.88 106.141H171.543L170.063 106.337L168.811 107.229L167.472 109.287L165.61 110.43L164.413 112.476L161.082 113.815L160.222 115.317L159.743 115.415L158.524 120.858L157.065 121.087L155.814 120.629L155.019 122.36L153.125 124.69L152.439 124.352L151.993 124.472L150.425 124.722L149.772 125.223L149.315 125.06L148.466 125.615L148.412 126.268L147.998 126.682L149.282 127.03L149.642 127.988L149.315 129.479L148.368 130.023L148.194 130.611L148.542 133.3L147.802 134.421L148.357 135.433L145.396 135.597L144.787 136.391L144.896 137.817L144.242 138.177L144.428 139.004L143.056 139.243L142.316 138.122L141.728 138.22L142.25 140.114L141.075 141.453L141.336 142.792L140.77 143.086L138.887 143.815L137.744 143.423L137.548 141.801L137.08 141.377L137.254 140.55L136.046 140.887L135.436 141.311L134.119 140.767L133.716 141.605L134.01 142.378L132.062 143.739L131.975 143.935L130.581 144.893L130.418 146.232L128.372 147.146L128.089 147.222L127.751 145.328L126.293 145.644L125.672 146.656L125.356 146.536L124.137 147.897L123.266 148.126L122.341 148.256L122.047 147.342L120.556 147.211L120.36 147.168L119.228 147.288L118.575 147.092L118.368 147.005L117.41 145.154L117.356 143.075L118.15 141.29L115.636 141.682L114.362 143.347L113.6 143.717H112.033L111.793 143.641L111.434 143.412L110.988 143.184L110.128 142.999L109.91 141.91L109.061 141.747L108.832 140.974L107.853 140.136L106.47 140.06L105.676 140.582L104.87 140.354L104.554 139.94L105.088 138.96L104.337 137.513L101.844 139.047L101.093 140.637L99.3949 140.092L99.0901 139.886L98.2846 139.309L98.143 139.113L98.2084 138.307L95.6176 137.665L96.2708 137.349L96.1619 136.827L96.5429 136.522L96.2055 136.359L96.7388 136.163L96.1619 135.76L96.0204 135.706L94.9101 135.183L95.2693 134.41L94.4202 134.639L94.0284 133.779L91.8731 132.647L88.3898 134.671L87.9761 135.096L87.7802 135.869L86.3324 136.021L85.6576 137.088L84.9391 137.044L82.5226 138.264L82.0219 139.102L82.196 140.234L81.3034 141.028L79.0284 141.257L78.2229 142.084L77.45 141.039L76.3071 142.182L75.4689 141.812H74.9464L74.8375 142.095L74.0102 141.899L73.0632 141.094L73.183 139.896L75.2403 138.634L75.556 137.317L73.9341 135.575L73.5966 134.04L75.1097 131.602L74.9573 130.11L73.7272 129.392L75.1532 125.843L74.1082 122.24L74.5327 120.183L74.2388 118.735L74.9899 118.594V118.028L74.7505 117.157L73.6075 116.417L73.2809 114.523L71.4304 112.487L71.1147 111.475L71.6046 111.116L73.2265 111.562L74.7505 111.181L76.2962 108.655L75.8934 107.425L77.9725 105.488L78.2011 104.421L79.4529 102.941L80.9007 103.06L81.1837 102.636L81.6844 103.267L83.2193 101.83L83.524 102.255L84.0792 102.113L84.4928 101.787L84.2207 101.221L85.4398 100.862L86.376 98.9893L87.4972 98.543L87.0291 98.1511L87.1162 97.5415L87.7584 97.2041L88.2483 97.781L89.2715 97.4544L88.8034 96.5183L89.8919 95.6148L89.6198 94.9617L93.0052 90.0742L92.6024 89.1707L91.7425 88.8115L89.8919 86.7215L85.5378 85.7092L85.1242 86.3514L83.8832 86.7868L82.4137 85.633L82.4573 84.1199L81.8803 83.3035L83.4369 78.3833L81.8041 77.7955L82.5443 75.9015L81.3143 74.5517L80.3673 75.5749L78.0378 75.8688L76.503 75.5096L75.8063 73.8224L74.9899 73.5938L74.0973 75.4552L70.7229 75.4225L70.2983 74.5081L69.5908 74.2904L69.4275 73.4414L70.2222 72.1678L69.8194 71.0684L68.8179 71.1663L68.1104 70.2193L68.9812 69.7948L69.4493 68.3035L70.5051 68.0096L70.7555 66.2897L72.04 65.6039L72.4863 64.6243L73.7272 64.1453L75.0988 64.9182L75.1641 64.3086L75.0117 63.982L76.7751 61.4022L76.9384 58.9203L75.9587 58.6155L75.5342 58.0168L74.3695 57.8318L73.7381 57.1243L73.7599 57.0372L74.4783 56.2099L74.2715 55.2084L74.7178 54.6424L74.2606 53.5974L73.3353 53.8587L71.1147 52.5089L70.2113 52.6395L69.7758 53.5974L67.9145 53.0858L67.3702 53.0422L66.7715 53.0096L67.2613 52.1497L67.0763 51.1917L67.9906 49.9617L67.577 49.461L67.6205 48.1438L68.8723 47.5343L67.7403 45.4552L68.7309 44.3122L69.8629 44.236L70.2439 43.0713L70.9732 43.6047L72.9979 41.7324L72.9435 41.1555L73.749 40.2955L72.889 38.2708L73.9776 37.9552L73.7816 36.9646L74.2933 36.6054Z" fill="#CCCCCC" stroke="white" stroke-width="0.5"/>
<path d="M149.806 125.288L150.459 124.787L152.026 124.537L152.473 124.417L153.158 124.755L152.745 125.604L153.137 127.291L151.112 128.053L150.622 128.097L150.132 127.955L149.893 127.095L149.327 127.106L148.042 126.758L148.456 126.344L150.295 126.235L149.806 125.288ZM171.587 106.206H171.925L172.262 106.315L172.327 106.261L172.599 106.01L173.797 105.488L174.439 104.269L175.626 104.334L175.756 103.082L175.299 101.983L175.876 102.57L177.596 102.755L177.955 102.396L178.924 102.527L179.457 101.819L179.991 102.505L180.622 101.079L182.004 100.655L185.716 101.819L186.99 101.232L189.004 101.09L189.319 100.252L190.31 99.7402L191.431 100.154L191.551 101.852L192.944 102.516L194.163 102.636L194.642 101.896L195.938 101.863L196.199 102.723L198.049 103.169L198.539 104.094L199.715 103.757L199.606 104.747L198.768 105.281L200.02 105.531L199.562 106.652L200.183 107.066L201.293 106.184L201.892 106.685L202.131 107.795L202.926 107.97L203.34 109.428L204.45 109.624L204.842 110.201L206.671 109.102L207.661 110.234L208.576 109.689L209.457 109.82L210.361 108.71L211.906 109.243L213.169 107.915L215.433 109.874L215.705 109.515L215.227 108.122L215.553 106.816L218.318 105.901L219.766 107.414L220.136 107.306L221.529 108.634L223.053 109.145L227.255 113.51L227.592 114.033L228.539 114.86L228.811 115.502L228.441 117.364L229.856 119.225L230.346 119.323L230.869 120.673L230.793 122.044L230.205 122.861L230.923 124.874L230.107 127.672L230.629 128.369L229.084 129.686L226.863 128.543L226.286 129.152L226.014 130.72L226.286 132.538L224.751 133.398L223.565 135.488L223.314 135.248L223.064 135.597L223.031 135.999L223.826 136.315L225.274 138.144L225.459 138.253L226.177 139.08L225.513 139.134L225.241 139.755L225.502 140.691L226.395 139.428L230.782 144.076L231.729 143.586L232.763 144.283L233.808 143.837L233.481 145.905L233.47 146.656L234.766 147.592L234.461 147.886L235.789 150.847L238.684 151.217L238.739 151.326L239.523 151.576L241.972 150.956L242.658 152.534L240.785 153.351L240.589 153.982L241.014 154.744L240.916 155.212L240.415 158.859L238.674 161.493L239.055 163.017L238.576 163.757L237.531 164.073L236.736 163.692L235.887 163.376L234.875 164.236L233.144 167.654L231.435 168.688L231.957 168.786L232.066 170.571L231.685 170.745L231.946 171.431L231.652 172.193L231.206 172.356L231.457 173.238L232.142 173.336L231.925 173.597H232.578L232.382 174.305H233.046L232.763 174.653L233.176 174.425L233.253 174.359L233.459 175.023L233.035 175.034L233.579 175.23L233.525 175.753L233.394 175.818L234.123 175.285L234.189 175.459L234.254 175.818L234.309 175.11L235.06 175.285L234.744 175.622L235.473 175.676V176.155L235.985 176.112L236.899 176.95L237.15 176.634L237.346 176.689L238.369 177.07H238.543L239.163 177.146L239.338 177.233L240.328 177.614L240.676 177.255L242.026 177.995L241.46 181.642L239.283 185.582L239.055 187.879L240.154 188.695L242.581 192.331L245.858 192.124L246.816 191.536L248.035 191.754L248.361 193.049L249.08 193.692L248.732 195.107L249.113 196.315L248.96 197.795L247.98 198.253L249.341 201.137L247.937 202.628L246.043 202.661L243.387 200.582L243.278 199.548L241.297 198.938L239.806 199.406L239.446 199.581L236.682 201.845L235.974 200.843L235.419 201.039L233.557 202.879L233.438 205.415L232.404 206.144L232.11 207.168L232.621 209.138L232.676 213.187L229.388 215.647L227.037 215.626L226.362 214.537L226.351 214.385L226.634 213.808L226.079 213.263L225.589 213.677L224.806 213.024L224.054 213.089L224.022 213.59L223.293 213.438L223.619 213.938L219.918 216.137L217.752 216.747L215.825 215.822L215.281 216.224L214.889 216.943L213.855 218.401L210.938 219.675L209.327 223.256L207.465 224.802L207.171 226.337L204.755 226.119L202.044 224.682H201.663L200.847 224.203L204.015 220.361L203.797 219.185L204.341 217.356L204.167 216.573L202.872 215.974L202.937 212.404L200.281 211.729L200.401 208.855L199.465 208.006H199.192L197.244 208.681L194.435 207.298L194.12 208.136L193.902 207.951L193.782 208.42L192.629 208.975V209.345L192.4 209.062L191.714 209.432L191.126 210.303L190.441 209.682L188.634 209.671L187.817 210.357L187.567 211.968L185.673 209.367L183.572 210.814L179.435 210.118L178.118 209.312L177.955 209.236L176.529 209.693L176.409 210.031L176.453 210.771L175.027 212.055L173.721 212.382L171.936 211.968L171.707 210.749L170.782 210.412L170.368 210.488L170.194 212.121L169.399 212.534L166.003 211.38L165.709 211.761L164.468 211.337L163.924 211.511L163.195 211.729L162.988 212.589L162.258 213.274L160.506 213.492L154.116 213.078L150.154 212.295L149.751 213.046L150.023 214.276L149.49 214.417L144.602 212.24L142.001 209.181L141.478 209.377L141.206 208.909L140.64 208.79L140.401 209.094L139.552 207.712L138.267 206.743L137.157 206.558L137.026 205.829L132.563 204.294L132.008 201.627L129.962 201.714L128.253 201.246L128.024 200.397L126.946 199.929L128.655 199.461L130.277 194.813L130.854 193.964L132.814 194.116L133.293 192.081L131.137 191.101L130.637 191.232L129.428 187.498L131.921 188.467L133.151 187.999L133.249 187.944L133.434 187.345L132.922 186.986L132.618 186.867L132.052 185.8L133.064 183.492H133.271L134 182.175L136.057 182.393L138.735 183.449L136.994 181.75L136.819 180.444L136.275 180.128L135.437 177.516L137.015 177.2L137.081 175.818L138.126 173.554L137.527 172.552L136.079 173.619L135.851 173.717L134.969 174.577L133.282 174.904L133.205 174.98L132.15 175.698L129.766 174.784L126.587 171.213L125.716 171.017L123.583 168.394L123.082 167.948L122.2 166.903L123.561 165.205L123.55 164.845L124.181 162.44L123.158 160.927L123.583 160.676L123.354 159.109L122.179 159.24L120.796 160.97L119.196 160.698L119.076 158.075L119.871 156.747L118.652 155.604L116.246 156.148L117.476 152.088L117.367 147.636L118.358 147.026L118.565 147.113L119.218 147.309L120.35 147.189L120.546 147.233L122.037 147.364L122.331 148.278L123.256 148.147L124.127 147.919L125.346 146.558L125.662 146.678L126.282 145.665L127.741 145.35L128.078 147.244L128.361 147.168L130.408 146.253L130.571 144.914L131.965 143.957L132.052 143.761L134 142.4L133.706 141.627L134.109 140.789L135.426 141.333L136.036 140.909L137.244 140.571L137.07 141.398L137.538 141.823L137.734 143.445L138.877 143.837L140.76 143.107L142.208 143.761L142.676 143.107L144.983 142.302L145.06 141.475L146.584 140.332L146.736 139.189L147.389 139.591L147.585 142.313L148.075 142.28L148.412 142.781L148.815 142.465L149.098 143.009L149.838 142.454L150.513 140.93L152.222 140.06L153.648 141.257L153.605 141.964L154.867 142.106L155.76 141.203L157.197 141.845L157.142 142.367L158.155 143.38L159.287 143.238L159.406 144.152L159.962 143.597L160.441 144.087H161.594L162.77 145.23L163.608 144.61L164.675 146.09L165.502 146.329L166.166 145.774L167.124 146.351L167.756 145.949L167.897 146.449L169.519 147.287L169.094 149.356L167.189 150.923L166.711 150.76L166.319 151.979L165.655 152.295L165.807 152.621L166.047 152.697L165.927 152.959L165.241 152.654L165.404 153.198L165.045 153.481L165.1 152.763L164.348 153.492L163.652 153.176L162.933 154.134L162.716 153.688L162.15 153.797L161.562 154.254L161.779 154.559L161.758 154.711L161.986 155.223L163.793 155.909L165.034 154.657L165.23 154.537L165.611 153.775L166.645 153.22L167.015 153.459L169.105 152.708L168.768 151.903L169.214 151.794L170.052 150.923L172.077 150.629L172.502 149.562L173.579 149.856L174.211 149.53L174.265 149.987L174.918 149.628L175.767 150.052L176.409 149.29L176.355 148.517L177.661 148.278L178.554 149.367L179.37 149.573L179.642 149.214L181.493 149.105L181.906 148.245H181.983L182.538 147.897L182.723 148.909L183.898 149.029L184.943 148.637L185.901 147.331L184.65 145.959L184.846 145.132L185.444 145.361L184.933 144.142L185.15 142.672L184.541 140.778L184.149 140.353L183.017 141.192L182.364 142.335L181.689 141.823L182.124 139.352L183.3 137.861L182.962 137.175L183.615 135.749L182.886 134.421L181.613 134.312L181.536 131.515L180.6 130.535L179.621 130.633L179.446 130.709L178.706 130.665L179.076 129.337L177.694 128.347L177.966 127.716L177.487 127.204L177.89 126.986L177.933 126.551L178.107 126.159L177.411 126.758L176.692 126.398L176.486 125.158L175.865 124.624L175.517 125.473L174.994 125.027L174.45 125.266L174.417 125.147L173.721 124.7L174.679 123.155L174.2 122.839L174.309 121.827V121.707L173.786 120.999L172.404 120.836L173.666 118.713L173.492 117.843L174.439 117.233L173.873 116.232L174.385 116.221L175.19 113.075L175.778 112.541L174.494 110.941L174.885 109.406L173.002 108.949L172.382 107.327L171.5 106.805L171.587 106.206Z" fill="#CCCCCC" stroke="white" stroke-width="0.5"/>
<path d="M335.758 55.1979L334.103 54.9366L335.061 53.5215L335.213 54.6427L335.758 55.1979ZM368.947 67.7922L369.393 68.6086L370.493 68.7719L370.275 69.0114L371.549 70.47L371.102 71.4061L371.113 72.9519L370.819 72.9083L371.505 74.2581L372.126 74.4214L372.213 75.1942L371.755 75.5099L371.516 77.121L370.743 77.6652L370.591 78.449L369.829 78.6776L369.252 79.494L368.37 79.3633L366.65 81.9976L364.647 82.8575L363.406 84.5121L359.901 85.6006L359.129 86.1884L358.715 87.2008L351.498 90.3031L347.1 93.2095L343.878 94.5702L341.658 97.4874L340.83 99.5121L341.244 97.7705L340.645 99.0876L340.166 99.142L340.123 99.4468L340.623 99.2944L339.84 100.677L338.925 101.406L336.171 102.277L333.581 102.408L331.741 103.387L330.184 103.409L328.04 104.095L327.626 104.606L327.811 104.215L321.171 105.662L317.775 107.502L314.901 107.698L313.323 108.699L313.051 108.786L313.29 108.384L312.234 108.776L311.146 110.528L309.818 109.744L307.554 110.147L305.638 111.072L301.926 114.752L299.869 117.897L298.682 118.681L298.377 119.585L297.169 120.325L298.073 121.707L299.597 121.762L298.421 120.88L299.248 120.836L301.099 123.122L303.047 123.612L301.556 125.202L298.911 126.595L296.472 129.719L295.003 129.948L294.23 129.022L294.72 129.294L294.676 128.674L295.852 129.458L296.211 129.207L295.656 128.837L297.572 128.543L298.508 126.856L296.984 126.638L296.07 127.226L294.241 127.4L294.339 127.847L293.991 127.618L292.38 129.512L291.65 131.254L289.408 130.296L289.549 129.109L288.33 128.162L286.48 127.934L284.749 127.128L284.303 126.519L284.901 124.744L284.684 124.657L284.597 124.559L284.303 124.265L283.617 124.352H283.454L283.116 123.122L282.278 123.449L281.462 123.068L281.189 122.437L281.614 122.774L281.668 122.252L283.214 121.784L283.377 121.022L284.673 119.704L283.541 117.277L283.965 116.101L283.933 115.884L285.119 113.903L284.76 113.663L284.803 113.369L284.15 112.052L284.695 111.845L283.726 111.061L283.312 111.279L283.323 110.789L282.92 110.996L283.279 110.485L282.953 109.44L282.398 109.331V107.774L282.768 107.339L283.748 107.622L283.933 106.86L285.152 106.566L285.935 103.986L287.176 103.921L287.242 103.409L287.666 103.463L287.895 101.82L287.253 100.797L287.372 100.231L286.752 99.7625L287.514 98.7828L285.935 97.15L286.97 94.962L286.599 93.6558L288.232 93.4163L289.713 91.3699L289.136 89.0295L288.352 89.3887L286.806 89.1275L287.035 87.8648L286.088 86.7218L286.131 85.9816L287.851 83.576L288.178 83.9025L288.276 82.8902L290.311 82.6181L290.769 81.2247L291.672 80.3866L292.565 80.4192L292.924 79.1674L293.642 79.2001L293.664 78.7429L294.448 78.4054L294.023 77.8394L294.121 76.5985L294.459 76.5223L293.142 75.8038L293.871 74.6609L294.404 74.8786L294.785 73.8009L295.373 73.605L295.515 74.0295L295.874 73.3546V71.7109L296.287 71.4497L297.234 68.6304L296.973 67.3024L297.594 66.7799L297.093 66.4315L297.224 65.7784L299.052 60.4555L298.356 59.8568L299.237 59.2581L297.844 58.6921L298.519 57.941L296.908 53.9134L297.224 53.5651L297.594 53.8481L298.345 53.1297L297.768 52.8249L297.811 52.2479L298.203 51.7581L298.671 51.9649L298.388 51.5513L299.15 48.8844L297.322 48.4272L297.028 46.9685L296.364 46.076L296.135 45.9236L296.015 45.6514H296.44L296.625 44.9548L296.07 43.3111L295.449 43.0934L296.179 42.277L295.536 41.9722L296.287 41.0905L295.939 39.7516L297.42 38.8154L299.422 39.8169L300.195 39.6754L301.763 40.187L303.842 41.6892L304.854 41.0252L305.551 41.798L307.39 42.0266L308.37 41.7218L309.84 43.0825L309.981 44.1384L311.037 44.933L312.855 44.1601L313.53 44.6717L316.578 44.4976L316.414 45.1398L317.492 45.695L317.514 46.5114L318.265 47.0774L318.439 48.2639L319.158 49.1456L318.679 49.9838L319.19 50.6043L318.308 51.8016L319.375 51.6601L319.909 52.8357L318.472 53.9243L319.114 54.2617L319.332 55.7748L322.358 55.9816L322.706 55.0019L323.229 55.3285L323.795 54.5992L325.536 54.6101L325.95 53.1297L326.919 53.6739L327.55 53.2167L328.704 53.8045L329.858 53.6413L330.914 54.0005L332.155 55.3176L333.744 55.1652L333.875 56.0796L334.408 56.3953L334.615 57.9954L336.182 59.3561L338.229 58.79L338.457 58.1805L339.154 57.9192L339.404 56.8851L340.308 56.3408L341.668 56.6565L343.312 55.7639L344.401 56.3844L345.086 56.2429L346.142 57.081L348.526 57.5491L348.57 58.2566L349.974 59.6717L351.726 59.9439L352.107 59.1384L352.782 58.9533L355.602 59.6609L355.678 58.9207L355.025 57.7777L355.558 57.7995L355.634 57.1355L356.93 56.4715L358.083 56.2646L358.758 56.8089L360.206 55.7204L360.576 54.9366L361.164 55.1217L361.534 54.5992L362.884 55.0346L363.755 54.0005L364.343 54.6645L366.498 54.3488L367.869 56.2646L368.882 55.7857L370.493 55.8945L370.014 56.1667L370.308 56.613L369.785 57.5709L370.188 57.7015L369.851 58.0607L370.079 58.8553L370.787 59.2037L371.004 59.8459L372.006 59.2254L372.692 60.0636L373.181 59.6609L373.758 60.2487L374.825 60.4773L373.78 61.1086L374.15 61.8597L373.486 61.7835L373.802 62.6108L373.541 63.1006L372.79 63.1115L373.073 63.7211L372.028 63.1877L371.745 63.9606L370.613 63.3945L370.297 62.6434L369.328 63.3075L368.653 65.0056L368.947 67.7922Z" fill="#CCCCCC" stroke="white" stroke-width="0.5"/>
<path d="M73.0399 141.106L73.9869 141.922L74.8142 142.107L74.923 141.835L75.4564 141.824L76.2946 142.194L77.4376 141.051L78.2104 142.096L79.005 141.258L81.291 141.029L82.1836 140.235L82.0094 139.103L82.521 138.264L84.9267 137.045L85.656 137.089L86.3309 136.022L87.7786 135.87L87.9746 135.097L88.3882 134.672L91.8607 132.637L94.0159 133.769L94.4078 134.64L95.2569 134.411L94.8976 135.184L96.008 135.706L96.1386 135.761L96.7264 136.164L96.1821 136.36L96.5304 136.534L96.1386 136.838L96.2583 137.361L95.6052 137.666L98.1959 138.319L98.1306 139.124L98.2612 139.32L99.0667 139.897L99.3715 140.104L101.07 140.648L101.821 139.07L104.324 137.535L105.075 138.983L104.542 139.963L104.858 140.376L105.652 140.605L106.447 140.082L107.829 140.158L108.809 140.997L109.038 141.77L109.887 141.933L110.104 143.021L110.964 143.206L111.411 143.435L111.77 143.664L111.999 143.74L113.577 143.729L114.339 143.359L115.612 141.693L118.127 141.301L117.332 143.087L117.387 145.166L118.345 147.016L117.354 147.626L117.474 152.078L116.244 156.127L118.649 155.583L119.88 156.715L119.085 158.054L119.205 160.677L120.805 160.949L122.187 159.219L123.352 159.088L123.581 160.645L123.156 160.895L124.179 162.408L123.548 164.814L123.559 165.184L122.198 166.882L123.08 167.927L123.581 168.373L125.714 170.997L126.574 171.193L129.753 174.763L132.147 175.677L133.203 174.97L133.268 174.894L134.967 174.567L135.837 173.707L136.077 173.609L137.514 172.542L138.123 173.544L137.078 175.808L137.013 177.19L135.435 177.517L136.273 180.119L136.817 180.434L136.991 181.751L138.733 183.45L136.055 182.394L133.998 182.176L133.258 183.482H133.062L132.049 185.79L132.615 186.868L132.92 186.987L133.432 187.346L133.247 187.945L133.149 188L131.919 188.468L129.426 187.499L130.623 191.222L131.124 191.091L133.279 192.071L132.8 194.106L130.841 193.965L130.275 194.803L128.653 199.451L126.944 199.919L125.42 200.757L122.862 200.365L123.374 201.824L123.33 201.911L122.819 201.976L122.829 202.553L122.47 202.259L122.35 202.64L122.111 202.227L121.948 202.913L121.686 202.629L120.729 203.838L119.673 204.371L119.107 205.068L119.205 205.623L117.354 205.427L116.69 206.548L116.93 207.092L116.418 206.809L115.993 207.539L116.113 207.822L114.099 209.182L113.958 209.966H112.913L112.129 210.467L111.03 212.263L110.997 212.873L111.803 213.645L111.324 215.039L112.739 217.51L112.695 219.687L112.586 219.752L112.205 220.46L112.369 221.298L111.247 221.777L111.041 222.473L109.506 222.223L107.394 224.335L106.556 224.084L106.349 222.571L107.699 221.711L107.405 221.124L107.742 220.95L108.025 221.341L107.982 220.547L106.752 219.97L105.892 220.579L105.141 220.394L104.607 220.808L103.073 220.917L102.3 221.526L102.213 222.386L100.863 223.399L100.776 224.03L101.396 224.814L100.623 225.608L100.09 227.546L97.1945 227.448L95.2569 227.949L93.3193 229.592L92.7097 228.787L91.5885 228.896L91.1966 228.45L89.6727 228.177L88.9978 227.492L88.8454 227.437L88.0508 226.751L87.746 225.5L86.3962 225.151L85.2859 225.26L85.5471 225.598L84.7525 226.24L84.9267 226.893L84.5784 227.121L82.4666 226.305H82.1183L81.3998 226.523L81.2692 225.064L80.8011 224.498L80.05 223.703L79.4405 223.997L77.3287 223.627L76.5341 223.954L75.8592 223.66L75.8265 223.192L74.6836 223.203L75.1516 220.721L73.6604 220.764L71.135 219.632L70.9717 219.11L70.3621 219.175L69.894 219.687L69.6328 219.415L68.6857 219.676L68.185 220.438L67.0638 220.329L66.574 220.884L64.9847 218.707L64.5166 216.922L64.0159 216.78L61.0225 212.568L60.8048 211.523L59.7271 210.783L59.1828 210.924L60.2932 209.498L59.5203 209.378L60.0863 206.951L61.8498 203.925L61.0225 203.37L61.3817 200.148L62.8621 199.309L65.246 196.751L66.2365 196.621L67.1727 195.238L68.0109 194.846L68.1959 194.259L67.6625 193.181L70.5036 188.74L70.2314 187.629L69.4368 186.127L68.1197 185.256L65.91 185.92L65.0065 185.583L64.7344 185.071L65.1154 183.221L62.6988 182.35L61.9368 181.599L61.6973 180.119L62.1763 179.084L59.9666 176.918L59.4876 175.198L60.1843 173.881L60.3258 172.118L58.7692 171.062L58.2794 171.301L57.8004 170.953L57.5174 169.44L56.3635 169.266L55.2641 167.633L54.328 167.187L53.5116 164.629L53.0762 164.324L55.5689 164.411L59.1502 165.227L61.6429 164.226L64.7017 164.748L65.3766 164.357L67.1074 164.563L68.6313 164.063L69.8178 160.166L69.5457 158.642L70.5036 158.196L71.7989 156.682L71.886 154.353L72.3759 153.928L72.5174 152.209L73.1378 150.979L70.8846 147.245L69.0994 146.886L68.1959 144.251L68.7511 142.706L70.1008 142.281L70.4818 141.508L71.7336 141.639L73.0399 141.106Z" fill="#CCCCCC" stroke="white" stroke-width="0.5"/>
<path d="M12.5511 64.9187L13.0953 65.561L12.4095 65.3759L12.5511 64.9187ZM12.2898 63.2206L12.9103 64.1132L12.4204 64.7446L12.6817 64.233L12.2898 63.2206ZM12.1918 57.5167L11.4734 59.1277L11.4516 58.0719L11.8435 57.3861L12.1918 57.5167ZM9.42697 53.9463L9.8515 54.5015L9.54671 54.7736L9.42697 53.9463ZM13.5525 50.3868L13.694 50.7678L14.0968 50.6589L14.2274 51.4645L13.7593 51.5515L13.8791 52.2809L13.5852 52.3244L13.3566 51.9652L13.6723 52.0414L13.411 51.693L13.7267 51.0182L13.0518 50.5936L13.5525 50.3868ZM41.6367 3.0791L42.3225 1.90348L42.6926 2.15385L43.3784 1.70755L43.6505 2.12119L43.2913 3.29681L43.9117 4.32003L43.1824 3.84107L43.1389 5.20174L42.7361 5.33237L43.3022 5.83309L42.3116 5.87663L43.0518 6.30116L43.9226 5.73512L43.4437 4.73367L44.4124 4.54862L44.6846 5.11466L45.2071 4.92961L44.5322 4.32003L45.0765 4.05878L45.0221 3.67779L47.6563 2.67634L48.7339 1.60958L48.6795 1L49.4633 1.68578L48.3312 3.25327L48.919 3.49274L49.1694 2.81785L50.247 2.5566L50.4974 3.8193L51.1396 3.99347L50.9219 5.56096L51.292 6.46444L51.4771 5.38679L52.0322 5.00581L51.7927 4.24383L52.5873 4.30914L52.6309 3.48186L53.6106 3.22061L53.9045 3.76488L55.2651 3.73222L55.0039 4.38534L58.5743 5.88752L59.1512 7.49855L60.3922 8.83745L60.0003 9.19666L60.5228 9.03338L61.8181 9.79536L61.5024 10.4049L61.0888 10.3614L61.6549 10.6009L61.3827 10.8404L62.0794 10.0784L64.2673 10.7206L65.7695 10.3941L67.8159 10.6335L68.001 11.439L67.522 12.1357L67.4241 14.0515L66.4118 14.7591L65.9981 15.902L63.9408 15.7932L63.919 16.8055L63.9734 16.947L63.8428 17.6872L64.3762 18.0138L65.0075 17.6546L65.2797 18.1444L65.2144 19.8099L66.107 20.9093L67.2826 20.844L66.9887 22.3026L67.2717 23.2714L68.48 24.4906L68.8065 24.1314L69.0786 24.7518L69.9712 24.926L70.1345 25.5573L69.6774 26.4717L70.374 27.7126L70.9183 27.7997L72.5184 26.7983L72.464 26.4173L73.3239 26.2105L74.3145 27.3643L74.1077 28.2025L72.8885 29.4652H72.2136L71.6258 30.151L70.8965 29.6611L70.091 30.6843L70.1236 31.7511L69.6447 31.4898L69.1766 32.328L69.9168 33.3404L70.3631 33.3186L70.4175 31.7076L71.8 33.5798L72.9103 33.6125L73.9335 34.8425L73.7811 36.1052L74.2818 36.606L73.7811 36.9434L73.977 37.934L72.8885 38.2496L73.7485 40.2743L72.943 41.1343L72.9974 41.7112L70.9727 43.5835L70.2434 43.0501L69.8624 44.2148L68.7303 44.291L67.7398 45.434L68.8718 47.5131L67.62 48.1227L67.5765 49.4398L67.9901 49.9405L67.0757 51.1705L67.2608 52.1285L66.771 52.9884L67.3697 53.0211L67.9139 53.0646L69.7753 53.5762L70.2107 52.6183L71.1142 52.4877L73.3348 53.8375L74.2601 53.5762L74.7173 54.6212L74.271 55.1872L74.4778 56.1887L73.7594 57.016L73.7376 57.1031L74.3689 57.8106L75.5337 57.9957L75.9582 58.5944L76.9379 58.8991L76.7746 61.381L75.0112 63.9608L75.1635 64.2874L75.0982 64.897L73.7267 64.1241L72.4858 64.6031L72.0395 65.5827L70.755 66.2685L70.5046 67.9884L69.4487 68.2823L68.9807 69.7736L68.1099 70.1981L68.8174 71.1452L69.8189 71.0472L70.2216 72.1466L69.427 73.4202L69.5902 74.2692L68.8283 75.1836L67.0104 75.238L66.4444 74.2584L65.53 73.7467L63.7666 73.9862L63.4509 75.5102L63.8319 76.4354L63.2115 77.9485L59.7608 79.3962L58.5307 79.4833L58.2368 79.0697L56.5278 80.7678L55.7659 78.6887L54.4814 78.3186L53.4582 79.5269L50.9437 79.9514L51.2702 78.4492L51.771 77.992L49.5612 77.8396L48.3094 76.8817L47.2209 77.4695L46.6004 77.2301L45.6752 77.8396L44.3363 77.992L43.0518 79.1241L42.6817 78.6996L42.8559 76.3048L42.3334 76.1089L41.7782 78.0356L40.1019 78.2424L39.0351 79.897L37.8051 80.463L35.6715 80.7678L34.5721 80.3868L34.398 78.1553L33.4727 78.2751L33.0264 76.7838L34.6265 73.9753L35.6062 73.0283L36.8254 72.6256L36.9451 71.3411L36.0743 70.0675L34.017 70.5247L33.5707 67.0958L32.8087 67.9231L32.1229 67.6836L31.7963 68.3585L30.0003 69.1096L29.5975 69.8716L28.6505 69.643L28.1062 70.1872L26.8653 70.3614L26.2993 69.9586L24.0133 70.0566L23.8609 70.7097L23.2731 71.0363L20.7151 71.254L19.9858 72.0378L19.7354 73.1372L17.3515 74.6285L17.0358 75.7932L15.12 76.7076L13.6505 78.5581L13.3457 78.0247L13.1062 74.193L13.4763 73.1045L12.747 68.696L13.3784 68.7177L14.2274 68.0211L14.7173 68.6524L15.022 68.5L15.1744 67.553L14.2601 66.8999L15.0765 66.889L15.2942 65.6589L16.3936 64.9514L16.8617 63.8846L17.5148 63.852L17.1229 63.9391L17.4821 64.135L19.866 61.8055L21.3246 61.7076L20.8783 60.8367L21.3464 59.4761L20.7151 59.0842L20.5953 60.1618L19.8878 60.619L19.9313 61.5661L18.3638 62.1756L18.2006 61.6531L17.7978 61.7293L17.6127 62.3389L16.7964 62.8723L16.263 62.6655L15.98 63.3295L15.3595 62.8179L14.8479 63.1335L14.1077 62.7417L13.8791 63.3295L13.5961 63.1989L14.1077 60.8476L14.8479 62.0777L15.2724 62.0668L15.1853 60.7061L14.641 59.7047H15.686L16.1541 60.1401L17.1011 59.6611L17.972 57.8759L20.1381 56.1887L19.2455 56.4608L18.9843 55.7097L16.5242 57.7888L15.3377 57.2663L14.6193 57.9303L13.3675 56.7003L13.6287 55.8839L13.2259 55.0131L12.4422 54.8063L12.0177 55.2634L11.5061 54.7518L11.6911 54.0987L13.1171 54.0443L13.0518 53.5436L13.6505 53.2388L14.1186 54.3926L13.6287 54.828L13.7158 55.3832L14.5322 54.7954L15.2506 55.3288L14.8261 54.0116L15.5119 53.5436L15.1418 53.0319L15.403 52.1285L14.935 52.5312L14.6302 51.2794L15.2289 50.9311L14.7826 50.8331L14.8914 50.2888L15.9146 50.1256L16.7855 49.2547L16.4154 48.7213L17.1011 47.4042L16.6766 47.1756L15.6534 47.8396L15.1309 47.4695L15.403 46.6749L14.5757 45.815L14.5866 46.86L14.2492 46.6858L13.9444 47.4478L14.6302 48.0138L14.0206 48.2642L14.0532 49.0588L13.1498 48.8955L13.5525 48.0138L12.7688 47.7634L11.6694 49.0153L12.1918 49.8643L11.2557 49.9405L10.94 50.5392L10.1781 50.7025L10.1454 51.9216L8.54526 52.6401L8.82828 51.0182L8.17515 50.278L7.64178 50.6698L7.14105 50.2671L8.61057 47.9158L9.15484 44.8897H9.56849L10.276 43.6488L11.2013 43.442L12.1701 41.8418L12.6164 41.6568L13.3348 42.4405L12.9212 41.6676L13.03 40.7424L14.0423 40.1872L13.5852 40.1546L13.3022 40.6553L12.7797 39.9151L12.6708 41.2213L12.181 41.4282L11.985 41.0472L11.1033 42.1575L10.5482 41.5806L10.5155 42.1793L9.51406 42.0595L9.4052 41.2105L8.74119 41.8309L8.07719 41.7874L8.52349 42.5602L7.30434 43.7903L6.98865 43.1589L6.45528 43.1916L5.93277 41.6676L5.45381 41.4064L6.72741 40.4049L6.61855 39.6212L5.99808 39.5232L5.41028 38.3585L6.05251 36.9543L5.07284 36.7801L4.06049 34.9405L4.38705 36.606L3.59243 36.5515L3.24409 35.5718L2.84134 35.5936L2.81956 36.1705L1.89432 36.5624L1.78546 38.0319L1.42624 37.6401L1.55688 36.8563L0.871094 36.3882L1.00171 35.6589L1.87254 34.32V33.1009L2.2753 33.2968L2.47124 32.9485L1.61129 32.709L0.969058 30.8585L1.65484 31.2939L2.17733 31.0435L2.20999 29.3999L3.26587 29.574L3.3203 28.4746L4.38705 29.4869L5.04018 28.1698L6.17225 27.7344L4.97487 27.9848L4.9531 26.9833L4.40883 28.1372L3.79925 27.9303L3.49447 26.6023L3.94075 26.8853L4.49591 26.4173L4.67008 25.3614L5.21435 25.7315L5.42116 25.1981L5.86746 25.4049L6.01986 25.111L7.47849 25.7859L8.63235 25.307L9.50316 23.6959L9.96034 24.3599L10.4502 23.8592L11.4952 23.9245L11.4299 24.4361L11.985 24.164L12.3225 23.3476H12.8014L12.3116 23.2496L11.5278 24.2076L11.7238 23.6851L11.2884 22.4877L10.5699 22.5312L10.1236 21.9761L11.136 21.2032L11.985 21.693L12.0721 21.2141L12.5946 21.2467L12.5075 20.082L13.5743 20.463L13.6831 20.0494L14.4342 20.18L14.6084 19.135L16.2194 20.8004L18.5489 21.3338L21.4879 20.0494L23.001 20.5174L23.665 20.3215L24.3726 19.8316L24.808 18.5581L25.3522 18.8084L25.9727 18.5036L26.5714 17.5675L27.3987 18.1118L27.6164 17.2954L28.1389 18.188L27.5511 18.3948L28.1171 18.754L28.1933 19.6792L28.1062 19.2438L29.1403 19.037L29.4778 17.7634L28.977 17.6546L29.1294 17.0232L30.403 16.6422L30.7623 17.4913L31.6875 17.5893L32.1664 18.3077L32.0467 18.8846L33.2985 19.8534L33.2006 19.2765L33.5489 19.4615L32.972 18.7758L33.2876 18.3621L32.9502 17.1647L33.3965 16.4898L34.3544 16.4245L34.3871 16.0871L33.6795 15.8585L33.0699 16.2395L32.6563 15.7932L31.7963 16.2286L31.1759 15.5102L30.0765 15.1509L30.4683 15.0747L30.2288 14.7264L31.4154 14.3672L31.5569 14.7046L31.9161 14.2475L32.6889 14.672L33.4944 14.5196L34.0932 14.008L33.9952 13.5617L34.3871 13.7903L34.6374 13.0283L32.5692 14.0515L32.6019 13.6597L32.1011 13.7794L32.1556 13.148L31.5351 14.2148L30.6751 14.4869L30.0765 14.0842L29.4233 14.5631L29.173 14.3019L30.0329 12.9739L29.7717 12.0704L30.7187 11.4282L29.8587 10.3614L30.2397 10.0239L30.7731 10.5682L31.7855 10.5138L33.821 8.71771L33.9516 7.90131L34.964 8.0537L34.9313 8.84833L35.3559 7.33527L36.2484 7.10668L36.7818 6.03991L36.9778 7.22642L37.435 6.97605L37.9792 7.41147L37.3588 6.75835H37.9139L37.8812 6.30116L37.2717 6.31205L37.6744 4.48331L38.5453 4.10232L39.514 4.46154L40.9401 3.49274L40.9836 2.97025L41.6367 3.0791Z" fill="#CCCCCC" stroke="white" stroke-width="0.5"/>
<path d="M221.4 74.5086L218.232 76.4027L217.688 76.4353L216.882 75.6516L216.708 75.4774L213.802 74.7699L213.551 73.4201L213.943 73.0827L212.376 70.6552L213.323 70.111L213.355 69.3599L210.177 69.1857L209.197 69.7409L208.784 68.0536L207.641 67.5094L204.081 67.8359L203.58 68.6632L202.753 69.0007L201.926 68.7176L201.871 70.4919L200.903 71.1886L199.934 73.431L198.649 73.0065L197.202 73.3874L196.309 72.669L195.079 72.9085L194.752 71.9832L196.146 69.9477L196.222 69.153L195.384 68.304L194.905 68.587L194.252 68.3366L193.729 68.9462L193.653 69.2184L193.207 71.7546L191.9 72.0159L190.997 72.8649L190.05 71.9506V71.6349L189.408 69.6973L186.556 69.7844L183.725 65.3758L184.466 64.7445L184.89 63.4491L184.379 60.7604L184.716 60.2706L184.542 60.14L184.302 59.2147L185.674 58.8555L185.043 57.8649L184.433 57.8541L184.553 56.6349L185.217 56.6567L185.097 57.4404L185.848 58.4745L185.652 56.3083L186.142 55.4484L184.694 53.7721L185.26 53.1625L185.38 52.1284L184.901 51.7474L183.867 51.9542L183.584 51.595L184.455 51.1269L185.304 49.8316L185.75 49.7227L185.064 47.6436L187.002 47.9919L187.405 47.4912L188.069 47.8722L189.157 47.7307L190.17 48.5144L190.583 48.1879L190.986 48.46L191.726 47.7633L192.173 48.1226L192.194 48.9498L192.88 48.8192L192.837 49.6574L192.227 50.0384L192.314 50.4738L192.88 51.0507L193 50.5282L193.359 50.6806L194.045 50.071L194.491 48.3838L195.21 48.3947L196.919 49.4723L196.625 51.6603L196.233 52.6073L197.071 52.2481L197.038 52.9012L197.691 53.1625L197.985 53.968L199.215 53.1734L199.52 54.4034L200.26 53.5435L201.403 53.9571L201.207 53.4781L202.035 52.5202L201.893 53.6959L203.003 53.8591L203.842 53.4455L204.647 53.7285L205.3 54.3925L206.694 54.73L206.9 55.2633L207.303 55.1654L207.194 54.7082L207.445 54.5885L208.315 55.0348L208.337 54.6211L208.642 54.7082L208.849 55.1001L209.034 55.5246L210.057 55.7096L209.992 56.1233L210.808 56.3954L210.765 56.7002L211.636 56.6131L212.093 57.0377L212.593 56.6131L213.867 56.5478L213.682 57.3642L214.781 58.5943L214.52 59.4651L215.097 59.5957L216.599 58.5725L217.263 58.812L218.025 59.2256L218.167 59.944L218.842 59.9332L219.157 60.4557L219.538 60.2271L219.658 61.3047L221.008 61.7837L220.942 63.2314L221.476 63.3294L221.574 62.9593L222.466 63.3838L222.641 64.1784L225.514 64.8098L225.95 65.6262L226.603 65.6153L226.004 66.3882L226.581 67.2372L225.961 67.6726L225.471 67.9557L224.263 67.2481L223.522 67.7488L222.303 67.1719L220.289 69.8715L219.887 70.9274L220.093 72.0485L221.432 73.1153L221.694 72.9303L221.4 74.5086ZM187.59 49.1676L187.644 49.0152L187.72 48.8954L187.699 48.7539L187.688 48.7104L187.982 48.6777L187.96 48.8954L187.818 49.0696L187.612 49.1784L187.59 49.1676ZM189.179 49.124L189.364 48.9498L189.723 49.3961L189.168 49.1784V49.124H189.179Z" fill="#CCCCCC" stroke="white" stroke-width="0.5"/>
<path d="M149.805 125.29L150.295 126.226L148.455 126.335L148.51 125.682L149.359 125.127L149.805 125.29ZM171.586 106.208L171.543 106.839L172.425 107.362L173.045 108.984L174.928 109.441L174.536 110.976L175.821 112.576L175.233 113.109L174.428 116.255L173.916 116.266L174.482 117.268L173.535 117.877L173.709 118.748L172.446 120.871L173.829 121.034L174.351 121.741V121.861L174.243 122.873L174.721 123.189L173.764 124.735L174.46 125.181L174.493 125.301L175.037 125.061L175.56 125.508L175.908 124.659L176.528 125.192L176.735 126.433L177.454 126.792L178.15 126.193L177.976 126.585L177.933 127.021L177.53 127.238L178.009 127.75L177.737 128.381L179.119 129.372L178.749 130.7L179.489 130.744L179.663 130.667L180.643 130.569L181.579 131.549L181.655 134.347L182.929 134.455L183.658 135.783L183.005 137.209L183.343 137.895L182.167 139.387L181.732 141.857L182.407 142.369L183.06 141.226L184.192 140.388L184.584 140.813L185.193 142.707L184.975 144.176L185.487 145.395L184.888 145.167L184.692 145.994L185.944 147.365L184.986 148.672L183.941 149.064L182.766 148.944L182.581 147.932L182.026 148.28H181.949L181.536 149.14L179.685 149.249L179.413 149.608L178.597 149.401L177.704 148.313L176.398 148.552L176.452 149.325L175.81 150.087L174.961 149.662L174.308 150.022L174.253 149.564L173.622 149.891L172.544 149.597L172.12 150.664L170.095 150.958L169.257 151.828L168.811 151.937L169.148 152.743L167.058 153.494L166.688 153.254L165.654 153.81L165.273 154.572L165.077 154.691L163.836 155.943L162.029 155.257L161.801 154.746L161.822 154.593L161.605 154.289L162.192 153.831L162.758 153.723L162.976 154.169L163.695 153.211L164.391 153.527L165.142 152.797L165.088 153.516L165.447 153.233L165.284 152.688L165.97 152.993L166.089 152.732L165.85 152.656L165.698 152.329L166.361 152.014L166.753 150.794L167.232 150.958L169.137 149.39L169.562 147.322L167.94 146.484L167.798 145.983L167.167 146.386L166.209 145.809L165.545 146.364L164.718 146.125L163.651 144.644L162.813 145.265L161.637 144.122H160.483L160.004 143.632L159.449 144.187L159.33 143.273L158.197 143.414L157.185 142.402L157.24 141.879L155.803 141.237L154.91 142.141L153.647 141.999L153.691 141.291L152.265 140.094L150.556 140.965L149.881 142.489L149.141 143.044L148.858 142.5L148.455 142.815L148.118 142.315L147.628 142.347L147.432 139.626L146.779 139.223L146.626 140.366L145.102 141.509L145.026 142.336L142.719 143.142L142.25 143.795L140.803 143.142L141.369 142.848L141.108 141.509L142.283 140.17L141.761 138.276L142.348 138.178L143.089 139.299L144.493 139.136L144.308 138.309L144.961 137.95L144.852 136.524L145.462 135.729L148.422 135.566L147.867 134.553L148.608 133.432L148.259 130.744L148.433 130.156L149.38 129.611L149.707 128.12L149.348 127.162L149.914 127.151L150.153 128.011L150.643 128.153L151.133 128.109L153.158 127.347L152.766 125.66L153.179 124.811L155.073 122.482L155.868 120.751L157.12 121.208L158.578 120.979L159.798 115.537L160.277 115.439L161.137 113.937L164.467 112.598L165.665 110.551L167.526 109.408L168.865 107.351L170.117 106.458L171.586 106.208Z" fill="#CCCCCC" stroke="white" stroke-width="0.5"/>
<path d="M254.642 236.874L254.424 238.159L255.044 240.39L254.283 238.289L254.642 236.874ZM254.391 235.709L254.326 236.363L254.892 236.863L254.304 236.417L254.076 235.764L254.391 235.709ZM207.105 226.392L207.399 224.857L209.261 223.311L210.872 219.73L213.789 218.456L214.823 216.998L215.215 216.279L215.759 215.876L217.686 216.802L219.852 216.192L223.553 213.993L223.227 213.492L223.956 213.645L223.989 213.144L224.74 213.079L225.523 213.732L226.013 213.318L226.568 213.863L226.285 214.439L226.296 214.592L226.971 215.68L229.322 215.702L232.61 213.242L232.555 209.193L232.044 207.222L232.338 206.199L233.372 205.47L233.492 202.934L235.353 201.094L235.908 200.898L236.616 201.9L239.381 199.635L239.74 199.461L241.231 198.993L243.212 199.603L243.321 200.637L245.977 202.716L246.728 205.818L246.021 207.723L246.369 208.725L244.029 210.934L244.464 211.163L244.257 214.352L247.414 214.712L248.067 216.366L247.414 219.468L245.955 221.863L246.14 223.55L249.613 230.158L251.757 232.433L253.172 233.151L253.793 233.064L254.206 235.187L253.14 234.131L252.563 235.666L251.354 236.711L250.875 237.778L252.682 240.172L254.533 241.163L255.175 240.303L255.632 241.065L256.068 241.021L255.088 242.208L253.281 242.643L252.171 243.394L251.431 243.024L250.484 243.275L249.232 244.189L247.958 243.939L247.828 243.645L248.448 243.558L247.577 243.351L247.294 242.894L247.577 242.545L247.011 242.426L247.164 243.166L246.565 243.013L246.119 243.492L244.627 243.079L243.55 243.667L243.049 244.287L243.528 244.951L241.884 244.69L241.721 244.004L240.763 243.297L239.522 243.199L239.185 243.906L237.105 243.721L234.907 245.789L233.165 246.551L232.359 248.935L231.391 248.619L230.128 249.621L229.126 249.784L228.179 250.742L224.957 248.217L222.726 247.814L222.769 248.489L221.703 247.705L217.261 240.521L217.066 240.314L216.739 238.529L217.251 237.527L216.848 235.731L217.251 233.238L217.871 232.379L217.653 232.095L217.468 232.106L216.935 231.878L216.456 232.302L215.248 231.747L214.595 232.128L213.43 231.105L212.004 231.551L209.62 229.701L208.259 227.273L207.105 226.392Z" fill="#CCCCCC" stroke="white" stroke-width="0.5"/>
<path d="M227.416 20.5717L228.298 20.7677L228.102 21.7364L228.766 22.9991L229.713 23.0862L230.301 21.9106L230.116 21.5296L231.563 21.301L233.098 22.2154L234.579 22.161L235.46 22.9991V25.5354L234.883 26.0035L234.502 28.0282L232.761 29.6174L233.74 31.3156L236.298 32.034L236.581 29.3562L237.311 28.6051L238.759 28.3983L237.605 30.3794L238.976 31.4135L240.424 31.0652L242.481 32.1973L242.558 32.8504L243.385 32.2081L244.375 33.1661L246.422 33.4926L246.879 34.2002L248.447 35.0601L249.568 34.6465L249.862 35.0057L252.441 35.1581L254.052 34.4723L254.771 35.3867L254.575 35.8221L254.956 36.4317L253.247 36.3555L252.224 37.1283L252.137 38.4999L251.048 39.3598L250.928 41.2756L251.288 41.7655L250.787 42.7343L249.731 42.8214L249.72 43.518L249.056 43.5071L247.685 45.1182L246.008 45.2379L245.595 45.6189L245.584 47.3823L242.253 47.3388L242.122 48.8192L241.469 48.7974L242.079 49.2981L240.794 50.1581L240.751 51.3228H240.598L239.978 51.5949L238.933 51.018L238.236 52.3678L238.595 54.3054L236.679 56.341L236.146 58.1697L236.865 58.4636L237.017 59.1167L234.96 61.6095L235.177 62.3279L234.415 64.4723L235.156 66.0398L234.949 68.206L235.907 69.0006L236.331 70.3286L237.246 70.3504L237.55 70.3177L237.724 71.5151L236.712 72.5275L235.417 74.9222L235.515 75.4556L234.687 76.4353L231.955 76.272L231.607 76.5986L231.041 76.7727L230.322 76.6312L227.47 74.6392L225.62 74.9767L224.063 73.4636L222.028 73.4963L221.723 72.8976L221.462 73.0935L220.123 72.0158L219.916 70.9055L220.308 69.8388L222.333 67.1501L223.541 67.727L224.281 67.2263L225.489 67.9338L225.979 67.6508L226.6 67.2154L226.023 66.3664L226.621 65.5935H225.968L225.522 64.7771L222.648 64.1457L222.474 63.3511L221.581 62.9266L221.484 63.2858L220.95 63.1878L221.015 61.751L219.666 61.272L219.557 60.1944L219.176 60.423L218.86 59.9113L218.196 59.9222L218.044 59.1929L217.282 58.7793L216.629 58.5398L215.126 59.563L214.55 59.4324L214.822 58.5616L213.711 57.3315L213.896 56.5151L212.623 56.5804L212.122 57.005L211.665 56.5804L210.794 56.6784L210.827 56.3736L210.021 56.0906L210.087 55.6769L209.052 55.4919L208.867 55.0783L208.671 54.6864L208.356 54.5993L208.334 55.0129L207.463 54.5666L207.202 54.6864L207.322 55.1436L206.919 55.2415L206.712 54.719L205.319 54.3816L204.666 53.7176L204.644 52.8794L205.547 52.5964L205.428 49.3634L204.655 49.0478L203.784 50.5717L203.468 49.788L202.652 49.8206L202.391 48.645L202.891 48.7756L203.806 47.4259L204.872 46.7945L205.82 47.034L206.146 47.5674L205.874 47.9266L208.508 47.219L208.606 46.5768L208.476 46.1849L207.964 46.4026L207.583 44.3453L207.79 43.714L209.412 43.333L208.878 41.7873L210.282 39.6102L210 37.7814L209.76 37.4331L210.108 37.444L210.152 36.2793L210.957 35.2452L211.828 35.8221L213.407 35.6261L214.092 35.2996L214.473 34.2655L216.008 33.9933L216.335 33.2858L215.932 31.9469L216.531 31.2829L216.607 30.9128L216.77 30.2488L218.697 29.2582L220.025 27.7234L219.502 27.0158L219.687 24.1203L220.634 24.7952L220.809 23.8482L221.244 24.6428L221.592 24.1748L221.843 24.1203L223.236 23.2713L223.29 22.0304L223.617 21.6603L223.682 21.5841L224.129 21.6276L225.108 21.0833L226.219 20.5391L227.416 20.5717Z" fill="#CCCCCC" stroke="white" stroke-width="0.5"/>
<path d="M319.084 199.179L319.606 200.039L320.075 199.93L320.249 200.899L321.37 201.835L321.773 202.02L322.926 201.301L323.405 202.172L323.057 202.825L321.609 202.771L320.51 201.835L319.345 201.563L317.473 203.228L317.331 200.267L317.81 199.669L318.083 199.93L318.714 199.592L318.91 198.264L319.084 199.179ZM318.583 197.307L318.888 198.145L318.431 197.764L318.583 197.307ZM321.936 185.159L322.589 186.062L323.972 186.171L323.786 186.465L324.135 186.606L323.59 186.759L323.493 187.238L324.472 188.577L323.395 189.045L323.275 190.024L321.892 190.253L321.794 191.298L321.468 191.407L321.729 191.701L321.185 191.635L320.194 192.92L319.606 192.746L319.596 193.279L319.095 192.789L319.051 193.29L318.529 193.268L318.039 194.291L318.126 195.989L317.484 195.587L317.081 196.033L316.286 194.531L315.568 195.075L315.514 194.683L314.926 194.857V194.346L314.142 194.204L313.434 195.086L312.727 194.498L312.4 193.312L313.075 191.907L312.455 191.178L312.868 190.569L313.337 190.884L315.154 190.645L314.501 189.883L314.915 189.251L314.773 188.402L316.199 187.575L316.711 186.791L317.212 187.227L317.593 186.574L318.442 186.639L318.659 186.095L319.128 186.519L320.51 185.409L320.826 185.855L321.12 185.278L321.936 185.159ZM363.942 183.384L364.606 183.613L364.03 184.026L364.062 184.81L362.974 184.788L362.843 183.482L363.278 184.179L363.213 183.733L363.823 183.961L363.942 183.384ZM345.492 167.241L344.675 167.818L345.699 166.806L345.492 167.241ZM371.595 152.971L371.301 153.569L369.897 154.364L369.2 154.222L368.591 155.3L368.035 154.832L367.676 155.235L367.774 156.138L368.405 156.857L371.323 155.648L370.887 155.986L371.116 156.77L370.572 157.553L368.939 157.782L368.917 158.947L369.483 159.959L370.31 160.721L372.814 161.788L375.046 160.612L375.612 159.48L378.159 161.189L378.943 161.124L378.757 162.071L379.53 162.354L378.845 162.735L378.823 164.607L378.398 164.585L378.257 165.423L377.397 165.336L376.983 165.913L376.744 167.132L377.277 167.535L376.526 167.688L376.21 168.613L375.143 169.103L375.383 169.255L373.815 171.106L373.435 173.849L373.064 173.468L373.249 173.827L372.335 175.601H371.998L372.215 175.819L370.866 176.265L370.376 177.212L369.646 177.082L367.437 179.411L366.773 179.542L365.684 177.854L364.868 177.626L364.966 176.777L364.051 175.852L363.202 175.786L362.723 176.265L361.842 175.743L360.427 175.666L360.231 176.091L359.577 175.677L359.001 175.841L357.629 174.153L357.781 172.815L357.041 171.497L357.825 170.169L355.495 168.221L354.44 168.275L354.712 168.036L354.396 167.992L354.124 168.7L354.614 168.537L354.385 168.863L353.612 168.613L353.144 169.407L351.631 169.68L351.86 170.159L351.457 170.398L351.141 172.216L350.183 171.65L349.759 171.9L349.846 170.942L349.171 170.398L349.868 169.941L349.051 169.211L348.083 169.745L348.181 169.201H347.68L347.146 169.843L347.157 169.331L346.406 169.397L347.201 168.841L346.678 168.928L345.916 168.145L346.21 166.599L349.345 164.77L351.326 162.865L352.132 162.909L353.046 162.278L354.037 160.754L355.321 160.122L355.495 159.371L355.866 159.121L356.214 159.447L356.399 158.685L358.641 157.575L358.728 156.976L360.72 156.77L360.982 156.247L363.398 155.137L363.834 154.494L364.802 154.941L366.577 153.83L366.457 154.124L367.132 154.016L367.099 154.516L368.068 153.918L368.852 154.059L370.202 152.992L370.648 152.949L370.452 153.319L371.595 152.971ZM399.908 157.205L396 154.636L393.757 153.776L391.983 154.386L389.741 154.407L390.035 151.36L388.99 151.479L388.783 150.641L389.708 149.444L391.025 149.193L391.95 149.128L392.636 149.661L392.995 149.008L394.323 149.465L395.891 148.91L396.522 149.433L397.567 148.791L397.35 148.007L397.861 148.127L397.676 149.139L398.003 149.716L398.884 148.997L398.699 150.423L399.102 150.097L398.993 148.867L400.049 149.106L399.701 150.108L400.321 150.587L400.713 150.195L401.018 151.697L401.072 150.935L401.442 151.555H402.923L402.498 151.708L402.836 152.121L402.488 152.807L402.923 152.992L402.792 153.493L403.239 153.308L403.391 154.799L404.055 155.333L404.12 156.029L404.621 156.182L404.12 156.421L403.696 155.627L402.553 155.431L403.707 155.997L404.033 156.617L403.924 157.891L402.999 158.783L401.094 158.174L399.908 157.205Z" fill="#CCCCCC" stroke="white" stroke-width="0.5"/>
<path d="M193.967 15.0639L194.947 14.6611L195.295 15.7497L196.699 16.6967L198.038 16.2939L198.887 17.2845L199.377 17.1648L199.889 17.6764L200.531 17.328L200.912 18.0138L202.088 17.8832L203.514 19.5378L206.649 21.0399L208.782 21.1815L210.404 20.5283L211.057 20.8114L211.155 20.4957L211.536 21.2685L212.516 21.5733L216.26 20.1691L217.425 20.3868L217.371 19.9841L218.307 19.4725L219.657 19.5378L221.66 17.7961L223.379 17.143L223.63 18.4819L222.879 18.9391L224.326 19.2439L224.947 19.7881L225.121 21.0508L224.141 21.5951L223.695 21.5516L223.63 21.6169L223.303 21.987L223.249 23.2388L221.855 24.0878L221.605 24.1423L221.257 24.5995L220.821 23.8157L220.647 24.7518L219.7 24.0878L219.515 26.9833L220.038 27.6909L218.71 29.2148L216.783 30.2054L216.631 30.8694L216.554 31.2395L215.956 31.8926L216.358 33.2315L216.043 33.9391L214.497 34.2112L214.116 35.2344L213.43 35.561L211.852 35.7569L210.981 35.18L210.165 36.2141L210.121 37.3788L209.762 37.368L210.001 37.7163L210.284 39.545L208.88 41.7221L209.414 43.2678L207.792 43.6488L207.585 44.2802L207.955 46.3484L208.467 46.1198L208.608 46.5117L208.51 47.1539L205.876 47.8614L206.159 47.5022L205.821 46.9688L204.885 46.7294L203.818 47.3607L202.904 48.7214L202.403 48.5799L202.665 49.7664L203.481 49.7337L203.797 50.5175L204.668 48.9935L205.44 49.2983L205.56 52.5421L204.657 52.8251L204.678 53.6524L203.873 53.3694L203.035 53.7831L201.924 53.6198L202.066 52.4442L201.239 53.4021L201.435 53.881L200.292 53.4674L199.551 54.3273L199.247 53.0973L198.017 53.8919L197.723 53.0864L197.07 52.8251L197.102 52.172L196.264 52.5312L196.656 51.5842L196.95 49.3963L195.241 48.3186L194.522 48.3077L194.076 49.995L193.39 50.6045L193.031 50.4521L192.911 50.9746L192.345 50.3977L192.258 49.9623L192.868 49.5813L192.911 48.7431L192.226 48.8738L192.204 48.0465L191.758 47.6873L190.843 47.2736L190.527 46.5117L190.604 46.4355L190.451 45.4884L189.624 44.9224L188.144 45.0748L187.066 43.7359V43.5944L186.315 43.6488L186.119 42.6038L183.213 42.9195L183.898 41.6459L182.897 41.0254L184.377 38.3041L184.072 37.4659L182.929 38.881L181.917 38.3803L181.025 39.5995L181.482 40.0458L181.199 40.1002L179.109 37.8687L180.905 35.1365L183.245 35.7569L183.18 36.41L184.856 37.1611L187.001 36.8019L188.165 35.5936L186.337 34.3092L186.478 33.8738L185.749 33.0029L183.278 32.8397L182.353 32.241L183.387 31.9253L183.408 30.4013L182.919 30.1183L183.594 29.1822L183.376 28.6815L183.06 28.8992L182.211 28.3222L183.365 26.3411L182.657 25.8839L181.046 26.1234L180.121 25.0566L175.266 27.6582L174.765 24.6103L174.57 24.3055L174.33 23.5327L175.843 23.119L176.3 22.1502L177.596 21.8346L177.813 20.9202L178.086 21.2468L178.902 20.9311L179.37 21.3556L180.959 20.5936L181.416 21.606L181.961 21.0073L182.951 20.8767L183.071 18.7649L183.833 18.6996L184.181 19.1677L184.388 18.3621H184.736L186.239 19.3527L186.663 19.0479L186.337 19.3418L187.033 19.8861L187.218 18.9608L186.543 17.9267L187.501 17.5675L188.514 16.3484L189.21 16.3592L189.199 15.4122L193.271 15.6408L193.967 15.0639ZM179.152 25.1111L178.499 22.9122L179.686 22.3571L180.197 22.6401L179.609 23.7831L179.642 24.926L179.152 25.1111ZM192.411 41.4717L192.487 41.4935L192.596 41.6786L192.77 41.8309L195.491 41.5153L198.093 42.6582L199.29 42.4514L199.704 43.246L200.607 42.7562L200.15 44.3128L199.715 44.8244L199.388 44.672L199.127 45.4231L200.074 46.5552L201.685 45.9347L201.848 47.4478L200.934 47.7417L200.749 47.3172L198.343 47.3934L197.657 46.4028L196.318 46.3375L195.905 46.8164L194.446 46.6532L193.924 45.3687L192.759 44.955L191.431 43.7141L192.324 42.0378L192.411 41.4717Z" fill="#CCCCCC" stroke="white" stroke-width="0.5"/>
<path d="M233.449 145.926L234.842 146.122L235.18 146.318L235.702 146.101L236.377 146.427L236.91 145.959L237.4 145.741L237.389 143.804L237.977 143.303L238.01 143.651L238.195 144.119L238.663 145.262L239.545 145.807L239.556 146.917L242.429 147.059L244.519 148.735L244.704 149.486L244.345 149.998L241.929 150.988L239.479 151.609L238.696 151.358L238.641 151.249L235.746 150.879L234.418 147.918L234.722 147.625L233.427 146.688L233.449 145.926ZM242.614 152.567L243.137 152.926L243.365 152.523L244.073 152.686L244.672 152.262L247.143 152.186L248.786 153.111L249.135 152.806L249.614 153.775L249.352 154.602L249.722 155.669L249.396 156.355L250.648 157.302L252.857 155.995L251.627 154.352L251.693 152.305L253.282 151.663L254.077 149.649L256.21 149.725L257.701 148.572L258.18 148.713L257.789 147.45L258.333 146.558L259.236 146.133L260.281 141.714L261.783 142.628L263.754 142.03L265.038 141.257L264.527 140.081L264.853 139.635L265.539 139.667L266.344 138.318L268.064 137.327L267.901 136.467L266.127 134.334L266.508 133.746L268.336 133.016L268.206 132.135L267.498 131.525L267.705 127.813L266.802 128.085L265.452 127.672L265.169 125.636L266.617 125.092L267.281 125.843L269.381 124.656L269.556 122.73L270.568 121.053L272.103 120.999L272.135 121.674L273.191 122.61L274.53 123.241L275.717 123.143L276.304 123.111L276.892 123.307L276.903 123.426L277.252 124.515L277.6 124.646L279.603 123.263L280.757 123.568L281.432 123.002L282.248 123.383L283.086 123.056L283.424 124.286H283.587L284.273 124.199L284.566 124.493L284.654 124.591L284.871 124.678L284.273 126.453L284.719 127.062L286.45 127.868L288.3 128.096L289.519 129.043L289.378 130.23L291.62 131.188L290.521 133.68L290.466 133.387L288.79 135.955L288.518 137.61L286.069 140.767L284.915 141.649L284.294 143.368L282.15 144.74L280.713 148.332L277.828 150.226L276.207 154.733L274.454 156.855L273.921 156.899L271.025 161.688L270.133 164.747L268.609 166.456L266.91 170.179L266.965 172.508L266.551 172.193L266.921 172.824L266.432 173.053L267.346 177.048L269.991 182.577L269.316 183.045L269.381 184.232L271.667 189.881L275.771 194.388L280.082 195.346L279.614 195.498L279.82 195.825L279.973 195.509V195.934L282.237 197.077L281.802 197.501L282.041 198.241L282.607 198.764L283.021 198.601L283.315 199.657L281.791 200.255L280.822 201.757L280.212 201.529L279.287 202.051L278.558 203.075L278.83 203.619L277.818 203.227L277.241 203.836L276.283 203.651L275.499 204.12L274.476 205.622L274.857 206.231L273.474 207.679L271.874 207.254L271.232 207.995L267.857 209.061L265.234 210.781L264.385 212.24L264.396 214.188L263.133 213.818L261.838 215.168L262.121 214.537L261.457 214.852L261 216.812L261.315 219.74L260.88 220.262L258.801 220.306L258.159 220.959L257.342 223.637L257.212 227.338L256.613 228.307L255.644 228.633L255.002 230.712L254.088 231.224L253.75 233.096L253.13 233.183L251.715 232.465L249.57 230.19L246.098 223.582L245.913 221.895L247.371 219.5L248.024 216.398L247.371 214.744L244.215 214.384L244.421 211.195L243.986 210.966L246.326 208.757L245.978 207.755L246.685 205.85L245.934 202.748L247.828 202.715L249.233 201.224L247.872 198.339L248.852 197.882L249.004 196.402L248.623 195.194L248.971 193.778L248.253 193.136L247.926 191.841L246.707 191.623L245.749 192.211L242.473 192.418L240.045 188.782L238.946 187.966L239.175 185.669L241.352 181.728L241.918 178.082L240.568 177.342L240.22 177.701L239.229 177.32L239.055 177.233L238.434 177.157H238.26L237.237 176.776L237.041 176.721L236.791 177.037L235.876 176.199L235.365 176.242V175.763L234.635 175.709L234.951 175.371L234.2 175.197L234.146 175.905L234.08 175.545L234.015 175.371L233.286 175.905L233.416 175.839L233.471 175.317L232.926 175.121L233.351 175.11L233.144 174.446L233.068 174.511L232.654 174.74L232.937 174.392H232.273L232.469 173.684H231.816L232.034 173.423L231.348 173.325L231.098 172.443L231.544 172.28L231.838 171.518L231.577 170.832L231.958 170.658L231.849 168.873L231.326 168.775L233.035 167.741L234.766 164.323L235.778 163.463L236.627 163.778L237.422 164.159L238.467 163.844L238.946 163.104L238.565 161.58L240.307 158.945L240.807 155.299L240.905 154.831L240.481 154.069L240.677 153.437L242.614 152.567Z" fill="#CCCCCC" stroke="white" stroke-width="0.5"/>
</svg>
