<svg width="118" height="124" viewBox="0 0 118 124" fill="none" xmlns="http://www.w3.org/2000/svg">
<path d="M85.1014 11.9551C120.005 35.6128 125.692 76.8964 104.797 103.207C83.9018 129.517 35.7445 128.128 9.43419 107.233C-16.8762 86.3384 20.6421 66.0303 21.994 35.6127C23.3458 5.19512 50.1974 -11.7025 85.1014 11.9551Z" fill="#D1DDF9"/>
<mask id="mask0_3060_2892" style="mask-type:alpha" maskUnits="userSpaceOnUse" x="40" y="51" width="37" height="36">
<rect x="40.25" y="51" width="36" height="36" fill="#D9D9D9"/>
</mask>
<g mask="url(#mask0_3060_2892)">
<path d="M46.25 81C45.425 81 44.7188 80.7063 44.1313 80.1188C43.5438 79.5313 43.25 78.825 43.25 78V57C43.25 56.175 43.5438 55.4688 44.1313 54.8813C44.7188 54.2938 45.425 54 46.25 54H59.75C60.575 54 61.2813 54.2938 61.8688 54.8813C62.4563 55.4688 62.75 56.175 62.75 57V63.075C62.225 63.125 61.7125 63.2188 61.2125 63.3563C60.7125 63.4938 60.225 63.6625 59.75 63.8625V57H46.25V78H52.25V81H46.25ZM52.25 76.4625V75C52.25 74.725 52.2563 74.4563 52.2688 74.1938C52.2813 73.9313 52.3125 73.6625 52.3625 73.3875C51.8875 73.2625 51.5 73 51.2 72.6C50.9 72.2 50.75 71.75 50.75 71.25C50.75 70.625 50.9687 70.0938 51.4062 69.6562C51.8438 69.2187 52.375 69 53 69C53.125 69 53.25 69.0125 53.375 69.0375C53.5 69.0625 53.625 69.1 53.75 69.15C54 68.7 54.2813 68.2688 54.5938 67.8563C54.9062 67.4438 55.2375 67.05 55.5875 66.675C55.2125 66.45 54.8062 66.2813 54.3687 66.1688C53.9312 66.0563 53.475 66 53 66C51.55 66 50.3125 66.5125 49.2875 67.5375C48.2625 68.5625 47.75 69.8 47.75 71.25C47.75 72.6 48.1812 73.7563 49.0437 74.7188C49.9062 75.6812 50.975 76.2625 52.25 76.4625ZM53 63.75C53.625 63.75 54.1562 63.5313 54.5938 63.0938C55.0313 62.6562 55.25 62.125 55.25 61.5C55.25 60.875 55.0313 60.3438 54.5938 59.9062C54.1562 59.4687 53.625 59.25 53 59.25C52.375 59.25 51.8438 59.4687 51.4062 59.9062C50.9687 60.3438 50.75 60.875 50.75 61.5C50.75 62.125 50.9687 62.6562 51.4062 63.0938C51.8438 63.5313 52.375 63.75 53 63.75ZM61.25 84H58.25C57.425 84 56.7188 83.7063 56.1313 83.1188C55.5438 82.5313 55.25 81.825 55.25 81V75C55.25 72.5 56.125 70.375 57.875 68.625C59.625 66.875 61.75 66 64.25 66C66.75 66 68.875 66.875 70.625 68.625C72.375 70.375 73.25 72.5 73.25 75V81C73.25 81.825 72.9563 82.5313 72.3688 83.1188C71.7813 83.7063 71.075 84 70.25 84H67.25V76.5H71V75C71 73.125 70.3438 71.5312 69.0312 70.2188C67.7188 68.9062 66.125 68.25 64.25 68.25C62.375 68.25 60.7812 68.9062 59.4688 70.2188C58.1562 71.5312 57.5 73.125 57.5 75V76.5H61.25V84Z" fill="black" fill-opacity="0.3"/>
</g>
</svg>
