<svg width="118" height="124" viewBox="0 0 118 124" fill="none" xmlns="http://www.w3.org/2000/svg">
<path d="M85.1014 11.9551C120.005 35.6128 125.692 76.8964 104.797 103.207C83.9018 129.517 35.7445 128.128 9.43419 107.233C-16.8762 86.3384 20.6421 66.0303 21.994 35.6127C23.3458 5.19512 50.1974 -11.7025 85.1014 11.9551Z" fill="#FAD3D3"/>
<mask id="mask0_3060_5237" style="mask-type:alpha" maskUnits="userSpaceOnUse" x="40" y="51" width="37" height="36">
<rect x="40.25" y="51" width="36" height="36" fill="#D9D9D9"/>
</mask>
<g mask="url(#mask0_3060_5237)">
<path d="M43.25 81V76.5H46.25V60C46.25 59.175 46.5438 58.4688 47.1313 57.8813C47.7188 57.2938 48.425 57 49.25 57H71.75V60H49.25V76.5H58.25V81H43.25ZM62.75 81C62.325 81 61.9688 80.8563 61.6813 80.5688C61.3938 80.2813 61.25 79.925 61.25 79.5V64.5C61.25 64.075 61.3938 63.7187 61.6813 63.4312C61.9688 63.1437 62.325 63 62.75 63H71.75C72.175 63 72.5312 63.1437 72.8187 63.4312C73.1062 63.7187 73.25 64.075 73.25 64.5V79.5C73.25 79.925 73.1062 80.2813 72.8187 80.5688C72.5312 80.8563 72.175 81 71.75 81H62.75ZM64.25 76.5H70.25V66H64.25V76.5Z" fill="black" fill-opacity="0.3"/>
</g>
</svg>
