<svg width="100.000000" height="100.000031" viewBox="0 0 100 100" fill="none" xmlns="http://www.w3.org/2000/svg" xmlns:xlink="http://www.w3.org/1999/xlink">
	<desc>
			Created with Pixso.
	</desc>
	<defs/>
	<path id="Subtract" d="M50 0C22.3857 0 0 22.3858 0 50C0 77.6143 22.3857 100 50 100C77.6143 100 100 77.6143 100 50C100 22.3858 77.6143 0 50 0ZM50 20C33.4314 20 20 33.4315 20 50C20 66.5685 33.4314 80 50 80C66.5686 80 80 66.5685 80 50C80 33.4315 66.5686 20 50 20Z" clip-rule="evenodd" fill="#000000" fill-opacity="0.100000" fill-rule="evenodd"/>
	<path id="Subtract" d="M80.0845 10.0599C71.7134 3.74457 61.2939 0 50 0C22.3857 0 0 22.3858 0 50C0 77.6143 22.3857 100 50 100C72.6121 100 91.718 84.99 97.8982 64.3901C99.4841 59.1042 95.3398 54.188 89.8447 53.6804C84.3403 53.172 79.6143 57.3611 77.3281 62.394C72.6111 72.7785 62.1489 80 50 80C33.4314 80 20 66.5685 20 50C20 33.4315 33.4314 20 50 20C55.3457 20 60.365 21.3982 64.7119 23.8489C69.5217 26.5606 75.8013 27.1342 79.9336 23.4721C84.0679 19.8081 84.4944 13.387 80.0845 10.0599Z" clip-rule="evenodd" fill="#4AC195" fill-opacity="1.000000" fill-rule="evenodd"/>
	<path id="Subtract" d="M24.3279 7.08484C9.75439 15.8217 0 31.7717 0 50C0 77.6142 22.3857 100 50 100C72.6121 100 91.718 84.9899 97.8982 64.3901C99.4841 59.1042 95.3398 54.188 89.8447 53.6804C84.3403 53.172 79.6143 57.3611 77.3281 62.3939C72.6111 72.7785 62.1489 80 50 80C33.4314 80 20 66.5685 20 50C20 40.4975 24.418 32.0269 31.312 26.5303C35.6313 23.0863 38.5288 17.4771 36.6912 12.2674C34.8538 7.05759 29.0662 4.24435 24.3279 7.08484Z" clip-rule="evenodd" fill="#A35BFF" fill-opacity="1.000000" fill-rule="evenodd"/>
	<path id="Subtract" d="M1.87622 63.6181C7.80591 84.6139 27.1057 100 49.9993 100C72.6113 100 91.7175 84.99 97.8975 64.3902C99.4834 59.1043 95.3391 54.188 89.8438 53.6804C84.3394 53.1719 79.6135 57.3611 77.3271 62.394C72.6101 72.7786 62.1479 80 49.999 80C37.6785 80 27.0923 72.5728 22.4741 61.9515C20.2703 56.8828 15.6135 52.6188 10.1023 53.0385C4.59937 53.4576 0.376221 58.3069 1.87622 63.6181Z" clip-rule="evenodd" fill="#F8B647" fill-opacity="1.000000" fill-rule="evenodd"/>
</svg>
