<?xml version="1.0" encoding="utf-8"?>
<!-- Generator: Adobe Illustrator 23.1.0, SVG Export Plug-In . SVG Version: 6.00 Build 0)  -->
<svg version="1.1" id="Слой_1" xmlns="http://www.w3.org/2000/svg" xmlns:xlink="http://www.w3.org/1999/xlink" x="0px" y="0px"
	 viewBox="0 0 94 94" style="enable-background:new 0 0 94 94;" xml:space="preserve">
<style type="text/css">
	.st0{fill:#F8B647;}
	.st1{fill:#FFFFFF;}
</style>
<path class="st0" d="M9.3,19.6C-7.9,46.7,0.6,77.2,23.2,89.3c22.6,12,55.7-3.5,67.7-26.1c12-22.6-20.3-25.3-30.5-46.2
	C50.3-3.8,26.4-7.4,9.3,19.6z"/>
<path class="st1" d="M59.5,68.8H34.2v-6.7c0,0,1-0.9,2.7-2.6l3.1-3.1c0.7-0.7,1.6-1.7,2.7-2.8c1.3-1.3,2.2-2.4,2.7-3.2l1.8-2.9
	c1.3-2,2-4,2-6.1c0-2.6-1.2-3.9-3.6-3.9c-1.1,0-1.9,0.4-2.6,1.1c-0.6,0.7-1.2,1.7-1.7,3.1l-7-3.2c0.7-2.9,2.1-5.2,4.1-6.9
	c2.1-1.7,4.9-2.5,8.2-2.5c3.6,0,6.4,1,8.5,3.1c2.1,2.1,3.1,4.6,3.1,7.5c0,7.4-4.4,14.5-13.1,21.2h14.4V68.8z"/>
</svg>
