<svg width="396" height="161" viewBox="0 0 396 161" fill="none" xmlns="http://www.w3.org/2000/svg">
<g clip-path="url(#clip0_1722_48609)">
<path d="M-15.9002 22.8642C-15.4884 24.4013 -14.4828 25.7118 -13.1047 26.5074C-11.7266 27.3031 -10.0888 27.5187 -8.55176 27.1068C-7.01468 26.695 -5.70417 25.6894 -4.90852 24.3113C-4.11287 22.9332 -3.89726 21.2955 -4.30911 19.7584C-4.72097 18.2213 -5.72656 16.9108 -7.10467 16.1151C-8.48277 15.3195 -10.1205 15.1039 -11.6576 15.5157C-13.1947 15.9276 -14.5052 16.9332 -15.3008 18.3113C-16.0965 19.6894 -16.3121 21.3271 -15.9002 22.8642ZM-9.19262 30.7823L-7.97436 31.9603L-7.97893 37.9742L-11.3911 31.7597C-11.58 31.4172 -11.9974 31.2718 -12.3387 31.4652C-15.2958 33.1068 -16.8766 36.6071 -15.9606 40.0255C-15.7544 40.7952 -14.9633 41.2481 -14.1981 41.0431L-8.23504 39.4453C-8.23504 39.4453 -8.23504 39.4453 -8.23051 39.4441L-7.98148 39.3774L-2.91037 38.0186L-2.66134 37.9518C-2.66134 37.9518 -2.66134 37.9518 -2.65682 37.9506L3.30627 36.3528C4.07599 36.1466 4.52887 35.3555 4.32384 34.5903C3.40786 31.1719 0.288767 28.9309 -3.09299 28.9878C-3.484 28.9955 -3.77287 29.3301 -3.76637 29.7166L-3.61416 36.8047L-6.62508 31.5987L-6.15901 29.9695C-5.99904 29.4074 -6.51147 28.8895 -7.07291 29.04L-7.96941 29.2802L-8.86138 29.5192C-9.42283 29.6696 -9.60647 30.3788 -9.18809 30.7811L-9.19262 30.7823Z" fill="black" fill-opacity="0.1"/>
</g>
<g clip-path="url(#clip1_1722_48609)">
<path d="M19.9761 7.03942C18.7762 7.36092 18.0636 8.59524 18.3851 9.7951L23.432 28.6307C23.7536 29.8305 24.9879 30.5431 26.1877 30.2216L30.5344 29.057L29.5638 25.4347C29.2423 24.2349 29.9549 23.0006 31.1548 22.6791C32.3547 22.3576 33.589 23.0702 33.9105 24.27L34.8811 27.8923L39.2277 26.7276C40.4276 26.4061 41.1402 25.1718 40.8187 23.9719L35.7717 5.13636C35.4502 3.93649 34.2159 3.22386 33.0161 3.54537L19.9761 7.03942ZM23.6122 17.712C23.5055 17.3135 23.7441 16.9002 24.1426 16.7934L25.5914 16.4052C25.9899 16.2984 26.4032 16.5371 26.51 16.9355L26.8982 18.3844C27.005 18.7828 26.7663 19.1962 26.3679 19.303L24.919 19.6912C24.5206 19.798 24.1072 19.5593 24.0005 19.1609L23.6122 17.712ZM28.4892 15.6287L29.9381 15.2405C30.3366 15.1337 30.7499 15.3724 30.8567 15.7708L31.2449 17.2197C31.3517 17.6182 31.113 18.0315 30.7146 18.1383L29.2657 18.5265C28.8672 18.6333 28.4539 18.3946 28.3471 17.9962L27.9589 16.5473C27.8521 16.1488 28.0908 15.7355 28.4892 15.6287ZM32.3056 15.3826C32.1988 14.9842 32.4374 14.5708 32.8359 14.464L34.2848 14.0758C34.6832 13.9691 35.0966 14.2077 35.2033 14.6061L35.5916 16.055C35.6983 16.4535 35.4597 16.8668 35.0612 16.9736L33.6123 17.3618C33.2139 17.4686 32.8005 17.2299 32.6938 16.8315L32.3056 15.3826ZM22.5896 10.9979L24.0385 10.6096C24.437 10.5029 24.8503 10.7415 24.9571 11.14L25.3453 12.5889C25.4521 12.9873 25.2134 13.4006 24.815 13.5074L23.3661 13.8956C22.9677 14.0024 22.5543 13.7638 22.4475 13.3653L22.0593 11.9164C21.9525 11.518 22.1912 11.1046 22.5896 10.9979ZM26.406 10.7517C26.2992 10.3533 26.5379 9.93994 26.9363 9.83317L28.3852 9.44495C28.7836 9.33818 29.197 9.57683 29.3038 9.97528L29.692 11.4242C29.7987 11.8226 29.5601 12.236 29.1617 12.3427L27.7128 12.731C27.3143 12.8377 26.901 12.5991 26.7942 12.2006L26.406 10.7517ZM31.283 8.66849L32.7319 8.28026C33.1303 8.1735 33.5437 8.41215 33.6504 8.81059L34.0387 10.2595C34.1454 10.6579 33.9068 11.0713 33.5083 11.178L32.0594 11.5663C31.661 11.673 31.2476 11.4344 31.1409 11.0359L30.7526 9.58705C30.6459 9.1886 30.8845 8.77525 31.283 8.66849Z" fill="black" fill-opacity="0.1"/>
</g>
<g clip-path="url(#clip2_1722_48609)">
<path d="M63.4213 -2.27236L69.9413 -4.01939C70.1405 -4.07277 70.3472 -3.95345 70.4005 -3.75422L70.8858 -1.94311L63.6414 -0.00196986L63.1561 -1.81308C63.1027 -2.0123 63.222 -2.21898 63.4213 -2.27236ZM60.9828 -1.23074L61.4681 0.580373L58.5703 1.35683C56.972 1.78509 56.0207 3.43276 56.449 5.03106L57.6136 9.37773L66.307 7.04836L72.1025 5.49545L80.7959 3.16607L79.6312 -1.18059C79.2029 -2.7789 77.5552 -3.73018 75.9569 -3.30191L73.0592 -2.52546L72.5739 -4.33657C72.199 -5.73565 70.758 -6.5676 69.3589 -6.19272L62.8389 -4.44569C61.4398 -4.07081 60.6079 -2.62982 60.9828 -1.23074ZM81.1841 4.61496L72.4908 6.94433L72.879 8.39322C73.0937 9.19464 72.6197 10.0156 71.8183 10.2303L68.9205 11.0068C68.1191 11.2215 67.2982 10.7476 67.0834 9.94614L66.6952 8.49725L58.0019 10.8266L59.5548 16.6222C59.983 18.2205 61.6307 19.1718 63.229 18.7435L80.6157 14.0848C82.214 13.6565 83.1653 12.0088 82.737 10.4105L81.1841 4.61496Z" fill="black" fill-opacity="0.1"/>
</g>
<g clip-path="url(#clip3_1722_48609)">
<path d="M102.804 -15.1543C101.206 -14.726 100.255 -13.0784 100.683 -11.4801L101.848 -7.13339L104.745 -7.90985L103.581 -12.2565L113.845 -15.0069L115.527 -14.0357L116.337 -11.0157L119.234 -11.7921L118.425 -14.8122C118.219 -15.5819 117.718 -16.2386 117.029 -16.6364L115.347 -17.6075C114.658 -18.0053 113.839 -18.1109 113.069 -17.9047L102.804 -15.1543ZM118.666 -2.32235L119.054 -0.873458L119.831 2.02432L108.24 5.13015L107.463 2.23237L107.269 1.50793L107.075 0.783482L118.666 -2.32235ZM121.952 -1.64991L123.401 -2.03814C124.202 -2.25288 124.676 -3.07384 124.462 -3.87526L123.297 -8.22193C122.869 -9.82023 121.221 -10.7715 119.623 -10.3432L102.236 -5.6845C100.638 -5.25624 99.6864 -3.60858 100.115 -2.01027L101.279 2.3364C101.494 3.13781 102.315 3.6118 103.116 3.39706L104.565 3.00883L105.342 5.90661C105.77 7.50491 107.418 8.45619 109.016 8.02793L120.607 4.9221C122.205 4.49383 123.157 2.84617 122.728 1.24786L121.952 -1.64991ZM119.578 -7.61358C119.866 -7.6908 120.173 -7.65037 120.431 -7.50119C120.69 -7.35201 120.878 -7.10628 120.955 -6.81808C121.033 -6.52988 120.992 -6.22281 120.843 -5.96441C120.694 -5.70602 120.448 -5.51747 120.16 -5.44024C119.872 -5.36302 119.565 -5.40345 119.306 -5.55263C119.048 -5.70182 118.859 -5.94754 118.782 -6.23574C118.705 -6.52394 118.745 -6.83102 118.894 -7.08941C119.044 -7.34781 119.289 -7.53635 119.578 -7.61358Z" fill="black" fill-opacity="0.1"/>
</g>
<g clip-path="url(#clip4_1722_48609)">
<path d="M1.17837 57.6282C-0.419938 58.0565 -1.37122 59.7042 -0.942953 61.3025L0.221733 65.6491L3.11951 64.8727L1.95482 60.526L12.2193 57.7757L13.9014 58.7468L14.7106 61.7669L17.6084 60.9904L16.7992 57.9704C16.5929 57.2006 16.0918 56.5439 15.4029 56.1462L13.7208 55.175C13.0319 54.7772 12.2126 54.6716 11.4428 54.8779L1.17837 57.6282ZM17.04 70.4602L17.4282 71.9091L18.2047 74.8069L6.61357 77.9127L5.83711 75.0149L5.643 74.2905L5.44888 73.566L17.04 70.4602ZM20.326 71.1326L21.7749 70.7444C22.5763 70.5296 23.0503 69.7087 22.8355 68.9073L21.6709 64.5606C21.2426 62.9623 19.5949 62.011 17.9966 62.4393L0.609961 67.098C-0.988344 67.5263 -1.93962 69.174 -1.51136 70.7723L-0.346673 75.1189C-0.131934 75.9203 0.689027 76.3943 1.49044 76.1796L2.93933 75.7914L3.71579 78.6891C4.14405 80.2874 5.79172 81.2387 7.39002 80.8105L18.9811 77.7046C20.5794 77.2764 21.5307 75.6287 21.1025 74.0304L20.326 71.1326ZM17.9516 65.169C18.2398 65.0917 18.5469 65.1322 18.8053 65.2813C19.0636 65.4305 19.2522 65.6762 19.3294 65.9644C19.4066 66.2527 19.3662 66.5597 19.217 66.8181C19.0678 67.0765 18.8221 67.2651 18.5339 67.3423C18.2457 67.4195 17.9386 67.3791 17.6803 67.2299C17.4219 67.0807 17.2333 66.835 17.1561 66.5468C17.0789 66.2586 17.1193 65.9515 17.2685 65.6931C17.4177 65.4347 17.6634 65.2462 17.9516 65.169Z" fill="black" fill-opacity="0.1"/>
</g>
<g clip-path="url(#clip5_1722_48609)">
<path d="M55.6866 67.8695C58.7607 67.0458 61.3817 65.0346 62.973 62.2784C64.5643 59.5222 64.9956 56.2467 64.1718 53.1725C63.3481 50.0984 61.3369 47.4774 58.5807 45.8861C55.8245 44.2948 52.5491 43.8635 49.4749 44.6873C46.4007 45.511 43.7797 47.5222 42.1884 50.2784C40.5971 53.0346 40.1659 56.31 40.9896 59.3842C41.8133 62.4584 43.8245 65.0794 46.5807 66.6707C49.3369 68.262 52.6124 68.6932 55.6866 67.8695ZM57.1269 52.7794L52.8843 60.1279C52.5727 60.6675 51.8845 60.8519 51.3493 60.5391L47.6751 58.4178C47.1355 58.1062 46.9511 57.418 47.2638 56.8829C47.5766 56.3478 48.2636 56.1588 48.7988 56.4716L51.497 58.0295L55.175 51.6524C55.4865 51.1128 56.1748 50.9284 56.7099 51.2412C57.245 51.5539 57.4339 52.2409 57.1212 52.7761L57.1269 52.7794Z" fill="black" fill-opacity="0.1"/>
</g>
<g clip-path="url(#clip6_1722_48609)">
<path d="M93.6328 45.2786C95.1699 44.8667 96.4804 43.8612 97.2761 42.483C98.0717 41.1049 98.2873 39.4672 97.8755 37.9301C97.4636 36.3931 96.458 35.0825 95.0799 34.2869C93.7018 33.4912 92.0641 33.2756 90.527 33.6875C88.9899 34.0993 87.6794 35.1049 86.8837 36.483C86.0881 37.8612 85.8725 39.4989 86.2843 41.036C86.6962 42.573 87.7018 43.8835 89.0799 44.6792C90.458 45.4748 92.0957 45.6905 93.6328 45.2786ZM89.9558 48.9426C86.8686 50.8229 85.2534 54.5751 86.2361 58.2426C86.4351 58.9851 87.1986 59.426 87.9412 59.227L105.536 54.5124C106.279 54.3135 106.72 53.5499 106.521 52.8074C105.538 49.1399 102.263 46.698 98.6492 46.6132L99.2655 48.9134C100.601 48.9 101.829 49.789 102.191 51.1382L102.676 52.9493C102.783 53.3478 102.544 53.7611 102.146 53.8679L101.422 54.062C101.023 54.1688 100.61 53.9301 100.503 53.5317C100.396 53.1332 100.635 52.7199 101.033 52.6131L100.742 51.5265C100.527 50.725 99.7064 50.2511 98.905 50.4658C98.1036 50.6805 97.6296 51.5015 97.8443 52.3029L98.1355 53.3896C98.534 53.2828 98.9473 53.5215 99.0541 53.9199C99.1608 54.3184 98.9222 54.7317 98.5237 54.8385L97.7993 55.0326C97.4009 55.1394 96.9875 54.9007 96.8807 54.5023L96.3955 52.6912C96.0339 51.3419 96.6531 49.9579 97.8166 49.3016L97.1239 46.7162C96.8449 46.7619 96.5651 46.8223 96.2844 46.8975L92.146 48.0064C91.8652 48.0816 91.5927 48.1692 91.3283 48.2691L92.1217 51.2303C93.2514 51.2625 94.2762 52.0264 94.5843 53.1764C94.9592 54.5755 94.1273 56.0165 92.7282 56.3914C91.3291 56.7663 89.8881 55.9343 89.5132 54.5352C89.2051 53.3852 89.7106 52.2112 90.6729 51.6185L89.9558 48.9426ZM92.34 54.9425C92.6282 54.8653 92.8739 54.6767 93.0231 54.4183C93.1723 54.1599 93.2127 53.8529 93.1355 53.5647C93.0582 53.2765 92.8697 53.0307 92.6113 52.8816C92.3529 52.7324 92.0458 52.6919 91.7576 52.7692C91.4694 52.8464 91.2237 53.0349 91.0745 53.2933C90.9253 53.5517 90.8849 53.8588 90.9621 54.147C91.0394 54.4352 91.2279 54.6809 91.4863 54.8301C91.7447 54.9793 92.0518 55.0197 92.34 54.9425Z" fill="black" fill-opacity="0.1"/>
</g>
<g clip-path="url(#clip7_1722_48609)">
<path d="M120.764 28.6913C120.549 27.8899 121.023 27.0689 121.825 26.8542L124.723 26.0777L127.62 25.3013L130.518 24.5248C131.32 24.3101 132.141 24.7841 132.355 25.5855C132.57 26.3869 132.096 27.2079 131.295 27.4226L133.367 35.1561C132.799 36.6961 132.688 38.4194 133.146 40.1264C133.451 41.2674 133.981 42.2852 134.675 43.1525C134.194 44.4898 133.083 45.5785 131.607 45.974C129.207 46.617 126.738 45.1917 126.095 42.792L122.601 29.752C121.8 29.9667 120.979 29.4927 120.764 28.6913ZM125.499 28.9755L126.664 33.3222L129.562 32.5457L128.397 28.1991L125.499 28.9755ZM134.595 39.7382C134.131 38.009 134.374 36.1665 135.269 34.6161C136.164 33.0658 137.638 31.9345 139.368 31.4711C141.097 31.0078 142.939 31.2504 144.49 32.1455C146.04 33.0406 147.171 34.5149 147.635 36.2441C148.098 37.9733 147.855 39.8158 146.96 41.3661C146.065 42.9165 144.591 44.0478 142.862 44.5111C141.132 44.9745 139.29 44.7319 137.74 43.8368C136.189 42.9417 135.058 41.4674 134.595 39.7382ZM143.636 35.2141C143.281 35.0086 142.819 35.1324 142.613 35.4883L140.601 38.9731L138.954 38.0218C138.598 37.8163 138.136 37.94 137.93 38.296C137.725 38.6519 137.849 39.1138 138.204 39.3193L140.501 40.6451C140.857 40.8506 141.319 40.7268 141.524 40.3709L143.911 36.2374C144.116 35.8814 143.992 35.4196 143.636 35.2141Z" fill="black" fill-opacity="0.1"/>
</g>
<g clip-path="url(#clip8_1722_48609)">
<path d="M164.662 13.8231C163.462 14.1446 162.749 15.3789 163.071 16.5788L168.118 35.4143C168.439 36.6142 169.673 37.3268 170.873 37.0053L175.22 35.8406L174.249 32.2184C173.928 31.0186 174.64 29.7843 175.84 29.4627C177.04 29.1412 178.275 29.8539 178.596 31.0537L179.567 34.676L183.913 33.5113C185.113 33.1898 185.826 31.9555 185.504 30.7556L180.457 11.92C180.136 10.7202 178.901 10.0076 177.702 10.3291L164.662 13.8231ZM168.298 24.4957C168.191 24.0972 168.43 23.6839 168.828 23.5771L170.277 23.1889C170.675 23.0821 171.089 23.3208 171.196 23.7192L171.584 25.1681C171.691 25.5665 171.452 25.9799 171.053 26.0867L169.605 26.4749C169.206 26.5816 168.793 26.343 168.686 25.9446L168.298 24.4957ZM173.175 22.4124L174.624 22.0242C175.022 21.9174 175.435 22.1561 175.542 22.5545L175.93 24.0034C176.037 24.4019 175.799 24.8152 175.4 24.922L173.951 25.3102C173.553 25.417 173.139 25.1783 173.033 24.7799L172.644 23.331C172.538 22.9325 172.776 22.5192 173.175 22.4124ZM176.991 22.1663C176.884 21.7678 177.123 21.3545 177.521 21.2477L178.97 20.8595C179.369 20.7527 179.782 20.9914 179.889 21.3898L180.277 22.8387C180.384 23.2372 180.145 23.6505 179.747 23.7573L178.298 24.1455C177.899 24.2523 177.486 24.0136 177.379 23.6152L176.991 22.1663ZM167.275 17.7816L168.724 17.3933C169.123 17.2866 169.536 17.5252 169.643 17.9237L170.031 19.3725C170.138 19.771 169.899 20.1843 169.501 20.2911L168.052 20.6793C167.653 20.7861 167.24 20.5474 167.133 20.149L166.745 18.7001C166.638 18.3017 166.877 17.8883 167.275 17.7816ZM171.092 17.5354C170.985 17.137 171.223 16.7236 171.622 16.6169L173.071 16.2286C173.469 16.1219 173.883 16.3605 173.989 16.759L174.378 18.2079C174.484 18.6063 174.246 19.0197 173.847 19.1264L172.398 19.5146C172 19.6214 171.587 19.3828 171.48 18.9843L171.092 17.5354ZM175.969 15.4522L177.417 15.064C177.816 14.9572 178.229 15.1958 178.336 15.5943L178.724 17.0432C178.831 17.4416 178.592 17.855 178.194 17.9617L176.745 18.35C176.347 18.4567 175.933 18.2181 175.826 17.8196L175.438 16.3707C175.331 15.9723 175.57 15.5589 175.969 15.4522Z" fill="black" fill-opacity="0.1"/>
</g>
<g clip-path="url(#clip9_1722_48609)">
<path d="M205.093 9.20118C205.505 10.7383 206.51 12.0488 207.888 12.8444C209.267 13.6401 210.904 13.8557 212.441 13.4438C213.978 13.032 215.289 12.0264 216.085 10.6483C216.88 9.27016 217.096 7.63243 216.684 6.09535C216.272 4.55828 215.267 3.24776 213.888 2.45211C212.51 1.65647 210.873 1.44085 209.336 1.85271C207.799 2.26457 206.488 3.27016 205.692 4.64827C204.897 6.02637 204.681 7.6641 205.093 9.20118ZM211.801 17.1193L213.019 18.2973L213.014 24.3112L209.602 18.0966C209.413 17.7541 208.996 17.6088 208.654 17.8022C205.697 19.4438 204.117 22.944 205.033 26.3625C205.239 27.1322 206.03 27.5851 206.795 27.3801L212.758 25.7823C212.758 25.7823 212.758 25.7823 212.763 25.7811L213.012 25.7143L218.083 24.3555L218.332 24.2888C218.332 24.2888 218.332 24.2888 218.336 24.2876L224.299 22.6898C225.069 22.4835 225.522 21.6925 225.317 20.9273C224.401 17.5088 221.282 15.2679 217.9 15.3248C217.509 15.3325 217.22 15.6671 217.227 16.0536L217.379 23.1416L214.368 17.9357L214.834 16.3065C214.994 15.7443 214.482 15.2265 213.92 15.3769L213.024 15.6172L212.132 15.8562C211.57 16.0066 211.387 16.7158 211.805 17.1181L211.801 17.1193Z" fill="black" fill-opacity="0.1"/>
</g>
<g clip-path="url(#clip10_1722_48609)">
<path d="M256.6 14.0351C259.674 13.2114 262.295 11.2002 263.886 8.44402C265.477 5.68781 265.909 2.41235 265.085 -0.661807C264.261 -3.73596 262.25 -6.35698 259.494 -7.94828C256.738 -9.53958 253.462 -9.97081 250.388 -9.14709C247.314 -8.32337 244.693 -6.31219 243.102 -3.55598C241.51 -0.799768 241.079 2.4757 241.903 5.54985C242.726 8.624 244.738 11.245 247.494 12.8363C250.25 14.4276 253.525 14.8588 256.6 14.0351ZM258.04 -1.05497L253.797 6.2935C253.486 6.83316 252.798 7.01756 252.262 6.70478L248.588 4.58346C248.049 4.27189 247.864 3.58367 248.177 3.04855C248.49 2.51342 249.177 2.32448 249.712 2.63727L252.41 4.19511L256.088 -2.18192C256.4 -2.72157 257.088 -2.90598 257.623 -2.5932C258.158 -2.28041 258.347 -1.59341 258.034 -1.05828L258.04 -1.05497Z" fill="black" fill-opacity="0.1"/>
</g>
<g clip-path="url(#clip11_1722_48609)">
<path d="M283.47 -18.0116C282.27 -17.6901 281.558 -16.4558 281.879 -15.2559L286.926 3.57963C287.248 4.77949 288.482 5.49212 289.682 5.17062L294.029 4.00593L293.058 0.383709C292.736 -0.816152 293.449 -2.05047 294.649 -2.37197C295.849 -2.69347 297.083 -1.98084 297.405 -0.780977L298.375 2.84125L302.722 1.67656C303.922 1.35506 304.634 0.120744 304.313 -1.07912L299.266 -19.9147C298.944 -21.1145 297.71 -21.8272 296.51 -21.5057L283.47 -18.0116ZM287.106 -7.33905C287 -7.7375 287.238 -8.15085 287.637 -8.25761L289.086 -8.64584C289.484 -8.7526 289.897 -8.51395 290.004 -8.11551L290.392 -6.66662C290.499 -6.26818 290.26 -5.85482 289.862 -5.74806L288.413 -5.35983C288.015 -5.25307 287.601 -5.49172 287.495 -5.89016L287.106 -7.33905ZM291.983 -9.4223L293.432 -9.81052C293.831 -9.91729 294.244 -9.67864 294.351 -9.28019L294.739 -7.83131C294.846 -7.43286 294.607 -7.01951 294.209 -6.91275L292.76 -6.52452C292.361 -6.41776 291.948 -6.6564 291.841 -7.05485L291.453 -8.50374C291.346 -8.90218 291.585 -9.31553 291.983 -9.4223ZM295.8 -9.66842C295.693 -10.0669 295.932 -10.4802 296.33 -10.587L297.779 -10.9752C298.177 -11.082 298.591 -10.8433 298.697 -10.4449L299.086 -8.99599C299.192 -8.59755 298.954 -8.1842 298.555 -8.07743L297.106 -7.6892C296.708 -7.58244 296.295 -7.82109 296.188 -8.21953L295.8 -9.66842ZM286.084 -14.0532L287.533 -14.4414C287.931 -14.5482 288.344 -14.3095 288.451 -13.9111L288.839 -12.4622C288.946 -12.0637 288.708 -11.6504 288.309 -11.5436L286.86 -11.1554C286.462 -11.0486 286.048 -11.2873 285.942 -11.6857L285.553 -13.1346C285.447 -13.5331 285.685 -13.9464 286.084 -14.0532ZM289.9 -14.2993C289.793 -14.6977 290.032 -15.1111 290.43 -15.2179L291.879 -15.6061C292.278 -15.7128 292.691 -15.4742 292.798 -15.0757L293.186 -13.6269C293.293 -13.2284 293.054 -12.8151 292.656 -12.7083L291.207 -12.3201C290.808 -12.2133 290.395 -12.452 290.288 -12.8504L289.9 -14.2993ZM294.777 -16.3825L296.226 -16.7708C296.624 -16.8775 297.038 -16.6389 297.145 -16.2404L297.533 -14.7915C297.64 -14.3931 297.401 -13.9798 297.002 -13.873L295.554 -13.4848C295.155 -13.378 294.742 -13.6166 294.635 -14.0151L294.247 -15.464C294.14 -15.8624 294.379 -16.2758 294.777 -16.3825Z" fill="black" fill-opacity="0.1"/>
</g>
<g clip-path="url(#clip12_1722_48609)">
<path d="M6.87517 107.866C7.28702 109.403 8.29262 110.713 9.67072 111.509C11.0488 112.305 12.6866 112.52 14.2236 112.108C15.7607 111.696 17.0712 110.691 17.8669 109.313C18.6625 107.935 18.8781 106.297 18.4663 104.76C18.0544 103.223 17.0488 101.912 15.6707 101.117C14.2926 100.321 12.6549 100.105 11.1178 100.517C9.58073 100.929 8.27022 101.935 7.47457 103.313C6.67892 104.691 6.46331 106.329 6.87517 107.866ZM13.5828 115.784L14.801 116.962L14.7965 122.976L11.3842 116.761C11.1954 116.419 10.778 116.273 10.4367 116.467C7.47955 118.108 5.89881 121.609 6.81479 125.027C7.02103 125.797 7.81208 126.25 8.57727 126.045L14.5404 124.447C14.5404 124.447 14.5404 124.447 14.5449 124.446L14.7939 124.379L19.865 123.02L20.114 122.953C20.114 122.953 20.114 122.953 20.1186 122.952L26.0817 121.354C26.8514 121.148 27.3043 120.357 27.0992 119.592C26.1833 116.173 23.0642 113.932 19.6824 113.989C19.2914 113.997 19.0025 114.332 19.009 114.718L19.1612 121.806L16.1503 116.6L16.6164 114.971C16.7763 114.409 16.2639 113.891 15.7025 114.041L14.806 114.282L13.914 114.521C13.3526 114.671 13.1689 115.38 13.5873 115.783L13.5828 115.784Z" fill="black" fill-opacity="0.1"/>
</g>
<g clip-path="url(#clip13_1722_48609)">
<path d="M42.7515 92.0409C41.5516 92.3624 40.839 93.5967 41.1605 94.7966L46.2074 113.632C46.5289 114.832 47.7633 115.545 48.9631 115.223L53.3098 114.058L52.3392 110.436C52.0177 109.236 52.7303 108.002 53.9302 107.681C55.1301 107.359 56.3644 108.072 56.6859 109.272L57.6564 112.894L62.0031 111.729C63.203 111.408 63.9156 110.173 63.5941 108.973L58.5471 90.1378C58.2256 88.938 56.9913 88.2253 55.7915 88.5468L42.7515 92.0409ZM46.3876 102.713C46.2809 102.315 46.5195 101.902 46.9179 101.795L48.3668 101.407C48.7653 101.3 49.1786 101.539 49.2854 101.937L49.6736 103.386C49.7804 103.784 49.5417 104.198 49.1433 104.304L47.6944 104.693C47.296 104.799 46.8826 104.561 46.7758 104.162L46.3876 102.713ZM51.2646 100.63L52.7135 100.242C53.1119 100.135 53.5253 100.374 53.6321 100.772L54.0203 102.221C54.1271 102.62 53.8884 103.033 53.49 103.14L52.0411 103.528C51.6426 103.635 51.2293 103.396 51.1225 102.998L50.7343 101.549C50.6275 101.15 50.8662 100.737 51.2646 100.63ZM55.0809 100.384C54.9742 99.9856 55.2128 99.5723 55.6113 99.4655L57.0602 99.0773C57.4586 98.9705 57.872 99.2092 57.9787 99.6076L58.367 101.056C58.4737 101.455 58.2351 101.868 57.8366 101.975L56.3877 102.363C55.9893 102.47 55.5759 102.231 55.4692 101.833L55.0809 100.384ZM45.365 95.9993L46.8139 95.6111C47.2124 95.5043 47.6257 95.743 47.7325 96.1414L48.1207 97.5903C48.2275 97.9888 47.9888 98.4021 47.5904 98.5089L46.1415 98.8971C45.743 99.0039 45.3297 98.7652 45.2229 98.3668L44.8347 96.9179C44.7279 96.5194 44.9666 96.1061 45.365 95.9993ZM49.1814 95.7532C49.0746 95.3548 49.3133 94.9414 49.7117 94.8346L51.1606 94.4464C51.559 94.3396 51.9724 94.5783 52.0791 94.9767L52.4674 96.4256C52.5741 96.8241 52.3355 97.2374 51.937 97.3442L50.4882 97.7324C50.0897 97.8392 49.6764 97.6005 49.5696 97.2021L49.1814 95.7532ZM54.0584 93.67L55.5073 93.2817C55.9057 93.175 56.319 93.4136 56.4258 93.8121L56.814 95.2609C56.9208 95.6594 56.6822 96.0727 56.2837 96.1795L54.8348 96.5677C54.4364 96.6745 54.023 96.4358 53.9163 96.0374L53.528 94.5885C53.4213 94.1901 53.6599 93.7767 54.0584 93.67Z" fill="black" fill-opacity="0.1"/>
</g>
<g clip-path="url(#clip14_1722_48609)">
<path d="M86.1967 82.7291L92.7167 80.9821C92.9159 80.9287 93.1226 81.048 93.1759 81.2472L93.6612 83.0584L86.4168 84.9995L85.9315 83.1884C85.8781 82.9892 85.9974 82.7825 86.1967 82.7291ZM83.7582 83.7707L84.2434 85.5818L81.3457 86.3583C79.7474 86.7866 78.7961 88.4342 79.2243 90.0325L80.389 94.3792L89.0824 92.0498L94.8779 90.4969L103.571 88.1675L102.407 83.8209C101.978 82.2226 100.331 81.2713 98.7323 81.6996L95.8346 82.476L95.3493 80.6649C94.9744 79.2658 93.5334 78.4339 92.1343 78.8087L85.6143 80.5558C84.2152 80.9307 83.3833 82.3716 83.7582 83.7707ZM103.959 89.6164L95.2661 91.9458L95.6544 93.3947C95.8691 94.1961 95.3951 95.0171 94.5937 95.2318L91.6959 96.0083C90.8945 96.223 90.0736 95.749 89.8588 94.9476L89.4706 93.4987L80.7773 95.8281L82.3302 101.624C82.7584 103.222 84.4061 104.173 86.0044 103.745L103.391 99.0862C104.989 98.658 105.941 97.0103 105.512 95.412L103.959 89.6164Z" fill="black" fill-opacity="0.1"/>
</g>
<g clip-path="url(#clip15_1722_48609)">
<path d="M125.58 69.8472C123.981 70.2754 123.03 71.9231 123.458 73.5214L124.623 77.8681L127.521 77.0916L126.356 72.7449L136.621 69.9946L138.303 70.9658L139.112 73.9858L142.01 73.2093L141.201 70.1893C140.994 69.4196 140.493 68.7628 139.804 68.3651L138.122 67.3939C137.433 66.9962 136.614 66.8906 135.844 67.0968L125.58 69.8472ZM141.441 82.6791L141.83 84.128L142.606 87.0258L131.015 90.1316L130.238 87.2338L130.044 86.5094L129.85 85.7849L141.441 82.6791ZM144.727 83.3516L146.176 82.9633C146.978 82.7486 147.452 81.9276 147.237 81.1262L146.072 76.7795C145.644 75.1812 143.996 74.23 142.398 74.6582L125.011 79.317C123.413 79.7452 122.462 81.3929 122.89 82.9912L124.055 87.3379C124.269 88.1393 125.09 88.6133 125.892 88.3985L127.341 88.0103L128.117 90.9081C128.545 92.5064 130.193 93.4577 131.791 93.0294L143.383 89.9236C144.981 89.4953 145.932 87.8476 145.504 86.2493L144.727 83.3516ZM142.353 77.3879C142.641 77.3107 142.948 77.3511 143.207 77.5003C143.465 77.6495 143.654 77.8952 143.731 78.1834C143.808 78.4716 143.768 78.7787 143.618 79.0371C143.469 79.2954 143.223 79.484 142.935 79.5612C142.647 79.6384 142.34 79.598 142.082 79.4488C141.823 79.2996 141.635 79.0539 141.557 78.7657C141.48 78.4775 141.521 78.1704 141.67 77.9121C141.819 77.6537 142.065 77.4651 142.353 77.3879Z" fill="black" fill-opacity="0.1"/>
</g>
<g clip-path="url(#clip16_1722_48609)">
<path d="M171.199 59.953L177.719 58.206C177.918 58.1526 178.125 58.272 178.178 58.4712L178.663 60.2823L171.419 62.2234L170.933 60.4123C170.88 60.2131 170.999 60.0064 171.199 59.953ZM168.76 60.9947L169.245 62.8058L166.348 63.5822C164.749 64.0105 163.798 65.6582 164.226 67.2565L165.391 71.6031L174.084 69.2738L181.329 67.3326L181.7 67.2331C182.688 65.0709 184.596 63.3514 187.072 62.6878C187.317 62.6223 187.559 62.5671 187.805 62.5254L187.409 61.0448C186.98 59.4465 185.333 58.4952 183.734 58.9235L180.837 59.6999L180.351 57.8888C179.976 56.4898 178.535 55.6578 177.136 56.0327L170.616 57.7797C169.217 58.1546 168.385 59.5956 168.76 60.9947ZM181.045 72.0675L176.698 73.2322C175.896 73.4469 175.076 72.973 174.861 72.1715L174.473 70.7227L165.779 73.052L167.332 78.8476C167.76 80.4459 169.408 81.3972 171.006 80.9689L184.418 77.3754C182.912 76.3034 181.754 74.7163 181.239 72.792C181.173 72.5475 181.118 72.3051 181.076 72.059L181.045 72.0675ZM195.728 68.9097C195.264 67.1805 194.133 65.7061 192.583 64.811C191.032 63.9159 189.19 63.6734 187.461 64.1367C185.731 64.6 184.257 65.7313 183.362 67.2817C182.467 68.8321 182.224 70.6745 182.688 72.4037C183.151 74.1329 184.282 75.6073 185.833 76.5024C187.383 77.3975 189.225 77.64 190.955 77.1767C192.684 76.7134 194.158 75.5821 195.053 74.0317C195.948 72.4813 196.191 70.6389 195.728 68.9097ZM188.237 67.0345C188.635 66.9277 189.049 67.1664 189.156 67.5648L189.738 69.7381L191.187 69.3499C191.585 69.2432 191.999 69.4818 192.105 69.8802C192.212 70.2787 191.973 70.692 191.575 70.7988L189.402 71.3811C189.003 71.4879 188.59 71.2493 188.483 70.8508L187.707 67.953C187.6 67.5546 187.839 67.1412 188.237 67.0345Z" fill="black" fill-opacity="0.1"/>
</g>
<g clip-path="url(#clip17_1722_48609)">
<path d="M216.481 51.7019C216.892 53.239 217.898 54.5495 219.276 55.3452C220.654 56.1408 222.292 56.3564 223.829 55.9446C225.366 55.5327 226.677 54.5271 227.472 53.149C228.268 51.7709 228.484 50.1332 228.072 48.5961C227.66 47.059 226.654 45.7485 225.276 44.9528C223.898 44.1572 222.26 43.9416 220.723 44.3534C219.186 44.7653 217.876 45.7709 217.08 47.149C216.284 48.5271 216.069 50.1648 216.481 51.7019ZM223.188 59.62L224.407 60.798L224.402 66.8119L220.99 60.5974C220.801 60.2549 220.383 60.1095 220.042 60.3029C217.085 61.9445 215.504 65.4448 216.42 68.8632C216.627 69.633 217.418 70.0858 218.183 69.8808L224.146 68.283C224.146 68.283 224.146 68.283 224.15 68.2818L224.399 68.2151L229.47 66.8563L229.72 66.7895C229.72 66.7895 229.72 66.7895 229.724 66.7883L235.687 65.1905C236.457 64.9843 236.91 64.1932 236.705 63.428C235.789 60.0096 232.67 57.7686 229.288 57.8255C228.897 57.8332 228.608 58.1678 228.614 58.5543L228.767 65.6424L225.756 60.4365L226.222 58.8072C226.382 58.2451 225.869 57.7272 225.308 57.8777L224.411 58.1179L223.519 58.3569C222.958 58.5073 222.774 59.2165 223.193 59.6188L223.188 59.62Z" fill="black" fill-opacity="0.1"/>
</g>
<g clip-path="url(#clip18_1722_48609)">
<path d="M259.098 36.4005L265.618 34.6535C265.817 34.6001 266.024 34.7194 266.077 34.9186L266.563 36.7297L259.318 38.6709L258.833 36.8598C258.779 36.6605 258.899 36.4539 259.098 36.4005ZM256.66 37.4421L257.145 39.2532L254.247 40.0297C252.649 40.4579 251.697 42.1056 252.126 43.7039L253.29 48.0506L261.984 45.7212L267.779 44.1683L276.473 41.8389L275.308 37.4923C274.88 35.894 273.232 34.9427 271.634 35.3709L268.736 36.1474L268.251 34.3363C267.876 32.9372 266.435 32.1052 265.036 32.4801L258.516 34.2272C257.117 34.602 256.285 36.043 256.66 37.4421ZM276.861 43.2878L268.168 45.6172L268.556 47.0661C268.77 47.8675 268.296 48.6885 267.495 48.9032L264.597 49.6796C263.796 49.8944 262.975 49.4204 262.76 48.619L262.372 47.1701L253.679 49.4995L255.232 55.295C255.66 56.8933 257.307 57.8446 258.906 57.4163L276.292 52.7576C277.891 52.3293 278.842 50.6817 278.414 49.0834L276.861 43.2878Z" fill="black" fill-opacity="0.1"/>
</g>
<g clip-path="url(#clip19_1722_48609)">
<path d="M294.858 24.4891C293.658 24.8106 292.945 26.0449 293.267 27.2448L298.314 46.0804C298.635 47.2802 299.87 47.9929 301.07 47.6713L305.416 46.5067L304.446 42.8844C304.124 41.6846 304.837 40.4503 306.037 40.1288C307.237 39.8073 308.471 40.5199 308.792 41.7198L309.763 45.342L314.11 44.1773C315.309 43.8558 316.022 42.6215 315.701 41.4216L310.654 22.5861C310.332 21.3862 309.098 20.6736 307.898 20.9951L294.858 24.4891ZM298.494 35.1617C298.387 34.7632 298.626 34.3499 299.024 34.2431L300.473 33.8549C300.872 33.7481 301.285 33.9868 301.392 34.3852L301.78 35.8341C301.887 36.2326 301.648 36.6459 301.25 36.7527L299.801 37.1409C299.402 37.2477 298.989 37.009 298.882 36.6106L298.494 35.1617ZM303.371 33.0784L304.82 32.6902C305.218 32.5834 305.632 32.8221 305.739 33.2205L306.127 34.6694C306.233 35.0679 305.995 35.4812 305.596 35.588L304.148 35.9762C303.749 36.083 303.336 35.8443 303.229 35.4459L302.841 33.997C302.734 33.5985 302.973 33.1852 303.371 33.0784ZM307.187 32.8323C307.081 32.4339 307.319 32.0205 307.718 31.9138L309.167 31.5255C309.565 31.4188 309.978 31.6574 310.085 32.0559L310.473 33.5047C310.58 33.9032 310.342 34.3165 309.943 34.4233L308.494 34.8115C308.096 34.9183 307.682 34.6796 307.576 34.2812L307.187 32.8323ZM297.471 28.4476L298.92 28.0593C299.319 27.9526 299.732 28.1912 299.839 28.5897L300.227 30.0386C300.334 30.437 300.095 30.8504 299.697 30.9571L298.248 31.3453C297.849 31.4521 297.436 31.2135 297.329 30.815L296.941 29.3661C296.834 28.9677 297.073 28.5543 297.471 28.4476ZM301.288 28.2014C301.181 27.803 301.42 27.3896 301.818 27.2829L303.267 26.8947C303.665 26.7879 304.079 27.0265 304.186 27.425L304.574 28.8739C304.681 29.2723 304.442 29.6857 304.043 29.7924L302.595 30.1807C302.196 30.2874 301.783 30.0488 301.676 29.6503L301.288 28.2014ZM306.165 26.1182L307.614 25.73C308.012 25.6232 308.425 25.8619 308.532 26.2603L308.92 27.7092C309.027 28.1076 308.789 28.521 308.39 28.6277L306.941 29.016C306.543 29.1227 306.129 28.8841 306.023 28.4856L305.634 27.0368C305.528 26.6383 305.766 26.225 306.165 26.1182Z" fill="black" fill-opacity="0.1"/>
</g>
<g clip-path="url(#clip20_1722_48609)">
<path d="M335.185 13.6834C333.587 14.1117 332.636 15.7593 333.064 17.3576L334.229 21.7043L337.126 20.9279L335.962 16.5812L346.226 13.8308L347.908 14.802L348.717 17.822L351.615 17.0456L350.806 14.0255C350.6 13.2558 350.099 12.5991 349.41 12.2013L347.728 11.2302C347.039 10.8324 346.219 10.7268 345.45 10.9331L335.185 13.6834ZM351.047 26.5154L351.435 27.9642L352.212 30.862L340.62 33.9679L339.844 31.0701L339.65 30.3456L339.456 29.6212L351.047 26.5154ZM354.333 27.1878L355.782 26.7996C356.583 26.5848 357.057 25.7639 356.842 24.9624L355.678 20.6158C355.249 19.0175 353.602 18.0662 352.003 18.4945L334.617 23.1532C333.018 23.5815 332.067 25.2291 332.495 26.8274L333.66 31.1741C333.875 31.9755 334.696 32.4495 335.497 32.2348L336.946 31.8465L337.723 34.7443C338.151 36.3426 339.799 37.2939 341.397 36.8656L352.988 33.7598C354.586 33.3315 355.538 31.6839 355.109 30.0856L354.333 27.1878ZM351.958 21.2241C352.247 21.1469 352.554 21.1873 352.812 21.3365C353.07 21.4857 353.259 21.7314 353.336 22.0196C353.413 22.3078 353.373 22.6149 353.224 22.8733C353.075 23.1317 352.829 23.3202 352.541 23.3975C352.253 23.4747 351.945 23.4343 351.687 23.2851C351.429 23.1359 351.24 22.8902 351.163 22.602C351.086 22.3138 351.126 22.0067 351.275 21.7483C351.424 21.4899 351.67 21.3014 351.958 21.2241Z" fill="black" fill-opacity="0.1"/>
</g>
<g clip-path="url(#clip21_1722_48609)">
<path d="M378.463 5.19313L379.627 9.5398L382.525 8.76334L381.36 4.41667L390.176 2.05454L391.858 3.02571L392.667 6.04574L395.565 5.26928L394.756 2.24925C394.55 1.47953 394.049 0.82279 393.36 0.425043L391.677 -0.546125C390.989 -0.943872 390.169 -1.04948 389.4 -0.843233L380.584 1.5189C378.986 1.94716 378.034 3.59482 378.463 5.19313ZM373.832 11.0927L377.714 25.5816C377.929 26.383 378.75 26.857 379.551 26.6423L381 26.254C381.801 26.0393 382.275 25.2183 382.061 24.4169L378.178 9.92802C377.964 9.12661 377.143 8.65263 376.341 8.86736L374.892 9.25559C374.091 9.47033 373.617 10.2913 373.832 11.0927ZM395.953 6.71817L380.016 10.9887L383.51 24.0287C383.724 24.8301 384.545 25.3041 385.347 25.0893L399.836 21.2071C400.637 20.9923 401.111 20.1714 400.896 19.3699L397.79 7.77883C397.576 6.97741 396.755 6.50343 395.953 6.71817ZM386.588 12.3335C386.972 12.2306 387.381 12.2845 387.726 12.4834C388.07 12.6823 388.322 13.0099 388.425 13.3942C388.528 13.7785 388.474 14.1879 388.275 14.5324C388.076 14.877 387.748 15.1284 387.364 15.2313C386.98 15.3343 386.57 15.2804 386.226 15.0815C385.881 14.8826 385.63 14.5549 385.527 14.1707C385.424 13.7864 385.478 13.377 385.677 13.0324C385.876 12.6879 386.203 12.4365 386.588 12.3335ZM391.322 12.6178C391.219 12.2335 391.273 11.824 391.472 11.4795C391.671 11.135 391.999 10.8836 392.383 10.7806C392.767 10.6777 393.177 10.7316 393.521 10.9305C393.866 11.1294 394.117 11.457 394.22 11.8413C394.323 12.2256 394.269 12.635 394.07 12.9795C393.871 13.324 393.544 13.5754 393.16 13.6784C392.775 13.7814 392.366 13.7275 392.021 13.5286C391.677 13.3296 391.425 13.002 391.322 12.6178ZM393.936 16.5762C394.32 16.4732 394.73 16.5271 395.074 16.726C395.419 16.925 395.67 17.2526 395.773 17.6368C395.876 18.0211 395.822 18.4306 395.623 18.7751C395.424 19.1196 395.097 19.371 394.712 19.474C394.328 19.5769 393.919 19.523 393.574 19.3241C393.23 19.1252 392.978 18.7976 392.875 18.4133C392.772 18.029 392.826 17.6196 393.025 17.2751C393.224 16.9306 393.552 16.6792 393.936 16.5762ZM387.08 19.9662C386.977 19.582 387.031 19.1725 387.23 18.828C387.429 18.4835 387.756 18.2321 388.14 18.1291C388.525 18.0261 388.934 18.08 389.279 18.279C389.623 18.4779 389.875 18.8055 389.978 19.1898C390.081 19.574 390.027 19.9835 389.828 20.328C389.629 20.6725 389.301 20.9239 388.917 21.0269C388.533 21.1298 388.123 21.0759 387.779 20.877C387.434 20.6781 387.183 20.3505 387.08 19.9662Z" fill="black" fill-opacity="0.1"/>
</g>
<g clip-path="url(#clip22_1722_48609)">
<path d="M-15.5438 159.425C-15.1319 160.962 -14.1263 162.273 -12.7482 163.068C-11.3701 163.864 -9.73239 164.08 -8.19531 163.668C-6.65823 163.256 -5.34772 162.25 -4.55207 160.872C-3.75642 159.494 -3.54081 157.856 -3.95267 156.319C-4.36453 154.782 -5.37012 153.472 -6.74822 152.676C-8.12633 151.88 -9.76406 151.665 -11.3011 152.077C-12.8382 152.488 -14.1487 153.494 -14.9444 154.872C-15.74 156.25 -15.9556 157.888 -15.5438 159.425ZM-8.83617 167.343L-7.61791 168.521L-7.62249 174.535L-11.0347 168.321C-11.2235 167.978 -11.641 167.833 -11.9823 168.026C-14.9394 169.668 -16.5201 173.168 -15.6042 176.586C-15.3979 177.356 -14.6069 177.809 -13.8417 177.604L-7.87859 176.006C-7.87859 176.006 -7.87859 176.006 -7.87406 176.005L-7.62504 175.938L-2.55393 174.579L-2.3049 174.513C-2.3049 174.513 -2.3049 174.513 -2.30037 174.511L3.66271 172.914C4.43243 172.707 4.88532 171.916 4.68028 171.151C3.76431 167.733 0.645212 165.492 -2.73654 165.549C-3.12756 165.556 -3.41642 165.891 -3.40992 166.277L-3.25771 173.366L-6.26863 168.16L-5.80256 166.53C-5.6426 165.968 -6.15502 165.45 -6.71647 165.601L-7.61297 165.841L-8.50494 166.08C-9.06638 166.23 -9.25002 166.94 -8.83165 167.342L-8.83617 167.343Z" fill="black" fill-opacity="0.1"/>
</g>
<g clip-path="url(#clip23_1722_48609)">
<path d="M23.9547 142.63C22.3564 143.058 21.4051 144.706 21.8334 146.304L22.9981 150.651L25.8959 149.874L24.7312 145.527L34.9957 142.777L36.6778 143.748L37.487 146.768L40.3848 145.992L39.5756 142.972C39.3693 142.202 38.8682 141.545 38.1793 141.148L36.4972 140.176C35.8082 139.779 34.9889 139.673 34.2192 139.879L23.9547 142.63ZM39.8164 155.462L40.2046 156.911L40.981 159.808L29.3899 162.914L28.6135 160.016L28.4194 159.292L28.2252 158.567L39.8164 155.462ZM43.1024 156.134L44.5513 155.746C45.3527 155.531 45.8267 154.71 45.6119 153.909L44.4472 149.562C44.019 147.964 42.3713 147.012 40.773 147.441L23.3863 152.099C21.788 152.528 20.8367 154.175 21.265 155.774L22.4297 160.12C22.6444 160.922 23.4654 161.396 24.2668 161.181L25.7157 160.793L26.4922 163.691C26.9204 165.289 28.5681 166.24 30.1664 165.812L41.7575 162.706C43.3558 162.278 44.3071 160.63 43.8788 159.032L43.1024 156.134ZM40.7279 150.17C41.0162 150.093 41.3232 150.134 41.5816 150.283C41.84 150.432 42.0286 150.678 42.1058 150.966C42.183 151.254 42.1426 151.561 41.9934 151.82C41.8442 152.078 41.5985 152.267 41.3103 152.344C41.0221 152.421 40.715 152.381 40.4566 152.231C40.1982 152.082 40.0097 151.836 39.9325 151.548C39.8552 151.26 39.8957 150.953 40.0448 150.695C40.194 150.436 40.4397 150.248 40.7279 150.17Z" fill="black" fill-opacity="0.1"/>
</g>
<g clip-path="url(#clip24_1722_48609)">
<path d="M78.4629 152.871C81.5371 152.047 84.1581 150.036 85.7494 147.28C87.3407 144.524 87.7719 141.248 86.9482 138.174C86.1245 135.1 84.1133 132.479 81.3571 130.888C78.6009 129.296 75.3254 128.865 72.2513 129.689C69.1771 130.512 66.5561 132.524 64.9648 135.28C63.3735 138.036 62.9423 141.312 63.766 144.386C64.5897 147.46 66.6009 150.081 69.3571 151.672C72.1133 153.263 75.3888 153.695 78.4629 152.871ZM79.9033 137.781L75.6606 145.129C75.3491 145.669 74.6608 145.853 74.1257 145.541L70.4515 143.419C69.9118 143.108 69.7274 142.419 70.0402 141.884C70.353 141.349 71.04 141.16 71.5751 141.473L74.2734 143.031L77.9513 136.654C78.2629 136.114 78.9511 135.93 79.4863 136.243C80.0214 136.555 80.2103 137.242 79.8975 137.778L79.9033 137.781Z" fill="black" fill-opacity="0.1"/>
</g>
<g clip-path="url(#clip25_1722_48609)">
<path d="M116.409 130.28C117.946 129.868 119.257 128.863 120.052 127.485C120.848 126.106 121.064 124.469 120.652 122.932C120.24 121.395 119.234 120.084 117.856 119.288C116.478 118.493 114.84 118.277 113.303 118.689C111.766 119.101 110.456 120.106 109.66 121.485C108.864 122.863 108.649 124.5 109.061 126.037C109.473 127.575 110.478 128.885 111.856 129.681C113.234 130.476 114.872 130.692 116.409 130.28ZM112.732 133.944C109.645 135.824 108.03 139.577 109.012 143.244C109.211 143.987 109.975 144.427 110.718 144.228L128.312 139.514C129.055 139.315 129.496 138.551 129.297 137.809C128.314 134.141 125.039 131.699 121.426 131.615L122.042 133.915C123.378 133.901 124.606 134.79 124.967 136.14L125.453 137.951C125.559 138.349 125.321 138.763 124.922 138.869L124.198 139.063C123.799 139.17 123.386 138.932 123.279 138.533C123.173 138.135 123.411 137.721 123.81 137.615L123.518 136.528C123.304 135.727 122.483 135.253 121.681 135.467C120.88 135.682 120.406 136.503 120.621 137.304L120.912 138.391C121.31 138.284 121.724 138.523 121.83 138.921C121.937 139.32 121.699 139.733 121.3 139.84L120.576 140.034C120.177 140.141 119.764 139.902 119.657 139.504L119.172 137.693C118.81 136.343 119.429 134.959 120.593 134.303L119.9 131.718C119.621 131.763 119.341 131.824 119.061 131.899L114.922 133.008C114.642 133.083 114.369 133.171 114.105 133.271L114.898 136.232C116.028 136.264 117.053 137.028 117.361 138.178C117.736 139.577 116.904 141.018 115.505 141.393C114.105 141.768 112.664 140.936 112.29 139.537C111.981 138.387 112.487 137.213 113.449 136.62L112.732 133.944ZM115.116 139.944C115.405 139.867 115.65 139.678 115.799 139.42C115.949 139.161 115.989 138.854 115.912 138.566C115.835 138.278 115.646 138.032 115.388 137.883C115.129 137.734 114.822 137.693 114.534 137.771C114.246 137.848 114 138.036 113.851 138.295C113.702 138.553 113.661 138.86 113.738 139.148C113.816 139.437 114.004 139.682 114.263 139.832C114.521 139.981 114.828 140.021 115.116 139.944Z" fill="black" fill-opacity="0.1"/>
</g>
<g clip-path="url(#clip26_1722_48609)">
<path d="M143.541 113.693C143.326 112.891 143.8 112.07 144.601 111.856L147.499 111.079L150.397 110.303L153.295 109.526C154.096 109.312 154.917 109.786 155.132 110.587C155.346 111.388 154.872 112.209 154.071 112.424L156.143 120.158C155.576 121.698 155.465 123.421 155.922 125.128C156.228 126.269 156.758 127.287 157.451 128.154C156.97 129.491 155.859 130.58 154.383 130.975C151.983 131.618 149.515 130.193 148.872 127.793L145.378 114.753C144.576 114.968 143.755 114.494 143.541 113.693ZM148.275 113.977L149.44 118.324L152.338 117.547L151.173 113.201L148.275 113.977ZM157.371 124.74C156.908 123.01 157.15 121.168 158.045 119.618C158.94 118.067 160.415 116.936 162.144 116.473C163.873 116.009 165.716 116.252 167.266 117.147C168.816 118.042 169.948 119.516 170.411 121.246C170.874 122.975 170.632 124.817 169.737 126.368C168.842 127.918 167.367 129.049 165.638 129.513C163.909 129.976 162.066 129.733 160.516 128.838C158.966 127.943 157.834 126.469 157.371 124.74ZM166.413 120.216C166.057 120.01 165.595 120.134 165.39 120.49L163.378 123.975L161.73 123.023C161.374 122.818 160.912 122.942 160.707 123.297C160.501 123.653 160.625 124.115 160.981 124.321L163.277 125.647C163.633 125.852 164.095 125.728 164.301 125.372L166.687 121.239C166.893 120.883 166.769 120.421 166.413 120.216Z" fill="black" fill-opacity="0.1"/>
</g>
<g clip-path="url(#clip27_1722_48609)">
<path d="M187.438 98.8246C186.238 99.1461 185.525 100.38 185.847 101.58L190.894 120.416C191.215 121.616 192.45 122.328 193.65 122.007L197.996 120.842L197.026 117.22C196.704 116.02 197.417 114.786 198.617 114.464C199.817 114.143 201.051 114.855 201.372 116.055L202.343 119.677L206.69 118.513C207.889 118.191 208.602 116.957 208.281 115.757L203.234 96.9215C202.912 95.7217 201.678 95.009 200.478 95.3305L187.438 98.8246ZM191.074 109.497C190.967 109.099 191.206 108.685 191.604 108.579L193.053 108.19C193.452 108.084 193.865 108.322 193.972 108.721L194.36 110.17C194.467 110.568 194.228 110.981 193.83 111.088L192.381 111.476C191.982 111.583 191.569 111.344 191.462 110.946L191.074 109.497ZM195.951 107.414L197.4 107.026C197.798 106.919 198.212 107.158 198.319 107.556L198.707 109.005C198.814 109.403 198.575 109.817 198.176 109.923L196.728 110.312C196.329 110.418 195.916 110.18 195.809 109.781L195.421 108.332C195.314 107.934 195.553 107.521 195.951 107.414ZM199.767 107.168C199.661 106.769 199.899 106.356 200.298 106.249L201.747 105.861C202.145 105.754 202.558 105.993 202.665 106.391L203.053 107.84C203.16 108.239 202.922 108.652 202.523 108.759L201.074 109.147C200.676 109.254 200.262 109.015 200.156 108.617L199.767 107.168ZM190.052 102.783L191.5 102.395C191.899 102.288 192.312 102.527 192.419 102.925L192.807 104.374C192.914 104.772 192.675 105.186 192.277 105.293L190.828 105.681C190.43 105.788 190.016 105.549 189.909 105.15L189.521 103.702C189.414 103.303 189.653 102.89 190.052 102.783ZM193.868 102.537C193.761 102.138 194 101.725 194.398 101.618L195.847 101.23C196.246 101.123 196.659 101.362 196.766 101.76L197.154 103.209C197.261 103.608 197.022 104.021 196.624 104.128L195.175 104.516C194.776 104.623 194.363 104.384 194.256 103.986L193.868 102.537ZM198.745 100.454L200.194 100.065C200.592 99.9587 201.006 100.197 201.112 100.596L201.501 102.045C201.607 102.443 201.369 102.856 200.97 102.963L199.521 103.351C199.123 103.458 198.71 103.22 198.603 102.821L198.215 101.372C198.108 100.974 198.346 100.56 198.745 100.454Z" fill="black" fill-opacity="0.1"/>
</g>
<g clip-path="url(#clip28_1722_48609)">
<path d="M227.869 94.2026C228.281 95.7397 229.287 97.0502 230.665 97.8459C232.043 98.6415 233.681 98.8571 235.218 98.4453C236.755 98.0334 238.065 97.0278 238.861 95.6497C239.657 94.2716 239.872 92.6339 239.46 91.0968C239.049 89.5597 238.043 88.2492 236.665 87.4536C235.287 86.6579 233.649 86.4423 232.112 86.8542C230.575 87.266 229.264 88.2716 228.469 89.6497C227.673 91.0278 227.457 92.6656 227.869 94.2026ZM234.577 102.121L235.795 103.299L235.791 109.313L232.378 103.098C232.19 102.756 231.772 102.61 231.431 102.804C228.474 104.445 226.893 107.945 227.809 111.364C228.015 112.134 228.806 112.587 229.571 112.382L235.534 110.784C235.534 110.784 235.534 110.784 235.539 110.783L235.788 110.716L240.859 109.357L241.108 109.29C241.108 109.29 241.108 109.29 241.113 109.289L247.076 107.691C247.846 107.485 248.298 106.694 248.093 105.929C247.177 102.51 244.058 100.269 240.677 100.326C240.286 100.334 239.997 100.669 240.003 101.055L240.155 108.143L237.144 102.937L237.611 101.308C237.77 100.746 237.258 100.228 236.697 100.378L235.8 100.619L234.908 100.858C234.347 101.008 234.163 101.717 234.581 102.12L234.577 102.121Z" fill="black" fill-opacity="0.1"/>
</g>
<g clip-path="url(#clip29_1722_48609)">
<path d="M279.376 99.0366C282.45 98.2129 285.071 96.2017 286.662 93.4455C288.254 90.6893 288.685 87.4138 287.861 84.3397C287.038 81.2655 285.026 78.6445 282.27 77.0532C279.514 75.4619 276.239 75.0307 273.164 75.8544C270.09 76.6781 267.469 78.6893 265.878 81.4455C264.287 84.2017 263.855 87.4772 264.679 90.5513C265.503 93.6255 267.514 96.2465 270.27 97.8378C273.026 99.4291 276.302 99.8603 279.376 99.0366ZM280.816 83.9465L276.574 91.295C276.262 91.8346 275.574 92.019 275.039 91.7062L271.365 89.5849C270.825 89.2734 270.641 88.5851 270.953 88.05C271.266 87.5149 271.953 87.3259 272.488 87.6387L275.186 89.1966L278.864 82.8195C279.176 82.2799 279.864 82.0955 280.399 82.4083C280.934 82.7211 281.123 83.4081 280.811 83.9432L280.816 83.9465Z" fill="black" fill-opacity="0.1"/>
</g>
<g clip-path="url(#clip30_1722_48609)">
<path d="M306.247 66.9899C305.047 67.3114 304.334 68.5457 304.656 69.7455L309.703 88.5811C310.024 89.781 311.258 90.4936 312.458 90.1721L316.805 89.0074L315.834 85.3852C315.513 84.1853 316.225 82.951 317.425 82.6295C318.625 82.308 319.859 83.0206 320.181 84.2205L321.152 87.8427L325.498 86.678C326.698 86.3565 327.411 85.1222 327.089 83.9223L322.042 65.0868C321.721 63.8869 320.486 63.1743 319.287 63.4958L306.247 66.9899ZM309.883 77.6624C309.776 77.264 310.015 76.8506 310.413 76.7439L311.862 76.3556C312.26 76.2489 312.674 76.4875 312.781 76.886L313.169 78.3348C313.276 78.7333 313.037 79.1466 312.638 79.2534L311.19 79.6416C310.791 79.7484 310.378 79.5097 310.271 79.1113L309.883 77.6624ZM314.76 75.5792L316.209 75.1909C316.607 75.0842 317.02 75.3228 317.127 75.7213L317.515 77.1702C317.622 77.5686 317.384 77.982 316.985 78.0887L315.536 78.4769C315.138 78.5837 314.724 78.3451 314.618 77.9466L314.229 76.4977C314.123 76.0993 314.361 75.6859 314.76 75.5792ZM318.576 75.333C318.469 74.9346 318.708 74.5212 319.106 74.4145L320.555 74.0263C320.954 73.9195 321.367 74.1581 321.474 74.5566L321.862 76.0055C321.969 76.4039 321.73 76.8173 321.332 76.924L319.883 77.3123C319.484 77.419 319.071 77.1804 318.964 76.7819L318.576 75.333ZM308.86 70.9483L310.309 70.5601C310.707 70.4533 311.121 70.692 311.228 71.0904L311.616 72.5393C311.723 72.9377 311.484 73.3511 311.085 73.4578L309.637 73.8461C309.238 73.9528 308.825 73.7142 308.718 73.3157L308.33 71.8669C308.223 71.4684 308.462 71.0551 308.86 70.9483ZM312.676 70.7022C312.57 70.3037 312.808 69.8904 313.207 69.7836L314.656 69.3954C315.054 69.2886 315.468 69.5273 315.574 69.9257L315.962 71.3746C316.069 71.773 315.831 72.1864 315.432 72.2932L313.983 72.6814C313.585 72.7882 313.171 72.5495 313.065 72.1511L312.676 70.7022ZM317.553 68.6189L319.002 68.2307C319.401 68.1239 319.814 68.3626 319.921 68.761L320.309 70.2099C320.416 70.6084 320.177 71.0217 319.779 71.1285L318.33 71.5167C317.931 71.6235 317.518 71.3848 317.411 70.9864L317.023 69.5375C316.916 69.139 317.155 68.7257 317.553 68.6189Z" fill="black" fill-opacity="0.1"/>
</g>
<g clip-path="url(#clip31_1722_48609)">
<path d="M341.555 60.6349C341.34 59.8334 341.814 59.0125 342.616 58.7977L345.514 58.0213L348.411 57.2448L351.309 56.4684C352.111 56.2536 352.932 56.7276 353.146 57.529C353.361 58.3305 352.887 59.1514 352.086 59.3662L354.158 67.0996C353.59 68.6396 353.479 70.363 353.937 72.0699C354.242 73.2109 354.772 74.2288 355.466 75.096C354.985 76.4333 353.874 77.522 352.398 77.9175C349.998 78.5605 347.529 77.1352 346.886 74.7355L343.392 61.6955C342.591 61.9103 341.77 61.4363 341.555 60.6349ZM346.29 60.9191L347.455 65.2657L350.353 64.4893L349.188 60.1426L346.29 60.9191ZM355.386 71.6817C354.922 69.9525 355.165 68.11 356.06 66.5597C356.955 65.0093 358.429 63.878 360.159 63.4147C361.888 62.9513 363.73 63.1939 365.281 64.089C366.831 64.9841 367.962 66.4584 368.426 68.1876C368.889 69.9169 368.646 71.7593 367.751 73.3097C366.856 74.86 365.382 75.9913 363.653 76.4547C361.923 76.918 360.081 76.6755 358.531 75.7803C356.98 74.8852 355.849 73.4109 355.386 71.6817ZM364.427 67.1577C364.072 66.9522 363.61 67.0759 363.404 67.4318L361.392 70.9166L359.745 69.9653C359.389 69.7598 358.927 69.8836 358.721 70.2395C358.516 70.5955 358.64 71.0573 358.996 71.2628L361.292 72.5886C361.648 72.7941 362.11 72.6704 362.315 72.3144L364.702 68.1809C364.907 67.825 364.783 67.3632 364.427 67.1577Z" fill="black" fill-opacity="0.1"/>
</g>
<g clip-path="url(#clip32_1722_48609)">
<path d="M389.851 47.6939L391.016 52.0405L393.914 51.2641L392.749 46.9174L401.565 44.5553L403.247 45.5264L404.056 48.5465L406.954 47.77L406.145 44.75C405.938 43.9803 405.437 43.3235 404.748 42.9258L403.066 41.9546C402.377 41.5569 401.558 41.4513 400.788 41.6575L391.973 44.0196C390.374 44.4479 389.423 46.0956 389.851 47.6939ZM385.22 53.5934L389.103 68.0823C389.317 68.8837 390.138 69.3577 390.94 69.143L392.389 68.7548C393.19 68.54 393.664 67.7191 393.449 66.9176L389.567 52.4288C389.352 51.6273 388.531 51.1534 387.73 51.3681L386.281 51.7563C385.48 51.9711 385.006 52.792 385.22 53.5934ZM407.342 49.2189L391.404 53.4894L394.898 66.5294C395.113 67.3308 395.934 67.8048 396.735 67.5901L411.224 63.7078C412.026 63.4931 412.5 62.6721 412.285 61.8707L409.179 50.2796C408.964 49.4781 408.143 49.0042 407.342 49.2189ZM397.976 54.8343C398.361 54.7313 398.77 54.7852 399.114 54.9841C399.459 55.183 399.71 55.5107 399.813 55.8949C399.916 56.2792 399.862 56.6886 399.664 57.0332C399.465 57.3777 399.137 57.6291 398.753 57.7321C398.368 57.835 397.959 57.7811 397.614 57.5822C397.27 57.3833 397.019 57.0557 396.916 56.6714C396.813 56.2871 396.867 55.8777 397.065 55.5332C397.264 55.1886 397.592 54.9372 397.976 54.8343ZM402.711 55.1185C402.608 54.7342 402.662 54.3248 402.861 53.9803C403.06 53.6357 403.388 53.3843 403.772 53.2814C404.156 53.1784 404.565 53.2323 404.91 53.4312C405.255 53.6301 405.506 53.9578 405.609 54.342C405.712 54.7263 405.658 55.1357 405.459 55.4803C405.26 55.8248 404.933 56.0762 404.548 56.1791C404.164 56.2821 403.755 56.2282 403.41 56.0293C403.065 55.8304 402.814 55.5028 402.711 55.1185ZM405.325 59.0769C405.709 58.974 406.118 59.0279 406.463 59.2268C406.807 59.4257 407.059 59.7533 407.162 60.1376C407.265 60.5219 407.211 60.9313 407.012 61.2758C406.813 61.6203 406.485 61.8717 406.101 61.9747C405.717 62.0777 405.307 62.0238 404.963 61.8248C404.618 61.6259 404.367 61.2983 404.264 60.914C404.161 60.5298 404.215 60.1203 404.414 59.7758C404.613 59.4313 404.94 59.1799 405.325 59.0769ZM398.468 62.467C398.366 62.0827 398.419 61.6732 398.618 61.3287C398.817 60.9842 399.145 60.7328 399.529 60.6298C399.913 60.5269 400.323 60.5808 400.667 60.7797C401.012 60.9786 401.263 61.3062 401.366 61.6905C401.469 62.0748 401.415 62.4842 401.216 62.8287C401.018 63.1733 400.69 63.4246 400.306 63.5276C399.921 63.6306 399.512 63.5767 399.167 63.3778C398.823 63.1788 398.571 62.8512 398.468 62.467Z" fill="black" fill-opacity="0.1"/>
</g>
<g clip-path="url(#clip33_1722_48609)">
<path d="M148.356 154.849C146.758 155.277 145.807 156.925 146.235 158.523L147.399 162.87L150.297 162.093L149.133 157.746L159.397 154.996L161.079 155.967L161.888 158.987L164.786 158.211L163.977 155.191C163.771 154.421 163.27 153.764 162.581 153.367L160.899 152.395C160.21 151.998 159.39 151.892 158.621 152.098L148.356 154.849ZM164.218 167.681L164.606 169.129L165.382 172.027L153.791 175.133L153.015 172.235L152.821 171.511L152.627 170.786L164.218 167.681ZM167.504 168.353L168.953 167.965C169.754 167.75 170.228 166.929 170.013 166.128L168.849 161.781C168.42 160.183 166.773 159.231 165.174 159.66L147.788 164.318C146.189 164.747 145.238 166.394 145.666 167.993L146.831 172.339C147.046 173.141 147.867 173.615 148.668 173.4L150.117 173.012L150.894 175.91C151.322 177.508 152.969 178.459 154.568 178.031L166.159 174.925C167.757 174.497 168.708 172.849 168.28 171.251L167.504 168.353ZM165.129 162.389C165.418 162.312 165.725 162.353 165.983 162.502C166.241 162.651 166.43 162.897 166.507 163.185C166.584 163.473 166.544 163.78 166.395 164.039C166.246 164.297 166 164.485 165.712 164.563C165.423 164.64 165.116 164.599 164.858 164.45C164.6 164.301 164.411 164.055 164.334 163.767C164.257 163.479 164.297 163.172 164.446 162.914C164.595 162.655 164.841 162.467 165.129 162.389Z" fill="black" fill-opacity="0.1"/>
</g>
<g clip-path="url(#clip34_1722_48609)">
<path d="M193.975 144.955L200.495 143.207C200.694 143.154 200.901 143.273 200.954 143.473L201.44 145.284L194.195 147.225L193.71 145.414C193.656 145.215 193.776 145.008 193.975 144.955ZM191.536 145.996L192.022 147.807L189.124 148.584C187.526 149.012 186.574 150.66 187.003 152.258L188.167 156.605L196.861 154.275L204.105 152.334L204.476 152.235C205.465 150.072 207.372 148.353 209.849 147.689C210.093 147.624 210.336 147.569 210.582 147.527L210.185 146.046C209.757 144.448 208.109 143.497 206.511 143.925L203.613 144.701L203.128 142.89C202.753 141.491 201.312 140.659 199.913 141.034L193.393 142.781C191.994 143.156 191.162 144.597 191.536 145.996ZM203.821 157.069L199.474 158.234C198.673 158.448 197.852 157.974 197.637 157.173L197.249 155.724L188.556 158.053L190.108 163.849C190.537 165.447 192.184 166.399 193.783 165.97L207.194 162.377C205.689 161.305 204.531 159.718 204.015 157.793C203.95 157.549 203.894 157.307 203.853 157.06L203.821 157.069ZM218.504 153.911C218.041 152.182 216.909 150.708 215.359 149.812C213.809 148.917 211.966 148.675 210.237 149.138C208.508 149.602 207.033 150.733 206.138 152.283C205.243 153.834 205.001 155.676 205.464 157.405C205.927 159.134 207.059 160.609 208.609 161.504C210.159 162.399 212.002 162.642 213.731 162.178C215.46 161.715 216.934 160.584 217.83 159.033C218.725 157.483 218.967 155.64 218.504 153.911ZM211.013 152.036C211.412 151.929 211.825 152.168 211.932 152.566L212.514 154.74L213.963 154.351C214.362 154.245 214.775 154.483 214.882 154.882C214.988 155.28 214.75 155.694 214.351 155.8L212.178 156.383C211.78 156.489 211.366 156.251 211.259 155.852L210.483 152.955C210.376 152.556 210.615 152.143 211.013 152.036Z" fill="black" fill-opacity="0.1"/>
</g>
<g clip-path="url(#clip35_1722_48609)">
<path d="M239.257 136.703C239.669 138.24 240.674 139.551 242.053 140.347C243.431 141.142 245.068 141.358 246.605 140.946C248.143 140.534 249.453 139.529 250.249 138.15C251.044 136.772 251.26 135.135 250.848 133.598C250.436 132.06 249.431 130.75 248.053 129.954C246.674 129.159 245.037 128.943 243.5 129.355C241.963 129.767 240.652 130.772 239.856 132.15C239.061 133.529 238.845 135.166 239.257 136.703ZM245.965 144.622L247.183 145.799L247.178 151.813L243.766 145.599C243.577 145.256 243.16 145.111 242.819 145.304C239.861 146.946 238.281 150.446 239.197 153.865C239.403 154.634 240.194 155.087 240.959 154.882L246.922 153.284C246.922 153.284 246.922 153.284 246.927 153.283L247.176 153.217L252.247 151.858L252.496 151.791C252.496 151.791 252.496 151.791 252.5 151.79L258.463 150.192C259.233 149.986 259.686 149.195 259.481 148.43C258.565 145.011 255.446 142.77 252.064 142.827C251.673 142.835 251.384 143.169 251.391 143.556L251.543 150.644L248.532 145.438L248.998 143.809C249.158 143.247 248.646 142.729 248.084 142.879L247.188 143.119L246.296 143.358C245.734 143.509 245.551 144.218 245.969 144.62L245.965 144.622Z" fill="black" fill-opacity="0.1"/>
</g>
<g clip-path="url(#clip36_1722_48609)">
<path d="M281.874 121.402L288.394 119.655C288.594 119.602 288.8 119.721 288.854 119.92L289.339 121.731L282.095 123.672L281.609 121.861C281.556 121.662 281.675 121.455 281.874 121.402ZM279.436 122.444L279.921 124.255L277.023 125.031C275.425 125.459 274.474 127.107 274.902 128.705L276.067 133.052L284.76 130.723L290.556 129.17L299.249 126.84L298.084 122.494C297.656 120.895 296.008 119.944 294.41 120.372L291.512 121.149L291.027 119.338C290.652 117.939 289.211 117.107 287.812 117.482L281.292 119.229C279.893 119.604 279.061 121.044 279.436 122.444ZM299.637 128.289L290.944 130.619L291.332 132.068C291.547 132.869 291.073 133.69 290.271 133.905L287.374 134.681C286.572 134.896 285.751 134.422 285.537 133.62L285.148 132.172L276.455 134.501L278.008 140.296C278.436 141.895 280.084 142.846 281.682 142.418L299.069 137.759C300.667 137.331 301.618 135.683 301.19 134.085L299.637 128.289Z" fill="black" fill-opacity="0.1"/>
</g>
<g clip-path="url(#clip37_1722_48609)">
<path d="M317.634 109.491C316.434 109.812 315.722 111.046 316.043 112.246L321.09 131.082C321.412 132.282 322.646 132.994 323.846 132.673L328.193 131.508L327.222 127.886C326.901 126.686 327.613 125.452 328.813 125.13C330.013 124.809 331.247 125.521 331.569 126.721L332.539 130.343L336.886 129.179C338.086 128.857 338.798 127.623 338.477 126.423L333.43 107.588C333.108 106.388 331.874 105.675 330.674 105.997L317.634 109.491ZM321.27 120.163C321.164 119.765 321.402 119.351 321.801 119.245L323.25 118.856C323.648 118.75 324.061 118.988 324.168 119.387L324.556 120.836C324.663 121.234 324.425 121.647 324.026 121.754L322.577 122.142C322.179 122.249 321.765 122.01 321.659 121.612L321.27 120.163ZM326.147 118.08L327.596 117.692C327.995 117.585 328.408 117.824 328.515 118.222L328.903 119.671C329.01 120.069 328.771 120.483 328.373 120.589L326.924 120.978C326.525 121.084 326.112 120.846 326.005 120.447L325.617 118.998C325.51 118.6 325.749 118.187 326.147 118.08ZM329.964 117.834C329.857 117.435 330.096 117.022 330.494 116.915L331.943 116.527C332.341 116.42 332.755 116.659 332.862 117.057L333.25 118.506C333.357 118.905 333.118 119.318 332.719 119.425L331.271 119.813C330.872 119.92 330.459 119.681 330.352 119.283L329.964 117.834ZM320.248 113.449L321.697 113.061C322.095 112.954 322.509 113.193 322.615 113.591L323.004 115.04C323.11 115.438 322.872 115.852 322.473 115.959L321.024 116.347C320.626 116.454 320.213 116.215 320.106 115.816L319.718 114.368C319.611 113.969 319.849 113.556 320.248 113.449ZM324.064 113.203C323.957 112.804 324.196 112.391 324.595 112.284L326.043 111.896C326.442 111.789 326.855 112.028 326.962 112.426L327.35 113.875C327.457 114.274 327.218 114.687 326.82 114.794L325.371 115.182C324.973 115.289 324.559 115.05 324.452 114.652L324.064 113.203ZM328.941 111.12L330.39 110.731C330.789 110.625 331.202 110.863 331.309 111.262L331.697 112.711C331.804 113.109 331.565 113.522 331.167 113.629L329.718 114.017C329.319 114.124 328.906 113.886 328.799 113.487L328.411 112.038C328.304 111.64 328.543 111.226 328.941 111.12Z" fill="black" fill-opacity="0.1"/>
</g>
<g clip-path="url(#clip38_1722_48609)">
<path d="M357.962 98.6849C356.363 99.1131 355.412 100.761 355.84 102.359L357.005 106.706L359.903 105.929L358.738 101.583L369.003 98.8323L370.685 99.8035L371.494 102.823L374.392 102.047L373.582 99.027C373.376 98.2573 372.875 97.6005 372.186 97.2028L370.504 96.2316C369.815 95.8339 368.996 95.7283 368.226 95.9345L357.962 98.6849ZM373.823 111.517L374.211 112.966L374.988 115.863L363.397 118.969L362.62 116.072L362.426 115.347L362.232 114.623L373.823 111.517ZM377.109 112.189L378.558 111.801C379.36 111.586 379.833 110.765 379.619 109.964L378.454 105.617C378.026 104.019 376.378 103.068 374.78 103.496L357.393 108.155C355.795 108.583 354.844 110.231 355.272 111.829L356.437 116.176C356.651 116.977 357.472 117.451 358.274 117.236L359.723 116.848L360.499 119.746C360.927 121.344 362.575 122.295 364.173 121.867L375.764 118.761C377.363 118.333 378.314 116.685 377.886 115.087L377.109 112.189ZM374.735 106.226C375.023 106.148 375.33 106.189 375.588 106.338C375.847 106.487 376.035 106.733 376.113 107.021C376.19 107.309 376.149 107.616 376 107.875C375.851 108.133 375.605 108.322 375.317 108.399C375.029 108.476 374.722 108.436 374.463 108.287C374.205 108.137 374.017 107.892 373.939 107.603C373.862 107.315 373.902 107.008 374.052 106.75C374.201 106.491 374.447 106.303 374.735 106.226Z" fill="black" fill-opacity="0.1"/>
</g>
<g clip-path="url(#clip39_1722_48609)">
<path d="M401.239 90.1946L402.404 94.5413L405.301 93.7648L404.137 89.4181L412.952 87.056L414.634 88.0272L415.444 91.0472L418.341 90.2707L417.532 87.2507C417.326 86.481 416.825 85.8243 416.136 85.4265L414.454 84.4553C413.765 84.0576 412.946 83.952 412.176 84.1582L403.36 86.5204C401.762 86.9486 400.811 88.5963 401.239 90.1946ZM396.608 96.0942L400.49 110.583C400.705 111.384 401.526 111.858 402.328 111.644L403.776 111.255C404.578 111.041 405.052 110.22 404.837 109.418L400.955 94.9295C400.74 94.1281 399.919 93.6541 399.118 93.8688L397.669 94.2571C396.867 94.4718 396.393 95.2928 396.608 96.0942ZM418.73 91.7196L402.792 95.9901L406.286 109.03C406.501 109.832 407.322 110.306 408.123 110.091L422.612 106.209C423.413 105.994 423.887 105.173 423.673 104.371L420.567 92.7803C420.352 91.9789 419.531 91.5049 418.73 91.7196ZM409.364 97.335C409.748 97.232 410.158 97.286 410.502 97.4849C410.847 97.6838 411.098 98.0114 411.201 98.3957C411.304 98.7799 411.25 99.1894 411.051 99.5339C410.852 99.8784 410.525 100.13 410.14 100.233C409.756 100.336 409.347 100.282 409.002 100.083C408.658 99.884 408.406 99.5564 408.303 99.1721C408.2 98.7879 408.254 98.3784 408.453 98.0339C408.652 97.6894 408.98 97.438 409.364 97.335ZM414.099 97.6192C413.996 97.2349 414.05 96.8255 414.249 96.481C414.448 96.1365 414.775 95.8851 415.159 95.7821C415.544 95.6791 415.953 95.733 416.298 95.9319C416.642 96.1309 416.894 96.4585 416.997 96.8428C417.1 97.227 417.046 97.6365 416.847 97.981C416.648 98.3255 416.32 98.5769 415.936 98.6799C415.552 98.7828 415.142 98.7289 414.798 98.53C414.453 98.3311 414.202 98.0035 414.099 97.6192ZM416.712 101.578C417.097 101.475 417.506 101.529 417.851 101.728C418.195 101.926 418.447 102.254 418.55 102.638C418.652 103.023 418.599 103.432 418.4 103.777C418.201 104.121 417.873 104.372 417.489 104.475C417.105 104.578 416.695 104.524 416.351 104.326C416.006 104.127 415.755 103.799 415.652 103.415C415.549 103.031 415.603 102.621 415.802 102.277C416.001 101.932 416.328 101.681 416.712 101.578ZM409.856 104.968C409.753 104.583 409.807 104.174 410.006 103.829C410.205 103.485 410.533 103.234 410.917 103.131C411.301 103.028 411.711 103.082 412.055 103.28C412.4 103.479 412.651 103.807 412.754 104.191C412.857 104.575 412.803 104.985 412.604 105.329C412.405 105.674 412.078 105.925 411.693 106.028C411.309 106.131 410.9 106.077 410.555 105.878C410.211 105.68 409.959 105.352 409.856 104.968Z" fill="black" fill-opacity="0.1"/>
</g>
<g clip-path="url(#clip40_1722_48609)">
<path d="M302.151 184.038C305.226 183.214 307.847 181.203 309.438 178.447C311.029 175.691 311.46 172.415 310.637 169.341C309.813 166.267 307.802 163.646 305.046 162.055C302.289 160.463 299.014 160.032 295.94 160.856C292.866 161.68 290.245 163.691 288.653 166.447C287.062 169.203 286.631 172.479 287.454 175.553C288.278 178.627 290.289 181.248 293.046 182.839C295.802 184.431 299.077 184.862 302.151 184.038ZM303.592 168.948L299.349 176.296C299.038 176.836 298.349 177.02 297.814 176.708L294.14 174.586C293.6 174.275 293.416 173.587 293.729 173.051C294.041 172.516 294.728 172.327 295.264 172.64L297.962 174.198L301.64 167.821C301.951 167.281 302.64 167.097 303.175 167.41C303.71 167.723 303.899 168.41 303.586 168.945L303.592 168.948Z" fill="black" fill-opacity="0.1"/>
</g>
<g clip-path="url(#clip41_1722_48609)">
<path d="M329.022 151.991C327.822 152.313 327.109 153.547 327.431 154.747L332.478 173.583C332.799 174.782 334.034 175.495 335.234 175.174L339.58 174.009L338.61 170.387C338.288 169.187 339.001 167.952 340.201 167.631C341.401 167.309 342.635 168.022 342.956 169.222L343.927 172.844L348.274 171.679C349.473 171.358 350.186 170.124 349.865 168.924L344.818 150.088C344.496 148.888 343.262 148.176 342.062 148.497L329.022 151.991ZM332.658 162.664C332.551 162.265 332.79 161.852 333.188 161.745L334.637 161.357C335.036 161.25 335.449 161.489 335.556 161.887L335.944 163.336C336.051 163.735 335.812 164.148 335.414 164.255L333.965 164.643C333.566 164.75 333.153 164.511 333.046 164.113L332.658 162.664ZM337.535 160.581L338.984 160.192C339.382 160.086 339.796 160.324 339.903 160.723L340.291 162.172C340.398 162.57 340.159 162.983 339.76 163.09L338.312 163.478C337.913 163.585 337.5 163.347 337.393 162.948L337.005 161.499C336.898 161.101 337.137 160.687 337.535 160.581ZM341.351 160.335C341.245 159.936 341.483 159.523 341.882 159.416L343.331 159.028C343.729 158.921 344.142 159.16 344.249 159.558L344.637 161.007C344.744 161.405 344.506 161.819 344.107 161.925L342.658 162.314C342.26 162.42 341.846 162.182 341.74 161.783L341.351 160.335ZM331.636 155.95L333.084 155.562C333.483 155.455 333.896 155.693 334.003 156.092L334.391 157.541C334.498 157.939 334.259 158.353 333.861 158.459L332.412 158.848C332.014 158.954 331.6 158.716 331.493 158.317L331.105 156.868C330.998 156.47 331.237 156.057 331.636 155.95ZM335.452 155.704C335.345 155.305 335.584 154.892 335.982 154.785L337.431 154.397C337.83 154.29 338.243 154.529 338.35 154.927L338.738 156.376C338.845 156.775 338.606 157.188 338.208 157.295L336.759 157.683C336.36 157.79 335.947 157.551 335.84 157.153L335.452 155.704ZM340.329 153.62L341.778 153.232C342.176 153.125 342.59 153.364 342.696 153.762L343.085 155.211C343.191 155.61 342.953 156.023 342.554 156.13L341.105 156.518C340.707 156.625 340.294 156.386 340.187 155.988L339.799 154.539C339.692 154.141 339.93 153.727 340.329 153.62Z" fill="black" fill-opacity="0.1"/>
</g>
<g clip-path="url(#clip42_1722_48609)">
<path d="M364.331 145.636C364.116 144.835 364.59 144.014 365.391 143.799L368.289 143.023L371.187 142.246L374.085 141.47C374.886 141.255 375.707 141.729 375.922 142.53C376.136 143.332 375.662 144.153 374.861 144.368L376.933 152.101C376.366 153.641 376.255 155.364 376.712 157.071C377.018 158.212 377.548 159.23 378.241 160.098C377.76 161.435 376.649 162.523 375.173 162.919C372.773 163.562 370.305 162.137 369.662 159.737L366.168 146.697C365.366 146.912 364.545 146.438 364.331 145.636ZM369.066 145.921L370.23 150.267L373.128 149.491L371.963 145.144L369.066 145.921ZM378.161 156.683C377.698 154.954 377.94 153.112 378.835 151.561C379.73 150.011 381.205 148.879 382.934 148.416C384.663 147.953 386.506 148.195 388.056 149.09C389.606 149.986 390.738 151.46 391.201 153.189C391.664 154.918 391.422 156.761 390.527 158.311C389.632 159.862 388.157 160.993 386.428 161.456C384.699 161.919 382.856 161.677 381.306 160.782C379.756 159.887 378.624 158.412 378.161 156.683ZM387.203 152.159C386.847 151.954 386.385 152.077 386.18 152.433L384.168 155.918L382.52 154.967C382.164 154.761 381.702 154.885 381.497 155.241C381.291 155.597 381.415 156.059 381.771 156.264L384.067 157.59C384.423 157.796 384.885 157.672 385.091 157.316L387.477 153.182C387.683 152.826 387.559 152.365 387.203 152.159Z" fill="black" fill-opacity="0.1"/>
</g>
<defs>
<clipPath id="clip0_1722_48609">
<rect width="21" height="24" fill="white" transform="translate(-21.7998 18.2333) rotate(-15)"/>
</clipPath>
<clipPath id="clip1_1722_48609">
<rect width="18" height="24" fill="white" transform="translate(17.8027 7.62177) rotate(-15)"/>
</clipPath>
<clipPath id="clip2_1722_48609">
<rect width="24" height="24" fill="white" transform="translate(54.5078 -2.21338) rotate(-15)"/>
</clipPath>
<clipPath id="clip3_1722_48609">
<rect width="24" height="24" fill="white" transform="translate(97.0088 -13.6014) rotate(-15)"/>
</clipPath>
<clipPath id="clip4_1722_48609">
<rect width="24" height="24" fill="white" transform="translate(-4.61719 59.1812) rotate(-15)"/>
</clipPath>
<clipPath id="clip5_1722_48609">
<rect width="24" height="24" fill="white" transform="translate(37.8838 47.7931) rotate(-15)"/>
</clipPath>
<clipPath id="clip6_1722_48609">
<rect width="21" height="24" fill="white" transform="translate(80.3848 36.4051) rotate(-15)"/>
</clipPath>
<clipPath id="clip7_1722_48609">
<rect width="24" height="24" fill="white" transform="translate(119.987 25.7935) rotate(-15)"/>
</clipPath>
<clipPath id="clip8_1722_48609">
<rect width="18" height="24" fill="white" transform="translate(162.488 14.4055) rotate(-15)"/>
</clipPath>
<clipPath id="clip9_1722_48609">
<rect width="21" height="24" fill="white" transform="translate(199.193 4.57031) rotate(-15)"/>
</clipPath>
<clipPath id="clip10_1722_48609">
<rect width="24" height="24" fill="white" transform="translate(238.797 -6.04126) rotate(-15)"/>
</clipPath>
<clipPath id="clip11_1722_48609">
<rect width="18" height="24" fill="white" transform="translate(281.297 -17.4293) rotate(-15)"/>
</clipPath>
<clipPath id="clip12_1722_48609">
<rect width="21" height="24" fill="white" transform="translate(0.975586 103.235) rotate(-15)"/>
</clipPath>
<clipPath id="clip13_1722_48609">
<rect width="18" height="24" fill="white" transform="translate(40.5781 92.6232) rotate(-15)"/>
</clipPath>
<clipPath id="clip14_1722_48609">
<rect width="24" height="24" fill="white" transform="translate(77.2832 82.7881) rotate(-15)"/>
</clipPath>
<clipPath id="clip15_1722_48609">
<rect width="24" height="24" fill="white" transform="translate(119.784 71.4001) rotate(-15)"/>
</clipPath>
<clipPath id="clip16_1722_48609">
<rect width="30" height="24" fill="white" transform="translate(162.285 60.012) rotate(-15)"/>
</clipPath>
<clipPath id="clip17_1722_48609">
<rect width="21" height="24" fill="white" transform="translate(210.581 47.071) rotate(-15)"/>
</clipPath>
<clipPath id="clip18_1722_48609">
<rect width="24" height="24" fill="white" transform="translate(250.185 36.4595) rotate(-15)"/>
</clipPath>
<clipPath id="clip19_1722_48609">
<rect width="18" height="24" fill="white" transform="translate(292.685 25.0715) rotate(-15)"/>
</clipPath>
<clipPath id="clip20_1722_48609">
<rect width="24" height="24" fill="white" transform="translate(329.39 15.2363) rotate(-15)"/>
</clipPath>
<clipPath id="clip21_1722_48609">
<rect width="24" height="24" fill="white" transform="translate(371.891 3.84827) rotate(-15)"/>
</clipPath>
<clipPath id="clip22_1722_48609">
<rect width="21" height="24" fill="white" transform="translate(-21.4434 154.794) rotate(-15)"/>
</clipPath>
<clipPath id="clip23_1722_48609">
<rect width="24" height="24" fill="white" transform="translate(18.1592 144.183) rotate(-15)"/>
</clipPath>
<clipPath id="clip24_1722_48609">
<rect width="24" height="24" fill="white" transform="translate(60.6602 132.795) rotate(-15)"/>
</clipPath>
<clipPath id="clip25_1722_48609">
<rect width="21" height="24" fill="white" transform="translate(103.161 121.407) rotate(-15)"/>
</clipPath>
<clipPath id="clip26_1722_48609">
<rect width="24" height="24" fill="white" transform="translate(142.764 110.795) rotate(-15)"/>
</clipPath>
<clipPath id="clip27_1722_48609">
<rect width="18" height="24" fill="white" transform="translate(185.265 99.4069) rotate(-15)"/>
</clipPath>
<clipPath id="clip28_1722_48609">
<rect width="21" height="24" fill="white" transform="translate(221.97 89.5718) rotate(-15)"/>
</clipPath>
<clipPath id="clip29_1722_48609">
<rect width="24" height="24" fill="white" transform="translate(261.573 78.9602) rotate(-15)"/>
</clipPath>
<clipPath id="clip30_1722_48609">
<rect width="18" height="24" fill="white" transform="translate(304.073 67.5722) rotate(-15)"/>
</clipPath>
<clipPath id="clip31_1722_48609">
<rect width="24" height="24" fill="white" transform="translate(340.778 57.7371) rotate(-15)"/>
</clipPath>
<clipPath id="clip32_1722_48609">
<rect width="24" height="24" fill="white" transform="translate(383.279 46.349) rotate(-15)"/>
</clipPath>
<clipPath id="clip33_1722_48609">
<rect width="24" height="24" fill="white" transform="translate(142.561 156.402) rotate(-15)"/>
</clipPath>
<clipPath id="clip34_1722_48609">
<rect width="30" height="24" fill="white" transform="translate(185.062 145.013) rotate(-15)"/>
</clipPath>
<clipPath id="clip35_1722_48609">
<rect width="21" height="24" fill="white" transform="translate(233.357 132.073) rotate(-15)"/>
</clipPath>
<clipPath id="clip36_1722_48609">
<rect width="24" height="24" fill="white" transform="translate(272.961 121.461) rotate(-15)"/>
</clipPath>
<clipPath id="clip37_1722_48609">
<rect width="18" height="24" fill="white" transform="translate(315.461 110.073) rotate(-15)"/>
</clipPath>
<clipPath id="clip38_1722_48609">
<rect width="24" height="24" fill="white" transform="translate(352.166 100.238) rotate(-15)"/>
</clipPath>
<clipPath id="clip39_1722_48609">
<rect width="24" height="24" fill="white" transform="translate(394.667 88.8497) rotate(-15)"/>
</clipPath>
<clipPath id="clip40_1722_48609">
<rect width="24" height="24" fill="white" transform="translate(284.349 163.962) rotate(-15)"/>
</clipPath>
<clipPath id="clip41_1722_48609">
<rect width="18" height="24" fill="white" transform="translate(326.849 152.574) rotate(-15)"/>
</clipPath>
<clipPath id="clip42_1722_48609">
<rect width="24" height="24" fill="white" transform="translate(363.554 142.739) rotate(-15)"/>
</clipPath>
</defs>
</svg>
