<svg width="396" height="161" viewBox="0 0 396 161" fill="none" xmlns="http://www.w3.org/2000/svg">
<g clip-path="url(#clip0_1722_48831)">
<path d="M16.6074 -16.8525L15.0032 -14.0739L22.4665 -9.76492L24.0707 -12.5436C24.8993 -13.9788 24.408 -15.8126 22.9728 -16.6412L20.7096 -17.9517C19.2743 -18.7803 17.4406 -18.289 16.6119 -16.8537L16.6074 -16.8525ZM14.2541 -12.7764L6.52905 0.610389C6.18433 1.20745 5.99673 1.88374 5.97762 2.57311L5.83429 8.44951C5.82422 8.8647 6.03876 9.24882 6.3947 9.45432C6.75064 9.65983 7.19057 9.65356 7.54179 9.44299L12.5592 6.38066C13.1467 6.01943 13.6386 5.51881 13.9833 4.92175L21.7174 -8.46746L14.2541 -12.7764Z" fill="black" fill-opacity="0.1"/>
</g>
<g clip-path="url(#clip1_1722_48831)">
<path d="M7.7083 31.0842L9.05169 31.8598C10.4869 32.6885 10.9783 34.5222 10.1496 35.9575L8.28023 39.1954L1.73672 35.4213L3.60613 32.1834C4.43477 30.7481 6.26852 30.2568 7.70377 31.0854L7.7083 31.0842ZM-7.45667 51.3513L0.987626 36.7188L7.53236 40.4974L-0.917679 55.1266C-1.13976 55.5113 -1.46064 55.835 -1.84113 56.0632L-6.18969 58.6697C-6.5409 58.8802 -6.97631 58.8853 -7.33225 58.6798C-7.68819 58.4743 -7.90152 58.0947 -7.89476 57.6852L-7.81176 52.616C-7.80565 52.1679 -7.68449 51.7327 -7.46241 51.348L-7.45667 51.3513ZM-1.22797 37.5599L-6.06724 45.9418L-11.0861 43.0403C-12.1596 42.4205 -12.5285 41.044 -11.9098 39.966L-9.31996 35.4868C-8.70014 34.4132 -7.32369 34.0444 -6.2456 34.663L-5.10888 35.3193C-5.11883 35.3365 -5.1333 35.3549 -5.14324 35.3722L-7.26456 39.0464C-7.47007 39.4023 -7.34632 39.8642 -6.99038 40.0697C-6.63443 40.2752 -6.1726 40.1514 -5.9671 39.7955L-3.84578 36.1213C-3.83584 36.104 -3.8271 36.0823 -3.81716 36.0651L-1.22797 37.5599ZM7.91169 42.8367L10.5009 44.3316C10.4909 44.3488 10.4765 44.3672 10.4665 44.3845L8.34519 48.0587C8.13969 48.4146 8.26344 48.8765 8.61938 49.082C8.97532 49.2875 9.43716 49.1637 9.64266 48.8078L11.764 45.1335C11.7739 45.1163 11.7827 45.0946 11.7926 45.0774L12.9305 45.7382C14.0041 46.358 14.3729 47.7344 13.7543 48.8125L11.1644 53.2917C10.5446 54.3653 9.16814 54.7341 8.09005 54.1155L3.07242 51.2186L7.91169 42.8367Z" fill="black" fill-opacity="0.1"/>
</g>
<g clip-path="url(#clip2_1722_48831)">
<path d="M29.3089 26.6893C28.9874 25.4894 29.7 24.2551 30.8999 23.9336L38.1443 21.9924C39.3442 21.6709 40.5785 22.3836 40.9 23.5834L41.4824 25.7568L37.8601 26.7273C37.4617 26.8341 37.223 27.2475 37.3298 27.6459C37.4366 28.0443 37.8499 28.283 38.2484 28.1762L41.8706 27.2057L42.647 30.1034L39.0248 31.074C38.6264 31.1808 38.3877 31.5941 38.4945 31.9926C38.6013 32.391 39.0146 32.6297 39.4131 32.5229L43.0353 31.5523L43.8117 34.4501L40.1895 35.4207C39.7911 35.5274 39.5524 35.9408 39.6592 36.3392C39.7659 36.7377 40.1793 36.9763 40.5777 36.8696L44.2 35.899L44.9764 38.7968L41.3542 39.7673C40.9557 39.8741 40.7171 40.2875 40.8239 40.6859C40.9306 41.0843 41.344 41.323 41.7424 41.2162L45.3646 40.2457L45.947 42.419C46.2685 43.6188 45.5559 44.8532 44.356 45.1747L37.1116 47.1158C35.9117 47.4373 34.6774 46.7247 34.3559 45.5248L29.3089 26.6893Z" fill="black" fill-opacity="0.1"/>
</g>
<g clip-path="url(#clip3_1722_48831)">
<path d="M76.8759 12.9294C77.3464 11.9686 78.2089 11.2571 79.2412 10.9805C81.2153 10.4515 83.2476 11.6249 83.7766 13.599C84.0532 14.6313 83.8694 15.7385 83.2726 16.6263L76.0797 27.3082L75.4884 26.9668L71.8142 24.8455L71.2171 24.5008L76.8759 12.9294ZM70.4635 25.7995L71.0605 26.1442L74.7348 28.2655L75.3318 28.6102L75.4743 32.6193C75.5052 33.4409 75.0816 34.2144 74.3734 34.6322L66.9272 39.0441L70.0893 33.5672C70.2155 33.5674 70.3471 33.5515 70.4784 33.5163C71.2799 33.3016 71.7538 32.4806 71.5391 31.6792C71.3244 30.8778 70.5034 30.4038 69.702 30.6186C68.9006 30.8333 68.4266 31.6543 68.6413 32.4557C68.6765 32.587 68.7274 32.7044 68.7918 32.8181L65.6285 38.2905L65.7287 29.645C65.7365 28.8228 66.1945 28.0692 66.9215 27.6851L70.4647 25.804L70.4635 25.7995Z" fill="black" fill-opacity="0.1"/>
</g>
<g clip-path="url(#clip4_1722_48831)">
<path d="M118.793 1.3192L117.189 4.09784L124.652 8.40677L126.256 5.62813C127.085 4.19288 126.594 2.35913 125.158 1.53049L122.895 0.220026C121.46 -0.608615 119.626 -0.117263 118.797 1.31798L118.793 1.3192ZM116.44 5.3953L108.715 18.7821C108.37 19.3791 108.182 20.0554 108.163 20.7448L108.02 26.6212C108.01 27.0364 108.224 27.4205 108.58 27.626C108.936 27.8315 109.376 27.8253 109.727 27.6147L114.745 24.5523C115.332 24.1911 115.824 23.6905 116.169 23.0934L123.903 9.70423L116.44 5.3953Z" fill="black" fill-opacity="0.1"/>
</g>
<g clip-path="url(#clip5_1722_48831)">
<path d="M161.54 -10.1833L159.695 -6.98101L166.883 -2.83117L168.729 -6.02891C169.455 -7.28618 169.025 -8.88902 167.768 -9.61491L165.126 -11.1441C163.869 -11.87 162.266 -11.4405 161.54 -10.1833ZM158.825 -5.75315L158.443 -5.51476L152.442 -1.81051C151.614 -1.29742 151.083 -0.417507 151.024 0.559065L150.218 13.5964C150.183 14.1541 150.463 14.6906 150.942 14.9748L156.034 6.16116C155.822 5.91231 155.66 5.61599 155.57 5.28093C155.249 4.08107 155.961 2.84676 157.161 2.52525C158.361 2.20375 159.595 2.91638 159.917 4.11625C160.238 5.31611 159.526 6.55042 158.326 6.87192C157.991 6.9617 157.653 6.96965 157.332 6.91025L152.24 15.7284C152.73 15.9999 153.332 15.9795 153.796 15.6659L164.688 8.44773C165.5 7.90989 166.001 7.00888 166.031 6.03506L166.239 -1.01358L166.25 -1.46289L158.825 -5.75315Z" fill="black" fill-opacity="0.1"/>
</g>
<g clip-path="url(#clip6_1722_48831)">
<path d="M190.035 -12.9125C189.037 -13.1788 188.202 -13.9596 187.914 -15.0326C187.486 -16.6309 188.437 -18.2786 190.035 -18.7069C191.109 -18.9944 192.202 -18.6615 192.932 -17.9301L208.195 -22.0199C208.466 -23.0193 209.247 -23.8545 210.32 -24.1421C211.918 -24.5703 213.566 -23.6191 213.994 -22.0208C214.282 -20.9477 213.949 -19.8539 213.217 -19.1241L216.531 -6.75878C217.53 -6.48792 218.364 -5.7117 218.652 -4.63862C219.08 -3.04031 218.129 -1.39265 216.53 -0.964386C215.457 -0.676854 214.364 -1.0098 213.634 -1.74115L198.371 2.34859C198.1 3.34806 197.324 4.18207 196.25 4.4696C194.652 4.89787 193.004 3.94659 192.576 2.34828C192.289 1.2752 192.622 0.181443 193.353 -0.548336L190.04 -12.9137L190.035 -12.9125ZM208.976 -19.1233L193.709 -15.0323C193.573 -14.5252 193.304 -14.0602 192.933 -13.6889L196.246 -1.32358C196.753 -1.18771 197.218 -0.919227 197.59 -0.547973L212.853 -4.63772C212.989 -5.14485 213.257 -5.60987 213.628 -5.98111L210.315 -18.3465C209.808 -18.4823 209.343 -18.7508 208.972 -19.1221L208.976 -19.1233ZM194.874 -12.2389C194.66 -13.0403 195.134 -13.8613 195.935 -14.076L201.731 -15.6289C202.532 -15.8437 203.353 -15.3697 203.568 -14.5683L204.732 -10.2216C204.947 -9.42018 204.473 -8.59922 203.672 -8.38448L197.876 -6.83156C197.075 -6.61683 196.254 -7.09081 196.039 -7.89222L194.874 -12.2389ZM202.611 -6.54736L204.06 -6.93559C205.658 -7.36385 206.61 -9.01152 206.181 -10.6098L205.793 -12.0587L208.691 -12.8352C209.492 -13.0499 210.313 -12.5759 210.528 -11.7745L211.693 -7.42784C211.907 -6.62643 211.433 -5.80547 210.632 -5.59073L204.836 -4.03781C204.035 -3.82307 203.214 -4.29706 202.999 -5.09847L202.611 -6.54736Z" fill="black" fill-opacity="0.1"/>
</g>
<g clip-path="url(#clip7_1722_48831)">
<path d="M-11.5262 82.9259L-13.0621 84.0216C-13.1846 84.1079 -13.2399 84.2634 -13.2011 84.4083C-13.1623 84.5532 -13.0365 84.6602 -12.8874 84.6736L-11.0093 84.8547L-9.91353 86.3906C-9.82733 86.5131 -9.67176 86.5685 -9.52687 86.5296C-9.38199 86.4908 -9.27494 86.3651 -9.26153 86.2159L-9.0805 84.3379L-7.54459 83.2421C-7.4221 83.1559 -7.36673 83.0003 -7.40555 82.8554C-7.44438 82.7105 -7.57012 82.6035 -7.71929 82.5901L-9.59733 82.409L-10.6931 80.8731C-10.7793 80.7506 -10.9349 80.6953 -11.0798 80.7341C-11.2247 80.7729 -11.3317 80.8986 -11.3451 81.0478L-11.5262 82.9259ZM-15.7865 101.183C-16.4064 102.257 -16.0376 103.633 -14.9628 104.258L-12.9764 105.405C-11.9028 106.024 -10.5264 105.656 -9.90203 104.581L2.73519 82.6859C3.35501 81.6124 2.98619 80.2359 1.91142 79.6116L-0.073756 78.4693C-1.14732 77.8494 -2.52376 78.2183 -3.14812 79.293L-15.7865 101.183ZM0.272826 81.7006L-3.20747 87.7287L-4.54512 86.9564L-1.06483 80.9283L0.272826 81.7006ZM-20.9094 89.0555C-21.0926 89.187 -21.1762 89.4181 -21.118 89.6355C-21.0598 89.8528 -20.8717 90.0111 -20.6474 90.0335L-17.832 90.3079L-16.1866 92.6089C-16.0551 92.792 -15.824 92.8757 -15.6066 92.8174C-15.3893 92.7592 -15.231 92.5712 -15.2086 92.3468L-14.9342 89.5314L-12.6332 87.8861C-12.4501 87.7545 -12.3664 87.5234 -12.4247 87.3061C-12.4829 87.0888 -12.6709 86.9305 -12.8953 86.9081L-15.7107 86.6337L-17.356 84.3327C-17.4876 84.1495 -17.7187 84.0659 -17.936 84.1241C-18.1533 84.1823 -18.3116 84.3703 -18.334 84.5947L-18.6084 87.4101L-20.9094 89.0555ZM-1.86582 96.3761C-2.04895 96.5076 -2.13261 96.7387 -2.07438 96.9561C-2.01615 97.1734 -1.82814 97.3317 -1.60377 97.3541L1.21163 97.6285L2.85698 99.9295C2.98855 100.113 3.21964 100.196 3.43697 100.138C3.65431 100.08 3.8126 99.8918 3.83498 99.6674L4.1094 96.852L6.4104 95.2067C6.59352 95.0751 6.67719 94.844 6.61895 94.6267C6.56072 94.4093 6.37272 94.2511 6.14834 94.2287L3.33295 93.9543L1.68759 91.6533C1.55602 91.4701 1.32493 91.3865 1.1076 91.4447C0.890267 91.5029 0.73197 91.6909 0.709593 91.9153L0.435169 94.7307L-1.86582 96.3761Z" fill="black" fill-opacity="0.1"/>
</g>
<g clip-path="url(#clip8_1722_48831)">
<path d="M39.3838 68.149L37.7795 70.9276L45.2428 75.2365L46.8471 72.4579C47.6757 71.0227 47.1844 69.1889 45.7491 68.3603L43.486 67.0498C42.0507 66.2212 40.217 66.7125 39.3883 68.1478L39.3838 68.149ZM37.0304 72.2251L29.3054 85.6119C28.9607 86.2089 28.7731 86.8852 28.754 87.5746L28.6107 93.451C28.6006 93.8662 28.8151 94.2503 29.1711 94.4558C29.527 94.6613 29.9669 94.655 30.3182 94.4445L35.3356 91.3821C35.9231 91.0209 36.4149 90.5203 36.7596 89.9232L44.4937 76.534L37.0304 72.2251Z" fill="black" fill-opacity="0.1"/>
</g>
<g clip-path="url(#clip9_1722_48831)">
<path d="M82.1298 56.6464L80.2848 59.8487L87.4725 63.9985L89.3187 60.8008C90.0446 59.5435 89.6151 57.9407 88.3578 57.2148L85.7158 55.6856C84.4585 54.9597 82.8556 55.3892 82.1298 56.6464ZM79.4151 61.0766L79.0325 61.315L73.0321 65.0192C72.2039 65.5323 71.6729 66.4122 71.6143 67.3888L70.808 80.4261C70.773 80.9838 71.0527 81.5203 71.5316 81.8045L76.624 72.9909C76.4117 72.742 76.2498 72.4457 76.16 72.1106C75.8385 70.9108 76.5512 69.6765 77.751 69.355C78.9509 69.0335 80.1852 69.7461 80.5067 70.946C80.8282 72.1458 80.1156 73.3801 78.9157 73.7016C78.5806 73.7914 78.2431 73.7994 77.9214 73.74L72.8303 82.5581C73.3203 82.8296 73.9215 82.8092 74.3858 82.4956L85.2778 75.2774C86.0897 74.7396 86.5908 73.8386 86.621 72.8648L86.8288 65.8161L86.8394 65.3668L79.4151 61.0766Z" fill="black" fill-opacity="0.1"/>
</g>
<g clip-path="url(#clip10_1722_48831)">
<path d="M115.673 66.9584L117.554 55.0355C117.83 53.2924 118.609 51.6715 119.799 50.3723L125.31 44.3339C125.423 44.2115 125.569 44.1238 125.727 44.0813C126.188 43.953 126.665 44.2282 126.79 44.6945L126.809 44.767C126.84 44.8847 126.848 45.0039 126.837 45.1235L125.939 52.6045C125.91 52.8403 125.93 53.0776 125.991 53.304C126.057 53.5531 126.178 53.7875 126.34 53.9918L133.06 62.2997L123.683 64.8122L123.787 63.0662L125.453 61.9649C125.721 61.7864 125.846 61.4568 125.762 61.1444C125.678 60.832 125.405 60.6092 125.084 60.5884L123.091 60.4673L121.99 58.8019C121.812 58.5388 121.483 58.4136 121.17 58.4973C120.858 58.581 120.635 58.8542 120.614 59.1752L120.493 61.1682L118.828 62.2696C118.56 62.4481 118.435 62.7777 118.519 63.0901C118.603 63.4025 118.876 63.6253 119.197 63.6461L121.19 63.7672L122.152 65.2223L115.673 66.9584ZM122.105 51.914C122.015 51.7779 121.852 51.7147 121.694 51.7572C121.535 51.7996 121.426 51.9356 121.416 52.0984L121.358 53.0943L120.525 53.6427C120.389 53.7326 120.326 53.8951 120.368 54.0536C120.41 54.212 120.546 54.3212 120.709 54.3309L121.705 54.3892L122.254 55.2226C122.343 55.3586 122.506 55.4218 122.664 55.3794C122.823 55.3369 122.932 55.2009 122.942 55.0381L123 54.0422L123.833 53.4938C123.969 53.404 124.033 53.2415 123.99 53.083C123.948 52.9245 123.812 52.8154 123.649 52.8056L122.653 52.7473L122.105 51.914ZM114.612 68.7955L134.897 63.3603C135.698 63.1456 136.519 63.6196 136.734 64.421C136.949 65.2224 136.475 66.0434 135.673 66.2581L115.389 71.6933C114.587 71.9081 113.766 71.4341 113.552 70.6327C113.337 69.8312 113.811 69.0103 114.612 68.7955Z" fill="black" fill-opacity="0.1"/>
</g>
<g clip-path="url(#clip11_1722_48831)">
<path d="M167.132 33.8704L165.287 37.0726L172.474 41.2225L174.321 38.0247C175.047 36.7675 174.617 35.1646 173.36 34.4387L170.718 32.9095C169.46 32.1836 167.858 32.6131 167.132 33.8704ZM164.417 38.3005L164.034 38.5389L158.034 42.2431C157.206 42.7562 156.675 43.6361 156.616 44.6127L155.81 57.65C155.775 58.2077 156.055 58.7443 156.534 59.0284L161.626 50.2148C161.414 49.966 161.252 49.6696 161.162 49.3346C160.84 48.1347 161.553 46.9004 162.753 46.5789C163.953 46.2574 165.187 46.97 165.509 48.1699C165.83 49.3698 165.118 50.6041 163.918 50.9256C163.583 51.0153 163.245 51.0233 162.923 50.9639L157.832 59.7821C158.322 60.0535 158.923 60.0332 159.388 59.7195L170.28 52.5014C171.092 51.9635 171.593 51.0625 171.623 50.0887L171.831 43.0401L171.841 42.5908L164.417 38.3005Z" fill="black" fill-opacity="0.1"/>
</g>
<g clip-path="url(#clip12_1722_48831)">
<path d="M195.628 31.1412C194.63 30.8748 193.794 30.0941 193.507 29.021C193.079 27.4227 194.03 25.775 195.628 25.3468C196.701 25.0592 197.795 25.3922 198.525 26.1235L207.992 23.5867C208.263 22.5872 209.044 21.752 210.117 21.4645C211.715 21.0362 213.363 21.9875 213.791 23.5858C214.079 24.6589 213.746 25.7526 213.015 26.4824L214.387 31.6033C215.386 31.8742 216.22 32.6504 216.508 33.7235C216.936 35.3218 215.985 36.9695 214.386 37.3977C213.313 37.6853 212.22 37.3523 211.49 36.621L202.022 39.1578C201.751 40.1573 200.975 40.9913 199.902 41.2788C198.304 41.7071 196.656 40.7558 196.228 39.1575C195.94 38.0844 196.273 36.9906 197.005 36.2609L195.632 31.14L195.628 31.1412ZM199.301 29.0213C199.165 29.5285 198.897 29.9935 198.526 30.3647L199.898 35.4856C200.405 35.6215 200.87 35.89 201.241 36.2612L210.709 33.7244C210.845 33.2173 211.113 32.7522 211.484 32.381L210.112 27.2601C209.605 27.1242 209.14 26.8557 208.769 26.4845L199.301 29.0213ZM212.653 44.0786C212.383 45.0781 211.606 45.9121 210.533 46.1996C208.935 46.6279 207.287 45.6766 206.859 44.0783C206.571 43.0052 206.904 41.9115 207.636 41.1817L207.143 39.3434L210.041 38.5669L210.534 40.4052C211.041 40.5411 211.506 40.8096 211.877 41.1808L221.345 38.644C221.48 38.1369 221.749 37.6718 222.12 37.3006L220.748 32.1797C220.241 32.0438 219.776 31.7753 219.405 31.4041L217.322 31.9622C216.89 31.3304 216.31 30.8308 215.642 30.4907L215.345 29.3859L218.633 28.5051C218.904 27.5056 219.68 26.6716 220.753 26.3841C222.351 25.9558 223.999 26.9071 224.427 28.5054C224.715 29.5785 224.382 30.6722 223.65 31.402L225.022 36.5229C226.022 36.7938 226.856 37.57 227.143 38.6431C227.572 40.2414 226.62 41.8891 225.022 42.3173C223.949 42.6049 222.855 42.2719 222.126 41.5406L212.658 44.0774L212.653 44.0786Z" fill="black" fill-opacity="0.1"/>
</g>
<g clip-path="url(#clip13_1722_48831)">
<path d="M246.822 11.6294L249.72 10.8529C250.521 10.6382 251.342 11.1122 251.557 11.9136L252.722 16.2603L246.926 17.8132L245.761 13.4665C245.547 12.6651 246.021 11.8441 246.822 11.6294ZM244.132 24.7734C243.489 22.3737 244.914 19.9051 247.314 19.2621L253.11 17.7092C255.509 17.0662 257.978 18.4914 258.621 20.8911L261.145 30.3089C261.466 31.5088 260.753 32.7431 259.554 33.0646L249.411 35.7822C248.211 36.1037 246.977 35.3911 246.656 34.1912L244.132 24.7734ZM255.969 25.4839C255.712 24.5233 255.084 23.7042 254.222 23.2069C253.361 22.7096 252.337 22.5749 251.377 22.8323C250.416 23.0897 249.597 23.7182 249.1 24.5795C248.602 25.4408 248.468 26.4644 248.725 27.4251C248.982 28.3857 249.611 29.2048 250.472 29.7021C251.334 30.1994 252.357 30.3341 253.318 30.0767C254.278 29.8193 255.098 29.1908 255.595 28.3295C256.092 27.4682 256.227 26.4446 255.969 25.4839ZM253.394 12.9743C253.291 12.59 253.345 12.1806 253.544 11.836C253.743 11.4915 254.07 11.2401 254.455 11.1371C254.839 11.0342 255.248 11.0881 255.593 11.287C255.937 11.4859 256.189 11.8135 256.292 12.1978C256.395 12.5821 256.341 12.9915 256.142 13.336C255.943 13.6806 255.615 13.932 255.231 14.0349C254.847 14.1379 254.437 14.084 254.093 13.8851C253.748 13.6862 253.497 13.3585 253.394 12.9743ZM258.801 9.97246C259.186 9.86949 259.595 9.9234 259.939 10.1223C260.284 10.3212 260.535 10.6488 260.638 11.0331C260.741 11.4174 260.687 11.8268 260.489 12.1713C260.29 12.5159 259.962 12.7673 259.578 12.8702C259.193 12.9732 258.784 12.9193 258.439 12.7204C258.095 12.5215 257.844 12.1938 257.741 11.8096C257.638 11.4253 257.692 11.0159 257.89 10.6713C258.089 10.3268 258.417 10.0754 258.801 9.97246ZM262.087 10.6449C261.984 10.2606 262.038 9.85119 262.237 9.50666C262.436 9.16213 262.764 8.91074 263.148 8.80777C263.532 8.70481 263.942 8.75871 264.286 8.95762C264.631 9.15654 264.882 9.48416 264.985 9.86843C265.088 10.2527 265.034 10.6621 264.835 11.0067C264.636 11.3512 264.309 11.6026 263.924 11.7055C263.54 11.8085 263.131 11.7546 262.786 11.5557C262.442 11.3568 262.19 11.0292 262.087 10.6449ZM264.313 13.1544C264.697 13.0515 265.106 13.1054 265.451 13.3043C265.795 13.5032 266.047 13.8308 266.15 14.2151C266.253 14.5994 266.199 15.0088 266 15.3533C265.801 15.6979 265.473 15.9493 265.089 16.0522C264.705 16.1552 264.295 16.1013 263.951 15.9024C263.606 15.7035 263.355 15.3758 263.252 14.9916C263.149 14.6073 263.203 14.1979 263.402 13.8533C263.601 13.5088 263.928 13.2574 264.313 13.1544ZM264.417 19.3382C264.314 18.954 264.368 18.5445 264.566 18.2C264.765 17.8555 265.093 17.6041 265.477 17.5011C265.862 17.3981 266.271 17.452 266.616 17.651C266.96 17.8499 267.211 18.1775 267.314 18.5618C267.417 18.946 267.363 19.3555 267.165 19.7C266.966 20.0445 266.638 20.2959 266.254 20.3989C265.869 20.5018 265.46 20.4479 265.116 20.249C264.771 20.0501 264.52 19.7225 264.417 19.3382ZM259.966 14.3191C260.35 14.2162 260.76 14.2701 261.104 14.469C261.449 14.6679 261.7 14.9955 261.803 15.3798C261.906 15.7641 261.852 16.1735 261.653 16.518C261.454 16.8625 261.127 17.1139 260.742 17.2169C260.358 17.3199 259.949 17.266 259.604 17.067C259.26 16.8681 259.008 16.5405 258.905 16.1562C258.802 15.772 258.856 15.3625 259.055 15.018C259.254 14.6735 259.582 14.4221 259.966 14.3191Z" fill="black" fill-opacity="0.1"/>
</g>
<g clip-path="url(#clip14_1722_48831)">
<path d="M284.11 3.96758C283.788 2.76772 284.501 1.53341 285.701 1.21191L292.945 -0.729235C294.145 -1.05074 295.379 -0.338106 295.701 0.861755L296.283 3.03509L292.661 4.00566C292.262 4.11242 292.024 4.52577 292.131 4.92422C292.237 5.32266 292.651 5.56131 293.049 5.45455L296.671 4.48398L297.448 7.38175L293.826 8.35233C293.427 8.45909 293.189 8.87244 293.295 9.27088C293.402 9.66933 293.815 9.90798 294.214 9.80121L297.836 8.83064L298.613 11.7284L294.99 12.699C294.592 12.8058 294.353 13.2191 294.46 13.6176C294.567 14.016 294.98 14.2546 295.379 14.1479L299.001 13.1773L299.777 16.0751L296.155 17.0457C295.757 17.1524 295.518 17.5658 295.625 17.9642C295.731 18.3627 296.145 18.6013 296.543 18.4945L300.165 17.524L300.748 19.6973C301.069 20.8972 300.357 22.1315 299.157 22.453L291.912 24.3941C290.712 24.7156 289.478 24.003 289.157 22.8031L284.11 3.96758Z" fill="black" fill-opacity="0.1"/>
</g>
<g clip-path="url(#clip15_1722_48831)">
<path d="M317.334 -1.47004C316.336 -1.73637 315.501 -2.51712 315.213 -3.5902C314.785 -5.1885 315.736 -6.83617 317.334 -7.26443C318.407 -7.55197 319.501 -7.21902 320.231 -6.48767L329.699 -9.0245C329.969 -10.024 330.75 -10.8592 331.823 -11.1467C333.421 -11.575 335.069 -10.6237 335.497 -9.0254C335.785 -7.95232 335.452 -6.85856 334.721 -6.12878L336.093 -1.00787C337.092 -0.737006 337.926 0.0392111 338.214 1.11229C338.642 2.7106 337.691 4.35826 336.092 4.78653C335.019 5.07406 333.926 4.74111 333.196 4.00976L323.728 6.54659C323.457 7.54606 322.681 8.38007 321.608 8.6676C320.01 9.09587 318.362 8.14459 317.934 6.54628C317.646 5.4732 317.979 4.37944 318.711 3.64966L317.339 -1.47125L317.334 -1.47004ZM321.007 -3.58989C320.872 -3.08275 320.603 -2.61773 320.232 -2.2465L321.604 2.87442C322.111 3.01029 322.576 3.27877 322.947 3.65003L332.415 1.1132C332.551 0.606062 332.819 0.141042 333.19 -0.230195L331.818 -5.35111C331.311 -5.48698 330.846 -5.75546 330.475 -6.12672L321.007 -3.58989ZM334.359 11.4674C334.089 12.4669 333.312 13.3009 332.239 13.5884C330.641 14.0167 328.993 13.0654 328.565 11.4671C328.278 10.394 328.61 9.30026 329.342 8.57048L328.849 6.7322L331.747 5.95574L332.24 7.79402C332.747 7.92989 333.212 8.19837 333.583 8.56963L343.051 6.0328C343.186 5.52566 343.455 5.06064 343.826 4.68941L342.454 -0.431511C341.947 -0.567385 341.482 -0.835864 341.111 -1.20712L339.028 -0.64904C338.597 -1.2808 338.016 -1.78044 337.348 -2.12054L337.052 -3.22532L340.339 -4.10611C340.61 -5.10558 341.386 -5.93959 342.459 -6.22712C344.057 -6.65538 345.705 -5.7041 346.133 -4.1058C346.421 -3.03271 346.088 -1.93896 345.356 -1.20918L346.728 3.91174C347.728 4.18259 348.562 4.95881 348.849 6.03189C349.278 7.6302 348.326 9.27786 346.728 9.70613C345.655 9.99366 344.561 9.66071 343.832 8.92936L334.364 11.4662L334.359 11.4674Z" fill="black" fill-opacity="0.1"/>
</g>
<g clip-path="url(#clip16_1722_48831)">
<path d="M370.678 -1.36977L372.559 -13.2927C372.835 -15.0358 373.614 -16.6567 374.804 -17.9559L380.315 -23.9942C380.427 -24.1167 380.574 -24.2044 380.732 -24.2469C381.193 -24.3751 381.669 -24.1 381.794 -23.6337L381.814 -23.5612C381.845 -23.4435 381.853 -23.3242 381.841 -23.2047L380.944 -15.7237C380.915 -15.4879 380.935 -15.2505 380.995 -15.0242C381.062 -14.7751 381.183 -14.5407 381.345 -14.3364L388.065 -6.02851L378.688 -3.51594L378.792 -5.26194L380.458 -6.36333C380.725 -6.5418 380.851 -6.87137 380.767 -7.18379C380.683 -7.4962 380.41 -7.71902 380.089 -7.73977L378.096 -7.86088L376.995 -9.52632C376.817 -9.78941 376.488 -9.91462 376.175 -9.83091C375.863 -9.7472 375.64 -9.47397 375.619 -9.15297L375.498 -7.15997L373.833 -6.05858C373.565 -5.88011 373.44 -5.55053 373.524 -5.23812C373.607 -4.9257 373.881 -4.70289 374.202 -4.68213L376.195 -4.56102L377.157 -3.10588L370.678 -1.36977ZM377.11 -16.4142C377.02 -16.5503 376.857 -16.6135 376.699 -16.571C376.54 -16.5286 376.431 -16.3926 376.421 -16.2298L376.363 -15.2339L375.53 -14.6855C375.394 -14.5956 375.33 -14.4331 375.373 -14.2746C375.415 -14.1162 375.551 -14.007 375.714 -13.9972L376.71 -13.939L377.258 -13.1056C377.348 -12.9696 377.511 -12.9063 377.669 -12.9488C377.828 -12.9913 377.937 -13.1273 377.947 -13.29L378.005 -14.2859L378.838 -14.8344C378.974 -14.9242 379.038 -15.0867 378.995 -15.2452C378.953 -15.4037 378.817 -15.5128 378.654 -15.5226L377.658 -15.5809L377.11 -16.4142ZM369.617 0.46735L389.902 -4.96785C390.703 -5.18259 391.524 -4.70861 391.739 -3.90719C391.954 -3.10577 391.48 -2.28481 390.678 -2.07007L370.394 3.36513C369.592 3.57987 368.771 3.10588 368.557 2.30447C368.342 1.50305 368.816 0.682089 369.617 0.46735Z" fill="black" fill-opacity="0.1"/>
</g>
<g clip-path="url(#clip17_1722_48831)">
<path d="M30.4837 116.086L31.8271 116.861C33.2623 117.69 33.7537 119.524 32.925 120.959L31.0556 124.197L24.5121 120.423L26.3815 117.185C27.2102 115.75 29.0439 115.258 30.4792 116.087L30.4837 116.086ZM15.3187 136.353L23.763 121.72L30.3077 125.499L21.8577 140.128C21.6356 140.513 21.3147 140.837 20.9343 141.065L16.5857 143.671C16.2345 143.882 15.7991 143.887 15.4431 143.681C15.0872 143.476 14.8739 143.096 14.8806 142.687L14.9636 137.617C14.9697 137.169 15.0909 136.734 15.313 136.349L15.3187 136.353ZM21.5474 122.561L16.7082 130.943L11.6893 128.042C10.6157 127.422 10.2469 126.046 10.8655 124.967L13.4554 120.488C14.0753 119.415 15.4517 119.046 16.5298 119.664L17.6665 120.321C17.6566 120.338 17.6421 120.356 17.6321 120.374L15.5108 124.048C15.3053 124.404 15.4291 124.866 15.785 125.071C16.141 125.277 16.6028 125.153 16.8083 124.797L18.9296 121.123C18.9396 121.105 18.9483 121.084 18.9582 121.067L21.5474 122.561ZM30.6871 127.838L33.2763 129.333C33.2663 129.35 33.2518 129.369 33.2419 129.386L31.1206 133.06C30.9151 133.416 31.0388 133.878 31.3948 134.083C31.7507 134.289 32.2125 134.165 32.418 133.809L34.5394 130.135C34.5493 130.118 34.558 130.096 34.568 130.079L35.7059 130.74C36.7795 131.359 37.1483 132.736 36.5297 133.814L33.9398 138.293C33.32 139.367 31.9435 139.736 30.8654 139.117L25.8478 136.22L30.6871 127.838Z" fill="black" fill-opacity="0.1"/>
</g>
<g clip-path="url(#clip18_1722_48831)">
<path d="M52.0843 111.691C51.7628 110.491 52.4754 109.257 53.6753 108.935L60.9197 106.994C62.1196 106.672 63.3539 107.385 63.6754 108.585L64.2577 110.758L60.6355 111.729C60.2371 111.836 59.9984 112.249 60.1052 112.647C60.212 113.046 60.6253 113.284 61.0238 113.178L64.646 112.207L65.4224 115.105L61.8002 116.075C61.4018 116.182 61.1631 116.596 61.2699 116.994C61.3766 117.392 61.79 117.631 62.1884 117.524L65.8107 116.554L66.5871 119.452L62.9649 120.422C62.5665 120.529 62.3278 120.942 62.4346 121.341C62.5413 121.739 62.9547 121.978 63.3531 121.871L66.9753 120.9L67.7518 123.798L64.1296 124.769C63.7311 124.876 63.4925 125.289 63.5993 125.687C63.706 126.086 64.1194 126.324 64.5178 126.218L68.14 125.247L68.7224 127.42C69.0439 128.62 68.3312 129.855 67.1314 130.176L59.8869 132.117C58.6871 132.439 57.4528 131.726 57.1313 130.526L52.0843 111.691Z" fill="black" fill-opacity="0.1"/>
</g>
<g clip-path="url(#clip19_1722_48831)">
<path d="M99.6513 97.9308C100.122 96.9701 100.984 96.2586 102.017 95.9819C103.991 95.453 106.023 96.6263 106.552 98.6005C106.829 99.6328 106.645 100.74 106.048 101.628L98.8551 112.31L98.2638 111.968L94.5895 109.847L93.9925 109.502L99.6513 97.9308ZM93.2389 110.801L93.8359 111.146L97.5102 113.267L98.1072 113.612L98.2497 117.621C98.2806 118.442 97.857 119.216 97.1488 119.634L89.7026 124.046L92.8647 118.569C92.9909 118.569 93.1225 118.553 93.2538 118.518C94.0553 118.303 94.5292 117.482 94.3145 116.681C94.0998 115.879 93.2788 115.405 92.4774 115.62C91.676 115.835 91.202 116.656 91.4167 117.457C91.4519 117.588 91.5028 117.706 91.5672 117.82L88.4039 123.292L88.5041 114.646C88.5119 113.824 88.9699 113.071 89.6968 112.687L93.2401 110.805L93.2389 110.801Z" fill="black" fill-opacity="0.1"/>
</g>
<g clip-path="url(#clip20_1722_48831)">
<path d="M141.568 86.3207L139.964 89.0993L147.427 93.4082L149.032 90.6296C149.86 89.1943 149.369 87.3606 147.934 86.532L145.671 85.2215C144.235 84.3928 142.402 84.8842 141.573 86.3194L141.568 86.3207ZM139.215 90.3968L131.49 103.784C131.145 104.381 130.958 105.057 130.939 105.746L130.795 111.623C130.785 112.038 131 112.422 131.356 112.627C131.712 112.833 132.152 112.827 132.503 112.616L137.52 109.554C138.108 109.193 138.6 108.692 138.944 108.095L146.678 94.7057L139.215 90.3968Z" fill="black" fill-opacity="0.1"/>
</g>
<g clip-path="url(#clip21_1722_48831)">
<path d="M184.315 74.8182L182.47 78.0205L189.658 82.1703L191.504 78.9726C192.23 77.7153 191.801 76.1124 190.543 75.3866L187.901 73.8573C186.644 73.1314 185.041 73.5609 184.315 74.8182ZM181.601 79.2483L181.218 79.4867L175.218 83.191C174.389 83.704 173.858 84.584 173.8 85.5605L172.994 98.5978C172.959 99.1556 173.238 99.6921 173.717 99.9763L178.81 91.1626C178.597 90.9138 178.435 90.6175 178.346 90.2824C178.024 89.0825 178.737 87.8482 179.937 87.5267C181.136 87.2052 182.371 87.9178 182.692 89.1177C183.014 90.3176 182.301 91.5519 181.101 91.8734C180.766 91.9632 180.429 91.9711 180.107 91.9117L175.016 100.73C175.506 101.001 176.107 100.981 176.571 100.667L187.463 93.4492C188.275 92.9114 188.776 92.0103 188.807 91.0365L189.014 83.9879L189.025 83.5386L181.601 79.2483Z" fill="black" fill-opacity="0.1"/>
</g>
<g clip-path="url(#clip22_1722_48831)">
<path d="M212.811 72.089C211.812 71.8227 210.977 71.0419 210.69 69.9688C210.261 68.3705 211.213 66.7229 212.811 66.2946C213.884 66.0071 214.978 66.34 215.707 67.0714L230.971 62.9816C231.241 61.9821 232.022 61.1469 233.095 60.8594C234.694 60.4311 236.341 61.3824 236.77 62.9807C237.057 64.0538 236.724 65.1475 235.993 65.8773L239.306 78.2427C240.306 78.5135 241.14 79.2898 241.427 80.3628C241.855 81.9612 240.904 83.6088 239.306 84.0371C238.233 84.3246 237.139 83.9917 236.409 83.2603L221.146 87.3501C220.875 88.3495 220.099 89.1835 219.026 89.4711C217.428 89.8993 215.78 88.9481 215.352 87.3497C215.064 86.2767 215.397 85.1829 216.128 84.4531L212.815 72.0878L212.811 72.089ZM231.752 65.8782L216.484 69.9691C216.348 70.4763 216.08 70.9413 215.708 71.3125L219.022 83.6779C219.529 83.8138 219.994 84.0822 220.365 84.4535L235.628 80.3637C235.764 79.8566 236.033 79.3916 236.404 79.0204L233.09 66.655C232.583 66.5191 232.118 66.2506 231.747 65.8794L231.752 65.8782ZM217.65 72.7626C217.435 71.9612 217.909 71.1402 218.71 70.9255L224.506 69.3725C225.307 69.1578 226.128 69.6318 226.343 70.4332L227.508 74.7799C227.723 75.5813 227.249 76.4022 226.447 76.617L220.652 78.1699C219.85 78.3846 219.029 77.9107 218.814 77.1092L217.65 72.7626ZM225.386 78.4541L226.835 78.0659C228.434 77.6376 229.385 75.9899 228.957 74.3916L228.568 72.9428L231.466 72.1663C232.268 71.9516 233.089 72.4255 233.303 73.227L234.468 77.5736C234.683 78.375 234.209 79.196 233.407 79.4107L227.612 80.9637C226.81 81.1784 225.989 80.7044 225.775 79.903L225.386 78.4541Z" fill="black" fill-opacity="0.1"/>
</g>
<g clip-path="url(#clip23_1722_48831)">
<path d="M255.7 56.3554C255.485 55.554 255.959 54.7331 256.76 54.5183L262.556 52.9654C263.357 52.7507 264.178 53.2247 264.393 54.0261L269.052 71.4127C269.695 73.8125 268.27 76.2811 265.87 76.9241C263.47 77.5671 261.001 76.1418 260.358 73.7421L255.7 56.3554ZM270.603 71.4776C270.576 71.3246 270.541 71.1739 270.501 71.0245L267.322 59.1617L269.821 54.833C270.236 54.1154 271.155 53.8691 271.872 54.2834L277.068 57.2831C277.786 57.6974 278.032 58.6166 277.618 59.3342L270.603 71.4776ZM269.8 75.871L276.164 64.8483L280.927 63.572C281.729 63.3573 282.55 63.8313 282.764 64.6327L284.317 70.4282C284.532 71.2296 284.058 72.0506 283.257 72.2653L269.8 75.871ZM261.884 56.2514L258.986 57.0279L259.762 59.9257L262.66 59.1492L261.884 56.2514ZM260.539 62.8234L261.315 65.7212L264.213 64.9448L263.436 62.047L260.539 62.8234ZM264.996 73.6641C265.285 73.5869 265.53 73.3983 265.679 73.1399C265.829 72.8815 265.869 72.5745 265.792 72.2863C265.715 71.998 265.526 71.7523 265.268 71.6031C265.009 71.454 264.702 71.4135 264.414 71.4908C264.126 71.568 263.88 71.7565 263.731 72.0149C263.582 72.2733 263.541 72.5804 263.618 72.8686C263.696 73.1568 263.884 73.4025 264.143 73.5517C264.401 73.7009 264.708 73.7413 264.996 73.6641Z" fill="black" fill-opacity="0.1"/>
</g>
<g clip-path="url(#clip24_1722_48831)">
<path d="M300.71 48.5365C299.712 48.2702 298.876 47.4894 298.589 46.4163C298.161 44.818 299.112 43.1704 300.71 42.7421C301.783 42.4546 302.877 42.7875 303.607 43.5189L313.074 40.982C313.345 39.9826 314.126 39.1473 315.199 38.8598C316.797 38.4315 318.445 39.3828 318.873 40.9811C319.161 42.0542 318.828 43.148 318.097 43.8777L319.469 48.9987C320.468 49.2695 321.302 50.0457 321.59 51.1188C322.018 52.7171 321.067 54.3648 319.468 54.7931C318.395 55.0806 317.302 54.7476 316.572 54.0163L307.104 56.5531C306.833 57.5526 306.057 58.3866 304.984 58.6741C303.386 59.1024 301.738 58.1511 301.31 56.5528C301.022 55.4797 301.355 54.386 302.087 53.6562L300.714 48.5353L300.71 48.5365ZM304.383 46.4166C304.247 46.9238 303.979 47.3888 303.608 47.76L304.98 52.881C305.487 53.0168 305.952 53.2853 306.323 53.6566L315.791 51.1197C315.927 50.6126 316.195 50.1476 316.566 49.7763L315.194 44.6554C314.687 44.5195 314.222 44.2511 313.851 43.8798L304.383 46.4166ZM317.735 61.4739C317.465 62.4734 316.688 63.3074 315.615 63.5949C314.017 64.0232 312.369 63.0719 311.941 61.4736C311.654 60.4005 311.986 59.3068 312.718 58.577L312.225 56.7387L315.123 55.9623L315.616 57.8006C316.123 57.9364 316.588 58.2049 316.959 58.5762L326.427 56.0393C326.562 55.5322 326.831 55.0672 327.202 54.6959L325.83 49.575C325.323 49.4391 324.858 49.1707 324.487 48.7994L322.404 49.3575C321.973 48.7257 321.392 48.2261 320.724 47.886L320.428 46.7812L323.715 45.9004C323.986 44.9009 324.762 44.0669 325.835 43.7794C327.433 43.3511 329.081 44.3024 329.509 45.9007C329.797 46.9738 329.464 48.0676 328.732 48.7973L330.104 53.9183C331.104 54.1891 331.938 54.9653 332.225 56.0384C332.654 57.6367 331.702 59.2844 330.104 59.7127C329.031 60.0002 327.937 59.6672 327.208 58.9359L317.74 61.4727L317.735 61.4739Z" fill="black" fill-opacity="0.1"/>
</g>
<g clip-path="url(#clip25_1722_48831)">
<path d="M354.054 48.6367L355.935 36.7138C356.211 34.9706 356.99 33.3498 358.18 32.0506L363.691 26.0122C363.803 25.8898 363.95 25.8021 364.108 25.7596C364.569 25.6313 365.045 25.9064 365.17 26.3728L365.19 26.4452C365.221 26.563 365.229 26.6822 365.217 26.8018L364.32 34.2828C364.291 34.5186 364.311 34.7559 364.371 34.9823C364.438 35.2313 364.559 35.4658 364.721 35.67L371.441 43.978L362.064 46.4905L362.168 44.7445L363.834 43.6431C364.101 43.4647 364.227 43.1351 364.143 42.8227C364.059 42.5103 363.786 42.2875 363.465 42.2667L361.472 42.1456L360.371 40.4802C360.193 40.2171 359.864 40.0918 359.551 40.1756C359.239 40.2593 359.016 40.5325 358.995 40.8535L358.874 42.8465L357.209 43.9479C356.941 44.1264 356.816 44.4559 356.9 44.7684C356.983 45.0808 357.257 45.3036 357.578 45.3243L359.571 45.4454L360.533 46.9006L354.054 48.6367ZM360.486 33.5923C360.396 33.4562 360.233 33.393 360.075 33.4354C359.916 33.4779 359.807 33.6139 359.797 33.7767L359.739 34.7726L358.906 35.321C358.77 35.4108 358.706 35.5734 358.749 35.7318C358.791 35.8903 358.927 35.9995 359.09 36.0092L360.086 36.0675L360.634 36.9008C360.724 37.0369 360.887 37.1001 361.045 37.0577C361.204 37.0152 361.313 36.8792 361.323 36.7164L361.381 35.7205L362.214 35.1721C362.35 35.0823 362.414 34.9197 362.371 34.7613C362.329 34.6028 362.193 34.4936 362.03 34.4839L361.034 34.4256L360.486 33.5923ZM352.993 50.4738L373.278 45.0386C374.079 44.8239 374.9 45.2979 375.115 46.0993C375.33 46.9007 374.856 47.7217 374.054 47.9364L353.77 53.3716C352.968 53.5863 352.147 53.1124 351.933 52.3109C351.718 51.5095 352.192 50.6886 352.993 50.4738Z" fill="black" fill-opacity="0.1"/>
</g>
<g clip-path="url(#clip26_1722_48831)">
<path d="M394.405 17.6366L397.303 16.8601C398.104 16.6454 398.925 17.1194 399.14 17.9208L400.305 22.2675L394.509 23.8204L393.344 19.4737C393.13 18.6723 393.604 17.8513 394.405 17.6366ZM391.715 30.7806C391.072 28.3809 392.497 25.9123 394.897 25.2693L400.693 23.7164C403.092 23.0734 405.561 24.4986 406.204 26.8983L408.728 36.3161C409.049 37.516 408.336 38.7503 407.137 39.0718L396.994 41.7894C395.795 42.1109 394.56 41.3983 394.239 40.1984L391.715 30.7806ZM403.552 31.4911C403.295 30.5305 402.667 29.7114 401.805 29.2141C400.944 28.7168 399.92 28.5821 398.96 28.8395C397.999 29.0969 397.18 29.7254 396.683 30.5867C396.185 31.448 396.051 32.4716 396.308 33.4323C396.565 34.3929 397.194 35.212 398.055 35.7093C398.917 36.2066 399.94 36.3413 400.901 36.0839C401.861 35.8265 402.681 35.198 403.178 34.3367C403.675 33.4754 403.81 32.4518 403.552 31.4911ZM400.977 18.9815C400.874 18.5972 400.928 18.1878 401.127 17.8432C401.326 17.4987 401.653 17.2473 402.038 17.1443C402.422 17.0414 402.831 17.0953 403.176 17.2942C403.52 17.4931 403.772 17.8207 403.875 18.205C403.978 18.5893 403.924 18.9987 403.725 19.3432C403.526 19.6878 403.198 19.9392 402.814 20.0421C402.43 20.1451 402.02 20.0912 401.676 19.8923C401.331 19.6934 401.08 19.3657 400.977 18.9815ZM406.384 15.9797C406.769 15.8767 407.178 15.9306 407.522 16.1295C407.867 16.3284 408.118 16.6561 408.221 17.0403C408.324 17.4246 408.27 17.834 408.072 18.1785C407.873 18.5231 407.545 18.7745 407.161 18.8774C406.776 18.9804 406.367 18.9265 406.022 18.7276C405.678 18.5287 405.427 18.201 405.324 17.8168C405.221 17.4325 405.275 17.0231 405.473 16.6785C405.672 16.334 406 16.0826 406.384 15.9797ZM409.67 16.6521C409.567 16.2678 409.621 15.8584 409.82 15.5139C410.019 15.1693 410.347 14.9179 410.731 14.815C411.115 14.712 411.525 14.7659 411.869 14.9648C412.214 15.1637 412.465 15.4914 412.568 15.8756C412.671 16.2599 412.617 16.6693 412.418 17.0139C412.219 17.3584 411.892 17.6098 411.507 17.7128C411.123 17.8157 410.714 17.7618 410.369 17.5629C410.025 17.364 409.773 17.0364 409.67 16.6521ZM411.896 19.1616C412.28 19.0587 412.689 19.1126 413.034 19.3115C413.378 19.5104 413.63 19.838 413.733 20.2223C413.836 20.6066 413.782 21.016 413.583 21.3605C413.384 21.7051 413.056 21.9565 412.672 22.0594C412.288 22.1624 411.878 22.1085 411.534 21.9096C411.189 21.7107 410.938 21.383 410.835 20.9988C410.732 20.6145 410.786 20.2051 410.985 19.8605C411.184 19.516 411.511 19.2646 411.896 19.1616ZM412 25.3454C411.897 24.9612 411.951 24.5517 412.149 24.2072C412.348 23.8627 412.676 23.6113 413.06 23.5083C413.445 23.4053 413.854 23.4592 414.199 23.6582C414.543 23.8571 414.794 24.1847 414.897 24.569C415 24.9532 414.946 25.3627 414.748 25.7072C414.549 26.0517 414.221 26.3031 413.837 26.4061C413.452 26.509 413.043 26.4551 412.699 26.2562C412.354 26.0573 412.103 25.7297 412 25.3454ZM407.549 20.3263C407.933 20.2234 408.343 20.2773 408.687 20.4762C409.032 20.6751 409.283 21.0027 409.386 21.387C409.489 21.7713 409.435 22.1807 409.236 22.5252C409.037 22.8697 408.71 23.1211 408.325 23.2241C407.941 23.3271 407.532 23.2732 407.187 23.0743C406.843 22.8753 406.591 22.5477 406.488 22.1634C406.385 21.7792 406.439 21.3697 406.638 21.0252C406.837 20.6807 407.165 20.4293 407.549 20.3263Z" fill="black" fill-opacity="0.1"/>
</g>
<g clip-path="url(#clip27_1722_48831)">
<path d="M62.1602 153.15L60.5559 155.929L68.0192 160.238L69.6234 157.459C70.4521 156.024 69.9607 154.19 68.5255 153.362L66.2623 152.051C64.8271 151.223 62.9933 151.714 62.1647 153.149L62.1602 153.15ZM59.8068 157.227L52.0818 170.613C51.7371 171.21 51.5495 171.887 51.5304 172.576L51.387 178.452C51.3769 178.868 51.5915 179.252 51.9474 179.457C52.3034 179.663 52.7433 179.656 53.0945 179.446L58.112 176.384C58.6994 176.022 59.1913 175.522 59.536 174.925L67.2701 161.535L59.8068 157.227Z" fill="black" fill-opacity="0.1"/>
</g>
<g clip-path="url(#clip28_1722_48831)">
<path d="M104.906 141.648L103.061 144.85L110.249 149L112.095 145.802C112.821 144.545 112.391 142.942 111.134 142.216L108.492 140.687C107.235 139.961 105.632 140.391 104.906 141.648ZM102.191 146.078L101.809 146.316L95.8085 150.021C94.9802 150.534 94.4493 151.414 94.3906 152.39L93.5843 165.428C93.5494 165.985 93.829 166.522 94.3079 166.806L99.4003 157.992C99.1881 157.743 99.0262 157.447 98.9364 157.112C98.6149 155.912 99.3275 154.678 100.527 154.356C101.727 154.035 102.962 154.748 103.283 155.947C103.605 157.147 102.892 158.382 101.692 158.703C101.357 158.793 101.019 158.801 100.698 158.741L95.6066 167.56C96.0967 167.831 96.6979 167.811 97.1622 167.497L108.054 160.279C108.866 159.741 109.367 158.84 109.397 157.866L109.605 150.818L109.616 150.368L102.191 146.078Z" fill="black" fill-opacity="0.1"/>
</g>
<g clip-path="url(#clip29_1722_48831)">
<path d="M138.449 151.96L140.331 140.037C140.606 138.294 141.385 136.673 142.575 135.374L148.086 129.335C148.199 129.213 148.345 129.125 148.504 129.083C148.964 128.955 149.441 129.23 149.566 129.696L149.585 129.768C149.617 129.886 149.625 130.005 149.613 130.125L148.715 137.606C148.686 137.842 148.706 138.079 148.767 138.305C148.834 138.555 148.955 138.789 149.116 138.993L155.836 147.301L146.459 149.814L146.564 148.068L148.229 146.966C148.497 146.788 148.622 146.458 148.538 146.146C148.455 145.833 148.181 145.611 147.86 145.59L145.867 145.469L144.766 143.803C144.589 143.54 144.259 143.415 143.947 143.499C143.634 143.582 143.412 143.856 143.391 144.177L143.27 146.17L141.604 147.271C141.337 147.45 141.211 147.779 141.295 148.092C141.379 148.404 141.652 148.627 141.973 148.648L143.966 148.769L144.929 150.224L138.449 151.96ZM144.881 136.915C144.791 136.779 144.629 136.716 144.47 136.759C144.312 136.801 144.203 136.937 144.193 137.1L144.135 138.096L143.301 138.644C143.165 138.734 143.102 138.897 143.144 139.055C143.187 139.213 143.323 139.323 143.486 139.332L144.481 139.391L145.03 140.224C145.12 140.36 145.282 140.423 145.441 140.381C145.599 140.338 145.708 140.202 145.718 140.04L145.776 139.044L146.61 138.495C146.746 138.405 146.809 138.243 146.767 138.084C146.724 137.926 146.588 137.817 146.425 137.807L145.429 137.749L144.881 136.915ZM137.389 153.797L157.673 148.362C158.475 148.147 159.296 148.621 159.51 149.422C159.725 150.224 159.251 151.045 158.45 151.26L138.165 156.695C137.364 156.91 136.543 156.436 136.328 155.634C136.113 154.833 136.587 154.012 137.389 153.797Z" fill="black" fill-opacity="0.1"/>
</g>
<g clip-path="url(#clip30_1722_48831)">
<path d="M189.908 118.872L188.063 122.074L195.251 126.224L197.097 123.026C197.823 121.769 197.393 120.166 196.136 119.44L193.494 117.911C192.237 117.185 190.634 117.615 189.908 118.872ZM187.193 123.302L186.811 123.54L180.81 127.245C179.982 127.758 179.451 128.638 179.393 129.614L178.586 142.651C178.551 143.209 178.831 143.746 179.31 144.03L184.402 135.216C184.19 134.967 184.028 134.671 183.938 134.336C183.617 133.136 184.329 131.902 185.529 131.58C186.729 131.259 187.964 131.971 188.285 133.171C188.607 134.371 187.894 135.606 186.694 135.927C186.359 136.017 186.021 136.025 185.7 135.965L180.609 144.784C181.099 145.055 181.7 145.035 182.164 144.721L193.056 137.503C193.868 136.965 194.369 136.064 194.399 135.09L194.607 128.042L194.618 127.592L187.193 123.302Z" fill="black" fill-opacity="0.1"/>
</g>
<g clip-path="url(#clip31_1722_48831)">
<path d="M218.404 116.143C217.406 115.876 216.571 115.096 216.283 114.022C215.855 112.424 216.806 110.777 218.405 110.348C219.478 110.061 220.571 110.394 221.301 111.125L230.769 108.588C231.04 107.589 231.82 106.753 232.894 106.466C234.492 106.038 236.139 106.989 236.568 108.587C236.855 109.66 236.522 110.754 235.791 111.484L237.163 116.605C238.163 116.876 238.997 117.652 239.284 118.725C239.712 120.323 238.761 121.971 237.163 122.399C236.09 122.687 234.996 122.354 234.266 121.622L224.799 124.159C224.528 125.159 223.752 125.993 222.678 126.28C221.08 126.709 219.432 125.757 219.004 124.159C218.717 123.086 219.05 121.992 219.781 121.262L218.409 116.141L218.404 116.143ZM222.078 114.023C221.942 114.53 221.673 114.995 221.302 115.366L222.674 120.487C223.181 120.623 223.646 120.891 224.018 121.263L233.485 118.726C233.621 118.219 233.89 117.754 234.261 117.382L232.889 112.262C232.382 112.126 231.917 111.857 231.545 111.486L222.078 114.023ZM235.43 129.08C235.159 130.08 234.383 130.914 233.31 131.201C231.711 131.629 230.064 130.678 229.635 129.08C229.348 128.007 229.681 126.913 230.412 126.183L229.92 124.345L232.817 123.568L233.31 125.407C233.817 125.543 234.282 125.811 234.653 126.182L244.121 123.645C244.257 123.138 244.525 122.673 244.896 122.302L243.524 117.181C243.017 117.045 242.552 116.777 242.181 116.406L240.098 116.964C239.667 116.332 239.087 115.832 238.418 115.492L238.122 114.387L241.409 113.507C241.68 112.507 242.456 111.673 243.529 111.386C245.127 110.957 246.775 111.909 247.203 113.507C247.491 114.58 247.158 115.674 246.427 116.403L247.799 121.524C248.798 121.795 249.632 122.571 249.92 123.645C250.348 125.243 249.397 126.891 247.798 127.319C246.725 127.606 245.632 127.273 244.902 126.542L235.434 129.079L235.43 129.08Z" fill="black" fill-opacity="0.1"/>
</g>
<g clip-path="url(#clip32_1722_48831)">
<path d="M269.598 96.6309L272.496 95.8544C273.297 95.6397 274.118 96.1136 274.333 96.9151L275.498 101.262L269.702 102.815L268.538 98.468C268.323 97.6666 268.797 96.8456 269.598 96.6309ZM266.909 109.775C266.266 107.375 267.691 104.907 270.091 104.264L275.886 102.711C278.286 102.068 280.754 103.493 281.397 105.893L283.921 115.31C284.242 116.51 283.53 117.745 282.33 118.066L272.188 120.784C270.988 121.105 269.754 120.393 269.432 119.193L266.909 109.775ZM278.746 110.485C278.488 109.525 277.86 108.706 276.999 108.208C276.137 107.711 275.114 107.576 274.153 107.834C273.192 108.091 272.373 108.72 271.876 109.581C271.379 110.442 271.244 111.466 271.501 112.427C271.759 113.387 272.387 114.206 273.249 114.704C274.11 115.201 275.133 115.336 276.094 115.078C277.055 114.821 277.874 114.192 278.371 113.331C278.868 112.47 279.003 111.446 278.746 110.485ZM276.17 97.9757C276.067 97.5915 276.121 97.182 276.32 96.8375C276.519 96.493 276.847 96.2416 277.231 96.1386C277.615 96.0356 278.025 96.0895 278.369 96.2885C278.714 96.4874 278.965 96.815 279.068 97.1993C279.171 97.5835 279.117 97.993 278.918 98.3375C278.719 98.682 278.392 98.9334 278.007 99.0364C277.623 99.1394 277.214 99.0854 276.869 98.8865C276.525 98.6876 276.273 98.36 276.17 97.9757ZM281.578 94.9739C281.962 94.871 282.371 94.9249 282.716 95.1238C283.06 95.3227 283.312 95.6503 283.415 96.0346C283.518 96.4189 283.464 96.8283 283.265 97.1728C283.066 97.5173 282.738 97.7687 282.354 97.8717C281.97 97.9747 281.56 97.9208 281.216 97.7218C280.871 97.5229 280.62 97.1953 280.517 96.811C280.414 96.4268 280.468 96.0173 280.667 95.6728C280.866 95.3283 281.193 95.0769 281.578 94.9739ZM284.864 95.6464C284.761 95.2621 284.815 94.8527 285.013 94.5081C285.212 94.1636 285.54 93.9122 285.924 93.8092C286.309 93.7063 286.718 93.7602 287.063 93.9591C287.407 94.158 287.658 94.4856 287.761 94.8699C287.864 95.2542 287.81 95.6636 287.612 96.0081C287.413 96.3527 287.085 96.604 286.701 96.707C286.316 96.81 285.907 96.7561 285.563 96.5572C285.218 96.3583 284.967 96.0306 284.864 95.6464ZM287.089 98.1559C287.473 98.0529 287.883 98.1068 288.227 98.3058C288.572 98.5047 288.823 98.8323 288.926 99.2166C289.029 99.6008 288.975 100.01 288.776 100.355C288.577 100.699 288.25 100.951 287.865 101.054C287.481 101.157 287.072 101.103 286.727 100.904C286.383 100.705 286.131 100.377 286.028 99.993C285.925 99.6088 285.979 99.1993 286.178 98.8548C286.377 98.5103 286.705 98.2589 287.089 98.1559ZM287.193 104.34C287.09 103.955 287.144 103.546 287.343 103.201C287.542 102.857 287.869 102.606 288.254 102.503C288.638 102.4 289.047 102.454 289.392 102.652C289.736 102.851 289.988 103.179 290.091 103.563C290.194 103.947 290.14 104.357 289.941 104.701C289.742 105.046 289.414 105.297 289.03 105.4C288.646 105.503 288.236 105.449 287.892 105.25C287.547 105.052 287.296 104.724 287.193 104.34ZM282.742 99.3206C283.127 99.2176 283.536 99.2715 283.881 99.4704C284.225 99.6694 284.476 99.997 284.579 100.381C284.682 100.766 284.628 101.175 284.43 101.519C284.231 101.864 283.903 102.115 283.519 102.218C283.135 102.321 282.725 102.267 282.381 102.069C282.036 101.87 281.785 101.542 281.682 101.158C281.579 100.773 281.633 100.364 281.832 100.019C282.03 99.675 282.358 99.4236 282.742 99.3206Z" fill="black" fill-opacity="0.1"/>
</g>
<g clip-path="url(#clip33_1722_48831)">
<path d="M306.886 88.969C306.565 87.7692 307.277 86.5349 308.477 86.2134L315.721 84.2722C316.921 83.9507 318.156 84.6634 318.477 85.8632L319.06 88.0366L315.437 89.0071C315.039 89.1139 314.8 89.5272 314.907 89.9257C315.014 90.3241 315.427 90.5628 315.826 90.456L319.448 89.4854L320.224 92.3832L316.602 93.3538C316.204 93.4606 315.965 93.8739 316.072 94.2723C316.178 94.6708 316.592 94.9094 316.99 94.8027L320.612 93.8321L321.389 96.7299L317.767 97.7005C317.368 97.8072 317.13 98.2206 317.236 98.619C317.343 99.0175 317.756 99.2561 318.155 99.1493L321.777 98.1788L322.554 101.077L318.931 102.047C318.533 102.154 318.294 102.567 318.401 102.966C318.508 103.364 318.921 103.603 319.32 103.496L322.942 102.525L323.524 104.699C323.846 105.899 323.133 107.133 321.933 107.454L314.689 109.396C313.489 109.717 312.255 109.004 311.933 107.805L306.886 88.969Z" fill="black" fill-opacity="0.1"/>
</g>
<g clip-path="url(#clip34_1722_48831)">
<path d="M340.11 83.5314C339.112 83.2651 338.277 82.4843 337.989 81.4113C337.561 79.813 338.512 78.1653 340.111 77.737C341.184 77.4495 342.278 77.7824 343.007 78.5138L352.475 75.977C352.746 74.9775 353.526 74.1423 354.6 73.8547C356.198 73.4265 357.846 74.3778 358.274 75.9761C358.561 77.0491 358.228 78.1429 357.497 78.8727L358.869 83.9936C359.869 84.2645 360.703 85.0407 360.99 86.1138C361.418 87.7121 360.467 89.3597 358.869 89.788C357.796 90.0755 356.702 89.7426 355.972 89.0112L346.505 91.5481C346.234 92.5475 345.458 93.3815 344.384 93.6691C342.786 94.0973 341.139 93.1461 340.71 91.5477C340.423 90.4747 340.756 89.3809 341.487 88.6511L340.115 83.5302L340.11 83.5314ZM343.784 81.4116C343.648 81.9187 343.379 82.3837 343.008 82.755L344.38 87.8759C344.887 88.0118 345.352 88.2802 345.724 88.6515L355.191 86.1147C355.327 85.6075 355.596 85.1425 355.967 84.7713L354.595 79.6504C354.088 79.5145 353.623 79.246 353.251 78.8747L343.784 81.4116ZM357.136 96.4689C356.865 97.4683 356.089 98.3023 355.016 98.5899C353.417 99.0181 351.77 98.0669 351.341 96.4686C351.054 95.3955 351.387 94.3017 352.118 93.5719L351.626 91.7337L354.523 90.9572L355.016 92.7955C355.523 92.9314 355.988 93.1998 356.359 93.5711L365.827 91.0343C365.963 90.5271 366.231 90.0621 366.603 89.6909L365.23 84.57C364.723 84.4341 364.258 84.1656 363.887 83.7943L361.804 84.3524C361.373 83.7207 360.793 83.221 360.124 82.8809L359.828 81.7761L363.115 80.8954C363.386 79.8959 364.162 79.0619 365.235 78.7743C366.834 78.3461 368.481 79.2974 368.909 80.8957C369.197 81.9687 368.864 83.0625 368.133 83.7923L369.505 88.9132C370.504 89.1841 371.338 89.9603 371.626 91.0334C372.054 92.6317 371.103 94.2793 369.505 94.7076C368.431 94.9951 367.338 94.6622 366.608 93.9308L357.14 96.4677L357.136 96.4689Z" fill="black" fill-opacity="0.1"/>
</g>
<g clip-path="url(#clip35_1722_48831)">
<path d="M393.454 83.6317L395.336 71.7088C395.611 69.9656 396.39 68.3448 397.58 67.0456L403.091 61.0072C403.204 60.8848 403.35 60.7971 403.509 60.7546C403.969 60.6263 404.446 60.9014 404.571 61.3678L404.59 61.4402C404.622 61.558 404.629 61.6772 404.618 61.7968L403.72 69.2778C403.691 69.5136 403.711 69.7509 403.772 69.9773C403.839 70.2263 403.96 70.4608 404.121 70.665L410.841 78.973L401.464 81.4855L401.569 79.7395L403.234 78.6381C403.502 78.4597 403.627 78.1301 403.543 77.8177C403.46 77.5053 403.186 77.2824 402.865 77.2617L400.872 77.1406L399.771 75.4751C399.594 75.2121 399.264 75.0868 398.952 75.1706C398.639 75.2543 398.416 75.5275 398.396 75.8485L398.275 77.8415L396.609 78.9429C396.342 79.1214 396.216 79.4509 396.3 79.7633C396.384 80.0758 396.657 80.2986 396.978 80.3193L398.971 80.4404L399.934 81.8956L393.454 83.6317ZM399.886 68.5873C399.796 68.4512 399.634 68.388 399.475 68.4304C399.317 68.4729 399.207 68.6089 399.198 68.7717L399.139 69.7676L398.306 70.316C398.17 70.4058 398.107 70.5684 398.149 70.7268C398.192 70.8853 398.328 70.9944 398.49 71.0042L399.486 71.0625L400.035 71.8958C400.125 72.0319 400.287 72.0951 400.446 72.0527C400.604 72.0102 400.713 71.8742 400.723 71.7114L400.781 70.7155L401.615 70.1671C401.751 70.0773 401.814 69.9147 401.771 69.7563C401.729 69.5978 401.593 69.4886 401.43 69.4789L400.434 69.4206L399.886 68.5873ZM392.394 85.4688L412.678 80.0336C413.479 79.8189 414.3 80.2929 414.515 81.0943C414.73 81.8957 414.256 82.7167 413.455 82.9314L393.17 88.3666C392.369 88.5813 391.548 88.1073 391.333 87.3059C391.118 86.5045 391.592 85.6836 392.394 85.4688Z" fill="black" fill-opacity="0.1"/>
</g>
<g clip-path="url(#clip36_1722_48831)">
<path d="M207.092 159.82L205.247 163.022L212.434 167.172L214.281 163.974C215.006 162.717 214.577 161.114 213.32 160.388L210.678 158.859C209.42 158.133 207.818 158.562 207.092 159.82ZM204.377 164.25L203.994 164.488L197.994 168.192C197.166 168.706 196.635 169.585 196.576 170.562L195.77 183.599C195.735 184.157 196.015 184.694 196.493 184.978L201.586 176.164C201.374 175.915 201.212 175.619 201.122 175.284C200.8 174.084 201.513 172.85 202.713 172.528C203.913 172.207 205.147 172.919 205.469 174.119C205.79 175.319 205.077 176.553 203.878 176.875C203.543 176.965 203.205 176.973 202.883 176.913L197.792 185.731C198.282 186.003 198.883 185.982 199.348 185.669L210.24 178.451C211.052 177.913 211.553 177.012 211.583 176.038L211.791 168.989L211.801 168.54L204.377 164.25Z" fill="black" fill-opacity="0.1"/>
</g>
<g clip-path="url(#clip37_1722_48831)">
<path d="M235.587 157.09C234.589 156.824 233.753 156.043 233.466 154.97C233.038 153.372 233.989 151.724 235.587 151.296C236.66 151.009 237.754 151.341 238.484 152.073L253.747 147.983C254.018 146.984 254.799 146.148 255.872 145.861C257.47 145.433 259.118 146.384 259.546 147.982C259.833 149.055 259.5 150.149 258.769 150.879L262.082 163.244C263.082 163.515 263.916 164.291 264.203 165.364C264.632 166.963 263.68 168.61 262.082 169.039C261.009 169.326 259.915 168.993 259.185 168.262L243.922 172.352C243.652 173.351 242.875 174.185 241.802 174.473C240.204 174.901 238.556 173.95 238.128 172.351C237.84 171.278 238.173 170.184 238.905 169.455L235.591 157.089L235.587 157.09ZM254.528 150.88L239.26 154.971C239.124 155.478 238.856 155.943 238.485 156.314L241.798 168.679C242.305 168.815 242.77 169.084 243.141 169.455L258.405 165.365C258.54 164.858 258.809 164.393 259.18 164.022L255.867 151.656C255.36 151.521 254.895 151.252 254.523 150.881L254.528 150.88ZM240.426 157.764C240.211 156.963 240.685 156.142 241.487 155.927L247.282 154.374C248.084 154.159 248.905 154.633 249.119 155.435L250.284 159.781C250.499 160.583 250.025 161.404 249.224 161.618L243.428 163.171C242.627 163.386 241.806 162.912 241.591 162.111L240.426 157.764ZM248.163 163.456L249.612 163.067C251.21 162.639 252.161 160.991 251.733 159.393L251.345 157.944L254.243 157.168C255.044 156.953 255.865 157.427 256.08 158.228L257.244 162.575C257.459 163.377 256.985 164.197 256.184 164.412L250.388 165.965C249.587 166.18 248.766 165.706 248.551 164.904L248.163 163.456Z" fill="black" fill-opacity="0.1"/>
</g>
<g clip-path="url(#clip38_1722_48831)">
<path d="M278.476 141.357C278.261 140.555 278.735 139.735 279.537 139.52L285.332 137.967C286.134 137.752 286.955 138.226 287.169 139.028L291.828 156.414C292.471 158.814 291.046 161.283 288.646 161.926C286.246 162.569 283.778 161.143 283.135 158.744L278.476 141.357ZM293.379 156.479C293.353 156.326 293.317 156.175 293.277 156.026L290.098 144.163L292.598 139.834C293.012 139.117 293.931 138.871 294.649 139.285L299.844 142.285C300.562 142.699 300.808 143.618 300.394 144.336L293.379 156.479ZM292.576 160.872L298.94 149.85L303.704 148.573C304.505 148.359 305.326 148.833 305.541 149.634L307.094 155.43C307.308 156.231 306.834 157.052 306.033 157.267L292.576 160.872ZM284.66 141.253L281.762 142.029L282.539 144.927L285.436 144.151L284.66 141.253ZM283.315 147.825L284.091 150.723L286.989 149.946L286.213 147.048L283.315 147.825ZM287.773 158.666C288.061 158.588 288.307 158.4 288.456 158.141C288.605 157.883 288.645 157.576 288.568 157.288C288.491 157 288.302 156.754 288.044 156.605C287.786 156.455 287.479 156.415 287.19 156.492C286.902 156.569 286.656 156.758 286.507 157.016C286.358 157.275 286.318 157.582 286.395 157.87C286.472 158.158 286.661 158.404 286.919 158.553C287.177 158.702 287.484 158.743 287.773 158.666Z" fill="black" fill-opacity="0.1"/>
</g>
<g clip-path="url(#clip39_1722_48831)">
<path d="M323.486 133.538C322.488 133.272 321.653 132.491 321.365 131.418C320.937 129.819 321.888 128.172 323.487 127.744C324.56 127.456 325.653 127.789 326.383 128.52L335.851 125.983C336.122 124.984 336.902 124.149 337.976 123.861C339.574 123.433 341.222 124.384 341.65 125.983C341.937 127.056 341.604 128.149 340.873 128.879L342.245 134C343.245 134.271 344.079 135.047 344.366 136.12C344.794 137.719 343.843 139.366 342.245 139.795C341.172 140.082 340.078 139.749 339.348 139.018L329.881 141.555C329.61 142.554 328.834 143.388 327.76 143.676C326.162 144.104 324.515 143.153 324.086 141.554C323.799 140.481 324.132 139.387 324.863 138.658L323.491 133.537L323.486 133.538ZM327.16 131.418C327.024 131.925 326.755 132.39 326.384 132.762L327.756 137.882C328.263 138.018 328.728 138.287 329.1 138.658L338.567 136.121C338.703 135.614 338.972 135.149 339.343 134.778L337.971 129.657C337.464 129.521 336.999 129.253 336.627 128.881L327.16 131.418ZM340.512 146.475C340.241 147.475 339.465 148.309 338.392 148.596C336.793 149.025 335.146 148.073 334.717 146.475C334.43 145.402 334.763 144.308 335.494 143.578L335.002 141.74L337.899 140.964L338.392 142.802C338.899 142.938 339.364 143.206 339.735 143.578L349.203 141.041C349.339 140.534 349.607 140.069 349.979 139.697L348.606 134.576C348.099 134.441 347.634 134.172 347.263 133.801L345.18 134.359C344.749 133.727 344.169 133.228 343.5 132.887L343.204 131.783L346.491 130.902C346.762 129.902 347.538 129.068 348.611 128.781C350.21 128.353 351.857 129.304 352.285 130.902C352.573 131.975 352.24 133.069 351.509 133.799L352.881 138.92C353.88 139.191 354.714 139.967 355.002 141.04C355.43 142.638 354.479 144.286 352.881 144.714C351.807 145.002 350.714 144.669 349.984 143.937L340.516 146.474L340.512 146.475Z" fill="black" fill-opacity="0.1"/>
</g>
<g clip-path="url(#clip40_1722_48831)">
<path d="M376.83 133.638L378.712 121.715C378.987 119.972 379.766 118.351 380.956 117.052L386.467 111.014C386.58 110.891 386.726 110.804 386.885 110.761C387.345 110.633 387.822 110.908 387.947 111.374L387.966 111.447C387.998 111.564 388.005 111.684 387.994 111.803L387.096 119.284C387.067 119.52 387.087 119.757 387.148 119.984C387.215 120.233 387.336 120.467 387.497 120.671L394.217 128.979L384.84 131.492L384.945 129.746L386.61 128.645C386.878 128.466 387.003 128.137 386.919 127.824C386.836 127.512 386.562 127.289 386.241 127.268L384.248 127.147L383.147 125.482C382.97 125.219 382.64 125.093 382.328 125.177C382.015 125.261 381.792 125.534 381.772 125.855L381.651 127.848L379.985 128.949C379.718 129.128 379.592 129.457 379.676 129.77C379.76 130.082 380.033 130.305 380.354 130.326L382.347 130.447L383.31 131.902L376.83 133.638ZM383.262 118.594C383.172 118.458 383.01 118.394 382.851 118.437C382.693 118.479 382.583 118.615 382.574 118.778L382.515 119.774L381.682 120.322C381.546 120.412 381.483 120.575 381.525 120.733C381.568 120.892 381.704 121.001 381.866 121.011L382.862 121.069L383.411 121.902C383.501 122.038 383.663 122.102 383.822 122.059C383.98 122.017 384.089 121.881 384.099 121.718L384.157 120.722L384.991 120.174C385.127 120.084 385.19 119.921 385.147 119.763C385.105 119.604 384.969 119.495 384.806 119.485L383.81 119.427L383.262 118.594ZM375.77 135.475L396.054 130.04C396.855 129.825 397.676 130.299 397.891 131.101C398.106 131.902 397.632 132.723 396.831 132.938L376.546 138.373C375.745 138.588 374.924 138.114 374.709 137.312C374.494 136.511 374.968 135.69 375.77 135.475Z" fill="black" fill-opacity="0.1"/>
</g>
<g clip-path="url(#clip41_1722_48831)">
<path d="M362.886 168.533C361.887 168.267 361.052 167.486 360.765 166.413C360.336 164.814 361.288 163.167 362.886 162.738C363.959 162.451 365.053 162.784 365.783 163.515L375.25 160.978C375.521 159.979 376.302 159.144 377.375 158.856C378.973 158.428 380.621 159.379 381.049 160.978C381.337 162.051 381.004 163.144 380.272 163.874L381.645 168.995C382.644 169.266 383.478 170.042 383.766 171.115C384.194 172.714 383.243 174.361 381.644 174.789C380.571 175.077 379.477 174.744 378.748 174.013L369.28 176.55C369.009 177.549 368.233 178.383 367.16 178.671C365.562 179.099 363.914 178.148 363.486 176.549C363.198 175.476 363.531 174.382 364.262 173.653L362.89 168.532L362.886 168.533ZM366.559 166.413C366.423 166.92 366.155 167.385 365.784 167.756L367.156 172.877C367.663 173.013 368.128 173.282 368.499 173.653L377.967 171.116C378.103 170.609 378.371 170.144 378.742 169.773L377.37 164.652C376.863 164.516 376.398 164.247 376.027 163.876L366.559 166.413ZM379.911 181.47C379.64 182.47 378.864 183.304 377.791 183.591C376.193 184.02 374.545 183.068 374.117 181.47C373.829 180.397 374.162 179.303 374.894 178.573L374.401 176.735L377.299 175.959L377.791 177.797C378.298 177.933 378.764 178.201 379.135 178.573L388.602 176.036C388.738 175.529 389.007 175.064 389.378 174.692L388.006 169.571C387.499 169.436 387.034 169.167 386.662 168.796L384.58 169.354C384.148 168.722 383.568 168.222 382.899 167.882L382.603 166.778L385.89 165.897C386.161 164.897 386.938 164.063 388.011 163.776C389.609 163.348 391.257 164.299 391.685 165.897C391.972 166.97 391.639 168.064 390.908 168.794L392.28 173.915C393.28 174.186 394.114 174.962 394.401 176.035C394.83 177.633 393.878 179.281 392.28 179.709C391.207 179.997 390.113 179.664 389.383 178.932L379.916 181.469L379.911 181.47Z" fill="black" fill-opacity="0.1"/>
</g>
<defs>
<clipPath id="clip0_1722_48831">
<rect width="24" height="24" fill="white" transform="translate(-0.0488281 -13.326) rotate(-15)"/>
</clipPath>
<clipPath id="clip1_1722_48831">
<rect width="24" height="24" fill="white" transform="translate(-13.7744 35.9039) rotate(-15)"/>
</clipPath>
<clipPath id="clip2_1722_48831">
<rect width="12" height="24" fill="white" transform="translate(28.7266 24.5159) rotate(-15)"/>
</clipPath>
<clipPath id="clip3_1722_48831">
<rect width="24" height="24" fill="white" transform="translate(59.6357 16.2337) rotate(-15)"/>
</clipPath>
<clipPath id="clip4_1722_48831">
<rect width="24" height="24" fill="white" transform="translate(102.137 4.84564) rotate(-15)"/>
</clipPath>
<clipPath id="clip5_1722_48831">
<rect width="24" height="24" fill="white" transform="translate(144.638 -6.54236) rotate(-15)"/>
</clipPath>
<clipPath id="clip6_1722_48831">
<rect width="27" height="24" fill="white" transform="translate(187.138 -17.9304) rotate(-15)"/>
</clipPath>
<clipPath id="clip7_1722_48831">
<rect width="27" height="24" fill="white" transform="translate(-22.6709 83.8399) rotate(-15)"/>
</clipPath>
<clipPath id="clip8_1722_48831">
<rect width="24" height="24" fill="white" transform="translate(22.7275 71.6754) rotate(-15)"/>
</clipPath>
<clipPath id="clip9_1722_48831">
<rect width="24" height="24" fill="white" transform="translate(65.2275 60.2874) rotate(-15)"/>
</clipPath>
<clipPath id="clip10_1722_48831">
<rect width="24" height="24" fill="white" transform="translate(107.729 48.8993) rotate(-15)"/>
</clipPath>
<clipPath id="clip11_1722_48831">
<rect width="24" height="24" fill="white" transform="translate(150.229 37.5113) rotate(-15)"/>
</clipPath>
<clipPath id="clip12_1722_48831">
<rect width="30" height="24" fill="white" transform="translate(192.73 26.1232) rotate(-15)"/>
</clipPath>
<clipPath id="clip13_1722_48831">
<rect width="24" height="24" fill="white" transform="translate(241.026 13.1823) rotate(-15)"/>
</clipPath>
<clipPath id="clip14_1722_48831">
<rect width="12" height="24" fill="white" transform="translate(283.527 1.79425) rotate(-15)"/>
</clipPath>
<clipPath id="clip15_1722_48831">
<rect width="30" height="24" fill="white" transform="translate(314.437 -6.48798) rotate(-15)"/>
</clipPath>
<clipPath id="clip16_1722_48831">
<rect width="24" height="24" fill="white" transform="translate(362.733 -19.4289) rotate(-15)"/>
</clipPath>
<clipPath id="clip17_1722_48831">
<rect width="24" height="24" fill="white" transform="translate(9.00098 120.905) rotate(-15)"/>
</clipPath>
<clipPath id="clip18_1722_48831">
<rect width="12" height="24" fill="white" transform="translate(51.502 109.517) rotate(-15)"/>
</clipPath>
<clipPath id="clip19_1722_48831">
<rect width="24" height="24" fill="white" transform="translate(82.4111 101.235) rotate(-15)"/>
</clipPath>
<clipPath id="clip20_1722_48831">
<rect width="24" height="24" fill="white" transform="translate(124.912 89.8471) rotate(-15)"/>
</clipPath>
<clipPath id="clip21_1722_48831">
<rect width="24" height="24" fill="white" transform="translate(167.413 78.4591) rotate(-15)"/>
</clipPath>
<clipPath id="clip22_1722_48831">
<rect width="27" height="24" fill="white" transform="translate(209.913 67.071) rotate(-15)"/>
</clipPath>
<clipPath id="clip23_1722_48831">
<rect width="24" height="24" fill="white" transform="translate(255.312 54.9066) rotate(-15)"/>
</clipPath>
<clipPath id="clip24_1722_48831">
<rect width="30" height="24" fill="white" transform="translate(297.812 43.5186) rotate(-15)"/>
</clipPath>
<clipPath id="clip25_1722_48831">
<rect width="24" height="24" fill="white" transform="translate(346.109 30.5776) rotate(-15)"/>
</clipPath>
<clipPath id="clip26_1722_48831">
<rect width="24" height="24" fill="white" transform="translate(388.609 19.1895) rotate(-15)"/>
</clipPath>
<clipPath id="clip27_1722_48831">
<rect width="24" height="24" fill="white" transform="translate(45.5039 156.677) rotate(-15)"/>
</clipPath>
<clipPath id="clip28_1722_48831">
<rect width="24" height="24" fill="white" transform="translate(88.0039 145.289) rotate(-15)"/>
</clipPath>
<clipPath id="clip29_1722_48831">
<rect width="24" height="24" fill="white" transform="translate(130.505 133.901) rotate(-15)"/>
</clipPath>
<clipPath id="clip30_1722_48831">
<rect width="24" height="24" fill="white" transform="translate(173.006 122.513) rotate(-15)"/>
</clipPath>
<clipPath id="clip31_1722_48831">
<rect width="30" height="24" fill="white" transform="translate(215.507 111.125) rotate(-15)"/>
</clipPath>
<clipPath id="clip32_1722_48831">
<rect width="24" height="24" fill="white" transform="translate(263.803 98.1838) rotate(-15)"/>
</clipPath>
<clipPath id="clip33_1722_48831">
<rect width="12" height="24" fill="white" transform="translate(306.304 86.7957) rotate(-15)"/>
</clipPath>
<clipPath id="clip34_1722_48831">
<rect width="30" height="24" fill="white" transform="translate(337.213 78.5135) rotate(-15)"/>
</clipPath>
<clipPath id="clip35_1722_48831">
<rect width="24" height="24" fill="white" transform="translate(385.51 65.5726) rotate(-15)"/>
</clipPath>
<clipPath id="clip36_1722_48831">
<rect width="24" height="24" fill="white" transform="translate(190.189 163.461) rotate(-15)"/>
</clipPath>
<clipPath id="clip37_1722_48831">
<rect width="27" height="24" fill="white" transform="translate(232.689 152.073) rotate(-15)"/>
</clipPath>
<clipPath id="clip38_1722_48831">
<rect width="24" height="24" fill="white" transform="translate(278.088 139.908) rotate(-15)"/>
</clipPath>
<clipPath id="clip39_1722_48831">
<rect width="30" height="24" fill="white" transform="translate(320.589 128.52) rotate(-15)"/>
</clipPath>
<clipPath id="clip40_1722_48831">
<rect width="24" height="24" fill="white" transform="translate(368.886 115.579) rotate(-15)"/>
</clipPath>
<clipPath id="clip41_1722_48831">
<rect width="30" height="24" fill="white" transform="translate(359.988 163.515) rotate(-15)"/>
</clipPath>
</defs>
</svg>
