<svg width="396" height="161" viewBox="0 0 396 161" fill="none" xmlns="http://www.w3.org/2000/svg">
<g clip-path="url(#clip0_1722_47824)">
<path d="M-1.74373 20.7023L-8.74654 16.6592C-10.128 15.8616 -11.812 16.0854 -12.95 17.0829L-19.3249 13.4023L-20.1097 10.4734L-27.36 7.56327L-29.5697 11.3906L-23.4243 16.2144L-20.4954 15.4296L-14.1205 19.1102C-14.4106 20.5932 -13.7671 22.1648 -12.3857 22.9623L-5.38284 27.0054C-4.50973 27.5095 -3.39666 27.2113 -2.89728 26.3394L-1.07773 23.1878C-0.578352 22.316 -0.876601 21.2029 -1.74373 20.7023ZM-11.8906 14.7921C-10.5559 14.4345 -9.16228 14.6172 -7.96624 15.3077L-6.80608 15.9775C-6.14808 15.4524 -5.56194 14.8101 -5.1131 14.0326C-3.83215 11.814 -3.89757 9.19276 -5.05313 7.10629C-5.27063 6.70962 -5.84277 6.70621 -6.07064 7.1009L-8.63943 11.5502L-11.9847 11.8753L-13.3757 8.81566L-10.807 4.36639C-10.5791 3.9717 -10.8728 3.47918 -11.3311 3.4857C-13.7145 3.53291 -16.0173 4.78686 -17.2948 6.99954C-18.2788 8.70389 -18.4356 10.6466 -17.9287 12.4064L-13.0189 15.2411C-12.6609 15.0491 -12.2774 14.8958 -11.8906 14.7921ZM-15.7547 19.9727L-19.1455 18.015L-24.4061 27.1336C-25.2693 28.6286 -24.7574 30.5388 -23.2624 31.4019C-21.7673 32.2651 -19.8572 31.7533 -18.994 30.2582L-14.7265 22.8667C-15.3364 22.0242 -15.7192 21.0298 -15.7547 19.9727ZM-21.395 29.8248C-22.0176 29.9917 -22.6634 29.6188 -22.8303 28.9962C-22.9983 28.3689 -22.6289 27.729 -22.0016 27.561C-21.3743 27.3929 -20.7345 27.7623 -20.5664 28.3896C-20.3996 29.0122 -20.7677 29.6568 -21.395 29.8248Z" fill="black" fill-opacity="0.1"/>
</g>
<g clip-path="url(#clip1_1722_47824)">
<path d="M39.5064 0.49603L36.8004 -1.0663C36.4416 -1.27346 36.0151 -1.32954 35.6146 -1.22224L33.221 -0.580883L32.2099 -4.3545C31.8749 -5.60483 30.5897 -6.34681 29.3394 -6.01178L21.7931 -3.98976C20.5428 -3.65474 19.8008 -2.36959 20.1358 -1.11926L21.1468 2.65388L18.7533 3.29524C18.3528 3.40254 18.012 3.66423 17.8043 4.02316L16.2421 6.72968C16.035 7.08849 15.9789 7.51499 16.0862 7.91542L17.1318 11.8178L23.1689 10.2002L22.9667 9.44555C22.8549 9.02862 23.1022 8.60043 23.5191 8.48872L25.0284 8.08431C25.4453 7.9726 25.8735 8.21981 25.9852 8.63674L26.1874 9.39137L32.2244 7.77375L32.0222 7.01912C31.9105 6.60219 32.1577 6.17401 32.5746 6.06229L34.0839 5.65788C34.5008 5.54617 34.929 5.79338 35.0407 6.21031L35.2429 6.96494L41.28 5.34732L40.2342 1.44447C40.127 1.04452 39.8652 0.70319 39.5064 0.49603ZM30.2024 0.227455L24.1654 1.84507L23.3566 -1.17344L29.3936 -2.79106L30.2024 0.227455ZM35.8495 9.22883C35.9613 9.64576 35.7141 10.0739 35.2971 10.1857L33.7879 10.5901C33.3709 10.7018 32.9427 10.4546 32.831 10.0376L32.6288 9.28301L26.5918 10.9006L26.794 11.6553C26.9057 12.0722 26.6585 12.5004 26.2416 12.6121L24.7323 13.0165C24.3154 13.1282 23.8872 12.881 23.7755 12.4641L23.5733 11.7094L17.5362 13.3271L18.7494 17.8548C18.9728 18.6882 19.8297 19.183 20.6631 18.9597L41.7927 13.298C42.6261 13.0747 43.1209 12.2178 42.8976 11.3844L41.6844 6.85658L35.6473 8.4742L35.8495 9.22883Z" fill="black" fill-opacity="0.1"/>
</g>
<g clip-path="url(#clip2_1722_47824)">
<path d="M62.4542 7.09492L67.2705 7.32781L68.4224 5.33254L64.6492 3.15402L62.4542 7.09492ZM65.1309 -5.04126C64.9524 -4.7724 64.8551 -4.45789 64.8506 -4.13525C64.846 -3.81261 64.9343 -3.49547 65.1051 -3.22166L66.1938 -1.47566L64.5389 1.39134L69.9551 4.5184L71.6079 1.65579L73.6607 1.72805C74.3201 1.75117 74.9323 1.38683 75.2259 0.795755L76.3087 -1.47548L66.5524 -7.10829L65.1309 -5.04126ZM81.1224 -16.9718L77.5652 -19.0255C76.412 -19.6914 74.9397 -19.3459 74.2027 -18.2364L67.3884 -8.32428L76.9439 -2.80704L82.1203 -13.6647C82.7131 -14.8579 82.2762 -16.3056 81.1224 -16.9718Z" fill="black" fill-opacity="0.1"/>
</g>
<g clip-path="url(#clip3_1722_47824)">
<path d="M7.72415 56.3967L7.12044 56.5584L6.4734 54.1436C6.29475 53.4769 5.60918 53.0811 4.94247 53.2597L2.16543 54.0038L-2.02433 50.9215C-2.32639 50.6994 -2.67453 50.548 -3.04299 50.4786C-3.41146 50.4092 -3.79081 50.4235 -4.15299 50.5205L-8.4257 51.6653C-9.09242 51.844 -9.48823 52.5296 -9.30959 53.1963L-8.33901 56.8185L-14.9798 58.5979C-15.3133 58.6873 -15.5111 59.0298 -15.4217 59.3633L-14.6129 62.3819L-15.2166 62.5436C-15.5501 62.633 -15.7479 62.9755 -15.6585 63.3091L-15.335 64.5165C-15.2456 64.85 -14.9031 65.0478 -14.5695 64.9584L-13.9387 64.7894C-13.2273 63.0358 -11.7521 61.6153 -9.78326 61.0878C-7.81443 60.5602 -5.82664 61.0528 -4.33375 62.2158L-1.86422 61.5541C-1.15284 59.8004 0.322365 58.38 2.29119 57.8524C4.26002 57.3249 6.24781 57.8174 7.7407 58.9804L8.37119 58.8115C8.70474 58.7221 8.90251 58.3796 8.81314 58.046L8.48961 56.8386C8.40024 56.5051 8.05769 56.3073 7.72415 56.3967ZM-5.9242 56.1715L-6.57125 53.7566L-3.50594 52.9353L-0.927044 54.8325L-5.9242 56.1715ZM7.81084 61.5498L7.61463 61.6024C7.45752 61.3481 7.27896 61.1149 7.07705 60.9016L7.17843 60.7261C7.35106 60.4271 7.24864 60.0448 6.94963 59.8722L5.86698 59.2471C5.56797 59.0745 5.18575 59.1769 5.01311 59.4759L4.91174 59.6515C4.62454 59.5834 4.33113 59.5448 4.03608 59.5363L3.98351 59.3401C3.89413 59.0066 3.55159 58.8088 3.21804 58.8982L2.01063 59.2217C1.67709 59.3111 1.47932 59.6536 1.56869 59.9872L1.62127 60.1834C1.36694 60.3405 1.13372 60.519 0.920506 60.721L0.744928 60.6196C0.445919 60.4469 0.0636994 60.5494 -0.108934 60.8484L-0.734006 61.931C-0.90664 62.23 -0.804224 62.6123 -0.505214 62.7849L-0.329635 62.8863C-0.397772 63.1735 -0.436366 63.4669 -0.444812 63.7619L-0.641016 63.8145C-0.974561 63.9039 -1.17233 64.2464 -1.08296 64.58L-0.759433 65.7874C-0.67006 66.1209 -0.327514 66.3187 0.00603208 66.2293L0.202236 66.1767C0.359353 66.4311 0.537907 66.6643 0.739814 66.8775L0.638442 67.0531C0.465809 67.3521 0.568224 67.7343 0.867234 67.9069L1.94989 68.532C2.2489 68.7046 2.63112 68.6022 2.80375 68.3032L2.90512 68.1276C3.19062 68.1955 3.48235 68.2338 3.78116 68.2427L3.83374 68.4389C3.92311 68.7725 4.26566 68.9702 4.5992 68.8809L5.80661 68.5573C6.14016 68.468 6.33793 68.1254 6.24855 67.7919L6.19598 67.5957C6.45031 67.4386 6.68353 67.26 6.89711 67.058L7.07269 67.1594C7.3717 67.332 7.75392 67.2296 7.92656 66.9306L8.55163 65.8479C8.72426 65.5489 8.62185 65.1667 8.32284 64.994L8.14726 64.8927C8.2154 64.6055 8.25399 64.3121 8.26243 64.017L8.45864 63.9644C8.79218 63.8751 8.98995 63.5325 8.90058 63.199L8.57706 61.9916C8.48693 61.6582 8.14438 61.4605 7.81084 61.5498ZM4.39372 65.7007C3.39346 65.9687 2.36534 65.3751 2.09732 64.3749C1.8293 63.3746 2.42289 62.3465 3.42315 62.0785C4.42341 61.8104 5.45153 62.404 5.71954 63.4043C5.98756 64.4045 5.39398 65.4327 4.39372 65.7007ZM-4.26324 64.7851L-4.45944 64.8376C-4.61656 64.5833 -4.79511 64.3501 -4.99702 64.1369L-4.89565 63.9613C-4.72301 63.6623 -4.82543 63.2801 -5.12444 63.1074L-6.2071 62.4824C-6.50611 62.3097 -6.88833 62.4122 -7.06096 62.7112L-7.16233 62.8867C-7.44953 62.8186 -7.74294 62.78 -8.03799 62.7716L-8.09057 62.5754C-8.17994 62.2418 -8.52248 62.044 -8.85603 62.1334L-10.0634 62.4569C-10.397 62.5463 -10.5948 62.8889 -10.5054 63.2224L-10.4528 63.4186C-10.7071 63.5757 -10.9404 63.7543 -11.1536 63.9562L-11.3291 63.8548C-11.6282 63.6822 -12.0104 63.7846 -12.183 64.0836L-12.8082 65.1659C-12.9808 65.4649 -12.8784 65.8471 -12.5794 66.0198L-12.4038 66.1211C-12.4719 66.4083 -12.5105 66.7017 -12.519 66.9968L-12.7152 67.0494C-13.0487 67.1387 -13.2465 67.4813 -13.1571 67.8148L-12.8336 69.0222C-12.7442 69.3558 -12.4017 69.5535 -12.0681 69.4642L-11.8719 69.4116C-11.7148 69.6659 -11.5363 69.8991 -11.3344 70.1124L-11.4357 70.2879C-11.6084 70.5869 -11.5059 70.9692 -11.2069 71.1418L-10.1243 71.7669C-9.82527 71.9395 -9.44305 71.8371 -9.27042 71.5381L-9.16905 71.3625C-8.88355 71.4304 -8.59182 71.4687 -8.29301 71.4776L-8.24044 71.6738C-8.15106 72.0073 -7.80852 72.2051 -7.47497 72.1157L-6.26756 71.7922C-5.93402 71.7028 -5.73625 71.3603 -5.82562 71.0267L-5.87819 70.8305C-5.62387 70.6734 -5.39065 70.4949 -5.17706 70.2929L-5.00148 70.3942C-4.70247 70.5669 -4.32025 70.4644 -4.14762 70.1654L-3.52255 69.0828C-3.34991 68.7838 -3.45233 68.4015 -3.75134 68.2289L-3.92692 68.1275C-3.85878 67.8403 -3.82019 67.5469 -3.81174 67.2519L-3.61554 67.1993C-3.28199 67.1099 -3.08422 66.7674 -3.17359 66.4338L-3.49712 65.2264C-3.58715 64.8935 -3.92969 64.6957 -4.26324 64.7851ZM-7.68035 68.9359C-8.68061 69.2039 -9.70873 68.6104 -9.97675 67.6101C-10.2448 66.6098 -9.65119 65.5817 -8.65092 65.3137C-7.65066 65.0457 -6.62255 65.6393 -6.35453 66.6395C-6.08651 67.6398 -6.68009 68.6679 -7.68035 68.9359Z" fill="black" fill-opacity="0.1"/>
</g>
<g clip-path="url(#clip4_1722_47824)">
<path d="M47.7494 34.025L25.8676 39.8882C24.8622 40.1576 24.6817 41.5135 25.585 42.0351L36.6453 48.4218L39.2494 58.1405C39.3484 58.5098 39.6213 58.8077 39.9807 58.9384L44.4613 60.5677C45.3453 60.8893 46.2405 60.0834 45.9939 59.1631L42.6823 46.8042L49.0676 35.7429C49.5881 34.8414 48.757 33.7551 47.7494 34.025Z" fill="black" fill-opacity="0.1"/>
</g>
<g clip-path="url(#clip5_1722_47824)">
<path d="M91.1404 39.0359L86.1371 40.3765L90.4889 46.085C90.7915 46.4805 90.7155 47.0352 90.3468 47.3362L88.2987 48.9682C87.917 49.2726 87.3745 49.1869 87.0755 48.8049L82.9414 43.3847L79.9804 48.6841C79.5858 49.3902 78.5867 49.1951 78.3899 48.4604L72.9598 28.1949C72.7525 27.4214 73.591 26.7926 74.2253 27.2059L91.3364 37.4092C92.0188 37.7914 91.8718 38.8399 91.1404 39.0359Z" fill="black" fill-opacity="0.1"/>
</g>
<g clip-path="url(#clip6_1722_47824)">
<path d="M140.303 29.2284L133.3 25.1853C131.919 24.3877 130.235 24.6115 129.097 25.609L122.722 21.9284L121.937 18.9995L114.687 16.0894L112.477 19.9167L118.623 24.7405L121.551 23.9557L127.926 27.6363C127.636 29.1193 128.28 30.6909 129.661 31.4884L136.664 35.5315C137.537 36.0356 138.65 35.7373 139.15 34.8655L140.969 31.7139C141.469 30.8421 141.17 29.729 140.303 29.2284ZM130.156 23.3182C131.491 22.9606 132.885 23.1432 134.081 23.8338L135.241 24.5036C135.899 23.9785 136.485 23.3361 136.934 22.5587C138.215 20.3401 138.149 17.7189 136.994 15.6324C136.776 15.2357 136.204 15.2323 135.976 15.627L133.407 20.0763L130.062 20.4014L128.671 17.3418L131.24 12.8925C131.468 12.4978 131.174 12.0053 130.716 12.0118C128.332 12.059 126.03 13.313 124.752 15.5256C123.768 17.23 123.611 19.1727 124.118 20.9325L129.028 23.7672C129.386 23.5752 129.77 23.4219 130.156 23.3182ZM126.292 28.4988L122.901 26.5411L117.641 35.6596C116.778 37.1547 117.289 39.0649 118.784 39.928C120.28 40.7912 122.19 40.2794 123.053 38.7843L127.32 31.3928C126.71 30.5503 126.328 29.5559 126.292 28.4988ZM120.652 38.3509C120.029 38.5178 119.383 38.1449 119.217 37.5223C119.049 36.895 119.418 36.2551 120.045 36.087C120.673 35.919 121.312 36.2884 121.481 36.9157C121.647 37.5383 121.279 38.1829 120.652 38.3509Z" fill="black" fill-opacity="0.1"/>
</g>
<g clip-path="url(#clip7_1722_47824)">
<path d="M169.99 5.15301L166.367 6.12358C165.701 6.30223 165.305 6.9878 165.484 7.65451L166.454 11.2767C166.633 11.9435 167.318 12.3393 167.985 12.1606L171.607 11.19C172.274 11.0114 172.67 10.3258 172.491 9.65912L171.521 6.03689C171.342 5.37018 170.656 4.97437 169.99 5.15301ZM164.519 8.88359L161.321 9.74043C160.726 8.95205 159.694 8.55884 158.681 8.83019C157.348 9.18748 156.556 10.5582 156.913 11.8921C157.271 13.2259 158.642 14.0171 159.975 13.6598C160.988 13.3885 161.685 12.532 161.806 11.5515L164.815 10.7455C163.054 12.5323 162.081 15.0093 162.218 17.5881L164.082 17.0887C164.088 15.4044 164.689 13.8037 165.736 12.5384C165.515 12.271 165.342 11.9568 165.247 11.6003L164.519 8.88359ZM165.053 18.1226L161.431 19.0932C160.764 19.2718 160.368 19.9574 160.547 20.6241L161.518 24.2463C161.696 24.913 162.382 25.3088 163.049 25.1302L166.671 24.1596C167.338 23.981 167.733 23.2954 167.555 22.6287L166.584 19.0065C166.406 18.3397 165.72 17.9439 165.053 18.1226ZM178 3.65381C176.987 3.92517 176.29 4.78162 176.168 5.76209L172.971 6.61893L173.699 9.33559C173.794 9.69216 173.802 10.0505 173.744 10.3927C175.283 10.9649 176.604 12.0507 177.451 13.5064L179.315 13.007C178.145 10.7048 176.063 9.04651 173.645 8.37928L176.654 7.5732C177.249 8.36158 178.281 8.75479 179.294 8.48344C180.627 8.12615 181.419 6.75538 181.061 5.42158C180.704 4.08777 179.333 3.29652 178 3.65381ZM180.75 13.9168L177.127 14.8873C176.461 15.066 176.065 15.7516 176.243 16.4183L177.214 20.0405C177.393 20.7072 178.078 21.103 178.745 20.9244L182.367 19.9538C183.034 19.7752 183.43 19.0896 183.251 18.4229L182.28 14.8007C182.102 14.1339 181.416 13.7381 180.75 13.9168Z" fill="black" fill-opacity="0.1"/>
</g>
<g clip-path="url(#clip8_1722_47824)">
<path d="M204.5 15.621L209.316 15.8539L210.468 13.8586L206.695 11.6801L204.5 15.621ZM207.177 3.48483C206.998 3.75369 206.901 4.0682 206.896 4.39084C206.892 4.71348 206.98 5.03062 207.151 5.30443L208.24 7.05043L206.585 9.91743L212.001 13.0445L213.654 10.1819L215.707 10.2541C216.366 10.2773 216.978 9.91292 217.272 9.32185L218.355 7.05061L208.598 1.4178L207.177 3.48483ZM223.168 -8.44571L219.611 -10.4994C218.458 -11.1653 216.986 -10.8198 216.249 -9.71026L209.434 0.201813L218.99 5.71905L224.166 -5.13864C224.759 -6.33181 224.322 -7.77955 223.168 -8.44571Z" fill="black" fill-opacity="0.1"/>
</g>
<g clip-path="url(#clip9_1722_47824)">
<path d="M268.423 -16.2578C267.038 -19.7085 263.052 -21.5116 258.951 -21.7423C261.166 -20.344 263.165 -17.7861 264.114 -14.2441L265.44 -14.5992L261.577 -7.01788C261.451 -7.01459 261.331 -7.02797 261.204 -6.99385L258.94 -6.38724L257.323 -12.4243L262.605 -13.8397C261.149 -19.273 256.929 -22.0245 254.142 -21.2776C251.354 -20.5307 249.075 -16.0378 250.531 -10.6045L255.813 -12.0199L257.431 -5.98284L255.167 -5.37623C255.04 -5.34211 254.943 -5.27059 254.832 -5.2107L247.696 -9.84493L249.022 -10.2001C248.073 -13.7421 248.525 -16.9571 249.744 -19.2754C246.31 -17.0205 243.759 -13.4658 244.284 -9.7899C244.347 -9.3468 244.819 -9.07404 245.253 -9.1903L245.664 -9.30025L254.031 -3.86355C254.03 -3.73208 254.021 -3.59808 254.058 -3.4613L255.675 2.57573C255.899 3.41054 256.754 3.90427 257.589 3.68059L263.626 2.06297C264.461 1.83928 264.954 0.984115 264.731 0.149306L263.113 -5.88773C263.076 -6.02451 263.002 -6.13104 262.935 -6.24954L267.468 -15.1426L267.878 -15.2526C268.317 -15.3701 268.591 -15.8378 268.423 -16.2578Z" fill="black" fill-opacity="0.1"/>
</g>
<g clip-path="url(#clip10_1722_47824)">
<path d="M21.5502 107.636L14.5474 103.593C13.166 102.795 11.4819 103.019 10.3439 104.016L3.96901 100.336L3.18421 97.4067L-4.06604 94.4966L-6.27575 98.3239L-0.13035 103.148L2.79856 102.363L9.17345 106.043C8.88334 107.527 9.52686 109.098 10.9083 109.896L17.9111 113.939C18.7842 114.443 19.8973 114.145 20.3967 113.273L22.2162 110.121C22.7156 109.249 22.4173 108.136 21.5502 107.636ZM11.4033 101.725C12.7381 101.368 14.1317 101.55 15.3277 102.241L16.4879 102.911C17.1459 102.386 17.732 101.743 18.1809 100.966C19.4618 98.7473 19.3964 96.1261 18.2408 94.0396C18.0233 93.6429 17.4512 93.6395 17.2233 94.0342L14.6545 98.4835L11.3093 98.8086L9.9182 95.749L12.487 91.2997C12.7149 90.905 12.4211 90.4125 11.9629 90.419C9.57942 90.4662 7.27667 91.7202 5.99919 93.9329C5.01517 95.6372 4.85835 97.5799 5.36527 99.3398L10.275 102.174C10.633 101.982 11.0166 101.829 11.4033 101.725ZM7.53924 106.906L4.14847 104.948L-1.11214 114.067C-1.97531 115.562 -1.46348 117.472 0.0315695 118.335C1.52662 119.198 3.43678 118.687 4.29994 117.192L8.56744 109.8C7.9575 108.957 7.57479 107.963 7.53924 106.906ZM1.89893 116.758C1.27636 116.925 0.630502 116.552 0.463685 115.93C0.295604 115.302 0.66504 114.662 1.29233 114.494C1.91961 114.326 2.55949 114.696 2.72757 115.323C2.89439 115.945 2.52622 116.59 1.89893 116.758Z" fill="black" fill-opacity="0.1"/>
</g>
<g clip-path="url(#clip11_1722_47824)">
<path d="M62.8004 87.4294L60.0943 85.8671C59.7355 85.6599 59.309 85.6038 58.9086 85.7111L56.515 86.3525L55.5038 82.5789C55.1688 81.3286 53.8837 80.5866 52.6334 80.9216L45.0871 82.9436C43.8367 83.2786 43.0948 84.5638 43.4298 85.8141L44.4408 89.5873L42.0472 90.2286C41.6468 90.3359 41.3059 90.5976 41.0983 90.9565L39.5361 93.6631C39.3289 94.0219 39.2728 94.4484 39.3801 94.8488L40.4258 98.7512L46.4628 97.1336L46.2606 96.3789C46.1489 95.962 46.3961 95.5338 46.813 95.4221L48.3223 95.0177C48.7392 94.906 49.1674 95.1532 49.2791 95.5701L49.4813 96.3247L55.5184 94.7071L55.3162 93.9525C55.2044 93.5356 55.4517 93.1074 55.8686 92.9957L57.3779 92.5913C57.7948 92.4795 58.223 92.7268 58.3347 93.1437L58.5369 93.8983L64.5739 92.2807L63.5282 88.3779C63.421 87.9779 63.1592 87.6366 62.8004 87.4294ZM53.4963 87.1608L47.4593 88.7785L46.6505 85.7599L52.6875 84.1423L53.4963 87.1608ZM59.1435 96.1622C59.2552 96.5791 59.008 97.0073 58.5911 97.119L57.0818 97.5234C56.6649 97.6352 56.2367 97.388 56.125 96.971L55.9228 96.2164L49.8857 97.834L50.0879 98.5886C50.1997 99.0056 49.9524 99.4338 49.5355 99.5455L48.0263 99.9499C47.6093 100.062 47.1811 99.8144 47.0694 99.3974L46.8672 98.6428L40.8302 100.26L42.0434 104.788C42.2667 105.622 43.1237 106.116 43.9571 105.893L65.0867 100.231C65.9201 100.008 66.4148 99.1511 66.1915 98.3177L64.9783 93.79L58.9413 95.4076L59.1435 96.1622Z" fill="black" fill-opacity="0.1"/>
</g>
<g clip-path="url(#clip12_1722_47824)">
<path d="M85.7481 94.0282L90.5644 94.2611L91.7164 92.2659L87.9431 90.0873L85.7481 94.0282ZM88.4248 81.8921C88.2464 82.1609 88.1491 82.4754 88.1445 82.7981C88.1399 83.1207 88.2283 83.4378 88.399 83.7117L89.4877 85.4577L87.8329 88.3247L93.2491 91.4517L94.9018 88.5891L96.9546 88.6614C97.614 88.6845 98.2263 88.3201 98.5199 87.7291L99.6027 85.4578L89.8464 79.825L88.4248 81.8921ZM104.416 69.9615L100.859 67.9078C99.7059 67.242 98.2337 67.5874 97.4966 68.697L90.6824 78.609L100.238 84.1263L105.414 73.2686C106.007 72.0754 105.57 70.6277 104.416 69.9615Z" fill="black" fill-opacity="0.1"/>
</g>
<g clip-path="url(#clip13_1722_47824)">
<path d="M135.577 57.8478C135.674 58.0593 137.53 62.1013 137.964 63.7191C138.625 66.1858 137.785 68.2963 136.036 69.5232L139.653 80.59C139.86 81.2273 139.492 81.9122 138.841 82.0866L135.823 82.8954C135.177 83.0685 134.512 82.6651 134.371 82.0054L131.97 70.6126C129.838 70.4258 128.059 69.0119 127.399 66.5499C126.964 64.9275 126.552 60.5035 126.531 60.2717C126.425 59.2738 128.407 58.7276 128.804 59.7182L130.588 66.3778C130.692 66.5218 131.341 66.3379 131.343 66.1756C131.089 64.9647 129.956 59.5105 129.928 59.3866C129.821 58.3639 131.773 57.8407 132.187 58.7813C132.231 58.9061 133.971 64.1925 134.356 65.3681C134.439 65.5076 135.097 65.3414 135.111 65.1659L133.327 58.5063C133.176 57.4547 135.169 56.9308 135.577 57.8478ZM144.809 69.8162L146.441 78.7359C146.561 79.4114 147.237 79.8371 147.897 79.6601L150.538 78.9524C151.165 78.7844 151.535 78.1445 151.367 77.5172L145.503 55.6329C145.336 55.0104 144.695 54.6362 144.068 54.8043C140.176 55.8469 135.881 66.0211 144.809 69.8162Z" fill="black" fill-opacity="0.1"/>
</g>
<g clip-path="url(#clip14_1722_47824)">
<path d="M189.07 44.3634L183.033 45.981C181.783 46.3159 181.041 47.6017 181.375 48.8515L182.993 54.8886C183.328 56.1384 184.614 56.8808 185.864 56.5459L189.637 55.5348L190.446 58.5534C190.892 60.2183 189.901 61.9346 188.236 62.3807L187.859 62.4818C187.231 62.6499 186.862 63.2898 187.03 63.917L187.637 66.1809C187.805 66.8082 188.444 67.1777 189.072 67.0096L189.449 66.9085C193.618 65.7913 196.091 61.5095 194.973 57.3402L191.94 46.0207C191.605 44.7709 190.32 44.0285 189.07 44.3634ZM175.486 48.0031L169.449 49.6207C168.2 49.9556 167.457 51.2413 167.792 52.4912L169.41 58.5282C169.745 59.7781 171.03 60.5204 172.28 60.1855L176.053 59.1745L176.862 62.193C177.308 63.8579 176.317 65.5742 174.653 66.0203L174.275 66.1214C173.648 66.2895 173.278 66.9294 173.447 67.5567L174.053 69.8206C174.221 70.4479 174.861 70.8173 175.488 70.6492L175.866 70.5481C180.035 69.4309 182.507 65.1491 181.39 60.9798L178.357 49.6604C178.022 48.4105 176.736 47.6682 175.486 48.0031Z" fill="black" fill-opacity="0.1"/>
</g>
<g clip-path="url(#clip15_1722_47824)">
<path d="M233.187 47.562L228.184 48.9026L232.536 54.6111C232.838 55.0066 232.762 55.5613 232.394 55.8623L230.346 57.4943C229.964 57.7987 229.421 57.713 229.122 57.331L224.988 51.9108L222.027 57.2102C221.633 57.9163 220.634 57.7212 220.437 56.9865L215.007 36.721C214.799 35.9475 215.638 35.3187 216.272 35.732L233.383 45.9353C234.066 46.3175 233.919 47.366 233.187 47.562Z" fill="black" fill-opacity="0.1"/>
</g>
<g clip-path="url(#clip16_1722_47824)">
<path d="M268.571 25.326L264.949 26.2966C264.282 26.4752 263.886 27.1608 264.065 27.8275L265.035 31.4497C265.214 32.1164 265.899 32.5122 266.566 32.3336L270.188 31.363C270.855 31.1844 271.251 30.4988 271.072 29.8321L270.102 26.2099C269.923 25.5432 269.237 25.1473 268.571 25.326ZM263.1 29.0566L259.902 29.9134C259.307 29.125 258.275 28.7318 257.262 29.0032C255.929 29.3605 255.137 30.7312 255.494 32.065C255.852 33.3988 257.223 34.1901 258.556 33.8328C259.569 33.5614 260.266 32.705 260.387 31.7245L263.396 30.9184C261.635 32.7053 260.662 35.1823 260.799 37.7611L262.663 37.2616C262.669 35.5774 263.27 33.9766 264.317 32.7114C264.096 32.4439 263.923 32.1298 263.828 31.7732L263.1 29.0566ZM263.634 38.2956L260.012 39.2661C259.345 39.4448 258.95 40.1303 259.128 40.7971L260.099 44.4193C260.277 45.086 260.963 45.4818 261.63 45.3032L265.252 44.3326C265.919 44.1539 266.314 43.4684 266.136 42.8017L265.165 39.1794C264.987 38.5127 264.301 38.1169 263.634 38.2956ZM276.581 23.8268C275.568 24.0981 274.871 24.9546 274.749 25.9351L271.552 26.7919L272.28 29.5086C272.375 29.8651 272.383 30.2235 272.325 30.5656C273.864 31.1379 275.185 32.2237 276.032 33.6794L277.896 33.18C276.726 30.8778 274.644 29.2195 272.226 28.5523L275.235 27.7462C275.83 28.5346 276.862 28.9278 277.875 28.6564C279.208 28.2991 280 26.9284 279.643 25.5946C279.285 24.2607 277.914 23.4695 276.581 23.8268ZM279.331 34.0897L275.708 35.0603C275.042 35.239 274.646 35.9245 274.824 36.5912L275.795 40.2135C275.974 40.8802 276.659 41.276 277.326 41.0974L280.948 40.1268C281.615 39.9481 282.011 39.2626 281.832 38.5959L280.862 34.9736C280.683 34.3069 279.997 33.9111 279.331 34.0897Z" fill="black" fill-opacity="0.1"/>
</g>
<g clip-path="url(#clip17_1722_47824)">
<path d="M323.638 18.3354L323.035 18.4972L322.387 16.0823C322.209 15.4156 321.523 15.0198 320.857 15.1985L318.079 15.9426L313.89 12.8602C313.588 12.6381 313.24 12.4867 312.871 12.4173C312.503 12.3479 312.123 12.3622 311.761 12.4592L307.488 13.6041C306.822 13.7827 306.426 14.4683 306.604 15.135L307.575 18.7572L300.934 20.5366C300.601 20.626 300.403 20.9685 300.492 21.3021L301.301 24.3206L300.697 24.4823C300.364 24.5717 300.166 24.9143 300.256 25.2478L300.579 26.4552C300.668 26.7888 301.011 26.9865 301.345 26.8972L301.975 26.7281C302.687 24.9745 304.162 23.554 306.131 23.0265C308.1 22.4989 310.087 22.9915 311.58 24.1545L314.05 23.4928C314.761 21.7391 316.236 20.3187 318.205 19.7912C320.174 19.2636 322.162 19.7561 323.655 20.9192L324.285 20.7502C324.619 20.6608 324.817 20.3183 324.727 19.9847L324.404 18.7773C324.314 18.4438 323.972 18.246 323.638 18.3354ZM309.99 18.1102L309.343 15.6954L312.408 14.874L314.987 16.7712L309.99 18.1102ZM323.725 23.4886L323.529 23.5411C323.372 23.2868 323.193 23.0536 322.991 22.8404L323.092 22.6648C323.265 22.3658 323.163 21.9836 322.864 21.8109L321.781 21.1859C321.482 21.0132 321.1 21.1156 320.927 21.4146L320.826 21.5902C320.539 21.5221 320.245 21.4835 319.95 21.475L319.898 21.2788C319.808 20.9453 319.466 20.7475 319.132 20.8369L317.925 21.1604C317.591 21.2498 317.393 21.5923 317.483 21.9259L317.535 22.1221C317.281 22.2792 317.048 22.4578 316.835 22.6597L316.659 22.5583C316.36 22.3857 315.978 22.4881 315.805 22.7871L315.18 23.8697C315.007 24.1688 315.11 24.551 315.409 24.7236L315.584 24.825C315.516 25.1122 315.478 25.4056 315.469 25.7006L315.273 25.7532C314.94 25.8426 314.742 26.1851 314.831 26.5187L315.155 27.7261C315.244 28.0596 315.587 28.2574 315.92 28.168L316.116 28.1155C316.273 28.3698 316.452 28.603 316.654 28.8162L316.553 28.9918C316.38 29.2908 316.482 29.673 316.781 29.8457L317.864 30.4707C318.163 30.6434 318.545 30.5409 318.718 30.2419L318.819 30.0664C319.105 30.1342 319.396 30.1725 319.695 30.1814L319.748 30.3776C319.837 30.7112 320.18 30.909 320.513 30.8196L321.721 30.4961C322.054 30.4067 322.252 30.0641 322.163 29.7306L322.11 29.5344C322.364 29.3773 322.598 29.1987 322.811 28.9967L322.987 29.0981C323.286 29.2707 323.668 29.1683 323.841 28.8693L324.466 27.7866C324.638 27.4876 324.536 27.1054 324.237 26.9328L324.061 26.8314C324.129 26.5442 324.168 26.2508 324.176 25.9557L324.373 25.9032C324.706 25.8138 324.904 25.4712 324.815 25.1377L324.491 23.9303C324.401 23.5969 324.058 23.3992 323.725 23.4886ZM320.308 27.6394C319.308 27.9074 318.279 27.3138 318.011 26.3136C317.743 25.3133 318.337 24.2852 319.337 24.0172C320.337 23.7492 321.366 24.3427 321.634 25.343C321.902 26.3433 321.308 27.3714 320.308 27.6394ZM311.651 26.7238L311.455 26.7764C311.298 26.522 311.119 26.2888 310.917 26.0756L311.018 25.9C311.191 25.601 311.089 25.2188 310.79 25.0462L309.707 24.4211C309.408 24.2485 309.026 24.3509 308.853 24.6499L308.752 24.8255C308.465 24.7573 308.171 24.7187 307.876 24.7103L307.823 24.5141C307.734 24.1805 307.392 23.9828 307.058 24.0721L305.851 24.3957C305.517 24.485 305.319 24.8276 305.409 25.1611L305.461 25.3573C305.207 25.5144 304.974 25.693 304.76 25.8949L304.585 25.7935C304.286 25.6209 303.904 25.7233 303.731 26.0223L303.106 27.1046C302.933 27.4036 303.036 27.7858 303.335 27.9585L303.51 28.0598C303.442 28.347 303.404 28.6405 303.395 28.9355L303.199 28.9881C302.865 29.0775 302.668 29.42 302.757 29.7535L303.08 30.961C303.17 31.2945 303.512 31.4923 303.846 31.4029L304.042 31.3503C304.199 31.6046 304.378 31.8379 304.58 32.0511L304.478 32.2267C304.306 32.5257 304.408 32.9079 304.707 33.0805L305.79 33.7056C306.089 33.8782 306.471 33.7758 306.644 33.4768L306.745 33.3012C307.031 33.3691 307.322 33.4074 307.621 33.4163L307.674 33.6125C307.763 33.946 308.106 34.1438 308.439 34.0544L309.646 33.7309C309.98 33.6415 310.178 33.299 310.088 32.9655L310.036 32.7692C310.29 32.6121 310.523 32.4336 310.737 32.2316L310.913 32.3329C311.212 32.5056 311.594 32.4032 311.766 32.1041L312.392 31.0215C312.564 30.7225 312.462 30.3403 312.163 30.1676L311.987 30.0663C312.055 29.7791 312.094 29.4856 312.102 29.1906L312.299 29.138C312.632 29.0486 312.83 28.7061 312.74 28.3726L312.417 27.1652C312.327 26.8322 311.984 26.6344 311.651 26.7238ZM308.234 30.8746C307.233 31.1427 306.205 30.5491 305.937 29.5488C305.669 28.5486 306.263 27.5204 307.263 27.2524C308.263 26.9844 309.292 27.578 309.56 28.5782C309.828 29.5785 309.234 30.6066 308.234 30.8746Z" fill="black" fill-opacity="0.1"/>
</g>
<g clip-path="url(#clip18_1722_47824)">
<path d="M363.664 -4.03631L341.782 1.8269C340.776 2.09631 340.596 3.4522 341.499 3.97373L352.559 10.3605L355.163 20.0791C355.262 20.4485 355.535 20.7463 355.895 20.8771L360.375 22.5063C361.259 22.828 362.155 22.0221 361.908 21.1018L358.596 8.74287L364.982 -2.31842C365.502 -3.21992 364.671 -4.30628 363.664 -4.03631Z" fill="black" fill-opacity="0.1"/>
</g>
<g clip-path="url(#clip19_1722_47824)">
<path d="M410.47 -7.73175C409.086 -11.1824 405.099 -12.9855 400.999 -13.2162C403.213 -11.8179 405.213 -9.26005 406.162 -5.71801L407.487 -6.07312L403.625 1.50821C403.499 1.5115 403.379 1.49812 403.252 1.53224L400.988 2.13885L399.37 -3.89819L404.653 -5.3136C403.197 -10.7469 398.977 -13.4984 396.189 -12.7515C393.402 -12.0047 391.123 -7.5117 392.579 -2.07836L397.861 -3.49378L399.479 2.54326L397.215 3.14986C397.088 3.18398 396.991 3.2555 396.88 3.31539L389.744 -1.31884L391.07 -1.67396C390.12 -5.216 390.573 -8.43104 391.792 -10.7493C388.357 -8.49444 385.807 -4.93971 386.332 -1.2638C386.395 -0.820706 386.867 -0.547945 387.301 -0.664211L387.711 -0.774159L396.078 4.66254C396.078 4.79401 396.069 4.92801 396.105 5.06479L397.723 11.1018C397.947 11.9366 398.802 12.4304 399.637 12.2067L405.674 10.5891C406.509 10.3654 407.002 9.51021 406.779 8.6754L405.161 2.63836C405.124 2.50159 405.05 2.39505 404.983 2.27655L409.516 -6.61654L409.926 -6.72649C410.364 -6.84402 410.639 -7.31174 410.47 -7.73175Z" fill="black" fill-opacity="0.1"/>
</g>
<g clip-path="url(#clip20_1722_47824)">
<path d="M31.0181 143.33L30.4144 143.492L29.7673 141.077C29.5887 140.41 28.9031 140.014 28.2364 140.193L25.4594 140.937L21.2696 137.855C20.9676 137.633 20.6194 137.481 20.251 137.412C19.8825 137.342 19.5031 137.357 19.141 137.454L14.8682 138.599C14.2015 138.777 13.8057 139.463 13.9844 140.13L14.9549 143.752L8.31419 145.531C7.98064 145.621 7.78288 145.963 7.87225 146.297L8.68106 149.315L8.07735 149.477C7.74381 149.566 7.54604 149.909 7.63541 150.242L7.95894 151.45C8.04831 151.783 8.39086 151.981 8.7244 151.892L9.35527 151.723C10.0667 149.969 11.5419 148.549 13.5107 148.021C15.4795 147.494 17.4673 147.986 18.9602 149.149L21.4297 148.487C22.1411 146.734 23.6163 145.313 25.5851 144.786C27.554 144.258 29.5418 144.751 31.0346 145.914L31.6651 145.745C31.9987 145.655 32.1965 145.313 32.1071 144.979L31.7836 143.772C31.6942 143.438 31.3516 143.241 31.0181 143.33ZM17.3697 143.105L16.7227 140.69L19.788 139.869L22.3669 141.766L17.3697 143.105ZM31.1048 148.483L30.9086 148.536C30.7515 148.281 30.5729 148.048 30.371 147.835L30.4724 147.659C30.645 147.36 30.5426 146.978 30.2436 146.805L29.1609 146.18C28.8619 146.008 28.4797 146.11 28.3071 146.409L28.2057 146.585C27.9185 146.517 27.6251 146.478 27.33 146.47L27.2775 146.273C27.1881 145.94 26.8455 145.742 26.512 145.831L25.3046 146.155C24.971 146.244 24.7733 146.587 24.8626 146.92L24.9152 147.117C24.6609 147.274 24.4277 147.452 24.2145 147.654L24.0389 147.553C23.7399 147.38 23.3576 147.483 23.185 147.782L22.5599 148.864C22.3873 149.163 22.4897 149.546 22.7887 149.718L22.9643 149.82C22.8962 150.107 22.8576 150.4 22.8491 150.695L22.6529 150.748C22.3194 150.837 22.1216 151.18 22.211 151.513L22.5345 152.721C22.6239 153.054 22.9664 153.252 23.3 153.163L23.4962 153.11C23.6533 153.364 23.8319 153.598 24.0338 153.811L23.9324 153.986C23.7598 154.285 23.8622 154.668 24.1612 154.84L25.2438 155.465C25.5428 155.638 25.9251 155.536 26.0977 155.237L26.1991 155.061C26.4846 155.129 26.7763 155.167 27.0751 155.176L27.1277 155.372C27.2171 155.706 27.5596 155.904 27.8931 155.814L29.1006 155.491C29.4341 155.401 29.6319 155.059 29.5425 154.725L29.4899 154.529C29.7443 154.372 29.9775 154.193 30.1911 153.991L30.3666 154.093C30.6656 154.265 31.0479 154.163 31.2205 153.864L31.8456 152.781C32.0182 152.482 31.9158 152.1 31.6168 151.927L31.4412 151.826C31.5093 151.539 31.5479 151.245 31.5564 150.95L31.7526 150.898C32.0861 150.808 32.2839 150.466 32.1945 150.132L31.871 148.925C31.7809 148.592 31.4383 148.394 31.1048 148.483ZM27.6877 152.634C26.6874 152.902 25.6593 152.308 25.3913 151.308C25.1232 150.308 25.7168 149.28 26.7171 149.012C27.7174 148.744 28.7455 149.337 29.0135 150.338C29.2815 151.338 28.6879 152.366 27.6877 152.634ZM19.0307 151.718L18.8345 151.771C18.6774 151.517 18.4988 151.283 18.2969 151.07L18.3983 150.895C18.5709 150.596 18.4685 150.213 18.1695 150.041L17.0868 149.416C16.7878 149.243 16.4056 149.345 16.233 149.644L16.1316 149.82C15.8444 149.752 15.551 149.713 15.256 149.705L15.2034 149.509C15.114 149.175 14.7715 148.977 14.4379 149.067L13.2305 149.39C12.897 149.48 12.6992 149.822 12.7886 150.156L12.8411 150.352C12.5868 150.509 12.3536 150.688 12.1404 150.889L11.9648 150.788C11.6658 150.615 11.2836 150.718 11.1109 151.017L10.4858 152.099C10.3131 152.398 10.4155 152.78 10.7146 152.953L10.8901 153.054C10.822 153.342 10.7834 153.635 10.775 153.93L10.5788 153.983C10.2452 154.072 10.0474 154.415 10.1368 154.748L10.4603 155.956C10.5497 156.289 10.8923 156.487 11.2258 156.397L11.422 156.345C11.5791 156.599 11.7577 156.832 11.9596 157.046L11.8582 157.221C11.6856 157.52 11.788 157.902 12.087 158.075L13.1697 158.7C13.4687 158.873 13.8509 158.77 14.0235 158.471L14.1249 158.296C14.4104 158.364 14.7021 158.402 15.0009 158.411L15.0535 158.607C15.1429 158.941 15.4854 159.138 15.819 159.049L17.0264 158.725C17.3599 158.636 17.5577 158.294 17.4683 157.96L17.4158 157.764C17.6701 157.607 17.9033 157.428 18.1169 157.226L18.2925 157.328C18.5915 157.5 18.9737 157.398 19.1463 157.099L19.7714 156.016C19.944 155.717 19.8416 155.335 19.5426 155.162L19.367 155.061C19.4352 154.774 19.4738 154.48 19.4822 154.185L19.6784 154.133C20.012 154.043 20.2097 153.701 20.1204 153.367L19.7968 152.16C19.7068 151.827 19.3643 151.629 19.0307 151.718ZM15.6136 155.869C14.6133 156.137 13.5852 155.544 13.3172 154.543C13.0492 153.543 13.6428 152.515 14.643 152.247C15.6433 151.979 16.6714 152.573 16.9394 153.573C17.2074 154.573 16.6139 155.601 15.6136 155.869Z" fill="black" fill-opacity="0.1"/>
</g>
<g clip-path="url(#clip21_1722_47824)">
<path d="M71.0434 120.958L49.1616 126.822C48.1561 127.091 47.9757 128.447 48.879 128.968L59.9392 135.355L62.5433 145.074C62.6423 145.443 62.9153 145.741 63.2746 145.872L67.7552 147.501C68.6393 147.823 69.5344 147.017 69.2878 146.096L65.9763 133.737L72.3616 122.676C72.882 121.775 72.0509 120.688 71.0434 120.958Z" fill="black" fill-opacity="0.1"/>
</g>
<g clip-path="url(#clip22_1722_47824)">
<path d="M114.434 125.969L109.431 127.31L113.783 133.018C114.085 133.414 114.009 133.969 113.641 134.27L111.593 135.901C111.211 136.206 110.668 136.12 110.369 135.738L106.235 130.318L103.274 135.617C102.88 136.323 101.881 136.128 101.684 135.394L96.2537 115.128C96.0465 114.355 96.885 113.726 97.5192 114.139L114.63 124.342C115.313 124.725 115.166 125.773 114.434 125.969Z" fill="black" fill-opacity="0.1"/>
</g>
<g clip-path="url(#clip23_1722_47824)">
<path d="M163.597 116.162L156.594 112.119C155.213 111.321 153.529 111.545 152.391 112.542L146.016 108.862L145.231 105.933L137.981 103.023L135.771 106.85L141.917 111.674L144.845 110.889L151.22 114.57C150.93 116.053 151.574 117.624 152.955 118.422L159.958 122.465C160.831 122.969 161.944 122.671 162.444 121.799L164.263 118.647C164.762 117.775 164.464 116.662 163.597 116.162ZM153.45 110.252C154.785 109.894 156.179 110.077 157.375 110.767L158.535 111.437C159.193 110.912 159.779 110.269 160.228 109.492C161.509 107.273 161.443 104.652 160.288 102.566C160.07 102.169 159.498 102.166 159.27 102.56L156.701 107.01L153.356 107.335L151.965 104.275L154.534 99.8258C154.762 99.4311 154.468 98.9386 154.01 98.9451C151.626 98.9923 149.324 100.246 148.046 102.459C147.062 104.163 146.905 106.106 147.412 107.866L152.322 110.7C152.68 110.508 153.063 110.355 153.45 110.252ZM149.586 115.432L146.195 113.474L140.935 122.593C140.072 124.088 140.583 125.998 142.078 126.861C143.573 127.724 145.484 127.213 146.347 125.718L150.614 118.326C150.004 117.484 149.622 116.489 149.586 115.432ZM143.946 125.284C143.323 125.451 142.677 125.078 142.511 124.456C142.342 123.828 142.712 123.188 143.339 123.02C143.966 122.852 144.606 123.222 144.774 123.849C144.941 124.472 144.573 125.116 143.946 125.284Z" fill="black" fill-opacity="0.1"/>
</g>
<g clip-path="url(#clip24_1722_47824)">
<path d="M193.284 92.0863L189.661 93.0569C188.995 93.2355 188.599 93.9211 188.778 94.5878L189.748 98.21C189.927 98.8767 190.612 99.2726 191.279 99.0939L194.901 98.1233C195.568 97.9447 195.964 97.2591 195.785 96.5924L194.815 92.9702C194.636 92.3035 193.95 91.9077 193.284 92.0863ZM187.813 95.8169L184.615 96.6737C184.02 95.8853 182.988 95.4921 181.975 95.7635C180.642 96.1208 179.85 97.4915 180.207 98.8253C180.565 100.159 181.936 100.95 183.269 100.593C184.282 100.322 184.979 99.4653 185.1 98.4848L188.109 97.6787C186.348 99.4656 185.375 101.943 185.512 104.521L187.376 104.022C187.382 102.338 187.983 100.737 189.03 99.4717C188.809 99.2043 188.636 98.8901 188.541 98.5335L187.813 95.8169ZM188.347 105.056L184.725 106.026C184.058 106.205 183.662 106.891 183.841 107.557L184.812 111.18C184.99 111.846 185.676 112.242 186.343 112.063L189.965 111.093C190.632 110.914 191.027 110.229 190.849 109.562L189.878 105.94C189.699 105.273 189.014 104.877 188.347 105.056ZM201.294 90.5871C200.281 90.8585 199.584 91.7149 199.462 92.6954L196.265 93.5522L196.993 96.2689C197.088 96.6254 197.096 96.9838 197.038 97.3259C198.577 97.8982 199.898 98.984 200.745 100.44L202.609 99.9403C201.439 97.6381 199.357 95.9798 196.939 95.3126L199.948 94.5065C200.543 95.2949 201.575 95.6881 202.588 95.4167C203.921 95.0594 204.713 93.6887 204.355 92.3549C203.998 91.0211 202.627 90.2298 201.294 90.5871ZM204.043 100.85L200.421 101.821C199.755 101.999 199.359 102.685 199.537 103.352L200.508 106.974C200.687 107.641 201.372 108.036 202.039 107.858L205.661 106.887C206.328 106.708 206.724 106.023 206.545 105.356L205.574 101.734C205.396 101.067 204.71 100.671 204.043 100.85Z" fill="black" fill-opacity="0.1"/>
</g>
<g clip-path="url(#clip25_1722_47824)">
<path d="M227.794 102.554L232.61 102.787L233.762 100.792L229.989 98.6133L227.794 102.554ZM230.471 90.4181C230.292 90.6869 230.195 91.0014 230.19 91.3241C230.186 91.6467 230.274 91.9639 230.445 92.2377L231.534 93.9837L229.879 96.8507L235.295 99.9777L236.948 97.1151L239.001 97.1874C239.66 97.2105 240.272 96.8462 240.566 96.2551L241.649 93.9838L231.892 88.351L230.471 90.4181ZM246.462 78.4875L242.905 76.4338C241.752 75.768 240.28 76.1134 239.543 77.223L232.728 87.135L242.284 92.6523L247.46 81.7946C248.053 80.6014 247.616 79.1537 246.462 78.4875Z" fill="black" fill-opacity="0.1"/>
</g>
<g clip-path="url(#clip26_1722_47824)">
<path d="M291.716 70.6754C290.332 67.2248 286.346 65.4217 282.245 65.191C284.459 66.5893 286.459 69.1471 287.408 72.6892L288.734 72.3341L284.871 79.9154C284.745 79.9187 284.625 79.9053 284.498 79.9394L282.234 80.546L280.617 74.509L285.899 73.0936C284.443 67.6603 280.223 64.9088 277.436 65.6557C274.648 66.4025 272.369 70.8955 273.825 76.3288L279.107 74.9134L280.725 80.9505L278.461 81.5571C278.334 81.5912 278.237 81.6627 278.126 81.7226L270.99 77.0884L272.316 76.7332C271.367 73.1912 271.819 69.9762 273.038 67.6579C269.603 69.9128 267.053 73.4675 267.578 77.1434C267.641 77.5865 268.113 77.8593 268.547 77.743L268.958 77.633L277.325 83.0697C277.324 83.2012 277.315 83.3352 277.351 83.472L278.969 89.509C279.193 90.3438 280.048 90.8376 280.883 90.6139L286.92 88.9963C287.755 88.7726 288.248 87.9174 288.025 87.0826L286.407 81.0456C286.37 80.9088 286.296 80.8022 286.229 80.6837L290.762 71.7907L291.172 71.6807C291.611 71.5632 291.885 71.0955 291.716 70.6754Z" fill="black" fill-opacity="0.1"/>
</g>
<g clip-path="url(#clip27_1722_47824)">
<path d="M331.117 52.8894L325.08 54.507C323.83 54.8419 323.087 56.1277 323.422 57.3775L325.04 63.4146C325.375 64.6644 326.661 65.4068 327.91 65.0719L331.684 64.0608L332.492 67.0794C332.939 68.7443 331.948 70.4606 330.283 70.9067L329.905 71.0078C329.278 71.1759 328.909 71.8158 329.077 72.443L329.683 74.7069C329.851 75.3342 330.491 75.7037 331.119 75.5356L331.496 75.4345C335.665 74.3173 338.137 70.0355 337.02 65.8662L333.987 54.5467C333.652 53.2969 332.367 52.5545 331.117 52.8894ZM317.533 56.5291L311.496 58.1467C310.246 58.4816 309.504 59.7673 309.839 61.0172L311.457 67.0542C311.792 68.3041 313.077 69.0464 314.327 68.7115L318.1 67.7005L318.909 70.719C319.355 72.3839 318.364 74.1002 316.699 74.5463L316.322 74.6474C315.695 74.8155 315.325 75.4554 315.493 76.0827L316.1 78.3466C316.268 78.9739 316.908 79.3433 317.535 79.1752L317.913 79.0741C322.082 77.9569 324.554 73.6751 323.437 69.5058L320.404 58.1864C320.069 56.9365 318.783 56.1942 317.533 56.5291Z" fill="black" fill-opacity="0.1"/>
</g>
<g clip-path="url(#clip28_1722_47824)">
<path d="M364.556 43.0801C364.653 43.2916 366.51 47.3336 366.943 48.9514C367.604 51.4181 366.764 53.5286 365.016 54.7555L368.633 65.8223C368.839 66.4596 368.472 67.1445 367.821 67.3189L364.802 68.1277C364.156 68.3008 363.492 67.8974 363.351 67.2377L360.95 55.8449C358.817 55.6581 357.038 54.2442 356.378 51.7822C355.944 50.1598 355.532 45.7358 355.51 45.504C355.404 44.5061 357.386 43.9599 357.783 44.9505L359.568 51.6101C359.672 51.7541 360.32 51.5702 360.322 51.4079C360.068 50.197 358.936 44.7428 358.907 44.6189C358.8 43.5962 360.753 43.073 361.167 44.0136C361.21 44.1384 362.95 49.4248 363.336 50.6004C363.419 50.7399 364.077 50.5737 364.091 50.3982L362.306 43.7386C362.156 42.687 364.149 42.1631 364.556 43.0801ZM373.789 55.0485L375.421 63.9682C375.541 64.6437 376.216 65.0694 376.876 64.8924L379.518 64.1847C380.145 64.0167 380.514 63.3768 380.346 62.7495L374.482 40.8652C374.315 40.2427 373.674 39.8685 373.047 40.0366C369.156 41.0792 364.861 51.2534 373.789 55.0485Z" fill="black" fill-opacity="0.1"/>
</g>
<g clip-path="url(#clip29_1722_47824)">
<path d="M109.042 180.962L113.858 181.194L115.01 179.199L111.237 177.021L109.042 180.962ZM111.719 168.825C111.54 169.094 111.443 169.409 111.438 169.731C111.434 170.054 111.522 170.371 111.693 170.645L112.782 172.391L111.127 175.258L116.543 178.385L118.196 175.522L120.249 175.595C120.908 175.618 121.52 175.253 121.814 174.662L122.897 172.391L113.14 166.758L111.719 168.825ZM127.71 156.895L124.153 154.841C123 154.175 121.528 154.521 120.791 155.63L113.976 165.542L123.532 171.06L128.708 160.202C129.301 159.009 128.864 157.561 127.71 156.895Z" fill="black" fill-opacity="0.1"/>
</g>
<g clip-path="url(#clip30_1722_47824)">
<path d="M158.871 144.781C158.968 144.993 160.824 149.035 161.258 150.652C161.919 153.119 161.079 155.23 159.33 156.456L162.947 167.523C163.154 168.161 162.786 168.845 162.135 169.02L159.117 169.829C158.471 170.002 157.806 169.598 157.665 168.939L155.264 157.546C153.132 157.359 151.353 155.945 150.693 153.483C150.258 151.861 149.846 147.437 149.825 147.205C149.719 146.207 151.701 145.661 152.098 146.652L153.882 153.311C153.986 153.455 154.635 153.271 154.637 153.109C154.383 151.898 153.25 146.444 153.222 146.32C153.115 145.297 155.067 144.774 155.481 145.715C155.525 145.839 157.265 151.126 157.65 152.301C157.733 152.441 158.391 152.275 158.405 152.099L156.621 145.44C156.47 144.388 158.463 143.864 158.871 144.781ZM168.103 156.75L169.735 165.669C169.855 166.345 170.53 166.77 171.191 166.593L173.832 165.886C174.459 165.718 174.829 165.078 174.661 164.45L168.797 142.566C168.63 141.944 167.989 141.569 167.361 141.738C163.47 142.78 159.175 152.954 168.103 156.75Z" fill="black" fill-opacity="0.1"/>
</g>
<g clip-path="url(#clip31_1722_47824)">
<path d="M212.364 131.297L206.327 132.914C205.077 133.249 204.335 134.535 204.669 135.785L206.287 141.822C206.622 143.072 207.908 143.814 209.158 143.479L212.931 142.468L213.74 145.487C214.186 147.152 213.195 148.868 211.53 149.314L211.152 149.415C210.525 149.583 210.156 150.223 210.324 150.85L210.93 153.114C211.099 153.742 211.738 154.111 212.366 153.943L212.743 153.842C216.912 152.725 219.384 148.443 218.267 144.273L215.234 132.954C214.899 131.704 213.614 130.962 212.364 131.297ZM198.78 134.936L192.743 136.554C191.494 136.889 190.751 138.175 191.086 139.424L192.704 145.462C193.039 146.711 194.324 147.454 195.574 147.119L199.347 146.108L200.156 149.126C200.602 150.791 199.611 152.508 197.946 152.954L197.569 153.055C196.942 153.223 196.572 153.863 196.741 154.49L197.347 156.754C197.515 157.381 198.155 157.751 198.782 157.583L199.16 157.481C203.329 156.364 205.801 152.082 204.684 147.913L201.651 136.594C201.316 135.344 200.03 134.601 198.78 134.936Z" fill="black" fill-opacity="0.1"/>
</g>
<g clip-path="url(#clip32_1722_47824)">
<path d="M256.481 134.495L251.478 135.836L255.83 141.544C256.132 141.94 256.056 142.495 255.688 142.796L253.64 144.428C253.258 144.732 252.715 144.646 252.416 144.264L248.282 138.844L245.321 144.143C244.927 144.85 243.928 144.654 243.731 143.92L238.301 123.654C238.093 122.881 238.932 122.252 239.566 122.665L256.677 132.869C257.36 133.251 257.213 134.299 256.481 134.495Z" fill="black" fill-opacity="0.1"/>
</g>
<g clip-path="url(#clip33_1722_47824)">
<path d="M291.865 112.259L288.242 113.23C287.576 113.408 287.18 114.094 287.359 114.761L288.329 118.383C288.508 119.05 289.193 119.445 289.86 119.267L293.482 118.296C294.149 118.118 294.545 117.432 294.366 116.765L293.396 113.143C293.217 112.476 292.531 112.081 291.865 112.259ZM286.394 115.99L283.196 116.847C282.601 116.058 281.569 115.665 280.556 115.936C279.223 116.294 278.431 117.664 278.788 118.998C279.146 120.332 280.517 121.123 281.85 120.766C282.863 120.495 283.56 119.638 283.681 118.658L286.69 117.852C284.929 119.638 283.956 122.116 284.093 124.694L285.957 124.195C285.963 122.511 286.564 120.91 287.611 119.645C287.39 119.377 287.217 119.063 287.122 118.706L286.394 115.99ZM286.928 125.229L283.306 126.199C282.639 126.378 282.243 127.064 282.422 127.73L283.393 131.353C283.571 132.019 284.257 132.415 284.924 132.236L288.546 131.266C289.213 131.087 289.608 130.402 289.43 129.735L288.459 126.113C288.281 125.446 287.595 125.05 286.928 125.229ZM299.875 110.76C298.862 111.031 298.165 111.888 298.043 112.868L294.846 113.725L295.574 116.442C295.669 116.798 295.677 117.157 295.619 117.499C297.158 118.071 298.479 119.157 299.326 120.613L301.19 120.113C300.02 117.811 297.938 116.153 295.52 115.485L298.529 114.679C299.124 115.468 300.156 115.861 301.169 115.59C302.502 115.232 303.294 113.862 302.936 112.528C302.579 111.194 301.208 110.403 299.875 110.76ZM302.625 121.023L299.002 121.994C298.336 122.172 297.94 122.858 298.118 123.524L299.089 127.147C299.268 127.813 299.953 128.209 300.62 128.031L304.242 127.06C304.909 126.881 305.305 126.196 305.126 125.529L304.155 121.907C303.977 121.24 303.291 120.844 302.625 121.023Z" fill="black" fill-opacity="0.1"/>
</g>
<g clip-path="url(#clip34_1722_47824)">
<path d="M346.932 105.269L346.328 105.43L345.681 103.016C345.503 102.349 344.817 101.953 344.15 102.132L341.373 102.876L337.184 99.7934C336.882 99.5713 336.533 99.4199 336.165 99.3505C335.797 99.2811 335.417 99.2954 335.055 99.3924L330.782 100.537C330.116 100.716 329.72 101.402 329.898 102.068L330.869 105.69L324.228 107.47C323.895 107.559 323.697 107.902 323.786 108.235L324.595 111.254L323.991 111.416C323.658 111.505 323.46 111.847 323.549 112.181L323.873 113.388C323.962 113.722 324.305 113.92 324.638 113.83L325.269 113.661C325.981 111.908 327.456 110.487 329.425 109.96C331.394 109.432 333.381 109.925 334.874 111.088L337.344 110.426C338.055 108.672 339.53 107.252 341.499 106.724C343.468 106.197 345.456 106.689 346.949 107.852L347.579 107.683C347.913 107.594 348.111 107.252 348.021 106.918L347.698 105.711C347.608 105.377 347.266 105.179 346.932 105.269ZM333.284 105.043L332.637 102.629L335.702 101.807L338.281 103.704L333.284 105.043ZM347.019 110.422L346.823 110.474C346.666 110.22 346.487 109.987 346.285 109.774L346.386 109.598C346.559 109.299 346.457 108.917 346.158 108.744L345.075 108.119C344.776 107.946 344.394 108.049 344.221 108.348L344.12 108.523C343.833 108.455 343.539 108.417 343.244 108.408L343.192 108.212C343.102 107.879 342.76 107.681 342.426 107.77L341.219 108.094C340.885 108.183 340.687 108.526 340.777 108.859L340.829 109.055C340.575 109.212 340.342 109.391 340.129 109.593L339.953 109.492C339.654 109.319 339.272 109.421 339.099 109.72L338.474 110.803C338.301 111.102 338.404 111.484 338.703 111.657L338.878 111.758C338.81 112.045 338.772 112.339 338.763 112.634L338.567 112.686C338.233 112.776 338.036 113.118 338.125 113.452L338.449 114.659C338.538 114.993 338.88 115.191 339.214 115.101L339.41 115.049C339.567 115.303 339.746 115.536 339.948 115.749L339.846 115.925C339.674 116.224 339.776 116.606 340.075 116.779L341.158 117.404C341.457 117.577 341.839 117.474 342.012 117.175L342.113 117C342.399 117.067 342.69 117.106 342.989 117.115L343.042 117.311C343.131 117.644 343.474 117.842 343.807 117.753L345.015 117.429C345.348 117.34 345.546 116.997 345.457 116.664L345.404 116.468C345.658 116.31 345.892 116.132 346.105 115.93L346.281 116.031C346.58 116.204 346.962 116.102 347.135 115.803L347.76 114.72C347.932 114.421 347.83 114.039 347.531 113.866L347.355 113.765C347.423 113.477 347.462 113.184 347.47 112.889L347.667 112.836C348 112.747 348.198 112.404 348.109 112.071L347.785 110.864C347.695 110.53 347.352 110.332 347.019 110.422ZM343.602 114.573C342.601 114.841 341.573 114.247 341.305 113.247C341.037 112.247 341.631 111.218 342.631 110.95C343.631 110.682 344.66 111.276 344.928 112.276C345.196 113.276 344.602 114.305 343.602 114.573ZM334.945 113.657L334.749 113.71C334.591 113.455 334.413 113.222 334.211 113.009L334.312 112.833C334.485 112.534 334.383 112.152 334.084 111.979L333.001 111.354C332.702 111.182 332.32 111.284 332.147 111.583L332.046 111.759C331.758 111.691 331.465 111.652 331.17 111.644L331.117 111.447C331.028 111.114 330.686 110.916 330.352 111.005L329.145 111.329C328.811 111.418 328.613 111.761 328.703 112.094L328.755 112.291C328.501 112.448 328.268 112.626 328.054 112.828L327.879 112.727C327.58 112.554 327.198 112.657 327.025 112.956L326.4 114.038C326.227 114.337 326.33 114.719 326.629 114.892L326.804 114.993C326.736 115.28 326.697 115.574 326.689 115.869L326.493 115.921C326.159 116.011 325.962 116.353 326.051 116.687L326.374 117.894C326.464 118.228 326.806 118.425 327.14 118.336L327.336 118.284C327.493 118.538 327.672 118.771 327.874 118.984L327.772 119.16C327.6 119.459 327.702 119.841 328.001 120.014L329.084 120.639C329.383 120.811 329.765 120.709 329.938 120.41L330.039 120.234C330.324 120.302 330.616 120.341 330.915 120.35L330.968 120.546C331.057 120.879 331.399 121.077 331.733 120.988L332.94 120.664C333.274 120.575 333.472 120.232 333.382 119.899L333.33 119.702C333.584 119.545 333.817 119.367 334.031 119.165L334.207 119.266C334.506 119.439 334.888 119.336 335.06 119.037L335.685 117.955C335.858 117.656 335.756 117.273 335.457 117.101L335.281 116.999C335.349 116.712 335.388 116.419 335.396 116.124L335.592 116.071C335.926 115.982 336.124 115.639 336.034 115.306L335.711 114.098C335.621 113.765 335.278 113.568 334.945 113.657ZM331.528 117.808C330.527 118.076 329.499 117.482 329.231 116.482C328.963 115.482 329.557 114.454 330.557 114.186C331.557 113.918 332.585 114.511 332.853 115.511C333.121 116.512 332.528 117.54 331.528 117.808Z" fill="black" fill-opacity="0.1"/>
</g>
<g clip-path="url(#clip35_1722_47824)">
<path d="M386.957 82.897L365.076 88.7602C364.07 89.0296 363.89 90.3855 364.793 90.907L375.853 97.2938L378.457 107.012C378.556 107.382 378.829 107.68 379.189 107.81L383.669 109.44C384.553 109.761 385.448 108.955 385.202 108.035L381.89 95.6762L388.276 84.6149C388.796 83.7134 387.965 82.627 386.957 82.897Z" fill="black" fill-opacity="0.1"/>
</g>
<g clip-path="url(#clip36_1722_47824)">
<path d="M315.01 157.609C313.626 154.158 309.64 152.355 305.539 152.124C307.753 153.523 309.753 156.08 310.702 159.623L312.028 159.267L308.165 166.849C308.039 166.852 307.919 166.839 307.792 166.873L305.528 167.479L303.911 161.442L309.193 160.027C307.737 154.594 303.517 151.842 300.729 152.589C297.942 153.336 295.663 157.829 297.119 163.262L302.401 161.847L304.019 167.884L301.755 168.49C301.628 168.525 301.531 168.596 301.42 168.656L294.284 164.022L295.61 163.667C294.661 160.125 295.113 156.91 296.332 154.591C292.897 156.846 290.347 160.401 290.872 164.077C290.935 164.52 291.407 164.793 291.841 164.676L292.252 164.566L300.619 170.003C300.618 170.135 300.609 170.269 300.645 170.405L302.263 176.442C302.487 177.277 303.342 177.771 304.177 177.547L310.214 175.93C311.049 175.706 311.542 174.851 311.319 174.016L309.701 167.979C309.664 167.842 309.59 167.736 309.523 167.617L314.056 158.724L314.466 158.614C314.905 158.497 315.179 158.029 315.01 157.609Z" fill="black" fill-opacity="0.1"/>
</g>
<g clip-path="url(#clip37_1722_47824)">
<path d="M354.411 139.823L348.374 141.44C347.124 141.775 346.381 143.061 346.716 144.311L348.334 150.348C348.669 151.598 349.955 152.34 351.204 152.005L354.978 150.994L355.786 154.013C356.232 155.678 355.242 157.394 353.577 157.84L353.199 157.941C352.572 158.109 352.203 158.749 352.371 159.376L352.977 161.64C353.145 162.268 353.785 162.637 354.413 162.469L354.79 162.368C358.959 161.251 361.431 156.969 360.314 152.8L357.281 141.48C356.946 140.23 355.66 139.488 354.411 139.823ZM340.827 143.462L334.79 145.08C333.54 145.415 332.798 146.701 333.133 147.951L334.751 153.988C335.085 155.237 336.371 155.98 337.621 155.645L341.394 154.634L342.203 157.652C342.649 159.317 341.658 161.034 339.993 161.48L339.616 161.581C338.989 161.749 338.619 162.389 338.787 163.016L339.394 165.28C339.562 165.907 340.202 166.277 340.829 166.109L341.207 166.007C345.376 164.89 347.848 160.608 346.731 156.439L343.698 145.12C343.363 143.87 342.077 143.128 340.827 143.462Z" fill="black" fill-opacity="0.1"/>
</g>
<g clip-path="url(#clip38_1722_47824)">
<path d="M387.85 130.013C387.947 130.225 389.804 134.267 390.237 135.885C390.898 138.351 390.058 140.462 388.309 141.689L391.927 152.756C392.133 153.393 391.766 154.078 391.115 154.252L388.096 155.061C387.45 155.234 386.786 154.831 386.645 154.171L384.244 142.778C382.111 142.591 380.332 141.178 379.672 138.716C379.238 137.093 378.826 132.669 378.804 132.437C378.698 131.439 380.68 130.893 381.077 131.884L382.862 138.543C382.966 138.687 383.614 138.504 383.616 138.341C383.362 137.13 382.23 131.676 382.201 131.552C382.094 130.53 384.047 130.006 384.461 130.947C384.504 131.072 386.244 136.358 386.63 137.534C386.713 137.673 387.371 137.507 387.385 137.332L385.6 130.672C385.45 129.62 387.443 129.096 387.85 130.013ZM397.083 141.982L398.714 150.902C398.835 151.577 399.51 152.003 400.17 151.826L402.811 151.118C403.439 150.95 403.808 150.31 403.64 149.683L397.776 127.799C397.609 127.176 396.968 126.802 396.341 126.97C392.45 128.013 388.155 138.187 397.083 141.982Z" fill="black" fill-opacity="0.1"/>
</g>
<defs>
<clipPath id="clip0_1722_47824">
<rect width="25" height="25" fill="white" transform="translate(-30.3789 8.37207) rotate(-15)"/>
</clipPath>
<clipPath id="clip1_1722_47824">
<rect width="25" height="25" fill="white" transform="translate(13.0879 -3.27478) rotate(-15)"/>
</clipPath>
<clipPath id="clip2_1722_47824">
<rect width="25" height="25" fill="white" transform="translate(56.5547 -14.9216) rotate(-15)"/>
</clipPath>
<clipPath id="clip3_1722_47824">
<rect width="25" height="25" fill="white" transform="translate(-18.7324 51.8387) rotate(-15)"/>
</clipPath>
<clipPath id="clip4_1722_47824">
<rect width="25" height="25" fill="white" transform="translate(24.7344 40.1919) rotate(-15)"/>
</clipPath>
<clipPath id="clip5_1722_47824">
<rect width="25" height="25" fill="white" transform="translate(68.2012 28.545) rotate(-15)"/>
</clipPath>
<clipPath id="clip6_1722_47824">
<rect width="25" height="25" fill="white" transform="translate(111.668 16.8982) rotate(-15)"/>
</clipPath>
<clipPath id="clip7_1722_47824">
<rect width="25" height="25" fill="white" transform="translate(155.134 5.25131) rotate(-15)"/>
</clipPath>
<clipPath id="clip8_1722_47824">
<rect width="25" height="25" fill="white" transform="translate(198.601 -6.39554) rotate(-15)"/>
</clipPath>
<clipPath id="clip9_1722_47824">
<rect width="25" height="25" fill="white" transform="translate(242.067 -18.0424) rotate(-15)"/>
</clipPath>
<clipPath id="clip10_1722_47824">
<rect width="25" height="25" fill="white" transform="translate(-7.08496 95.3054) rotate(-15)"/>
</clipPath>
<clipPath id="clip11_1722_47824">
<rect width="25" height="25" fill="white" transform="translate(36.3818 83.6586) rotate(-15)"/>
</clipPath>
<clipPath id="clip12_1722_47824">
<rect width="25" height="25" fill="white" transform="translate(79.8486 72.0117) rotate(-15)"/>
</clipPath>
<clipPath id="clip13_1722_47824">
<rect width="25" height="25" fill="white" transform="translate(123.315 60.3649) rotate(-15)"/>
</clipPath>
<clipPath id="clip14_1722_47824">
<rect width="25" height="25" fill="white" transform="translate(166.781 48.718) rotate(-15)"/>
</clipPath>
<clipPath id="clip15_1722_47824">
<rect width="25" height="25" fill="white" transform="translate(210.248 37.0711) rotate(-15)"/>
</clipPath>
<clipPath id="clip16_1722_47824">
<rect width="25" height="25" fill="white" transform="translate(253.715 25.4243) rotate(-15)"/>
</clipPath>
<clipPath id="clip17_1722_47824">
<rect width="25" height="25" fill="white" transform="translate(297.182 13.7774) rotate(-15)"/>
</clipPath>
<clipPath id="clip18_1722_47824">
<rect width="25" height="25" fill="white" transform="translate(340.648 2.13055) rotate(-15)"/>
</clipPath>
<clipPath id="clip19_1722_47824">
<rect width="25" height="25" fill="white" transform="translate(384.115 -9.5163) rotate(-15)"/>
</clipPath>
<clipPath id="clip20_1722_47824">
<rect width="25" height="25" fill="white" transform="translate(4.56152 138.772) rotate(-15)"/>
</clipPath>
<clipPath id="clip21_1722_47824">
<rect width="25" height="25" fill="white" transform="translate(48.0283 127.125) rotate(-15)"/>
</clipPath>
<clipPath id="clip22_1722_47824">
<rect width="25" height="25" fill="white" transform="translate(91.4951 115.478) rotate(-15)"/>
</clipPath>
<clipPath id="clip23_1722_47824">
<rect width="25" height="25" fill="white" transform="translate(134.962 103.831) rotate(-15)"/>
</clipPath>
<clipPath id="clip24_1722_47824">
<rect width="25" height="25" fill="white" transform="translate(178.428 92.1846) rotate(-15)"/>
</clipPath>
<clipPath id="clip25_1722_47824">
<rect width="25" height="25" fill="white" transform="translate(221.895 80.5377) rotate(-15)"/>
</clipPath>
<clipPath id="clip26_1722_47824">
<rect width="25" height="25" fill="white" transform="translate(265.361 68.8909) rotate(-15)"/>
</clipPath>
<clipPath id="clip27_1722_47824">
<rect width="25" height="25" fill="white" transform="translate(308.828 57.244) rotate(-15)"/>
</clipPath>
<clipPath id="clip28_1722_47824">
<rect width="25" height="25" fill="white" transform="translate(352.295 45.5972) rotate(-15)"/>
</clipPath>
<clipPath id="clip29_1722_47824">
<rect width="25" height="25" fill="white" transform="translate(103.143 158.945) rotate(-15)"/>
</clipPath>
<clipPath id="clip30_1722_47824">
<rect width="25" height="25" fill="white" transform="translate(146.609 147.298) rotate(-15)"/>
</clipPath>
<clipPath id="clip31_1722_47824">
<rect width="25" height="25" fill="white" transform="translate(190.075 135.651) rotate(-15)"/>
</clipPath>
<clipPath id="clip32_1722_47824">
<rect width="25" height="25" fill="white" transform="translate(233.542 124.004) rotate(-15)"/>
</clipPath>
<clipPath id="clip33_1722_47824">
<rect width="25" height="25" fill="white" transform="translate(277.009 112.358) rotate(-15)"/>
</clipPath>
<clipPath id="clip34_1722_47824">
<rect width="25" height="25" fill="white" transform="translate(320.476 100.711) rotate(-15)"/>
</clipPath>
<clipPath id="clip35_1722_47824">
<rect width="25" height="25" fill="white" transform="translate(363.942 89.0638) rotate(-15)"/>
</clipPath>
<clipPath id="clip36_1722_47824">
<rect width="25" height="25" fill="white" transform="translate(288.655 155.824) rotate(-15)"/>
</clipPath>
<clipPath id="clip37_1722_47824">
<rect width="25" height="25" fill="white" transform="translate(332.122 144.177) rotate(-15)"/>
</clipPath>
<clipPath id="clip38_1722_47824">
<rect width="25" height="25" fill="white" transform="translate(375.589 132.531) rotate(-15)"/>
</clipPath>
</defs>
</svg>
