<svg width="396" height="161" viewBox="0 0 396 161" fill="none" xmlns="http://www.w3.org/2000/svg">
<g clip-path="url(#clip0_1722_47123)">
<path d="M4.4304 -1.2016L3.34252 4.11462C3.21244 4.76114 2.38673 4.96217 1.97188 4.45155L-2.3079 -0.786221L-2.81671 2.97459L-7.25488 4.16379L3.70954 10.6536C4.13666 10.9081 4.67905 10.7628 4.92166 10.3288L11.1769 -0.774999L6.03132 0.603769L4.4304 -1.2016ZM9.52299 -11.1547L9.3782 -11.2423C6.2845 -13.0723 2.30854 -12.0069 0.539605 -8.87399L-0.414844 -7.1725L-2.0909 -8.16409C-5.18587 -9.99881 -9.16654 -8.9322 -10.9295 -5.7958L-11.0124 -5.65227C-12.6799 -2.68803 -11.7768 1.07864 -9.05535 3.02861L-4.22572 1.73452L-3.62188 -2.78474C-3.53022 -3.46141 -2.67562 -3.70556 -2.24031 -3.17516L2.1387 2.18768L3.21253 -3.04895C3.34168 -3.68005 4.13404 -3.89236 4.56143 -3.41039L6.56077 -1.15572L12.1686 -2.65833C13.5505 -5.70778 12.4493 -9.42137 9.52299 -11.1547Z" fill="black" fill-opacity="0.1"/>
</g>
<g clip-path="url(#clip1_1722_47123)">
<path d="M40.3076 1.12509L55.4002 -2.91896L50.9517 -19.5208L49.4425 -19.1164L48.8359 -21.3803C48.5009 -22.6306 47.2157 -23.3726 45.9654 -23.0376L38.4191 -21.0155C37.1688 -20.6805 36.4268 -19.3954 36.7618 -18.1451L37.3684 -15.8812L35.8592 -15.4768L40.3076 1.12509ZM39.9825 -18.1992L46.0196 -19.8169L46.424 -18.3076L40.3869 -16.69L39.9825 -18.1992ZM56.0861 -18.4701L59.3214 -6.39606C59.6564 -5.14573 58.9144 -3.86059 57.6641 -3.52556L56.9095 -3.32336L52.461 -19.9252L53.2156 -20.1274C54.466 -20.4624 55.7511 -19.7205 56.0861 -18.4701ZM38.7983 1.5295L38.0437 1.7317C36.7934 2.06672 35.5082 1.32474 35.1732 0.0744177L31.938 -11.9997C31.603 -13.25 32.3449 -14.5351 33.5953 -14.8702L34.3499 -15.0724L38.7983 1.5295ZM49.753 -11.9203L50.1575 -10.4111C50.2691 -9.99428 50.0218 -9.56592 49.605 -9.45424L47.3411 -8.84763L47.9477 -6.58374C48.0594 -6.16695 47.8121 -5.73859 47.3953 -5.62691L45.8861 -5.22251C45.4693 -5.11083 45.0409 -5.35814 44.9292 -5.77493L44.3226 -8.03882L42.0587 -7.43222C41.6419 -7.32054 41.2136 -7.56785 41.1019 -7.98464L40.6975 -9.4939C40.5858 -9.91069 40.8331 -10.3391 41.2499 -10.4507L43.5138 -11.0573L42.9072 -13.3212C42.7955 -13.738 43.0428 -14.1664 43.4596 -14.2781L44.9689 -14.6825C45.3857 -14.7941 45.814 -14.5468 45.9257 -14.13L46.5323 -11.8662L48.7962 -12.4728C49.213 -12.5844 49.6414 -12.3371 49.753 -11.9203Z" fill="black" fill-opacity="0.1"/>
</g>
<g clip-path="url(#clip2_1722_47123)">
<path d="M14.7054 37.1832L12.9867 30.7689L3.55378 33.2964C2.9265 33.4645 2.55706 34.1044 2.72514 34.7317L5.65708 45.6738L3.01587 46.3815C2.80835 46.4371 2.68405 46.6524 2.73966 46.8599L2.94186 47.6146C2.99747 47.8221 3.21275 47.9464 3.42028 47.8908L10.0657 46.1101C10.2072 46.0722 10.3608 46.117 10.4609 46.2267L11.9025 47.8523L13.1445 41.7719C13.2067 41.457 13.6076 41.3496 13.819 41.5912L16.3339 44.4306L19.6448 43.5434C20.0599 43.4322 20.4904 43.6808 20.6016 44.0958C20.7129 44.5109 20.4643 44.9415 20.0492 45.0527L15.8091 46.1888L14.2082 44.3834L12.9662 50.4638C12.904 50.7788 12.5031 50.8862 12.2917 50.6446L9.77211 47.8064L6.46589 48.6923L8.58901 56.6159C8.75709 57.2432 9.39697 57.6127 10.0243 57.4446L25.8715 53.1983C26.4988 53.0302 26.8682 52.3904 26.7001 51.7631L22.555 36.2932L16.1406 38.0119C15.5181 38.1787 14.8722 37.8058 14.7054 37.1832ZM21.5298 33.7876L15.6739 30.4027C15.4048 30.2473 15.0855 30.2065 14.7836 30.2874L14.4959 30.3645L16.1135 36.4015L22.1506 34.7839L22.0735 34.4962C21.9939 34.1991 21.7989 33.943 21.5298 33.7876Z" fill="black" fill-opacity="0.1"/>
</g>
<g clip-path="url(#clip3_1722_47123)">
<path d="M51.9551 44.5917L67.0477 40.5477L62.5992 23.9458L61.0899 24.3502L60.4833 22.0864C60.1483 20.836 58.8632 20.094 57.6128 20.4291L50.0665 22.4511C48.8162 22.7861 48.0742 24.0713 48.4093 25.3216L49.0159 27.5855L47.5066 27.9899L51.9551 44.5917ZM51.63 25.2674L57.667 23.6498L58.0714 25.1591L52.0344 26.7767L51.63 25.2674ZM67.7336 24.9965L70.9688 37.0706C71.3039 38.3209 70.5619 39.6061 69.3115 39.9411L68.5569 40.1433L64.1085 23.5414L64.8631 23.3392C66.1134 23.0042 67.3986 23.7462 67.7336 24.9965ZM50.4458 44.9961L49.6912 45.1983C48.4409 45.5334 47.1557 44.7914 46.8207 43.5411L43.5854 31.467C43.2504 30.2167 43.9924 28.9315 45.2427 28.5965L45.9974 28.3943L50.4458 44.9961ZM61.4005 31.5463L61.8049 33.0556C61.9166 33.4724 61.6693 33.9007 61.2525 34.0124L58.9886 34.619L59.5952 36.8829C59.7069 37.2997 59.4596 37.7281 59.0428 37.8397L57.5335 38.2441C57.1167 38.3558 56.6884 38.1085 56.5767 37.6917L55.9701 35.4278L53.7062 36.0344C53.2894 36.1461 52.861 35.8988 52.7494 35.482L52.345 33.9727C52.2333 33.556 52.4806 33.1276 52.8974 33.0159L55.1613 32.4093L54.5547 30.1454C54.443 29.7286 54.6903 29.3003 55.1071 29.1886L56.6164 28.7842C57.0331 28.6725 57.4615 28.9198 57.5732 29.3366L58.1798 31.6005L60.4437 30.9939C60.8605 30.8822 61.2888 31.1295 61.4005 31.5463Z" fill="black" fill-opacity="0.1"/>
</g>
<g clip-path="url(#clip4_1722_47123)">
<path d="M109.072 10.7745L103.705 12.2123L102.986 9.52922C102.787 8.78717 102.027 8.3483 101.285 8.54713L93.2359 10.704C92.4939 10.9028 92.055 11.6629 92.2538 12.405L92.9728 15.0881L87.6065 16.526C86.8644 16.7248 86.4256 17.485 86.6244 18.227L90.7583 33.655C90.8572 34.0239 91.2399 34.2449 91.6088 34.1461L114.415 28.0351C114.784 27.9362 115.005 27.5535 114.906 27.1845L110.773 11.7566C110.574 11.0145 109.814 10.5756 109.072 10.7745ZM96.7921 29.3422C96.8663 29.6189 96.7005 29.906 96.4238 29.9801L94.7469 30.4295C94.4702 30.5036 94.1831 30.3379 94.109 30.0612L93.6597 28.3842C93.5855 28.1075 93.7513 27.8205 94.028 27.7463L95.7049 27.297C95.9816 27.2228 96.2687 27.3886 96.3428 27.6653L96.7921 29.3422ZM95.3542 23.976C95.4284 24.2527 95.2627 24.5397 94.986 24.6139L93.309 25.0632C93.0323 25.1373 92.7453 24.9716 92.6711 24.6949L92.2218 23.018C92.1476 22.7413 92.3134 22.4542 92.5901 22.3801L94.267 21.9307C94.5437 21.8566 94.8308 22.0223 94.9049 22.299L95.3542 23.976ZM103.5 27.5449C103.574 27.8216 103.408 28.1086 103.132 28.1828L101.455 28.6321C101.178 28.7062 100.891 28.5405 100.817 28.2638L100.367 26.5869C100.293 26.3102 100.459 26.0231 100.736 25.949L102.413 25.4996C102.689 25.4255 102.976 25.5912 103.051 25.8679L103.5 27.5449ZM102.062 22.1786C102.136 22.4553 101.97 22.7424 101.694 22.8165L100.017 23.2658C99.7401 23.34 99.4531 23.1743 99.3789 22.8976L98.9296 21.2206C98.8555 20.9439 99.0212 20.6569 99.2979 20.5827L100.975 20.1334C101.252 20.0592 101.539 20.225 101.613 20.5017L102.062 22.1786ZM100.823 14.8718C100.86 15.0102 100.777 15.1537 100.639 15.1908L99.549 15.4828L99.8411 16.5729C99.8781 16.7112 99.7953 16.8547 99.6569 16.8918L98.8184 17.1165C98.6801 17.1535 98.5366 17.0707 98.4995 16.9323L98.2074 15.8423L97.1174 16.1344C96.9791 16.1715 96.8355 16.0886 96.7985 15.9502L96.5738 15.1118C96.5367 14.9734 96.6196 14.8299 96.7579 14.7928L97.848 14.5007L97.5559 13.4107C97.5188 13.2724 97.6017 13.1289 97.74 13.0918L98.5785 12.8671C98.7169 12.83 98.8604 12.9129 98.8975 13.0513L99.1895 14.1413L100.28 13.8492C100.418 13.8121 100.561 13.895 100.598 14.0334L100.823 14.8718ZM110.208 25.7475C110.282 26.0242 110.116 26.3113 109.839 26.3854L108.163 26.8347C107.886 26.9089 107.599 26.7432 107.525 26.4665L107.075 24.7895C107.001 24.5128 107.167 24.2258 107.444 24.1516L109.121 23.7023C109.397 23.6281 109.684 23.7939 109.758 24.0706L110.208 25.7475ZM108.77 20.3813C108.844 20.658 108.678 20.945 108.402 21.0192L106.725 21.4685C106.448 21.5426 106.161 21.3769 106.087 21.1002L105.637 19.4233C105.563 19.1466 105.729 18.8595 106.006 18.7854L107.683 18.336C107.959 18.2619 108.246 18.4276 108.321 18.7043L108.77 20.3813Z" fill="black" fill-opacity="0.1"/>
</g>
<g clip-path="url(#clip5_1722_47123)">
<path d="M150.796 -0.495516C149.189 -0.0397262 148.217 1.63128 148.616 3.25314C148.899 4.40556 149.782 5.24587 150.843 5.52767L152.266 10.8384C152.99 13.5409 151.213 16.3779 148.298 17.1589C145.468 17.9171 142.59 16.459 141.767 13.8943C145.011 12.2669 146.788 8.52496 145.813 4.88388L143.849 -2.44546C143.705 -2.98314 143.198 -3.3477 142.641 -3.30992L139.516 -3.10928C138.87 -3.06762 138.381 -2.5122 138.423 -1.86621L138.471 -1.08529C138.512 -0.439294 139.068 0.0488203 139.714 0.00715822L141.239 -0.0931149L142.773 5.63264C143.441 8.12763 142.005 10.7267 139.516 11.4189C137.004 12.1173 134.406 10.6295 133.733 8.11566L132.184 2.33803L133.555 1.66235C134.136 1.37543 134.373 0.675008 134.086 0.094729L133.741 -0.606574C133.454 -1.18685 132.754 -1.4238 132.173 -1.13688L129.368 0.2416C128.869 0.491619 128.611 1.05619 128.756 1.59858L130.72 8.92792C131.697 12.5737 135.113 14.9289 138.743 14.7044C140.008 18.9352 144.603 21.3843 149.102 20.1787C153.677 18.9528 156.45 14.3983 155.28 10.0308L153.857 4.72013C154.617 3.95522 154.965 2.82061 154.666 1.70282C154.215 0.0190517 152.474 -0.970262 150.796 -0.495516ZM151.85 3.26626C151.435 3.37747 151.004 3.12888 150.893 2.71383C150.782 2.29878 151.03 1.86821 151.445 1.757C151.86 1.64579 152.291 1.89438 152.402 2.30943C152.513 2.72447 152.265 3.15505 151.85 3.26626Z" fill="black" fill-opacity="0.1"/>
</g>
<g clip-path="url(#clip6_1722_47123)">
<path d="M189.944 -4.32239L188.856 0.993836C188.726 1.64035 187.9 1.84138 187.486 1.33077L183.206 -3.90701L182.697 -0.146197L178.259 1.04301L189.223 7.53279C189.65 7.78736 190.193 7.64203 190.435 7.208L196.691 -3.89579L191.545 -2.51702L189.944 -4.32239ZM195.037 -14.2755L194.892 -14.3631C191.798 -16.1931 187.822 -15.1277 186.053 -11.9948L185.099 -10.2933L183.423 -11.2849C180.328 -13.1196 176.347 -12.053 174.584 -8.91659L174.501 -8.77306C172.834 -5.80882 173.737 -2.04215 176.458 -0.0921782L181.288 -1.38627L181.892 -5.90553C181.983 -6.58219 182.838 -6.82635 183.273 -6.29594L187.652 -0.933105L188.726 -6.16974C188.855 -6.80084 189.648 -7.01315 190.075 -6.53118L192.074 -4.2765L197.682 -5.77912C199.064 -8.82857 197.963 -12.5422 195.037 -14.2755Z" fill="black" fill-opacity="0.1"/>
</g>
<g clip-path="url(#clip7_1722_47123)">
<path d="M27.7243 85.7317L26.6365 91.0479C26.5064 91.6945 25.6807 91.8955 25.2658 91.3849L20.986 86.1471L20.4772 89.9079L16.0391 91.0971L27.0035 97.5869C27.4306 97.8415 27.973 97.6961 28.2156 97.2621L34.4709 86.1583L29.3253 87.5371L27.7243 85.7317ZM32.8169 75.7786L32.6721 75.691C29.5784 73.861 25.6025 74.9264 23.8336 78.0593L22.8791 79.7608L21.203 78.7692C18.1081 76.9345 14.1274 78.0011 12.3644 81.1375L12.2816 81.281C10.614 84.2453 11.5172 88.012 14.2386 89.9619L19.0682 88.6678L19.6721 84.1486C19.7637 83.4719 20.6183 83.2278 21.0536 83.7582L25.4327 89.121L26.5065 83.8844C26.6356 83.2533 27.428 83.041 27.8554 83.5229L29.8547 85.7776L35.4626 84.275C36.8444 81.2255 35.7432 77.5119 32.8169 75.7786Z" fill="black" fill-opacity="0.1"/>
</g>
<g clip-path="url(#clip8_1722_47123)">
<path d="M63.6016 88.0584L78.6941 84.0144L74.2457 67.4125L72.7364 67.8169L72.1298 65.553C71.7948 64.3027 70.5097 63.5607 69.2593 63.8957L61.713 65.9178C60.4627 66.2528 59.7207 67.5379 60.0558 68.7883L60.6624 71.0522L59.1531 71.4566L63.6016 88.0584ZM63.2765 68.7341L69.3135 67.1165L69.7179 68.6257L63.6809 70.2433L63.2765 68.7341ZM79.3801 68.4632L82.6153 80.5373C82.9503 81.7876 82.2084 83.0727 80.958 83.4078L80.2034 83.61L75.755 67.0081L76.5096 66.8059C77.7599 66.4709 79.0451 67.2129 79.3801 68.4632ZM62.0923 88.4628L61.3377 88.665C60.0873 89 58.8022 88.2581 58.4672 87.0077L55.2319 74.9337C54.8969 73.6833 55.6389 72.3982 56.8892 72.0632L57.6438 71.861L62.0923 88.4628ZM73.047 75.013L73.4514 76.5222C73.5631 76.939 73.3158 77.3674 72.899 77.4791L70.6351 78.0857L71.2417 80.3496C71.3534 80.7664 71.1061 81.1947 70.6893 81.3064L69.18 81.7108C68.7632 81.8225 68.3349 81.5752 68.2232 81.1584L67.6166 78.8945L65.3527 79.5011C64.9359 79.6128 64.5075 79.3655 64.3958 78.9487L63.9914 77.4394C63.8798 77.0226 64.1271 76.5943 64.5439 76.4826L66.8078 75.876L66.2011 73.6121C66.0895 73.1953 66.3368 72.7669 66.7536 72.6553L68.2628 72.2509C68.6796 72.1392 69.108 72.3865 69.2197 72.8033L69.8263 75.0672L72.0902 74.4606C72.507 74.3489 72.9353 74.5962 73.047 75.013Z" fill="black" fill-opacity="0.1"/>
</g>
<g clip-path="url(#clip9_1722_47123)">
<path d="M113.284 57.3562L111.566 50.9418L102.133 53.4694C101.506 53.6374 101.136 54.2773 101.304 54.9046L104.236 65.8467L101.595 66.5545C101.387 66.6101 101.263 66.8253 101.319 67.0329L101.521 67.7875C101.577 67.995 101.792 68.1193 101.999 68.0637L108.645 66.2831C108.786 66.2452 108.94 66.2899 109.04 66.3996L110.482 68.0253L111.724 61.9448C111.786 61.6299 112.187 61.5225 112.398 61.7641L114.913 64.6035L118.224 63.7164C118.639 63.6052 119.07 63.8537 119.181 64.2688C119.292 64.6838 119.043 65.1144 118.628 65.2256L114.388 66.3617L112.787 64.5564L111.545 70.6368C111.483 70.9517 111.082 71.0591 110.871 70.8175L108.351 67.9794L105.045 68.8653L107.168 76.7889C107.336 77.4162 107.976 77.7856 108.603 77.6175L124.451 73.3713C125.078 73.2032 125.447 72.5633 125.279 71.936L121.134 56.4661L114.72 58.1848C114.097 58.3516 113.451 57.9788 113.284 57.3562ZM120.109 53.9605L114.253 50.5757C113.984 50.4203 113.665 50.3795 113.363 50.4603L113.075 50.5374L114.693 56.5745L120.73 54.9569L120.653 54.6691C120.573 54.372 120.378 54.1159 120.109 53.9605Z" fill="black" fill-opacity="0.1"/>
</g>
<g clip-path="url(#clip10_1722_47123)">
<path d="M167.108 54.1767L162.902 38.4804C162.7 37.7257 162.126 37.3943 161.371 37.5965L145.977 41.7214C143.411 42.4089 141.975 44.8967 142.662 47.4624L146.706 62.555C147.394 65.1207 149.882 66.5571 152.447 65.8696L167.842 61.7446C168.446 61.5829 168.928 60.9683 168.726 60.2137L168.524 59.4591C168.443 59.1572 168.211 58.8958 167.828 58.6748C167.475 57.9607 166.909 55.8477 166.898 55.2035C167.159 54.9717 167.23 54.6294 167.108 54.1767ZM150.364 49.0384C150.337 48.9383 150.351 48.8317 150.403 48.742C150.455 48.6523 150.54 48.5868 150.64 48.56L153.281 47.8523L152.574 45.2111C152.547 45.111 152.561 45.0044 152.613 44.9147C152.665 44.825 152.75 44.7595 152.85 44.7327L155.114 44.1261C155.214 44.0993 155.321 44.1133 155.41 44.1651C155.5 44.2169 155.565 44.3022 155.592 44.4023L156.3 47.0435L158.941 46.3358C159.041 46.309 159.148 46.323 159.238 46.3748C159.327 46.4266 159.393 46.5119 159.42 46.612L160.026 48.8759C160.053 48.976 160.039 49.0826 159.987 49.1723C159.935 49.262 159.85 49.3275 159.75 49.3543L157.109 50.062L157.816 52.7032C157.843 52.8033 157.829 52.9099 157.777 52.9996C157.726 53.0893 157.64 53.1548 157.54 53.1816L155.276 53.7882C155.176 53.815 155.07 53.801 154.98 53.7492C154.89 53.6974 154.825 53.6121 154.798 53.512L154.09 50.8708L151.449 51.5785C151.349 51.6053 151.242 51.5913 151.153 51.5395C151.063 51.4877 150.997 51.4024 150.971 51.3023L150.364 49.0384ZM165.071 59.2518L151.639 62.851C150.733 63.0937 149.968 62.6517 149.725 61.7462C149.482 60.8406 150.075 60.0347 150.83 59.8325L164.262 56.2333L165.071 59.2518Z" fill="black" fill-opacity="0.1"/>
</g>
<g clip-path="url(#clip11_1722_47123)">
<path d="M207.652 30.9474L202.285 32.3853L201.566 29.7022C201.368 28.9601 200.607 28.5213 199.865 28.7201L191.816 30.8769C191.074 31.0758 190.635 31.8359 190.834 32.578L191.553 35.2611L186.187 36.699C185.445 36.8978 185.006 37.658 185.204 38.4L189.338 53.828C189.437 54.1969 189.82 54.4179 190.189 54.319L212.995 48.208C213.364 48.1092 213.585 47.7264 213.487 47.3575L209.353 31.9295C209.154 31.1875 208.394 30.7486 207.652 30.9474ZM195.372 49.5152C195.446 49.7919 195.281 50.0789 195.004 50.1531L193.327 50.6024C193.05 50.6766 192.763 50.5108 192.689 50.2341L192.24 48.5572C192.166 48.2805 192.331 47.9934 192.608 47.9193L194.285 47.47C194.562 47.3958 194.849 47.5615 194.923 47.8382L195.372 49.5152ZM193.934 44.1489C194.008 44.4256 193.843 44.7127 193.566 44.7868L191.889 45.2362C191.612 45.3103 191.325 45.1446 191.251 44.8679L190.802 43.1909C190.728 42.9142 190.893 42.6272 191.17 42.553L192.847 42.1037C193.124 42.0296 193.411 42.1953 193.485 42.472L193.934 44.1489ZM202.08 47.7178C202.154 47.9945 201.988 48.2816 201.712 48.3557L200.035 48.8051C199.758 48.8792 199.471 48.7135 199.397 48.4368L198.948 46.7598C198.873 46.4831 199.039 46.1961 199.316 46.1219L200.993 45.6726C201.269 45.5985 201.557 45.7642 201.631 46.0409L202.08 47.7178ZM200.642 42.3516C200.716 42.6283 200.551 42.9153 200.274 42.9895L198.597 43.4388C198.32 43.513 198.033 43.3472 197.959 43.0705L197.51 41.3936C197.436 41.1169 197.601 40.8298 197.878 40.7557L199.555 40.3064C199.832 40.2322 200.119 40.3979 200.193 40.6746L200.642 42.3516ZM199.403 35.0448C199.44 35.1832 199.357 35.3267 199.219 35.3637L198.129 35.6558L198.421 36.7458C198.458 36.8842 198.375 37.0277 198.237 37.0648L197.399 37.2894C197.26 37.3265 197.117 37.2437 197.08 37.1053L196.788 36.0153L195.697 36.3074C195.559 36.3444 195.416 36.2616 195.379 36.1232L195.154 35.2847C195.117 35.1464 195.2 35.0029 195.338 34.9658L196.428 34.6737L196.136 33.5837C196.099 33.4454 196.182 33.3018 196.32 33.2648L197.159 33.0401C197.297 33.003 197.44 33.0859 197.478 33.2242L197.77 34.3143L198.86 34.0222C198.998 33.9851 199.141 34.068 199.179 34.2063L199.403 35.0448ZM208.788 45.9205C208.862 46.1972 208.696 46.4842 208.42 46.5584L206.743 47.0077C206.466 47.0819 206.179 46.9161 206.105 46.6394L205.655 44.9625C205.581 44.6858 205.747 44.3987 206.024 44.3246L207.701 43.8753C207.977 43.8011 208.264 43.9668 208.339 44.2435L208.788 45.9205ZM207.35 40.5542C207.424 40.8309 207.258 41.118 206.982 41.1921L205.305 41.6415C205.028 41.7156 204.741 41.5499 204.667 41.2732L204.217 39.5962C204.143 39.3195 204.309 39.0325 204.586 38.9583L206.263 38.509C206.539 38.4349 206.826 38.6006 206.901 38.8773L207.35 40.5542Z" fill="black" fill-opacity="0.1"/>
</g>
<g clip-path="url(#clip12_1722_47123)">
<path d="M250.376 20.2185L246.603 21.2295L245.996 18.9656C245.661 17.7158 244.375 16.9734 243.126 17.3083L235.579 19.3304C234.329 19.6653 233.587 20.951 233.922 22.2009L234.529 24.4648L230.755 25.4758C229.506 25.8107 228.763 27.0964 229.098 28.3463L232.738 41.9296C233.073 43.1794 234.358 43.9218 235.608 43.5869L255.229 38.3296C256.479 37.9947 257.221 36.709 256.886 35.4591L253.246 21.8758C252.911 20.6259 251.626 19.8836 250.376 20.2185ZM237.143 22.1467L243.18 20.5291L243.584 22.0383L237.547 23.6559L237.143 22.1467ZM247.823 31.8214C247.879 32.0289 247.754 32.2442 247.547 32.2998L244.906 33.0075L245.613 35.6487C245.669 35.8563 245.545 36.0716 245.337 36.1272L243.073 36.7338C242.866 36.7894 242.65 36.6651 242.595 36.4576L241.887 33.8164L239.246 34.5241C239.038 34.5797 238.823 34.4554 238.768 34.2478L238.161 31.984C238.105 31.7764 238.23 31.5611 238.437 31.5055L241.078 30.7978L240.371 28.1566C240.315 27.9491 240.439 27.7338 240.647 27.6782L242.911 27.0716C243.118 27.016 243.334 27.1403 243.389 27.3478L244.097 29.989L246.738 29.2813C246.946 29.2257 247.161 29.35 247.217 29.5575L247.823 31.8214Z" fill="black" fill-opacity="0.1"/>
</g>
<g clip-path="url(#clip13_1722_47123)">
<path d="M293.843 8.57162L290.069 9.58264L289.463 7.31875C289.128 6.06889 287.842 5.32657 286.592 5.66146L279.046 7.68349C277.796 8.01839 277.054 9.30413 277.389 10.554L277.995 12.8179L274.222 13.8289C272.972 14.1638 272.23 15.4495 272.565 16.6994L276.205 30.2827C276.539 31.5326 277.825 32.2749 279.075 31.94L298.695 26.6827C299.945 26.3478 300.688 25.0621 300.353 23.8122L296.713 10.2289C296.378 8.97905 295.092 8.23673 293.843 8.57162ZM280.609 10.4998L286.647 8.88219L287.051 10.3914L281.014 12.0091L280.609 10.4998ZM291.29 20.1745C291.346 20.3821 291.221 20.5973 291.014 20.653L288.372 21.3607L289.08 24.0019C289.136 24.2094 289.012 24.4247 288.804 24.4803L286.54 25.0869C286.333 25.1425 286.117 25.0182 286.062 24.8107L285.354 22.1695L282.713 22.8772C282.505 22.9328 282.29 22.8085 282.234 22.601L281.628 20.3371C281.572 20.1296 281.696 19.9143 281.904 19.8587L284.545 19.151L283.837 16.5098C283.782 16.3022 283.906 16.0869 284.114 16.0313L286.378 15.4247C286.585 15.3691 286.8 15.4934 286.856 15.7009L287.564 18.3421L290.205 17.6344C290.412 17.5788 290.628 17.7031 290.683 17.9106L291.29 20.1745Z" fill="black" fill-opacity="0.1"/>
</g>
<g clip-path="url(#clip14_1722_47123)">
<path d="M336.31 -3.61627C334.703 -3.16048 333.73 -1.48948 334.13 0.132386C334.413 1.2848 335.295 2.12511 336.357 2.40692L337.78 7.71762C338.504 10.4201 336.726 13.2571 333.812 14.0381C330.982 14.7964 328.104 13.3382 327.28 10.7736C330.524 9.14609 332.302 5.40421 331.326 1.76312L329.362 -5.56622C329.218 -6.10389 328.711 -6.46846 328.155 -6.43068L325.029 -6.23004C324.383 -6.18838 323.895 -5.63296 323.937 -4.98697L323.984 -4.20605C324.026 -3.56005 324.581 -3.07194 325.227 -3.1136L326.752 -3.21387L328.287 2.51188C328.955 5.00687 327.518 7.60598 325.03 8.29809C322.517 8.99652 319.92 7.50876 319.246 4.9949L317.698 -0.782728L319.069 -1.45841C319.649 -1.74532 319.886 -2.44575 319.599 -3.02603L319.255 -3.72733C318.968 -4.30761 318.267 -4.54456 317.687 -4.25764L314.882 -2.87916C314.383 -2.62914 314.124 -2.06456 314.27 -1.52217L316.234 5.80717C317.211 9.45297 320.627 11.8082 324.257 11.5837C325.522 15.8145 330.116 18.2635 334.616 17.0579C339.191 15.8321 341.964 11.2775 340.794 6.91007L339.371 1.59937C340.131 0.834467 340.479 -0.300144 340.18 -1.41794C339.728 -3.10171 337.987 -4.09102 336.31 -3.61627ZM337.363 0.1455C336.948 0.256712 336.518 0.0081194 336.406 -0.406927C336.295 -0.821973 336.544 -1.25255 336.959 -1.36376C337.374 -1.47497 337.805 -1.22638 337.916 -0.811332C338.027 -0.396285 337.778 0.034289 337.363 0.1455Z" fill="black" fill-opacity="0.1"/>
</g>
<g clip-path="url(#clip15_1722_47123)">
<path d="M367.868 6.53043L382.961 2.48638L378.512 -14.1155L377.003 -13.7111L376.396 -15.975C376.061 -17.2253 374.776 -17.9673 373.526 -17.6322L365.98 -15.6102C364.729 -15.2752 363.987 -13.99 364.322 -12.7397L364.929 -10.4758L363.42 -10.0714L367.868 6.53043ZM367.543 -12.7939L373.58 -14.4115L373.985 -12.9023L367.947 -11.2846L367.543 -12.7939ZM383.647 -13.0648L386.882 -0.990724C387.217 0.259603 386.475 1.54475 385.225 1.87977L384.47 2.08197L380.022 -14.5199L380.776 -14.7221C382.027 -15.0571 383.312 -14.3151 383.647 -13.0648ZM366.359 6.93483L365.604 7.13703C364.354 7.47206 363.069 6.73008 362.734 5.47975L359.499 -6.59432C359.164 -7.84465 359.905 -9.12979 361.156 -9.46482L361.91 -9.66702L366.359 6.93483ZM377.314 -6.515L377.718 -5.00574C377.83 -4.58895 377.582 -4.16058 377.166 -4.0489L374.902 -3.4423L375.508 -1.17841C375.62 -0.761618 375.373 -0.333256 374.956 -0.221577L373.447 0.182828C373.03 0.294507 372.601 0.0471917 372.49 -0.369599L371.883 -2.63349L369.619 -2.02688C369.202 -1.9152 368.774 -2.16252 368.662 -2.57931L368.258 -4.08857C368.146 -4.50536 368.394 -4.93372 368.81 -5.0454L371.074 -5.65201L370.468 -7.91589C370.356 -8.33269 370.603 -8.76105 371.02 -8.87273L372.529 -9.27713C372.946 -9.38881 373.375 -9.1415 373.486 -8.7247L374.093 -6.46082L376.357 -7.06742C376.774 -7.1791 377.202 -6.93179 377.314 -6.515Z" fill="black" fill-opacity="0.1"/>
</g>
<g clip-path="url(#clip16_1722_47123)">
<path d="M1.22345 133.566L-2.5497 134.577L-3.15631 132.313C-3.49121 131.064 -4.77695 130.321 -6.0268 130.656L-13.5731 132.678C-14.823 133.013 -15.5653 134.299 -15.2304 135.549L-14.6238 137.813L-18.3969 138.824C-19.6468 139.158 -20.3891 140.444 -20.0542 141.694L-16.4146 155.277C-16.0797 156.527 -14.7939 157.27 -13.5441 156.935L6.0763 151.677C7.32616 151.342 8.06848 150.057 7.73359 148.807L4.09394 135.224C3.75905 133.974 2.4733 133.231 1.22345 133.566ZM-12.0097 135.494L-5.97262 133.877L-5.56822 135.386L-11.6053 137.004L-12.0097 135.494ZM-1.32923 145.169C-1.27362 145.377 -1.39792 145.592 -1.60544 145.648L-4.24664 146.355L-3.53894 148.997C-3.48333 149.204 -3.60763 149.419 -3.81515 149.475L-6.07904 150.082C-6.28656 150.137 -6.50185 150.013 -6.55745 149.805L-7.26516 147.164L-9.90637 147.872C-10.1139 147.927 -10.3292 147.803 -10.3848 147.596L-10.9914 145.332C-11.047 145.124 -10.9227 144.909 -10.7152 144.853L-8.07397 144.146L-8.78168 141.504C-8.83729 141.297 -8.71299 141.082 -8.50547 141.026L-6.24158 140.419C-6.03405 140.364 -5.81877 140.488 -5.76316 140.696L-5.05545 143.337L-2.41425 142.629C-2.20673 142.573 -1.99144 142.698 -1.93583 142.905L-1.32923 145.169Z" fill="black" fill-opacity="0.1"/>
</g>
<g clip-path="url(#clip17_1722_47123)">
<path d="M37.9993 124.117L36.2806 117.702L26.8477 120.23C26.2204 120.398 25.851 121.038 26.0191 121.665L28.951 132.607L26.3098 133.315C26.1023 133.37 25.978 133.586 26.0336 133.793L26.2358 134.548C26.2914 134.755 26.5067 134.88 26.7142 134.824L33.3597 133.043C33.5012 133.006 33.6547 133.05 33.7549 133.16L35.1964 134.786L36.4385 128.705C36.5007 128.39 36.9016 128.283 37.1129 128.525L39.6278 131.364L42.9388 130.477C43.3538 130.366 43.7844 130.614 43.8956 131.029C44.0068 131.444 43.7582 131.875 43.3432 131.986L39.1031 133.122L37.5022 131.317L36.2601 137.397C36.1979 137.712 35.797 137.819 35.5857 137.578L33.0661 134.74L29.7598 135.626L31.883 143.549C32.051 144.177 32.6909 144.546 33.3182 144.378L49.1654 140.132C49.7927 139.964 50.1621 139.324 49.9941 138.696L45.8489 123.226L39.4346 124.945C38.812 125.112 38.1661 124.739 37.9993 124.117ZM44.8237 120.721L38.9678 117.336C38.6987 117.181 38.3794 117.14 38.0776 117.221L37.7899 117.298L39.4075 123.335L45.4445 121.717L45.3674 121.43C45.2878 121.132 45.0928 120.876 44.8237 120.721Z" fill="black" fill-opacity="0.1"/>
</g>
<g clip-path="url(#clip18_1722_47123)">
<path d="M75.249 131.525L90.3416 127.481L85.8932 110.879L84.3839 111.284L83.7773 109.02C83.4423 107.769 82.1571 107.027 80.9068 107.362L73.3605 109.384C72.1102 109.719 71.3682 111.005 71.7032 112.255L72.3098 114.519L70.8006 114.923L75.249 131.525ZM74.9239 112.201L80.961 110.583L81.3654 112.092L75.3283 113.71L74.9239 112.201ZM91.0275 111.93L94.2628 124.004C94.5978 125.254 93.8558 126.539 92.6055 126.874L91.8509 127.077L87.4024 110.475L88.157 110.273C89.4074 109.938 90.6925 110.68 91.0275 111.93ZM73.7398 131.929L72.9851 132.132C71.7348 132.467 70.4497 131.725 70.1146 130.474L66.8794 118.4C66.5444 117.15 67.2863 115.865 68.5367 115.53L69.2913 115.328L73.7398 131.929ZM84.6945 118.48L85.0989 119.989C85.2105 120.406 84.9632 120.834 84.5464 120.946L82.2825 121.552L82.8892 123.816C83.0008 124.233 82.7535 124.661 82.3367 124.773L80.8275 125.177C80.4107 125.289 79.9823 125.042 79.8706 124.625L79.264 122.361L77.0001 122.968C76.5833 123.079 76.155 122.832 76.0433 122.415L75.6389 120.906C75.5272 120.489 75.7745 120.061 76.1913 119.949L78.4552 119.343L77.8486 117.079C77.7369 116.662 77.9842 116.234 78.401 116.122L79.9103 115.717C80.3271 115.606 80.7554 115.853 80.8671 116.27L81.4737 118.534L83.7376 117.927C84.1544 117.816 84.5828 118.063 84.6945 118.48Z" fill="black" fill-opacity="0.1"/>
</g>
<g clip-path="url(#clip19_1722_47123)">
<path d="M132.365 97.7078L126.999 99.1457L126.28 96.4625C126.081 95.7205 125.321 95.2816 124.579 95.4804L116.53 97.6373C115.788 97.8361 115.349 98.5963 115.548 99.3383L116.267 102.021L110.9 103.459C110.158 103.658 109.72 104.418 109.918 105.16L114.052 120.588C114.151 120.957 114.534 121.178 114.903 121.079L137.709 114.968C138.078 114.87 138.299 114.487 138.2 114.118L134.066 98.6899C133.868 97.9478 133.108 97.509 132.365 97.7078ZM120.086 116.276C120.16 116.552 119.994 116.839 119.718 116.913L118.041 117.363C117.764 117.437 117.477 117.271 117.403 116.994L116.954 115.318C116.879 115.041 117.045 114.754 117.322 114.68L118.999 114.23C119.276 114.156 119.563 114.322 119.637 114.599L120.086 116.276ZM118.648 110.909C118.722 111.186 118.557 111.473 118.28 111.547L116.603 111.997C116.326 112.071 116.039 111.905 115.965 111.628L115.516 109.951C115.442 109.675 115.607 109.388 115.884 109.313L117.561 108.864C117.838 108.79 118.125 108.956 118.199 109.232L118.648 110.909ZM126.794 114.478C126.868 114.755 126.702 115.042 126.426 115.116L124.749 115.565C124.472 115.64 124.185 115.474 124.111 115.197L123.661 113.52C123.587 113.243 123.753 112.956 124.03 112.882L125.707 112.433C125.983 112.359 126.27 112.525 126.345 112.801L126.794 114.478ZM125.356 109.112C125.43 109.389 125.264 109.676 124.988 109.75L123.311 110.199C123.034 110.273 122.747 110.108 122.673 109.831L122.224 108.154C122.149 107.877 122.315 107.59 122.592 107.516L124.269 107.067C124.545 106.993 124.833 107.158 124.907 107.435L125.356 109.112ZM124.117 101.805C124.154 101.943 124.071 102.087 123.933 102.124L122.843 102.416L123.135 103.506C123.172 103.645 123.089 103.788 122.951 103.825L122.112 104.05C121.974 104.087 121.831 104.004 121.793 103.866L121.501 102.776L120.411 103.068C120.273 103.105 120.129 103.022 120.092 102.884L119.868 102.045C119.831 101.907 119.914 101.763 120.052 101.726L121.142 101.434L120.85 100.344C120.813 100.206 120.896 100.062 121.034 100.025L121.872 99.8004C122.011 99.7634 122.154 99.8462 122.191 99.9846L122.483 101.075L123.573 100.783C123.712 100.745 123.855 100.828 123.892 100.967L124.117 101.805ZM133.502 112.681C133.576 112.958 133.41 113.245 133.133 113.319L131.456 113.768C131.18 113.842 130.893 113.676 130.819 113.4L130.369 111.723C130.295 111.446 130.461 111.159 130.738 111.085L132.414 110.636C132.691 110.561 132.978 110.727 133.052 111.004L133.502 112.681ZM132.064 107.315C132.138 107.591 131.972 107.878 131.696 107.952L130.019 108.402C129.742 108.476 129.455 108.31 129.381 108.034L128.931 106.357C128.857 106.08 129.023 105.793 129.3 105.719L130.977 105.269C131.253 105.195 131.54 105.361 131.614 105.638L132.064 107.315Z" fill="black" fill-opacity="0.1"/>
</g>
<g clip-path="url(#clip20_1722_47123)">
<path d="M174.09 86.4378C172.483 86.8936 171.511 88.5646 171.91 90.1865C172.193 91.3389 173.076 92.1792 174.137 92.461L175.56 97.7717C176.284 100.474 174.507 103.311 171.592 104.092C168.762 104.85 165.884 103.392 165.061 100.828C168.305 99.2002 170.082 95.4583 169.107 91.8172L167.143 84.4879C166.999 83.9502 166.491 83.5856 165.935 83.6234L162.81 83.824C162.164 83.8657 161.675 84.4211 161.717 85.0671L161.765 85.848C161.806 86.494 162.362 86.9821 163.008 86.9405L164.533 86.8402L166.067 92.566C166.735 95.0609 165.299 97.6601 162.81 98.3522C160.298 99.0506 157.7 97.5628 157.027 95.049L155.478 89.2713L156.849 88.5957C157.43 88.3088 157.666 87.6083 157.38 87.028L157.035 86.3267C156.748 85.7465 156.048 85.5095 155.467 85.7964L152.662 87.1749C152.163 87.4249 151.905 87.9895 152.05 88.5319L154.014 95.8612C154.991 99.507 158.407 101.862 162.037 101.638C163.302 105.869 167.896 108.318 172.396 107.112C176.971 105.886 179.744 101.332 178.574 96.9642L177.151 91.6534C177.911 90.8885 178.259 89.7539 177.96 88.6361C177.509 86.9524 175.768 85.9631 174.09 86.4378ZM175.144 90.1996C174.729 90.3108 174.298 90.0622 174.187 89.6472C174.076 89.2321 174.324 88.8015 174.739 88.6903C175.154 88.5791 175.585 88.8277 175.696 89.2427C175.807 89.6578 175.559 90.0884 175.144 90.1996Z" fill="black" fill-opacity="0.1"/>
</g>
<g clip-path="url(#clip21_1722_47123)">
<path d="M213.238 82.6109L212.15 87.9272C212.02 88.5737 211.194 88.7747 210.78 88.2641L206.5 83.0263L205.991 86.7871L201.553 87.9763L212.517 94.4661C212.944 94.7207 213.487 94.5753 213.729 94.1413L219.985 83.0375L214.839 84.4163L213.238 82.6109ZM218.331 72.6578L218.186 72.5702C215.092 70.7402 211.116 71.8056 209.347 74.9385L208.393 76.64L206.717 75.6484C203.622 73.8137 199.641 74.8803 197.878 78.0167L197.795 78.1603C196.128 81.1245 197.031 84.8912 199.752 86.8411L204.582 85.547L205.186 81.0278C205.277 80.3511 206.132 80.107 206.567 80.6374L210.946 86.0002L212.02 80.7636C212.149 80.1325 212.942 79.9202 213.369 80.4021L215.368 82.6568L220.976 81.1542C222.358 78.1048 221.257 74.3912 218.331 72.6578Z" fill="black" fill-opacity="0.1"/>
</g>
<g clip-path="url(#clip22_1722_47123)">
<path d="M253.237 72.2629C253.613 72.4945 254.091 72.3665 254.306 71.9765L257.588 65.9654C258.54 64.2186 257.847 61.933 256.019 61.0478C254.428 60.2744 252.558 60.9913 251.708 62.549L251.37 63.1653L250.774 62.8037C249.258 61.8753 247.28 62.1897 246.289 63.6551C245.152 65.3345 245.691 67.6616 247.388 68.6985L253.237 72.2629ZM266.266 72.2585C265.651 71.9425 264.888 72.1785 264.48 72.7371L261.437 76.8732C261.065 77.3816 260.529 77.7455 259.917 77.9095L254.958 79.2384C254.589 79.3372 254.206 79.1163 254.107 78.7473C254.008 78.3784 254.229 77.9957 254.598 77.8968L257.881 77.0172C258.547 76.8386 259.045 76.2154 258.978 75.528C258.892 74.6524 258.051 74.096 257.233 74.315L250.525 76.1124C249.393 76.4157 248.404 77.0988 247.714 78.0474L246.188 80.1503L243.866 80.7726C243.497 80.8714 243.276 81.2542 243.374 81.6231L244.453 85.6478C244.552 86.0167 244.934 86.2377 245.303 86.1388L260.262 82.1307C260.87 81.9679 261.406 81.604 261.782 81.0945L266.761 74.3232C267.262 73.6452 267.052 72.659 266.266 72.2585Z" fill="black" fill-opacity="0.1"/>
</g>
<g clip-path="url(#clip23_1722_47123)">
<path d="M309.156 62.7027L304.95 47.0064C304.748 46.2518 304.174 45.9203 303.419 46.1226L288.025 50.2475C285.459 50.935 284.023 53.4227 284.71 55.9885L288.754 71.0811C289.442 73.6468 291.93 75.0831 294.495 74.3956L309.89 70.2707C310.493 70.1089 310.976 69.4944 310.774 68.7398L310.571 67.9851C310.491 67.6833 310.259 67.4219 309.876 67.2009C309.523 66.4867 308.957 64.3737 308.946 63.7296C309.207 63.4978 309.277 63.1555 309.156 62.7027ZM292.412 57.5645C292.385 57.4644 292.399 57.3578 292.451 57.2681C292.503 57.1783 292.588 57.1129 292.688 57.0861L295.329 56.3784L294.622 53.7372C294.595 53.6371 294.609 53.5305 294.661 53.4407C294.712 53.351 294.798 53.2856 294.898 53.2587L297.162 52.6521C297.262 52.6253 297.368 52.6394 297.458 52.6912C297.548 52.743 297.613 52.8283 297.64 52.9283L298.348 55.5695L300.989 54.8618C301.089 54.835 301.196 54.8491 301.285 54.9009C301.375 54.9527 301.441 55.038 301.467 55.1381L302.074 57.4019C302.101 57.502 302.087 57.6086 302.035 57.6984C301.983 57.7881 301.898 57.8535 301.798 57.8804L299.157 58.5881L299.864 61.2293C299.891 61.3293 299.877 61.436 299.825 61.5257C299.773 61.6154 299.688 61.6809 299.588 61.7077L297.324 62.3143C297.224 62.3411 297.118 62.3271 297.028 62.2753C296.938 62.2235 296.873 62.1381 296.846 62.0381L296.138 59.3969L293.497 60.1046C293.397 60.1314 293.29 60.1174 293.2 60.0656C293.111 60.0138 293.045 59.9284 293.018 59.8284L292.412 57.5645ZM307.119 67.7779L293.687 71.3771C292.781 71.6197 292.015 71.1778 291.773 70.2723C291.53 69.3667 292.123 68.5608 292.878 68.3586L306.31 64.7594L307.119 67.7779Z" fill="black" fill-opacity="0.1"/>
</g>
<g clip-path="url(#clip24_1722_47123)">
<path d="M348.957 40.3914L345.184 41.4024L344.577 39.1385C344.242 37.8887 342.956 37.1464 341.707 37.4813L334.16 39.5033C332.91 39.8382 332.168 41.1239 332.503 42.3738L333.11 44.6377L329.336 45.6487C328.087 45.9836 327.344 47.2693 327.679 48.5192L331.319 62.1025C331.654 63.3524 332.939 64.0947 334.189 63.7598L353.81 58.5025C355.06 58.1676 355.802 56.8819 355.467 55.632L351.827 42.0487C351.492 40.7988 350.207 40.0565 348.957 40.3914ZM335.724 42.3196L341.761 40.702L342.165 42.2112L336.128 43.8289L335.724 42.3196ZM346.404 51.9943C346.46 52.2019 346.335 52.4171 346.128 52.4727L343.487 53.1805L344.194 55.8217C344.25 56.0292 344.126 56.2445 343.918 56.3001L341.654 56.9067C341.447 56.9623 341.232 56.838 341.176 56.6305L340.468 53.9893L337.827 54.697C337.62 54.7526 337.404 54.6283 337.349 54.4208L336.742 52.1569C336.686 51.9493 336.811 51.7341 337.018 51.6785L339.659 50.9707L338.952 48.3295C338.896 48.122 339.02 47.9067 339.228 47.8511L341.492 47.2445C341.699 47.1889 341.915 47.3132 341.97 47.5207L342.678 50.1619L345.319 49.4542C345.527 49.3986 345.742 49.5229 345.798 49.7304L346.404 51.9943Z" fill="black" fill-opacity="0.1"/>
</g>
<g clip-path="url(#clip25_1722_47123)">
<path d="M385.733 30.9417L384.014 24.5273L374.581 27.0549C373.954 27.223 373.584 27.8628 373.752 28.4901L376.684 39.4323L374.043 40.14C373.836 40.1956 373.711 40.4109 373.767 40.6184L373.969 41.373C374.025 41.5805 374.24 41.7048 374.448 41.6492L381.093 39.8686C381.235 39.8307 381.388 39.8755 381.488 39.9851L382.93 41.6108L384.172 35.5304C384.234 35.2154 384.635 35.108 384.846 35.3496L387.361 38.189L390.672 37.3019C391.087 37.1907 391.518 37.4393 391.629 37.8543C391.74 38.2693 391.492 38.6999 391.077 38.8111L386.836 39.9473L385.236 38.1419L383.994 44.2223C383.931 44.5372 383.53 44.6446 383.319 44.403L380.799 41.5649L377.493 42.4508L379.616 50.3744C379.784 51.0017 380.424 51.3711 381.052 51.203L396.899 46.9568C397.526 46.7887 397.896 46.1488 397.727 45.5215L393.582 30.0516L387.168 31.7703C386.545 31.9372 385.9 31.5643 385.733 30.9417ZM392.557 27.546L386.701 24.1612C386.432 24.0058 386.113 23.965 385.811 24.0459L385.523 24.1229L387.141 30.16L393.178 28.5424L393.101 28.2547C393.021 27.9575 392.826 27.7014 392.557 27.546Z" fill="black" fill-opacity="0.1"/>
</g>
<g clip-path="url(#clip26_1722_47123)">
<path d="M51.0183 172.665L49.9304 177.981C49.8003 178.628 48.9746 178.829 48.5598 178.318L44.28 173.08L43.7712 176.841L39.333 178.03L50.2974 184.52C50.7245 184.775 51.2669 184.629 51.5095 184.195L57.7648 173.092L52.6192 174.47L51.0183 172.665ZM56.1109 162.712L55.9661 162.624C52.8724 160.794 48.8964 161.86 47.1275 164.993L46.173 166.694L44.497 165.703C41.402 163.868 37.4213 164.934 35.6584 168.071L35.5755 168.214C33.908 171.179 34.8111 174.945 37.5325 176.895L42.3622 175.601L42.966 171.082C43.0577 170.405 43.9123 170.161 44.3476 170.691L48.7266 176.054L49.8004 170.818C49.9296 170.187 50.7219 169.974 51.1493 170.456L53.1487 172.711L58.7565 171.208C60.1384 168.159 59.0371 164.445 56.1109 162.712Z" fill="black" fill-opacity="0.1"/>
</g>
<g clip-path="url(#clip27_1722_47123)">
<path d="M86.8955 174.992L101.988 170.948L97.5396 154.346L96.0304 154.75L95.4238 152.486C95.0887 151.236 93.8036 150.494 92.5533 150.829L85.007 152.851C83.7567 153.186 83.0147 154.471 83.3497 155.722L83.9563 157.985L82.447 158.39L86.8955 174.992ZM86.5704 155.667L92.6075 154.05L93.0119 155.559L86.9748 157.177L86.5704 155.667ZM102.674 155.397L105.909 167.471C106.244 168.721 105.502 170.006 104.252 170.341L103.497 170.543L99.0489 153.941L99.8035 153.739C101.054 153.404 102.339 154.146 102.674 155.397ZM85.3862 175.396L84.6316 175.598C83.3813 175.933 82.0961 175.191 81.7611 173.941L78.5259 161.867C78.1909 160.617 78.9328 159.332 80.1832 158.996L80.9378 158.794L85.3862 175.396ZM96.3409 161.946L96.7453 163.456C96.857 163.872 96.6097 164.301 96.1929 164.412L93.929 165.019L94.5356 167.283C94.6473 167.7 94.4 168.128 93.9832 168.24L92.474 168.644C92.0572 168.756 91.6288 168.508 91.5171 168.092L90.9105 165.828L88.6466 166.434C88.2298 166.546 87.8015 166.299 87.6898 165.882L87.2854 164.373C87.1737 163.956 87.421 163.528 87.8378 163.416L90.1017 162.809L89.4951 160.545C89.3834 160.129 89.6307 159.7 90.0475 159.589L91.5568 159.184C91.9736 159.072 92.4019 159.32 92.5136 159.737L93.1202 162L95.3841 161.394C95.8009 161.282 96.2293 161.53 96.3409 161.946Z" fill="black" fill-opacity="0.1"/>
</g>
<g clip-path="url(#clip28_1722_47123)">
<path d="M136.578 144.29L134.86 137.875L125.427 140.403C124.8 140.571 124.43 141.211 124.598 141.838L127.53 152.78L124.889 153.488C124.681 153.543 124.557 153.759 124.613 153.966L124.815 154.721C124.871 154.928 125.086 155.053 125.293 154.997L131.939 153.216C132.08 153.178 132.234 153.223 132.334 153.333L133.776 154.959L135.018 148.878C135.08 148.563 135.481 148.456 135.692 148.697L138.207 151.537L141.518 150.65C141.933 150.538 142.363 150.787 142.475 151.202C142.586 151.617 142.337 152.048 141.922 152.159L137.682 153.295L136.081 151.49L134.839 157.57C134.777 157.885 134.376 157.992 134.165 157.751L131.645 154.913L128.339 155.799L130.462 163.722C130.63 164.349 131.27 164.719 131.897 164.551L147.745 160.305C148.372 160.137 148.741 159.497 148.573 158.869L144.428 143.399L138.014 145.118C137.391 145.285 136.745 144.912 136.578 144.29ZM143.403 140.894L137.547 137.509C137.278 137.354 136.959 137.313 136.657 137.394L136.369 137.471L137.987 143.508L144.024 141.89L143.947 141.602C143.867 141.305 143.672 141.049 143.403 140.894Z" fill="black" fill-opacity="0.1"/>
</g>
<g clip-path="url(#clip29_1722_47123)">
<path d="M190.402 141.11L186.196 125.414C185.994 124.659 185.42 124.328 184.665 124.53L169.271 128.655C166.705 129.342 165.269 131.83 165.956 134.396L170 149.488C170.688 152.054 173.176 153.49 175.741 152.803L191.136 148.678C191.74 148.516 192.222 147.902 192.02 147.147L191.818 146.392C191.737 146.091 191.505 145.829 191.122 145.608C190.769 144.894 190.203 142.781 190.192 142.137C190.453 141.905 190.523 141.563 190.402 141.11ZM173.658 135.972C173.631 135.872 173.645 135.765 173.697 135.675C173.749 135.586 173.834 135.52 173.934 135.493L176.575 134.786L175.868 132.144C175.841 132.044 175.855 131.938 175.907 131.848C175.958 131.758 176.044 131.693 176.144 131.666L178.408 131.059C178.508 131.033 178.614 131.047 178.704 131.098C178.794 131.15 178.859 131.236 178.886 131.336L179.594 133.977L182.235 133.269C182.335 133.242 182.442 133.256 182.532 133.308C182.621 133.36 182.687 133.445 182.714 133.545L183.32 135.809C183.347 135.909 183.333 136.016 183.281 136.106C183.229 136.195 183.144 136.261 183.044 136.288L180.403 136.995L181.11 139.637C181.137 139.737 181.123 139.843 181.071 139.933C181.02 140.023 180.934 140.088 180.834 140.115L178.57 140.722C178.47 140.748 178.364 140.734 178.274 140.683C178.184 140.631 178.119 140.545 178.092 140.445L177.384 137.804L174.743 138.512C174.643 138.539 174.536 138.525 174.447 138.473C174.357 138.421 174.291 138.336 174.265 138.236L173.658 135.972ZM188.365 146.185L174.933 149.784C174.027 150.027 173.262 149.585 173.019 148.68C172.776 147.774 173.369 146.968 174.124 146.766L187.556 143.167L188.365 146.185Z" fill="black" fill-opacity="0.1"/>
</g>
<g clip-path="url(#clip30_1722_47123)">
<path d="M230.946 117.881L225.579 119.319L224.86 116.636C224.662 115.893 223.901 115.455 223.159 115.653L215.11 117.81C214.368 118.009 213.929 118.769 214.128 119.511L214.847 122.194L209.481 123.632C208.738 123.831 208.3 124.591 208.498 125.333L212.632 140.761C212.731 141.13 213.114 141.351 213.483 141.252L236.289 135.141C236.658 135.042 236.879 134.66 236.78 134.291L232.647 118.863C232.448 118.121 231.688 117.682 230.946 117.881ZM218.666 136.449C218.74 136.725 218.575 137.012 218.298 137.086L216.621 137.536C216.344 137.61 216.057 137.444 215.983 137.167L215.534 135.491C215.46 135.214 215.625 134.927 215.902 134.853L217.579 134.403C217.856 134.329 218.143 134.495 218.217 134.772L218.666 136.449ZM217.228 131.082C217.302 131.359 217.137 131.646 216.86 131.72L215.183 132.169C214.906 132.244 214.619 132.078 214.545 131.801L214.096 130.124C214.022 129.848 214.187 129.561 214.464 129.486L216.141 129.037C216.418 128.963 216.705 129.129 216.779 129.405L217.228 131.082ZM225.374 134.651C225.448 134.928 225.282 135.215 225.006 135.289L223.329 135.738C223.052 135.813 222.765 135.647 222.691 135.37L222.242 133.693C222.167 133.416 222.333 133.129 222.61 133.055L224.287 132.606C224.563 132.532 224.85 132.698 224.925 132.974L225.374 134.651ZM223.936 129.285C224.01 129.562 223.845 129.849 223.568 129.923L221.891 130.372C221.614 130.446 221.327 130.281 221.253 130.004L220.804 128.327C220.729 128.05 220.895 127.763 221.172 127.689L222.849 127.24C223.126 127.166 223.413 127.331 223.487 127.608L223.936 129.285ZM222.697 121.978C222.734 122.116 222.651 122.26 222.513 122.297L221.423 122.589L221.715 123.679C221.752 123.818 221.669 123.961 221.531 123.998L220.692 124.223C220.554 124.26 220.411 124.177 220.374 124.039L220.081 122.949L218.991 123.241C218.853 123.278 218.71 123.195 218.672 123.057L218.448 122.218C218.411 122.08 218.494 121.936 218.632 121.899L219.722 121.607L219.43 120.517C219.393 120.379 219.476 120.235 219.614 120.198L220.453 119.973C220.591 119.936 220.734 120.019 220.771 120.158L221.064 121.248L222.154 120.956C222.292 120.918 222.435 121.001 222.473 121.14L222.697 121.978ZM232.082 132.854C232.156 133.131 231.99 133.418 231.714 133.492L230.037 133.941C229.76 134.015 229.473 133.849 229.399 133.573L228.949 131.896C228.875 131.619 229.041 131.332 229.318 131.258L230.995 130.809C231.271 130.734 231.558 130.9 231.632 131.177L232.082 132.854ZM230.644 127.488C230.718 127.764 230.552 128.051 230.276 128.125L228.599 128.575C228.322 128.649 228.035 128.483 227.961 128.206L227.511 126.53C227.437 126.253 227.603 125.966 227.88 125.892L229.557 125.442C229.833 125.368 230.12 125.534 230.195 125.811L230.644 127.488Z" fill="black" fill-opacity="0.1"/>
</g>
<g clip-path="url(#clip31_1722_47123)">
<path d="M273.67 107.152L269.897 108.163L269.29 105.899C268.955 104.649 267.669 103.907 266.419 104.242L258.873 106.264C257.623 106.599 256.881 107.884 257.216 109.134L257.823 111.398L254.049 112.409C252.8 112.744 252.057 114.03 252.392 115.28L256.032 128.863C256.367 130.113 257.652 130.855 258.902 130.52L278.523 125.263C279.772 124.928 280.515 123.642 280.18 122.392L276.54 108.809C276.205 107.559 274.92 106.817 273.67 107.152ZM260.437 109.08L266.474 107.462L266.878 108.972L260.841 110.589L260.437 109.08ZM271.117 118.755C271.173 118.962 271.048 119.178 270.841 119.233L268.2 119.941L268.907 122.582C268.963 122.79 268.839 123.005 268.631 123.06L266.367 123.667C266.16 123.723 265.944 123.598 265.889 123.391L265.181 120.75L262.54 121.457C262.332 121.513 262.117 121.389 262.062 121.181L261.455 118.917C261.399 118.71 261.524 118.494 261.731 118.439L264.372 117.731L263.665 115.09C263.609 114.882 263.733 114.667 263.941 114.612L266.205 114.005C266.412 113.949 266.628 114.074 266.683 114.281L267.391 116.922L270.032 116.215C270.24 116.159 270.455 116.283 270.51 116.491L271.117 118.755Z" fill="black" fill-opacity="0.1"/>
</g>
<g clip-path="url(#clip32_1722_47123)">
<path d="M317.137 95.5049L313.363 96.516L312.757 94.2521C312.422 93.0022 311.136 92.2599 309.886 92.5948L302.34 94.6168C301.09 94.9517 300.348 96.2374 300.683 97.4873L301.289 99.7512L297.516 100.762C296.266 101.097 295.524 102.383 295.859 103.633L299.499 117.216C299.833 118.466 301.119 119.208 302.369 118.873L321.989 113.616C323.239 113.281 323.982 111.995 323.647 110.746L320.007 97.1622C319.672 95.9124 318.386 95.17 317.137 95.5049ZM303.903 97.4331L309.94 95.8155L310.345 97.3248L304.308 98.9424L303.903 97.4331ZM314.584 107.108C314.639 107.315 314.515 107.531 314.308 107.586L311.666 108.294L312.374 110.935C312.43 111.143 312.305 111.358 312.098 111.414L309.834 112.02C309.627 112.076 309.411 111.952 309.356 111.744L308.648 109.103L306.007 109.81C305.799 109.866 305.584 109.742 305.528 109.534L304.922 107.27C304.866 107.063 304.99 106.848 305.198 106.792L307.839 106.084L307.131 103.443C307.076 103.236 307.2 103.02 307.408 102.965L309.672 102.358C309.879 102.302 310.094 102.427 310.15 102.634L310.858 105.275L313.499 104.568C313.706 104.512 313.922 104.636 313.977 104.844L314.584 107.108Z" fill="black" fill-opacity="0.1"/>
</g>
<g clip-path="url(#clip33_1722_47123)">
<path d="M359.604 83.317C357.997 83.7728 357.024 85.4438 357.424 87.0657C357.707 88.2181 358.589 89.0584 359.651 89.3402L361.074 94.6509C361.798 97.3535 360.02 100.19 357.106 100.971C354.276 101.73 351.398 100.272 350.574 97.7069C353.818 96.0794 355.596 92.3375 354.62 88.6964L352.656 81.3671C352.512 80.8294 352.005 80.4649 351.449 80.5026L348.323 80.7033C347.677 80.7449 347.189 81.3004 347.231 81.9464L347.278 82.7273C347.32 83.3733 347.875 83.8614 348.521 83.8197L350.046 83.7194L351.581 89.4452C352.249 91.9402 350.812 94.5393 348.324 95.2314C345.811 95.9298 343.214 94.4421 342.54 91.9282L340.992 86.1506L342.363 85.4749C342.943 85.188 343.18 84.4876 342.893 83.9073L342.549 83.206C342.262 82.6257 341.561 82.3888 340.981 82.6757L338.176 84.0542C337.677 84.3042 337.418 84.8688 337.564 85.4111L339.528 92.7405C340.505 96.3863 343.921 98.7415 347.551 98.517C348.816 102.748 353.41 105.197 357.91 103.991C362.485 102.765 365.258 98.2108 364.087 93.8434L362.664 88.5327C363.425 87.7678 363.773 86.6332 363.474 85.5154C363.022 83.8316 361.281 82.8423 359.604 83.317ZM360.657 87.0788C360.242 87.19 359.812 86.9414 359.7 86.5264C359.589 86.1113 359.838 85.6808 360.253 85.5696C360.668 85.4583 361.098 85.7069 361.21 86.122C361.321 86.537 361.072 86.9676 360.657 87.0788Z" fill="black" fill-opacity="0.1"/>
</g>
<g clip-path="url(#clip34_1722_47123)">
<path d="M391.162 93.4637L406.255 89.4197L401.806 72.8178L400.297 73.2223L399.69 70.9584C399.355 69.708 398.07 68.9661 396.82 69.3011L389.274 71.3231C388.023 71.6581 387.281 72.9433 387.616 74.1936L388.223 76.4575L386.714 76.8619L391.162 93.4637ZM390.837 74.1394L396.874 72.5218L397.278 74.0311L391.241 75.6487L390.837 74.1394ZM406.941 73.8685L410.176 85.9426C410.511 87.1929 409.769 88.4781 408.519 88.8131L407.764 89.0153L403.315 72.4134L404.07 72.2112C405.32 71.8762 406.606 72.6182 406.941 73.8685ZM389.653 93.8682L388.898 94.0704C387.648 94.4054 386.363 93.6634 386.028 92.4131L382.792 80.339C382.457 79.0887 383.199 77.8035 384.45 77.4685L385.204 77.2663L389.653 93.8682ZM400.608 80.4183L401.012 81.9276C401.124 82.3444 400.876 82.7727 400.46 82.8844L398.196 83.491L398.802 85.7549C398.914 86.1717 398.667 86.6001 398.25 86.7117L396.741 87.1161C396.324 87.2278 395.895 86.9805 395.784 86.5637L395.177 84.2998L392.913 84.9064C392.496 85.0181 392.068 84.7708 391.956 84.354L391.552 82.8448C391.44 82.428 391.688 81.9996 392.104 81.8879L394.368 81.2813L393.762 79.0174C393.65 78.6006 393.897 78.1723 394.314 78.0606L395.823 77.6562C396.24 77.5445 396.669 77.7918 396.78 78.2086L397.387 80.4725L399.651 79.8659C400.068 79.7542 400.496 80.0015 400.608 80.4183Z" fill="black" fill-opacity="0.1"/>
</g>
<g clip-path="url(#clip35_1722_47123)">
<path d="M236.531 169.544L235.443 174.861C235.313 175.507 234.487 175.708 234.072 175.197L229.793 169.96L229.284 173.72L224.846 174.91L235.81 181.399C236.237 181.654 236.78 181.509 237.022 181.075L243.278 169.971L238.132 171.35L236.531 169.544ZM241.624 159.591L241.479 159.504C238.385 157.674 234.409 158.739 232.64 161.872L231.686 163.573L230.01 162.582C226.915 160.747 222.934 161.814 221.171 164.95L221.088 165.094C219.421 168.058 220.324 171.825 223.045 173.774L227.875 172.48L228.479 167.961C228.57 167.284 229.425 167.04 229.86 167.571L234.239 172.934L235.313 167.697C235.442 167.066 236.235 166.854 236.662 167.335L238.661 169.59L244.269 168.088C245.651 165.038 244.55 161.325 241.624 159.591Z" fill="black" fill-opacity="0.1"/>
</g>
<g clip-path="url(#clip36_1722_47123)">
<path d="M276.53 159.196C276.906 159.428 277.384 159.3 277.599 158.91L280.881 152.899C281.833 151.152 281.14 148.866 279.312 147.981C277.721 147.208 275.851 147.925 275.001 149.482L274.663 150.099L274.067 149.737C272.551 148.809 270.573 149.123 269.582 150.588C268.445 152.268 268.984 154.595 270.681 155.632L276.53 159.196ZM289.559 159.192C288.944 158.876 288.181 159.112 287.773 159.67L284.73 163.807C284.358 164.315 283.822 164.679 283.21 164.843L278.25 166.172C277.882 166.271 277.499 166.05 277.4 165.681C277.301 165.312 277.522 164.929 277.891 164.83L281.174 163.951C281.84 163.772 282.338 163.149 282.271 162.461C282.185 161.586 281.343 161.029 280.526 161.248L273.818 163.046C272.686 163.349 271.696 164.032 271.007 164.981L269.481 167.084L267.159 167.706C266.79 167.805 266.569 168.188 266.667 168.556L267.746 172.581C267.845 172.95 268.227 173.171 268.596 173.072L283.555 169.064C284.163 168.901 284.699 168.537 285.075 168.028L290.054 161.257C290.555 160.579 290.345 159.592 289.559 159.192Z" fill="black" fill-opacity="0.1"/>
</g>
<g clip-path="url(#clip37_1722_47123)">
<path d="M332.449 149.636L328.243 133.94C328.041 133.185 327.467 132.854 326.712 133.056L311.318 137.181C308.752 137.868 307.316 140.356 308.003 142.922L312.047 158.014C312.735 160.58 315.223 162.016 317.788 161.329L333.183 157.204C333.786 157.042 334.269 156.428 334.067 155.673L333.864 154.918C333.784 154.617 333.552 154.355 333.169 154.134C332.816 153.42 332.25 151.307 332.239 150.663C332.5 150.431 332.57 150.089 332.449 149.636ZM315.705 144.498C315.678 144.398 315.692 144.291 315.744 144.201C315.796 144.112 315.881 144.046 315.981 144.019L318.622 143.312L317.915 140.671C317.888 140.57 317.902 140.464 317.954 140.374C318.005 140.284 318.091 140.219 318.191 140.192L320.455 139.585C320.555 139.559 320.661 139.573 320.751 139.625C320.841 139.676 320.906 139.762 320.933 139.862L321.641 142.503L324.282 141.795C324.382 141.768 324.489 141.782 324.578 141.834C324.668 141.886 324.734 141.971 324.76 142.071L325.367 144.335C325.394 144.435 325.38 144.542 325.328 144.632C325.276 144.721 325.191 144.787 325.091 144.814L322.45 145.521L323.157 148.163C323.184 148.263 323.17 148.369 323.118 148.459C323.066 148.549 322.981 148.614 322.881 148.641L320.617 149.248C320.517 149.274 320.41 149.26 320.321 149.209C320.231 149.157 320.166 149.071 320.139 148.971L319.431 146.33L316.79 147.038C316.69 147.065 316.583 147.051 316.493 146.999C316.404 146.947 316.338 146.862 316.311 146.762L315.705 144.498ZM330.412 154.711L316.979 158.31C316.074 158.553 315.308 158.111 315.066 157.206C314.823 156.3 315.416 155.494 316.171 155.292L329.603 151.693L330.412 154.711Z" fill="black" fill-opacity="0.1"/>
</g>
<g clip-path="url(#clip38_1722_47123)">
<path d="M372.25 127.325L368.477 128.336L367.87 126.072C367.535 124.822 366.249 124.08 365 124.415L357.453 126.437C356.203 126.772 355.461 128.057 355.796 129.307L356.403 131.571L352.629 132.582C351.38 132.917 350.637 134.203 350.972 135.453L354.612 149.036C354.947 150.286 356.232 151.028 357.482 150.693L377.103 145.436C378.353 145.101 379.095 143.815 378.76 142.565L375.12 128.982C374.785 127.732 373.5 126.99 372.25 127.325ZM359.017 129.253L365.054 127.635L365.458 129.145L359.421 130.762L359.017 129.253ZM369.697 138.928C369.753 139.135 369.628 139.35 369.421 139.406L366.78 140.114L367.487 142.755C367.543 142.963 367.419 143.178 367.211 143.233L364.947 143.84C364.74 143.896 364.525 143.771 364.469 143.564L363.761 140.923L361.12 141.63C360.912 141.686 360.697 141.562 360.642 141.354L360.035 139.09C359.979 138.883 360.104 138.667 360.311 138.612L362.952 137.904L362.245 135.263C362.189 135.055 362.313 134.84 362.521 134.784L364.785 134.178C364.992 134.122 365.208 134.247 365.263 134.454L365.971 137.095L368.612 136.388C368.82 136.332 369.035 136.456 369.091 136.664L369.697 138.928Z" fill="black" fill-opacity="0.1"/>
</g>
<g clip-path="url(#clip39_1722_47123)">
<path d="M409.026 117.875L407.307 111.461L397.874 113.988C397.247 114.156 396.877 114.796 397.045 115.423L399.977 126.366L397.336 127.073C397.129 127.129 397.004 127.344 397.06 127.552L397.262 128.306C397.318 128.514 397.533 128.638 397.741 128.583L404.386 126.802C404.528 126.764 404.681 126.809 404.781 126.918L406.223 128.544L407.465 122.464C407.527 122.149 407.928 122.041 408.139 122.283L410.654 125.122L413.965 124.235C414.38 124.124 414.811 124.373 414.922 124.788C415.033 125.203 414.785 125.633 414.37 125.744L410.129 126.881L408.529 125.075L407.287 131.156C407.224 131.471 406.823 131.578 406.612 131.336L404.092 128.498L400.786 129.384L402.909 137.308C403.077 137.935 403.717 138.304 404.345 138.136L420.192 133.89C420.819 133.722 421.189 133.082 421.02 132.455L416.875 116.985L410.461 118.704C409.838 118.871 409.193 118.498 409.026 117.875ZM415.85 114.479L409.994 111.095C409.725 110.939 409.406 110.898 409.104 110.979L408.816 111.056L410.434 117.093L416.471 115.476L416.394 115.188C416.314 114.891 416.119 114.635 415.85 114.479Z" fill="black" fill-opacity="0.1"/>
</g>
<defs>
<clipPath id="clip0_1722_47123">
<rect width="25" height="25" fill="white" transform="translate(-13.7529 -8.65369) rotate(-15)"/>
</clipPath>
<clipPath id="clip1_1722_47123">
<rect width="25" height="25" fill="white" transform="translate(29.7139 -20.3006) rotate(-15)"/>
</clipPath>
<clipPath id="clip2_1722_47123">
<rect width="25" height="25" fill="white" transform="translate(-2.10547 34.813) rotate(-15)"/>
</clipPath>
<clipPath id="clip3_1722_47123">
<rect width="25" height="25" fill="white" transform="translate(41.3613 23.1661) rotate(-15)"/>
</clipPath>
<clipPath id="clip4_1722_47123">
<rect width="25" height="25" fill="white" transform="translate(84.8271 11.5192) rotate(-15)"/>
</clipPath>
<clipPath id="clip5_1722_47123">
<rect width="25" height="25" fill="white" transform="translate(128.294 -0.127625) rotate(-15)"/>
</clipPath>
<clipPath id="clip6_1722_47123">
<rect width="25" height="25" fill="white" transform="translate(171.761 -11.7745) rotate(-15)"/>
</clipPath>
<clipPath id="clip7_1722_47123">
<rect width="25" height="25" fill="white" transform="translate(9.54102 78.2796) rotate(-15)"/>
</clipPath>
<clipPath id="clip8_1722_47123">
<rect width="25" height="25" fill="white" transform="translate(53.0078 66.6328) rotate(-15)"/>
</clipPath>
<clipPath id="clip9_1722_47123">
<rect width="25" height="25" fill="white" transform="translate(96.4736 54.9859) rotate(-15)"/>
</clipPath>
<clipPath id="clip10_1722_47123">
<rect width="25" height="25" fill="white" transform="translate(139.94 43.3391) rotate(-15)"/>
</clipPath>
<clipPath id="clip11_1722_47123">
<rect width="25" height="25" fill="white" transform="translate(183.407 31.6922) rotate(-15)"/>
</clipPath>
<clipPath id="clip12_1722_47123">
<rect width="25" height="25" fill="white" transform="translate(226.874 20.0453) rotate(-15)"/>
</clipPath>
<clipPath id="clip13_1722_47123">
<rect width="25" height="25" fill="white" transform="translate(270.341 8.39847) rotate(-15)"/>
</clipPath>
<clipPath id="clip14_1722_47123">
<rect width="25" height="25" fill="white" transform="translate(313.808 -3.24838) rotate(-15)"/>
</clipPath>
<clipPath id="clip15_1722_47123">
<rect width="25" height="25" fill="white" transform="translate(357.274 -14.8952) rotate(-15)"/>
</clipPath>
<clipPath id="clip16_1722_47123">
<rect width="25" height="25" fill="white" transform="translate(-22.2783 133.393) rotate(-15)"/>
</clipPath>
<clipPath id="clip17_1722_47123">
<rect width="25" height="25" fill="white" transform="translate(21.1885 121.746) rotate(-15)"/>
</clipPath>
<clipPath id="clip18_1722_47123">
<rect width="25" height="25" fill="white" transform="translate(64.6553 110.099) rotate(-15)"/>
</clipPath>
<clipPath id="clip19_1722_47123">
<rect width="25" height="25" fill="white" transform="translate(108.121 98.4525) rotate(-15)"/>
</clipPath>
<clipPath id="clip20_1722_47123">
<rect width="25" height="25" fill="white" transform="translate(151.588 86.8057) rotate(-15)"/>
</clipPath>
<clipPath id="clip21_1722_47123">
<rect width="25" height="25" fill="white" transform="translate(195.055 75.1588) rotate(-15)"/>
</clipPath>
<clipPath id="clip22_1722_47123">
<rect width="25" height="25" fill="white" transform="translate(238.521 63.512) rotate(-15)"/>
</clipPath>
<clipPath id="clip23_1722_47123">
<rect width="25" height="25" fill="white" transform="translate(281.988 51.8651) rotate(-15)"/>
</clipPath>
<clipPath id="clip24_1722_47123">
<rect width="25" height="25" fill="white" transform="translate(325.455 40.2183) rotate(-15)"/>
</clipPath>
<clipPath id="clip25_1722_47123">
<rect width="25" height="25" fill="white" transform="translate(368.922 28.5714) rotate(-15)"/>
</clipPath>
<clipPath id="clip26_1722_47123">
<rect width="25" height="25" fill="white" transform="translate(32.835 165.213) rotate(-15)"/>
</clipPath>
<clipPath id="clip27_1722_47123">
<rect width="25" height="25" fill="white" transform="translate(76.3018 153.566) rotate(-15)"/>
</clipPath>
<clipPath id="clip28_1722_47123">
<rect width="25" height="25" fill="white" transform="translate(119.768 141.919) rotate(-15)"/>
</clipPath>
<clipPath id="clip29_1722_47123">
<rect width="25" height="25" fill="white" transform="translate(163.234 130.272) rotate(-15)"/>
</clipPath>
<clipPath id="clip30_1722_47123">
<rect width="25" height="25" fill="white" transform="translate(206.701 118.626) rotate(-15)"/>
</clipPath>
<clipPath id="clip31_1722_47123">
<rect width="25" height="25" fill="white" transform="translate(250.168 106.979) rotate(-15)"/>
</clipPath>
<clipPath id="clip32_1722_47123">
<rect width="25" height="25" fill="white" transform="translate(293.635 95.3318) rotate(-15)"/>
</clipPath>
<clipPath id="clip33_1722_47123">
<rect width="25" height="25" fill="white" transform="translate(337.102 83.6849) rotate(-15)"/>
</clipPath>
<clipPath id="clip34_1722_47123">
<rect width="25" height="25" fill="white" transform="translate(380.568 72.0381) rotate(-15)"/>
</clipPath>
<clipPath id="clip35_1722_47123">
<rect width="25" height="25" fill="white" transform="translate(218.348 162.092) rotate(-15)"/>
</clipPath>
<clipPath id="clip36_1722_47123">
<rect width="25" height="25" fill="white" transform="translate(261.814 150.445) rotate(-15)"/>
</clipPath>
<clipPath id="clip37_1722_47123">
<rect width="25" height="25" fill="white" transform="translate(305.281 138.798) rotate(-15)"/>
</clipPath>
<clipPath id="clip38_1722_47123">
<rect width="25" height="25" fill="white" transform="translate(348.748 127.152) rotate(-15)"/>
</clipPath>
<clipPath id="clip39_1722_47123">
<rect width="25" height="25" fill="white" transform="translate(392.215 115.505) rotate(-15)"/>
</clipPath>
</defs>
</svg>
