<svg width="396" height="161" viewBox="0 0 396 161" fill="none" xmlns="http://www.w3.org/2000/svg">
<g clip-path="url(#clip0_1722_47409)">
<path d="M6.85079 39.1118C7.2868 38.995 7.49534 38.4987 7.27707 38.1034L5.19248 34.3483C5.03726 34.0709 4.71278 33.9331 4.40674 34.0151L0.260467 35.1261L2.7716 40.2048L6.85079 39.1118ZM-6.66116 36.9808L-10.8745 38.1097L-10.5099 43.7636L-5.22328 42.347L-6.66116 36.9808ZM-1.10625 35.4923L-5.3196 36.6213L-3.88172 41.9876L1.40488 40.571L-1.10625 35.4923ZM-15.9558 45.2228L-11.8766 44.1298L-12.2412 38.476L-16.3875 39.5869C-16.6935 39.669 -16.9057 39.9505 -16.9014 40.2683L-16.8292 44.5626C-16.8205 45.0142 -16.3918 45.3396 -15.9558 45.2228ZM7.56974 41.7949L6.73126 42.0196L6.53948 40.6331L-14.9255 46.3846L-14.3984 47.6813L-15.2368 47.9059C-15.6058 48.0048 -15.8267 48.3875 -15.7279 48.7564L-15.3684 50.098C-15.2696 50.4669 -14.8868 50.6879 -14.5179 50.5891L-13.344 50.2745L-10.7082 56.7577L-10.5285 57.4285C-10.4296 57.7974 -10.0469 58.0184 -9.67795 57.9195L-8.33639 57.56C-7.96746 57.4612 -7.74649 57.0784 -7.84534 56.7095L-8.02508 56.0387L5.39056 52.444L5.57029 53.1148C5.66915 53.4837 6.05188 53.7047 6.42081 53.6058L7.76237 53.2464C8.1313 53.1475 8.35228 52.7648 8.25342 52.3959L8.07369 51.7251L7.11481 44.7926L8.28868 44.4781C8.65761 44.3792 8.87858 43.9965 8.77972 43.6275L8.42025 42.286C8.3214 41.917 7.93867 41.6961 7.56974 41.7949Z" fill="black" fill-opacity="0.1"/>
</g>
<g clip-path="url(#clip1_1722_47409)">
<path d="M36.8848 22.8414C30.2804 24.6111 26.4554 30.8093 28.2023 37.3288C29.1161 40.7388 31.3069 43.3102 34.1332 44.7346C34.6219 44.9833 34.5958 45.2102 35.2488 47.3793C35.2951 47.5311 35.3778 47.6692 35.4898 47.7817C35.6018 47.8941 35.7396 47.9775 35.8911 48.0244C36.0427 48.0714 36.2035 48.0806 36.3594 48.0512C36.5154 48.0217 36.6617 47.9546 36.7858 47.8556C38.9868 46.088 38.9956 45.9927 39.4495 45.9944C47.2125 46.047 53.8091 39.3205 51.5959 31.0606C49.849 24.541 43.4897 21.0717 36.8848 22.8414Z" fill="black" fill-opacity="0.1"/>
</g>
<g clip-path="url(#clip2_1722_47409)">
<path d="M83.4592 22.8982C86.7938 22.0048 88.7721 18.5781 87.8786 15.2436C86.9852 11.9091 83.5585 9.93068 80.224 10.8242C76.8895 11.7176 74.9111 15.1443 75.8046 18.4788C76.6981 21.8133 80.1247 23.7917 83.4592 22.8982ZM88.3896 23.2251L88.554 32.8564L85.326 26.8465L86.1275 23.8009L81.5997 25.0141L83.8167 27.2509L84.0262 34.0697L79.3529 25.6465C76.033 26.7079 74.0861 30.1767 74.9973 33.5772L75.523 35.5393C75.8579 36.7891 77.1437 37.5314 78.3935 37.1965L94.9954 32.7481C96.2452 32.4132 96.9876 31.1274 96.6527 29.8776L96.1269 27.9156C95.2158 24.515 91.7953 22.4844 88.3896 23.2251Z" fill="black" fill-opacity="0.1"/>
</g>
<g clip-path="url(#clip3_1722_47409)">
<path d="M137.342 10.8867C138.794 16.3059 135.58 21.8734 130.161 23.3255C124.741 24.7775 119.174 21.5631 117.722 16.1439C116.407 11.2388 118.917 6.20902 123.426 4.22743L122.99 2.60026L121.669 2.95412C121.358 3.03752 121.035 2.85108 120.951 2.5398L120.446 0.653221C120.362 0.341936 120.549 0.0190057 120.86 -0.0644028L126.52 -1.58092C126.831 -1.66433 127.154 -1.47788 127.238 -1.1666L127.743 0.719974C127.826 1.03126 127.64 1.35419 127.329 1.4376L126.008 1.79145L126.444 3.41862C128.286 3.21826 130.099 3.53125 131.71 4.26218L132.66 2.61762C132.822 2.33655 133.18 2.24051 133.461 2.40278L135.154 3.37989C135.435 3.54216 135.531 3.90061 135.369 4.18168L134.353 5.93986L134.333 5.97574C135.742 7.23595 136.814 8.9152 137.342 10.8867ZM129.496 14.8088L127.582 7.66341C127.498 7.35213 127.175 7.16568 126.864 7.24909L124.977 7.7546C124.666 7.83801 124.48 8.16094 124.563 8.47222L126.478 15.6176C126.561 15.9289 126.884 16.1153 127.195 16.0319L129.082 15.5264C129.393 15.443 129.58 15.1201 129.496 14.8088Z" fill="black" fill-opacity="0.1"/>
</g>
<g clip-path="url(#clip4_1722_47409)">
<path d="M175.89 -11.5741C176.515 -11.7416 176.886 -12.3842 176.718 -13.0094L176.516 -13.764C176.348 -14.3892 175.706 -14.7602 175.081 -14.5926L159.234 -10.3464C158.608 -10.1789 158.237 -9.53631 158.405 -8.91115L158.607 -8.15652C158.775 -7.53135 159.417 -7.16036 160.042 -7.32788C161.192 -3.03757 164.568 -0.0615339 168.168 0.20052C165.182 2.22745 163.746 6.49293 164.895 10.7832C164.27 10.9507 163.899 11.5933 164.067 12.2185L164.269 12.9731C164.436 13.5983 165.079 13.9693 165.704 13.8018L181.551 9.5555C182.176 9.38799 182.547 8.74542 182.38 8.12025L182.178 7.36562C182.01 6.74046 181.368 6.36947 180.742 6.53698C179.593 2.24668 176.216 -0.72936 172.617 -0.991413C175.603 -3.01834 177.039 -7.28382 175.89 -11.5741ZM169.786 -2.65934C167.06 -1.92904 164.04 -4.4823 163.061 -8.13669L172.871 -10.7653C173.856 -7.08909 172.497 -3.38587 169.786 -2.65934Z" fill="black" fill-opacity="0.1"/>
</g>
<g clip-path="url(#clip5_1722_47409)">
<path d="M213.265 -12.1302C213.642 -11.8986 214.12 -12.0267 214.334 -12.4167L217.617 -18.4277C218.569 -20.1745 217.875 -22.4601 216.047 -23.3453C214.456 -24.1187 212.586 -23.4019 211.736 -21.8441L211.398 -21.2278L210.802 -21.5894C209.286 -22.5178 207.308 -22.2034 206.317 -20.7381C205.181 -19.0586 205.719 -16.7315 207.417 -15.6946L213.265 -12.1302ZM226.295 -12.1346C225.68 -12.4507 224.916 -12.2146 224.509 -11.6561L221.465 -7.51993C221.094 -7.01148 220.558 -6.64767 219.945 -6.48366L214.986 -5.15474C214.617 -5.05588 214.234 -5.27686 214.135 -5.64579C214.036 -6.01472 214.257 -6.39745 214.626 -6.4963L217.909 -7.37588C218.576 -7.5545 219.074 -8.17772 219.006 -8.86513C218.92 -9.74068 218.079 -10.2972 217.261 -10.0781L210.554 -8.28075C209.422 -7.97745 208.432 -7.29436 207.742 -6.34576L206.216 -4.24287L203.894 -3.62054C203.525 -3.52168 203.304 -3.13895 203.403 -2.77002L204.481 1.25467C204.58 1.6236 204.963 1.84457 205.332 1.74572L220.29 -2.26238C220.898 -2.42527 221.434 -2.78909 221.81 -3.29865L226.789 -10.0699C227.291 -10.748 227.081 -11.7341 226.295 -12.1346Z" fill="black" fill-opacity="0.1"/>
</g>
<g clip-path="url(#clip6_1722_47409)">
<path d="M13.6698 78.48C14.295 78.3125 14.666 77.6699 14.4985 77.0447L14.2962 76.2901C14.1287 75.6649 13.4862 75.294 12.861 75.4615L-2.98622 79.7077C-3.61138 79.8752 -3.98237 80.5178 -3.81486 81.143L-3.61266 81.8976C-3.44515 82.5228 -2.80257 82.8937 -2.17741 82.7262C-1.02783 87.0165 2.34849 89.9926 5.94845 90.2546C2.96182 92.2816 1.52586 96.547 2.67545 100.837C2.05028 101.005 1.67929 101.647 1.84681 102.273L2.04901 103.027C2.21652 103.652 2.85909 104.023 3.48426 103.856L19.3315 99.6096C19.9566 99.4421 20.3276 98.7995 20.1601 98.1744L19.9579 97.4197C19.7904 96.7946 19.1478 96.4236 18.5227 96.5911C17.3731 92.3008 13.9968 89.3247 10.3968 89.0627C13.3834 87.0358 14.8194 82.7703 13.6698 78.48ZM7.56602 87.3948C4.84054 88.1251 1.8203 85.5718 0.841108 81.9174L10.6513 79.2888C11.6363 82.965 10.2775 86.6682 7.56602 87.3948Z" fill="black" fill-opacity="0.1"/>
</g>
<g clip-path="url(#clip7_1722_47409)">
<path d="M63.3408 76.858L55.7406 70.4783C54.4485 69.3956 52.7692 69.0817 51.2599 69.4861C50.3125 69.74 49.4277 70.2781 48.7465 71.0898C48.0756 71.8896 47.7021 72.8434 47.611 73.8114C46.8233 71.3579 44.2597 69.924 41.7443 70.598C39.1492 71.2933 37.6116 73.9565 38.307 76.5516L40.8233 85.9425C41.5186 88.5376 44.1818 90.0752 46.7769 89.3799C49.372 88.6845 50.9096 86.0213 50.2142 83.4262L48.5393 77.1754C48.7743 77.4989 49.0374 77.8103 49.3568 78.0797L56.9612 84.4582C58.2491 85.542 59.9284 85.8559 61.4419 85.4504C62.3935 85.1954 63.2741 84.6584 63.9553 83.8468C65.7162 81.7484 65.4393 78.6188 63.3408 76.858ZM46.2729 79.4497L42.2483 80.5281L40.9901 75.8326C40.6924 74.7217 41.3523 73.5788 42.4632 73.2811C43.5742 72.9834 44.7171 73.6432 45.0148 74.7542L46.2729 79.4497ZM54.9441 79.1438L51.1413 75.9525C50.6949 75.5778 50.4186 75.0497 50.371 74.4694C50.3191 73.8901 50.499 73.3207 50.8737 72.8743C51.1627 72.5273 51.5471 72.285 51.9789 72.1693C52.6706 71.9839 53.4061 72.1463 53.9519 72.6067L57.7546 75.798L54.9441 79.1438Z" fill="black" fill-opacity="0.1"/>
</g>
<g clip-path="url(#clip8_1722_47409)">
<path d="M105.523 66.0002C106.975 71.4194 103.76 76.9869 98.3412 78.439C92.922 79.8911 87.3545 76.6766 85.9024 71.2575C84.5881 66.3524 87.0974 61.3225 91.6063 59.341L91.1703 57.7138L89.8497 58.0676C89.5384 58.151 89.2155 57.9646 89.1321 57.6533L88.6265 55.7667C88.5431 55.4555 88.7296 55.1325 89.0409 55.0491L94.7006 53.5326C95.0119 53.4492 95.3348 53.6356 95.4182 53.9469L95.9237 55.8335C96.0071 56.1448 95.8207 56.4677 95.5094 56.5511L94.1888 56.905L94.6248 58.5321C96.4668 58.3318 98.2795 58.6448 99.8907 59.3757L100.84 57.7311C101.002 57.4501 101.361 57.354 101.642 57.5163L103.334 58.4934C103.615 58.6557 103.712 59.0141 103.549 59.2952L102.534 61.0534L102.513 61.0893C103.923 62.3495 104.995 64.0287 105.523 66.0002ZM97.6768 69.9223L95.7622 62.7769C95.6788 62.4657 95.3558 62.2792 95.0446 62.3626L93.158 62.8681C92.8467 62.9515 92.6603 63.2745 92.7437 63.5857L94.6583 70.7311C94.7417 71.0424 95.0646 71.2289 95.3759 71.1455L97.2625 70.64C97.5738 70.5566 97.7602 70.2336 97.6768 69.9223Z" fill="black" fill-opacity="0.1"/>
</g>
<g clip-path="url(#clip9_1722_47409)">
<path d="M137.978 54.6302C138.355 54.8618 138.832 54.7337 139.047 54.3437L142.33 48.3327C143.281 46.5858 142.588 44.3002 140.76 43.415C139.169 42.6417 137.299 43.3585 136.449 44.9162L136.111 45.5326L135.515 45.1709C133.999 44.2426 132.021 44.557 131.03 46.0223C129.894 47.7017 130.432 50.0289 132.13 51.0658L137.978 54.6302ZM151.008 54.6258C150.393 54.3097 149.629 54.5458 149.222 55.1043L146.178 59.2404C145.806 59.7489 145.27 60.1127 144.658 60.2767L139.699 61.6056C139.33 61.7045 138.947 61.4835 138.848 61.1146C138.749 60.7457 138.97 60.3629 139.339 60.2641L142.622 59.3845C143.288 59.2059 143.787 58.5827 143.719 57.8952C143.633 57.0197 142.792 56.4632 141.974 56.6823L135.266 58.4796C134.134 58.7829 133.145 59.466 132.455 60.4146L130.929 62.5175L128.607 63.1398C128.238 63.2387 128.017 63.6214 128.116 63.9904L129.194 68.015C129.293 68.384 129.676 68.6049 130.045 68.5061L145.003 64.498C145.611 64.3351 146.147 63.9713 146.523 63.4617L151.502 56.6904C152.004 56.0124 151.793 55.0263 151.008 54.6258Z" fill="black" fill-opacity="0.1"/>
</g>
<g clip-path="url(#clip10_1722_47409)">
<path d="M178.931 31.3675C172.326 33.1372 168.501 39.3354 170.248 45.8549C171.162 49.2649 173.353 51.8363 176.179 53.2607C176.668 53.5094 176.642 53.7363 177.295 55.9054C177.341 56.0572 177.424 56.1953 177.536 56.3078C177.648 56.4202 177.785 56.5036 177.937 56.5505C178.089 56.5975 178.249 56.6067 178.405 56.5773C178.561 56.5478 178.708 56.4807 178.832 56.3817C181.033 54.6141 181.041 54.5188 181.495 54.5205C189.258 54.5731 195.855 47.8466 193.642 39.5867C191.895 33.0671 185.536 29.5977 178.931 31.3675Z" fill="black" fill-opacity="0.1"/>
</g>
<g clip-path="url(#clip11_1722_47409)">
<path d="M225.505 31.4244C228.84 30.5309 230.818 27.1042 229.925 23.7697C229.031 20.4352 225.604 18.4568 222.27 19.3503C218.935 20.2438 216.957 23.6704 217.85 27.0049C218.744 30.3395 222.171 32.3178 225.505 31.4244ZM230.435 31.7512L230.6 41.3826L227.372 35.3726L228.173 32.327L223.646 33.5402L225.863 35.777L226.072 42.5958L221.399 34.1726C218.079 35.234 216.132 38.7028 217.043 42.1033L217.569 44.0654C217.904 45.3152 219.19 46.0576 220.439 45.7227L237.041 41.2742C238.291 40.9393 239.033 39.6536 238.699 38.4037L238.173 36.4417C237.262 33.0411 233.841 31.0105 230.435 31.7512Z" fill="black" fill-opacity="0.1"/>
</g>
<g clip-path="url(#clip12_1722_47409)">
<path d="M280.674 18.6237L273.074 12.244C271.781 11.1614 270.102 10.8474 268.593 11.2519C267.645 11.5057 266.761 12.0439 266.079 12.8555C265.409 13.6553 265.035 14.6091 264.944 15.5772C264.156 13.1237 261.593 11.6897 259.077 12.3637C256.482 13.059 254.945 15.7222 255.64 18.3173L258.156 27.7082C258.852 30.3033 261.515 31.8409 264.11 31.1456C266.705 30.4502 268.243 27.787 267.547 25.1919L265.872 18.9411C266.107 19.2646 266.37 19.576 266.69 19.8454L274.294 26.2239C275.582 27.3077 277.261 27.6216 278.775 27.2161C279.727 26.9611 280.607 26.4241 281.288 25.6125C283.049 23.5141 282.772 20.3845 280.674 18.6237ZM263.606 21.2154L259.581 22.2938L258.323 17.5984C258.025 16.4874 258.685 15.3445 259.796 15.0468C260.907 14.7491 262.05 15.409 262.348 16.5199L263.606 21.2154ZM272.277 20.9095L268.474 17.7182C268.028 17.3435 267.752 16.8154 267.704 16.2351C267.652 15.6558 267.832 15.0864 268.207 14.64C268.496 14.293 268.88 14.0507 269.312 13.935C270.004 13.7496 270.739 13.912 271.285 14.3724L275.088 17.5638L272.277 20.9095Z" fill="black" fill-opacity="0.1"/>
</g>
<g clip-path="url(#clip13_1722_47409)">
<path d="M322.764 1.05049C323.2 0.933661 323.408 0.437433 323.19 0.0420859L321.106 -3.713C320.95 -3.99044 320.626 -4.12817 320.32 -4.04616L316.174 -2.93517L318.685 2.14351L322.764 1.05049ZM309.252 -1.08053L305.039 0.0484363L305.403 5.70227L310.69 4.28573L309.252 -1.08053ZM314.807 -2.56896L310.593 -1.44L312.031 3.92626L317.318 2.50972L314.807 -2.56896ZM299.957 7.16149L304.036 6.06848L303.672 0.414647L299.526 1.52564C299.22 1.60764 299.007 1.88915 299.012 2.20703L299.084 6.50133C299.093 6.95284 299.521 7.27832 299.957 7.16149ZM323.483 3.73362L322.644 3.95828L322.453 2.57179L300.988 8.32332L301.515 9.61995L300.676 9.84462C300.307 9.94348 300.086 10.3262 300.185 10.6951L300.545 12.0367C300.644 12.4056 301.026 12.6266 301.395 12.5277L302.569 12.2132L305.205 18.6964L305.385 19.3671C305.483 19.7361 305.866 19.957 306.235 19.8582L307.577 19.4987C307.946 19.3999 308.167 19.0171 308.068 18.6482L307.888 17.9774L321.304 14.3827L321.483 15.0535C321.582 15.4224 321.965 15.6434 322.334 15.5445L323.675 15.1851C324.044 15.0862 324.265 14.7035 324.167 14.3345L323.987 13.6638L323.028 6.73128L324.202 6.41674C324.571 6.31789 324.792 5.93516 324.693 5.56623L324.333 4.22466C324.234 3.85573 323.852 3.63476 323.483 3.73362Z" fill="black" fill-opacity="0.1"/>
</g>
<g clip-path="url(#clip14_1722_47409)">
<path d="M352.798 -15.2199C346.193 -13.4502 342.369 -7.252 344.115 -0.73247C345.029 2.67751 347.22 5.24888 350.046 6.67333C350.535 6.92201 350.509 7.14891 351.162 9.31798C351.208 9.46976 351.291 9.6079 351.403 9.72035C351.515 9.8328 351.653 9.91615 351.804 9.96313C351.956 10.0101 352.117 10.0193 352.273 9.98985C352.428 9.96043 352.575 9.8933 352.699 9.79432C354.9 8.02673 354.909 7.93136 355.363 7.93308C363.126 7.98572 369.722 1.25915 367.509 -7.00074C365.762 -13.5203 359.403 -16.9897 352.798 -15.2199Z" fill="black" fill-opacity="0.1"/>
</g>
<g clip-path="url(#clip15_1722_47409)">
<path d="M30.1447 126.045C30.5807 125.928 30.7893 125.432 30.571 125.037L28.4864 121.282C28.3312 121.004 28.0067 120.866 27.7007 120.948L23.5544 122.059L26.0655 127.138L30.1447 126.045ZM16.6328 123.914L12.4194 125.043L12.7841 130.697L18.0707 129.28L16.6328 123.914ZM22.1877 122.426L17.9743 123.555L19.4122 128.921L24.6988 127.504L22.1877 122.426ZM7.33816 132.156L11.4173 131.063L11.0527 125.409L6.90645 126.52C6.6004 126.602 6.38826 126.884 6.39255 127.202L6.46479 131.496C6.47344 131.947 6.90215 132.273 7.33816 132.156ZM30.8637 128.728L30.0252 128.953L29.8334 127.566L8.36841 133.318L8.89558 134.615L8.0571 134.839C7.68817 134.938 7.4672 135.321 7.56605 135.69L7.92552 137.031C8.02438 137.4 8.40711 137.621 8.77604 137.522L9.94991 137.208L12.5857 143.691L12.7655 144.362C12.8643 144.731 13.2471 144.952 13.616 144.853L14.9576 144.493C15.3265 144.394 15.5475 144.012 15.4486 143.643L15.2689 142.972L28.6845 139.377L28.8642 140.048C28.9631 140.417 29.3458 140.638 29.7148 140.539L31.0563 140.18C31.4252 140.081 31.6462 139.698 31.5474 139.329L31.3676 138.658L30.4088 131.726L31.5826 131.411C31.9516 131.313 32.1725 130.93 32.0737 130.561L31.7142 129.219C31.6153 128.85 31.2326 128.629 30.8637 128.728Z" fill="black" fill-opacity="0.1"/>
</g>
<g clip-path="url(#clip16_1722_47409)">
<path d="M60.1788 109.775C53.5743 111.544 49.7494 117.743 51.4963 124.262C52.41 127.672 54.6008 130.244 57.4272 131.668C57.9159 131.917 57.8897 132.144 58.5427 134.313C58.589 134.464 58.6718 134.603 58.7838 134.715C58.8957 134.827 59.0335 134.911 59.1851 134.958C59.3367 135.005 59.4974 135.014 59.6534 134.984C59.8093 134.955 59.9557 134.888 60.0797 134.789C62.2807 133.021 62.2895 132.926 62.7434 132.928C70.5064 132.98 77.103 126.254 74.8898 117.994C73.1429 111.474 66.7836 108.005 60.1788 109.775Z" fill="black" fill-opacity="0.1"/>
</g>
<g clip-path="url(#clip17_1722_47409)">
<path d="M106.753 109.832C110.088 108.938 112.066 105.511 111.173 102.177C110.279 98.8424 106.852 96.864 103.518 97.7575C100.183 98.651 98.205 102.078 99.0985 105.412C99.992 108.747 103.419 110.725 106.753 109.832ZM111.684 110.158L111.848 119.79L108.62 113.78L109.421 110.734L104.894 111.947L107.111 114.184L107.32 121.003L102.647 112.58C99.327 113.641 97.3801 117.11 98.2913 120.511L98.817 122.473C99.1519 123.722 100.438 124.465 101.687 124.13L118.289 119.681C119.539 119.347 120.282 118.061 119.947 116.811L119.421 114.849C118.51 111.448 115.089 109.418 111.684 110.158Z" fill="black" fill-opacity="0.1"/>
</g>
<g clip-path="url(#clip18_1722_47409)">
<path d="M160.636 97.82C162.088 103.239 158.874 108.807 153.454 110.259C148.035 111.711 142.468 108.496 141.016 103.077C139.701 98.1722 142.211 93.1423 146.72 91.1608L146.284 89.5336L144.963 89.8874C144.652 89.9708 144.329 89.7844 144.245 89.4731L143.74 87.5865C143.656 87.2753 143.843 86.9523 144.154 86.8689L149.814 85.3524C150.125 85.269 150.448 85.4554 150.531 85.7667L151.037 87.6533C151.12 87.9646 150.934 88.2875 150.623 88.3709L149.302 88.7248L149.738 90.3519C151.58 90.1516 153.393 90.4646 155.004 91.1955L155.953 89.5509C156.116 89.2699 156.474 89.1738 156.755 89.3361L158.448 90.3132C158.729 90.4755 158.825 90.8339 158.663 91.115L157.647 92.8732L157.627 92.9091C159.036 94.1693 160.108 95.8485 160.636 97.82ZM152.79 101.742L150.875 94.5967C150.792 94.2854 150.469 94.099 150.158 94.1824L148.271 94.6879C147.96 94.7713 147.774 95.0943 147.857 95.4055L149.772 102.551C149.855 102.862 150.178 103.049 150.489 102.965L152.376 102.46C152.687 102.376 152.873 102.053 152.79 101.742Z" fill="black" fill-opacity="0.1"/>
</g>
<g clip-path="url(#clip19_1722_47409)">
<path d="M199.183 75.3592C199.809 75.1917 200.18 74.5491 200.012 73.9239L199.81 73.1693C199.642 72.5442 199 72.1732 198.375 72.3407L182.527 76.5869C181.902 76.7544 181.531 77.397 181.699 78.0222L181.901 78.7768C182.069 79.402 182.711 79.773 183.336 79.6054C184.486 83.8957 187.862 86.8718 191.462 87.1338C188.475 89.1608 187.04 93.4262 188.189 97.7166C187.564 97.8841 187.193 98.5266 187.36 99.1518L187.563 99.9064C187.73 100.532 188.373 100.903 188.998 100.735L204.845 96.4888C205.47 96.3213 205.841 95.6787 205.674 95.0536L205.472 94.2989C205.304 93.6738 204.662 93.3028 204.036 93.4703C202.887 89.18 199.51 86.204 195.91 85.9419C198.897 83.915 200.333 79.6495 199.183 75.3592ZM193.08 84.274C190.354 85.0043 187.334 82.451 186.355 78.7966L196.165 76.168C197.15 79.8442 195.791 83.5474 193.08 84.274Z" fill="black" fill-opacity="0.1"/>
</g>
<g clip-path="url(#clip20_1722_47409)">
<path d="M236.559 74.8031C236.936 75.0347 237.414 74.9067 237.628 74.5167L240.911 68.5056C241.863 66.7588 241.169 64.4732 239.341 63.588C237.75 62.8146 235.88 63.5315 235.03 65.0892L234.692 65.7055L234.096 65.3439C232.58 64.4155 230.602 64.7299 229.611 66.1953C228.475 67.8747 229.013 70.2018 230.711 71.2387L236.559 74.8031ZM249.589 74.7987C248.974 74.4827 248.21 74.7187 247.803 75.2772L244.759 79.4134C244.388 79.9218 243.851 80.2857 243.239 80.4497L238.28 81.7786C237.911 81.8774 237.528 81.6565 237.429 81.2875C237.33 80.9186 237.551 80.5359 237.92 80.437L241.203 79.5574C241.87 79.3788 242.368 78.7556 242.3 78.0682C242.214 77.1926 241.373 76.6362 240.555 76.8552L233.847 78.6526C232.716 78.9559 231.726 79.639 231.036 80.5876L229.51 82.6904L227.188 83.3128C226.819 83.4116 226.598 83.7944 226.697 84.1633L227.775 88.188C227.874 88.5569 228.257 88.7779 228.626 88.679L243.584 84.6709C244.192 84.5081 244.728 84.1442 245.104 83.6347L250.083 76.8634C250.585 76.1854 250.374 75.1992 249.589 74.7987Z" fill="black" fill-opacity="0.1"/>
</g>
<g clip-path="url(#clip21_1722_47409)">
<path d="M290.945 56.164C291.381 56.0472 291.589 55.5509 291.371 55.1556L289.286 51.4005C289.131 51.1231 288.807 50.9853 288.5 51.0673L284.354 52.1783L286.865 57.257L290.945 56.164ZM277.433 54.033L273.219 55.1619L273.584 60.8158L278.87 59.3992L277.433 54.033ZM282.987 52.5445L278.774 53.6735L280.212 59.0398L285.499 57.6232L282.987 52.5445ZM268.138 62.275L272.217 61.182L271.853 55.5281L267.706 56.6391C267.4 56.7211 267.188 57.0026 267.192 57.3205L267.265 61.6148C267.273 62.0663 267.702 62.3918 268.138 62.275ZM291.663 58.8471L290.825 59.0718L290.633 57.6853L269.168 63.4368L269.695 64.7334L268.857 64.9581C268.488 65.057 268.267 65.4397 268.366 65.8086L268.725 67.1502C268.824 67.5191 269.207 67.7401 269.576 67.6412L270.75 67.3267L273.386 73.8099L273.565 74.4806C273.664 74.8496 274.047 75.0705 274.416 74.9717L275.757 74.6122C276.126 74.5134 276.347 74.1306 276.248 73.7617L276.069 73.0909L289.484 69.4962L289.664 70.167C289.763 70.5359 290.146 70.7569 290.515 70.658L291.856 70.2986C292.225 70.1997 292.446 69.817 292.347 69.448L292.167 68.7773L291.209 61.8448L292.382 61.5302C292.751 61.4314 292.972 61.0487 292.873 60.6797L292.514 59.3382C292.415 58.9692 292.032 58.7483 291.663 58.8471Z" fill="black" fill-opacity="0.1"/>
</g>
<g clip-path="url(#clip22_1722_47409)">
<path d="M329.584 40.4186C330.209 40.2511 330.58 39.6086 330.413 38.9834L330.21 38.2288C330.043 37.6036 329.4 37.2326 328.775 37.4001L312.928 41.6464C312.303 41.8139 311.932 42.4565 312.099 43.0816L312.301 43.8363C312.469 44.4614 313.111 44.8324 313.737 44.6649C314.886 48.9552 318.263 51.9312 321.863 52.1933C318.876 54.2202 317.44 58.4857 318.59 62.776C317.964 62.9435 317.593 63.5861 317.761 64.2112L317.963 64.9659C318.131 65.591 318.773 65.962 319.398 65.7945L335.246 61.5483C335.871 61.3808 336.242 60.7382 336.074 60.113L335.872 59.3584C335.704 58.7332 335.062 58.3622 334.437 58.5298C333.287 54.2394 329.911 51.2634 326.311 51.0014C329.297 48.9744 330.733 44.7089 329.584 40.4186ZM323.48 49.3334C320.755 50.0637 317.734 47.5105 316.755 43.8561L326.565 41.2275C327.55 44.9037 326.192 48.6069 323.48 49.3334Z" fill="black" fill-opacity="0.1"/>
</g>
<g clip-path="url(#clip23_1722_47409)">
<path d="M379.255 38.7966L371.655 32.417C370.363 31.3343 368.683 31.0204 367.174 31.4248C366.227 31.6787 365.342 32.2168 364.661 33.0284C363.99 33.8283 363.616 34.7821 363.525 35.7501C362.737 33.2966 360.174 31.8626 357.658 32.5366C355.063 33.232 353.526 35.8952 354.221 38.4902L356.737 47.8812C357.433 50.4763 360.096 52.0139 362.691 51.3185C365.286 50.6232 366.824 47.96 366.128 45.3649L364.453 39.114C364.688 39.4375 364.952 39.7489 365.271 40.0184L372.875 46.3969C374.163 47.4807 375.842 47.7946 377.356 47.389C378.308 47.134 379.188 46.597 379.869 45.7854C381.63 43.687 381.353 40.5574 379.255 38.7966ZM362.187 41.3884L358.162 42.4668L356.904 37.7713C356.606 36.6603 357.266 35.5174 358.377 35.2197C359.488 34.9221 360.631 35.5819 360.929 36.6929L362.187 41.3884ZM370.858 41.0825L367.055 37.8911C366.609 37.5164 366.333 36.9884 366.285 36.408C366.233 35.8288 366.413 35.2593 366.788 34.813C367.077 34.4659 367.461 34.2236 367.893 34.1079C368.585 33.9226 369.32 34.085 369.866 34.5453L373.669 37.7367L370.858 41.0825Z" fill="black" fill-opacity="0.1"/>
</g>
<g clip-path="url(#clip24_1722_47409)">
<path d="M86.6348 163.791L79.0345 157.412C77.7424 156.329 76.0631 156.015 74.5539 156.419C73.6064 156.673 72.7216 157.211 72.0404 158.023C71.3695 158.823 70.996 159.777 70.9049 160.745C70.1172 158.291 67.5537 156.857 65.0382 157.531C62.4432 158.227 60.9056 160.89 61.6009 163.485L64.1172 172.876C64.8126 175.471 67.4758 177.009 70.0708 176.313C72.6659 175.618 74.2035 172.955 73.5082 170.36L71.8333 164.109C72.0682 164.432 72.3314 164.744 72.6507 165.013L80.2552 171.392C81.5431 172.475 83.2224 172.789 84.7358 172.384C85.6875 172.129 86.5681 171.592 87.2493 170.78C89.0101 168.682 88.7332 165.552 86.6348 163.791ZM69.5669 166.383L65.5422 167.461L64.284 162.766C63.9864 161.655 64.6462 160.512 65.7572 160.214C66.8682 159.917 68.0111 160.577 68.3087 161.688L69.5669 166.383ZM78.238 166.077L74.4353 162.886C73.9889 162.511 73.7126 161.983 73.6649 161.403C73.6131 160.823 73.793 160.254 74.1676 159.808C74.4566 159.461 74.841 159.218 75.2728 159.103C75.9646 158.917 76.7001 159.08 77.2458 159.54L81.0486 162.731L78.238 166.077Z" fill="black" fill-opacity="0.1"/>
</g>
<g clip-path="url(#clip25_1722_47409)">
<path d="M128.817 152.934C130.269 158.353 127.054 163.92 121.635 165.372C116.216 166.824 110.648 163.61 109.196 158.191C107.882 153.286 110.391 148.256 114.9 146.274L114.464 144.647L113.144 145.001C112.832 145.084 112.509 144.898 112.426 144.587L111.92 142.7C111.837 142.389 112.024 142.066 112.335 141.982L117.995 140.466C118.306 140.383 118.629 140.569 118.712 140.88L119.218 142.767C119.301 143.078 119.115 143.401 118.803 143.484L117.483 143.838L117.919 145.465C119.761 145.265 121.573 145.578 123.185 146.309L124.134 144.664C124.296 144.383 124.655 144.287 124.936 144.45L126.628 145.427C126.909 145.589 127.005 145.947 126.843 146.229L125.828 147.987L125.807 148.023C127.217 149.283 128.288 150.962 128.817 152.934ZM120.971 156.856L119.056 149.71C118.973 149.399 118.65 149.213 118.339 149.296L116.452 149.801C116.141 149.885 115.954 150.208 116.038 150.519L117.952 157.664C118.036 157.976 118.359 158.162 118.67 158.079L120.556 157.573C120.868 157.49 121.054 157.167 120.971 156.856Z" fill="black" fill-opacity="0.1"/>
</g>
<g clip-path="url(#clip26_1722_47409)">
<path d="M161.272 141.563C161.648 141.795 162.126 141.667 162.341 141.277L165.624 135.266C166.575 133.519 165.882 131.234 164.054 130.348C162.463 129.575 160.593 130.292 159.743 131.85L159.405 132.466L158.809 132.104C157.293 131.176 155.315 131.49 154.324 132.956C153.188 134.635 153.726 136.962 155.424 137.999L161.272 141.563ZM174.302 141.559C173.687 141.243 172.923 141.479 172.516 142.038L169.472 146.174C169.1 146.682 168.564 147.046 167.952 147.21L162.993 148.539C162.624 148.638 162.241 148.417 162.142 148.048C162.043 147.679 162.264 147.296 162.633 147.197L165.916 146.318C166.582 146.139 167.08 145.516 167.013 144.829C166.927 143.953 166.086 143.397 165.268 143.616L158.56 145.413C157.428 145.716 156.439 146.399 155.749 147.348L154.223 149.451L151.901 150.073C151.532 150.172 151.311 150.555 151.41 150.924L152.488 154.948C152.587 155.317 152.97 155.538 153.339 155.439L168.297 151.431C168.905 151.268 169.441 150.905 169.817 150.395L174.796 143.624C175.298 142.946 175.087 141.96 174.302 141.559Z" fill="black" fill-opacity="0.1"/>
</g>
<g clip-path="url(#clip27_1722_47409)">
<path d="M202.225 118.301C195.62 120.07 191.795 126.269 193.542 132.788C194.456 136.198 196.647 138.77 199.473 140.194C199.962 140.443 199.936 140.67 200.589 142.839C200.635 142.99 200.718 143.129 200.83 143.241C200.942 143.354 201.079 143.437 201.231 143.484C201.383 143.531 201.543 143.54 201.699 143.511C201.855 143.481 202.002 143.414 202.126 143.315C204.327 141.547 204.335 141.452 204.789 141.454C212.552 141.506 219.149 134.78 216.936 126.52C215.189 120 208.83 116.531 202.225 118.301Z" fill="black" fill-opacity="0.1"/>
</g>
<g clip-path="url(#clip28_1722_47409)">
<path d="M248.799 118.358C252.134 117.464 254.112 114.038 253.218 110.703C252.325 107.369 248.898 105.39 245.564 106.284C242.229 107.177 240.251 110.604 241.144 113.938C242.038 117.273 245.465 119.251 248.799 118.358ZM253.729 118.685L253.894 128.316L250.666 122.306L251.467 119.26L246.94 120.474L249.157 122.71L249.366 129.529L244.693 121.106C241.373 122.167 239.426 125.636 240.337 129.037L240.863 130.999C241.198 132.249 242.484 132.991 243.733 132.656L260.335 128.208C261.585 127.873 262.327 126.587 261.993 125.337L261.467 123.375C260.556 119.974 257.135 117.944 253.729 118.685Z" fill="black" fill-opacity="0.1"/>
</g>
<g clip-path="url(#clip29_1722_47409)">
<path d="M303.968 105.557L296.368 99.1774C295.075 98.0947 293.396 97.7808 291.887 98.1852C290.939 98.439 290.055 98.9772 289.373 99.7888C288.703 100.589 288.329 101.542 288.238 102.51C287.45 100.057 284.887 98.623 282.371 99.297C279.776 99.9923 278.239 102.656 278.934 105.251L281.45 114.642C282.146 117.237 284.809 118.774 287.404 118.079C289.999 117.384 291.537 114.72 290.841 112.125L289.166 105.874C289.401 106.198 289.664 106.509 289.984 106.779L297.588 113.157C298.876 114.241 300.555 114.555 302.069 114.149C303.02 113.894 303.901 113.357 304.582 112.546C306.343 110.447 306.066 107.318 303.968 105.557ZM286.9 108.149L282.875 109.227L281.617 104.532C281.319 103.421 281.979 102.278 283.09 101.98C284.201 101.682 285.344 102.342 285.642 103.453L286.9 108.149ZM295.571 107.843L291.768 104.651C291.322 104.277 291.046 103.749 290.998 103.168C290.946 102.589 291.126 102.02 291.501 101.573C291.79 101.226 292.174 100.984 292.606 100.868C293.298 100.683 294.033 100.845 294.579 101.306L298.382 104.497L295.571 107.843Z" fill="black" fill-opacity="0.1"/>
</g>
<g clip-path="url(#clip30_1722_47409)">
<path d="M346.058 87.9838C346.494 87.867 346.702 87.3708 346.484 86.9754L344.4 83.2203C344.244 82.9429 343.92 82.8052 343.614 82.8872L339.467 83.9981L341.979 89.0768L346.058 87.9838ZM332.546 85.8528L328.333 86.9818L328.697 92.6356L333.984 91.219L332.546 85.8528ZM338.101 84.3644L333.887 85.4933L335.325 90.8596L340.612 89.443L338.101 84.3644ZM323.251 94.0948L327.33 93.0018L326.966 87.348L322.82 88.459C322.513 88.541 322.301 88.8225 322.306 89.1404L322.378 93.4346C322.387 93.8862 322.815 94.2116 323.251 94.0948ZM346.777 90.6669L345.938 90.8916L345.747 89.5051L324.281 95.2566L324.809 96.5533L323.97 96.7779C323.601 96.8768 323.38 97.2595 323.479 97.6285L323.839 98.97C323.937 99.339 324.32 99.5599 324.689 99.4611L325.863 99.1465L328.499 105.63L328.679 106.3C328.777 106.669 329.16 106.89 329.529 106.792L330.871 106.432C331.24 106.333 331.461 105.95 331.362 105.582L331.182 104.911L344.598 101.316L344.777 101.987C344.876 102.356 345.259 102.577 345.628 102.478L346.969 102.118C347.338 102.02 347.559 101.637 347.46 101.268L347.281 100.597L346.322 93.6646L347.496 93.3501C347.865 93.2512 348.086 92.8685 347.987 92.4995L347.627 91.158C347.528 90.7891 347.146 90.5681 346.777 90.6669Z" fill="black" fill-opacity="0.1"/>
</g>
<g clip-path="url(#clip31_1722_47409)">
<path d="M376.092 71.7134C369.487 73.4831 365.662 79.6813 367.409 86.2008C368.323 89.6108 370.514 92.1822 373.34 93.6067C373.829 93.8553 373.803 94.0822 374.456 96.2513C374.502 96.4031 374.585 96.5412 374.697 96.6537C374.809 96.7661 374.947 96.8495 375.098 96.8964C375.25 96.9434 375.411 96.9526 375.566 96.9232C375.722 96.8937 375.869 96.8266 375.993 96.7276C378.194 94.9601 378.203 94.8647 378.657 94.8664C386.42 94.919 393.016 88.1925 390.803 79.9326C389.056 73.413 382.697 69.9437 376.092 71.7134Z" fill="black" fill-opacity="0.1"/>
</g>
<g clip-path="url(#clip32_1722_47409)">
<path d="M222.477 162.293C223.103 162.125 223.474 161.482 223.306 160.857L223.104 160.103C222.936 159.477 222.294 159.106 221.669 159.274L205.821 163.52C205.196 163.688 204.825 164.33 204.993 164.955L205.195 165.71C205.362 166.335 206.005 166.706 206.63 166.539C207.78 170.829 211.156 173.805 214.756 174.067C211.769 176.094 210.333 180.36 211.483 184.65C210.858 184.817 210.487 185.46 210.654 186.085L210.857 186.84C211.024 187.465 211.667 187.836 212.292 187.668L228.139 183.422C228.764 183.255 229.135 182.612 228.968 181.987L228.766 181.232C228.598 180.607 227.955 180.236 227.33 180.404C226.181 176.113 222.804 173.137 219.204 172.875C222.191 170.848 223.627 166.583 222.477 162.293ZM216.374 171.207C213.648 171.938 210.628 169.384 209.649 165.73L219.459 163.101C220.444 166.778 219.085 170.481 216.374 171.207Z" fill="black" fill-opacity="0.1"/>
</g>
<g clip-path="url(#clip33_1722_47409)">
<path d="M259.853 161.736C260.23 161.968 260.707 161.84 260.922 161.45L264.205 155.439C265.156 153.692 264.463 151.407 262.635 150.521C261.044 149.748 259.174 150.465 258.324 152.023L257.986 152.639L257.39 152.277C255.874 151.349 253.896 151.663 252.905 153.129C251.769 154.808 252.307 157.135 254.005 158.172L259.853 161.736ZM272.883 161.732C272.268 161.416 271.504 161.652 271.097 162.211L268.053 166.347C267.681 166.855 267.145 167.219 266.533 167.383L261.574 168.712C261.205 168.811 260.822 168.59 260.723 168.221C260.624 167.852 260.845 167.469 261.214 167.37L264.497 166.491C265.163 166.312 265.662 165.689 265.594 165.002C265.508 164.126 264.667 163.569 263.849 163.789L257.141 165.586C256.009 165.889 255.02 166.572 254.33 167.521L252.804 169.624L250.482 170.246C250.113 170.345 249.892 170.728 249.991 171.097L251.069 175.121C251.168 175.49 251.551 175.711 251.92 175.612L266.878 171.604C267.486 171.441 268.022 171.078 268.398 170.568L273.377 163.797C273.879 163.119 273.668 162.133 272.883 161.732Z" fill="black" fill-opacity="0.1"/>
</g>
<g clip-path="url(#clip34_1722_47409)">
<path d="M314.238 143.097C314.674 142.98 314.883 142.484 314.665 142.089L312.58 138.334C312.425 138.056 312.1 137.919 311.794 138.001L307.648 139.112L310.159 144.19L314.238 143.097ZM300.727 140.966L296.513 142.095L296.878 147.749L302.164 146.333L300.727 140.966ZM306.281 139.478L302.068 140.607L303.506 145.973L308.793 144.557L306.281 139.478ZM291.432 149.208L295.511 148.115L295.146 142.461L291 143.572C290.694 143.654 290.482 143.936 290.486 144.254L290.559 148.548C290.567 149 290.996 149.325 291.432 149.208ZM314.957 145.78L314.119 146.005L313.927 144.619L292.462 150.37L292.989 151.667L292.151 151.891C291.782 151.99 291.561 152.373 291.66 152.742L292.019 154.084C292.118 154.452 292.501 154.673 292.87 154.575L294.044 154.26L296.679 160.743L296.859 161.414C296.958 161.783 297.341 162.004 297.71 161.905L299.051 161.546C299.42 161.447 299.641 161.064 299.542 160.695L299.363 160.024L312.778 156.43L312.958 157.1C313.057 157.469 313.44 157.69 313.809 157.591L315.15 157.232C315.519 157.133 315.74 156.75 315.641 156.381L315.461 155.711L314.503 148.778L315.676 148.464C316.045 148.365 316.266 147.982 316.167 147.613L315.808 146.271C315.709 145.903 315.326 145.682 314.957 145.78Z" fill="black" fill-opacity="0.1"/>
</g>
<g clip-path="url(#clip35_1722_47409)">
<path d="M352.878 127.352C353.503 127.184 353.874 126.542 353.706 125.917L353.504 125.162C353.337 124.537 352.694 124.166 352.069 124.333L336.222 128.58C335.597 128.747 335.226 129.39 335.393 130.015L335.595 130.77C335.763 131.395 336.405 131.766 337.031 131.598C338.18 135.889 341.556 138.865 345.156 139.127C342.17 141.154 340.734 145.419 341.883 149.709C341.258 149.877 340.887 150.519 341.055 151.145L341.257 151.899C341.425 152.524 342.067 152.895 342.692 152.728L358.539 148.482C359.165 148.314 359.536 147.672 359.368 147.046L359.166 146.292C358.998 145.667 358.356 145.296 357.731 145.463C356.581 141.173 353.205 138.197 349.605 137.935C352.591 135.908 354.027 131.642 352.878 127.352ZM346.774 136.267C344.049 136.997 341.028 134.444 340.049 130.789L349.859 128.161C350.844 131.837 349.486 135.54 346.774 136.267Z" fill="black" fill-opacity="0.1"/>
</g>
<g clip-path="url(#clip36_1722_47409)">
<path d="M402.549 125.73L394.949 119.35C393.656 118.268 391.977 117.954 390.468 118.358C389.52 118.612 388.636 119.15 387.954 119.962C387.284 120.762 386.91 121.715 386.819 122.683C386.031 120.23 383.468 118.796 380.952 119.47C378.357 120.165 376.82 122.828 377.515 125.424L380.031 134.815C380.727 137.41 383.39 138.947 385.985 138.252C388.58 137.556 390.118 134.893 389.422 132.298L387.747 126.047C387.982 126.371 388.245 126.682 388.565 126.952L396.169 133.33C397.457 134.414 399.136 134.728 400.65 134.322C401.602 134.067 402.482 133.53 403.163 132.719C404.924 130.62 404.647 127.491 402.549 125.73ZM385.481 128.322L381.456 129.4L380.198 124.705C379.9 123.594 380.56 122.451 381.671 122.153C382.782 121.855 383.925 122.515 384.223 123.626L385.481 128.322ZM394.152 128.016L390.349 124.824C389.903 124.45 389.627 123.922 389.579 123.341C389.527 122.762 389.707 122.193 390.082 121.746C390.371 121.399 390.755 121.157 391.187 121.041C391.879 120.856 392.614 121.018 393.16 121.479L396.963 124.67L394.152 128.016Z" fill="black" fill-opacity="0.1"/>
</g>
<g clip-path="url(#clip37_1722_47409)">
<path d="M399.386 158.647C392.781 160.416 388.956 166.615 390.703 173.134C391.617 176.544 393.808 179.116 396.634 180.54C397.123 180.789 397.097 181.016 397.75 183.185C397.796 183.336 397.879 183.475 397.991 183.587C398.103 183.699 398.241 183.783 398.392 183.83C398.544 183.877 398.704 183.886 398.86 183.856C399.016 183.827 399.163 183.76 399.287 183.661C401.488 181.893 401.497 181.798 401.95 181.8C409.713 181.852 416.31 175.126 414.097 166.866C412.35 160.346 405.991 156.877 399.386 158.647Z" fill="black" fill-opacity="0.1"/>
</g>
<defs>
<clipPath id="clip0_1722_47409">
<rect width="25" height="25" fill="white" transform="translate(-18.7832 37.3531) rotate(-15)"/>
</clipPath>
<clipPath id="clip1_1722_47409">
<rect width="25" height="25" fill="white" transform="translate(24.6836 25.7063) rotate(-15)"/>
</clipPath>
<clipPath id="clip2_1722_47409">
<rect width="25" height="25" fill="white" transform="translate(68.1504 14.0594) rotate(-15)"/>
</clipPath>
<clipPath id="clip3_1722_47409">
<rect width="25" height="25" fill="white" transform="translate(111.616 2.41257) rotate(-15)"/>
</clipPath>
<clipPath id="clip4_1722_47409">
<rect width="25" height="25" fill="white" transform="translate(155.083 -9.23428) rotate(-15)"/>
</clipPath>
<clipPath id="clip5_1722_47409">
<rect width="25" height="25" fill="white" transform="translate(198.55 -20.8811) rotate(-15)"/>
</clipPath>
<clipPath id="clip6_1722_47409">
<rect width="25" height="25" fill="white" transform="translate(-7.13672 80.8198) rotate(-15)"/>
</clipPath>
<clipPath id="clip7_1722_47409">
<rect width="25" height="25" fill="white" transform="translate(36.3301 69.173) rotate(-15)"/>
</clipPath>
<clipPath id="clip8_1722_47409">
<rect width="25" height="25" fill="white" transform="translate(79.7969 57.5261) rotate(-15)"/>
</clipPath>
<clipPath id="clip9_1722_47409">
<rect width="25" height="25" fill="white" transform="translate(123.263 45.8792) rotate(-15)"/>
</clipPath>
<clipPath id="clip10_1722_47409">
<rect width="25" height="25" fill="white" transform="translate(166.729 34.2324) rotate(-15)"/>
</clipPath>
<clipPath id="clip11_1722_47409">
<rect width="25" height="25" fill="white" transform="translate(210.196 22.5855) rotate(-15)"/>
</clipPath>
<clipPath id="clip12_1722_47409">
<rect width="25" height="25" fill="white" transform="translate(253.663 10.9387) rotate(-15)"/>
</clipPath>
<clipPath id="clip13_1722_47409">
<rect width="25" height="25" fill="white" transform="translate(297.13 -0.70816) rotate(-15)"/>
</clipPath>
<clipPath id="clip14_1722_47409">
<rect width="25" height="25" fill="white" transform="translate(340.597 -12.355) rotate(-15)"/>
</clipPath>
<clipPath id="clip15_1722_47409">
<rect width="25" height="25" fill="white" transform="translate(4.51074 124.286) rotate(-15)"/>
</clipPath>
<clipPath id="clip16_1722_47409">
<rect width="25" height="25" fill="white" transform="translate(47.9775 112.64) rotate(-15)"/>
</clipPath>
<clipPath id="clip17_1722_47409">
<rect width="25" height="25" fill="white" transform="translate(91.4443 100.993) rotate(-15)"/>
</clipPath>
<clipPath id="clip18_1722_47409">
<rect width="25" height="25" fill="white" transform="translate(134.91 89.3459) rotate(-15)"/>
</clipPath>
<clipPath id="clip19_1722_47409">
<rect width="25" height="25" fill="white" transform="translate(178.377 77.699) rotate(-15)"/>
</clipPath>
<clipPath id="clip20_1722_47409">
<rect width="25" height="25" fill="white" transform="translate(221.844 66.0522) rotate(-15)"/>
</clipPath>
<clipPath id="clip21_1722_47409">
<rect width="25" height="25" fill="white" transform="translate(265.311 54.4053) rotate(-15)"/>
</clipPath>
<clipPath id="clip22_1722_47409">
<rect width="25" height="25" fill="white" transform="translate(308.777 42.7585) rotate(-15)"/>
</clipPath>
<clipPath id="clip23_1722_47409">
<rect width="25" height="25" fill="white" transform="translate(352.244 31.1116) rotate(-15)"/>
</clipPath>
<clipPath id="clip24_1722_47409">
<rect width="25" height="25" fill="white" transform="translate(59.624 156.106) rotate(-15)"/>
</clipPath>
<clipPath id="clip25_1722_47409">
<rect width="25" height="25" fill="white" transform="translate(103.091 144.459) rotate(-15)"/>
</clipPath>
<clipPath id="clip26_1722_47409">
<rect width="25" height="25" fill="white" transform="translate(146.557 132.813) rotate(-15)"/>
</clipPath>
<clipPath id="clip27_1722_47409">
<rect width="25" height="25" fill="white" transform="translate(190.023 121.166) rotate(-15)"/>
</clipPath>
<clipPath id="clip28_1722_47409">
<rect width="25" height="25" fill="white" transform="translate(233.49 109.519) rotate(-15)"/>
</clipPath>
<clipPath id="clip29_1722_47409">
<rect width="25" height="25" fill="white" transform="translate(276.957 97.872) rotate(-15)"/>
</clipPath>
<clipPath id="clip30_1722_47409">
<rect width="25" height="25" fill="white" transform="translate(320.424 86.2252) rotate(-15)"/>
</clipPath>
<clipPath id="clip31_1722_47409">
<rect width="25" height="25" fill="white" transform="translate(363.891 74.5783) rotate(-15)"/>
</clipPath>
<clipPath id="clip32_1722_47409">
<rect width="25" height="25" fill="white" transform="translate(201.671 164.632) rotate(-15)"/>
</clipPath>
<clipPath id="clip33_1722_47409">
<rect width="25" height="25" fill="white" transform="translate(245.138 152.986) rotate(-15)"/>
</clipPath>
<clipPath id="clip34_1722_47409">
<rect width="25" height="25" fill="white" transform="translate(288.604 141.339) rotate(-15)"/>
</clipPath>
<clipPath id="clip35_1722_47409">
<rect width="25" height="25" fill="white" transform="translate(332.071 129.692) rotate(-15)"/>
</clipPath>
<clipPath id="clip36_1722_47409">
<rect width="25" height="25" fill="white" transform="translate(375.538 118.045) rotate(-15)"/>
</clipPath>
<clipPath id="clip37_1722_47409">
<rect width="25" height="25" fill="white" transform="translate(387.185 161.512) rotate(-15)"/>
</clipPath>
</defs>
</svg>
