<svg width="396" height="161" viewBox="0 0 396 161" fill="none" xmlns="http://www.w3.org/2000/svg">
<g clip-path="url(#clip0_1722_49239)">
<path d="M5.35676 -9.54129C3.75846 -9.11302 2.80718 -7.46536 3.23544 -5.86705L7.11773 8.62183C7.54599 10.2201 9.19366 11.1714 10.792 10.7432L25.2808 6.86087C26.8792 6.4326 27.8304 4.78494 27.4022 3.18663L23.5199 -11.3023C23.0916 -12.9006 21.444 -13.8518 19.8456 -13.4236L5.35676 -9.54129ZM10.5839 -1.62441C11.3853 -1.83915 12.2063 -1.36517 12.421 -0.563753L13.5857 3.78291C13.8005 4.58433 13.3265 5.40529 12.5251 5.62003C11.7236 5.83477 10.9027 5.36079 10.6879 4.55937L9.52325 0.212704C9.30851 -0.588712 9.78249 -1.40967 10.5839 -1.62441ZM12.7052 -5.29865C12.4905 -6.10006 12.9645 -6.92103 13.7659 -7.13577C14.5673 -7.3505 15.3883 -6.87652 15.603 -6.07511L17.9324 2.61823C18.1471 3.41964 17.6731 4.24061 16.8717 4.45534C16.0703 4.67008 15.2493 4.1961 15.0346 3.39468L12.7052 -5.29865ZM20.0537 -1.05601C20.8551 -1.27075 21.6761 -0.796763 21.8908 0.00465271L22.279 1.45354C22.4938 2.25496 22.0198 3.07592 21.2184 3.29066C20.417 3.5054 19.596 3.03141 19.3813 2.23L18.993 0.78111C18.7783 -0.0203064 19.2523 -0.841269 20.0537 -1.05601Z" fill="black" fill-opacity="0.1"/>
</g>
<g clip-path="url(#clip1_1722_49239)">
<path d="M48.3421 -19.1183C48.6303 -19.1955 48.9374 -19.1551 49.1958 -19.0059C49.4542 -18.8567 49.6428 -18.611 49.72 -18.3228C49.7972 -18.0346 49.7568 -17.7275 49.6076 -17.4691C49.4584 -17.2107 49.2127 -17.0222 48.9245 -16.945C48.6363 -16.8678 48.3292 -16.9082 48.0708 -17.0574C47.8124 -17.2066 47.6239 -17.4523 47.5466 -17.7405C47.4694 -18.0287 47.5099 -18.3357 47.659 -18.5941C47.8082 -18.8525 48.0539 -19.0411 48.3421 -19.1183ZM50.9715 -15.101C52.1036 -16.0013 52.6535 -17.5171 52.2555 -19.0022C51.7193 -21.0035 49.664 -22.1901 47.6627 -21.6539C45.6615 -21.1176 44.4749 -19.0624 45.0111 -17.0611C45.409 -15.576 46.6431 -14.5381 48.0737 -14.3246L48.7373 -11.8479L45.8396 -11.0714C45.0381 -10.8567 44.5642 -10.0357 44.7789 -9.23429C44.9936 -8.43287 45.8146 -7.95889 46.616 -8.17363L58.2071 -11.2795L58.8708 -8.80276C57.7386 -7.9025 57.1888 -6.38667 57.5867 -4.90156C58.123 -2.90028 60.1782 -1.71367 62.1795 -2.24991C64.1808 -2.78615 65.3674 -4.84142 64.8312 -6.8427C64.4332 -8.32781 63.1991 -9.36564 61.7685 -9.57922L61.1049 -12.0559L72.696 -15.1617C73.4974 -15.3765 73.9714 -16.1974 73.7567 -16.9989C73.5419 -17.8003 72.721 -18.2743 71.9196 -18.0595L69.0218 -17.2831L68.3582 -19.7598C69.4903 -20.66 70.0401 -22.1758 69.6422 -23.661C69.106 -25.6622 67.0507 -26.8488 65.0494 -26.3126C63.0481 -25.7764 61.8615 -23.7211 62.3978 -21.7198C62.7957 -20.2347 64.0298 -19.1969 65.4604 -18.9833L66.124 -16.5066L51.6351 -12.6243L50.9715 -15.101ZM64.9333 -22.3992C64.8561 -22.6874 64.8965 -22.9945 65.0457 -23.2529C65.1949 -23.5113 65.4406 -23.6998 65.7288 -23.7771C66.017 -23.8543 66.3241 -23.8139 66.5825 -23.6647C66.8409 -23.5155 67.0294 -23.2698 67.1066 -22.9816C67.1839 -22.6934 67.1434 -22.3863 66.9943 -22.1279C66.8451 -21.8695 66.5994 -21.6809 66.3111 -21.6037C66.0229 -21.5265 65.7159 -21.5669 65.4575 -21.7161C65.1991 -21.8653 65.0105 -22.111 64.9333 -22.3992ZM60.9178 -6.9588C61.206 -7.03602 61.513 -6.99559 61.7714 -6.84641C62.0298 -6.69722 62.2184 -6.4515 62.2956 -6.1633C62.3728 -5.8751 62.3324 -5.56802 62.1832 -5.30963C62.034 -5.05123 61.7883 -4.86269 61.5001 -4.78546C61.2119 -4.70824 60.9048 -4.74867 60.6464 -4.89785C60.388 -5.04703 60.1995 -5.29276 60.1223 -5.58096C60.045 -5.86916 60.0855 -6.17623 60.2347 -6.43463C60.3838 -6.69302 60.6296 -6.88157 60.9178 -6.9588Z" fill="black" fill-opacity="0.1"/>
</g>
<g clip-path="url(#clip2_1722_49239)">
<path d="M-14.4765 40.6453C-14.8499 40.2116 -15.4419 40.0305 -15.9988 40.1797C-16.5558 40.3289 -16.9734 40.7806 -17.0845 41.3441L-18.3907 48.1145L-24.6354 50.8165C-25.1569 51.0436 -25.5078 51.5453 -25.5358 52.1109C-25.5638 52.6764 -25.2739 53.2151 -24.7814 53.4956L-18.8126 56.8996L-18.1588 63.795C-18.1038 64.3626 -17.7294 64.8543 -17.195 65.0557C-16.6606 65.257 -16.0565 65.1389 -15.6367 64.7498L-10.6586 60.0917L-4.0184 61.6366C-3.46025 61.7637 -2.87682 61.5686 -2.51592 61.1224C-2.15502 60.6763 -2.07543 60.0678 -2.31157 59.5487L-5.19758 53.2514L-1.73046 47.3191C-1.4442 46.8299 -1.45792 46.2173 -1.76949 45.7427C-2.08107 45.2681 -2.63122 45.0079 -3.1964 45.072L-9.96001 45.8555L-14.4765 40.6453Z" fill="black" fill-opacity="0.1"/>
</g>
<g clip-path="url(#clip3_1722_49239)">
<path d="M17.0046 33.1904C16.8338 33.042 16.7122 32.8417 16.6539 32.6243C16.4889 32.0086 16.8535 31.377 17.4693 31.212L22.4182 29.886C22.9253 29.7501 23.4723 29.8899 23.8468 30.2554L28.3326 34.5905C26.2242 35.4515 24.5457 36.9931 23.4963 38.8903L17.0046 33.1904ZM39.811 27.0794L37.0434 35.2604C35.186 34.1421 32.9616 33.6462 30.7052 33.9548L32.4224 27.9576C32.5686 27.4525 32.9679 27.0592 33.475 26.9233L38.4239 25.5973C39.0396 25.4323 39.6711 25.7969 39.8361 26.4127C39.8944 26.63 39.8892 26.8643 39.8155 27.0782L39.811 27.0794ZM24.0541 45.7533C23.4878 43.6398 23.7843 41.3879 24.8783 39.493C25.9723 37.5981 27.7742 36.2154 29.8877 35.6491C32.0012 35.0828 34.2531 35.3793 36.148 36.4733C38.0429 37.5673 39.4256 39.3693 39.9919 41.4827C40.5582 43.5962 40.2617 45.8481 39.1677 47.743C38.0737 49.6379 36.2717 51.0206 34.1582 51.5869C32.0448 52.1532 29.7929 51.8567 27.898 50.7627C26.0031 49.6687 24.6204 47.8667 24.0541 45.7533ZM31.252 39.2192C31.0131 38.9435 30.5649 39.0636 30.4913 39.4231L30.0279 41.7504C29.9985 41.8942 29.9038 42.0118 29.7728 42.0663L27.5884 43.0058C27.2531 43.149 27.2313 43.6111 27.5471 43.7934L29.6202 44.9558C29.7465 45.0287 29.8281 45.1524 29.8431 45.2988L30.0591 47.6625C30.0925 48.0224 30.5263 48.1925 30.795 47.9458L32.5371 46.3337C32.6424 46.2376 32.7918 46.1975 32.931 46.2282L35.2458 46.7532C35.6019 46.8325 35.8938 46.4728 35.7415 46.14L34.7467 43.9849C34.6877 43.8552 34.6953 43.7027 34.7682 43.5764L35.9824 41.5331C36.1704 41.2207 35.916 40.8327 35.5528 40.8718L33.1958 41.1491C33.0551 41.1674 32.9086 41.1096 32.817 41.0031L31.252 39.2192Z" fill="black" fill-opacity="0.1"/>
</g>
<g clip-path="url(#clip4_1722_49239)">
<path d="M67.0719 21.8035C66.7504 20.6037 67.463 19.3694 68.6629 19.0479L70.1118 18.6596C71.3116 18.3381 72.546 19.0508 72.8675 20.2506L77.138 36.1884C77.4595 37.3883 76.7468 38.6226 75.547 38.9441L74.0981 39.3323C72.8982 39.6538 71.6639 38.9412 71.3424 37.7413L67.0719 21.8035ZM62.1568 32.438C61.8353 31.2382 62.548 30.0038 63.7478 29.6823L65.1967 29.2941C66.3966 28.9726 67.6309 29.6852 67.9524 30.8851L69.8935 38.1295C70.215 39.3294 69.5024 40.5637 68.3025 40.8852L66.8537 41.2734C65.6538 41.595 64.4195 40.8823 64.098 39.6825L62.1568 32.438ZM76.6838 20.0045L78.1327 19.6163C79.3325 19.2948 80.5669 20.0074 80.8884 21.2073L84.3824 34.2473C84.7039 35.4471 83.9913 36.6814 82.7914 37.0029L81.3425 37.3912C80.1427 37.7127 78.9084 37 78.5869 35.8002L75.0928 22.7602C74.7713 21.5603 75.4839 20.326 76.6838 20.0045Z" fill="black" fill-opacity="0.1"/>
</g>
<g clip-path="url(#clip5_1722_49239)">
<path d="M105.129 11.2179C105.417 11.1407 105.725 11.1811 105.983 11.3303C106.241 11.4795 106.43 11.7252 106.507 12.0134C106.584 12.3016 106.544 12.6087 106.395 12.8671C106.246 13.1255 106 13.314 105.712 13.3913C105.423 13.4685 105.116 13.4281 104.858 13.2789C104.6 13.1297 104.411 12.884 104.334 12.5958C104.257 12.3076 104.297 12.0005 104.446 11.7421C104.595 11.4837 104.841 11.2952 105.129 11.2179ZM107.759 15.2352C108.891 14.335 109.441 12.8191 109.043 11.334C108.506 9.33275 106.451 8.14614 104.45 8.68238C102.449 9.21862 101.262 11.2739 101.798 13.2752C102.196 14.7603 103.43 15.7981 104.861 16.0117L105.524 18.4884L102.627 19.2648C101.825 19.4796 101.351 20.3005 101.566 21.102C101.781 21.9034 102.602 22.3774 103.403 22.1626L114.994 19.0568L115.658 21.5335C114.526 22.4337 113.976 23.9496 114.374 25.4347C114.91 27.436 116.965 28.6226 118.967 28.0863C120.968 27.5501 122.155 25.4948 121.618 23.4935C121.22 22.0084 119.986 20.9706 118.556 20.757L117.892 18.2803L129.483 15.1745C130.285 14.9598 130.759 14.1388 130.544 13.3374C130.329 12.536 129.508 12.062 128.707 12.2767L125.809 13.0532L125.145 10.5765C126.277 9.67623 126.827 8.16039 126.429 6.67528C125.893 4.67401 123.838 3.48739 121.837 4.02363C119.835 4.55987 118.649 6.61515 119.185 8.61643C119.583 10.1015 120.817 11.1394 122.247 11.3529L122.911 13.8296L108.422 17.7119L107.759 15.2352ZM121.72 7.93703C121.643 7.64882 121.684 7.34175 121.833 7.08335C121.982 6.82496 122.228 6.63641 122.516 6.55919C122.804 6.48197 123.111 6.52239 123.37 6.67158C123.628 6.82076 123.817 7.06648 123.894 7.35468C123.971 7.64289 123.931 7.94996 123.781 8.20835C123.632 8.46675 123.386 8.6553 123.098 8.73252C122.81 8.80975 122.503 8.76932 122.245 8.62013C121.986 8.47095 121.798 8.22523 121.72 7.93703ZM117.705 23.3774C117.993 23.3002 118.3 23.3407 118.559 23.4898C118.817 23.639 119.005 23.8847 119.083 24.1729C119.16 24.4611 119.12 24.7682 118.97 25.0266C118.821 25.285 118.575 25.4736 118.287 25.5508C117.999 25.628 117.692 25.5876 117.434 25.4384C117.175 25.2892 116.987 25.0435 116.909 24.7553C116.832 24.4671 116.873 24.16 117.022 23.9016C117.171 23.6432 117.417 23.4547 117.705 23.3774Z" fill="black" fill-opacity="0.1"/>
</g>
<g clip-path="url(#clip6_1722_49239)">
<path d="M168.877 -7.80458C168.721 -8.38866 168.226 -8.82378 167.622 -8.90458C167.018 -8.98538 166.431 -8.6924 166.125 -8.16875L164.681 -5.66115C163.09 -2.90548 160.47 -0.893174 157.396 -0.0694019L157.002 0.0361477L155.553 0.424376L151.206 1.58906C149.608 2.01733 148.657 3.66499 149.085 5.2633L150.25 9.60996C150.678 11.2083 152.326 12.1595 153.924 11.7313L155.477 17.5268C155.692 18.3283 156.512 18.8022 157.314 18.5875L160.212 17.811C161.013 17.5963 161.487 16.7753 161.272 15.9739L159.719 10.1784L160.113 10.0728C163.188 9.24905 166.463 9.68174 169.219 11.2727L171.722 12.7179C172.25 13.0228 172.903 12.9789 173.385 12.6069C173.868 12.2349 174.081 11.6151 173.923 11.0264L172.132 4.34345C172.868 3.71935 173.187 2.48369 172.848 1.22044C172.51 -0.0428051 171.616 -0.953317 170.667 -1.1261L168.877 -7.80458ZM166.91 -3.55531L168.503 2.38966L170.096 8.33463C166.784 6.62564 162.95 6.2069 159.337 7.17504L158.943 7.28059L157.778 2.93393L158.172 2.82838C161.785 1.86023 164.897 -0.419582 166.91 -3.55531Z" fill="black" fill-opacity="0.1"/>
</g>
<g clip-path="url(#clip7_1722_49239)">
<path d="M192.543 -14.1457C190.945 -13.7174 189.994 -12.0697 190.422 -10.4714L194.304 4.01746C194.733 5.61577 196.38 6.56705 197.978 6.13878L212.467 2.2565C214.066 1.82823 215.017 0.180569 214.589 -1.41774L210.706 -15.9066C210.278 -17.5049 208.63 -18.4562 207.032 -18.0279L192.543 -14.1457ZM197.77 -6.22878C198.572 -6.44352 199.393 -5.96954 199.608 -5.16812L200.772 -0.821457C200.987 -0.0200411 200.513 0.800921 199.712 1.01566C198.91 1.2304 198.089 0.756416 197.874 -0.0450002L196.71 -4.39167C196.495 -5.19308 196.969 -6.01404 197.77 -6.22878ZM199.892 -9.90302C199.677 -10.7044 200.151 -11.5254 200.952 -11.7401C201.754 -11.9549 202.575 -11.4809 202.79 -10.6795L205.119 -1.98614C205.334 -1.18473 204.86 -0.363765 204.058 -0.149026C203.257 0.0657131 202.436 -0.40827 202.221 -1.20969L199.892 -9.90302ZM207.24 -5.66038C208.042 -5.87512 208.863 -5.40113 209.077 -4.59972L209.466 -3.15083C209.68 -2.34941 209.206 -1.52845 208.405 -1.31371C207.603 -1.09897 206.783 -1.57296 206.568 -2.37437L206.18 -3.82326C205.965 -4.62468 206.439 -5.44564 207.24 -5.66038Z" fill="black" fill-opacity="0.1"/>
</g>
<g clip-path="url(#clip8_1722_49239)">
<path d="M-6.54138 87.0804C-6.86288 85.8805 -6.15025 84.6462 -4.95039 84.3247L-3.5015 83.9365C-2.30164 83.615 -1.06732 84.3276 -0.745823 85.5275L3.52469 101.465C3.84619 102.665 3.13356 103.899 1.9337 104.221L0.484813 104.609C-0.715048 104.931 -1.94936 104.218 -2.27086 103.018L-6.54138 87.0804ZM-11.4564 97.7149C-11.778 96.515 -11.0653 95.2807 -9.86546 94.9592L-8.41657 94.571C-7.21671 94.2495 -5.9824 94.9621 -5.66089 96.162L-3.71975 103.406C-3.39825 104.606 -4.11088 105.841 -5.31074 106.162L-6.75963 106.55C-7.95949 106.872 -9.19381 106.159 -9.51531 104.959L-11.4564 97.7149ZM3.07051 85.2814L4.5194 84.8931C5.71926 84.5716 6.95358 85.2843 7.27508 86.4841L10.7691 99.5241C11.0906 100.724 10.378 101.958 9.17814 102.28L7.72926 102.668C6.5294 102.99 5.29508 102.277 4.97358 101.077L1.47952 88.037C1.15802 86.8372 1.87065 85.6029 3.07051 85.2814Z" fill="black" fill-opacity="0.1"/>
</g>
<g clip-path="url(#clip9_1722_49239)">
<path d="M28.1322 75.4602C26.5338 75.8884 25.5826 77.5361 26.0108 79.1344L29.8931 93.6233C30.3214 95.2216 31.969 96.1729 33.5674 95.7446L48.0562 91.8623C49.6545 91.4341 50.6058 89.7864 50.1776 88.1881L46.2953 73.6992C45.867 72.1009 44.2193 71.1496 42.621 71.5779L28.1322 75.4602ZM33.3593 83.3771C34.1607 83.1623 34.9817 83.6363 35.1964 84.4377L36.3611 88.7844C36.5758 89.5858 36.1019 90.4068 35.3004 90.6215C34.499 90.8362 33.6781 90.3623 33.4633 89.5608L32.2986 85.2142C32.0839 84.4128 32.5579 83.5918 33.3593 83.3771ZM35.4806 79.7028C35.2659 78.9014 35.7399 78.0804 36.5413 77.8657C37.3427 77.651 38.1637 78.1249 38.3784 78.9264L40.7078 87.6197C40.9225 88.4211 40.4485 89.2421 39.6471 89.4568C38.8457 89.6715 38.0247 89.1976 37.81 88.3961L35.4806 79.7028ZM42.8291 83.9455C43.6305 83.7307 44.4515 84.2047 44.6662 85.0061L45.0544 86.455C45.2692 87.2564 44.7952 88.0774 43.9938 88.2921C43.1924 88.5069 42.3714 88.0329 42.1567 87.2315L41.7684 85.7826C41.5537 84.9812 42.0277 84.1602 42.8291 83.9455Z" fill="black" fill-opacity="0.1"/>
</g>
<g clip-path="url(#clip10_1722_49239)">
<path d="M71.1175 65.8832C71.4057 65.8059 71.7128 65.8464 71.9712 65.9955C72.2296 66.1447 72.4181 66.3904 72.4954 66.6786C72.5726 66.9669 72.5322 67.2739 72.383 67.5323C72.2338 67.7907 71.9881 67.9793 71.6999 68.0565C71.4117 68.1337 71.1046 68.0933 70.8462 67.9441C70.5878 67.7949 70.3993 67.5492 70.322 67.261C70.2448 66.9728 70.2852 66.6657 70.4344 66.4073C70.5836 66.1489 70.8293 65.9604 71.1175 65.8832ZM73.7469 69.9005C74.879 69.0002 75.4289 67.4844 75.0309 65.9992C74.4947 63.998 72.4394 62.8114 70.4381 63.3476C68.4369 63.8838 67.2502 65.9391 67.7865 67.9404C68.1844 69.4255 69.4185 70.4633 70.8491 70.6769L71.5127 73.1536L68.615 73.9301C67.8135 74.1448 67.3396 74.9658 67.5543 75.7672C67.769 76.5686 68.59 77.0426 69.3914 76.8278L80.9825 73.722L81.6461 76.1987C80.514 77.099 79.9642 78.6148 80.3621 80.0999C80.8983 82.1012 82.9536 83.2878 84.9549 82.7516C86.9562 82.2153 88.1428 80.16 87.6065 78.1588C87.2086 76.6737 85.9745 75.6358 84.5439 75.4222L83.8803 72.9456L95.4714 69.8397C96.2728 69.625 96.7468 68.804 96.5321 68.0026C96.3173 67.2012 95.4964 66.7272 94.6949 66.9419L91.7972 67.7184L91.1335 65.2417C92.2657 64.3415 92.8155 62.8256 92.4176 61.3405C91.8814 59.3392 89.8261 58.1526 87.8248 58.6889C85.8235 59.2251 84.6369 61.2804 85.1731 63.2816C85.5711 64.7668 86.8052 65.8046 88.2358 66.0182L88.8994 68.4949L74.4105 72.3771L73.7469 69.9005ZM87.7087 62.6022C87.6315 62.314 87.6719 62.007 87.8211 61.7486C87.9703 61.4902 88.216 61.3016 88.5042 61.2244C88.7924 61.1472 89.0995 61.1876 89.3579 61.3368C89.6163 61.486 89.8048 61.7317 89.882 62.0199C89.9593 62.3081 89.9188 62.6152 89.7696 62.8736C89.6205 63.132 89.3747 63.3205 89.0865 63.3977C88.7983 63.475 88.4913 63.4345 88.2329 63.2854C87.9745 63.1362 87.7859 62.8905 87.7087 62.6022ZM83.6932 78.0427C83.9814 77.9654 84.2884 78.0059 84.5468 78.1551C84.8052 78.3042 84.9938 78.55 85.071 78.8382C85.1482 79.1264 85.1078 79.4334 84.9586 79.6918C84.8094 79.9502 84.5637 80.1388 84.2755 80.216C83.9873 80.2932 83.6802 80.2528 83.4218 80.1036C83.1634 79.9544 82.9749 79.7087 82.8977 79.4205C82.8204 79.1323 82.8609 78.8252 83.01 78.5668C83.1592 78.3084 83.4049 78.1199 83.6932 78.0427Z" fill="black" fill-opacity="0.1"/>
</g>
<g clip-path="url(#clip11_1722_49239)">
<path d="M129.72 65.3219C129.767 63.7611 130.338 62.2881 130.901 60.8221C131.051 60.4375 131.2 60.0529 131.339 59.6663C131.89 58.1357 131.997 56.4328 131.544 54.744C130.364 50.3385 125.84 47.7266 121.439 48.9058C117.038 50.0851 114.426 54.609 115.605 59.01C116.058 60.6988 117.003 62.1247 118.244 63.1704C118.557 63.4357 118.879 63.6941 119.2 63.9525C120.426 64.9393 121.658 65.9339 122.474 67.2585L129.718 65.3174L129.72 65.3219ZM127.65 72.088C129.652 71.5518 130.838 69.4965 130.302 67.4952L130.108 66.7708L122.863 68.7119L123.057 69.4364C123.594 71.4377 125.649 72.6243 127.65 72.088ZM119.952 57.8453C120.058 58.2437 119.82 58.6571 119.421 58.7638C119.023 58.8706 118.61 58.632 118.503 58.2335C117.752 55.4308 119.412 52.5546 122.215 51.8036C122.614 51.6968 123.027 51.9355 123.134 52.3339C123.24 52.7324 123.002 53.1457 122.603 53.2525C120.602 53.7887 119.415 55.844 119.952 57.8453Z" fill="black" fill-opacity="0.1"/>
</g>
<g clip-path="url(#clip12_1722_49239)">
<path d="M170.421 44.3219C171.6 48.7229 168.341 53.4203 163.138 54.8143C161.409 55.2778 159.687 55.317 158.108 55.0024C157.817 55.2745 157.479 55.5542 157.105 55.8243C156.36 56.3587 155.432 56.8792 154.445 57.1437C154.133 57.2274 153.797 57.0989 153.622 56.8255C153.447 56.5522 153.464 56.1983 153.668 55.9447L153.674 55.9332C153.681 55.9217 153.697 55.9078 153.714 55.8836C153.75 55.8353 153.803 55.7627 153.864 55.6639C153.987 55.4708 154.151 55.1941 154.293 54.8551C154.457 54.4714 154.591 54.028 154.636 53.5645C153.152 52.5547 152.054 51.1166 151.585 49.3689C150.406 44.9679 153.666 40.2705 158.868 38.8765C164.07 37.4826 169.242 39.9209 170.421 44.3219ZM164.579 55.9328C169.772 54.0512 173.232 49.0184 171.87 43.9337C171.807 43.6983 171.735 43.4652 171.655 43.2392C176.611 42.2314 181.379 44.647 182.504 48.8488C182.973 50.5965 182.74 52.3913 181.966 54.0109C182.238 54.3941 182.574 54.7068 182.908 54.957C183.201 55.1795 183.481 55.3374 183.684 55.4431C183.785 55.4937 183.869 55.5344 183.924 55.5585C183.951 55.5705 183.973 55.5793 183.983 55.5814L183.995 55.588C184.298 55.7057 184.489 56.0038 184.474 56.3281C184.459 56.6524 184.233 56.9314 183.921 57.0151C182.934 57.2796 181.87 57.2929 180.958 57.2025C180.499 57.1557 180.062 57.0834 179.678 56.9921C178.462 58.0507 176.951 58.8777 175.222 59.3412C170.893 60.501 166.581 59.0067 164.579 55.9328ZM160.647 41.8939C160.514 41.3958 159.997 41.0975 159.499 41.231C159.001 41.3644 158.702 41.8811 158.836 42.3792L159.006 43.0131C158.682 43.1822 158.371 43.3967 158.104 43.6673C157.575 44.2117 157.208 45.0138 157.468 45.968C157.719 46.8859 158.413 47.3211 159.08 47.5111C159.658 47.6765 160.33 47.7004 160.862 47.7131L160.945 47.7151C161.562 47.7343 162.015 47.7585 162.343 47.8599C162.612 47.9429 162.671 48.034 162.709 48.1596C162.774 48.3848 162.725 48.5436 162.57 48.7066C162.381 48.9076 162.046 49.0895 161.658 49.179C161.15 49.2956 160.637 49.2633 159.965 49.22C159.851 49.2117 159.733 49.2046 159.61 49.1987C159.092 49.1676 158.65 49.5628 158.617 50.0761C158.585 50.5895 158.982 51.0365 159.495 51.0688C159.588 51.0729 159.692 51.0791 159.797 51.0899C160.208 51.1205 160.682 51.1534 161.175 51.1281L161.352 51.7891C161.486 52.2872 162.003 52.5855 162.501 52.452C162.999 52.3186 163.297 51.8019 163.164 51.3038L162.996 50.679C163.338 50.505 163.666 50.2811 163.937 49.99C164.477 49.4136 164.781 48.5943 164.514 47.6517C164.254 46.7362 163.579 46.2813 162.896 46.0665C162.288 45.8801 161.582 45.8555 161.034 45.8375L161 45.8369C160.373 45.8156 159.927 45.7993 159.591 45.7048C159.318 45.6276 159.292 45.5473 159.27 45.4658C159.225 45.2983 159.254 45.1545 159.438 44.9695C159.643 44.7591 159.992 44.5736 160.351 44.4823C160.786 44.3703 161.292 44.3368 161.826 44.3392C162.345 44.3361 162.762 43.9186 162.763 43.399C162.765 42.8793 162.343 42.4635 161.823 42.462C161.508 42.4638 161.162 42.4742 160.811 42.5051L160.647 41.8939Z" fill="black" fill-opacity="0.1"/>
</g>
<g clip-path="url(#clip13_1722_49239)">
<path d="M221.136 34.615C220.83 33.4734 220.303 32.4032 219.583 31.4655C218.864 30.5279 217.967 29.7411 216.943 29.1502C215.919 28.5592 214.79 28.1757 213.618 28.0214C212.446 27.8671 211.255 27.9452 210.114 28.2511C208.972 28.557 207.902 29.0847 206.964 29.8042C206.027 30.5237 205.24 31.4208 204.649 32.4444C204.058 33.4679 203.674 34.5979 203.52 35.7697C203.366 36.9414 203.444 38.1321 203.75 39.2738C204.056 40.4154 204.583 41.4856 205.303 42.4232C206.022 43.3609 206.919 44.1477 207.943 44.7386C208.967 45.3296 210.097 45.7131 211.268 45.8674C212.44 46.0217 213.631 45.9436 214.772 45.6377C215.914 45.3318 216.984 44.8041 217.922 44.0846C218.86 43.3651 219.646 42.4679 220.237 41.4444C220.828 40.4208 221.212 39.2909 221.366 38.1191C221.52 36.9473 221.442 35.7566 221.136 34.615ZM200.852 40.0502C200.028 36.9761 200.459 33.7006 202.051 30.9444C203.642 28.1882 206.263 26.177 209.337 25.3533C212.411 24.5296 215.687 24.9608 218.443 26.5521C221.199 28.1434 223.21 30.7644 224.034 33.8386C224.858 36.9127 224.427 40.1882 222.835 42.9444C221.244 45.7006 218.623 47.7118 215.549 48.5355C212.475 49.3592 209.199 48.928 206.443 47.3367C203.687 45.7454 201.676 43.1244 200.852 40.0502ZM213.414 40.5666C214.374 40.3092 215.193 39.6807 215.691 38.8194C216.188 37.9581 216.323 36.9345 216.065 35.9738C215.808 35.0131 215.179 34.1941 214.318 33.6968C213.457 33.1995 212.433 33.0648 211.472 33.3222C210.512 33.5796 209.693 34.2081 209.195 35.0694C208.698 35.9307 208.563 36.9543 208.821 37.915C209.078 38.8756 209.707 39.6947 210.568 40.192C211.429 40.6893 212.453 40.824 213.414 40.5666ZM210.696 30.4244C212.425 29.961 214.268 30.2036 215.818 31.0987C217.368 31.9938 218.5 33.4681 218.963 35.1974C219.426 36.9266 219.184 38.769 218.289 40.3194C217.394 41.8698 215.919 43.001 214.19 43.4644C212.461 43.9277 210.618 43.6852 209.068 42.7901C207.518 41.895 206.386 40.4206 205.923 38.6914C205.46 36.9622 205.702 35.1198 206.597 33.5694C207.492 32.019 208.967 30.8877 210.696 30.4244ZM210.994 37.3326C210.891 36.9483 210.945 36.5389 211.144 36.1944C211.343 35.8499 211.671 35.5985 212.055 35.4955C212.439 35.3925 212.849 35.4464 213.193 35.6454C213.538 35.8443 213.789 36.1719 213.892 36.5562C213.995 36.9404 213.941 37.3499 213.742 37.6944C213.543 38.0389 213.216 38.2903 212.831 38.3933C212.447 38.4962 212.038 38.4423 211.693 38.2434C211.349 38.0445 211.097 37.7169 210.994 37.3326Z" fill="black" fill-opacity="0.1"/>
</g>
<g clip-path="url(#clip14_1722_49239)">
<path d="M240.896 18.7509C240.725 18.6026 240.604 18.4022 240.546 18.1849C240.381 17.5691 240.745 16.9376 241.361 16.7726L246.31 15.4466C246.817 15.3107 247.364 15.4504 247.738 15.8159L252.224 20.1511C250.116 21.012 248.437 22.5537 247.388 24.4509L240.896 18.7509ZM263.703 12.64L260.935 20.8209C259.078 19.7026 256.853 19.2068 254.597 19.5154L256.314 13.5181C256.46 13.0131 256.859 12.6198 257.367 12.4839L262.315 11.1578C262.931 10.9928 263.563 11.3574 263.728 11.9732C263.786 12.1906 263.781 12.4249 263.707 12.6387L263.703 12.64ZM247.946 31.3138C247.379 29.2003 247.676 26.9484 248.77 25.0535C249.864 23.1587 251.666 21.776 253.779 21.2097C255.893 20.6434 258.145 20.9398 260.04 22.0338C261.934 23.1279 263.317 24.9298 263.883 27.0433C264.45 29.1568 264.153 31.4087 263.059 33.3035C261.965 35.1984 260.163 36.5811 258.05 37.1474C255.936 37.7137 253.684 37.4173 251.79 36.3233C249.895 35.2292 248.512 33.4273 247.946 31.3138ZM255.144 24.7798C254.905 24.5041 254.456 24.6242 254.383 24.9836L253.919 27.311C253.89 27.4547 253.795 27.5723 253.664 27.6268L251.48 28.5664C251.145 28.7096 251.123 29.1716 251.439 29.3539L253.512 30.5163C253.638 30.5893 253.72 30.713 253.735 30.8594L253.951 33.2231C253.984 33.583 254.418 33.753 254.687 33.5063L256.429 31.8943C256.534 31.7981 256.683 31.7581 256.823 31.7887L259.137 32.3137C259.493 32.393 259.785 32.0334 259.633 31.7005L258.638 29.5455C258.579 29.4157 258.587 29.2632 258.66 29.1369L259.874 27.0937C260.062 26.7812 259.808 26.3932 259.444 26.4323L257.087 26.7096C256.947 26.7279 256.8 26.6701 256.709 26.5636L255.144 24.7798Z" fill="black" fill-opacity="0.1"/>
</g>
<g clip-path="url(#clip15_1722_49239)">
<path d="M297.315 2.65331C296.941 2.21956 296.349 2.03849 295.792 2.18772C295.235 2.33694 294.818 2.78856 294.707 3.35212L293.4 10.1225L287.156 12.8245C286.634 13.0516 286.283 13.5533 286.255 14.1189C286.227 14.6844 286.517 15.2231 287.01 15.5036L292.978 18.9076L293.632 25.803C293.687 26.3706 294.062 26.8623 294.596 27.0637C295.13 27.265 295.734 27.1469 296.154 26.7577L301.132 22.0997L307.773 23.6446C308.331 23.7717 308.914 23.5765 309.275 23.1304C309.636 22.6843 309.716 22.0758 309.479 21.5567L306.593 15.2594L310.061 9.32712C310.347 8.83793 310.333 8.22529 310.022 7.7507C309.71 7.2761 309.16 7.01588 308.595 7.07996L301.831 7.86347L297.315 2.65331Z" fill="black" fill-opacity="0.1"/>
</g>
<g clip-path="url(#clip16_1722_49239)">
<path d="M350.268 -10.856C350.111 -11.4401 349.616 -11.8752 349.012 -11.956C348.408 -12.0368 347.822 -11.7438 347.516 -11.2202L346.072 -8.71261C344.481 -5.95693 341.861 -3.94463 338.786 -3.12085L338.392 -3.0153L336.944 -2.62708L332.597 -1.46239C330.999 -1.03413 330.047 0.613539 330.476 2.21184L331.64 6.55851C332.069 8.15682 333.716 9.10809 335.314 8.67983L336.867 14.4754C337.082 15.2768 337.903 15.7508 338.705 15.536L341.602 14.7596C342.404 14.5448 342.878 13.7239 342.663 12.9225L341.11 7.12692L341.504 7.02137C344.578 6.19759 347.853 6.63029 350.609 8.22128L353.112 9.66643C353.64 9.97137 354.293 9.92741 354.776 9.55544C355.259 9.18346 355.471 8.56361 355.314 7.975L353.523 1.292C354.258 0.667895 354.577 -0.567759 354.239 -1.83101C353.9 -3.09426 353.006 -4.00477 352.057 -4.17756L350.268 -10.856ZM348.301 -6.60677L349.893 -0.661794L351.486 5.28318C348.175 3.57419 344.341 3.15544 340.727 4.12359L340.334 4.22914L339.169 -0.117528L339.563 -0.223077C343.176 -1.19122 346.287 -3.47103 348.301 -6.60677Z" fill="black" fill-opacity="0.1"/>
</g>
<g clip-path="url(#clip17_1722_49239)">
<path d="M378.863 -16.1884C378.541 -17.3883 379.254 -18.6226 380.454 -18.9441L381.903 -19.3323C383.103 -19.6538 384.337 -18.9412 384.658 -17.7413L388.929 -1.80354C389.25 -0.60368 388.538 0.630633 387.338 0.952135L385.889 1.34036C384.689 1.66186 383.455 0.949234 383.133 -0.250627L378.863 -16.1884ZM373.948 -5.55393C373.626 -6.75379 374.339 -7.9881 375.539 -8.3096L376.988 -8.69783C378.188 -9.01933 379.422 -8.3067 379.743 -7.10684L381.685 0.137601C382.006 1.33746 381.293 2.57178 380.094 2.89328L378.645 3.28151C377.445 3.60301 376.21 2.89038 375.889 1.69052L373.948 -5.55393ZM388.475 -17.9874L389.924 -18.3757C391.124 -18.6972 392.358 -17.9845 392.679 -16.7847L396.173 -3.74468C396.495 -2.54482 395.782 -1.31051 394.582 -0.989008L393.134 -0.60078C391.934 -0.279278 390.699 -0.991909 390.378 -2.19177L386.884 -15.2318C386.562 -16.4316 387.275 -17.6659 388.475 -17.9874Z" fill="black" fill-opacity="0.1"/>
</g>
<g clip-path="url(#clip18_1722_49239)">
<path d="M8.29991 125.647C7.92648 125.213 7.33445 125.032 6.77753 125.181C6.22062 125.33 5.80296 125.782 5.69191 126.346L4.38563 133.116L-1.85905 135.818C-2.38055 136.045 -2.73142 136.547 -2.75943 137.112C-2.78743 137.678 -2.49752 138.217 -2.00501 138.497L3.96376 141.901L4.61758 148.796C4.67261 149.364 5.04701 149.856 5.5814 150.057C6.11579 150.259 6.71984 150.14 7.13969 149.751L12.1178 145.093L18.758 146.638C19.3161 146.765 19.8996 146.57 20.2604 146.124C20.6213 145.678 20.7009 145.069 20.4648 144.55L17.5788 138.253L21.0459 132.321C21.3322 131.831 21.3185 131.219 21.0069 130.744C20.6953 130.27 20.1451 130.009 19.58 130.073L12.8164 130.857L8.29991 125.647Z" fill="black" fill-opacity="0.1"/>
</g>
<g clip-path="url(#clip19_1722_49239)">
<path d="M39.7809 118.192C39.6101 118.043 39.4885 117.843 39.4303 117.626C39.2653 117.01 39.6299 116.379 40.2457 116.214L45.1945 114.887C45.7016 114.752 46.2486 114.891 46.6232 115.257L51.109 119.592C49.0006 120.453 47.3221 121.995 46.2727 123.892L39.7809 118.192ZM62.5873 112.081L59.8198 120.262C57.9624 119.144 55.7379 118.648 53.4815 118.956L55.1988 112.959C55.3449 112.454 55.7443 112.061 56.2514 111.925L61.2002 110.599C61.816 110.434 62.4475 110.798 62.6125 111.414C62.6707 111.631 62.6656 111.866 62.5919 112.08L62.5873 112.081ZM46.8305 130.755C46.2642 128.641 46.5606 126.389 47.6546 124.494C48.7487 122.6 50.5506 121.217 52.6641 120.651C54.7776 120.084 57.0295 120.381 58.9243 121.475C60.8192 122.569 62.2019 124.371 62.7682 126.484C63.3345 128.598 63.0381 130.85 61.9441 132.744C60.85 134.639 59.0481 136.022 56.9346 136.588C54.8211 137.155 52.5692 136.858 50.6743 135.764C48.7795 134.67 47.3968 132.868 46.8305 130.755ZM54.0283 124.221C53.7895 123.945 53.3412 124.065 53.2677 124.425L52.8042 126.752C52.7748 126.896 52.6802 127.013 52.5492 127.068L50.3648 128.007C50.0295 128.151 50.0077 128.613 50.3235 128.795L52.3965 129.957C52.5228 130.03 52.6045 130.154 52.6195 130.3L52.8355 132.664C52.8688 133.024 53.3026 133.194 53.5714 132.947L55.3135 131.335C55.4188 131.239 55.5682 131.199 55.7074 131.23L58.0222 131.755C58.3783 131.834 58.6701 131.474 58.5178 131.141L57.5231 128.986C57.464 128.857 57.4717 128.704 57.5446 128.578L58.7587 126.535C58.9468 126.222 58.6924 125.834 58.3292 125.873L55.9722 126.151C55.8315 126.169 55.685 126.111 55.5934 126.005L54.0283 124.221Z" fill="black" fill-opacity="0.1"/>
</g>
<g clip-path="url(#clip20_1722_49239)">
<path d="M89.8483 106.805C89.5268 105.605 90.2394 104.371 91.4393 104.049L92.8881 103.661C94.088 103.34 95.3223 104.052 95.6438 105.252L99.9143 121.19C100.236 122.39 99.5232 123.624 98.3233 123.946L96.8745 124.334C95.6746 124.655 94.4403 123.943 94.1188 122.743L89.8483 106.805ZM84.9332 117.439C84.6117 116.24 85.3243 115.005 86.5242 114.684L87.9731 114.296C89.1729 113.974 90.4073 114.687 90.7288 115.887L92.6699 123.131C92.9914 124.331 92.2788 125.565 91.0789 125.887L89.63 126.275C88.4302 126.596 87.1958 125.884 86.8743 124.684L84.9332 117.439ZM99.4602 105.006L100.909 104.618C102.109 104.296 103.343 105.009 103.665 106.209L107.159 119.249C107.48 120.449 106.768 121.683 105.568 122.004L104.119 122.393C102.919 122.714 101.685 122.001 101.363 120.802L97.8692 107.762C97.5477 106.562 98.2603 105.327 99.4602 105.006Z" fill="black" fill-opacity="0.1"/>
</g>
<g clip-path="url(#clip21_1722_49239)">
<path d="M127.906 96.2194C128.194 96.1422 128.501 96.1826 128.759 96.3318C129.018 96.481 129.206 96.7267 129.283 97.0149C129.361 97.3031 129.32 97.6102 129.171 97.8686C129.022 98.127 128.776 98.3155 128.488 98.3927C128.2 98.47 127.893 98.4295 127.634 98.2803C127.376 98.1312 127.187 97.8854 127.11 97.5972C127.033 97.309 127.073 97.002 127.223 96.7436C127.372 96.4852 127.617 96.2966 127.906 96.2194ZM130.535 100.237C131.667 99.3364 132.217 97.8206 131.819 96.3355C131.283 94.3342 129.227 93.1476 127.226 93.6838C125.225 94.2201 124.038 96.2754 124.575 98.2766C124.973 99.7617 126.207 100.8 127.637 101.013L128.301 103.49L125.403 104.266C124.602 104.481 124.128 105.302 124.342 106.103C124.557 106.905 125.378 107.379 126.179 107.164L137.771 104.058L138.434 106.535C137.302 107.435 136.752 108.951 137.15 110.436C137.686 112.437 139.742 113.624 141.743 113.088C143.744 112.552 144.931 110.496 144.395 108.495C143.997 107.01 142.763 105.972 141.332 105.758L140.668 103.282L152.259 100.176C153.061 99.9612 153.535 99.1403 153.32 98.3388C153.105 97.5374 152.284 97.0635 151.483 97.2782L148.585 98.0546L147.922 95.578C149.054 94.6777 149.604 93.1619 149.206 91.6767C148.669 89.6755 146.614 88.4889 144.613 89.0251C142.612 89.5613 141.425 91.6166 141.961 93.6179C142.359 95.103 143.593 96.1408 145.024 96.3544L145.687 98.8311L131.199 102.713L130.535 100.237ZM144.497 92.9385C144.42 92.6503 144.46 92.3432 144.609 92.0848C144.758 91.8264 145.004 91.6379 145.292 91.5607C145.58 91.4834 145.888 91.5239 146.146 91.673C146.404 91.8222 146.593 92.0679 146.67 92.3561C146.747 92.6444 146.707 92.9514 146.558 93.2098C146.409 93.4682 146.163 93.6568 145.875 93.734C145.586 93.8112 145.279 93.7708 145.021 93.6216C144.763 93.4724 144.574 93.2267 144.497 92.9385ZM140.481 108.379C140.769 108.302 141.077 108.342 141.335 108.491C141.593 108.64 141.782 108.886 141.859 109.174C141.936 109.463 141.896 109.77 141.747 110.028C141.598 110.286 141.352 110.475 141.064 110.552C140.775 110.629 140.468 110.589 140.21 110.44C139.952 110.291 139.763 110.045 139.686 109.757C139.609 109.469 139.649 109.161 139.798 108.903C139.947 108.645 140.193 108.456 140.481 108.379Z" fill="black" fill-opacity="0.1"/>
</g>
<g clip-path="url(#clip22_1722_49239)">
<path d="M191.653 77.1969C191.497 76.6128 191.002 76.1777 190.398 76.0969C189.794 76.0161 189.208 76.3091 188.901 76.8327L187.457 79.3403C185.866 82.096 183.246 84.1083 180.172 84.9321L179.778 85.0376L178.329 85.4258L173.983 86.5905C172.384 87.0188 171.433 88.6665 171.861 90.2648L173.026 94.6114C173.454 96.2097 175.102 97.161 176.7 96.7327L178.253 102.528C178.468 103.33 179.289 103.804 180.09 103.589L182.988 102.813C183.789 102.598 184.263 101.777 184.049 100.975L182.496 95.1798L182.89 95.0743C185.964 94.2505 189.239 94.6832 191.995 96.2742L194.498 97.7193C195.026 98.0243 195.679 97.9803 196.162 97.6084C196.645 97.2364 196.857 96.6165 196.699 96.0279L194.909 89.3449C195.644 88.7208 195.963 87.4852 195.625 86.2219C195.286 84.9587 194.392 84.0481 193.443 83.8754L191.653 77.1969ZM189.686 81.4462L191.279 87.3911L192.872 93.3361C189.561 91.6271 185.726 91.2084 182.113 92.1765L181.719 92.2821L180.555 87.9354L180.949 87.8298C184.562 86.8617 187.673 84.5819 189.686 81.4462Z" fill="black" fill-opacity="0.1"/>
</g>
<g clip-path="url(#clip23_1722_49239)">
<path d="M215.32 70.8558C213.721 71.2841 212.77 72.9317 213.198 74.53L217.081 89.0189C217.509 90.6172 219.157 91.5685 220.755 91.1402L235.244 87.258C236.842 86.8297 237.793 85.182 237.365 83.5837L233.483 69.0948C233.055 67.4965 231.407 66.5453 229.809 66.9735L215.32 70.8558ZM220.547 78.7727C221.348 78.5579 222.169 79.0319 222.384 79.8333L223.549 84.18C223.763 84.9814 223.289 85.8024 222.488 86.0171C221.687 86.2319 220.866 85.7579 220.651 84.9565L219.486 80.6098C219.271 79.8084 219.745 78.9874 220.547 78.7727ZM222.668 75.0984C222.453 74.297 222.927 73.4761 223.729 73.2613C224.53 73.0466 225.351 73.5206 225.566 74.322L227.895 83.0153C228.11 83.8167 227.636 84.6377 226.835 84.8524C226.033 85.0672 225.212 84.5932 224.997 83.7918L222.668 75.0984ZM230.017 79.3411C230.818 79.1263 231.639 79.6003 231.854 80.4017L232.242 81.8506C232.457 82.6521 231.983 83.473 231.181 83.6878C230.38 83.9025 229.559 83.4285 229.344 82.6271L228.956 81.1782C228.741 80.3768 229.215 79.5558 230.017 79.3411Z" fill="black" fill-opacity="0.1"/>
</g>
<g clip-path="url(#clip24_1722_49239)">
<path d="M258.305 61.2788C258.593 61.2016 258.9 61.242 259.159 61.3912C259.417 61.5404 259.606 61.7861 259.683 62.0743C259.76 62.3625 259.72 62.6696 259.57 62.928C259.421 63.1864 259.176 63.375 258.887 63.4522C258.599 63.5294 258.292 63.489 258.034 63.3398C257.775 63.1906 257.587 62.9449 257.51 62.6567C257.432 62.3685 257.473 62.0614 257.622 61.803C257.771 61.5446 258.017 61.3561 258.305 61.2788ZM260.934 65.2961C262.067 64.3959 262.616 62.8801 262.218 61.3949C261.682 59.3937 259.627 58.207 257.626 58.7433C255.624 59.2795 254.438 61.3348 254.974 63.3361C255.372 64.8212 256.606 65.859 258.037 66.0726L258.7 68.5493L255.802 69.3258C255.001 69.5405 254.527 70.3615 254.742 71.1629C254.957 71.9643 255.777 72.4383 256.579 72.2235L268.17 69.1177L268.834 71.5944C267.702 72.4947 267.152 74.0105 267.55 75.4956C268.086 77.4969 270.141 78.6835 272.142 78.1472C274.144 77.611 275.33 75.5557 274.794 73.5545C274.396 72.0693 273.162 71.0315 271.731 70.8179L271.068 68.3412L282.659 65.2354C283.46 65.0207 283.934 64.1997 283.72 63.3983C283.505 62.5969 282.684 62.1229 281.882 62.3376L278.985 63.1141L278.321 60.6374C279.453 59.7371 280.003 58.2213 279.605 56.7362C279.069 54.7349 277.014 53.5483 275.012 54.0845C273.011 54.6208 271.824 56.6761 272.361 58.6773C272.759 60.1625 273.993 61.2003 275.423 61.4139L276.087 63.8906L261.598 67.7728L260.934 65.2961ZM274.896 57.9979C274.819 57.7097 274.859 57.4027 275.009 57.1443C275.158 56.8859 275.403 56.6973 275.692 56.6201C275.98 56.5429 276.287 56.5833 276.545 56.7325C276.804 56.8817 276.992 57.1274 277.07 57.4156C277.147 57.7038 277.106 58.0109 276.957 58.2693C276.808 58.5277 276.562 58.7162 276.274 58.7934C275.986 58.8707 275.679 58.8302 275.42 58.681C275.162 58.5319 274.973 58.2861 274.896 57.9979ZM270.881 73.4384C271.169 73.3611 271.476 73.4016 271.734 73.5507C271.993 73.6999 272.181 73.9457 272.258 74.2339C272.336 74.5221 272.295 74.8291 272.146 75.0875C271.997 75.3459 271.751 75.5345 271.463 75.6117C271.175 75.6889 270.868 75.6485 270.609 75.4993C270.351 75.3501 270.162 75.1044 270.085 74.8162C270.008 74.528 270.048 74.2209 270.198 73.9625C270.347 73.7041 270.592 73.5156 270.881 73.4384Z" fill="black" fill-opacity="0.1"/>
</g>
<g clip-path="url(#clip25_1722_49239)">
<path d="M316.907 60.7175C316.955 59.1567 317.526 57.6837 318.089 56.2177C318.238 55.8331 318.388 55.4486 318.527 55.0619C319.077 53.5313 319.184 51.8285 318.731 50.1396C317.551 45.7341 313.027 43.1222 308.626 44.3014C304.225 45.4807 301.613 50.0046 302.792 54.4056C303.245 56.0945 304.19 57.5203 305.431 58.566C305.745 58.8313 306.066 59.0897 306.388 59.3481C307.613 60.3349 308.845 61.3296 309.661 62.6542L316.906 60.713L316.907 60.7175ZM314.838 67.4837C316.839 66.9474 318.026 64.8922 317.489 62.8909L317.295 62.1664L310.051 64.1076L310.245 64.832C310.781 66.8333 312.836 68.0199 314.838 67.4837ZM307.139 53.2409C307.246 53.6394 307.007 54.0527 306.609 54.1595C306.21 54.2662 305.797 54.0276 305.69 53.6291C304.939 50.8264 306.6 47.9502 309.403 47.1992C309.801 47.0925 310.214 47.3311 310.321 47.7296C310.428 48.128 310.189 48.5414 309.791 48.6481C307.79 49.1844 306.603 51.2396 307.139 53.2409Z" fill="black" fill-opacity="0.1"/>
</g>
<g clip-path="url(#clip26_1722_49239)">
<path d="M360.028 42.9516C359.722 41.81 359.194 40.7398 358.475 39.8021C357.755 38.8645 356.858 38.0777 355.835 37.4868C354.811 36.8958 353.681 36.5123 352.509 36.358C351.338 36.2037 350.147 36.2818 349.005 36.5877C347.864 36.8936 346.793 37.4213 345.856 38.1408C344.918 38.8603 344.131 39.7574 343.54 40.781C342.949 41.8045 342.566 42.9345 342.412 44.1063C342.257 45.278 342.335 46.4687 342.641 47.6104C342.947 48.752 343.475 49.8222 344.194 50.7598C344.914 51.6975 345.811 52.4843 346.835 53.0752C347.858 53.6662 348.988 54.0497 350.16 54.204C351.332 54.3583 352.522 54.2802 353.664 53.9743C354.806 53.6684 355.876 53.1407 356.813 52.4212C357.751 51.7017 358.538 50.8045 359.129 49.781C359.72 48.7574 360.103 47.6275 360.258 46.4557C360.412 45.2839 360.334 44.0933 360.028 42.9516ZM339.744 48.3868C338.92 45.3127 339.351 42.0372 340.942 39.281C342.534 36.5248 345.155 34.5136 348.229 33.6899C351.303 32.8662 354.578 33.2974 357.335 34.8887C360.091 36.48 362.102 39.101 362.926 42.1752C363.749 45.2493 363.318 48.5248 361.727 51.281C360.136 54.0372 357.515 56.0484 354.44 56.8721C351.366 57.6958 348.091 57.2646 345.335 55.6733C342.578 54.082 340.567 51.461 339.744 48.3868ZM352.305 48.9032C353.266 48.6458 354.085 48.0173 354.582 47.156C355.08 46.2947 355.214 45.2711 354.957 44.3104C354.699 43.3498 354.071 42.5307 353.21 42.0334C352.348 41.5361 351.325 41.4014 350.364 41.6588C349.403 41.9162 348.584 42.5447 348.087 43.406C347.59 44.2673 347.455 45.2909 347.712 46.2516C347.97 47.2122 348.598 48.0313 349.46 48.5286C350.321 49.0259 351.345 49.1606 352.305 48.9032ZM349.588 38.761C351.317 38.2977 353.159 38.5402 354.71 39.4353C356.26 40.3304 357.391 41.8048 357.855 43.534C358.318 45.2632 358.075 47.1056 357.18 48.656C356.285 50.2064 354.811 51.3377 353.082 51.801C351.352 52.2643 349.51 52.0218 347.96 51.1267C346.409 50.2316 345.278 48.7572 344.815 47.028C344.351 45.2988 344.594 43.4564 345.489 41.906C346.384 40.3556 347.858 39.2243 349.588 38.761ZM349.886 45.6692C349.783 45.285 349.837 44.8755 350.036 44.531C350.235 44.1865 350.562 43.9351 350.946 43.8321C351.331 43.7291 351.74 43.783 352.085 43.982C352.429 44.1809 352.681 44.5085 352.784 44.8928C352.886 45.277 352.833 45.6865 352.634 46.031C352.435 46.3755 352.107 46.6269 351.723 46.7299C351.339 46.8328 350.929 46.7789 350.585 46.58C350.24 46.3811 349.989 46.0535 349.886 45.6692Z" fill="black" fill-opacity="0.1"/>
</g>
<g clip-path="url(#clip27_1722_49239)">
<path d="M379.787 27.0875C379.616 26.9392 379.494 26.7388 379.436 26.5215C379.271 25.9057 379.636 25.2742 380.252 25.1092L385.2 23.7832C385.707 23.6473 386.254 23.787 386.629 24.1525L391.115 28.4877C389.006 29.3487 387.328 30.8903 386.279 32.7875L379.787 27.0875ZM402.593 20.9766L399.826 29.1575C397.968 28.0392 395.744 27.5434 393.487 27.852L395.205 21.8547C395.351 21.3497 395.75 20.9564 396.257 20.8205L401.206 19.4944C401.822 19.3295 402.453 19.6941 402.618 20.3098C402.677 20.5272 402.671 20.7615 402.598 20.9753L402.593 20.9766ZM386.836 39.6504C386.27 37.5369 386.566 35.2851 387.66 33.3902C388.755 31.4953 390.556 30.1126 392.67 29.5463C394.783 28.98 397.035 29.2764 398.93 30.3704C400.825 31.4645 402.208 33.2664 402.774 35.3799C403.34 37.4934 403.044 39.7453 401.95 41.6402C400.856 43.5351 399.054 44.9177 396.94 45.484C394.827 46.0504 392.575 45.7539 390.68 44.6599C388.785 43.5658 387.403 41.7639 386.836 39.6504ZM394.034 33.1164C393.795 32.8407 393.347 32.9608 393.274 33.3202L392.81 35.6476C392.781 35.7913 392.686 35.9089 392.555 35.9634L390.371 36.903C390.035 37.0462 390.014 37.5082 390.329 37.6905L392.402 38.8529C392.529 38.9259 392.61 39.0496 392.625 39.196L392.841 41.5597C392.875 41.9196 393.308 42.0897 393.577 41.8429L395.319 40.2309C395.425 40.1347 395.574 40.0947 395.713 40.1253L398.028 40.6504C398.384 40.7296 398.676 40.37 398.524 40.0371L397.529 37.8821C397.47 37.7523 397.478 37.5998 397.55 37.4735L398.765 35.4303C398.953 35.1179 398.698 34.7299 398.335 34.7689L395.978 35.0462C395.837 35.0645 395.691 35.0067 395.599 34.9002L394.034 33.1164Z" fill="black" fill-opacity="0.1"/>
</g>
<g clip-path="url(#clip28_1722_49239)">
<path d="M50.9085 160.462C49.3102 160.89 48.3589 162.538 48.7872 164.136L52.6695 178.625C53.0977 180.223 54.7454 181.174 56.3437 180.746L70.8326 176.864C72.4309 176.436 73.3822 174.788 72.9539 173.19L69.0716 158.701C68.6434 157.102 66.9957 156.151 65.3974 156.579L50.9085 160.462ZM56.1357 168.379C56.9371 168.164 57.758 168.638 57.9728 169.439L59.1375 173.786C59.3522 174.587 58.8782 175.408 58.0768 175.623C57.2754 175.838 56.4544 175.364 56.2397 174.562L55.075 170.216C54.8603 169.414 55.3343 168.593 56.1357 168.379ZM58.257 164.704C58.0422 163.903 58.5162 163.082 59.3176 162.867C60.1191 162.652 60.94 163.126 61.1548 163.928L63.4841 172.621C63.6989 173.423 63.2249 174.244 62.4235 174.458C61.6221 174.673 60.8011 174.199 60.5864 173.398L58.257 164.704ZM65.6055 168.947C66.4069 168.732 67.2278 169.206 67.4426 170.008L67.8308 171.456C68.0455 172.258 67.5716 173.079 66.7701 173.294C65.9687 173.508 65.1478 173.034 64.933 172.233L64.5448 170.784C64.3301 169.983 64.804 169.162 65.6055 168.947Z" fill="black" fill-opacity="0.1"/>
</g>
<g clip-path="url(#clip29_1722_49239)">
<path d="M93.8939 150.885C94.1821 150.807 94.4892 150.848 94.7476 150.997C95.006 151.146 95.1945 151.392 95.2717 151.68C95.349 151.968 95.3085 152.275 95.1594 152.534C95.0102 152.792 94.7644 152.981 94.4762 153.058C94.188 153.135 93.881 153.095 93.6226 152.946C93.3642 152.796 93.1756 152.551 93.0984 152.262C93.0212 151.974 93.0616 151.667 93.2108 151.409C93.36 151.15 93.6057 150.962 93.8939 150.885ZM96.5232 154.902C97.6554 154.002 98.2052 152.486 97.8073 151.001C97.2711 148.999 95.2158 147.813 93.2145 148.349C91.2132 148.885 90.0266 150.941 90.5628 152.942C90.9608 154.427 92.1949 155.465 93.6255 155.678L94.2891 158.155L91.3913 158.932C90.5899 159.146 90.1159 159.967 90.3307 160.769C90.5454 161.57 91.3664 162.044 92.1678 161.829L103.759 158.723L104.423 161.2C103.29 162.1 102.741 163.616 103.138 165.101C103.675 167.103 105.73 168.289 107.731 167.753C109.733 167.217 110.919 165.162 110.383 163.16C109.985 161.675 108.751 160.637 107.32 160.424L106.657 157.947L118.248 154.841C119.049 154.626 119.523 153.805 119.308 153.004C119.094 152.203 118.273 151.729 117.471 151.943L114.574 152.72L113.91 150.243C115.042 149.343 115.592 147.827 115.194 146.342C114.658 144.341 112.602 143.154 110.601 143.69C108.6 144.227 107.413 146.282 107.95 148.283C108.347 149.768 109.582 150.806 111.012 151.02L111.676 153.496L97.1869 157.379L96.5232 154.902ZM110.485 147.604C110.408 147.316 110.448 147.008 110.597 146.75C110.747 146.492 110.992 146.303 111.281 146.226C111.569 146.149 111.876 146.189 112.134 146.338C112.393 146.487 112.581 146.733 112.658 147.021C112.736 147.31 112.695 147.617 112.546 147.875C112.397 148.133 112.151 148.322 111.863 148.399C111.575 148.476 111.268 148.436 111.009 148.287C110.751 148.138 110.562 147.892 110.485 147.604ZM106.47 163.044C106.758 162.967 107.065 163.007 107.323 163.157C107.582 163.306 107.77 163.551 107.847 163.84C107.925 164.128 107.884 164.435 107.735 164.693C107.586 164.952 107.34 165.14 107.052 165.217C106.764 165.295 106.457 165.254 106.198 165.105C105.94 164.956 105.751 164.71 105.674 164.422C105.597 164.134 105.637 163.827 105.786 163.568C105.936 163.31 106.181 163.121 106.47 163.044Z" fill="black" fill-opacity="0.1"/>
</g>
<g clip-path="url(#clip30_1722_49239)">
<path d="M152.496 150.323C152.544 148.763 153.115 147.29 153.678 145.824C153.827 145.439 153.976 145.054 154.115 144.668C154.666 143.137 154.773 141.434 154.32 139.745C153.14 135.34 148.616 132.728 144.215 133.907C139.814 135.087 137.202 139.61 138.381 144.011C138.834 145.7 139.779 147.126 141.02 148.172C141.334 148.437 141.655 148.696 141.977 148.954C143.202 149.941 144.434 150.935 145.25 152.26L152.495 150.319L152.496 150.323ZM150.427 157.09C152.428 156.553 153.615 154.498 153.078 152.497L152.884 151.772L145.64 153.713L145.834 154.438C146.37 156.439 148.425 157.626 150.427 157.09ZM142.728 142.847C142.835 143.245 142.596 143.659 142.198 143.765C141.799 143.872 141.386 143.633 141.279 143.235C140.528 140.432 142.189 137.556 144.991 136.805C145.39 136.698 145.803 136.937 145.91 137.335C146.017 137.734 145.778 138.147 145.38 138.254C143.378 138.79 142.192 140.845 142.728 142.847Z" fill="black" fill-opacity="0.1"/>
</g>
<g clip-path="url(#clip31_1722_49239)">
<path d="M193.197 129.323C194.377 133.724 191.117 138.422 185.915 139.816C184.185 140.279 182.463 140.318 180.884 140.004C180.593 140.276 180.256 140.556 179.882 140.826C179.137 141.36 178.209 141.881 177.222 142.145C176.909 142.229 176.574 142.1 176.399 141.827C176.223 141.554 176.24 141.2 176.444 140.946L176.451 140.935C176.457 140.923 176.473 140.909 176.491 140.885C176.526 140.837 176.58 140.764 176.641 140.665C176.764 140.472 176.927 140.196 177.069 139.857C177.233 139.473 177.367 139.029 177.413 138.566C175.929 137.556 174.83 136.118 174.362 134.37C173.183 129.969 176.442 125.272 181.644 123.878C186.847 122.484 192.018 124.922 193.197 129.323ZM187.355 140.934C192.548 139.053 196.009 134.02 194.646 128.935C194.583 128.7 194.511 128.467 194.431 128.241C199.388 127.233 204.155 129.648 205.281 133.85C205.749 135.598 205.517 137.393 204.742 139.012C205.015 139.396 205.351 139.708 205.685 139.958C205.977 140.181 206.257 140.339 206.46 140.445C206.561 140.495 206.645 140.536 206.7 140.56C206.728 140.572 206.749 140.581 206.76 140.583L206.771 140.589C207.074 140.707 207.266 141.005 207.251 141.33C207.236 141.654 207.01 141.933 206.697 142.017C205.71 142.281 204.646 142.294 203.734 142.204C203.275 142.157 202.838 142.085 202.455 141.994C201.239 143.052 199.728 143.879 197.998 144.343C193.67 145.502 189.358 144.008 187.355 140.934ZM183.423 126.895C183.29 126.397 182.773 126.099 182.275 126.232C181.777 126.366 181.479 126.883 181.612 127.381L181.782 128.015C181.459 128.184 181.147 128.398 180.88 128.669C180.351 129.213 179.984 130.015 180.245 130.969C180.495 131.887 181.189 132.323 181.857 132.513C182.435 132.678 183.106 132.702 183.638 132.715L183.721 132.717C184.338 132.736 184.791 132.76 185.119 132.861C185.389 132.944 185.447 133.035 185.486 133.161C185.551 133.386 185.501 133.545 185.346 133.708C185.157 133.909 184.822 134.091 184.434 134.18C183.927 134.297 183.413 134.265 182.742 134.221C182.628 134.213 182.509 134.206 182.387 134.2C181.869 134.169 181.426 134.564 181.394 135.078C181.362 135.591 181.758 136.038 182.271 136.07C182.365 136.074 182.468 136.081 182.573 136.091C182.984 136.122 183.459 136.155 183.952 136.13L184.129 136.791C184.262 137.289 184.779 137.587 185.277 137.453C185.775 137.32 186.073 136.803 185.94 136.305L185.773 135.68C186.114 135.506 186.442 135.283 186.714 134.991C187.253 134.415 187.558 133.596 187.291 132.653C187.031 131.738 186.356 131.283 185.672 131.068C185.064 130.882 184.359 130.857 183.81 130.839L183.776 130.838C183.149 130.817 182.703 130.801 182.368 130.706C182.094 130.629 182.068 130.549 182.046 130.467C182.001 130.3 182.031 130.156 182.214 129.971C182.42 129.761 182.768 129.575 183.127 129.484C183.563 129.372 184.068 129.338 184.603 129.341C185.121 129.338 185.538 128.92 185.54 128.4C185.541 127.881 185.119 127.465 184.6 127.463C184.285 127.465 183.938 127.476 183.587 127.507L183.423 126.895Z" fill="black" fill-opacity="0.1"/>
</g>
<g clip-path="url(#clip32_1722_49239)">
<path d="M243.913 119.616C243.607 118.475 243.079 117.405 242.36 116.467C241.64 115.529 240.743 114.743 239.719 114.152C238.696 113.561 237.566 113.177 236.394 113.023C235.222 112.869 234.032 112.947 232.89 113.253C231.748 113.558 230.678 114.086 229.741 114.806C228.803 115.525 228.016 116.422 227.425 117.446C226.834 118.469 226.451 119.599 226.296 120.771C226.142 121.943 226.22 123.134 226.526 124.275C226.832 125.417 227.36 126.487 228.079 127.425C228.799 128.362 229.696 129.149 230.719 129.74C231.743 130.331 232.873 130.715 234.045 130.869C235.216 131.023 236.407 130.945 237.549 130.639C238.69 130.333 239.761 129.806 240.698 129.086C241.636 128.367 242.423 127.469 243.014 126.446C243.605 125.422 243.988 124.292 244.142 123.121C244.297 121.949 244.219 120.758 243.913 119.616ZM223.628 125.052C222.805 121.978 223.236 118.702 224.827 115.946C226.418 113.19 229.039 111.178 232.114 110.355C235.188 109.531 238.463 109.962 241.219 111.554C243.976 113.145 245.987 115.766 246.811 118.84C247.634 121.914 247.203 125.19 245.612 127.946C244.02 130.702 241.399 132.713 238.325 133.537C235.251 134.361 231.976 133.929 229.219 132.338C226.463 130.747 224.452 128.126 223.628 125.052ZM236.19 125.568C237.151 125.311 237.97 124.682 238.467 123.821C238.964 122.96 239.099 121.936 238.842 120.975C238.584 120.015 237.956 119.196 237.094 118.698C236.233 118.201 235.21 118.066 234.249 118.324C233.288 118.581 232.469 119.21 231.972 120.071C231.475 120.932 231.34 121.956 231.597 122.916C231.855 123.877 232.483 124.696 233.344 125.193C234.206 125.691 235.229 125.825 236.19 125.568ZM233.472 115.426C235.202 114.963 237.044 115.205 238.594 116.1C240.145 116.995 241.276 118.47 241.739 120.199C242.203 121.928 241.96 123.77 241.065 125.321C240.17 126.871 238.696 128.003 236.966 128.466C235.237 128.929 233.395 128.687 231.844 127.792C230.294 126.896 229.163 125.422 228.699 123.693C228.236 121.964 228.479 120.121 229.374 118.571C230.269 117.02 231.743 115.889 233.472 115.426ZM233.771 122.334C233.668 121.95 233.721 121.54 233.92 121.196C234.119 120.851 234.447 120.6 234.831 120.497C235.215 120.394 235.625 120.448 235.969 120.647C236.314 120.846 236.565 121.173 236.668 121.558C236.771 121.942 236.717 122.351 236.518 122.696C236.32 123.04 235.992 123.292 235.608 123.395C235.223 123.498 234.814 123.444 234.469 123.245C234.125 123.046 233.873 122.718 233.771 122.334Z" fill="black" fill-opacity="0.1"/>
</g>
<g clip-path="url(#clip33_1722_49239)">
<path d="M263.673 103.752C263.502 103.604 263.38 103.404 263.322 103.186C263.157 102.571 263.521 101.939 264.137 101.774L269.086 100.448C269.593 100.312 270.14 100.452 270.515 100.817L275.001 105.153C272.892 106.014 271.214 107.555 270.164 109.452L263.673 103.752ZM286.479 97.6414L283.711 105.822C281.854 104.704 279.63 104.208 277.373 104.517L279.09 98.5196C279.237 98.0145 279.636 97.6212 280.143 97.4853L285.092 96.1593C285.708 95.9943 286.339 96.3589 286.504 96.9747C286.562 97.192 286.557 97.4263 286.483 97.6402L286.479 97.6414ZM270.722 116.315C270.156 114.202 270.452 111.95 271.546 110.055C272.64 108.16 274.442 106.777 276.556 106.211C278.669 105.645 280.921 105.941 282.816 107.035C284.711 108.129 286.094 109.931 286.66 112.045C287.226 114.158 286.93 116.41 285.836 118.305C284.742 120.2 282.94 121.583 280.826 122.149C278.713 122.715 276.461 122.419 274.566 121.325C272.671 120.231 271.288 118.429 270.722 116.315ZM277.92 109.781C277.681 109.506 277.233 109.626 277.159 109.985L276.696 112.312C276.666 112.456 276.572 112.574 276.441 112.628L274.256 113.568C273.921 113.711 273.899 114.173 274.215 114.355L276.288 115.518C276.414 115.591 276.496 115.714 276.511 115.861L276.727 118.225C276.76 118.584 277.194 118.755 277.463 118.508L279.205 116.896C279.31 116.8 279.46 116.76 279.599 116.79L281.914 117.315C282.27 117.395 282.562 117.035 282.409 116.702L281.415 114.547C281.356 114.417 281.363 114.265 281.436 114.138L282.65 112.095C282.838 111.783 282.584 111.395 282.221 111.434L279.864 111.711C279.723 111.729 279.577 111.672 279.485 111.565L277.92 109.781Z" fill="black" fill-opacity="0.1"/>
</g>
<g clip-path="url(#clip34_1722_49239)">
<path d="M320.091 87.6548C319.717 87.221 319.125 87.04 318.569 87.1892C318.012 87.3384 317.594 87.79 317.483 88.3536L316.177 95.1239L309.932 97.826C309.41 98.0531 309.06 98.5547 309.032 99.1203C309.004 99.6859 309.293 100.225 309.786 100.505L315.755 103.909L316.409 110.804C316.464 111.372 316.838 111.864 317.372 112.065C317.907 112.267 318.511 112.148 318.931 111.759L323.909 107.101L330.549 108.646C331.107 108.773 331.691 108.578 332.051 108.132C332.412 107.686 332.492 107.077 332.256 106.558L329.37 100.261L332.837 94.3286C333.123 93.8394 333.109 93.2268 332.798 92.7522C332.486 92.2776 331.936 92.0173 331.371 92.0814L324.607 92.8649L320.091 87.6548Z" fill="black" fill-opacity="0.1"/>
</g>
<g clip-path="url(#clip35_1722_49239)">
<path d="M373.044 74.1454C372.888 73.5614 372.392 73.1262 371.788 73.0454C371.185 72.9646 370.598 73.2576 370.292 73.7813L368.848 76.2889C367.257 79.0445 364.637 81.0568 361.563 81.8806L361.169 81.9862L359.72 82.3744L355.373 83.5391C353.775 83.9673 352.824 85.615 353.252 87.2133L354.417 91.56C354.845 93.1583 356.493 94.1096 358.091 93.6813L359.644 99.4769C359.858 100.278 360.679 100.752 361.481 100.538L364.379 99.7611C365.18 99.5463 365.654 98.7254 365.439 97.9239L363.886 92.1284L364.28 92.0228C367.355 91.1991 370.63 91.6318 373.386 93.2227L375.889 94.6679C376.417 94.9728 377.07 94.9289 377.552 94.5569C378.035 94.1849 378.248 93.5651 378.09 92.9765L376.299 86.2935C377.035 85.6694 377.354 84.4337 377.015 83.1705C376.677 81.9072 375.783 80.9967 374.834 80.8239L373.044 74.1454ZM371.077 78.3947L372.67 84.3397L374.263 90.2846C370.951 88.5757 367.117 88.1569 363.504 89.1251L363.11 89.2306L361.945 84.8839L362.339 84.7784C365.952 83.8102 369.064 81.5304 371.077 78.3947Z" fill="black" fill-opacity="0.1"/>
</g>
<g clip-path="url(#clip36_1722_49239)">
<path d="M401.639 68.8131C401.318 67.6132 402.03 66.3789 403.23 66.0574L404.679 65.6692C405.879 65.3477 407.113 66.0603 407.435 67.2601L411.705 83.1979C412.027 84.3978 411.314 85.6321 410.114 85.9536L408.665 86.3418C407.466 86.6633 406.231 85.9507 405.91 84.7508L401.639 68.8131ZM396.724 79.4475C396.403 78.2477 397.115 77.0134 398.315 76.6919L399.764 76.3036C400.964 75.9821 402.198 76.6948 402.52 77.8946L404.461 85.1391C404.782 86.3389 404.07 87.5732 402.87 87.8947L401.421 88.283C400.221 88.6045 398.987 87.8918 398.665 86.692L396.724 79.4475ZM411.251 67.014L412.7 66.6258C413.9 66.3043 415.134 67.0169 415.456 68.2168L418.95 81.2568C419.271 82.4566 418.559 83.691 417.359 84.0125L415.91 84.4007C414.71 84.7222 413.476 84.0096 413.154 82.8097L409.66 69.7697C409.339 68.5698 410.051 67.3355 411.251 67.014Z" fill="black" fill-opacity="0.1"/>
</g>
<g clip-path="url(#clip37_1722_49239)">
<path d="M214.429 162.198C214.272 161.614 213.777 161.179 213.173 161.098C212.569 161.018 211.983 161.311 211.677 161.834L210.233 164.342C208.642 167.097 206.022 169.11 202.947 169.934L202.554 170.039L201.105 170.427L196.758 171.592C195.16 172.02 194.208 173.668 194.637 175.266L195.801 179.613C196.23 181.211 197.877 182.162 199.476 181.734L201.029 187.53C201.243 188.331 202.064 188.805 202.866 188.59L205.763 187.814C206.565 187.599 207.039 186.778 206.824 185.977L205.271 180.181L205.665 180.076C208.739 179.252 212.015 179.685 214.77 181.276L217.273 182.721C217.802 183.026 218.455 182.982 218.937 182.61C219.42 182.238 219.632 181.618 219.475 181.029L217.684 174.346C218.419 173.722 218.739 172.487 218.4 171.223C218.062 169.96 217.167 169.05 216.218 168.877L214.429 162.198ZM212.462 166.448L214.055 172.393L215.648 178.338C212.336 176.629 208.502 176.21 204.889 177.178L204.495 177.284L203.33 172.937L203.724 172.831C207.337 171.863 210.448 169.583 212.462 166.448Z" fill="black" fill-opacity="0.1"/>
</g>
<g clip-path="url(#clip38_1722_49239)">
<path d="M238.095 155.857C236.497 156.286 235.545 157.933 235.974 159.532L239.856 174.02C240.284 175.619 241.932 176.57 243.53 176.142L258.019 172.259C259.617 171.831 260.569 170.183 260.14 168.585L256.258 154.096C255.83 152.498 254.182 151.547 252.584 151.975L238.095 155.857ZM243.322 163.774C244.124 163.559 244.945 164.033 245.159 164.835L246.324 169.181C246.539 169.983 246.065 170.804 245.263 171.019C244.462 171.233 243.641 170.759 243.426 169.958L242.262 165.611C242.047 164.81 242.521 163.989 243.322 163.774ZM245.444 160.1C245.229 159.298 245.703 158.478 246.504 158.263C247.306 158.048 248.127 158.522 248.341 159.323L250.671 168.017C250.885 168.818 250.411 169.639 249.61 169.854C248.809 170.069 247.988 169.595 247.773 168.793L245.444 160.1ZM252.792 164.343C253.593 164.128 254.414 164.602 254.629 165.403L255.017 166.852C255.232 167.654 254.758 168.474 253.957 168.689C253.155 168.904 252.334 168.43 252.12 167.629L251.731 166.18C251.517 165.378 251.991 164.557 252.792 164.343Z" fill="black" fill-opacity="0.1"/>
</g>
<g clip-path="url(#clip39_1722_49239)">
<path d="M281.08 146.28C281.369 146.203 281.676 146.244 281.934 146.393C282.192 146.542 282.381 146.788 282.458 147.076C282.535 147.364 282.495 147.671 282.346 147.929C282.197 148.188 281.951 148.376 281.663 148.454C281.375 148.531 281.067 148.49 280.809 148.341C280.551 148.192 280.362 147.946 280.285 147.658C280.208 147.37 280.248 147.063 280.397 146.804C280.547 146.546 280.792 146.358 281.08 146.28ZM283.71 150.298C284.842 149.397 285.392 147.882 284.994 146.396C284.458 144.395 282.402 143.209 280.401 143.745C278.4 144.281 277.213 146.336 277.749 148.338C278.147 149.823 279.381 150.86 280.812 151.074L281.476 153.551L278.578 154.327C277.776 154.542 277.302 155.363 277.517 156.164C277.732 156.966 278.553 157.44 279.354 157.225L290.945 154.119L291.609 156.596C290.477 157.496 289.927 159.012 290.325 160.497C290.861 162.498 292.917 163.685 294.918 163.149C296.919 162.612 298.106 160.557 297.569 158.556C297.172 157.071 295.937 156.033 294.507 155.819L293.843 153.343L305.434 150.237C306.236 150.022 306.71 149.201 306.495 148.4C306.28 147.598 305.459 147.124 304.658 147.339L301.76 148.116L301.096 145.639C302.229 144.739 302.778 143.223 302.38 141.738C301.844 139.736 299.789 138.55 297.788 139.086C295.786 139.622 294.6 141.678 295.136 143.679C295.534 145.164 296.768 146.202 298.199 146.415L298.862 148.892L284.373 152.774L283.71 150.298ZM297.672 142.999C297.594 142.711 297.635 142.404 297.784 142.146C297.933 141.887 298.179 141.699 298.467 141.622C298.755 141.544 299.062 141.585 299.321 141.734C299.579 141.883 299.768 142.129 299.845 142.417C299.922 142.705 299.882 143.012 299.733 143.271C299.583 143.529 299.338 143.718 299.049 143.795C298.761 143.872 298.454 143.832 298.196 143.683C297.937 143.533 297.749 143.288 297.672 142.999ZM293.656 158.44C293.944 158.363 294.251 158.403 294.51 158.552C294.768 158.701 294.957 158.947 295.034 159.235C295.111 159.524 295.071 159.831 294.921 160.089C294.772 160.347 294.527 160.536 294.238 160.613C293.95 160.69 293.643 160.65 293.385 160.501C293.126 160.352 292.938 160.106 292.861 159.818C292.783 159.529 292.824 159.222 292.973 158.964C293.122 158.706 293.368 158.517 293.656 158.44Z" fill="black" fill-opacity="0.1"/>
</g>
<g clip-path="url(#clip40_1722_49239)">
<path d="M339.682 145.719C339.73 144.158 340.301 142.685 340.864 141.219C341.014 140.835 341.163 140.45 341.302 140.063C341.853 138.533 341.959 136.83 341.507 135.141C340.326 130.736 335.803 128.124 331.402 129.303C327.001 130.482 324.389 135.006 325.568 139.407C326.02 141.096 326.965 142.522 328.206 143.567C328.52 143.833 328.842 144.091 329.163 144.35C330.389 145.336 331.621 146.331 332.437 147.656L339.681 145.714L339.682 145.719ZM337.613 152.485C339.614 151.949 340.801 149.894 340.265 147.892L340.071 147.168L332.826 149.109L333.02 149.833C333.557 151.835 335.612 153.021 337.613 152.485ZM329.915 138.242C330.021 138.641 329.783 139.054 329.384 139.161C328.986 139.268 328.572 139.029 328.466 138.631C327.715 135.828 329.375 132.952 332.178 132.201C332.576 132.094 332.99 132.333 333.097 132.731C333.203 133.129 332.965 133.543 332.566 133.65C330.565 134.186 329.378 136.241 329.915 138.242Z" fill="black" fill-opacity="0.1"/>
</g>
<g clip-path="url(#clip41_1722_49239)">
<path d="M382.803 127.953C382.497 126.811 381.97 125.741 381.25 124.804C380.531 123.866 379.634 123.079 378.61 122.488C377.586 121.897 376.457 121.514 375.285 121.359C374.113 121.205 372.922 121.283 371.781 121.589C370.639 121.895 369.569 122.423 368.631 123.142C367.694 123.862 366.907 124.759 366.316 125.782C365.725 126.806 365.341 127.936 365.187 129.108C365.033 130.28 365.111 131.47 365.417 132.612C365.723 133.753 366.25 134.824 366.97 135.761C367.689 136.699 368.586 137.486 369.61 138.077C370.634 138.668 371.764 139.051 372.935 139.205C374.107 139.36 375.298 139.282 376.439 138.976C377.581 138.67 378.651 138.142 379.589 137.423C380.527 136.703 381.313 135.806 381.904 134.782C382.495 133.759 382.879 132.629 383.033 131.457C383.187 130.285 383.109 129.095 382.803 127.953ZM362.519 133.388C361.695 130.314 362.126 127.039 363.718 124.282C365.309 121.526 367.93 119.515 371.004 118.691C374.078 117.868 377.354 118.299 380.11 119.89C382.866 121.481 384.877 124.102 385.701 127.177C386.525 130.251 386.094 133.526 384.502 136.282C382.911 139.039 380.29 141.05 377.216 141.874C374.142 142.697 370.866 142.266 368.11 140.675C365.354 139.083 363.343 136.462 362.519 133.388ZM375.081 133.905C376.041 133.647 376.86 133.019 377.358 132.157C377.855 131.296 377.99 130.273 377.732 129.312C377.475 128.351 376.846 127.532 375.985 127.035C375.124 126.538 374.1 126.403 373.139 126.66C372.179 126.918 371.36 127.546 370.862 128.407C370.365 129.269 370.23 130.292 370.488 131.253C370.745 132.214 371.374 133.033 372.235 133.53C373.096 134.027 374.12 134.162 375.081 133.905ZM372.363 123.762C374.092 123.299 375.935 123.542 377.485 124.437C379.035 125.332 380.167 126.806 380.63 128.535C381.093 130.265 380.851 132.107 379.956 133.657C379.061 135.208 377.586 136.339 375.857 136.802C374.128 137.266 372.285 137.023 370.735 136.128C369.185 135.233 368.053 133.759 367.59 132.029C367.127 130.3 367.369 128.458 368.264 126.907C369.159 125.357 370.634 124.226 372.363 123.762ZM372.661 130.671C372.558 130.286 372.612 129.877 372.811 129.532C373.01 129.188 373.338 128.937 373.722 128.834C374.106 128.731 374.515 128.785 374.86 128.983C375.205 129.182 375.456 129.51 375.559 129.894C375.662 130.279 375.608 130.688 375.409 131.032C375.21 131.377 374.883 131.628 374.498 131.731C374.114 131.834 373.705 131.78 373.36 131.581C373.015 131.383 372.764 131.055 372.661 130.671Z" fill="black" fill-opacity="0.1"/>
</g>
<defs>
<clipPath id="clip0_1722_49239">
<rect width="21" height="24" fill="white" transform="translate(2.07031 -10.2137) rotate(-15)"/>
</clipPath>
<clipPath id="clip1_1722_49239">
<rect width="30" height="24" fill="white" transform="translate(41.6729 -20.8254) rotate(-15)"/>
</clipPath>
<clipPath id="clip2_1722_49239">
<rect width="27" height="24" fill="white" transform="translate(-29.043 43.675) rotate(-15)"/>
</clipPath>
<clipPath id="clip3_1722_49239">
<rect width="24" height="24" fill="white" transform="translate(16.3555 31.5105) rotate(-15)"/>
</clipPath>
<clipPath id="clip4_1722_49239">
<rect width="21" height="24" fill="white" transform="translate(58.8564 20.1224) rotate(-15)"/>
</clipPath>
<clipPath id="clip5_1722_49239">
<rect width="30" height="24" fill="white" transform="translate(98.46 9.51086) rotate(-15)"/>
</clipPath>
<clipPath id="clip6_1722_49239">
<rect width="24" height="24" fill="white" transform="translate(146.756 -3.43005) rotate(-15)"/>
</clipPath>
<clipPath id="clip7_1722_49239">
<rect width="21" height="24" fill="white" transform="translate(189.257 -14.8181) rotate(-15)"/>
</clipPath>
<clipPath id="clip8_1722_49239">
<rect width="21" height="24" fill="white" transform="translate(-14.7568 85.3993) rotate(-15)"/>
</clipPath>
<clipPath id="clip9_1722_49239">
<rect width="21" height="24" fill="white" transform="translate(24.8457 74.7877) rotate(-15)"/>
</clipPath>
<clipPath id="clip10_1722_49239">
<rect width="30" height="24" fill="white" transform="translate(64.4482 64.1761) rotate(-15)"/>
</clipPath>
<clipPath id="clip11_1722_49239">
<rect width="18" height="24" fill="white" transform="translate(112.745 51.2352) rotate(-15)"/>
</clipPath>
<clipPath id="clip12_1722_49239">
<rect width="30" height="24" fill="white" transform="translate(149.45 41.4) rotate(-15)"/>
</clipPath>
<clipPath id="clip13_1722_49239">
<rect width="24" height="24" fill="white" transform="translate(197.746 28.4591) rotate(-15)"/>
</clipPath>
<clipPath id="clip14_1722_49239">
<rect width="24" height="24" fill="white" transform="translate(240.247 17.071) rotate(-15)"/>
</clipPath>
<clipPath id="clip15_1722_49239">
<rect width="27" height="24" fill="white" transform="translate(282.748 5.68298) rotate(-15)"/>
</clipPath>
<clipPath id="clip16_1722_49239">
<rect width="24" height="24" fill="white" transform="translate(328.146 -6.48151) rotate(-15)"/>
</clipPath>
<clipPath id="clip17_1722_49239">
<rect width="21" height="24" fill="white" transform="translate(370.647 -17.8695) rotate(-15)"/>
</clipPath>
<clipPath id="clip18_1722_49239">
<rect width="27" height="24" fill="white" transform="translate(-6.2666 128.676) rotate(-15)"/>
</clipPath>
<clipPath id="clip19_1722_49239">
<rect width="24" height="24" fill="white" transform="translate(39.1318 116.512) rotate(-15)"/>
</clipPath>
<clipPath id="clip20_1722_49239">
<rect width="21" height="24" fill="white" transform="translate(81.6328 105.124) rotate(-15)"/>
</clipPath>
<clipPath id="clip21_1722_49239">
<rect width="30" height="24" fill="white" transform="translate(121.236 94.5123) rotate(-15)"/>
</clipPath>
<clipPath id="clip22_1722_49239">
<rect width="24" height="24" fill="white" transform="translate(169.532 81.5714) rotate(-15)"/>
</clipPath>
<clipPath id="clip23_1722_49239">
<rect width="21" height="24" fill="white" transform="translate(212.033 70.1833) rotate(-15)"/>
</clipPath>
<clipPath id="clip24_1722_49239">
<rect width="30" height="24" fill="white" transform="translate(251.636 59.5718) rotate(-15)"/>
</clipPath>
<clipPath id="clip25_1722_49239">
<rect width="18" height="24" fill="white" transform="translate(299.933 46.6308) rotate(-15)"/>
</clipPath>
<clipPath id="clip26_1722_49239">
<rect width="24" height="24" fill="white" transform="translate(336.638 36.7957) rotate(-15)"/>
</clipPath>
<clipPath id="clip27_1722_49239">
<rect width="24" height="24" fill="white" transform="translate(379.138 25.4077) rotate(-15)"/>
</clipPath>
<clipPath id="clip28_1722_49239">
<rect width="21" height="24" fill="white" transform="translate(47.6221 159.789) rotate(-15)"/>
</clipPath>
<clipPath id="clip29_1722_49239">
<rect width="30" height="24" fill="white" transform="translate(87.2246 149.178) rotate(-15)"/>
</clipPath>
<clipPath id="clip30_1722_49239">
<rect width="18" height="24" fill="white" transform="translate(135.521 136.237) rotate(-15)"/>
</clipPath>
<clipPath id="clip31_1722_49239">
<rect width="30" height="24" fill="white" transform="translate(172.227 126.401) rotate(-15)"/>
</clipPath>
<clipPath id="clip32_1722_49239">
<rect width="24" height="24" fill="white" transform="translate(220.522 113.461) rotate(-15)"/>
</clipPath>
<clipPath id="clip33_1722_49239">
<rect width="24" height="24" fill="white" transform="translate(263.023 102.073) rotate(-15)"/>
</clipPath>
<clipPath id="clip34_1722_49239">
<rect width="27" height="24" fill="white" transform="translate(305.524 90.6844) rotate(-15)"/>
</clipPath>
<clipPath id="clip35_1722_49239">
<rect width="24" height="24" fill="white" transform="translate(350.923 78.52) rotate(-15)"/>
</clipPath>
<clipPath id="clip36_1722_49239">
<rect width="21" height="24" fill="white" transform="translate(393.424 67.132) rotate(-15)"/>
</clipPath>
<clipPath id="clip37_1722_49239">
<rect width="24" height="24" fill="white" transform="translate(192.308 166.573) rotate(-15)"/>
</clipPath>
<clipPath id="clip38_1722_49239">
<rect width="21" height="24" fill="white" transform="translate(234.809 155.185) rotate(-15)"/>
</clipPath>
<clipPath id="clip39_1722_49239">
<rect width="30" height="24" fill="white" transform="translate(274.411 144.573) rotate(-15)"/>
</clipPath>
<clipPath id="clip40_1722_49239">
<rect width="18" height="24" fill="white" transform="translate(322.708 131.632) rotate(-15)"/>
</clipPath>
<clipPath id="clip41_1722_49239">
<rect width="24" height="24" fill="white" transform="translate(359.413 121.797) rotate(-15)"/>
</clipPath>
</defs>
</svg>
