<svg width="396" height="161" viewBox="0 0 396 161" fill="none" xmlns="http://www.w3.org/2000/svg">
<g clip-path="url(#clip0_1722_49086)">
<path d="M-18.5124 27.2627C-20.1107 27.691 -21.062 29.3387 -20.6337 30.937L-15.975 48.3236C-15.5467 49.9219 -13.899 50.8732 -12.3007 50.4449L-2.1585 47.7273C-0.560195 47.2991 0.391084 45.6514 -0.0371804 44.0531L-4.69592 26.6664C-5.12419 25.0681 -6.77185 24.1169 -8.37016 24.5451L-18.5124 27.2627ZM-9.64907 45.8522L-6.75129 45.0757C-6.35285 44.9689 -5.9395 45.2076 -5.83274 45.606C-5.72597 46.0045 -5.96462 46.4178 -6.36307 46.5246L-9.26084 47.301C-9.65929 47.4078 -10.0726 47.1692 -10.1794 46.7707C-10.2862 46.3723 -10.0475 45.9589 -9.64907 45.8522Z" fill="black" fill-opacity="0.1"/>
</g>
<g clip-path="url(#clip1_1722_49086)">
<path d="M22.3363 17.5114C21.762 16.7627 20.7228 16.5607 19.9087 17.036L16.2154 19.1903C15.4858 19.6188 15.1296 20.481 15.348 21.296C18.3495 32.4977 29.8659 39.1467 41.0677 36.1452C41.8827 35.9268 42.4513 35.1873 42.4575 34.3412L42.4765 30.0656C42.4811 29.1229 41.7866 28.3239 40.851 28.2009L36.0191 27.5545C35.1985 27.4443 34.3998 27.8864 34.0634 28.6414L32.8323 31.3637C29.2408 30.7101 25.9684 28.8208 23.6066 26.0372L25.3498 23.6144C25.8342 22.9411 25.819 22.0329 25.3133 21.3773L22.3375 17.5159L22.3363 17.5114Z" fill="black" fill-opacity="0.1"/>
</g>
<g clip-path="url(#clip2_1722_49086)">
<path d="M66.1528 6.12965C65.9381 5.32823 66.4121 4.50727 67.2135 4.29253C74.4172 2.36231 81.8173 6.63478 83.7476 13.8385C83.9623 14.6399 83.4883 15.4609 82.6869 15.6756C81.8855 15.8903 81.0645 15.4163 80.8498 14.6149C79.349 9.01407 73.5908 5.68956 67.99 7.19031C67.1886 7.40505 66.3676 6.93107 66.1528 6.12965ZM62.4915 16.2632L68.4678 19.7137L69.4092 18.0832C69.3459 17.974 69.2939 17.8521 69.2587 17.7208C69.0439 16.9193 69.5179 16.0984 70.3193 15.8836C71.1208 15.6689 71.9417 16.1429 72.1565 16.9443C72.3712 17.7457 71.8972 18.5667 71.0958 18.7814C70.9645 18.8166 70.8374 18.8312 70.7066 18.8323L69.7653 20.4628L75.7417 23.9132C76.5741 24.3938 76.7467 25.5268 75.9729 26.0981C75.0159 26.801 73.9187 27.3425 72.7007 27.6689C67.4983 29.0628 62.1534 25.977 60.7595 20.7746C60.4331 19.5566 60.3534 18.3356 60.4882 17.1542C60.5973 16.203 61.6636 15.7814 62.496 16.262L62.4915 16.2632ZM68.3782 8.6392C73.1776 7.35319 78.1149 10.2037 79.4009 15.0032C79.6156 15.8046 79.1417 16.6255 78.3402 16.8403C77.5388 17.055 76.7179 16.581 76.5031 15.7796C75.6454 12.5785 72.3558 10.6792 69.1547 11.537C68.3532 11.7517 67.5323 11.2777 67.3175 10.4763C67.1028 9.6749 67.5768 8.85394 68.3782 8.6392Z" fill="black" fill-opacity="0.1"/>
</g>
<g clip-path="url(#clip3_1722_49086)">
<path d="M104.234 6.08298L102.69 4.52164C102.077 3.89976 101.867 2.97091 102.287 2.20316C103.648 -0.287133 106.706 -3.96007 111.746 -5.31038C116.785 -6.66069 121.27 -5.00896 123.694 -3.53292C124.442 -3.07818 124.725 -2.16874 124.505 -1.32363L123.952 0.799432C123.773 1.48809 123.132 1.95597 122.418 1.91908L118.423 1.69861C117.778 1.66285 117.226 1.21391 117.058 0.589072L116.394 -1.89215C113.928 -2.10992 111.465 -1.44993 109.439 -0.028652L110.104 2.45257C110.271 3.0774 110.017 3.7423 109.476 4.09592L106.121 6.28091C105.522 6.66963 104.732 6.58513 104.233 6.07845L104.234 6.08298ZM105.098 10.4472C104.991 10.0488 105.229 9.63542 105.628 9.52866L107.077 9.14043C107.475 9.03367 107.889 9.27232 107.995 9.67076L108.384 11.1196C108.49 11.5181 108.252 11.9314 107.853 12.0382L106.404 12.4264C106.006 12.5332 105.593 12.2946 105.486 11.8961L105.098 10.4472ZM106.262 14.7939C106.156 14.3954 106.394 13.9821 106.793 13.8753L108.242 13.4871C108.64 13.3803 109.053 13.619 109.16 14.0174L109.548 15.4663C109.655 15.8648 109.416 16.2781 109.018 16.3849L107.569 16.7731C107.171 16.8799 106.757 16.6412 106.651 16.2428L106.262 14.7939ZM109.975 8.36397L111.423 7.97574C111.822 7.86898 112.235 8.10763 112.342 8.50607L112.73 9.95496C112.837 10.3534 112.598 10.7668 112.2 10.8735L110.751 11.2618C110.353 11.3685 109.939 11.1299 109.832 10.7314L109.444 9.28253C109.338 8.88409 109.576 8.47074 109.975 8.36397ZM113.791 8.11785C113.684 7.7194 113.923 7.30605 114.321 7.19929L115.77 6.81106C116.169 6.7043 116.582 6.94294 116.689 7.34139L117.077 8.79028C117.184 9.18872 116.945 9.60207 116.547 9.70884L115.098 10.0971C114.699 10.2038 114.286 9.96518 114.179 9.56673L113.791 8.11785ZM118.668 6.0346L120.117 5.64637C120.515 5.53961 120.929 5.77826 121.035 6.1767L121.424 7.62559C121.53 8.02404 121.292 8.43739 120.893 8.54415L119.444 8.93238C119.046 9.03914 118.633 8.80049 118.526 8.40205L118.138 6.95316C118.031 6.55471 118.269 6.14136 118.668 6.0346ZM122.484 5.78847C122.378 5.39003 122.616 4.97668 123.015 4.86992L124.463 4.48169C124.862 4.37492 125.275 4.61357 125.382 5.01202L125.77 6.46091C125.877 6.85935 125.638 7.2727 125.24 7.37946L123.791 7.76769C123.393 7.87446 122.979 7.63581 122.872 7.23736L122.484 5.78847ZM124.179 9.21658L125.628 8.82835C126.027 8.72159 126.44 8.96024 126.547 9.35868L126.935 10.8076C127.042 11.206 126.803 11.6194 126.405 11.7261L124.956 12.1144C124.557 12.2211 124.144 11.9825 124.037 11.584L123.649 10.1351C123.542 9.7367 123.781 9.32334 124.179 9.21658ZM110.609 13.6292C110.502 13.2308 110.741 12.8174 111.139 12.7106L121.282 9.99304C121.68 9.88628 122.093 10.1249 122.2 10.5234L122.588 11.9723C122.695 12.3707 122.456 12.7841 122.058 12.8908L111.916 15.6084C111.517 15.7152 111.104 15.4765 110.997 15.0781L110.609 13.6292Z" fill="black" fill-opacity="0.1"/>
</g>
<g clip-path="url(#clip4_1722_49086)">
<path d="M146.243 -14.7479C146.082 -13.4479 146.162 -12.0961 146.524 -10.7469C146.885 -9.39758 147.491 -8.18658 148.281 -7.14128C148.779 -6.47879 148.647 -5.54078 147.985 -5.03845C147.324 -4.53613 146.385 -4.67269 145.883 -5.33396C144.866 -6.68245 144.088 -8.24532 143.626 -9.9704C143.164 -11.6955 143.056 -13.4379 143.262 -15.114C143.366 -15.9378 144.113 -16.5212 144.935 -16.4213C145.758 -16.3214 146.343 -15.5706 146.243 -14.7479ZM167.449 -21.5949C168.466 -20.2465 169.244 -18.6836 169.706 -16.9585C170.168 -15.2334 170.276 -13.491 170.07 -11.815C169.97 -10.9923 169.219 -10.4078 168.397 -10.5076C167.574 -10.6075 166.989 -11.3583 167.089 -12.181C167.251 -13.4811 167.17 -14.8328 166.808 -16.1821C166.447 -17.5313 165.841 -18.7423 165.051 -19.7876C164.553 -20.4501 164.685 -21.3881 165.347 -21.8905C166.008 -22.3928 166.947 -22.2562 167.449 -21.5949ZM159.564 -14.2409C159.851 -13.1678 159.518 -12.0741 158.787 -11.3443L162.385 2.08509C162.6 2.88651 162.126 3.70747 161.325 3.92221C160.523 4.13695 159.702 3.66296 159.488 2.86155L155.889 -10.5678C154.89 -10.8387 154.056 -11.6149 153.768 -12.688C153.34 -14.2863 154.291 -15.934 155.89 -16.3622C157.488 -16.7905 159.136 -15.8392 159.564 -14.2409ZM150.729 -14.3584C150.611 -13.5695 150.648 -12.7401 150.87 -11.9115C151.093 -11.083 151.474 -10.3458 151.972 -9.72192C152.49 -9.07456 152.384 -8.12903 151.735 -7.61555C151.087 -7.10206 150.142 -7.20329 149.629 -7.85187C148.876 -8.79546 148.303 -9.90353 147.973 -11.1351C147.643 -12.3666 147.585 -13.613 147.765 -14.8065C147.89 -15.6262 148.652 -16.1893 149.471 -16.0644C150.291 -15.9394 150.854 -15.178 150.729 -14.3584ZM163.703 -19.077C164.456 -18.1335 165.029 -17.0254 165.359 -15.7938C165.689 -14.5623 165.747 -13.3159 165.567 -12.1224C165.442 -11.3027 164.68 -10.7396 163.861 -10.8645C163.041 -10.9895 162.478 -11.7509 162.603 -12.5705C162.721 -13.3594 162.684 -14.1888 162.462 -15.0174C162.24 -15.846 161.858 -16.5832 161.36 -17.207C160.842 -17.8544 160.948 -18.7999 161.597 -19.3134C162.245 -19.8269 163.19 -19.7256 163.703 -19.077Z" fill="black" fill-opacity="0.1"/>
</g>
<g clip-path="url(#clip5_1722_49086)">
<path d="M-7.79737 73.0494C-8.99723 73.3709 -9.70986 74.6052 -9.38836 75.8051C-9.20516 76.4888 -8.71142 77.0456 -8.05315 77.3108L3.77926 82.0602C4.39855 82.3068 5.10488 82.1175 5.51792 81.5943L13.3904 71.5651C13.8279 71.0062 13.9771 70.2771 13.7939 69.5935C13.4724 68.3936 12.238 67.681 11.0382 68.0025L-7.79737 73.0494ZM-8.6119 78.7029L-6.08842 88.1207C-5.66015 89.719 -4.01249 90.6702 -2.41418 90.242L14.9725 85.5832C16.5708 85.155 17.5221 83.5073 17.0938 81.909L14.5703 72.4912L6.69784 82.5205C5.87297 83.5714 4.4603 83.9499 3.22051 83.4523L-8.6119 78.7029Z" fill="black" fill-opacity="0.1"/>
</g>
<g clip-path="url(#clip6_1722_49086)">
<path d="M42.6714 61.0794L39.4386 61.9456L37.7995 62.3848L37.2653 62.528L37.372 62.9264L37.8476 64.7013L38.3377 66.5305L39.4175 70.5603L34.2197 68.5123C34.0726 67.6734 34.2898 66.7999 34.8277 66.1268L35.6294 65.1161L35.0919 63.1103C34.7704 61.9105 35.4831 60.6762 36.6829 60.3547L40.1512 59.4253L41.9629 57.1492C42.3147 56.7055 42.7972 56.387 43.345 56.2402C43.8929 56.0934 44.4699 56.128 44.9953 56.3318L47.7035 57.4017L51.1718 56.4724C52.3717 56.1509 53.606 56.8635 53.9275 58.0634L54.4649 60.0692L55.6645 60.5436C56.4669 60.8576 57.0918 61.5054 57.3838 62.3055L53.9064 66.678L52.8266 62.6483L52.3365 60.819L51.8609 59.0441L51.7541 58.6457L51.2199 58.7889L49.5808 59.228L46.348 60.0943L42.6669 61.0806L42.6714 61.0794ZM37.1891 79.6305L34.6911 70.3078L46.4992 74.9666C47.1013 75.2032 47.7672 75.2432 48.392 75.0757C49.0168 74.9083 49.5747 74.5453 49.9766 74.0348L57.8733 64.0961L60.3713 73.4188C60.7996 75.0171 59.8483 76.6648 58.25 77.093L40.8633 81.7518C39.265 82.18 37.6174 81.2288 37.1891 79.6305ZM41.6639 64.4552L48.9084 62.5141C49.3068 62.4073 49.7202 62.6459 49.8269 63.0444C49.9337 63.4428 49.6951 63.8562 49.2966 63.9629L42.0522 65.9041C41.6537 66.0108 41.2404 65.7722 41.1336 65.3738C41.0268 64.9753 41.2655 64.562 41.6639 64.4552ZM42.4404 67.353L49.6848 65.4118C50.0833 65.3051 50.4966 65.5437 50.6034 65.9422C50.7102 66.3406 50.4715 66.754 50.0731 66.8607L42.8286 68.8019C42.4302 68.9086 42.0168 68.67 41.9101 68.2715C41.8033 67.8731 42.0419 67.4597 42.4404 67.353Z" fill="black" fill-opacity="0.1"/>
</g>
<g clip-path="url(#clip7_1722_49086)">
<path d="M77.1175 47.3026C76.2949 47.2027 75.5486 47.7861 75.4442 48.6099C75.2382 50.286 75.3459 52.0284 75.8082 53.7535C76.2704 55.4786 77.0483 57.0414 78.0647 58.3899C78.5625 59.0524 79.5051 59.1832 80.1676 58.6854C80.83 58.1876 80.9609 57.2451 80.4631 56.5826C79.6734 55.5373 79.0675 54.3263 78.7059 52.977C78.3444 51.6278 78.2637 50.276 78.4249 48.9759C78.5247 48.1533 77.9414 47.407 77.1175 47.3026ZM97.5288 41.8334C96.8675 42.3358 96.7354 43.2738 97.2332 43.9363C98.0229 44.9816 98.6288 46.1926 98.9904 47.5418C99.3519 48.8911 99.4326 50.2428 99.2714 51.5429C99.1716 52.3655 99.7549 53.1119 100.579 53.2163C101.403 53.3207 102.148 52.7328 102.252 51.9089C102.458 50.2329 102.35 48.4905 101.888 46.7654C101.426 45.0403 100.648 43.4774 99.6316 42.1289C99.1292 41.4677 98.1912 41.3356 97.5288 41.8334ZM91.6584 51.3117C91.8706 50.7453 91.9146 50.1123 91.7459 49.483C91.3177 47.8847 89.67 46.9334 88.0717 47.3617C86.4734 47.7899 85.5221 49.4376 85.9504 51.0359C86.119 51.6652 86.4735 52.1914 86.9405 52.5758L84.3965 67.8937C84.2613 68.7113 84.8133 69.4854 85.6308 69.6206C86.4484 69.7558 87.2225 69.2038 87.3577 68.3863L87.7363 66.0865L97.7246 63.4101L99.2057 65.2068C99.7315 65.8472 100.678 65.9381 101.318 65.4123C101.959 64.8864 102.05 63.94 101.524 63.2996L91.6584 51.3117ZM95.6305 60.8654L88.2774 62.8357L88.5457 61.2109L94.5813 59.5937L95.626 60.8666L95.6305 60.8654ZM89.786 53.7594L92.4917 57.0477L89.0868 57.96L89.786 53.7594ZM82.542 49.3092C82.6352 48.697 82.2139 48.1208 81.5972 48.0289C80.9805 47.9369 80.4088 48.357 80.3169 48.9737C80.1473 50.1159 80.2004 51.31 80.517 52.4917C80.8337 53.6735 81.3848 54.7342 82.1027 55.6386C82.4895 56.1221 83.2004 56.2034 83.6839 55.8166C84.1675 55.4299 84.2488 54.719 83.862 54.2354C83.3301 53.5724 82.9257 52.7878 82.6904 51.9094C82.455 51.031 82.4129 50.1494 82.542 49.3092ZM95.5936 44.8803C95.2068 44.3967 94.4959 44.3155 94.0124 44.7022C93.5288 45.089 93.4475 45.7999 93.8343 46.2834C94.3662 46.9465 94.7706 47.7311 95.0059 48.6095C95.2413 49.4878 95.2834 50.3695 95.1543 51.2097C95.0611 51.8218 95.4824 52.398 96.0991 52.49C96.7158 52.582 97.2875 52.1619 97.3794 51.5452C97.549 50.403 97.4959 49.2089 97.1793 48.0271C96.8626 46.8454 96.3115 45.7847 95.5936 44.8803Z" fill="black" fill-opacity="0.1"/>
</g>
<g clip-path="url(#clip8_1722_49086)">
<path d="M127.418 34.9067C126.844 34.1579 125.805 33.956 124.991 34.4313L121.297 36.5856C120.568 37.014 120.212 37.8762 120.43 38.6912C123.432 49.8929 134.948 56.542 146.15 53.5405C146.965 53.3221 147.533 52.5825 147.54 51.7365L147.559 47.4608C147.563 46.5182 146.869 45.7191 145.933 45.5961L141.101 44.9497C140.281 44.8396 139.482 45.2817 139.145 46.0367L137.914 48.759C134.323 48.1053 131.05 46.216 128.689 43.4325L130.432 41.0097C130.916 40.3364 130.901 39.4281 130.395 38.7726L127.42 34.9112L127.418 34.9067Z" fill="black" fill-opacity="0.1"/>
</g>
<g clip-path="url(#clip9_1722_49086)">
<path d="M165.777 23.4348C164.178 23.8631 163.227 25.5108 163.655 27.1091L168.314 44.4957C168.742 46.0941 170.39 47.0453 171.988 46.6171L182.131 43.8995C183.729 43.4712 184.68 41.8235 184.252 40.2252L179.593 22.8386C179.165 21.2403 177.517 20.289 175.919 20.7172L165.777 23.4348ZM174.64 42.0243L177.538 41.2478C177.936 41.1411 178.35 41.3797 178.456 41.7781C178.563 42.1766 178.324 42.5899 177.926 42.6967L175.028 43.4732C174.63 43.5799 174.216 43.3413 174.11 42.9428C174.003 42.5444 174.242 42.131 174.64 42.0243Z" fill="black" fill-opacity="0.1"/>
</g>
<g clip-path="url(#clip10_1722_49086)">
<path d="M209.777 16.3037L206.544 17.17L204.905 17.6091L204.371 17.7523L204.477 18.1507L204.953 19.9256L205.443 21.7548L206.523 25.7846L201.325 23.7366C201.178 22.8977 201.395 22.0242 201.933 21.3511L202.735 20.3404L202.197 18.3346C201.876 17.1348 202.589 15.9005 203.788 15.579L207.257 14.6496L209.068 12.3735C209.42 11.9298 209.903 11.6113 210.45 11.4645C210.998 11.3177 211.575 11.3523 212.101 11.5561L214.809 12.626L218.277 11.6967C219.477 11.3752 220.711 12.0878 221.033 13.2877L221.57 15.2935L222.77 15.7679C223.572 16.0819 224.197 16.7297 224.489 17.5298L221.012 21.9023L219.932 17.8726L219.442 16.0433L218.966 14.2685L218.86 13.87L218.325 14.0132L216.686 14.4524L213.453 15.3186L209.772 16.3049L209.777 16.3037ZM204.295 34.8548L201.797 25.5321L213.605 30.1909C214.207 30.4275 214.873 30.4675 215.497 30.3C216.122 30.1326 216.68 29.7696 217.082 29.2591L224.979 19.3204L227.477 28.6431C227.905 30.2414 226.954 31.8891 225.355 32.3173L207.969 36.9761C206.371 37.4043 204.723 36.4531 204.295 34.8548ZM208.769 19.6795L216.014 17.7384C216.412 17.6316 216.826 17.8702 216.932 18.2687C217.039 18.6671 216.801 19.0805 216.402 19.1872L209.158 21.1284C208.759 21.2352 208.346 20.9965 208.239 20.5981C208.132 20.1996 208.371 19.7863 208.769 19.6795ZM209.546 22.5773L216.79 20.6361C217.189 20.5294 217.602 20.768 217.709 21.1665C217.816 21.5649 217.577 21.9783 217.179 22.085L209.934 24.0262C209.536 24.1329 209.122 23.8943 209.016 23.4958C208.909 23.0974 209.147 22.684 209.546 22.5773Z" fill="black" fill-opacity="0.1"/>
</g>
<g clip-path="url(#clip11_1722_49086)">
<path d="M246.723 2.91012C246.561 2.30792 245.947 1.95326 245.345 2.11462C244.743 2.27598 244.388 2.89027 244.549 3.49246L245.423 6.75246L244.698 6.94657C243.499 7.26808 242.786 8.50239 243.107 9.70225L245.001 16.7701C245.155 17.3451 245.534 17.8357 246.051 18.134L246.275 18.2632C246.791 18.5615 247.17 19.0521 247.324 19.6271L248.439 23.8029C248.76 25.0028 249.994 25.7154 251.194 25.3939L261.336 22.6763C262.536 22.3548 263.249 21.1205 262.927 19.9206L261.81 15.7505C261.656 15.1755 261.739 14.5612 262.037 14.0446L262.166 13.8207C262.465 13.304 262.548 12.6897 262.394 12.1147L260.494 5.04351C260.173 3.84365 258.938 3.13102 257.738 3.45252L257.014 3.64663C256.799 2.84521 255.978 2.37123 255.177 2.58597C254.375 2.80071 253.901 3.62167 254.116 4.42309L252.667 4.81132C252.453 4.0099 251.632 3.53592 250.83 3.75066C250.029 3.9654 249.555 4.78636 249.769 5.58777L247.596 6.17012L246.723 2.91012ZM248.373 9.06789L255.617 7.12675C256.015 7.01999 256.429 7.25864 256.536 7.65708C256.642 8.05553 256.404 8.46888 256.005 8.57564L248.761 10.5168C248.362 10.6235 247.949 10.3849 247.842 9.98645C247.736 9.58801 247.974 9.17466 248.373 9.06789ZM249.149 11.9657L256.394 10.0245C256.792 9.91777 257.205 10.1564 257.312 10.5549C257.419 10.9533 257.18 11.3667 256.782 11.4734L249.537 13.4146C249.139 13.5213 248.725 13.2827 248.619 12.8842C248.512 12.4858 248.751 12.0724 249.149 11.9657ZM249.926 14.8634L257.17 12.9223C257.568 12.8155 257.982 13.0542 258.089 13.4526C258.195 13.8511 257.957 14.2644 257.558 14.3712L250.314 16.3123C249.915 16.4191 249.502 16.1805 249.395 15.782C249.288 15.3836 249.527 14.9702 249.926 14.8634Z" fill="black" fill-opacity="0.1"/>
</g>
<g clip-path="url(#clip12_1722_49086)">
<path d="M287.769 -7.56423C288.352 -7.47284 288.831 -7.04313 288.984 -6.47263L289.76 -3.57486L294.831 -4.93366C299.232 -6.1129 303.756 -3.50102 304.936 0.899975C306.31 6.02995 303.234 9.30977 302.511 9.99848C302.415 10.0922 302.294 10.1488 302.167 10.1828C301.674 10.315 301.167 10.0188 301.036 9.52981C300.945 9.19022 301.056 8.82564 301.243 8.52799C301.562 8.01551 301.928 7.06333 301.561 5.69141C300.918 3.29169 298.449 1.86643 296.049 2.50943L291.703 3.67412L292.479 6.57189C292.632 7.14239 292.436 7.75286 291.973 8.12452C291.51 8.49616 290.878 8.56365 290.35 8.29736L281.359 3.7185C280.98 3.51907 280.699 3.17699 280.589 2.76497C280.478 2.35294 280.55 1.91623 280.78 1.55875L286.277 -6.90239C286.6 -7.40129 287.186 -7.66016 287.769 -7.56423Z" fill="black" fill-opacity="0.1"/>
</g>
<g clip-path="url(#clip13_1722_49086)">
<path d="M323.515 -15.7255C322.315 -15.404 321.603 -14.1697 321.924 -12.9698C322.107 -12.2861 322.601 -11.7293 323.259 -11.4641L335.092 -6.71469C335.711 -6.46813 336.417 -6.65739 336.83 -7.18056L344.703 -17.2098C345.14 -17.7687 345.29 -18.4978 345.106 -19.1815C344.785 -20.3813 343.551 -21.0939 342.351 -20.7724L323.515 -15.7255ZM322.701 -10.072L325.224 -0.65424C325.652 0.944065 327.3 1.89534 328.898 1.46708L346.285 -3.19166C347.883 -3.61993 348.835 -5.26759 348.406 -6.8659L345.883 -16.2837L338.01 -6.25439C337.185 -5.20352 335.773 -4.825 334.533 -5.32264L322.701 -10.072Z" fill="black" fill-opacity="0.1"/>
</g>
<g clip-path="url(#clip14_1722_49086)">
<path d="M4.26301 112.264C2.66471 112.692 1.71343 114.34 2.14169 115.938L6.80043 133.325C7.2287 134.923 8.87636 135.875 10.4747 135.446L20.6169 132.729C22.2152 132.301 23.1665 130.653 22.7382 129.055L18.0795 111.668C17.6512 110.07 16.0035 109.118 14.4052 109.547L4.26301 112.264ZM13.1263 130.854L16.0241 130.077C16.4225 129.97 16.8359 130.209 16.9427 130.607C17.0494 131.006 16.8108 131.419 16.4123 131.526L13.5145 132.303C13.1161 132.409 12.7028 132.171 12.596 131.772C12.4892 131.374 12.7279 130.96 13.1263 130.854Z" fill="black" fill-opacity="0.1"/>
</g>
<g clip-path="url(#clip15_1722_49086)">
<path d="M45.1117 102.513C44.5374 101.764 43.4982 101.562 42.6841 102.038L38.9908 104.192C38.2612 104.62 37.905 105.482 38.1234 106.297C41.1249 117.499 52.6413 124.148 63.8431 121.147C64.6581 120.928 65.2266 120.189 65.2329 119.343L65.2519 115.067C65.2565 114.124 64.562 113.325 63.6264 113.202L58.7945 112.556C57.9739 112.446 57.1752 112.888 56.8388 113.643L55.6077 116.365C52.0162 115.712 48.7438 113.822 46.3819 111.039L48.1252 108.616C48.6096 107.943 48.5944 107.034 48.0887 106.379L45.1129 102.517L45.1117 102.513Z" fill="black" fill-opacity="0.1"/>
</g>
<g clip-path="url(#clip16_1722_49086)">
<path d="M88.9282 91.1311C88.7135 90.3297 89.1875 89.5087 89.9889 89.294C97.1926 87.3638 104.593 91.6362 106.523 98.8399C106.738 99.6414 106.264 100.462 105.462 100.677C104.661 100.892 103.84 100.418 103.625 99.6164C102.124 94.0155 96.3662 90.691 90.7654 92.1918C89.9639 92.4065 89.143 91.9325 88.9282 91.1311ZM85.2669 101.265L91.2432 104.715L92.1846 103.085C92.1213 102.975 92.0693 102.854 92.0341 102.722C91.8193 101.921 92.2933 101.1 93.0947 100.885C93.8961 100.67 94.7171 101.144 94.9318 101.946C95.1466 102.747 94.6726 103.568 93.8712 103.783C93.7399 103.818 93.6128 103.833 93.482 103.834L92.5407 105.464L98.5171 108.915C99.3495 109.395 99.5221 110.528 98.7483 111.1C97.7913 111.802 96.6941 112.344 95.4761 112.67C90.2737 114.064 84.9288 110.978 83.5349 105.776C83.2085 104.558 83.1288 103.337 83.2636 102.156C83.3727 101.204 84.4389 100.783 85.2714 101.263L85.2669 101.265ZM91.1536 93.6407C95.953 92.3547 100.89 95.2052 102.176 100.005C102.391 100.806 101.917 101.627 101.116 101.842C100.314 102.056 99.4933 101.582 99.2785 100.781C98.4208 97.5799 95.1312 95.6807 91.93 96.5384C91.1286 96.7532 90.3077 96.2792 90.0929 95.4778C89.8782 94.6764 90.3522 93.8554 91.1536 93.6407Z" fill="black" fill-opacity="0.1"/>
</g>
<g clip-path="url(#clip17_1722_49086)">
<path d="M127.009 91.0844L125.465 89.5231C124.852 88.9012 124.642 87.9724 125.062 87.2046C126.423 84.7143 129.482 81.0414 134.521 79.6911C139.561 78.3408 144.046 79.9925 146.47 81.4685C147.217 81.9233 147.5 82.8327 147.28 83.6778L146.728 85.8009C146.548 86.4896 145.907 86.9574 145.193 86.9205L141.199 86.7001C140.553 86.6643 140.001 86.2154 139.834 85.5905L139.169 83.1093C136.704 82.8915 134.24 83.5515 132.214 84.9728L132.879 87.454C133.047 88.0789 132.793 88.7438 132.252 89.0974L128.897 91.2824C128.297 91.6711 127.508 91.5866 127.008 91.0799L127.009 91.0844ZM127.873 95.4487C127.766 95.0502 128.005 94.6369 128.403 94.5301L129.852 94.1419C130.251 94.0351 130.664 94.2738 130.771 94.6722L131.159 96.1211C131.266 96.5196 131.027 96.9329 130.629 97.0397L129.18 97.4279C128.781 97.5347 128.368 97.296 128.261 96.8976L127.873 95.4487ZM129.038 99.7953C128.931 99.3969 129.17 98.9836 129.568 98.8768L131.017 98.4886C131.415 98.3818 131.829 98.6204 131.935 99.0189L132.324 100.468C132.43 100.866 132.192 101.28 131.793 101.386L130.344 101.775C129.946 101.881 129.533 101.643 129.426 101.244L129.038 99.7953ZM132.75 93.3654L134.199 92.9772C134.597 92.8704 135.011 93.1091 135.117 93.5075L135.506 94.9564C135.612 95.3549 135.374 95.7682 134.975 95.875L133.526 96.2632C133.128 96.37 132.715 96.1313 132.608 95.7329L132.22 94.284C132.113 93.8856 132.352 93.4722 132.75 93.3654ZM136.566 93.1193C136.46 92.7209 136.698 92.3075 137.097 92.2008L138.546 91.8125C138.944 91.7058 139.357 91.9444 139.464 92.3429L139.852 93.7917C139.959 94.1902 139.72 94.6035 139.322 94.7103L137.873 95.0985C137.475 95.2053 137.061 94.9666 136.955 94.5682L136.566 93.1193ZM141.443 91.0361L142.892 90.6478C143.291 90.5411 143.704 90.7797 143.811 91.1782L144.199 92.6271C144.306 93.0255 144.067 93.4389 143.669 93.5456L142.22 93.9338C141.821 94.0406 141.408 93.802 141.301 93.4035L140.913 91.9546C140.806 91.5562 141.045 91.1428 141.443 91.0361ZM145.26 90.7899C145.153 90.3915 145.392 89.9781 145.79 89.8714L147.239 89.4832C147.637 89.3764 148.051 89.615 148.157 90.0135L148.546 91.4624C148.652 91.8608 148.414 92.2742 148.015 92.3809L146.566 92.7692C146.168 92.8759 145.755 92.6373 145.648 92.2388L145.26 90.7899ZM146.955 94.218L148.404 93.8298C148.802 93.7231 149.215 93.9617 149.322 94.3601L149.71 95.809C149.817 96.2075 149.578 96.6208 149.18 96.7276L147.731 97.1158C147.333 97.2226 146.919 96.9839 146.813 96.5855L146.424 95.1366C146.318 94.7382 146.556 94.3248 146.955 94.218ZM133.384 98.6307C133.278 98.2322 133.516 97.8189 133.915 97.7121L144.057 94.9945C144.455 94.8877 144.869 95.1264 144.975 95.5248L145.364 96.9737C145.47 97.3722 145.232 97.7855 144.833 97.8923L134.691 100.61C134.293 100.717 133.879 100.478 133.773 100.08L133.384 98.6307Z" fill="black" fill-opacity="0.1"/>
</g>
<g clip-path="url(#clip18_1722_49086)">
<path d="M169.018 70.2535C168.857 71.5536 168.938 72.9053 169.299 74.2546C169.661 75.6039 170.267 76.8149 171.056 77.8602C171.554 78.5227 171.422 79.4607 170.761 79.963C170.1 80.4653 169.16 80.3288 168.658 79.6675C167.642 78.319 166.864 76.7561 166.401 75.0311C165.939 73.306 165.831 71.5636 166.037 69.8875C166.142 69.0637 166.888 68.4803 167.711 68.5802C168.533 68.68 169.118 69.4309 169.018 70.2535ZM190.225 63.4065C191.241 64.755 192.019 66.3179 192.481 68.043C192.944 69.768 193.051 71.5105 192.845 73.1865C192.746 74.0091 191.995 74.5937 191.172 74.4938C190.349 74.394 189.765 73.6431 189.865 72.8205C190.026 71.5204 189.945 70.1687 189.584 68.8194C189.222 67.4701 188.616 66.2591 187.827 65.2138C187.329 64.5513 187.461 63.6133 188.122 63.111C188.783 62.6087 189.723 62.7452 190.225 63.4065ZM182.339 70.7606C182.627 71.8336 182.294 72.9274 181.562 73.6572L185.161 87.0866C185.376 87.888 184.902 88.7089 184.1 88.9237C183.299 89.1384 182.478 88.6644 182.263 87.863L178.665 74.4336C177.665 74.1628 176.831 73.3865 176.544 72.3135C176.115 70.7152 177.067 69.0675 178.665 68.6392C180.263 68.211 181.911 69.1622 182.339 70.7606ZM173.505 70.6431C173.386 71.4319 173.424 72.2613 173.646 73.0899C173.868 73.9185 174.25 74.6557 174.747 75.2795C175.265 75.9269 175.159 76.8724 174.511 77.3859C173.862 77.8994 172.918 77.7982 172.404 77.1496C171.652 76.206 171.078 75.0979 170.748 73.8664C170.418 72.6348 170.361 71.3885 170.541 70.1949C170.666 69.3753 171.427 68.8122 172.247 68.9371C173.066 69.062 173.63 69.8235 173.505 70.6431ZM186.479 65.9244C187.231 66.868 187.805 67.9761 188.135 69.2076C188.465 70.4392 188.522 71.6856 188.342 72.8791C188.217 73.6987 187.456 74.2619 186.636 74.1369C185.816 74.012 185.253 73.2506 185.378 72.4309C185.497 71.6421 185.459 70.8127 185.237 69.9841C185.015 69.1555 184.633 68.4183 184.136 67.7945C183.618 67.1471 183.724 66.2016 184.372 65.6881C185.021 65.1746 185.965 65.2758 186.479 65.9244Z" fill="black" fill-opacity="0.1"/>
</g>
<g clip-path="url(#clip19_1722_49086)">
<path d="M215.609 56.7989C215.448 56.1967 214.834 55.8421 214.232 56.0034C213.629 56.1648 213.275 56.7791 213.436 57.3813L214.31 60.6413L213.585 60.8354C212.385 61.1569 211.673 62.3912 211.994 63.591L213.888 70.6589C214.042 71.2339 214.421 71.7244 214.938 72.0228L215.162 72.152C215.678 72.4503 216.057 72.9409 216.211 73.5159L217.325 77.6917C217.647 78.8916 218.881 79.6042 220.081 79.2827L230.223 76.5651C231.423 76.2436 232.136 75.0093 231.814 73.8094L230.697 69.6393C230.543 69.0643 230.626 68.45 230.924 67.9334L231.053 67.7095C231.352 67.1928 231.434 66.5785 231.28 66.0035L229.381 58.9323C229.059 57.7324 227.825 57.0198 226.625 57.3413L225.901 57.5354C225.686 56.734 224.865 56.26 224.064 56.4748C223.262 56.6895 222.788 57.5105 223.003 58.3119L221.554 58.7001C221.339 57.8987 220.518 57.4247 219.717 57.6395C218.915 57.8542 218.441 58.6752 218.656 59.4766L216.483 60.0589L215.609 56.7989ZM217.259 62.9567L224.504 61.0155C224.902 60.9088 225.316 61.1474 225.422 61.5459C225.529 61.9443 225.29 62.3577 224.892 62.4644L217.648 64.4056C217.249 64.5123 216.836 64.2737 216.729 63.8752C216.622 63.4768 216.861 63.0635 217.259 62.9567ZM218.036 65.8545L225.28 63.9133C225.679 63.8066 226.092 64.0452 226.199 64.4437C226.306 64.8421 226.067 65.2554 225.668 65.3622L218.424 67.3034C218.026 67.4101 217.612 67.1715 217.505 66.773C217.399 66.3746 217.637 65.9612 218.036 65.8545ZM218.812 68.7522L226.057 66.8111C226.455 66.7043 226.868 66.943 226.975 67.3414C227.082 67.7399 226.843 68.1532 226.445 68.26L219.2 70.2011C218.802 70.3079 218.389 70.0692 218.282 69.6708C218.175 69.2724 218.414 68.859 218.812 68.7522Z" fill="black" fill-opacity="0.1"/>
</g>
<g clip-path="url(#clip20_1722_49086)">
<path d="M254.717 46.3491C254.143 45.6004 253.104 45.3984 252.29 45.8737L248.596 48.028C247.867 48.4565 247.511 49.3187 247.729 50.1337C250.73 61.3354 262.247 67.9844 273.449 64.9829C274.264 64.7645 274.832 64.025 274.838 63.1789L274.857 58.9033C274.862 57.9606 274.167 57.1616 273.232 57.0386L268.4 56.3922C267.579 56.282 266.781 56.7241 266.444 57.4791L265.213 60.2014C261.622 59.5478 258.349 57.6585 255.987 54.8749L257.731 52.4521C258.215 51.7788 258.2 50.8706 257.694 50.215L254.718 46.3537L254.717 46.3491Z" fill="black" fill-opacity="0.1"/>
</g>
<g clip-path="url(#clip21_1722_49086)">
<path d="M298.535 34.9674C298.32 34.166 298.794 33.345 299.595 33.1303C306.799 31.2001 314.199 35.4725 316.129 42.6762C316.344 43.4777 315.87 44.2986 315.069 44.5134C314.267 44.7281 313.446 44.2541 313.232 43.4527C311.731 37.8518 305.973 34.5273 300.372 36.0281C299.57 36.2428 298.749 35.7688 298.535 34.9674ZM294.873 45.101L300.85 48.5514L301.791 46.921C301.728 46.8118 301.676 46.6898 301.641 46.5585C301.426 45.7571 301.9 44.9361 302.701 44.7214C303.503 44.5067 304.324 44.9807 304.538 45.7821C304.753 46.5835 304.279 47.4044 303.478 47.6192C303.346 47.6544 303.219 47.669 303.088 47.6701L302.147 49.3005L308.124 52.751C308.956 53.2316 309.129 54.3646 308.355 54.9359C307.398 55.6388 306.301 56.1803 305.083 56.5066C299.88 57.9006 294.535 54.8148 293.141 49.6123C292.815 48.3944 292.735 47.1734 292.87 45.992C292.979 45.0407 294.045 44.6191 294.878 45.0998L294.873 45.101ZM300.76 37.477C305.559 36.191 310.497 39.0415 311.783 43.8409C311.997 44.6423 311.523 45.4633 310.722 45.678C309.921 45.8928 309.1 45.4188 308.885 44.6174C308.027 41.4162 304.738 39.517 301.536 40.3747C300.735 40.5895 299.914 40.1155 299.699 39.3141C299.485 38.5127 299.959 37.6917 300.76 37.477Z" fill="black" fill-opacity="0.1"/>
</g>
<g clip-path="url(#clip22_1722_49086)">
<path d="M334.816 23.8045C333.993 23.7046 333.247 24.288 333.142 25.1118C332.936 26.7879 333.044 28.5303 333.506 30.2554C333.969 31.9805 334.747 33.5433 335.763 34.8918C336.261 35.5543 337.203 35.6851 337.866 35.1873C338.528 34.6895 338.659 33.747 338.161 33.0845C337.372 32.0392 336.766 30.8282 336.404 29.4789C336.043 28.1296 335.962 26.7779 336.123 25.4778C336.223 24.6552 335.64 23.9089 334.816 23.8045ZM355.227 18.3353C354.566 18.8376 354.434 19.7757 354.931 20.4381C355.721 21.4835 356.327 22.6944 356.689 24.0437C357.05 25.393 357.131 26.7447 356.97 28.0448C356.87 28.8674 357.453 29.6138 358.277 29.7182C359.101 29.8225 359.846 29.2347 359.95 28.4108C360.156 26.7348 360.049 24.9923 359.586 23.2673C359.124 21.5422 358.346 19.9793 357.33 18.6308C356.827 17.9696 355.889 17.8375 355.227 18.3353ZM349.357 27.8136C349.569 27.2472 349.613 26.6142 349.444 25.9849C349.016 24.3866 347.368 23.4353 345.77 23.8635C344.172 24.2918 343.22 25.9395 343.649 27.5378C343.817 28.1671 344.172 28.6933 344.639 29.0777L342.095 44.3956C341.96 45.2132 342.512 45.9873 343.329 46.1225C344.147 46.2577 344.921 45.7057 345.056 44.8882L345.435 42.5884L355.423 39.912L356.904 41.7087C357.43 42.3491 358.376 42.44 359.017 41.9142C359.657 41.3883 359.748 40.4419 359.222 39.8015L349.357 27.8136ZM353.329 37.3673L345.976 39.3376L346.244 37.7128L352.279 36.0955L353.324 37.3685L353.329 37.3673ZM347.484 30.2613L350.19 33.5496L346.785 34.4619L347.484 30.2613ZM340.24 25.8111C340.333 25.1989 339.912 24.6227 339.295 24.5308C338.679 24.4388 338.107 24.8589 338.015 25.4756C337.846 26.6177 337.899 27.8119 338.215 28.9936C338.532 30.1754 339.083 31.2361 339.801 32.1405C340.188 32.624 340.899 32.7053 341.382 32.3185C341.866 31.9318 341.947 31.2209 341.56 30.7373C341.028 30.0743 340.624 29.2897 340.389 28.4113C340.153 27.5329 340.111 26.6513 340.24 25.8111ZM353.292 21.3822C352.905 20.8986 352.194 20.8173 351.711 21.2041C351.227 21.5909 351.146 22.3018 351.533 22.7853C352.064 23.4484 352.469 24.233 352.704 25.1114C352.94 25.9897 352.982 26.8714 352.853 27.7116C352.759 28.3237 353.181 28.8999 353.797 28.9919C354.414 29.0839 354.986 28.6638 355.078 28.0471C355.247 26.9049 355.194 25.7108 354.878 24.529C354.561 23.3473 354.01 22.2866 353.292 21.3822Z" fill="black" fill-opacity="0.1"/>
</g>
<g clip-path="url(#clip23_1722_49086)">
<path d="M380.975 11.3248C379.377 11.7531 378.425 13.4007 378.854 14.999L383.512 32.3857C383.941 33.984 385.588 34.9353 387.187 34.507L397.329 31.7894C398.927 31.3612 399.878 29.7135 399.45 28.1152L394.791 10.7285C394.363 9.13022 392.715 8.17894 391.117 8.6072L380.975 11.3248ZM389.838 29.9142L392.736 29.1378C393.134 29.031 393.548 29.2697 393.655 29.6681C393.761 30.0665 393.523 30.4799 393.124 30.5867L390.226 31.3631C389.828 31.4699 389.415 31.2312 389.308 30.8328C389.201 30.4343 389.44 30.021 389.838 29.9142Z" fill="black" fill-opacity="0.1"/>
</g>
<g clip-path="url(#clip24_1722_49086)">
<path d="M14.979 158.051C13.7791 158.372 13.0665 159.607 13.388 160.807C13.5712 161.49 14.065 162.047 14.7232 162.312L26.5556 167.062C27.1749 167.308 27.8812 167.119 28.2943 166.596L36.1668 156.567C36.6042 156.008 36.7534 155.279 36.5702 154.595C36.2487 153.395 35.0144 152.682 33.8146 153.004L14.979 158.051ZM14.1645 163.704L16.6879 173.122C17.1162 174.72 18.7639 175.672 20.3622 175.243L37.7488 170.585C39.3472 170.156 40.2984 168.509 39.8702 166.91L37.3467 157.493L29.4742 167.522C28.6493 168.573 27.2367 168.951 25.9969 168.454L14.1645 163.704Z" fill="black" fill-opacity="0.1"/>
</g>
<g clip-path="url(#clip25_1722_49086)">
<path d="M65.4478 146.081L62.215 146.947L60.5759 147.386L60.0416 147.529L60.1484 147.928L60.624 149.703L61.1141 151.532L62.1939 155.562L56.9961 153.514C56.8489 152.675 57.0662 151.801 57.6041 151.128L58.4057 150.118L57.8683 148.112C57.5468 146.912 58.2594 145.678 59.4593 145.356L62.9276 144.427L64.7392 142.151C65.0911 141.707 65.5735 141.388 66.1214 141.242C66.6692 141.095 67.2463 141.129 67.7716 141.333L70.4799 142.403L73.9482 141.474C75.148 141.152 76.3823 141.865 76.7038 143.065L77.2413 145.071L78.4409 145.545C79.2433 145.859 79.8682 146.507 80.1602 147.307L76.6828 151.679L75.603 147.65L75.1129 145.821L74.6373 144.046L74.5305 143.647L73.9962 143.79L72.3572 144.23L69.1243 145.096L65.4433 146.082L65.4478 146.081ZM59.9655 164.632L57.4675 155.309L69.2756 159.968C69.8777 160.205 70.5435 160.245 71.1684 160.077C71.7932 159.91 72.3511 159.547 72.7529 159.036L80.6497 149.098L83.1477 158.42C83.576 160.019 82.6247 161.666 81.0264 162.094L63.6397 166.753C62.0414 167.182 60.3937 166.23 59.9655 164.632ZM64.4403 149.457L71.6847 147.516C72.0832 147.409 72.4965 147.647 72.6033 148.046C72.7101 148.444 72.4714 148.858 72.073 148.964L64.8285 150.906C64.4301 151.012 64.0167 150.774 63.91 150.375C63.8032 149.977 64.0419 149.563 64.4403 149.457ZM65.2168 152.354L72.4612 150.413C72.8596 150.307 73.273 150.545 73.3798 150.944C73.4865 151.342 73.2479 151.755 72.8494 151.862L65.605 153.803C65.2065 153.91 64.7932 153.671 64.6864 153.273C64.5797 152.875 64.8183 152.461 65.2168 152.354Z" fill="black" fill-opacity="0.1"/>
</g>
<g clip-path="url(#clip26_1722_49086)">
<path d="M99.8939 132.304C99.0713 132.204 98.3249 132.788 98.2206 133.611C98.0145 135.287 98.1223 137.03 98.5845 138.755C99.0468 140.48 99.8246 142.043 100.841 143.391C101.339 144.054 102.281 144.185 102.944 143.687C103.606 143.189 103.737 142.247 103.239 141.584C102.45 140.539 101.844 139.328 101.482 137.978C101.121 136.629 101.04 135.277 101.201 133.977C101.301 133.155 100.718 132.408 99.8939 132.304ZM120.305 126.835C119.644 127.337 119.512 128.275 120.01 128.938C120.799 129.983 121.405 131.194 121.767 132.543C122.128 133.893 122.209 135.244 122.048 136.544C121.948 137.367 122.531 138.113 123.355 138.218C124.179 138.322 124.924 137.734 125.028 136.91C125.235 135.234 125.127 133.492 124.665 131.767C124.202 130.042 123.424 128.479 122.408 127.13C121.906 126.469 120.968 126.337 120.305 126.835ZM114.435 136.313C114.647 135.747 114.691 135.114 114.522 134.484C114.094 132.886 112.446 131.935 110.848 132.363C109.25 132.791 108.298 134.439 108.727 136.037C108.895 136.667 109.25 137.193 109.717 137.577L107.173 152.895C107.038 153.713 107.59 154.487 108.407 154.622C109.225 154.757 109.999 154.205 110.134 153.388L110.513 151.088L120.501 148.412L121.982 150.208C122.508 150.849 123.454 150.94 124.095 150.414C124.735 149.888 124.826 148.941 124.3 148.301L114.435 136.313ZM118.407 145.867L111.054 147.837L111.322 146.212L117.358 144.595L118.402 145.868L118.407 145.867ZM112.562 138.761L115.268 142.049L111.863 142.962L112.562 138.761ZM105.318 134.311C105.412 133.699 104.99 133.122 104.374 133.03C103.757 132.938 103.185 133.358 103.093 133.975C102.924 135.117 102.977 136.311 103.293 137.493C103.61 138.675 104.161 139.736 104.879 140.64C105.266 141.124 105.977 141.205 106.46 140.818C106.944 140.431 107.025 139.72 106.638 139.237C106.106 138.574 105.702 137.789 105.467 136.911C105.231 136.032 105.189 135.151 105.318 134.311ZM118.37 129.882C117.983 129.398 117.272 129.317 116.789 129.704C116.305 130.09 116.224 130.801 116.611 131.285C117.143 131.948 117.547 132.733 117.782 133.611C118.018 134.489 118.06 135.371 117.931 136.211C117.837 136.823 118.259 137.4 118.875 137.491C119.492 137.583 120.064 137.163 120.156 136.547C120.325 135.404 120.272 134.21 119.956 133.029C119.639 131.847 119.088 130.786 118.37 129.882Z" fill="black" fill-opacity="0.1"/>
</g>
<g clip-path="url(#clip27_1722_49086)">
<path d="M150.195 119.908C149.62 119.159 148.581 118.957 147.767 119.433L144.074 121.587C143.344 122.015 142.988 122.878 143.206 123.693C146.208 134.894 157.724 141.543 168.926 138.542C169.741 138.324 170.31 137.584 170.316 136.738L170.335 132.462C170.34 131.52 169.645 130.721 168.709 130.598L163.877 129.951C163.057 129.841 162.258 130.283 161.922 131.038L160.691 133.76C157.099 133.107 153.827 131.218 151.465 128.434L153.208 126.011C153.693 125.338 153.677 124.43 153.172 123.774L150.196 119.913L150.195 119.908Z" fill="black" fill-opacity="0.1"/>
</g>
<g clip-path="url(#clip28_1722_49086)">
<path d="M188.553 108.436C186.955 108.865 186.003 110.512 186.432 112.111L191.09 129.497C191.519 131.096 193.166 132.047 194.765 131.619L204.907 128.901C206.505 128.473 207.457 126.825 207.028 125.227L202.37 107.84C201.941 106.242 200.294 105.29 198.695 105.719L188.553 108.436ZM197.416 127.026L200.314 126.249C200.713 126.143 201.126 126.381 201.233 126.78C201.339 127.178 201.101 127.591 200.702 127.698L197.805 128.475C197.406 128.581 196.993 128.343 196.886 127.944C196.779 127.546 197.018 127.133 197.416 127.026Z" fill="black" fill-opacity="0.1"/>
</g>
<g clip-path="url(#clip29_1722_49086)">
<path d="M232.553 101.305L229.32 102.171L227.681 102.611L227.147 102.754L227.254 103.152L227.729 104.927L228.22 106.756L229.299 110.786L224.102 108.738C223.954 107.899 224.172 107.026 224.71 106.353L225.511 105.342L224.974 103.336C224.652 102.136 225.365 100.902 226.565 100.58L230.033 99.6511L231.845 97.375C232.197 96.9313 232.679 96.6127 233.227 96.4659C233.775 96.3191 234.352 96.3538 234.877 96.5576L237.585 97.6275L241.054 96.6981C242.253 96.3766 243.488 97.0893 243.809 98.2891L244.347 100.295L245.546 100.769C246.349 101.083 246.974 101.731 247.266 102.531L243.788 106.904L242.708 102.874L242.218 101.045L241.743 99.2699L241.636 98.8715L241.102 99.0146L239.463 99.4538L236.23 100.32L232.549 101.306L232.553 101.305ZM227.071 119.856L224.573 110.534L236.381 115.192C236.983 115.429 237.649 115.469 238.274 115.302C238.899 115.134 239.457 114.771 239.858 114.261L247.755 104.322L250.253 113.645C250.681 115.243 249.73 116.891 248.132 117.319L230.745 121.978C229.147 122.406 227.499 121.455 227.071 119.856ZM231.546 104.681L238.79 102.74C239.189 102.633 239.602 102.872 239.709 103.27C239.816 103.669 239.577 104.082 239.178 104.189L231.934 106.13C231.536 106.237 231.122 105.998 231.015 105.6C230.909 105.201 231.147 104.788 231.546 104.681ZM232.322 107.579L239.567 105.638C239.965 105.531 240.378 105.769 240.485 106.168C240.592 106.566 240.353 106.98 239.955 107.086L232.71 109.028C232.312 109.134 231.899 108.896 231.792 108.497C231.685 108.099 231.924 107.686 232.322 107.579Z" fill="black" fill-opacity="0.1"/>
</g>
<g clip-path="url(#clip30_1722_49086)">
<path d="M269.499 87.9116C269.338 87.3094 268.723 86.9547 268.121 87.1161C267.519 87.2774 267.164 87.8917 267.326 88.4939L268.199 91.7539L267.475 91.948C266.275 92.2695 265.562 93.5039 265.884 94.7037L267.778 101.772C267.932 102.347 268.311 102.837 268.827 103.135L269.051 103.265C269.568 103.563 269.947 104.054 270.101 104.629L271.215 108.804C271.536 110.004 272.771 110.717 273.971 110.395L284.113 107.678C285.313 107.356 286.025 106.122 285.704 104.922L284.586 100.752C284.432 100.177 284.515 99.5627 284.814 99.046L284.943 98.8221C285.241 98.3054 285.324 97.6912 285.17 97.1161L283.27 90.045C282.949 88.8451 281.715 88.1325 280.515 88.454L279.79 88.6481C279.576 87.8467 278.755 87.3727 277.953 87.5874C277.152 87.8022 276.678 88.6231 276.893 89.4246L275.444 89.8128C275.229 89.0114 274.408 88.5374 273.607 88.7521C272.805 88.9669 272.331 89.7878 272.546 90.5892L270.373 91.1716L269.499 87.9116ZM271.149 94.0694L278.393 92.1282C278.792 92.0215 279.205 92.2601 279.312 92.6585C279.419 93.057 279.18 93.4703 278.782 93.5771L271.537 95.5182C271.139 95.625 270.725 95.3864 270.619 94.9879C270.512 94.5895 270.751 94.1761 271.149 94.0694ZM271.925 96.9671L279.17 95.026C279.568 94.9192 279.982 95.1579 280.088 95.5563C280.195 95.9548 279.957 96.3681 279.558 96.4749L272.314 98.416C271.915 98.5228 271.502 98.2841 271.395 97.8857C271.288 97.4873 271.527 97.0739 271.925 96.9671ZM272.702 99.8649L279.946 97.9238C280.345 97.817 280.758 98.0557 280.865 98.4541C280.972 98.8525 280.733 99.2659 280.335 99.3727L273.09 101.314C272.692 101.421 272.278 101.182 272.172 100.783C272.065 100.385 272.303 99.9717 272.702 99.8649Z" fill="black" fill-opacity="0.1"/>
</g>
<g clip-path="url(#clip31_1722_49086)">
<path d="M310.546 77.4372C311.128 77.5286 311.607 77.9583 311.76 78.5288L312.537 81.4266L317.608 80.0678C322.009 78.8886 326.533 81.5004 327.712 85.9014C329.086 91.0314 326.01 94.3112 325.287 94.9999C325.191 95.0937 325.07 95.1503 324.944 95.1842C324.45 95.3165 323.944 95.0203 323.813 94.5313C323.722 94.1917 323.833 93.8271 324.02 93.5295C324.339 93.017 324.705 92.0648 324.337 90.6929C323.694 88.2932 321.225 86.8679 318.826 87.5109L314.479 88.6756L315.255 91.5734C315.408 92.1439 315.213 92.7543 314.749 93.126C314.286 93.4976 313.654 93.5651 313.126 93.2988L304.135 88.72C303.756 88.5205 303.475 88.1785 303.365 87.7664C303.255 87.3544 303.327 86.9177 303.556 86.5602L309.054 78.0991C309.376 77.6002 309.962 77.3413 310.546 77.4372Z" fill="black" fill-opacity="0.1"/>
</g>
<g clip-path="url(#clip32_1722_49086)">
<path d="M346.291 69.276C345.092 69.5975 344.379 70.8318 344.701 72.0317C344.884 72.7154 345.377 73.2722 346.036 73.5374L357.868 78.2868C358.487 78.5333 359.194 78.3441 359.607 77.8209L367.479 67.7916C367.917 67.2328 368.066 66.5037 367.883 65.82C367.561 64.6202 366.327 63.9075 365.127 64.229L346.291 69.276ZM345.477 74.9294L348 84.3472C348.429 85.9455 350.076 86.8968 351.675 86.4685L369.061 81.8098C370.66 81.3815 371.611 79.7339 371.183 78.1356L368.659 68.7178L360.787 78.7471C359.962 79.7979 358.549 80.1765 357.309 79.6788L345.477 74.9294Z" fill="black" fill-opacity="0.1"/>
</g>
<g clip-path="url(#clip33_1722_49086)">
<path d="M393.608 54.6857C393.034 53.937 391.994 53.735 391.18 54.2104L387.487 56.3647C386.757 56.7931 386.401 57.6553 386.62 58.4703C389.621 69.672 401.137 76.321 412.339 73.3195C413.154 73.1011 413.723 72.3616 413.729 71.5155L413.748 67.2399C413.753 66.2972 413.058 65.4982 412.122 65.3752L407.291 64.7288C406.47 64.6186 405.671 65.0607 405.335 65.8157L404.104 68.538C400.512 67.8844 397.24 65.9951 394.878 63.2115L396.621 60.7887C397.106 60.1154 397.09 59.2072 396.585 58.5516L393.609 54.6903L393.608 54.6857Z" fill="black" fill-opacity="0.1"/>
</g>
<g clip-path="url(#clip34_1722_49086)">
<path d="M191.795 155.255C191.633 156.555 191.714 157.907 192.076 159.256C192.437 160.605 193.043 161.816 193.833 162.862C194.331 163.524 194.198 164.462 193.537 164.965C192.876 165.467 191.937 165.33 191.434 164.669C190.418 163.321 189.64 161.758 189.178 160.033C188.716 158.308 188.608 156.565 188.814 154.889C188.918 154.065 189.665 153.482 190.487 153.582C191.31 153.682 191.894 154.432 191.795 155.255ZM213.001 148.408C214.018 149.757 214.796 151.319 215.258 153.044C215.72 154.77 215.828 156.512 215.622 158.188C215.522 159.011 214.771 159.595 213.948 159.495C213.126 159.395 212.541 158.645 212.641 157.822C212.802 156.522 212.722 155.17 212.36 153.821C211.998 152.472 211.393 151.261 210.603 150.215C210.105 149.553 210.237 148.615 210.898 148.113C211.56 147.61 212.499 147.747 213.001 148.408ZM205.116 155.762C205.403 156.835 205.07 157.929 204.339 158.659L207.937 172.088C208.152 172.889 207.678 173.71 206.877 173.925C206.075 174.14 205.254 173.666 205.039 172.865L201.441 159.435C200.442 159.164 199.608 158.388 199.32 157.315C198.892 155.717 199.843 154.069 201.441 153.641C203.04 153.212 204.687 154.164 205.116 155.762ZM196.281 155.645C196.162 156.433 196.2 157.263 196.422 158.091C196.644 158.92 197.026 159.657 197.523 160.281C198.041 160.928 197.936 161.874 197.287 162.387C196.638 162.901 195.694 162.8 195.181 162.151C194.428 161.208 193.854 160.099 193.524 158.868C193.194 157.636 193.137 156.39 193.317 155.196C193.442 154.377 194.204 153.814 195.023 153.939C195.843 154.064 196.406 154.825 196.281 155.645ZM209.255 150.926C210.008 151.87 210.581 152.978 210.911 154.209C211.241 155.441 211.298 156.687 211.118 157.881C210.994 158.7 210.232 159.263 209.412 159.138C208.593 159.014 208.03 158.252 208.155 157.432C208.273 156.644 208.235 155.814 208.013 154.986C207.791 154.157 207.409 153.42 206.912 152.796C206.394 152.149 206.5 151.203 207.149 150.69C207.797 150.176 208.741 150.277 209.255 150.926Z" fill="black" fill-opacity="0.1"/>
</g>
<g clip-path="url(#clip35_1722_49086)">
<path d="M238.386 141.8C238.224 141.198 237.61 140.844 237.008 141.005C236.406 141.166 236.051 141.781 236.212 142.383L237.086 145.643L236.361 145.837C235.162 146.158 234.449 147.393 234.77 148.593L236.664 155.66C236.818 156.235 237.197 156.726 237.714 157.024L237.938 157.154C238.455 157.452 238.834 157.942 238.988 158.517L240.102 162.693C240.423 163.893 241.657 164.606 242.857 164.284L253 161.567C254.199 161.245 254.912 160.011 254.591 158.811L253.473 154.641C253.319 154.066 253.402 153.452 253.7 152.935L253.83 152.711C254.128 152.194 254.211 151.58 254.057 151.005L252.157 143.934C251.836 142.734 250.601 142.021 249.401 142.343L248.677 142.537C248.462 141.736 247.641 141.262 246.84 141.476C246.038 141.691 245.564 142.512 245.779 143.313L244.33 143.702C244.116 142.9 243.295 142.426 242.493 142.641C241.692 142.856 241.218 143.677 241.433 144.478L239.259 145.06L238.386 141.8ZM240.036 147.958L247.28 146.017C247.679 145.91 248.092 146.149 248.199 146.547C248.305 146.946 248.067 147.359 247.668 147.466L240.424 149.407C240.025 149.514 239.612 149.275 239.505 148.877C239.399 148.478 239.637 148.065 240.036 147.958ZM240.812 150.856L248.057 148.915C248.455 148.808 248.868 149.047 248.975 149.445C249.082 149.844 248.843 150.257 248.445 150.364L241.2 152.305C240.802 152.412 240.389 152.173 240.282 151.775C240.175 151.376 240.414 150.963 240.812 150.856ZM241.589 153.754L248.833 151.813C249.231 151.706 249.645 151.945 249.752 152.343C249.858 152.741 249.62 153.155 249.221 153.262L241.977 155.203C241.578 155.309 241.165 155.071 241.058 154.672C240.952 154.274 241.19 153.861 241.589 153.754Z" fill="black" fill-opacity="0.1"/>
</g>
<g clip-path="url(#clip36_1722_49086)">
<path d="M277.494 131.351C276.919 130.602 275.88 130.4 275.066 130.875L271.373 133.03C270.643 133.458 270.287 134.32 270.505 135.135C273.507 146.337 285.023 152.986 296.225 149.984C297.04 149.766 297.608 149.027 297.615 148.18L297.634 143.905C297.638 142.962 296.944 142.163 296.008 142.04L291.176 141.394C290.356 141.284 289.557 141.726 289.221 142.481L287.99 145.203C284.398 144.549 281.126 142.66 278.764 139.876L280.507 137.454C280.991 136.78 280.976 135.872 280.471 135.217L277.495 131.355L277.494 131.351Z" fill="black" fill-opacity="0.1"/>
</g>
<g clip-path="url(#clip37_1722_49086)">
<path d="M321.311 119.969C321.096 119.168 321.57 118.347 322.372 118.132C329.575 116.202 336.976 120.474 338.906 127.678C339.121 128.479 338.647 129.3 337.845 129.515C337.044 129.73 336.223 129.256 336.008 128.454C334.507 122.853 328.749 119.529 323.148 121.03C322.347 121.244 321.526 120.77 321.311 119.969ZM317.65 130.102L323.626 133.553L324.567 131.923C324.504 131.813 324.452 131.691 324.417 131.56C324.202 130.759 324.676 129.938 325.478 129.723C326.279 129.508 327.1 129.982 327.315 130.784C327.529 131.585 327.055 132.406 326.254 132.621C326.123 132.656 325.996 132.671 325.865 132.672L324.924 134.302L330.9 137.753C331.732 138.233 331.905 139.366 331.131 139.937C330.174 140.64 329.077 141.182 327.859 141.508C322.657 142.902 317.312 139.816 315.918 134.614C315.591 133.396 315.512 132.175 315.646 130.994C315.755 130.042 316.822 129.621 317.654 130.101L317.65 130.102ZM323.536 122.478C328.336 121.192 333.273 124.043 334.559 128.842C334.774 129.644 334.3 130.465 333.498 130.68C332.697 130.894 331.876 130.42 331.661 129.619C330.804 126.418 327.514 124.519 324.313 125.376C323.511 125.591 322.69 125.117 322.476 124.316C322.261 123.514 322.735 122.693 323.536 122.478Z" fill="black" fill-opacity="0.1"/>
</g>
<g clip-path="url(#clip38_1722_49086)">
<path d="M357.592 108.806C356.77 108.706 356.023 109.29 355.919 110.113C355.713 111.789 355.821 113.532 356.283 115.257C356.745 116.982 357.523 118.545 358.539 119.893C359.037 120.556 359.98 120.687 360.642 120.189C361.305 119.691 361.435 118.749 360.938 118.086C360.148 117.041 359.542 115.83 359.181 114.48C358.819 113.131 358.738 111.779 358.899 110.479C358.999 109.657 358.416 108.91 357.592 108.806ZM378.003 103.337C377.342 103.839 377.21 104.777 377.708 105.44C378.497 106.485 379.103 107.696 379.465 109.045C379.827 110.395 379.907 111.746 379.746 113.046C379.646 113.869 380.23 114.615 381.053 114.72C381.877 114.824 382.622 114.236 382.727 113.412C382.933 111.736 382.825 109.994 382.363 108.269C381.901 106.544 381.123 104.981 380.106 103.632C379.604 102.971 378.666 102.839 378.003 103.337ZM372.133 112.815C372.345 112.249 372.389 111.616 372.221 110.986C371.792 109.388 370.145 108.437 368.546 108.865C366.948 109.293 365.997 110.941 366.425 112.539C366.594 113.169 366.948 113.695 367.415 114.079L364.871 129.397C364.736 130.215 365.288 130.989 366.105 131.124C366.923 131.259 367.697 130.707 367.832 129.89L368.211 127.59L378.199 124.914L379.68 126.71C380.206 127.351 381.153 127.442 381.793 126.916C382.433 126.39 382.524 125.443 381.998 124.803L372.133 112.815ZM376.105 122.369L368.752 124.339L369.02 122.714L375.056 121.097L376.101 122.37L376.105 122.369ZM370.261 115.263L372.966 118.551L369.561 119.463L370.261 115.263ZM363.017 110.813C363.11 110.2 362.689 109.624 362.072 109.532C361.455 109.44 360.883 109.86 360.791 110.477C360.622 111.619 360.675 112.813 360.992 113.995C361.308 115.177 361.859 116.238 362.577 117.142C362.964 117.626 363.675 117.707 364.159 117.32C364.642 116.933 364.723 116.222 364.337 115.739C363.805 115.076 363.4 114.291 363.165 113.413C362.93 112.534 362.888 111.653 363.017 110.813ZM376.068 106.384C375.681 105.9 374.971 105.819 374.487 106.206C374.003 106.592 373.922 107.303 374.309 107.787C374.841 108.45 375.245 109.234 375.481 110.113C375.716 110.991 375.758 111.873 375.629 112.713C375.536 113.325 375.957 113.901 376.574 113.993C377.19 114.085 377.762 113.665 377.854 113.049C378.024 111.906 377.971 110.712 377.654 109.531C377.337 108.349 376.786 107.288 376.068 106.384Z" fill="black" fill-opacity="0.1"/>
</g>
<g clip-path="url(#clip39_1722_49086)">
<path d="M333.321 162.439C333.904 162.53 334.383 162.96 334.536 163.53L335.312 166.428L340.383 165.069C344.784 163.89 349.308 166.502 350.487 170.903C351.862 176.033 348.786 179.313 348.063 180.001C347.966 180.095 347.846 180.152 347.719 180.186C347.225 180.318 346.719 180.022 346.588 179.533C346.497 179.193 346.608 178.829 346.795 178.531C347.114 178.018 347.48 177.066 347.112 175.694C346.469 173.295 344.001 171.869 341.601 172.512L337.254 173.677L338.031 176.575C338.184 177.145 337.988 177.756 337.525 178.128C337.061 178.499 336.429 178.567 335.902 178.3L326.91 173.721C326.532 173.522 326.251 173.18 326.14 172.768C326.03 172.356 326.102 171.919 326.332 171.562L331.829 163.101C332.151 162.602 332.737 162.343 333.321 162.439Z" fill="black" fill-opacity="0.1"/>
</g>
<g clip-path="url(#clip40_1722_49086)">
<path d="M369.067 154.278C367.867 154.599 367.154 155.833 367.476 157.033C367.659 157.717 368.153 158.274 368.811 158.539L380.644 163.288C381.263 163.535 381.969 163.346 382.382 162.822L390.255 152.793C390.692 152.234 390.841 151.505 390.658 150.822C390.337 149.622 389.102 148.909 387.902 149.231L369.067 154.278ZM368.252 159.931L370.776 169.349C371.204 170.947 372.852 171.898 374.45 171.47L391.837 166.811C393.435 166.383 394.386 164.735 393.958 163.137L391.435 153.719L383.562 163.749C382.737 164.799 381.325 165.178 380.085 164.68L368.252 159.931Z" fill="black" fill-opacity="0.1"/>
</g>
<defs>
<clipPath id="clip0_1722_49086">
<rect width="18" height="24" fill="white" transform="translate(-22.1348 28.2333) rotate(-15)"/>
</clipPath>
<clipPath id="clip1_1722_49086">
<rect width="24" height="24" fill="white" transform="translate(14.5713 18.3982) rotate(-15)"/>
</clipPath>
<clipPath id="clip2_1722_49086">
<rect width="24" height="24" fill="white" transform="translate(57.0713 7.01013) rotate(-15)"/>
</clipPath>
<clipPath id="clip3_1722_49086">
<rect width="24" height="24" fill="white" transform="translate(99.5723 -4.37787) rotate(-15)"/>
</clipPath>
<clipPath id="clip4_1722_49086">
<rect width="27" height="24" fill="white" transform="translate(142.073 -15.7659) rotate(-15)"/>
</clipPath>
<clipPath id="clip5_1722_49086">
<rect width="24" height="24" fill="white" transform="translate(-10.7471 70.734) rotate(-15)"/>
</clipPath>
<clipPath id="clip6_1722_49086">
<rect width="24" height="24" fill="white" transform="translate(31.7539 59.346) rotate(-15)"/>
</clipPath>
<clipPath id="clip7_1722_49086">
<rect width="27" height="24" fill="white" transform="translate(74.2549 47.9579) rotate(-15)"/>
</clipPath>
<clipPath id="clip8_1722_49086">
<rect width="24" height="24" fill="white" transform="translate(119.653 35.7935) rotate(-15)"/>
</clipPath>
<clipPath id="clip9_1722_49086">
<rect width="18" height="24" fill="white" transform="translate(162.154 24.4054) rotate(-15)"/>
</clipPath>
<clipPath id="clip10_1722_49086">
<rect width="24" height="24" fill="white" transform="translate(198.859 14.5703) rotate(-15)"/>
</clipPath>
<clipPath id="clip11_1722_49086">
<rect width="18" height="24" fill="white" transform="translate(241.36 3.18225) rotate(-15)"/>
</clipPath>
<clipPath id="clip12_1722_49086">
<rect width="24" height="24" fill="white" transform="translate(278.065 -6.65283) rotate(-15)"/>
</clipPath>
<clipPath id="clip13_1722_49086">
<rect width="24" height="24" fill="white" transform="translate(320.565 -18.0409) rotate(-15)"/>
</clipPath>
<clipPath id="clip14_1722_49086">
<rect width="18" height="24" fill="white" transform="translate(0.640625 113.235) rotate(-15)"/>
</clipPath>
<clipPath id="clip15_1722_49086">
<rect width="24" height="24" fill="white" transform="translate(37.3467 103.4) rotate(-15)"/>
</clipPath>
<clipPath id="clip16_1722_49086">
<rect width="24" height="24" fill="white" transform="translate(79.8467 92.0116) rotate(-15)"/>
</clipPath>
<clipPath id="clip17_1722_49086">
<rect width="24" height="24" fill="white" transform="translate(122.348 80.6236) rotate(-15)"/>
</clipPath>
<clipPath id="clip18_1722_49086">
<rect width="27" height="24" fill="white" transform="translate(164.849 69.2355) rotate(-15)"/>
</clipPath>
<clipPath id="clip19_1722_49086">
<rect width="18" height="24" fill="white" transform="translate(210.247 57.071) rotate(-15)"/>
</clipPath>
<clipPath id="clip20_1722_49086">
<rect width="24" height="24" fill="white" transform="translate(246.952 47.2359) rotate(-15)"/>
</clipPath>
<clipPath id="clip21_1722_49086">
<rect width="24" height="24" fill="white" transform="translate(289.453 35.8479) rotate(-15)"/>
</clipPath>
<clipPath id="clip22_1722_49086">
<rect width="27" height="24" fill="white" transform="translate(331.953 24.4598) rotate(-15)"/>
</clipPath>
<clipPath id="clip23_1722_49086">
<rect width="18" height="24" fill="white" transform="translate(377.353 12.2953) rotate(-15)"/>
</clipPath>
<clipPath id="clip24_1722_49086">
<rect width="24" height="24" fill="white" transform="translate(12.0293 155.735) rotate(-15)"/>
</clipPath>
<clipPath id="clip25_1722_49086">
<rect width="24" height="24" fill="white" transform="translate(54.5303 144.347) rotate(-15)"/>
</clipPath>
<clipPath id="clip26_1722_49086">
<rect width="27" height="24" fill="white" transform="translate(97.0312 132.959) rotate(-15)"/>
</clipPath>
<clipPath id="clip27_1722_49086">
<rect width="24" height="24" fill="white" transform="translate(142.43 120.795) rotate(-15)"/>
</clipPath>
<clipPath id="clip28_1722_49086">
<rect width="18" height="24" fill="white" transform="translate(184.931 109.407) rotate(-15)"/>
</clipPath>
<clipPath id="clip29_1722_49086">
<rect width="24" height="24" fill="white" transform="translate(221.636 99.5718) rotate(-15)"/>
</clipPath>
<clipPath id="clip30_1722_49086">
<rect width="18" height="24" fill="white" transform="translate(264.137 88.1837) rotate(-15)"/>
</clipPath>
<clipPath id="clip31_1722_49086">
<rect width="24" height="24" fill="white" transform="translate(300.842 78.3486) rotate(-15)"/>
</clipPath>
<clipPath id="clip32_1722_49086">
<rect width="24" height="24" fill="white" transform="translate(343.342 66.9606) rotate(-15)"/>
</clipPath>
<clipPath id="clip33_1722_49086">
<rect width="24" height="24" fill="white" transform="translate(385.843 55.5725) rotate(-15)"/>
</clipPath>
<clipPath id="clip34_1722_49086">
<rect width="27" height="24" fill="white" transform="translate(187.625 154.237) rotate(-15)"/>
</clipPath>
<clipPath id="clip35_1722_49086">
<rect width="18" height="24" fill="white" transform="translate(233.023 142.073) rotate(-15)"/>
</clipPath>
<clipPath id="clip36_1722_49086">
<rect width="24" height="24" fill="white" transform="translate(269.729 132.237) rotate(-15)"/>
</clipPath>
<clipPath id="clip37_1722_49086">
<rect width="24" height="24" fill="white" transform="translate(312.229 120.849) rotate(-15)"/>
</clipPath>
<clipPath id="clip38_1722_49086">
<rect width="27" height="24" fill="white" transform="translate(354.729 109.461) rotate(-15)"/>
</clipPath>
<clipPath id="clip39_1722_49086">
<rect width="24" height="24" fill="white" transform="translate(323.617 163.35) rotate(-15)"/>
</clipPath>
<clipPath id="clip40_1722_49086">
<rect width="24" height="24" fill="white" transform="translate(366.117 151.962) rotate(-15)"/>
</clipPath>
</defs>
</svg>
