<svg width="396" height="161" viewBox="0 0 396 161" fill="none" xmlns="http://www.w3.org/2000/svg">
<g clip-path="url(#clip0_1722_48199)">
<path d="M-3.25712 22.562L4.39873 26.9822L-5.19935 43.6065L-10.4235 45.6432C-11.1228 45.9161 -11.8949 45.4698 -12.0079 44.7277L-12.8523 39.1801L-3.25712 22.562ZM6.27446 19.0446L2.67976 16.9692C1.55847 16.3218 0.124202 16.7061 -0.523173 17.8274L-2.47566 21.2092L5.18019 25.6293L7.13268 22.2475C7.77993 21.1257 7.39574 19.6919 6.27446 19.0446Z" fill="black" fill-opacity="0.1"/>
</g>
<g clip-path="url(#clip1_1722_48199)">
<path d="M33.5654 20.3185L38.2123 12.2713L35.5738 10.748L33.4442 14.4366C33.4188 14.4806 33.385 14.5192 33.3447 14.5502C33.3044 14.5812 33.2583 14.6039 33.2092 14.6171C33.1601 14.6302 33.1089 14.6336 33.0585 14.6269C33.0081 14.6202 32.9595 14.6037 32.9155 14.5782L32.2451 14.1912C32.0597 14.0842 31.9963 13.8474 32.1034 13.6625L34.2331 9.9739L32.2212 8.81195C31.4802 8.38416 30.5332 8.63793 30.1054 9.37887L27.008 14.7437C26.5807 15.4845 26.834 16.4317 27.5749 16.8595L33.5654 20.3185ZM50.4113 9.90037C51.059 8.77849 50.6742 7.34434 49.5528 6.6965L46.8468 5.13416C45.7249 4.48644 44.2901 4.87088 43.6419 5.99289L42.0529 8.74451L48.8225 12.6529L50.4113 9.90037ZM41.2717 10.0983L31.0168 27.8576L31.4897 33.162C31.5535 33.8774 32.3082 34.3131 32.9599 34.0096L37.7896 31.7631L48.0412 14.0062L41.2717 10.0983ZM53.6811 21.2019L51.6694 20.0404L49.5398 23.729C49.4328 23.9143 49.196 23.9778 49.0111 23.8706L48.3407 23.4836C48.1558 23.3764 48.0923 23.1397 48.199 22.9549L50.3286 19.2663L47.689 17.7423L43.0421 25.7895L49.0348 29.2489C49.7757 29.6767 50.7228 29.423 51.1505 28.682L54.2481 23.3176C54.6758 22.5767 54.4221 21.6296 53.6811 21.2019Z" fill="black" fill-opacity="0.1"/>
</g>
<g clip-path="url(#clip2_1722_48199)">
<path d="M80.9595 -4.31294C74.4994 -2.58196 70.6659 4.05785 72.3968 10.518C74.1278 16.9781 80.7676 20.8116 87.2277 19.0806C93.6878 17.3496 97.5213 10.7098 95.7903 4.24968C94.0594 -2.21042 87.4196 -6.04392 80.9595 -4.31294ZM91.2292 3.82895L91.3167 4.1558C91.3909 4.43266 91.3022 4.72789 91.0877 4.9178L90.4592 5.47546C90.3593 5.56404 90.2379 5.62462 90.1071 5.65105C89.9763 5.67749 89.8408 5.66884 89.7144 5.62598L88.7021 5.28353C88.593 5.24665 88.4768 5.23516 88.3625 5.24993C88.2482 5.2647 88.1388 5.30535 88.0426 5.36877L87.9287 5.44377C87.512 5.71869 87.4713 6.31396 87.8463 6.64367L88.7217 7.41303C88.9116 7.58004 89.1726 7.64103 89.4169 7.57557L89.8041 7.47181C90.2078 7.36364 90.6229 7.60325 90.731 8.00698L90.8744 8.54182C90.9167 8.69982 90.9066 8.86782 90.8457 9.01963L90.2775 10.4346C90.2345 10.5422 90.2166 10.6582 90.2253 10.7737L90.311 11.9048C90.3233 12.0678 90.2825 12.2304 90.1947 12.3686C89.8574 12.8977 89.5852 13.4656 89.3841 14.0599L89.0166 15.1466C88.9451 15.3579 88.8226 15.5483 88.6598 15.7009C88.4971 15.8535 88.2992 15.9636 88.0838 16.0214C87.5881 16.1542 87.0598 15.9955 86.7193 15.6115C86.3224 15.164 86.0352 14.6302 85.8804 14.0524L85.5027 12.6426C85.3945 12.2389 84.9795 11.9993 84.5758 12.1075L83.3551 12.4345C82.6717 12.6177 81.9438 12.5215 81.331 12.1681C80.7184 11.8142 80.2714 11.2316 80.0882 10.5483L79.9105 9.88522C79.6932 9.07446 79.8707 8.20851 80.3888 7.548L81.4281 6.22363C81.7845 5.76962 82.2785 5.44339 82.836 5.29386L82.878 5.28261C83.2779 5.17544 83.6976 5.16258 84.1031 5.24601L84.8904 5.40711C85.0872 5.44739 85.2914 5.40783 85.459 5.29723L87.491 3.95556C87.7629 3.77605 87.8895 3.44287 87.8052 3.12829C87.697 2.72456 87.282 2.48494 86.8782 2.59312L86.4024 2.72063C86.2085 2.77258 86.0021 2.74549 85.8281 2.64502L85.4142 2.40609C85.3282 2.35638 85.2331 2.32411 85.1346 2.31114C85.0361 2.29816 84.9359 2.30474 84.8399 2.33048L80.5928 3.4685C80.1891 3.57667 79.774 3.33706 79.6658 2.93333L79.6102 2.72581C79.5204 2.39047 79.6703 2.03689 79.9739 1.86809L80.6098 1.51521C80.7743 1.42361 80.8991 1.27441 80.9595 1.09597L81.1875 0.422695C81.2684 0.183146 81.464 -0.0001756 81.7083 -0.0656386L82.8501 -0.371596C83.2539 -0.479775 83.4935 -0.8948 83.3853 -1.29853L83.1111 -2.32199C87.0097 -2.71756 90.7613 -0.720601 92.6336 2.66911L91.7643 2.90202C91.3606 3.0102 91.121 3.42523 91.2292 3.82895Z" fill="black" fill-opacity="0.1"/>
</g>
<g clip-path="url(#clip3_1722_48199)">
<path d="M132.52 -2.35662L138.934 -4.07534L135.598 -16.5267C135.43 -17.154 134.79 -17.5235 134.163 -17.3554L115.297 -12.3003C114.67 -12.1322 114.3 -11.4924 114.468 -10.8651L119.523 8.00067C119.691 8.62796 120.331 8.9974 120.959 8.82931L133.41 5.49298L131.691 -0.921376C131.525 -1.54395 131.897 -2.18981 132.52 -2.35662ZM139.299 -1.39284L135.916 4.46775C135.76 4.73686 135.504 4.93186 135.202 5.01274L134.919 5.08857L133.302 -0.948466L139.339 -2.56609L139.416 -2.27838C139.495 -1.98125 139.455 -1.66195 139.299 -1.39284Z" fill="black" fill-opacity="0.1"/>
</g>
<g clip-path="url(#clip4_1722_48199)">
<path d="M13.768 76.0506L20.1824 74.3319L16.846 61.8805C16.6779 61.2532 16.0381 60.8838 15.4108 61.0519L-3.45497 66.1069C-4.08226 66.275 -4.45169 66.9149 -4.28361 67.5422L0.771449 86.4079C0.93953 87.0352 1.57941 87.4046 2.2067 87.2365L14.6581 83.9002L12.9394 77.4859C12.7725 76.8633 13.1454 76.2174 13.768 76.0506ZM20.5473 77.0144L17.1637 82.875C17.0083 83.1441 16.7522 83.3391 16.4503 83.42L16.1673 83.4958L14.5497 77.4588L20.5868 75.8411L20.6639 76.1288C20.7435 76.426 20.7026 76.7453 20.5473 77.0144Z" fill="black" fill-opacity="0.1"/>
</g>
<g clip-path="url(#clip5_1722_48199)">
<path d="M54.7809 53.7378C54.1108 51.2372 51.5405 49.7532 49.0399 50.4233C46.5392 51.0933 45.0553 53.6636 45.7253 56.1643C46.3954 58.6649 48.9657 60.1489 51.4663 59.4788C53.967 58.8088 55.4509 56.2385 54.7809 53.7378ZM51.0299 62.0778C47.7726 61.1146 43.114 61.8584 40.7984 62.3398C40.0203 62.5018 39.5377 63.2569 39.7352 63.9941L42.5509 74.5023C42.732 75.1782 43.4297 75.5953 44.1421 75.4433C46.2303 74.9996 50.5023 74.279 53.7703 74.9578C54.2719 75.062 54.7146 74.6183 54.5862 74.1391L51.4775 62.5372C51.418 62.317 51.255 62.1444 51.0299 62.0778ZM62.1355 56.6225C59.8898 57.3628 55.483 59.0486 53.1443 61.5113C52.9826 61.6815 52.9299 61.9205 52.9889 62.1408L56.0951 73.7333C56.2239 74.2139 56.8307 74.3769 57.2143 74.035C59.7049 71.8147 63.7626 70.3033 65.7924 69.6437C66.4853 69.4186 66.8809 68.7085 66.6998 68.0327L63.8839 57.5235C63.6859 56.7864 62.8903 56.3738 62.1355 56.6225Z" fill="black" fill-opacity="0.1"/>
</g>
<g clip-path="url(#clip6_1722_48199)">
<path d="M89.5112 41.0166C88.2577 41.3525 87.4482 42.4905 87.4617 43.7316C87.4282 43.7406 87.4008 43.7389 87.3673 43.7479C85.8873 44.1444 85.0065 45.6701 85.4031 47.15C85.457 47.3512 85.5349 47.5415 85.6316 47.7178C84.5422 48.5489 84.0041 49.9782 84.3793 51.3785C84.5208 51.9067 84.7864 52.3613 85.1193 52.7484C84.2681 53.5965 83.8724 54.8529 84.206 56.098C84.5801 57.4941 85.7566 58.464 87.1072 58.6413C87.1211 58.8442 87.153 59.0469 87.2069 59.2481C87.654 60.9167 89.3656 61.9049 91.0342 61.4578C91.2061 61.4118 91.3682 61.3459 91.5238 61.2727C92.2464 62.3597 93.5941 62.9287 94.9273 62.5715C96.5959 62.1244 97.5841 60.4127 97.137 58.7442L92.9132 42.9808C92.5167 41.5009 90.9911 40.6201 89.5112 41.0166ZM108.354 49.6276C108.021 48.3824 107.05 47.4923 105.888 47.1833C105.987 46.6805 105.986 46.1552 105.844 45.6269C105.469 44.2267 104.288 43.258 102.929 43.0829C102.921 42.883 102.897 42.6781 102.843 42.4769C102.447 40.9969 100.921 40.1161 99.4413 40.5127C99.4078 40.5217 99.3807 40.5379 99.3513 40.5458C98.7425 39.4642 97.4725 38.8834 96.219 39.2193C94.7391 39.6158 93.8571 41.1372 94.2548 42.6213L98.4786 58.3847C98.9257 60.0533 100.637 61.0415 102.306 60.5944C103.639 60.2372 104.522 59.0706 104.604 57.7679C104.775 57.7534 104.949 57.7294 105.121 57.6834C106.789 57.2363 107.777 55.5246 107.33 53.8561C107.276 53.6548 107.203 53.4634 107.113 53.2807C108.194 52.4518 108.728 51.0236 108.354 49.6276Z" fill="black" fill-opacity="0.1"/>
</g>
<g clip-path="url(#clip7_1722_48199)">
<path d="M151.086 41.2779L146.84 25.4306C146.672 24.8033 146.032 24.4339 145.405 24.602L129.935 28.7471C127.435 29.4169 125.951 31.9884 126.62 34.4881L130.664 49.5807C131.334 52.0804 133.906 53.5651 136.405 52.8953L151.875 48.7501C152.503 48.5821 152.872 47.9422 152.704 47.3149L152.502 46.5603C152.407 46.2065 152.156 45.93 151.846 45.7908C151.453 45.1175 150.898 43.047 150.902 42.2676C151.102 41.9965 151.181 41.6316 151.086 41.2779ZM133.138 34.6628C133.096 34.5071 133.189 34.3457 133.345 34.3039L143.344 31.6248C143.499 31.5831 143.661 31.6763 143.703 31.8319L143.955 32.7752C143.997 32.9309 143.904 33.0923 143.748 33.134L133.749 35.8132C133.594 35.8549 133.432 35.7617 133.39 35.606L133.138 34.6628ZM133.947 37.6813C133.905 37.5256 133.998 37.3642 134.154 37.3225L144.153 34.6433C144.308 34.6016 144.47 34.6948 144.511 34.8504L144.764 35.7937C144.806 35.9494 144.713 36.1108 144.557 36.1525L134.558 38.8317C134.402 38.8734 134.241 38.7802 134.199 38.6246L133.947 37.6813ZM149.057 46.27L135.597 49.8768C134.762 50.1005 133.907 49.6067 133.683 48.7719C133.461 47.9418 133.958 47.0807 134.788 46.8583L148.249 43.2515C148.375 44.082 148.752 45.4875 149.057 46.27Z" fill="black" fill-opacity="0.1"/>
</g>
<g clip-path="url(#clip8_1722_48199)">
<path d="M182.257 19.4413L189.912 23.8614L180.314 40.4857L175.09 42.5225C174.391 42.7953 173.619 42.3491 173.506 41.6069L172.661 36.0593L182.257 19.4413ZM191.788 15.9238L188.193 13.8484C187.072 13.201 185.638 13.5853 184.99 14.7066L183.038 18.0884L190.694 22.5085L192.646 19.1267C193.294 18.005 192.909 16.5712 191.788 15.9238Z" fill="black" fill-opacity="0.1"/>
</g>
<g clip-path="url(#clip9_1722_48199)">
<path d="M228.647 7.1504C227.977 4.64975 225.407 3.16579 222.906 3.83584C220.405 4.50589 218.921 7.07618 219.592 9.57683C220.262 12.0775 222.832 13.5614 225.333 12.8914C227.833 12.2213 229.317 9.65105 228.647 7.1504ZM224.896 15.4904C221.639 14.5272 216.98 15.2709 214.665 15.7524C213.887 15.9144 213.404 16.6695 213.601 17.4067L216.417 27.9149C216.598 28.5908 217.296 29.0079 218.008 28.8559C220.096 28.4122 224.369 27.6916 227.637 28.3704C228.138 28.4746 228.581 28.0309 228.452 27.5517L225.344 15.9497C225.284 15.7296 225.121 15.5569 224.896 15.4904ZM236.002 10.0351C233.756 10.7754 229.349 12.4612 227.01 14.9238C226.849 15.094 226.796 15.3331 226.855 15.5534L229.961 27.1459C230.09 27.6265 230.697 27.7894 231.08 27.4476C233.571 25.2273 237.629 23.7159 239.659 23.0563C240.351 22.8312 240.747 22.1211 240.566 21.4452L237.75 10.9361C237.552 10.199 236.757 9.78636 236.002 10.0351Z" fill="black" fill-opacity="0.1"/>
</g>
<g clip-path="url(#clip10_1722_48199)">
<path d="M281.487 6.3373L277.241 -9.50992C277.072 -10.1372 276.433 -10.5066 275.805 -10.3386L260.335 -6.19341C257.836 -5.52361 256.351 -2.95213 257.021 -0.452417L261.065 14.6402C261.735 17.1399 264.306 18.6245 266.806 17.9547L282.276 13.8096C282.903 13.6415 283.272 13.0016 283.104 12.3743L282.902 11.6197C282.807 11.266 282.556 10.9895 282.246 10.8502C281.853 10.177 281.299 8.10644 281.302 7.32704C281.502 7.05599 281.582 6.69104 281.487 6.3373ZM263.538 -0.277791C263.496 -0.433433 263.59 -0.594898 263.745 -0.636603L273.744 -3.31578C273.9 -3.35749 274.061 -3.26427 274.103 -3.10862L274.356 -2.16534C274.397 -2.00969 274.304 -1.84823 274.149 -1.80653L264.15 0.872656C263.994 0.914361 263.833 0.821139 263.791 0.665496L263.538 -0.277791ZM264.347 2.74073C264.305 2.58509 264.398 2.42362 264.554 2.38192L274.553 -0.297266C274.709 -0.33897 274.87 -0.245748 274.912 -0.0901058L275.164 0.853181C275.206 1.00882 275.113 1.17029 274.957 1.21199L264.958 3.89117C264.803 3.93288 264.641 3.83966 264.6 3.68401L264.347 2.74073ZM279.458 11.3294L265.997 14.9362C265.162 15.1599 264.307 14.6662 264.083 13.8314C263.861 13.0013 264.358 12.1401 265.188 11.9177L278.649 8.31092C278.775 9.14144 279.152 10.5469 279.458 11.3294Z" fill="black" fill-opacity="0.1"/>
</g>
<g clip-path="url(#clip11_1722_48199)">
<path d="M312.657 -15.4993L320.313 -11.0792L310.715 5.54517L305.491 7.5819C304.791 7.85471 304.019 7.4085 303.906 6.66635L303.062 1.11874L312.657 -15.4993ZM322.189 -19.0168L318.594 -21.0922C317.473 -21.7395 316.038 -21.3552 315.391 -20.2339L313.438 -16.8521L321.094 -12.432L323.047 -15.8138C323.694 -16.9356 323.31 -18.3694 322.189 -19.0168Z" fill="black" fill-opacity="0.1"/>
</g>
<g clip-path="url(#clip12_1722_48199)">
<path d="M20.0368 109.495L27.6927 113.915L18.0946 130.54L12.8705 132.577C12.1712 132.849 11.399 132.403 11.2861 131.661L10.4416 126.113L20.0368 109.495ZM29.5684 105.978L25.9737 103.902C24.8524 103.255 23.4181 103.639 22.7708 104.761L20.8183 108.143L28.4741 112.563L30.4266 109.181C31.0739 108.059 30.6897 106.625 29.5684 105.978Z" fill="black" fill-opacity="0.1"/>
</g>
<g clip-path="url(#clip13_1722_48199)">
<path d="M56.8594 107.252L61.5062 99.2046L58.8678 97.6813L56.7382 101.37C56.7128 101.414 56.679 101.453 56.6386 101.484C56.5983 101.515 56.5523 101.537 56.5032 101.55C56.4541 101.564 56.4028 101.567 56.3524 101.56C56.302 101.554 56.2534 101.537 56.2094 101.512L55.5391 101.125C55.3537 101.017 55.2902 100.781 55.3974 100.596L57.527 96.9072L55.5151 95.7453C54.7742 95.3175 53.8271 95.5712 53.3993 96.3122L50.302 101.677C49.8746 102.418 50.1279 103.365 50.8689 103.793L56.8594 107.252ZM73.7052 96.8337C74.3529 95.7118 73.9682 94.2777 72.8468 93.6298L70.1407 92.0675C69.0188 91.4198 67.5841 91.8042 66.9359 92.9262L65.3468 95.6778L72.1164 99.5862L73.7052 96.8337ZM64.5656 97.0316L54.3107 114.791L54.7837 120.095C54.8475 120.811 55.6022 121.246 56.2538 120.943L61.0836 118.696L71.3351 100.94L64.5656 97.0316ZM76.9751 108.135L74.9633 106.974L72.8337 110.662C72.7267 110.848 72.4899 110.911 72.305 110.804L71.6346 110.417C71.4497 110.31 71.3863 110.073 71.493 109.888L73.6226 106.2L70.9829 104.676L66.3361 112.723L72.3287 116.182C73.0696 116.61 74.0167 116.356 74.4445 115.615L77.542 110.251C77.9698 109.51 77.716 108.563 76.9751 108.135Z" fill="black" fill-opacity="0.1"/>
</g>
<g clip-path="url(#clip14_1722_48199)">
<path d="M104.253 82.6204C97.7933 84.3514 93.9598 90.9912 95.6908 97.4513C97.4218 103.911 104.062 107.745 110.522 106.014C116.982 104.283 120.815 97.6431 119.084 91.183C117.353 84.7229 110.713 80.8894 104.253 82.6204ZM114.523 90.7623L114.611 91.0891C114.685 91.366 114.596 91.6612 114.382 91.8511L113.753 92.4088C113.653 92.4974 113.532 92.5579 113.401 92.5844C113.27 92.6108 113.135 92.6022 113.008 92.5593L111.996 92.2169C111.887 92.18 111.771 92.1685 111.656 92.1832C111.542 92.198 111.433 92.2387 111.336 92.3021L111.223 92.3771C110.806 92.652 110.765 93.2473 111.14 93.577L112.016 94.3464C112.206 94.5134 112.467 94.5744 112.711 94.5089L113.098 94.4051C113.502 94.297 113.917 94.5366 114.025 94.9403L114.168 95.4751C114.211 95.6331 114.201 95.8011 114.14 95.9529L113.571 97.3679C113.528 97.4755 113.511 97.5915 113.519 97.707L113.605 98.8381C113.617 99.0011 113.576 99.1637 113.489 99.302C113.151 99.831 112.879 100.399 112.678 100.993L112.311 102.08C112.239 102.291 112.117 102.482 111.954 102.634C111.791 102.787 111.593 102.897 111.378 102.955C110.882 103.088 110.354 102.929 110.013 102.545C109.616 102.097 109.329 101.563 109.174 100.986L108.797 99.576C108.688 99.1722 108.273 98.9326 107.87 99.0408L106.649 99.3679C105.966 99.551 105.238 99.4549 104.625 99.1014C104.012 98.7476 103.565 98.165 103.382 97.4817L103.204 96.8185C102.987 96.0078 103.165 95.1418 103.683 94.4813L104.722 93.1569C105.078 92.7029 105.572 92.3767 106.13 92.2272L106.172 92.2159C106.572 92.1088 106.992 92.0959 107.397 92.1793L108.184 92.3404C108.381 92.3807 108.585 92.3411 108.753 92.2305L110.785 90.8889C111.057 90.7094 111.183 90.3762 111.099 90.0616C110.991 89.6579 110.576 89.4183 110.172 89.5264L109.696 89.654C109.502 89.7059 109.296 89.6788 109.122 89.5783L108.708 89.3394C108.622 89.2897 108.527 89.2574 108.429 89.2445C108.33 89.2315 108.23 89.2381 108.134 89.2638L103.887 90.4018C103.483 90.51 103.068 90.2704 102.96 89.8667L102.904 89.6591C102.814 89.3238 102.964 88.9702 103.268 88.8014L103.904 88.4485C104.068 88.3569 104.193 88.2077 104.253 88.0293L104.481 87.356C104.562 87.1165 104.758 86.9331 105.002 86.8677L106.144 86.5617C106.548 86.4535 106.787 86.0385 106.679 85.6348L106.405 84.6113C110.304 84.2158 114.055 86.2127 115.928 89.6024L115.058 89.8353C114.655 89.9435 114.415 90.3585 114.523 90.7623Z" fill="black" fill-opacity="0.1"/>
</g>
<g clip-path="url(#clip15_1722_48199)">
<path d="M155.814 84.5767L162.228 82.8579L158.892 70.4066C158.724 69.7793 158.084 69.4098 157.457 69.5779L138.591 74.633C137.964 74.8011 137.594 75.4409 137.762 76.0682L142.817 94.934C142.985 95.5612 143.625 95.9307 144.253 95.7626L156.704 92.4263L154.985 86.0119C154.818 85.3893 155.191 84.7435 155.814 84.5767ZM162.593 85.5404L159.21 91.401C159.054 91.6702 158.798 91.8652 158.496 91.946L158.213 92.0219L156.596 85.9848L162.633 84.3672L162.71 84.6549C162.789 84.952 162.749 85.2713 162.593 85.5404Z" fill="black" fill-opacity="0.1"/>
</g>
<g clip-path="url(#clip16_1722_48199)">
<path d="M188.091 61.1896C186.838 61.5254 186.028 62.6635 186.042 63.9045C186.008 63.9135 185.981 63.9119 185.947 63.9208C184.467 64.3174 183.587 65.843 183.983 67.3229C184.037 67.5242 184.115 67.7145 184.212 67.8908C183.122 68.7219 182.584 70.1512 182.959 71.5514C183.101 72.0797 183.366 72.5342 183.699 72.9213C182.848 73.7695 182.452 75.0258 182.786 76.271C183.16 77.667 184.337 78.6369 185.687 78.8142C185.701 79.0172 185.733 79.2198 185.787 79.4211C186.234 81.0896 187.946 82.0779 189.614 81.6308C189.786 81.5847 189.948 81.5188 190.104 81.4457C190.827 82.5327 192.174 83.1017 193.507 82.7444C195.176 82.2974 196.164 80.5857 195.717 78.9171L191.493 63.1537C191.097 61.6738 189.571 60.793 188.091 61.1896ZM206.934 69.8005C206.601 68.5554 205.63 67.6652 204.468 67.3563C204.567 66.8535 204.566 66.3281 204.424 65.7999C204.049 64.3996 202.868 63.4309 201.509 63.2558C201.501 63.0559 201.477 62.851 201.423 62.6498C201.027 61.1699 199.501 60.2891 198.021 60.6856C197.988 60.6946 197.961 60.7108 197.931 60.7187C197.323 59.6372 196.053 59.0563 194.799 59.3922C193.319 59.7887 192.437 61.3102 192.835 62.7943L197.059 78.5576C197.506 80.2262 199.217 81.2144 200.886 80.7674C202.219 80.4101 203.102 79.2435 203.184 77.9408C203.356 77.9264 203.529 77.9024 203.701 77.8563C205.369 77.4092 206.358 75.6976 205.91 74.029C205.856 73.8278 205.783 73.6363 205.693 73.4536C206.774 72.6248 207.308 71.1966 206.934 69.8005Z" fill="black" fill-opacity="0.1"/>
</g>
<g clip-path="url(#clip17_1722_48199)">
<path d="M230.726 60.6644L235.372 52.6172L232.734 51.0938L230.604 54.7824C230.579 54.8265 230.545 54.8651 230.505 54.8961C230.465 54.927 230.419 54.9498 230.369 54.9629C230.32 54.9761 230.269 54.9794 230.219 54.9728C230.168 54.9661 230.12 54.9496 230.076 54.9241L229.405 54.5371C229.22 54.43 229.156 54.1933 229.264 54.0083L231.393 50.3198L229.381 49.1578C228.64 48.73 227.693 48.9838 227.266 49.7247L224.168 55.0896C223.741 55.8304 223.994 56.7776 224.735 57.2054L230.726 60.6644ZM247.571 50.2462C248.219 49.1243 247.834 47.6902 246.713 47.0424L244.007 45.48C242.885 44.8323 241.45 45.2167 240.802 46.3387L239.213 49.0904L245.983 52.9988L247.571 50.2462ZM238.432 50.4442L228.177 68.2035L228.65 73.5079C228.714 74.2233 229.468 74.659 230.12 74.3555L234.95 72.109L245.201 54.3521L238.432 50.4442ZM250.841 61.5477L248.83 60.3862L246.7 64.0748C246.593 64.2602 246.356 64.3236 246.171 64.2165L245.501 63.8294C245.316 63.7223 245.252 63.4855 245.359 63.3007L247.489 59.6121L244.849 58.0881L240.202 66.1353L246.195 69.5948C246.936 70.0226 247.883 69.7688 248.311 69.0279L251.408 63.6635C251.836 62.9226 251.582 61.9755 250.841 61.5477Z" fill="black" fill-opacity="0.1"/>
</g>
<g clip-path="url(#clip18_1722_48199)">
<path d="M278.121 36.0329C271.66 37.7639 267.827 44.4037 269.558 50.8638C271.289 57.3239 277.929 61.1574 284.389 59.4265C290.849 57.6955 294.682 51.0557 292.951 44.5956C291.221 38.1355 284.581 34.302 278.121 36.0329ZM288.39 44.1748L288.478 44.5017C288.552 44.7785 288.463 45.0738 288.249 45.2637L287.62 45.8214C287.52 45.9099 287.399 45.9705 287.268 45.9969C287.137 46.0234 287.002 46.0147 286.876 45.9719L285.863 45.6294C285.754 45.5925 285.638 45.581 285.524 45.5958C285.409 45.6106 285.3 45.6512 285.204 45.7147L285.09 45.7897C284.673 46.0646 284.632 46.6598 285.007 46.9896L285.883 47.7589C286.073 47.9259 286.334 47.9869 286.578 47.9215L286.965 47.8177C287.369 47.7095 287.784 47.9491 287.892 48.3529L288.035 48.8877C288.078 49.0457 288.068 49.2137 288.007 49.3655L287.439 50.7805C287.396 50.8881 287.378 51.0041 287.386 51.1195L287.472 52.2506C287.484 52.4136 287.444 52.5762 287.356 52.7145C287.019 53.2436 286.746 53.8115 286.545 54.4058L286.178 55.4925C286.106 55.7038 285.984 55.8942 285.821 56.0468C285.658 56.1994 285.46 56.3095 285.245 56.3673C284.749 56.5001 284.221 56.3414 283.88 55.9574C283.484 55.5099 283.196 54.9761 283.042 54.3983L282.664 52.9885C282.556 52.5848 282.141 52.3452 281.737 52.4534L280.516 52.7804C279.833 52.9635 279.105 52.8674 278.492 52.514C277.88 52.1601 277.433 51.5775 277.249 50.8942L277.072 50.2311C276.854 49.4203 277.032 48.5544 277.55 47.8939L278.589 46.5695C278.946 46.1155 279.44 45.7893 279.997 45.6397L280.039 45.6285C280.439 45.5213 280.859 45.5085 281.264 45.5919L282.052 45.753C282.248 45.7933 282.453 45.7537 282.62 45.6431L284.652 44.3014C284.924 44.1219 285.051 43.7888 284.966 43.4742C284.858 43.0704 284.443 42.8308 284.039 42.939L283.563 43.0665C283.37 43.1185 283.163 43.0914 282.989 42.9909L282.575 42.752C282.489 42.7023 282.394 42.67 282.296 42.657C282.197 42.6441 282.097 42.6506 282.001 42.6764L277.754 43.8144C277.35 43.9226 276.935 43.6829 276.827 43.2792L276.771 43.0717C276.682 42.7364 276.831 42.3828 277.135 42.214L277.771 41.8611C277.935 41.7695 278.06 41.6203 278.121 41.4419L278.349 40.7686C278.43 40.529 278.625 40.3457 278.869 40.2802L280.011 39.9743C280.415 39.8661 280.655 39.4511 280.546 39.0474L280.272 38.0239C284.171 37.6283 287.922 39.6253 289.795 43.015L288.925 43.2479C288.522 43.3561 288.282 43.7711 288.39 44.1748Z" fill="black" fill-opacity="0.1"/>
</g>
<g clip-path="url(#clip19_1722_48199)">
<path d="M329.681 37.9893L336.095 36.2705L332.759 23.8192C332.591 23.1919 331.951 22.8224 331.324 22.9905L312.458 28.0456C311.831 28.2137 311.461 28.8535 311.629 29.4808L316.685 48.3466C316.853 48.9738 317.492 49.3433 318.12 49.1752L330.571 45.8389L328.852 39.4245C328.686 38.8019 329.059 38.1561 329.681 37.9893ZM336.46 38.953L333.077 44.8136C332.921 45.0827 332.665 45.2777 332.363 45.3586L332.08 45.4345L330.463 39.3974L336.5 37.7798L336.577 38.0675C336.657 38.3646 336.616 38.6839 336.46 38.953Z" fill="black" fill-opacity="0.1"/>
</g>
<g clip-path="url(#clip20_1722_48199)">
<path d="M370.694 15.6765C370.024 13.1758 367.454 11.6919 364.953 12.3619C362.452 13.0319 360.968 15.6022 361.638 18.1029C362.308 20.6035 364.879 22.0875 367.379 21.4175C369.88 20.7474 371.364 18.1771 370.694 15.6765ZM366.943 24.0164C363.686 23.0532 359.027 23.797 356.711 24.2784C355.933 24.4404 355.451 25.1956 355.648 25.9327L358.464 36.4409C358.645 37.1168 359.343 37.534 360.055 37.382C362.143 36.9382 366.415 36.2176 369.683 36.8964C370.185 37.0006 370.628 36.557 370.499 36.0778L367.391 24.4758C367.331 24.2557 367.168 24.083 366.943 24.0164ZM378.049 18.5612C375.803 19.3014 371.396 20.9872 369.057 23.4499C368.896 23.6201 368.843 23.8592 368.902 24.0794L372.008 35.6719C372.137 36.1525 372.744 36.3155 373.127 35.9736C375.618 33.7533 379.676 32.242 381.705 31.5823C382.398 31.3572 382.794 30.6472 382.613 29.9713L379.797 19.4621C379.599 18.7251 378.803 18.3124 378.049 18.5612Z" fill="black" fill-opacity="0.1"/>
</g>
<g clip-path="url(#clip21_1722_48199)">
<path d="M-14.4995 161.028C-20.9596 162.759 -24.7931 169.398 -23.0622 175.859C-21.3312 182.319 -14.6914 186.152 -8.23126 184.421C-1.77116 182.69 2.06234 176.05 0.331364 169.59C-1.39962 163.13 -8.03943 159.297 -14.4995 161.028ZM-4.22982 169.169L-4.14224 169.496C-4.06806 169.773 -4.15678 170.068 -4.37128 170.258L-4.99983 170.816C-5.09964 170.905 -5.22112 170.965 -5.35191 170.992C-5.48272 171.018 -5.61818 171.009 -5.74455 170.967L-6.75684 170.624C-6.86603 170.587 -6.98219 170.576 -7.09649 170.59C-7.21078 170.605 -7.32021 170.646 -7.41643 170.709L-7.5303 170.784C-7.94697 171.059 -7.98765 171.655 -7.61268 171.984L-6.73724 172.754C-6.54741 172.921 -6.2864 172.982 -6.04209 172.916L-5.65487 172.812C-5.25115 172.704 -4.83612 172.944 -4.72794 173.348L-4.58463 173.882C-4.5423 174.04 -4.55238 174.208 -4.61331 174.36L-5.18148 175.775C-5.22444 175.883 -5.24239 175.999 -5.2337 176.114L-5.14799 177.245C-5.13565 177.408 -5.1765 177.571 -5.26431 177.709C-5.60161 178.238 -5.87377 178.806 -6.07491 179.4L-6.44239 180.487C-6.51388 180.698 -6.63642 180.889 -6.79914 181.041C-6.96187 181.194 -7.15974 181.304 -7.37521 181.362C-7.87091 181.495 -8.39923 181.336 -8.7397 180.952C-9.13656 180.505 -9.42377 179.971 -9.57856 179.393L-9.9563 177.983C-10.0645 177.579 -10.4795 177.34 -10.8832 177.448L-12.1038 177.775C-12.7873 177.958 -13.5152 177.862 -14.128 177.509C-14.7406 177.155 -15.1876 176.572 -15.3708 175.889L-15.5485 175.226C-15.7657 174.415 -15.5883 173.549 -15.0702 172.889L-14.0309 171.564C-13.6745 171.11 -13.1805 170.784 -12.623 170.634L-12.581 170.623C-12.1811 170.516 -11.7614 170.503 -11.3559 170.587L-10.5686 170.748C-10.3718 170.788 -10.1675 170.748 -10 170.638L-7.96798 169.296C-7.6961 169.117 -7.56952 168.783 -7.65382 168.469C-7.76199 168.065 -8.17702 167.825 -8.58075 167.934L-9.05663 168.061C-9.25048 168.113 -9.45691 168.086 -9.63093 167.986L-10.0448 167.747C-10.1308 167.697 -10.2258 167.665 -10.3244 167.652C-10.4229 167.639 -10.5231 167.645 -10.6191 167.671L-14.8662 168.809C-15.2699 168.917 -15.685 168.678 -15.7931 168.274L-15.8487 168.066C-15.9386 167.731 -15.7887 167.377 -15.4851 167.209L-14.8492 166.856C-14.6847 166.764 -14.5599 166.615 -14.4995 166.437L-14.2715 165.763C-14.1906 165.524 -13.995 165.34 -13.7507 165.275L-12.6089 164.969C-12.2051 164.861 -11.9655 164.446 -12.0737 164.042L-12.3479 163.019C-8.44931 162.623 -4.69769 164.62 -2.82542 168.01L-3.69466 168.243C-4.09839 168.351 -4.338 168.766 -4.22982 169.169Z" fill="black" fill-opacity="0.1"/>
</g>
<g clip-path="url(#clip22_1722_48199)">
<path d="M37.061 162.984L43.4753 161.265L40.139 148.814C39.9709 148.187 39.331 147.817 38.7037 147.985L19.838 153.04C19.2107 153.208 18.8413 153.848 19.0094 154.476L24.0644 173.341C24.2325 173.969 24.8724 174.338 25.4997 174.17L37.9511 170.834L36.2323 164.419C36.0655 163.797 36.4384 163.151 37.061 162.984ZM43.8402 163.948L40.4566 169.808C40.3013 170.077 40.0451 170.272 39.7433 170.353L39.4603 170.429L37.8427 164.392L43.8797 162.774L43.9568 163.062C44.0364 163.359 43.9956 163.679 43.8402 163.948Z" fill="black" fill-opacity="0.1"/>
</g>
<g clip-path="url(#clip23_1722_48199)">
<path d="M78.0739 140.671C77.4038 138.171 74.8335 136.687 72.3329 137.357C69.8322 138.027 68.3483 140.597 69.0183 143.098C69.6883 145.598 72.2586 147.082 74.7593 146.412C77.2599 145.742 78.7439 143.172 78.0739 140.671ZM74.3228 149.011C71.0656 148.048 66.407 148.792 64.0913 149.273C63.3133 149.435 62.8307 150.19 63.0282 150.927L65.8439 161.436C66.025 162.112 66.7226 162.529 67.4351 162.377C69.5232 161.933 73.7953 161.212 77.0633 161.891C77.5649 161.995 78.0076 161.552 77.8792 161.072L74.7705 149.471C74.711 149.25 74.5479 149.078 74.3228 149.011ZM85.4285 143.556C83.1827 144.296 78.776 145.982 76.4372 148.445C76.2756 148.615 76.2229 148.854 76.2819 149.074L79.3881 160.667C79.5169 161.147 80.1237 161.31 80.5072 160.968C82.9979 158.748 87.0555 157.237 89.0853 156.577C89.7782 156.352 90.1738 155.642 89.9927 154.966L87.1768 144.457C86.9788 143.72 86.1833 143.307 85.4285 143.556Z" fill="black" fill-opacity="0.1"/>
</g>
<g clip-path="url(#clip24_1722_48199)">
<path d="M112.804 127.95C111.551 128.286 110.741 129.424 110.755 130.665C110.721 130.674 110.694 130.672 110.66 130.681C109.18 131.078 108.3 132.603 108.696 134.083C108.75 134.285 108.828 134.475 108.925 134.651C107.835 135.482 107.297 136.912 107.672 138.312C107.814 138.84 108.079 139.295 108.412 139.682C107.561 140.53 107.165 141.786 107.499 143.031C107.873 144.427 109.05 145.397 110.4 145.575C110.414 145.778 110.446 145.98 110.5 146.182C110.947 147.85 112.659 148.838 114.327 148.391C114.499 148.345 114.661 148.279 114.817 148.206C115.539 149.293 116.887 149.862 118.22 149.505C119.889 149.058 120.877 147.346 120.43 145.678L116.206 129.914C115.81 128.434 114.284 127.553 112.804 127.95ZM131.647 136.561C131.313 135.316 130.343 134.426 129.181 134.117C129.28 133.614 129.279 133.089 129.137 132.56C128.762 131.16 127.581 130.191 126.222 130.016C126.214 129.816 126.19 129.611 126.136 129.41C125.74 127.93 124.214 127.05 122.734 127.446C122.701 127.455 122.674 127.471 122.644 127.479C122.035 126.398 120.765 125.817 119.512 126.153C118.032 126.549 117.15 128.071 117.548 129.555L121.772 145.318C122.219 146.987 123.93 147.975 125.599 147.528C126.932 147.171 127.815 146.004 127.897 144.701C128.068 144.687 128.242 144.663 128.414 144.617C130.082 144.17 131.07 142.458 130.623 140.789C130.569 140.588 130.496 140.397 130.406 140.214C131.487 139.385 132.021 137.957 131.647 136.561Z" fill="black" fill-opacity="0.1"/>
</g>
<g clip-path="url(#clip25_1722_48199)">
<path d="M174.379 128.211L170.133 112.364C169.965 111.737 169.325 111.367 168.698 111.535L153.228 115.68C150.728 116.35 149.244 118.922 149.913 121.421L153.957 136.514C154.627 139.014 157.199 140.498 159.698 139.829L175.168 135.683C175.796 135.515 176.165 134.875 175.997 134.248L175.795 133.494C175.7 133.14 175.449 132.863 175.139 132.724C174.746 132.051 174.191 129.98 174.195 129.201C174.395 128.93 174.474 128.565 174.379 128.211ZM156.431 121.596C156.389 121.44 156.482 121.279 156.638 121.237L166.637 118.558C166.792 118.516 166.954 118.61 166.995 118.765L167.248 119.709C167.29 119.864 167.197 120.026 167.041 120.067L157.042 122.747C156.887 122.788 156.725 122.695 156.683 122.539L156.431 121.596ZM157.239 124.615C157.198 124.459 157.291 124.297 157.447 124.256L167.445 121.577C167.601 121.535 167.763 121.628 167.804 121.784L168.057 122.727C168.099 122.883 168.006 123.044 167.85 123.086L157.851 125.765C157.695 125.807 157.534 125.714 157.492 125.558L157.239 124.615ZM172.35 133.203L158.89 136.81C158.055 137.034 157.2 136.54 156.976 135.705C156.754 134.875 157.251 134.014 158.081 133.792L171.542 130.185C171.668 131.015 172.045 132.421 172.35 133.203Z" fill="black" fill-opacity="0.1"/>
</g>
<g clip-path="url(#clip26_1722_48199)">
<path d="M205.55 106.375L213.205 110.795L203.607 127.419L198.383 129.456C197.684 129.729 196.912 129.282 196.799 128.54L195.954 122.993L205.55 106.375ZM215.081 102.857L211.486 100.782C210.365 100.134 208.931 100.519 208.283 101.64L206.331 105.022L213.987 109.442L215.939 106.06C216.587 104.938 216.202 103.504 215.081 102.857Z" fill="black" fill-opacity="0.1"/>
</g>
<g clip-path="url(#clip27_1722_48199)">
<path d="M251.94 94.0837C251.27 91.5831 248.7 90.0991 246.199 90.7692C243.698 91.4392 242.214 94.0095 242.885 96.5101C243.555 99.0108 246.125 100.495 248.626 99.8247C251.126 99.1547 252.61 96.5844 251.94 94.0837ZM248.189 102.424C244.932 101.46 240.273 102.204 237.958 102.686C237.18 102.848 236.697 103.603 236.894 104.34L239.71 114.848C239.891 115.524 240.589 115.941 241.301 115.789C243.389 115.345 247.662 114.625 250.929 115.304C251.431 115.408 251.874 114.964 251.745 114.485L248.637 102.883C248.577 102.663 248.414 102.49 248.189 102.424ZM259.295 96.9684C257.049 97.7087 252.642 99.3945 250.303 101.857C250.142 102.027 250.089 102.266 250.148 102.487L253.254 114.079C253.383 114.56 253.99 114.723 254.373 114.381C256.864 112.161 260.922 110.649 262.952 109.99C263.644 109.764 264.04 109.054 263.859 108.379L261.043 97.8694C260.845 97.1323 260.05 96.7197 259.295 96.9684Z" fill="black" fill-opacity="0.1"/>
</g>
<g clip-path="url(#clip28_1722_48199)">
<path d="M304.78 93.2706L300.534 77.4234C300.365 76.7961 299.726 76.4267 299.098 76.5948L283.628 80.7399C281.129 81.4097 279.644 83.9812 280.314 86.4809L284.358 101.573C285.028 104.073 287.599 105.558 290.099 104.888L305.569 100.743C306.196 100.575 306.565 99.9349 306.397 99.3077L306.195 98.553C306.1 98.1993 305.849 97.9228 305.539 97.7835C305.146 97.1103 304.592 95.0398 304.595 94.2604C304.795 93.9893 304.875 93.6244 304.78 93.2706ZM286.831 86.6555C286.789 86.4999 286.883 86.3384 287.038 86.2967L297.037 83.6175C297.193 83.5758 297.354 83.6691 297.396 83.8247L297.649 84.768C297.69 84.9236 297.597 85.0851 297.441 85.1268L287.443 87.806C287.287 87.8477 287.126 87.7545 287.084 87.5988L286.831 86.6555ZM287.64 89.674C287.598 89.5184 287.691 89.3569 287.847 89.3152L297.846 86.6361C298.002 86.5943 298.163 86.6876 298.205 86.8432L298.457 87.7865C298.499 87.9421 298.406 88.1036 298.25 88.1453L288.251 90.8245C288.096 90.8662 287.934 90.773 287.893 90.6173L287.64 89.674ZM302.751 98.2628L289.29 101.87C288.455 102.093 287.6 101.599 287.376 100.765C287.154 99.9346 287.651 99.0734 288.481 98.851L301.942 95.2442C302.068 96.0748 302.445 97.4803 302.751 98.2628Z" fill="black" fill-opacity="0.1"/>
</g>
<g clip-path="url(#clip29_1722_48199)">
<path d="M335.95 71.434L343.606 75.8541L334.008 92.4785L328.784 94.5152C328.084 94.788 327.312 94.3418 327.199 93.5997L326.355 88.0521L335.95 71.434ZM345.481 67.9166L341.887 65.8412C340.766 65.1938 339.331 65.5781 338.684 66.6994L336.731 70.0812L344.387 74.5013L346.34 71.1195C346.987 69.9977 346.603 68.5639 345.481 67.9166Z" fill="black" fill-opacity="0.1"/>
</g>
<g clip-path="url(#clip30_1722_48199)">
<path d="M372.772 69.1905L377.419 61.1433L374.781 59.62L372.651 63.3086C372.626 63.3526 372.592 63.3912 372.552 63.4222C372.511 63.4532 372.465 63.4759 372.416 63.489C372.367 63.5022 372.316 63.5055 372.266 63.4989C372.215 63.4922 372.167 63.4757 372.123 63.4502L371.452 63.0632C371.267 62.9561 371.203 62.7194 371.31 62.5345L373.44 58.8459L371.428 57.6839C370.687 57.2561 369.74 57.5099 369.312 58.2509L366.215 63.6157C365.788 64.3565 366.041 65.3037 366.782 65.7315L372.772 69.1905ZM389.618 58.7724C390.266 57.6505 389.881 56.2163 388.76 55.5685L386.054 54.0061C384.932 53.3584 383.497 53.7429 382.849 54.8649L381.26 57.6165L388.03 61.5249L389.618 58.7724ZM380.479 58.9703L370.224 76.7296L370.697 82.034C370.761 82.7494 371.515 83.1851 372.167 82.8816L376.997 80.6351L387.248 62.8782L380.479 58.9703ZM392.888 70.0738L390.876 68.9124L388.747 72.6009C388.64 72.7863 388.403 72.8498 388.218 72.7426L387.548 72.3556C387.363 72.2484 387.299 72.0116 387.406 71.8269L389.536 68.1383L386.896 66.6143L382.249 74.6615L388.242 78.1209C388.983 78.5487 389.93 78.2949 390.358 77.554L393.455 72.1896C393.883 71.4487 393.629 70.5016 392.888 70.0738Z" fill="black" fill-opacity="0.1"/>
</g>
<g clip-path="url(#clip31_1722_48199)">
<path d="M179.108 171.51L185.522 169.791L182.186 157.34C182.018 156.713 181.378 156.343 180.751 156.511L161.885 161.566C161.258 161.734 160.888 162.374 161.056 163.002L166.111 181.867C166.279 182.495 166.919 182.864 167.547 182.696L179.998 179.36L178.279 172.945C178.112 172.323 178.485 171.677 179.108 171.51ZM185.887 172.474L182.504 178.334C182.348 178.603 182.092 178.798 181.79 178.879L181.507 178.955L179.89 172.918L185.927 171.3L186.004 171.588C186.083 171.885 186.042 172.205 185.887 172.474Z" fill="black" fill-opacity="0.1"/>
</g>
<g clip-path="url(#clip32_1722_48199)">
<path d="M211.385 148.123C210.132 148.459 209.322 149.597 209.336 150.838C209.302 150.847 209.275 150.845 209.241 150.854C207.761 151.251 206.881 152.776 207.277 154.256C207.331 154.457 207.409 154.648 207.506 154.824C206.416 155.655 205.878 157.084 206.253 158.485C206.395 159.013 206.66 159.468 206.993 159.855C206.142 160.703 205.746 161.959 206.08 163.204C206.454 164.6 207.631 165.57 208.981 165.748C208.995 165.95 209.027 166.153 209.081 166.354C209.528 168.023 211.24 169.011 212.908 168.564C213.08 168.518 213.242 168.452 213.398 168.379C214.12 169.466 215.468 170.035 216.801 169.678C218.47 169.231 219.458 167.519 219.011 165.85L214.787 150.087C214.391 148.607 212.865 147.726 211.385 148.123ZM230.228 156.734C229.895 155.489 228.924 154.599 227.762 154.29C227.861 153.787 227.86 153.261 227.718 152.733C227.343 151.333 226.162 150.364 224.803 150.189C224.795 149.989 224.771 149.784 224.717 149.583C224.321 148.103 222.795 147.222 221.315 147.619C221.282 147.628 221.255 147.644 221.225 147.652C220.617 146.57 219.347 145.99 218.093 146.325C216.613 146.722 215.731 148.243 216.129 149.728L220.353 165.491C220.8 167.16 222.511 168.148 224.18 167.701C225.513 167.343 226.396 166.177 226.478 164.874C226.649 164.86 226.823 164.836 226.995 164.79C228.663 164.343 229.651 162.631 229.204 160.962C229.15 160.761 229.077 160.57 228.987 160.387C230.068 159.558 230.602 158.13 230.228 156.734Z" fill="black" fill-opacity="0.1"/>
</g>
<g clip-path="url(#clip33_1722_48199)">
<path d="M254.02 147.598L258.666 139.55L256.028 138.027L253.898 141.716C253.873 141.76 253.839 141.798 253.799 141.829C253.758 141.86 253.712 141.883 253.663 141.896C253.614 141.909 253.563 141.913 253.513 141.906C253.462 141.899 253.414 141.883 253.37 141.857L252.699 141.47C252.514 141.363 252.45 141.127 252.558 140.942L254.687 137.253L252.675 136.091C251.934 135.663 250.987 135.917 250.559 136.658L247.462 142.023C247.035 142.764 247.288 143.711 248.029 144.139L254.02 147.598ZM270.865 137.18C271.513 136.058 271.128 134.623 270.007 133.976L267.301 132.413C266.179 131.766 264.744 132.15 264.096 133.272L262.507 136.024L269.277 139.932L270.865 137.18ZM261.726 137.377L251.471 155.137L251.944 160.441C252.008 161.157 252.762 161.592 253.414 161.289L258.244 159.042L268.495 141.285L261.726 137.377ZM274.135 148.481L272.124 147.32L269.994 151.008C269.887 151.193 269.65 151.257 269.465 151.15L268.795 150.763C268.61 150.656 268.546 150.419 268.653 150.234L270.783 146.545L268.143 145.021L263.496 153.069L269.489 156.528C270.23 156.956 271.177 156.702 271.605 155.961L274.702 150.597C275.13 149.856 274.876 148.909 274.135 148.481Z" fill="black" fill-opacity="0.1"/>
</g>
<g clip-path="url(#clip34_1722_48199)">
<path d="M301.415 122.966C294.954 124.697 291.121 131.337 292.852 137.797C294.583 144.257 301.223 148.091 307.683 146.36C314.143 144.629 317.976 137.989 316.245 131.529C314.514 125.069 307.875 121.235 301.415 122.966ZM311.684 131.108L311.772 131.435C311.846 131.712 311.757 132.007 311.543 132.197L310.914 132.755C310.814 132.843 310.693 132.904 310.562 132.93C310.431 132.957 310.296 132.948 310.17 132.905L309.157 132.563C309.048 132.526 308.932 132.514 308.818 132.529C308.703 132.544 308.594 132.584 308.498 132.648L308.384 132.723C307.967 132.998 307.926 133.593 308.301 133.923L309.177 134.692C309.367 134.859 309.628 134.92 309.872 134.855L310.259 134.751C310.663 134.643 311.078 134.882 311.186 135.286L311.329 135.821C311.372 135.979 311.362 136.147 311.301 136.299L310.733 137.714C310.69 137.821 310.672 137.937 310.68 138.053L310.766 139.184C310.778 139.347 310.738 139.51 310.65 139.648C310.312 140.177 310.04 140.745 309.839 141.339L309.472 142.426C309.4 142.637 309.278 142.827 309.115 142.98C308.952 143.133 308.754 143.243 308.539 143.301C308.043 143.433 307.515 143.275 307.174 142.891C306.777 142.443 306.49 141.909 306.336 141.332L305.958 139.922C305.85 139.518 305.435 139.278 305.031 139.387L303.81 139.714C303.127 139.897 302.399 139.801 301.786 139.447C301.173 139.093 300.726 138.511 300.543 137.827L300.366 137.164C300.148 136.354 300.326 135.488 300.844 134.827L301.883 133.503C302.24 133.049 302.734 132.723 303.291 132.573L303.333 132.562C303.733 132.455 304.153 132.442 304.558 132.525L305.345 132.686C305.542 132.727 305.747 132.687 305.914 132.576L307.946 131.235C308.218 131.055 308.345 130.722 308.26 130.407C308.152 130.004 307.737 129.764 307.333 129.872L306.857 130C306.664 130.052 306.457 130.025 306.283 129.924L305.869 129.685C305.783 129.636 305.688 129.603 305.59 129.59C305.491 129.577 305.391 129.584 305.295 129.61L301.048 130.748C300.644 130.856 300.229 130.616 300.121 130.212L300.065 130.005C299.975 129.67 300.125 129.316 300.429 129.147L301.065 128.794C301.229 128.703 301.354 128.554 301.415 128.375L301.643 127.702C301.723 127.462 301.919 127.279 302.163 127.214L303.305 126.908C303.709 126.799 303.949 126.384 303.84 125.981L303.566 124.957C307.465 124.562 311.216 126.559 313.089 129.948L312.219 130.181C311.816 130.289 311.576 130.704 311.684 131.108Z" fill="black" fill-opacity="0.1"/>
</g>
<g clip-path="url(#clip35_1722_48199)">
<path d="M352.975 124.923L359.389 123.204L356.053 110.752C355.885 110.125 355.245 109.756 354.618 109.924L335.752 114.979C335.125 115.147 334.755 115.787 334.923 116.414L339.978 135.28C340.147 135.907 340.786 136.277 341.414 136.108L353.865 132.772L352.146 126.358C351.98 125.735 352.352 125.089 352.975 124.923ZM359.754 125.886L356.371 131.747C356.215 132.016 355.959 132.211 355.657 132.292L355.374 132.368L353.757 126.331L359.794 124.713L359.871 125.001C359.95 125.298 359.91 125.617 359.754 125.886Z" fill="black" fill-opacity="0.1"/>
</g>
<g clip-path="url(#clip36_1722_48199)">
<path d="M393.988 102.61C393.318 100.109 390.748 98.6252 388.247 99.2952C385.746 99.9653 384.262 102.536 384.932 105.036C385.602 107.537 388.173 109.021 390.673 108.351C393.174 107.681 394.658 105.11 393.988 102.61ZM390.237 110.95C386.98 109.987 382.321 110.73 380.005 111.212C379.227 111.374 378.745 112.129 378.942 112.866L381.758 123.374C381.939 124.05 382.637 124.467 383.349 124.315C385.437 123.872 389.709 123.151 392.977 123.83C393.479 123.934 393.922 123.49 393.793 123.011L390.685 111.409C390.625 111.189 390.462 111.016 390.237 110.95ZM401.343 105.494C399.097 106.235 394.69 107.921 392.351 110.383C392.19 110.553 392.137 110.792 392.196 111.013L395.302 122.605C395.431 123.086 396.038 123.249 396.421 122.907C398.912 120.687 402.97 119.175 404.999 118.516C405.692 118.291 406.088 117.58 405.907 116.905L403.091 106.395C402.893 105.658 402.097 105.246 401.343 105.494Z" fill="black" fill-opacity="0.1"/>
</g>
<defs>
<clipPath id="clip0_1722_48199">
<rect width="25" height="25" fill="white" transform="translate(-18.1484 21.8387) rotate(-15)"/>
</clipPath>
<clipPath id="clip1_1722_48199">
<rect width="25" height="25" fill="white" transform="translate(25.3184 10.1918) rotate(-15)"/>
</clipPath>
<clipPath id="clip2_1722_48199">
<rect width="25" height="25" fill="white" transform="translate(68.7842 -1.45502) rotate(-15)"/>
</clipPath>
<clipPath id="clip3_1722_48199">
<rect width="25" height="25" fill="white" transform="translate(112.251 -13.1019) rotate(-15)"/>
</clipPath>
<clipPath id="clip4_1722_48199">
<rect width="25" height="25" fill="white" transform="translate(-6.50098 65.3054) rotate(-15)"/>
</clipPath>
<clipPath id="clip5_1722_48199">
<rect width="25" height="25" fill="white" transform="translate(36.9658 53.6585) rotate(-15)"/>
</clipPath>
<clipPath id="clip6_1722_48199">
<rect width="25" height="25" fill="white" transform="translate(80.4316 42.0116) rotate(-15)"/>
</clipPath>
<clipPath id="clip7_1722_48199">
<rect width="25" height="25" fill="white" transform="translate(123.898 30.3648) rotate(-15)"/>
</clipPath>
<clipPath id="clip8_1722_48199">
<rect width="25" height="25" fill="white" transform="translate(167.365 18.7179) rotate(-15)"/>
</clipPath>
<clipPath id="clip9_1722_48199">
<rect width="25" height="25" fill="white" transform="translate(210.832 7.07108) rotate(-15)"/>
</clipPath>
<clipPath id="clip10_1722_48199">
<rect width="25" height="25" fill="white" transform="translate(254.299 -4.57578) rotate(-15)"/>
</clipPath>
<clipPath id="clip11_1722_48199">
<rect width="25" height="25" fill="white" transform="translate(297.766 -16.2226) rotate(-15)"/>
</clipPath>
<clipPath id="clip12_1722_48199">
<rect width="25" height="25" fill="white" transform="translate(5.14551 108.772) rotate(-15)"/>
</clipPath>
<clipPath id="clip13_1722_48199">
<rect width="25" height="25" fill="white" transform="translate(48.6123 97.1252) rotate(-15)"/>
</clipPath>
<clipPath id="clip14_1722_48199">
<rect width="25" height="25" fill="white" transform="translate(92.0781 85.4783) rotate(-15)"/>
</clipPath>
<clipPath id="clip15_1722_48199">
<rect width="25" height="25" fill="white" transform="translate(135.545 73.8314) rotate(-15)"/>
</clipPath>
<clipPath id="clip16_1722_48199">
<rect width="25" height="25" fill="white" transform="translate(179.012 62.1846) rotate(-15)"/>
</clipPath>
<clipPath id="clip17_1722_48199">
<rect width="25" height="25" fill="white" transform="translate(222.479 50.5377) rotate(-15)"/>
</clipPath>
<clipPath id="clip18_1722_48199">
<rect width="25" height="25" fill="white" transform="translate(265.945 38.8909) rotate(-15)"/>
</clipPath>
<clipPath id="clip19_1722_48199">
<rect width="25" height="25" fill="white" transform="translate(309.412 27.244) rotate(-15)"/>
</clipPath>
<clipPath id="clip20_1722_48199">
<rect width="25" height="25" fill="white" transform="translate(352.879 15.5971) rotate(-15)"/>
</clipPath>
<clipPath id="clip21_1722_48199">
<rect width="25" height="25" fill="white" transform="translate(-26.6748 163.886) rotate(-15)"/>
</clipPath>
<clipPath id="clip22_1722_48199">
<rect width="25" height="25" fill="white" transform="translate(16.792 152.239) rotate(-15)"/>
</clipPath>
<clipPath id="clip23_1722_48199">
<rect width="25" height="25" fill="white" transform="translate(60.2588 140.592) rotate(-15)"/>
</clipPath>
<clipPath id="clip24_1722_48199">
<rect width="25" height="25" fill="white" transform="translate(103.725 128.945) rotate(-15)"/>
</clipPath>
<clipPath id="clip25_1722_48199">
<rect width="25" height="25" fill="white" transform="translate(147.191 117.298) rotate(-15)"/>
</clipPath>
<clipPath id="clip26_1722_48199">
<rect width="25" height="25" fill="white" transform="translate(190.658 105.651) rotate(-15)"/>
</clipPath>
<clipPath id="clip27_1722_48199">
<rect width="25" height="25" fill="white" transform="translate(234.125 94.0044) rotate(-15)"/>
</clipPath>
<clipPath id="clip28_1722_48199">
<rect width="25" height="25" fill="white" transform="translate(277.592 82.3575) rotate(-15)"/>
</clipPath>
<clipPath id="clip29_1722_48199">
<rect width="25" height="25" fill="white" transform="translate(321.059 70.7107) rotate(-15)"/>
</clipPath>
<clipPath id="clip30_1722_48199">
<rect width="25" height="25" fill="white" transform="translate(364.525 59.0638) rotate(-15)"/>
</clipPath>
<clipPath id="clip31_1722_48199">
<rect width="25" height="25" fill="white" transform="translate(158.839 160.765) rotate(-15)"/>
</clipPath>
<clipPath id="clip32_1722_48199">
<rect width="25" height="25" fill="white" transform="translate(202.306 149.118) rotate(-15)"/>
</clipPath>
<clipPath id="clip33_1722_48199">
<rect width="25" height="25" fill="white" transform="translate(245.772 137.471) rotate(-15)"/>
</clipPath>
<clipPath id="clip34_1722_48199">
<rect width="25" height="25" fill="white" transform="translate(289.239 125.824) rotate(-15)"/>
</clipPath>
<clipPath id="clip35_1722_48199">
<rect width="25" height="25" fill="white" transform="translate(332.706 114.177) rotate(-15)"/>
</clipPath>
<clipPath id="clip36_1722_48199">
<rect width="25" height="25" fill="white" transform="translate(376.173 102.53) rotate(-15)"/>
</clipPath>
</defs>
</svg>
