<svg width="396" height="161" viewBox="0 0 396 161" fill="none" xmlns="http://www.w3.org/2000/svg">
<g clip-path="url(#clip0_1722_47977)">
<path d="M8.08591 8.66527L8.62553 10.6792C9.07164 12.3441 13.4905 12.6109 18.4899 11.2713C23.4893 9.93169 27.1828 7.49123 26.7366 5.82633L26.197 3.81241C24.6169 5.70683 21.2278 7.30241 17.6811 8.25276C14.1343 9.20311 10.4015 9.51582 8.08591 8.66527ZM19.6741 -8.45745C24.6735 -9.79704 28.3669 -12.2375 27.9208 -13.9024C27.4747 -15.5673 23.0559 -15.8341 18.0565 -14.4945C13.057 -13.1549 9.3636 -10.7144 9.80971 -9.04954C10.2558 -7.38464 14.6747 -7.11786 19.6741 -8.45745ZM6.76022 3.71773L7.41232 6.15141C7.85843 7.81631 12.2773 8.08309 17.2767 6.7435C22.2761 5.40391 25.9695 2.96345 25.5234 1.29855L24.8713 -1.13513C23.3531 0.990396 20.0099 2.77589 16.4679 3.72498C12.9258 4.67407 9.13778 4.79938 6.76022 3.71773ZM26.5196 -1.02072C29.0818 -2.26839 30.6468 -3.72905 30.3473 -4.84684L29.8076 -6.86076C28.9207 -5.79407 27.4539 -4.83489 25.7158 -4.02038L26.5196 -1.02072ZM14.0414 -5.33057C9.04202 -3.99098 5.43832 -1.21566 5.9969 0.869004C6.55549 2.95367 11.064 3.55531 16.0635 2.21572C21.0629 0.876132 24.6666 -1.89919 24.108 -3.98385C23.5494 -6.06852 19.0409 -6.67016 14.0414 -5.33057ZM25.0961 -5.44666C27.7895 -6.71429 29.4411 -8.22853 29.134 -9.37462L28.5944 -11.3885C27.2373 -9.75608 24.5309 -8.34846 21.5434 -7.3862C23.1154 -7.08456 24.3815 -6.45324 25.0961 -5.44666Z" fill="black" fill-opacity="0.1"/>
</g>
<g clip-path="url(#clip1_1722_47977)">
<path d="M72.7837 -17.6555L71.547 -17.3241C70.9534 -18.0638 70.2179 -18.662 69.3893 -19.105L69.3335 -22.4826L67.9919 -22.1231C66.7594 -21.7928 65.821 -20.9348 65.3168 -19.8651C64.9858 -19.8258 64.6579 -19.7919 64.3267 -19.7031L58.9605 -18.2652C55.7156 -17.3958 53.6293 -14.3654 53.8247 -11.1376L52.0136 -10.6523C51.3931 -10.486 50.7509 -10.9206 50.7048 -11.5957C50.669 -12.0984 51.03 -12.5456 51.5163 -12.6759L51.5582 -12.6871C51.6966 -12.7242 51.7794 -12.8677 51.7424 -13.006L51.5177 -13.8445C51.4806 -13.9829 51.3371 -14.0657 51.1987 -14.0287C50.0039 -13.7085 49.1682 -12.5679 49.3341 -11.3452C49.5338 -9.86202 50.977 -8.93666 52.373 -9.31073L54.05 -9.76007C54.6364 -7.57164 56.2169 -5.93267 58.1631 -5.1421L59.0697 -1.75885C59.1685 -1.38992 59.5513 -1.16895 59.9202 -1.2678L62.6033 -1.98674C62.9723 -2.0856 63.1932 -2.46833 63.0944 -2.83726L62.5552 -4.84961L67.9214 -6.28749L68.4606 -4.27514C68.5595 -3.90621 68.9422 -3.68524 69.3111 -3.7841L71.9943 -4.50304C72.3632 -4.60189 72.5842 -4.98463 72.4853 -5.35356L71.5788 -8.73681C71.9735 -9.24249 72.2958 -9.80064 72.5394 -10.4006L74.5811 -10.9477C74.95 -11.0466 75.171 -11.4293 75.0721 -11.7982L73.6342 -17.1645C73.5354 -17.5334 73.1527 -17.7544 72.7837 -17.6555ZM68.1364 -13.5345C67.7675 -13.4357 67.3848 -13.6566 67.2859 -14.0256C67.187 -14.3945 67.408 -14.7772 67.7769 -14.8761C68.1459 -14.9749 68.5286 -14.754 68.6275 -14.385C68.7263 -14.0161 68.5053 -13.6334 68.1364 -13.5345ZM58.601 -19.6068L63.9672 -21.0447C64.1936 -21.1053 64.4203 -21.1481 64.6428 -21.1898C64.6395 -21.2023 64.6414 -21.2118 64.638 -21.2244C64.0427 -23.4464 61.7569 -24.7661 59.5349 -24.1707C57.313 -23.5753 55.9933 -21.2896 56.5886 -19.0676C56.6122 -18.9796 56.6557 -18.9013 56.6834 -18.8144C57.2769 -19.1487 57.9134 -19.4226 58.601 -19.6068Z" fill="black" fill-opacity="0.1"/>
</g>
<g clip-path="url(#clip2_1722_47977)">
<path d="M-4.22139 42.8527C-5.84948 42.631 -7.3768 42.7899 -8.84078 43.1822C-13.4883 44.4271 -17.5049 48.0248 -22.1523 49.2701C-23.3178 49.5824 -24.5222 49.7466 -25.7868 49.6891C-25.9289 49.6827 -26.0654 49.6982 -26.1937 49.7326C-26.8431 49.9066 -27.2759 50.5612 -27.089 51.2589L-23.8814 63.2296C-23.7537 63.7061 -23.3599 64.0847 -22.8727 64.1507C-21.2445 64.3728 -19.7172 64.2139 -18.2532 63.8216C-13.6058 62.5763 -9.58882 58.9785 -4.94143 57.7332C-3.77591 57.4209 -2.57151 57.2567 -1.3069 57.3142C-1.16485 57.3206 -1.02829 57.3051 -0.900003 57.2707C-0.250644 57.0967 0.182171 56.4421 -0.00476569 55.7444L-3.2122 43.7741C-3.34037 43.2973 -3.73409 42.9191 -4.22139 42.8527ZM-25.0614 51.5814C-24.2513 51.5682 -23.4333 51.4513 -22.6046 51.2843C-22.5293 52.4527 -23.2804 53.5497 -24.45 53.8631L-25.0614 51.5814ZM-22.18 62.3349L-22.6631 60.5321C-21.3662 60.1846 -20.0412 60.9324 -19.6384 62.2047C-20.5068 62.3642 -21.3469 62.4073 -22.18 62.3349ZM-12.5764 57.1241C-14.2438 57.5709 -16.0296 56.3108 -16.5655 54.3107C-17.1016 52.3102 -16.1846 50.3263 -14.5176 49.8797C-12.8506 49.433 -11.0645 50.6926 -10.5285 52.6931C-9.99235 54.694 -10.9098 56.6775 -12.5764 57.1241ZM-2.03261 55.4223C-2.73805 55.4338 -3.44926 55.5249 -4.16751 55.6531C-4.2097 54.6097 -3.59375 53.6439 -2.61617 53.2445L-2.03261 55.4223ZM-4.41971 46.5136C-5.62477 46.6783 -6.78993 45.9476 -7.14778 44.7554C-6.38857 44.6398 -5.64761 44.6054 -4.91399 44.6689L-4.41971 46.5136Z" fill="black" fill-opacity="0.1"/>
</g>
<g clip-path="url(#clip3_1722_47977)">
<path d="M19.8225 52.4689C20.1202 53.5799 21.2631 54.2397 22.374 53.9421L42.4975 48.55C43.6085 48.2523 44.2683 47.1094 43.9706 45.9984L41.9935 38.6198L17.8454 45.0903L19.8225 52.4689ZM27.108 47.4613C27.0339 47.1846 27.1996 46.8975 27.4763 46.8234L33.1779 45.2956C33.4546 45.2215 33.7417 45.3872 33.8158 45.6639L34.2651 47.3409C34.3393 47.6176 34.1736 47.9046 33.8969 47.9788L28.1952 49.5065C27.9185 49.5806 27.6315 49.4149 27.5573 49.1382L27.108 47.4613ZM21.7417 48.8992C21.6676 48.6225 21.8333 48.3354 22.11 48.2613L25.1285 47.4525C25.4052 47.3783 25.6923 47.544 25.7664 47.8207L26.2158 49.4977C26.2899 49.7744 26.1242 50.0614 25.8475 50.1356L22.829 50.9444C22.5523 51.0185 22.2652 50.8528 22.1911 50.5761L21.7417 48.8992ZM40.0165 31.2412L40.5557 33.2536L16.4075 39.7241L15.8683 37.7117C15.5706 36.6007 16.2305 35.4579 17.3414 35.1602L37.4649 29.7681C38.5759 29.4704 39.7188 30.1303 40.0165 31.2412Z" fill="black" fill-opacity="0.1"/>
</g>
<g clip-path="url(#clip4_1722_47977)">
<path d="M81.4469 21.5779L63.4678 26.3954C63.0509 26.5071 62.6227 26.2599 62.511 25.843C62.3993 25.426 62.6465 24.9979 63.0634 24.8861L81.1745 20.0333C81.5914 19.9216 81.8387 19.4934 81.7269 19.0764C81.3919 17.8261 80.1068 17.0841 78.8564 17.4192L61.5 22.0698C59.8327 22.5166 58.8435 24.2299 59.2903 25.8971L63.3343 40.9897C63.781 42.657 65.4944 43.6462 67.1616 43.1994L85.8953 38.1798C87.2169 37.8257 88.0192 36.5223 87.6847 35.2739L84.4494 23.1998C84.1149 21.9514 82.7684 21.2238 81.4469 21.5779ZM81.9437 31.9593C81.1103 32.1826 80.2533 31.6879 80.03 30.8545C79.8067 30.0211 80.3015 29.1641 81.1348 28.9408C81.9682 28.7175 82.8252 29.2123 83.0485 30.0457C83.2718 30.8791 82.7771 31.736 81.9437 31.9593Z" fill="black" fill-opacity="0.1"/>
</g>
<g clip-path="url(#clip5_1722_47977)">
<path d="M126.758 22.8408C126.834 23.1259 126.696 23.383 126.42 23.4571C126.135 23.5335 125.892 23.3649 125.819 23.0924C125.746 22.8199 125.872 22.5525 126.157 22.4761C126.434 22.4019 126.685 22.5683 126.758 22.8408ZM113.596 25.8416C113.299 25.9214 113.185 26.1854 113.258 26.4579C113.331 26.7305 113.562 26.9024 113.859 26.8226C114.132 26.7496 114.261 26.4948 114.185 26.2097C114.108 25.9383 113.869 25.7686 113.596 25.8416ZM118.519 24.5091C118.293 24.5698 118.194 24.7536 118.219 24.9806L119.019 24.766C118.918 24.5372 118.737 24.4507 118.519 24.5091ZM123.042 23.3107C122.757 23.3871 122.643 23.6512 122.716 23.9237C122.789 24.1962 123.02 24.3681 123.305 24.2917C123.59 24.2154 123.719 23.9605 123.643 23.6754C123.57 23.4029 123.327 23.2343 123.042 23.3107ZM127.775 23.2153C127.778 23.2279 127.793 23.2329 127.8 23.2581C127.803 23.2706 127.793 23.2824 127.8 23.3075C127.79 23.3235 127.793 23.3319 127.788 23.3467C127.778 23.3626 127.772 23.3733 127.747 23.38C127.738 23.396 127.729 23.3982 127.704 23.405C127.692 23.4083 127.683 23.4106 127.655 23.4047C127.642 23.4081 127.631 23.3978 127.616 23.3928C127.6 23.3836 127.589 23.3774 127.586 23.3648C127.568 23.3472 127.564 23.3347 127.561 23.3221C127.555 23.3011 127.552 23.2886 127.561 23.2726C127.555 23.2516 127.565 23.2357 127.57 23.2209C127.579 23.2049 127.587 23.2027 127.598 23.1909C127.615 23.1727 127.628 23.1694 127.64 23.166C127.661 23.1604 127.674 23.157 127.69 23.1662C127.714 23.1732 127.727 23.1698 127.742 23.1748C127.756 23.1798 127.757 23.1977 127.775 23.2153ZM127.698 23.2987C127.719 23.2931 127.716 23.2805 127.729 23.2772C127.738 23.2612 127.735 23.2528 127.732 23.2402C127.729 23.2277 127.726 23.2193 127.711 23.2101C127.698 23.2134 127.686 23.2031 127.661 23.2099L127.594 23.2278L127.633 23.3746L127.667 23.3656L127.651 23.3069L127.664 23.3035L127.726 23.3499L127.759 23.3409L127.698 23.2987ZM126.962 7.98941L130.916 22.7466C131.214 23.8576 130.554 25.0005 129.443 25.2982L109.319 30.6902C108.208 30.9879 107.065 30.3281 106.768 29.2171L102.814 14.4599C102.516 13.3489 103.176 12.206 104.287 11.9083L124.41 6.51627C125.521 6.21858 126.664 6.87843 126.962 7.98941ZM107.065 19.5935C107.924 22.8007 111.224 24.7024 114.427 23.8441C115.568 23.5386 116.595 22.8949 117.375 22.0163C113.653 20.3492 112.416 15.6523 114.786 12.3529C113.67 11.9779 112.459 11.9383 111.319 12.2438C108.115 13.0978 106.209 16.3989 107.065 19.5935ZM117.678 21.6385C120.016 18.5408 118.799 14.0499 115.235 12.5201C112.913 15.6271 114.106 20.1289 117.678 21.6385ZM112.569 26.4358C112.472 26.0711 112.169 25.8962 111.788 25.9847C111.595 26.0364 111.405 26.1501 111.324 26.401C111.178 26.2561 110.979 26.2015 110.74 26.2655C110.581 26.3082 110.437 26.4096 110.356 26.611L110.307 26.4265L109.963 26.5186L110.375 28.0573L110.719 27.9651C110.507 27.1728 110.275 26.7271 110.757 26.5979C111.185 26.4834 111.215 26.9334 111.44 27.7719L111.771 27.6832C111.566 26.916 111.327 26.4452 111.809 26.316C112.237 26.2014 112.265 26.6431 112.492 27.49L112.836 27.3978L112.578 26.4336L112.569 26.4358ZM114.298 25.3571L113.967 25.4459L114.016 25.6303C113.866 25.5223 113.683 25.4769 113.465 25.5354C113.033 25.6511 112.794 26.0836 112.919 26.5489C113.045 27.0185 113.467 27.2693 113.899 27.1536C114.117 27.0952 114.255 26.9729 114.328 26.7958L114.38 26.9886L114.711 26.8999L114.298 25.3571ZM116.283 25.9754C116.115 25.3465 115.231 25.8889 115.153 25.5954C115.089 25.3564 115.598 25.2605 115.916 25.3415L115.981 25.0319C115.519 24.8818 114.648 25.1196 114.807 25.7149C114.968 26.3144 115.86 25.8056 115.936 26.0865C116.007 26.3507 115.435 26.4813 115.077 26.3526L115.001 26.656C115.556 26.8488 116.435 26.5414 116.283 25.9754ZM117.872 25.9676L117.703 25.7073C117.568 25.838 117.241 26.0288 117.146 25.6724L116.959 24.9765L117.509 24.8293L117.425 24.5191L116.876 24.6662L116.75 24.1967L116.407 24.2888L116.532 24.7584L116.214 24.8437L116.296 25.1498L116.614 25.0644L116.802 25.7645C117 26.5024 117.689 26.1739 117.872 25.9676ZM118.279 25.2564L119.432 24.9475C119.25 24.2684 118.868 24.0832 118.449 24.1955C118.004 24.3146 117.774 24.7312 117.902 25.2091C118.133 26.0685 119.118 25.9572 119.479 25.4247L119.252 25.2159C118.997 25.5718 118.496 25.6792 118.279 25.2564ZM120.515 23.6912C120.3 23.659 120.009 23.746 119.927 24.0464L119.878 23.8619L119.534 23.954L119.946 25.4927L120.29 25.4005L120.058 24.5327C119.927 24.0464 120.343 24.0026 120.5 24.0368L120.515 23.6912ZM121.165 24.3393C121.037 23.8614 121.482 23.576 121.939 23.7546L122.025 23.4394C121.436 23.1882 120.608 23.6349 120.823 24.4356C121.045 25.2657 122.029 25.1818 122.362 24.6971L122.13 24.4673C121.817 24.8432 121.291 24.8089 121.165 24.3393ZM123.756 22.8228L123.412 22.915L123.462 23.0994C122.99 22.7315 122.154 23.2341 122.364 24.018C122.58 24.823 123.581 24.8019 123.774 24.2649L123.826 24.4577L124.169 24.3656L123.756 22.8228ZM125.169 22.4443C125.055 22.4209 124.675 22.4463 124.581 22.7995L124.532 22.615L124.2 22.7038L124.613 24.2424L124.944 24.1536L124.711 23.2858C124.588 22.8246 124.973 22.7529 125.154 22.7899L125.169 22.4443ZM126.691 21.3669L126.36 21.4556L126.577 22.2648C126.11 21.8999 125.266 22.3868 125.479 23.1834C125.697 23.9967 126.699 23.962 126.889 23.4303L126.94 23.6231L127.272 23.5344L126.691 21.3669ZM126.166 18.133L126.218 18.3259L126.251 18.3169L126.199 18.1241L126.279 18.1027L126.27 18.0692L126.077 18.1208L126.086 18.1544L126.166 18.133ZM127.833 23.2491C127.828 23.2281 127.821 23.203 127.803 23.1854C127.787 23.1762 127.773 23.1574 127.757 23.1482C127.741 23.139 127.718 23.1363 127.702 23.1271C127.681 23.1327 127.652 23.1268 127.631 23.1324C127.619 23.1358 127.601 23.154 127.576 23.1608C127.558 23.1789 127.548 23.1907 127.539 23.2066C127.521 23.2248 127.514 23.2492 127.518 23.2618C127.511 23.2861 127.517 23.3112 127.523 23.3322C127.526 23.3448 127.532 23.3657 127.551 23.3875C127.555 23.4001 127.573 23.4177 127.597 23.4247C127.613 23.4339 127.624 23.44 127.652 23.4458C127.677 23.4528 127.702 23.4461 127.714 23.4427C127.735 23.4371 127.761 23.4303 127.778 23.4121C127.787 23.3962 127.806 23.3822 127.815 23.3662C127.824 23.3503 127.827 23.3271 127.836 23.3111C127.842 23.2826 127.837 23.2616 127.833 23.2491ZM126.567 17.9852L126.508 18.0009L126.48 18.1657L126.374 18.0369L126.315 18.0526L126.376 18.279L126.409 18.27L126.363 18.0981L126.47 18.2269L126.516 18.2145L126.535 18.0521L126.581 18.224L126.627 18.2116L126.567 17.9852ZM125.847 14.5609C124.991 11.3663 121.69 9.46045 118.487 10.3187C117.346 10.6242 116.319 11.2679 115.539 12.1465C119.228 13.8226 120.534 18.5141 118.128 21.8099C119.244 22.1849 120.463 22.2223 121.595 21.919C124.799 21.065 126.706 17.7681 125.847 14.5609Z" fill="black" fill-opacity="0.1"/>
</g>
<g clip-path="url(#clip6_1722_47977)">
<path d="M171.363 2.51742L170.126 2.84881C169.532 2.10918 168.797 1.51092 167.968 1.06794L167.913 -2.30963L166.571 -1.95016C165.338 -1.61989 164.4 -0.761851 163.896 0.307874C163.565 0.347132 163.237 0.381074 162.906 0.469819L157.54 1.9077C154.295 2.77717 152.208 5.80754 152.404 9.03536L150.593 9.52065C149.972 9.6869 149.33 9.25236 149.284 8.57723C149.248 8.07458 149.609 7.62738 150.095 7.49707L150.137 7.48584C150.276 7.44877 150.359 7.30524 150.321 7.16689L150.097 6.32842C150.06 6.19007 149.916 6.1072 149.778 6.14427C148.583 6.46443 147.747 7.605 147.913 8.8277C148.113 10.3109 149.556 11.2363 150.952 10.8622L152.629 10.4129C153.215 12.6013 154.796 14.2403 156.742 15.0308L157.649 18.4141C157.748 18.783 158.13 19.004 158.499 18.9051L161.182 18.1862C161.551 18.0873 161.772 17.7046 161.673 17.3357L161.134 15.3233L166.501 13.8855L167.04 15.8978C167.139 16.2667 167.521 16.4877 167.89 16.3888L170.573 15.6699C170.942 15.5711 171.163 15.1883 171.064 14.8194L170.158 11.4361C170.553 10.9305 170.875 10.3723 171.118 9.77231L173.16 9.22524C173.529 9.12638 173.75 8.74365 173.651 8.37472L172.213 3.00847C172.114 2.63954 171.732 2.41856 171.363 2.51742ZM166.716 6.63843C166.347 6.73729 165.964 6.51631 165.865 6.14738C165.766 5.77845 165.987 5.39572 166.356 5.29687C166.725 5.19801 167.108 5.41898 167.207 5.78791C167.305 6.15684 167.084 6.53958 166.716 6.63843ZM157.18 0.566139L162.546 -0.871745C162.773 -0.932406 162.999 -0.975173 163.222 -1.01682C163.219 -1.02939 163.22 -1.0389 163.217 -1.05148C162.622 -3.27345 160.336 -4.59313 158.114 -3.99776C155.892 -3.40238 154.572 -1.11662 155.168 1.10534C155.191 1.19339 155.235 1.27162 155.263 1.35853C155.856 1.02428 156.493 0.750367 157.18 0.566139Z" fill="black" fill-opacity="0.1"/>
</g>
<g clip-path="url(#clip7_1722_47977)">
<path d="M193.599 5.54451L194.138 7.55843C194.584 9.22333 199.003 9.49011 204.003 8.15052C209.002 6.81093 212.695 4.37047 212.249 2.70557L211.71 0.691655C210.13 2.58607 206.741 4.18165 203.194 5.132C199.647 6.08235 195.914 6.39506 193.599 5.54451ZM205.187 -11.5782C210.186 -12.9178 213.88 -15.3583 213.434 -17.0232C212.987 -18.6881 208.569 -18.9548 203.569 -17.6152C198.57 -16.2757 194.876 -13.8352 195.322 -12.1703C195.769 -10.5054 200.187 -10.2386 205.187 -11.5782ZM192.273 0.596972L192.925 3.03065C193.371 4.69555 197.79 4.96233 202.789 3.62274C207.789 2.28315 211.482 -0.157303 211.036 -1.8222L210.384 -4.25588C208.866 -2.13036 205.523 -0.344864 201.981 0.604224C198.439 1.55331 194.65 1.67863 192.273 0.596972ZM212.032 -4.14148C214.595 -5.38914 216.159 -6.84981 215.86 -7.9676L215.32 -9.98152C214.433 -8.91483 212.967 -7.95565 211.229 -7.14113L212.032 -4.14148ZM199.554 -8.45133C194.555 -7.11174 190.951 -4.33642 191.51 -2.25175C192.068 -0.16709 196.577 0.434556 201.576 -0.905035C206.576 -2.24463 210.179 -5.01995 209.621 -7.10461C209.062 -9.18928 204.554 -9.79092 199.554 -8.45133ZM210.609 -8.56741C213.302 -9.83505 214.954 -11.3493 214.647 -12.4954L214.107 -14.5093C212.75 -12.8768 210.044 -11.4692 207.056 -10.507C208.628 -10.2053 209.894 -9.574 210.609 -8.56741Z" fill="black" fill-opacity="0.1"/>
</g>
<g clip-path="url(#clip8_1722_47977)">
<path d="M9.79718 93.8344C11.5281 100.294 7.69452 106.934 1.23456 108.665C-5.2254 110.396 -11.8654 106.563 -13.5963 100.103C-15.3273 93.6427 -11.4937 87.0027 -5.03371 85.2718C1.42625 83.5409 8.06624 87.3745 9.79718 93.8344ZM2.66982 93.9582C2.48564 92.3395 1.0763 91.8203 -0.693772 91.6964L-0.733006 89.4472L-2.10219 89.4713L-2.06392 91.6612C-2.42387 91.6675 -2.79168 91.6811 -3.15708 91.6948L-3.19528 89.4904L-4.56375 89.5143L-4.52505 91.7628C-4.8214 91.7741 -5.11241 91.7847 -5.39623 91.7898L-5.39654 91.7828L-7.28503 91.8152L-7.25918 93.2774C-7.25918 93.2774 -6.24841 93.2404 -6.26489 93.2593C-5.71028 93.2498 -5.52416 93.5686 -5.46685 93.8454L-5.42208 96.4077C-5.38378 96.4073 -5.33385 96.408 -5.27719 96.4148C-5.32281 96.4156 -5.37165 96.4162 -5.42185 96.4175L-5.35964 100.007C-5.38095 100.182 -5.47869 100.462 -5.86613 100.469C-5.84836 100.485 -6.86144 100.487 -6.86144 100.487L-7.105 102.126L-5.32317 102.095C-4.99159 102.09 -4.66521 102.09 -4.34492 102.086L-4.3047 104.361L-2.93698 104.337L-2.97628 102.086C-2.6116 102.087 -2.24693 102.085 -1.88231 102.078L-1.84388 104.318L-0.474698 104.294L-0.513845 102.023C1.78574 101.851 3.38678 101.243 3.54913 99.078C3.68034 97.3347 2.848 96.5724 1.53586 96.2815C2.32265 95.8636 2.80659 95.1428 2.66982 93.9582ZM0.839019 98.8558C0.869392 100.556 -2.04502 100.413 -2.97294 100.43L-3.0251 97.4164C-2.09693 97.4004 0.808208 97.0827 0.839019 98.8558ZM0.128096 94.6146C0.154635 96.1612 -2.27632 96.0232 -3.04924 96.0368L-3.09682 93.3033C-2.32386 93.2897 0.0997976 93.0015 0.128096 94.6146Z" fill="black" fill-opacity="0.1"/>
</g>
<g clip-path="url(#clip9_1722_47977)">
<path d="M31.3799 95.5986L31.9195 97.6125C32.3656 99.2774 36.7844 99.5442 41.7838 98.2046C46.7833 96.865 50.4767 94.4246 50.0306 92.7597L49.491 90.7458C47.9108 92.6402 44.5218 94.2358 40.975 95.1861C37.4283 96.1365 33.6955 96.4492 31.3799 95.5986ZM42.968 78.4759C47.9674 77.1363 51.6609 74.6959 51.2148 73.031C50.7687 71.3661 46.3498 71.0993 41.3504 72.4389C36.351 73.7785 32.6575 76.2189 33.1037 77.8838C33.5498 79.5487 37.9686 79.8155 42.968 78.4759ZM30.0542 90.6511L30.7063 93.0848C31.1524 94.7497 35.5712 95.0164 40.5706 93.6768C45.57 92.3373 49.2635 89.8968 48.8174 88.2319L48.1653 85.7982C46.6471 87.9237 43.3039 89.7092 39.7618 90.6583C36.2198 91.6074 32.4317 91.7327 30.0542 90.6511ZM49.8135 85.9126C52.3758 84.665 53.9407 83.2043 53.6412 82.0865L53.1016 80.0726C52.2146 81.1393 50.7479 82.0985 49.0098 82.913L49.8135 85.9126ZM37.3354 81.6028C32.336 82.9424 28.7323 85.7177 29.2908 87.8024C29.8494 89.887 34.358 90.4887 39.3574 89.1491C44.3568 87.8095 47.9605 85.0342 47.402 82.9495C46.8434 80.8648 42.3348 80.2632 37.3354 81.6028ZM48.39 81.4867C51.0834 80.2191 52.7351 78.7048 52.428 77.5587L51.8884 75.5448C50.5312 77.1773 47.8248 78.5849 44.8373 79.5472C46.4094 79.8488 47.6755 80.4801 48.39 81.4867Z" fill="black" fill-opacity="0.1"/>
</g>
<g clip-path="url(#clip10_1722_47977)">
<path d="M96.0777 69.2778L94.8409 69.6092C94.2473 68.8696 93.5119 68.2713 92.6832 67.8283L92.6274 64.4508L91.2859 64.8102C90.0533 65.1405 89.115 65.9986 88.6107 67.0683C88.2798 67.1075 87.9519 67.1415 87.6207 67.2302L82.2544 68.6681C79.0095 69.5376 76.9233 72.5679 77.1186 75.7958L75.3075 76.2811C74.687 76.4473 74.0449 76.0128 73.9988 75.3376C73.963 74.835 74.3239 74.3878 74.8102 74.2575L74.8522 74.2462C74.9905 74.2092 75.0734 74.0656 75.0363 73.9273L74.8116 73.0888C74.7746 72.9505 74.631 72.8676 74.4927 72.9047C73.2979 73.2248 72.4622 74.3654 72.628 75.5881C72.8277 77.0713 74.2709 77.9967 75.667 77.6226L77.3439 77.1733C77.9303 79.3617 79.5108 81.0007 81.4571 81.7912L82.3636 85.1745C82.4625 85.5434 82.8452 85.7644 83.2141 85.6655L85.8973 84.9466C86.2662 84.8478 86.4872 84.465 86.3883 84.0961L85.8491 82.0837L91.2154 80.6459L91.7546 82.6582C91.8534 83.0271 92.2362 83.2481 92.6051 83.1493L95.2882 82.4303C95.6572 82.3315 95.8781 81.9487 95.7793 81.5798L94.8727 78.1965C95.2675 77.6909 95.5897 77.1327 95.8333 76.5327L97.875 75.9856C98.244 75.8868 98.4649 75.5041 98.3661 75.1351L96.9282 69.7689C96.8293 69.3999 96.4466 69.179 96.0777 69.2778ZM91.4304 73.3988C91.0614 73.4977 90.6787 73.2767 90.5798 72.9078C90.481 72.5389 90.702 72.1561 91.0709 72.0573C91.4398 71.9584 91.8226 72.1794 91.9214 72.5483C92.0203 72.9173 91.7993 73.3 91.4304 73.3988ZM81.8949 67.3265L87.2612 65.8887C87.4876 65.828 87.7143 65.7852 87.9368 65.7436C87.9334 65.731 87.9353 65.7215 87.932 65.7089C87.3366 63.487 85.0508 62.1673 82.8289 62.7626C80.6069 63.358 79.2872 65.6438 79.8826 67.8658C79.9062 67.9538 79.9496 68.032 79.9774 68.1189C80.5708 67.7847 81.2074 67.5108 81.8949 67.3265Z" fill="black" fill-opacity="0.1"/>
</g>
<g clip-path="url(#clip11_1722_47977)">
<path d="M137.826 51.3788C136.198 51.1571 134.671 51.316 133.207 51.7083C128.56 52.9532 124.543 56.5509 119.896 57.7962C118.73 58.1085 117.526 58.2727 116.261 58.2152C116.119 58.2088 115.982 58.2244 115.854 58.2587C115.205 58.4327 114.772 59.0874 114.959 59.785L118.166 71.7557C118.294 72.2323 118.688 72.6108 119.175 72.6768C120.803 72.8989 122.331 72.74 123.795 72.3477C128.442 71.1024 132.459 67.5046 137.106 66.2594C138.272 65.9471 139.476 65.7829 140.741 65.8403C140.883 65.8468 141.02 65.8312 141.148 65.7968C141.797 65.6228 142.23 64.9682 142.043 64.2705L138.836 52.3002C138.707 51.8234 138.314 51.4452 137.826 51.3788ZM116.986 60.1076C117.797 60.0943 118.615 59.9775 119.443 59.8104C119.519 60.9788 118.767 62.0758 117.598 62.3892L116.986 60.1076ZM119.868 70.861L119.385 69.0582C120.682 68.7107 122.007 69.4585 122.409 70.7308C121.541 70.8903 120.701 70.9334 119.868 70.861ZM129.471 65.6502C127.804 66.097 126.018 64.837 125.482 62.8368C124.946 60.8363 125.863 58.8525 127.53 58.4058C129.197 57.9591 130.983 59.2187 131.519 61.2192C132.056 63.2201 131.138 65.2037 129.471 65.6502ZM140.015 63.9485C139.31 63.96 138.599 64.051 137.88 64.1792C137.838 63.1358 138.454 62.17 139.432 61.7706L140.015 63.9485ZM137.628 55.0397C136.423 55.2045 135.258 54.4737 134.9 53.2816C135.659 53.1659 136.4 53.1315 137.134 53.195L137.628 55.0397Z" fill="black" fill-opacity="0.1"/>
</g>
<g clip-path="url(#clip12_1722_47977)">
<path d="M161.869 60.995C162.167 62.106 163.31 62.7658 164.421 62.4681L184.544 57.0761C185.655 56.7784 186.315 55.6355 186.018 54.5245L184.04 47.1459L159.892 53.6164L161.869 60.995ZM169.155 55.9874C169.081 55.7107 169.246 55.4236 169.523 55.3495L175.225 53.8217C175.501 53.7476 175.789 53.9133 175.863 54.19L176.312 55.867C176.386 56.1437 176.22 56.4307 175.944 56.5048L170.242 58.0326C169.965 58.1067 169.678 57.941 169.604 57.6643L169.155 55.9874ZM163.789 57.4252C163.714 57.1485 163.88 56.8615 164.157 56.7874L167.175 55.9785C167.452 55.9044 167.739 56.0701 167.813 56.3468L168.263 58.0238C168.337 58.3005 168.171 58.5875 167.894 58.6617L164.876 59.4705C164.599 59.5446 164.312 59.3789 164.238 59.1022L163.789 57.4252ZM182.063 39.7673L182.603 41.7797L158.454 48.2502L157.915 46.2378C157.617 45.1268 158.277 43.9839 159.388 43.6863L179.512 38.2942C180.623 37.9965 181.766 38.6564 182.063 39.7673Z" fill="black" fill-opacity="0.1"/>
</g>
<g clip-path="url(#clip13_1722_47977)">
<path d="M223.494 30.104L205.515 34.9215C205.098 35.0332 204.67 34.786 204.558 34.3691C204.446 33.9521 204.693 33.5239 205.11 33.4122L223.221 28.5594C223.638 28.4477 223.886 28.0195 223.774 27.6025C223.439 26.3522 222.154 25.6102 220.903 25.9453L203.547 30.5959C201.88 31.0427 200.89 32.756 201.337 34.4232L205.381 49.5158C205.828 51.1831 207.541 52.1723 209.209 51.7255L227.942 46.7059C229.264 46.3518 230.066 45.0484 229.732 43.8L226.496 31.7259C226.162 30.4775 224.815 29.7499 223.494 30.104ZM223.991 40.4854C223.157 40.7087 222.3 40.214 222.077 39.3806C221.854 38.5472 222.348 37.6902 223.182 37.4669C224.015 37.2436 224.872 37.7384 225.095 38.5718C225.319 39.4052 224.824 40.2621 223.991 40.4854Z" fill="black" fill-opacity="0.1"/>
</g>
<g clip-path="url(#clip14_1722_47977)">
<path d="M268.805 31.3669C268.881 31.652 268.743 31.9091 268.467 31.9832C268.182 32.0596 267.939 31.891 267.866 31.6185C267.793 31.346 267.919 31.0786 268.204 31.0022C268.48 30.9281 268.732 31.0944 268.805 31.3669ZM255.643 34.3677C255.346 34.4475 255.232 34.7116 255.305 34.9841C255.378 35.2566 255.609 35.4285 255.906 35.3488C256.179 35.2757 256.308 35.0209 256.232 34.7358C256.155 34.4644 255.916 34.2947 255.643 34.3677ZM260.566 33.0352C260.34 33.0959 260.241 33.2797 260.265 33.5067L261.066 33.2921C260.964 33.0633 260.784 32.9768 260.566 33.0352ZM265.089 31.8368C264.804 31.9132 264.69 32.1773 264.763 32.4498C264.836 32.7223 265.067 32.8943 265.352 32.8179C265.637 32.7415 265.766 32.4866 265.69 32.2015C265.617 31.929 265.374 31.7605 265.089 31.8368ZM269.822 31.7414C269.825 31.754 269.84 31.759 269.847 31.7842C269.85 31.7968 269.84 31.8085 269.846 31.8337C269.837 31.8496 269.839 31.858 269.834 31.8728C269.825 31.8888 269.819 31.8994 269.794 31.9061C269.785 31.9221 269.776 31.9243 269.751 31.9311C269.739 31.9344 269.73 31.9367 269.702 31.9309C269.689 31.9342 269.677 31.9239 269.663 31.9189C269.647 31.9097 269.636 31.9035 269.633 31.891C269.614 31.8734 269.611 31.8608 269.608 31.8482C269.602 31.8272 269.599 31.8147 269.608 31.7987C269.602 31.7778 269.611 31.7618 269.617 31.747C269.626 31.731 269.634 31.7288 269.644 31.717C269.662 31.6989 269.675 31.6955 269.687 31.6921C269.708 31.6865 269.721 31.6831 269.737 31.6923C269.761 31.6993 269.774 31.6959 269.788 31.7009C269.803 31.706 269.804 31.7238 269.822 31.7414ZM269.745 31.8248C269.766 31.8192 269.763 31.8066 269.775 31.8033C269.785 31.7873 269.782 31.7789 269.779 31.7664C269.776 31.7538 269.773 31.7454 269.757 31.7362C269.745 31.7396 269.733 31.7292 269.708 31.736L269.641 31.754L269.68 31.9007L269.714 31.8917L269.698 31.833L269.711 31.8296L269.772 31.876L269.806 31.867L269.745 31.8248ZM269.009 16.5155L272.963 31.2727C273.261 32.3837 272.601 33.5266 271.49 33.8243L251.366 39.2163C250.255 39.514 249.112 38.8542 248.815 37.7432L244.86 22.986C244.563 21.875 245.223 20.7321 246.334 20.4345L266.457 15.0424C267.568 14.7447 268.711 15.4046 269.009 16.5155ZM249.112 28.1196C249.971 31.3268 253.271 33.2285 256.474 32.3703C257.614 32.0647 258.642 31.421 259.422 30.5425C255.699 28.8753 254.463 24.1784 256.832 20.879C255.716 20.504 254.506 20.4644 253.366 20.7699C250.162 21.624 248.256 24.925 249.112 28.1196ZM259.725 30.1647C262.063 27.0669 260.846 22.576 257.282 21.0462C254.96 24.1532 256.153 28.655 259.725 30.1647ZM254.616 34.962C254.519 34.5972 254.216 34.4223 253.835 34.5108C253.642 34.5625 253.452 34.6762 253.371 34.9271C253.225 34.7822 253.026 34.7276 252.787 34.7917C252.627 34.8343 252.484 34.9357 252.403 35.1371L252.354 34.9527L252.01 35.0448L252.422 36.5834L252.766 36.4913C252.554 35.6989 252.322 35.2532 252.804 35.1241C253.232 35.0095 253.262 35.4596 253.487 36.298L253.818 36.2093C253.613 35.4421 253.374 34.9713 253.856 34.8421C254.284 34.7275 254.312 35.1692 254.539 36.0161L254.883 35.924L254.625 34.9597L254.616 34.962ZM256.345 33.8832L256.014 33.972L256.063 34.1564C255.913 34.0484 255.73 34.0031 255.512 34.0615C255.08 34.1772 254.841 34.6097 254.966 35.0751C255.091 35.5446 255.514 35.7954 255.945 35.6797C256.163 35.6213 256.301 35.499 256.375 35.3219L256.427 35.5148L256.758 35.426L256.345 33.8832ZM258.33 34.5015C258.162 33.8727 257.278 34.415 257.199 34.1215C257.135 33.8826 257.644 33.7866 257.963 33.8676L258.028 33.558C257.565 33.4079 256.695 33.6457 256.854 34.241C257.015 34.8406 257.907 34.3318 257.983 34.6127C258.053 34.8768 257.482 35.0075 257.124 34.8787L257.048 35.1822C257.603 35.375 258.482 35.0675 258.33 34.5015ZM259.919 34.4938L259.75 34.2334C259.615 34.3641 259.288 34.5549 259.193 34.1985L259.006 33.5026L259.555 33.3554L259.472 33.0452L258.923 33.1924L258.797 32.7228L258.454 32.8149L258.579 33.2845L258.261 33.3699L258.343 33.6759L258.661 33.5905L258.849 34.2907C259.047 35.0285 259.736 34.7 259.919 34.4938ZM260.326 33.7826L261.479 33.4736C261.297 32.7945 260.915 32.6093 260.495 32.7216C260.051 32.8407 259.821 33.2573 259.949 33.7352C260.18 34.5947 261.165 34.4833 261.526 33.9508L261.299 33.742C261.044 34.0979 260.543 34.2053 260.326 33.7826ZM262.562 32.2173C262.347 32.1851 262.056 32.2722 261.974 32.5725L261.925 32.3881L261.581 32.4802L261.993 34.0188L262.337 33.9267L262.105 33.0588C261.974 32.5725 262.389 32.5287 262.547 32.5629L262.562 32.2173ZM263.212 32.8654C263.084 32.3875 263.529 32.1021 263.986 32.2807L264.072 31.9656C263.483 31.7144 262.655 32.161 262.869 32.9617C263.092 33.7918 264.076 33.7079 264.409 33.2233L264.176 32.9935C263.864 33.3693 263.338 33.335 263.212 32.8654ZM265.803 31.349L265.459 31.4411L265.508 31.6255C265.037 31.2576 264.201 31.7602 264.411 32.5442C264.627 33.3491 265.628 33.3281 265.821 32.791L265.872 32.9839L266.216 32.8918L265.803 31.349ZM267.216 30.9704C267.102 30.947 266.722 30.9724 266.628 31.3256L266.578 31.1411L266.247 31.2299L266.659 32.7685L266.991 32.6797L266.758 31.8119C266.635 31.3508 267.02 31.279 267.2 31.316L267.216 30.9704ZM268.738 29.893L268.407 29.9818L268.623 30.7909C268.157 30.426 267.313 30.913 267.526 31.7095C267.744 32.5228 268.746 32.4881 268.936 31.9564L268.987 32.1492L269.319 32.0605L268.738 29.893ZM268.213 26.6592L268.264 26.852L268.298 26.843L268.246 26.6502L268.326 26.6288L268.317 26.5953L268.124 26.647L268.133 26.6805L268.213 26.6592ZM269.88 31.7752C269.875 31.7542 269.868 31.7291 269.85 31.7115C269.834 31.7023 269.82 31.6836 269.804 31.6744C269.788 31.6652 269.765 31.6624 269.749 31.6532C269.728 31.6588 269.699 31.653 269.678 31.6586C269.666 31.6619 269.648 31.6801 269.623 31.6869C269.605 31.7051 269.595 31.7168 269.586 31.7328C269.568 31.751 269.561 31.7753 269.565 31.7879C269.558 31.8122 269.564 31.8374 269.57 31.8583C269.573 31.8709 269.579 31.8919 269.598 31.9136C269.602 31.9262 269.62 31.9438 269.644 31.9508C269.66 31.96 269.671 31.9661 269.699 31.972C269.724 31.9789 269.749 31.9722 269.761 31.9688C269.782 31.9632 269.807 31.9565 269.825 31.9383C269.834 31.9223 269.853 31.9083 269.862 31.8924C269.871 31.8764 269.874 31.8532 269.883 31.8373C269.889 31.8087 269.884 31.7878 269.88 31.7752ZM268.614 26.5113L268.555 26.5271L268.527 26.6918L268.421 26.563L268.362 26.5787L268.423 26.8051L268.456 26.7961L268.41 26.6243L268.517 26.753L268.563 26.7407L268.582 26.5782L268.628 26.7501L268.674 26.7377L268.614 26.5113ZM267.894 23.087C267.038 19.8924 263.737 17.9866 260.534 18.8448C259.393 19.1504 258.366 19.7941 257.586 20.6726C261.275 22.3488 262.581 27.0403 260.175 30.3361C261.291 30.711 262.51 30.7484 263.642 30.4451C266.846 29.5911 268.753 26.2942 267.894 23.087Z" fill="black" fill-opacity="0.1"/>
</g>
<g clip-path="url(#clip15_1722_47977)">
<path d="M314.064 12.3065C315.795 18.7664 311.961 25.4064 305.501 27.1374C299.041 28.8683 292.401 25.0347 290.67 18.5747C288.939 12.1148 292.773 5.47479 299.233 3.74385C305.693 2.01291 312.333 5.84652 314.064 12.3065ZM306.936 12.4303C306.752 10.8115 305.343 10.2924 303.573 10.1685L303.534 7.91926L302.164 7.94335L302.203 10.1333C301.843 10.1396 301.475 10.1532 301.11 10.1668L301.071 7.96246L299.703 7.98636L299.742 10.2349C299.445 10.2461 299.154 10.2567 298.87 10.2619L298.87 10.2549L296.982 10.2872L297.007 11.7494C297.007 11.7494 298.018 11.7125 298.002 11.7314C298.556 11.7218 298.742 12.0406 298.8 12.3175L298.845 14.8798C298.883 14.8793 298.933 14.88 298.989 14.8868C298.944 14.8877 298.895 14.8882 298.845 14.8895L298.907 18.479C298.886 18.654 298.788 18.934 298.4 18.9415C298.418 18.9567 297.405 18.9586 297.405 18.9586L297.162 20.5984L298.943 20.5672C299.275 20.5618 299.601 20.5617 299.922 20.5581L299.962 22.8329L301.33 22.8092L301.29 20.5584C301.655 20.5595 302.02 20.5566 302.384 20.5497L302.423 22.7901L303.792 22.766L303.753 20.4953C306.052 20.323 307.653 19.7149 307.816 17.55C307.947 15.8068 307.115 15.0445 305.802 14.7536C306.589 14.3356 307.073 13.6148 306.936 12.4303ZM305.106 17.3278C305.136 19.0278 302.222 18.8853 301.294 18.9024L301.242 15.8884C302.17 15.8724 305.075 15.5547 305.106 17.3278ZM304.395 13.0867C304.421 14.6333 301.99 14.4953 301.217 14.5089L301.17 11.7753C301.943 11.7617 304.366 11.4735 304.395 13.0867Z" fill="black" fill-opacity="0.1"/>
</g>
<g clip-path="url(#clip16_1722_47977)">
<path d="M335.646 14.0706L336.186 16.0845C336.632 17.7494 341.051 18.0162 346.05 16.6766C351.05 15.337 354.743 12.8966 354.297 11.2317L353.758 9.21775C352.177 11.1122 348.788 12.7077 345.242 13.6581C341.695 14.6084 337.962 14.9212 335.646 14.0706ZM347.235 -3.05212C352.234 -4.39171 355.927 -6.83216 355.481 -8.49706C355.035 -10.162 350.616 -10.4287 345.617 -9.08915C340.618 -7.74956 336.924 -5.30911 337.37 -3.64421C337.816 -1.9793 342.235 -1.71253 347.235 -3.05212ZM334.321 9.12306L334.973 11.5567C335.419 13.2216 339.838 13.4884 344.837 12.1488C349.837 10.8092 353.53 8.36879 353.084 6.70389L352.432 4.27021C350.914 6.39573 347.57 8.18123 344.028 9.13032C340.486 10.0794 336.698 10.2047 334.321 9.12306ZM354.08 4.38461C356.642 3.13695 358.207 1.67629 357.908 0.558492L357.368 -1.45543C356.481 -0.388737 355.014 0.570447 353.276 1.38496L354.08 4.38461ZM341.602 0.0747619C336.603 1.41435 332.999 4.18967 333.557 6.27434C334.116 8.359 338.625 8.96065 343.624 7.62106C348.623 6.28147 352.227 3.50615 351.669 1.42148C351.11 -0.663183 346.601 -1.26483 341.602 0.0747619ZM352.657 -0.0413217C355.35 -1.30896 357.002 -2.82319 356.695 -3.96929L356.155 -5.9832C354.798 -4.35074 352.091 -2.94313 349.104 -1.98086C350.676 -1.67922 351.942 -1.04791 352.657 -0.0413217Z" fill="black" fill-opacity="0.1"/>
</g>
<g clip-path="url(#clip17_1722_47977)">
<path d="M400.344 -12.2502L399.108 -11.9188C398.514 -12.6584 397.778 -13.2567 396.95 -13.6997L396.894 -17.0772L395.552 -16.7178C394.32 -16.3875 393.382 -15.5295 392.877 -14.4597C392.546 -14.4205 392.218 -14.3865 391.887 -14.2978L386.521 -12.8599C383.276 -11.9904 381.19 -8.96007 381.385 -5.73224L379.574 -5.24696C378.954 -5.0807 378.311 -5.51524 378.265 -6.19038C378.23 -6.69303 378.591 -7.14023 379.077 -7.27054L379.119 -7.28177C379.257 -7.31884 379.34 -7.46237 379.303 -7.60072L379.078 -8.43919C379.041 -8.57754 378.898 -8.66041 378.759 -8.62334C377.564 -8.30318 376.729 -7.1626 376.895 -5.93991C377.094 -4.45669 378.538 -3.53132 379.934 -3.9054L381.611 -4.35473C382.197 -2.16631 383.777 -0.527335 385.724 0.263232L386.63 3.64649C386.729 4.01542 387.112 4.23639 387.481 4.13753L390.164 3.41859C390.533 3.31974 390.754 2.937 390.655 2.56807L390.116 0.555728L395.482 -0.882155L396.021 1.13019C396.12 1.49912 396.503 1.72009 396.872 1.62124L399.555 0.902296C399.924 0.803441 400.145 0.420709 400.046 0.0517784L399.139 -3.33148C399.534 -3.83716 399.856 -4.39531 400.1 -4.9953L402.142 -5.54237C402.511 -5.64123 402.732 -6.02396 402.633 -6.39289L401.195 -11.7591C401.096 -12.1281 400.713 -12.349 400.344 -12.2502ZM395.697 -8.12918C395.328 -8.03032 394.945 -8.25129 394.846 -8.62022C394.748 -8.98915 394.969 -9.37189 395.337 -9.47074C395.706 -9.5696 396.089 -9.34863 396.188 -8.9797C396.287 -8.61076 396.066 -8.22803 395.697 -8.12918ZM386.162 -14.2015L391.528 -15.6394C391.754 -15.7 391.981 -15.7428 392.203 -15.7844C392.2 -15.797 392.202 -15.8065 392.199 -15.8191C391.603 -18.0411 389.317 -19.3607 387.095 -18.7654C384.874 -18.17 383.554 -15.8842 384.149 -13.6623C384.173 -13.5742 384.216 -13.496 384.244 -13.4091C384.837 -13.7433 385.474 -14.0172 386.162 -14.2015Z" fill="black" fill-opacity="0.1"/>
</g>
<g clip-path="url(#clip18_1722_47977)">
<path d="M19.0726 129.786C17.4445 129.564 15.9171 129.723 14.4532 130.115C9.80568 131.36 5.78904 134.958 1.14165 136.203C-0.0238752 136.516 -1.22828 136.68 -2.49288 136.622C-2.63493 136.616 -2.77149 136.632 -2.89978 136.666C-3.54914 136.84 -3.98195 137.495 -3.79502 138.192L-0.587482 150.163C-0.459791 150.639 -0.0659744 151.018 0.421223 151.084C2.04942 151.306 3.57674 151.147 5.04072 150.755C9.6881 149.51 13.7051 145.912 18.3525 144.667C19.518 144.354 20.7224 144.19 21.987 144.248C22.1291 144.254 22.2657 144.238 22.3939 144.204C23.0433 144.03 23.4761 143.375 23.2892 142.678L20.0817 130.707C19.9536 130.231 19.5599 129.852 19.0726 129.786ZM-1.76745 138.515C-0.957338 138.501 -0.139398 138.385 0.689352 138.218C0.764627 139.386 0.0135848 140.483 -1.15609 140.796L-1.76745 138.515ZM1.11393 149.268L0.630872 147.465C1.9277 147.118 3.25272 147.866 3.65551 149.138C2.78712 149.297 1.947 149.341 1.11393 149.268ZM10.7175 144.057C9.05016 144.504 7.26436 143.244 6.72842 141.244C6.19239 139.243 7.10939 137.26 8.77637 136.813C10.4433 136.366 12.2294 137.626 12.7655 139.626C13.3016 141.627 12.3841 143.611 10.7175 144.057ZM21.2613 142.356C20.5559 142.367 19.8447 142.458 19.1264 142.586C19.0842 141.543 19.7002 140.577 20.6778 140.178L21.2613 142.356ZM18.8742 133.447C17.6692 133.612 16.504 132.881 16.1462 131.689C16.9054 131.573 17.6463 131.539 18.38 131.602L18.8742 133.447Z" fill="black" fill-opacity="0.1"/>
</g>
<g clip-path="url(#clip19_1722_47977)">
<path d="M43.1164 139.402C43.4141 140.513 44.557 141.173 45.668 140.875L65.7914 135.483C66.9024 135.186 67.5623 134.043 67.2646 132.932L65.2875 125.553L41.1393 132.024L43.1164 139.402ZM50.4019 134.395C50.3278 134.118 50.4935 133.831 50.7702 133.757L56.4719 132.229C56.7486 132.155 57.0356 132.32 57.1098 132.597L57.5591 134.274C57.6332 134.551 57.4675 134.838 57.1908 134.912L51.4892 136.44C51.2125 136.514 50.9254 136.348 50.8513 136.071L50.4019 134.395ZM45.0357 135.832C44.9615 135.556 45.1273 135.269 45.404 135.195L48.4225 134.386C48.6992 134.312 48.9862 134.477 49.0604 134.754L49.5097 136.431C49.5839 136.708 49.4181 136.995 49.1414 137.069L46.1229 137.878C45.8462 137.952 45.5592 137.786 45.485 137.509L45.0357 135.832ZM63.3104 118.174L63.8496 120.187L39.7015 126.657L39.1623 124.645C38.8646 123.534 39.5244 122.391 40.6354 122.093L60.7588 116.701C61.8698 116.404 63.0127 117.064 63.3104 118.174Z" fill="black" fill-opacity="0.1"/>
</g>
<g clip-path="url(#clip20_1722_47977)">
<path d="M104.741 108.511L86.7618 113.329C86.3448 113.44 85.9166 113.193 85.8049 112.776C85.6932 112.359 85.9404 111.931 86.3573 111.819L104.468 106.967C104.885 106.855 105.133 106.427 105.021 106.01C104.686 104.759 103.401 104.017 102.15 104.352L84.7939 109.003C83.1266 109.45 82.1375 111.163 82.5842 112.83L86.6282 127.923C87.075 129.59 88.7883 130.58 90.4556 130.133L109.189 125.113C110.511 124.759 111.313 123.456 110.979 122.207L107.743 110.133C107.409 108.885 106.062 108.157 104.741 108.511ZM105.238 118.893C104.404 119.116 103.547 118.621 103.324 117.788C103.101 116.954 103.595 116.097 104.429 115.874C105.262 115.651 106.119 116.146 106.342 116.979C106.566 117.812 106.071 118.669 105.238 118.893Z" fill="black" fill-opacity="0.1"/>
</g>
<g clip-path="url(#clip21_1722_47977)">
<path d="M150.052 109.774C150.128 110.059 149.99 110.316 149.714 110.39C149.429 110.467 149.186 110.298 149.113 110.026C149.04 109.753 149.166 109.486 149.451 109.409C149.727 109.335 149.979 109.502 150.052 109.774ZM136.89 112.775C136.593 112.855 136.479 113.119 136.552 113.391C136.625 113.664 136.856 113.836 137.153 113.756C137.426 113.683 137.555 113.428 137.479 113.143C137.402 112.872 137.163 112.702 136.89 112.775ZM141.813 111.442C141.587 111.503 141.488 111.687 141.513 111.914L142.313 111.699C142.212 111.47 142.031 111.384 141.813 111.442ZM146.336 110.244C146.051 110.32 145.937 110.584 146.01 110.857C146.083 111.13 146.314 111.301 146.599 111.225C146.884 111.149 147.013 110.894 146.937 110.609C146.864 110.336 146.621 110.168 146.336 110.244ZM151.069 110.149C151.072 110.161 151.087 110.166 151.094 110.191C151.097 110.204 151.087 110.216 151.093 110.241C151.084 110.257 151.087 110.265 151.082 110.28C151.072 110.296 151.066 110.307 151.041 110.313C151.032 110.329 151.023 110.332 150.998 110.338C150.986 110.342 150.977 110.344 150.949 110.338C150.936 110.341 150.924 110.331 150.91 110.326C150.894 110.317 150.883 110.311 150.88 110.298C150.861 110.281 150.858 110.268 150.855 110.255C150.849 110.234 150.846 110.222 150.855 110.206C150.849 110.185 150.859 110.169 150.864 110.154C150.873 110.138 150.881 110.136 150.892 110.124C150.909 110.106 150.922 110.103 150.934 110.099C150.955 110.094 150.968 110.09 150.984 110.1C151.008 110.106 151.021 110.103 151.035 110.108C151.05 110.113 151.051 110.131 151.069 110.149ZM150.992 110.232C151.013 110.226 151.01 110.214 151.022 110.21C151.032 110.195 151.029 110.186 151.026 110.174C151.023 110.161 151.02 110.153 151.004 110.143C150.992 110.147 150.98 110.136 150.955 110.143L150.888 110.161L150.927 110.308L150.961 110.299L150.945 110.24L150.958 110.237L151.019 110.283L151.053 110.274L150.992 110.232ZM150.256 94.9227L154.21 109.68C154.508 110.791 153.848 111.934 152.737 112.231L132.613 117.624C131.502 117.921 130.359 117.261 130.062 116.15L126.108 101.393C125.81 100.282 126.47 99.1393 127.581 98.8417L147.704 93.4496C148.815 93.1519 149.958 93.8117 150.256 94.9227ZM130.359 106.527C131.218 109.734 134.518 111.636 137.721 110.777C138.862 110.472 139.889 109.828 140.669 108.95C136.946 107.282 135.71 102.586 138.08 99.2862C136.964 98.9112 135.753 98.8716 134.613 99.1771C131.409 100.031 129.503 103.332 130.359 106.527ZM140.972 108.572C143.31 105.474 142.093 100.983 138.529 99.4534C136.207 102.56 137.4 107.062 140.972 108.572ZM135.863 113.369C135.766 113.004 135.463 112.829 135.082 112.918C134.889 112.97 134.699 113.083 134.618 113.334C134.472 113.189 134.273 113.135 134.034 113.199C133.875 113.242 133.731 113.343 133.65 113.544L133.601 113.36L133.257 113.452L133.669 114.991L134.013 114.898C133.801 114.106 133.569 113.66 134.051 113.531C134.479 113.417 134.509 113.867 134.734 114.705L135.065 114.616C134.86 113.849 134.621 113.378 135.103 113.249C135.531 113.135 135.559 113.576 135.786 114.423L136.13 114.331L135.872 113.367L135.863 113.369ZM137.592 112.29L137.261 112.379L137.31 112.564C137.16 112.456 136.977 112.41 136.759 112.469C136.327 112.584 136.088 113.017 136.213 113.482C136.339 113.952 136.761 114.203 137.193 114.087C137.411 114.029 137.549 113.906 137.622 113.729L137.674 113.922L138.005 113.833L137.592 112.29ZM139.577 112.909C139.409 112.28 138.525 112.822 138.447 112.529C138.383 112.29 138.892 112.194 139.21 112.275L139.275 111.965C138.813 111.815 137.942 112.053 138.101 112.648C138.262 113.248 139.154 112.739 139.23 113.02C139.3 113.284 138.729 113.415 138.371 113.286L138.295 113.589C138.85 113.782 139.729 113.475 139.577 112.909ZM141.166 112.901L140.997 112.641C140.862 112.771 140.535 112.962 140.44 112.606L140.253 111.91L140.803 111.763L140.719 111.452L140.17 111.6L140.044 111.13L139.701 111.222L139.826 111.692L139.508 111.777L139.59 112.083L139.908 111.998L140.096 112.698C140.294 113.436 140.983 113.107 141.166 112.901ZM141.573 112.19L142.726 111.881C142.544 111.202 142.162 111.016 141.743 111.129C141.298 111.248 141.068 111.664 141.196 112.142C141.427 113.002 142.412 112.891 142.773 112.358L142.546 112.149C142.291 112.505 141.79 112.613 141.573 112.19ZM143.809 110.625C143.594 110.592 143.303 110.679 143.221 110.98L143.172 110.795L142.828 110.887L143.24 112.426L143.584 112.334L143.352 111.466C143.221 110.98 143.636 110.936 143.794 110.97L143.809 110.625ZM144.459 111.273C144.331 110.795 144.776 110.509 145.233 110.688L145.319 110.373C144.73 110.122 143.902 110.568 144.116 111.369C144.339 112.199 145.323 112.115 145.656 111.63L145.424 111.401C145.111 111.777 144.585 111.742 144.459 111.273ZM147.05 109.756L146.706 109.848L146.756 110.033C146.284 109.665 145.448 110.167 145.658 110.951C145.874 111.756 146.875 111.735 147.068 111.198L147.119 111.391L147.463 111.299L147.05 109.756ZM148.463 109.378C148.349 109.354 147.969 109.38 147.875 109.733L147.825 109.548L147.494 109.637L147.907 111.176L148.238 111.087L148.005 110.219C147.882 109.758 148.267 109.686 148.447 109.723L148.463 109.378ZM149.985 108.3L149.654 108.389L149.87 109.198C149.404 108.833 148.56 109.32 148.773 110.117C148.991 110.93 149.993 110.895 150.183 110.364L150.234 110.556L150.566 110.468L149.985 108.3ZM149.46 105.066L149.512 105.259L149.545 105.25L149.493 105.057L149.573 105.036L149.564 105.002L149.371 105.054L149.38 105.088L149.46 105.066ZM151.127 110.182C151.122 110.161 151.115 110.136 151.097 110.119C151.081 110.109 151.067 110.091 151.051 110.082C151.035 110.072 151.012 110.07 150.996 110.06C150.975 110.066 150.946 110.06 150.925 110.066C150.913 110.069 150.895 110.087 150.87 110.094C150.852 110.112 150.842 110.124 150.833 110.14C150.815 110.158 150.808 110.182 150.812 110.195C150.805 110.219 150.811 110.245 150.817 110.266C150.82 110.278 150.826 110.299 150.845 110.321C150.849 110.333 150.867 110.351 150.891 110.358C150.907 110.367 150.918 110.373 150.946 110.379C150.971 110.386 150.996 110.379 151.008 110.376C151.029 110.37 151.055 110.364 151.072 110.345C151.081 110.33 151.1 110.316 151.109 110.3C151.118 110.284 151.121 110.26 151.13 110.244C151.136 110.216 151.131 110.195 151.127 110.182ZM149.861 104.919L149.802 104.934L149.774 105.099L149.668 104.97L149.609 104.986L149.67 105.212L149.703 105.203L149.657 105.031L149.764 105.16L149.81 105.148L149.829 104.985L149.875 105.157L149.921 105.145L149.861 104.919ZM149.141 101.494C148.285 98.2996 144.984 96.3938 141.781 97.252C140.64 97.5576 139.613 98.2013 138.833 99.0798C142.522 100.756 143.828 105.447 141.422 108.743C142.538 109.118 143.757 109.156 144.889 108.852C148.093 107.998 150 104.701 149.141 101.494Z" fill="black" fill-opacity="0.1"/>
</g>
<g clip-path="url(#clip22_1722_47977)">
<path d="M194.657 89.4507L193.42 89.7821C192.826 89.0425 192.091 88.4442 191.262 88.0013L191.207 84.6237L189.865 84.9832C188.632 85.3134 187.694 86.1715 187.19 87.2412C186.859 87.2805 186.531 87.3144 186.2 87.4031L180.834 88.841C177.589 89.7105 175.502 92.7409 175.698 95.9687L173.887 96.454C173.266 96.6202 172.624 96.1857 172.578 95.5105C172.542 95.0079 172.903 94.5607 173.389 94.4304L173.431 94.4192C173.57 94.3821 173.652 94.2386 173.615 94.1002L173.391 93.2617C173.354 93.1234 173.21 93.0405 173.072 93.0776C171.877 93.3977 171.041 94.5383 171.207 95.761C171.407 97.2442 172.85 98.1696 174.246 97.7955L175.923 97.3462C176.509 99.5346 178.09 101.174 180.036 101.964L180.943 105.347C181.042 105.716 181.424 105.937 181.793 105.838L184.476 105.12C184.845 105.021 185.066 104.638 184.967 104.269L184.428 102.257L189.794 100.819L190.334 102.831C190.433 103.2 190.815 103.421 191.184 103.322L193.867 102.603C194.236 102.504 194.457 102.122 194.358 101.753L193.452 98.3695C193.847 97.8638 194.169 97.3056 194.412 96.7056L196.454 96.1586C196.823 96.0597 197.044 95.677 196.945 95.308L195.507 89.9418C195.408 89.5729 195.026 89.3519 194.657 89.4507ZM190.009 93.5718C189.641 93.6706 189.258 93.4496 189.159 93.0807C189.06 92.7118 189.281 92.329 189.65 92.2302C190.019 92.1313 190.402 92.3523 190.501 92.7212C190.599 93.0902 190.378 93.4729 190.009 93.5718ZM180.474 87.4995L185.84 86.0616C186.067 86.0009 186.293 85.9581 186.516 85.9165C186.512 85.9039 186.514 85.8944 186.511 85.8818C185.916 83.6599 183.63 82.3402 181.408 82.9356C179.186 83.5309 177.866 85.8167 178.462 88.0387C178.485 88.1267 178.529 88.2049 178.556 88.2919C179.15 87.9576 179.786 87.6837 180.474 87.4995Z" fill="black" fill-opacity="0.1"/>
</g>
<g clip-path="url(#clip23_1722_47977)">
<path d="M216.893 92.4778L217.432 94.4917C217.878 96.1566 222.297 96.4234 227.297 95.0838C232.296 93.7442 235.989 91.3037 235.543 89.6388L235.004 87.6249C233.424 89.5193 230.034 91.1149 226.488 92.0653C222.941 93.0156 219.208 93.3283 216.893 92.4778ZM228.481 75.355C233.48 74.0155 237.174 71.575 236.727 69.9101C236.281 68.2452 231.863 67.9784 226.863 69.318C221.864 70.6576 218.17 73.0981 218.616 74.763C219.062 76.4279 223.481 76.6946 228.481 75.355ZM215.567 87.5302L216.219 89.9639C216.665 91.6288 221.084 91.8956 226.083 90.556C231.083 89.2164 234.776 86.776 234.33 85.1111L233.678 82.6774C232.16 84.8029 228.817 86.5884 225.275 87.5375C221.732 88.4866 217.944 88.6119 215.567 87.5302ZM235.326 82.7918C237.888 81.5441 239.453 80.0835 239.154 78.9657L238.614 76.9517C237.727 78.0184 236.261 78.9776 234.522 79.7921L235.326 82.7918ZM222.848 78.4819C217.849 79.8215 214.245 82.5968 214.804 84.6815C215.362 86.7662 219.871 87.3678 224.87 86.0282C229.87 84.6886 233.473 81.9133 232.915 79.8286C232.356 77.744 227.848 77.1423 222.848 78.4819ZM233.903 78.3658C236.596 77.0982 238.248 75.584 237.941 74.4379L237.401 72.424C236.044 74.0564 233.338 75.464 230.35 76.4263C231.922 76.7279 233.188 77.3593 233.903 78.3658Z" fill="black" fill-opacity="0.1"/>
</g>
<g clip-path="url(#clip24_1722_47977)">
<path d="M282.243 67.4199C283.974 73.8798 280.141 80.5198 273.681 82.2508C267.221 83.9817 260.581 80.1481 258.85 73.6882C257.119 67.2282 260.953 60.5882 267.413 58.8573C273.873 57.1263 280.513 60.9599 282.243 67.4199ZM275.116 67.5437C274.932 65.9249 273.523 65.4058 271.753 65.2819L271.713 63.0327L270.344 63.0568L270.382 65.2467C270.022 65.253 269.655 65.2666 269.289 65.2803L269.251 63.0759L267.883 63.0998L267.921 65.3483C267.625 65.3595 267.334 65.3701 267.05 65.3753L267.05 65.3683L265.161 65.4006L265.187 66.8628C265.187 66.8628 266.198 66.8259 266.181 66.8448C266.736 66.8352 266.922 67.154 266.979 67.4309L267.024 69.9932C267.063 69.9927 267.112 69.9934 267.169 70.0002C267.123 70.0011 267.075 70.0016 267.024 70.0029L267.087 73.5924C267.065 73.7674 266.968 74.0474 266.58 74.0549C266.598 74.0701 265.585 74.072 265.585 74.072L265.341 75.7118L267.123 75.6806C267.455 75.6752 267.781 75.6751 268.101 75.6715L268.142 77.9463L269.509 77.9226L269.47 75.6718C269.835 75.6729 270.199 75.67 270.564 75.6631L270.602 77.9035L271.972 77.8794L271.932 75.6087C274.232 75.4364 275.833 74.8283 275.995 72.6634C276.127 70.9202 275.294 70.1579 273.982 69.867C274.769 69.449 275.253 68.7282 275.116 67.5437ZM273.285 72.4412C273.316 74.1412 270.401 73.9987 269.473 74.0158L269.421 71.0018C270.349 70.9858 273.254 70.6681 273.285 72.4412ZM272.574 68.2001C272.601 69.7467 270.17 69.6087 269.397 69.6223L269.349 66.8888C270.122 66.8751 272.546 66.5869 272.574 68.2001Z" fill="black" fill-opacity="0.1"/>
</g>
<g clip-path="url(#clip25_1722_47977)">
<path d="M323.339 48.258C321.711 48.0363 320.184 48.1952 318.72 48.5875C314.072 49.8324 310.056 53.4301 305.408 54.6753C304.243 54.9876 303.038 55.1518 301.774 55.0944C301.632 55.0879 301.495 55.1035 301.367 55.1379C300.717 55.3119 300.285 55.9665 300.472 56.6642L303.679 68.6349C303.807 69.1114 304.201 69.49 304.688 69.556C306.316 69.778 307.843 69.6191 309.307 69.2269C313.955 67.9816 317.972 64.3838 322.619 63.1385C323.785 62.8262 324.989 62.662 326.254 62.7195C326.396 62.7259 326.532 62.7103 326.661 62.676C327.31 62.502 327.743 61.8473 327.556 61.1497L324.348 49.1794C324.22 48.7025 323.826 48.3244 323.339 48.258ZM302.499 56.9867C303.309 56.9735 304.127 56.8566 304.956 56.6896C305.031 57.8579 304.28 58.9549 303.111 59.2683L302.499 56.9867ZM305.381 67.7402L304.897 65.9374C306.194 65.5899 307.519 66.3377 307.922 67.61C307.054 67.7695 306.214 67.8126 305.381 67.7402ZM314.984 62.5294C313.317 62.9762 311.531 61.7161 310.995 59.716C310.459 57.7155 311.376 55.7316 313.043 55.2849C314.71 54.8383 316.496 56.0978 317.032 58.0984C317.568 60.0993 316.651 62.0828 314.984 62.5294ZM325.528 60.8276C324.822 60.8391 324.111 60.9302 323.393 61.0583C323.351 60.015 323.967 59.0492 324.944 58.6498L325.528 60.8276ZM323.141 51.9188C321.936 52.0836 320.771 51.3529 320.413 50.1607C321.172 50.045 321.913 50.0107 322.647 50.0741L323.141 51.9188Z" fill="black" fill-opacity="0.1"/>
</g>
<g clip-path="url(#clip26_1722_47977)">
<path d="M347.383 57.8742C347.681 58.9852 348.824 59.645 349.935 59.3473L370.058 53.9553C371.169 53.6576 371.829 52.5147 371.531 51.4037L369.554 44.0251L345.406 50.4956L347.383 57.8742ZM354.669 52.8665C354.594 52.5898 354.76 52.3028 355.037 52.2287L360.738 50.7009C361.015 50.6268 361.302 50.7925 361.376 51.0692L361.826 52.7461C361.9 53.0228 361.734 53.3099 361.457 53.384L355.756 54.9118C355.479 54.9859 355.192 54.8202 355.118 54.5435L354.669 52.8665ZM349.302 54.3044C349.228 54.0277 349.394 53.7407 349.671 53.6665L352.689 52.8577C352.966 52.7836 353.253 52.9493 353.327 53.226L353.776 54.903C353.85 55.1797 353.685 55.4667 353.408 55.5409L350.39 56.3497C350.113 56.4238 349.826 56.2581 349.752 55.9814L349.302 54.3044ZM367.577 36.6465L368.116 38.6589L343.968 45.1293L343.429 43.117C343.131 42.006 343.791 40.8631 344.902 40.5654L365.025 35.1734C366.136 34.8757 367.279 35.5355 367.577 36.6465Z" fill="black" fill-opacity="0.1"/>
</g>
<g clip-path="url(#clip27_1722_47977)">
<path d="M409.007 26.9832L391.028 31.8007C390.611 31.9124 390.183 31.6652 390.072 31.2482C389.96 30.8313 390.207 30.4031 390.624 30.2914L408.735 25.4386C409.152 25.3268 409.399 24.8987 409.287 24.4817C408.952 23.2314 407.667 22.4894 406.417 22.8244L389.061 27.4751C387.393 27.9218 386.404 29.6352 386.851 31.3024L390.895 46.395C391.342 48.0623 393.055 49.0515 394.722 48.6047L413.456 43.585C414.777 43.2309 415.58 41.9276 415.245 40.6792L412.01 28.6051C411.675 27.3567 410.329 26.6291 409.007 26.9832ZM409.504 37.3646C408.671 37.5879 407.814 37.0931 407.591 36.2598C407.367 35.4264 407.862 34.5694 408.695 34.3461C409.529 34.1228 410.386 34.6175 410.609 35.4509C410.832 36.2843 410.338 37.1413 409.504 37.3646Z" fill="black" fill-opacity="0.1"/>
</g>
<g clip-path="url(#clip28_1722_47977)">
<path d="M54.6738 182.532L55.2134 184.546C55.6595 186.211 60.0784 186.478 65.0778 185.138C70.0772 183.798 73.7706 181.358 73.3245 179.693L72.7849 177.679C71.2048 179.573 67.8157 181.169 64.269 182.119C60.7222 183.07 56.9894 183.382 54.6738 182.532ZM66.262 165.409C71.2614 164.07 74.9548 161.629 74.5087 159.964C74.0626 158.299 69.6438 158.033 64.6443 159.372C59.6449 160.712 55.9515 163.152 56.3976 164.817C56.8437 166.482 61.2625 166.749 66.262 165.409ZM53.3481 177.584L54.0002 180.018C54.4463 181.683 58.8652 181.95 63.8646 180.61C68.864 179.271 72.5574 176.83 72.1113 175.165L71.4592 172.732C69.941 174.857 66.5978 176.643 63.0558 177.592C59.5137 178.541 55.7257 178.666 53.3481 177.584ZM73.1075 172.846C75.6697 171.598 77.2347 170.138 76.9351 169.02L76.3955 167.006C75.5086 168.073 74.0418 169.032 72.3037 169.846L73.1075 172.846ZM60.6293 168.536C55.6299 169.876 52.0262 172.651 52.5848 174.736C53.1434 176.82 57.6519 177.422 62.6514 176.082C67.6508 174.743 71.2545 171.967 70.6959 169.883C70.1373 167.798 65.6288 167.196 60.6293 168.536ZM71.684 168.42C74.3774 167.152 76.029 165.638 75.7219 164.492L75.1823 162.478C73.8252 164.111 71.1188 165.518 68.1312 166.48C69.7033 166.782 70.9694 167.413 71.684 168.42Z" fill="black" fill-opacity="0.1"/>
</g>
<g clip-path="url(#clip29_1722_47977)">
<path d="M119.372 156.211L118.135 156.543C117.541 155.803 116.806 155.205 115.977 154.762L115.921 151.384L114.58 151.744C113.347 152.074 112.409 152.932 111.905 154.002C111.574 154.041 111.246 154.075 110.915 154.164L105.548 155.601C102.303 156.471 100.217 159.501 100.413 162.729L98.6015 163.214C97.981 163.381 97.3388 162.946 97.2927 162.271C97.2569 161.768 97.6179 161.321 98.1042 161.191L98.1461 161.18C98.2845 161.142 98.3673 160.999 98.3302 160.861L98.1056 160.022C98.0685 159.884 97.925 159.801 97.7866 159.838C96.5918 160.158 95.7561 161.299 95.922 162.521C96.1217 164.005 97.5649 164.93 98.9609 164.556L100.638 164.107C101.224 166.295 102.805 167.934 104.751 168.725L105.658 172.108C105.756 172.477 106.139 172.698 106.508 172.599L109.191 171.88C109.56 171.781 109.781 171.398 109.682 171.029L109.143 169.017L114.509 167.579L115.049 169.591C115.147 169.96 115.53 170.181 115.899 170.083L118.582 169.364C118.951 169.265 119.172 168.882 119.073 168.513L118.167 165.13C118.561 164.624 118.884 164.066 119.127 163.466L121.169 162.919C121.538 162.82 121.759 162.437 121.66 162.068L120.222 156.702C120.123 156.333 119.741 156.112 119.372 156.211ZM114.724 160.332C114.355 160.431 113.973 160.21 113.874 159.841C113.775 159.472 113.996 159.089 114.365 158.991C114.734 158.892 115.116 159.113 115.215 159.482C115.314 159.851 115.093 160.233 114.724 160.332ZM105.189 154.26L110.555 152.822C110.782 152.761 111.008 152.719 111.231 152.677C111.227 152.664 111.229 152.655 111.226 152.642C110.631 150.42 108.345 149.101 106.123 149.696C103.901 150.291 102.581 152.577 103.177 154.799C103.2 154.887 103.244 154.965 103.271 155.052C103.865 154.718 104.501 154.444 105.189 154.26Z" fill="black" fill-opacity="0.1"/>
</g>
<g clip-path="url(#clip30_1722_47977)">
<path d="M161.12 138.312C159.492 138.09 157.965 138.249 156.501 138.642C151.854 139.886 147.837 143.484 143.19 144.729C142.024 145.042 140.82 145.206 139.555 145.149C139.413 145.142 139.276 145.158 139.148 145.192C138.499 145.366 138.066 146.021 138.253 146.718L141.46 158.689C141.588 159.166 141.982 159.544 142.469 159.61C144.097 159.832 145.625 159.673 147.089 159.281C151.736 158.036 155.753 154.438 160.4 153.193C161.566 152.88 162.77 152.716 164.035 152.774C164.177 152.78 164.314 152.764 164.442 152.73C165.091 152.556 165.524 151.901 165.337 151.204L162.13 139.234C162.001 138.757 161.608 138.379 161.12 138.312ZM140.28 147.041C141.091 147.028 141.908 146.911 142.737 146.744C142.812 147.912 142.061 149.009 140.892 149.322L140.28 147.041ZM143.162 157.794L142.679 155.992C143.976 155.644 145.301 156.392 145.703 157.664C144.835 157.824 143.995 157.867 143.162 157.794ZM152.765 152.584C151.098 153.03 149.312 151.77 148.776 149.77C148.24 147.77 149.157 145.786 150.824 145.339C152.491 144.892 154.277 146.152 154.813 148.152C155.349 150.153 154.432 152.137 152.765 152.584ZM163.309 150.882C162.604 150.893 161.893 150.984 161.174 151.112C161.132 150.069 161.748 149.103 162.726 148.704L163.309 150.882ZM160.922 141.973C159.717 142.138 158.552 141.407 158.194 140.215C158.953 140.099 159.694 140.065 160.428 140.128L160.922 141.973Z" fill="black" fill-opacity="0.1"/>
</g>
<g clip-path="url(#clip31_1722_47977)">
<path d="M185.163 147.928C185.461 149.039 186.604 149.699 187.715 149.401L207.838 144.009C208.949 143.712 209.609 142.569 209.311 141.458L207.334 134.079L183.186 140.55L185.163 147.928ZM192.449 142.921C192.375 142.644 192.54 142.357 192.817 142.283L198.519 140.755C198.795 140.681 199.082 140.847 199.157 141.123L199.606 142.8C199.68 143.077 199.514 143.364 199.238 143.438L193.536 144.966C193.259 145.04 192.972 144.874 192.898 144.598L192.449 142.921ZM187.083 144.359C187.008 144.082 187.174 143.795 187.451 143.721L190.469 142.912C190.746 142.838 191.033 143.003 191.107 143.28L191.557 144.957C191.631 145.234 191.465 145.521 191.188 145.595L188.17 146.404C187.893 146.478 187.606 146.312 187.532 146.035L187.083 144.359ZM205.357 126.701L205.896 128.713L181.748 135.183L181.209 133.171C180.911 132.06 181.571 130.917 182.682 130.62L202.806 125.227C203.917 124.93 205.06 125.59 205.357 126.701Z" fill="black" fill-opacity="0.1"/>
</g>
<g clip-path="url(#clip32_1722_47977)">
<path d="M246.788 117.037L228.809 121.855C228.392 121.966 227.964 121.719 227.852 121.302C227.74 120.885 227.987 120.457 228.404 120.346L246.515 115.493C246.932 115.381 247.179 114.953 247.068 114.536C246.733 113.286 245.448 112.544 244.197 112.879L226.841 117.529C225.174 117.976 224.184 119.689 224.631 121.357L228.675 136.449C229.122 138.116 230.835 139.106 232.502 138.659L251.236 133.639C252.558 133.285 253.36 131.982 253.025 130.733L249.79 118.659C249.456 117.411 248.109 116.683 246.788 117.037ZM247.284 127.419C246.451 127.642 245.594 127.147 245.371 126.314C245.148 125.48 245.642 124.624 246.476 124.4C247.309 124.177 248.166 124.672 248.389 125.505C248.613 126.338 248.118 127.195 247.284 127.419Z" fill="black" fill-opacity="0.1"/>
</g>
<g clip-path="url(#clip33_1722_47977)">
<path d="M292.099 118.3C292.175 118.585 292.037 118.842 291.761 118.916C291.475 118.993 291.233 118.824 291.16 118.552C291.087 118.279 291.213 118.012 291.498 117.935C291.774 117.861 292.026 118.028 292.099 118.3ZM278.937 121.301C278.64 121.381 278.526 121.645 278.599 121.917C278.672 122.19 278.902 122.362 279.2 122.282C279.473 122.209 279.602 121.954 279.526 121.669C279.448 121.398 279.21 121.228 278.937 121.301ZM283.86 119.968C283.634 120.029 283.535 120.213 283.559 120.44L284.36 120.225C284.258 119.997 284.078 119.91 283.86 119.968ZM288.383 118.77C288.098 118.846 287.984 119.111 288.057 119.383C288.13 119.656 288.361 119.828 288.646 119.751C288.931 119.675 289.06 119.42 288.984 119.135C288.911 118.862 288.668 118.694 288.383 118.77ZM293.116 118.675C293.119 118.687 293.134 118.692 293.141 118.717C293.144 118.73 293.134 118.742 293.14 118.767C293.131 118.783 293.133 118.791 293.128 118.806C293.119 118.822 293.113 118.833 293.088 118.839C293.079 118.855 293.07 118.858 293.045 118.864C293.033 118.868 293.024 118.87 292.996 118.864C292.983 118.867 292.971 118.857 292.957 118.852C292.941 118.843 292.93 118.837 292.927 118.824C292.908 118.807 292.905 118.794 292.902 118.781C292.896 118.761 292.893 118.748 292.902 118.732C292.896 118.711 292.905 118.695 292.91 118.68C292.92 118.664 292.928 118.662 292.938 118.65C292.956 118.632 292.969 118.629 292.981 118.625C293.002 118.62 293.015 118.616 293.031 118.626C293.055 118.633 293.068 118.629 293.082 118.634C293.097 118.639 293.097 118.657 293.116 118.675ZM293.039 118.758C293.06 118.752 293.057 118.74 293.069 118.737C293.079 118.721 293.076 118.712 293.073 118.7C293.07 118.687 293.067 118.679 293.051 118.669C293.039 118.673 293.027 118.662 293.002 118.669L292.935 118.687L292.974 118.834L293.008 118.825L292.992 118.766L293.004 118.763L293.066 118.809L293.1 118.8L293.039 118.758ZM292.303 103.449L296.257 118.206C296.554 119.317 295.895 120.46 294.784 120.758L274.66 126.15C273.549 126.447 272.406 125.787 272.109 124.676L268.154 109.919C267.857 108.808 268.517 107.665 269.628 107.368L289.751 101.976C290.862 101.678 292.005 102.338 292.303 103.449ZM272.406 115.053C273.265 118.26 276.565 120.162 279.768 119.304C280.908 118.998 281.936 118.354 282.716 117.476C278.993 115.809 277.757 111.112 280.126 107.812C279.01 107.437 277.8 107.398 276.66 107.703C273.456 108.557 271.55 111.858 272.406 115.053ZM283.019 117.098C285.357 114 284.14 109.509 280.576 107.979C278.254 111.086 279.447 115.588 283.019 117.098ZM277.91 121.895C277.813 121.53 277.51 121.356 277.129 121.444C276.936 121.496 276.746 121.609 276.665 121.86C276.519 121.715 276.32 121.661 276.081 121.725C275.921 121.768 275.778 121.869 275.697 122.07L275.648 121.886L275.304 121.978L275.716 123.517L276.06 123.425C275.848 122.632 275.616 122.187 276.098 122.057C276.526 121.943 276.556 122.393 276.781 123.231L277.112 123.143C276.907 122.375 276.668 121.905 277.15 121.775C277.578 121.661 277.606 122.102 277.833 122.949L278.177 122.857L277.919 121.893L277.91 121.895ZM279.639 120.816L279.308 120.905L279.357 121.09C279.207 120.982 279.024 120.936 278.806 120.995C278.374 121.11 278.135 121.543 278.26 122.008C278.385 122.478 278.808 122.729 279.239 122.613C279.457 122.555 279.595 122.432 279.669 122.255L279.721 122.448L280.052 122.359L279.639 120.816ZM281.624 121.435C281.456 120.806 280.572 121.348 280.493 121.055C280.429 120.816 280.938 120.72 281.257 120.801L281.322 120.491C280.859 120.341 279.988 120.579 280.148 121.174C280.309 121.774 281.201 121.265 281.277 121.546C281.347 121.81 280.776 121.941 280.418 121.812L280.342 122.115C280.897 122.308 281.776 122.001 281.624 121.435ZM283.213 121.427L283.044 121.167C282.908 121.297 282.582 121.488 282.487 121.132L282.3 120.436L282.849 120.289L282.766 119.978L282.217 120.126L282.091 119.656L281.747 119.748L281.873 120.218L281.555 120.303L281.637 120.609L281.955 120.524L282.143 121.224C282.341 121.962 283.03 121.633 283.213 121.427ZM283.62 120.716L284.773 120.407C284.591 119.728 284.209 119.543 283.789 119.655C283.345 119.774 283.115 120.191 283.243 120.668C283.473 121.528 284.459 121.417 284.82 120.884L284.593 120.675C284.338 121.031 283.836 121.139 283.62 120.716ZM285.856 119.151C285.641 119.118 285.35 119.205 285.268 119.506L285.219 119.321L284.875 119.413L285.287 120.952L285.631 120.86L285.399 119.992C285.268 119.506 285.683 119.462 285.841 119.496L285.856 119.151ZM286.506 119.799C286.378 119.321 286.823 119.035 287.279 119.214L287.366 118.899C286.777 118.648 285.949 119.094 286.163 119.895C286.386 120.725 287.37 120.641 287.703 120.157L287.47 119.927C287.158 120.303 286.632 120.268 286.506 119.799ZM289.097 118.282L288.753 118.374L288.802 118.559C288.331 118.191 287.495 118.693 287.705 119.477C287.921 120.282 288.922 120.261 289.115 119.724L289.166 119.917L289.51 119.825L289.097 118.282ZM290.51 117.904C290.395 117.88 290.016 117.906 289.922 118.259L289.872 118.074L289.541 118.163L289.953 119.702L290.285 119.613L290.052 118.745C289.929 118.284 290.314 118.212 290.494 118.249L290.51 117.904ZM292.032 116.826L291.701 116.915L291.917 117.724C291.451 117.359 290.607 117.846 290.82 118.643C291.038 119.456 292.04 119.421 292.23 118.89L292.281 119.082L292.613 118.994L292.032 116.826ZM291.507 113.592L291.558 113.785L291.592 113.776L291.54 113.583L291.62 113.562L291.611 113.529L291.418 113.58L291.427 113.614L291.507 113.592ZM293.174 118.708C293.169 118.687 293.162 118.662 293.144 118.645C293.128 118.636 293.114 118.617 293.098 118.608C293.082 118.598 293.059 118.596 293.043 118.586C293.022 118.592 292.993 118.586 292.972 118.592C292.96 118.595 292.942 118.613 292.917 118.62C292.899 118.638 292.889 118.65 292.88 118.666C292.862 118.684 292.855 118.709 292.859 118.721C292.852 118.745 292.858 118.771 292.864 118.792C292.867 118.804 292.873 118.825 292.892 118.847C292.896 118.859 292.914 118.877 292.938 118.884C292.954 118.893 292.965 118.899 292.993 118.905C293.018 118.912 293.043 118.905 293.055 118.902C293.076 118.896 293.101 118.89 293.119 118.872C293.128 118.856 293.147 118.842 293.156 118.826C293.165 118.81 293.168 118.786 293.177 118.771C293.183 118.742 293.178 118.721 293.174 118.708ZM291.907 113.445L291.849 113.46L291.821 113.625L291.715 113.496L291.656 113.512L291.717 113.738L291.75 113.729L291.704 113.558L291.81 113.686L291.857 113.674L291.876 113.511L291.922 113.683L291.968 113.671L291.907 113.445ZM291.188 110.02C290.332 106.826 287.031 104.92 283.828 105.778C282.687 106.084 281.66 106.727 280.88 107.606C284.569 109.282 285.875 113.974 283.469 117.269C284.585 117.644 285.804 117.682 286.936 117.378C290.14 116.524 292.047 113.227 291.188 110.02Z" fill="black" fill-opacity="0.1"/>
</g>
<g clip-path="url(#clip34_1722_47977)">
<path d="M337.358 99.2397C339.089 105.7 335.255 112.34 328.795 114.071C322.335 115.802 315.695 111.968 313.964 105.508C312.233 99.048 316.067 92.408 322.527 90.6771C328.987 88.9461 335.627 92.7797 337.358 99.2397ZM330.23 99.3635C330.046 97.7448 328.637 97.2256 326.867 97.1017L326.828 94.8525L325.458 94.8766L325.497 97.0665C325.137 97.0728 324.769 97.0864 324.403 97.1001L324.365 94.8957L322.997 94.9196L323.036 97.1681C322.739 97.1793 322.448 97.1899 322.164 97.1951L322.164 97.1881L320.276 97.2205L320.301 98.6826C320.301 98.6826 321.312 98.6457 321.296 98.6646C321.85 98.655 322.036 98.9738 322.094 99.2507L322.138 101.813C322.177 101.813 322.227 101.813 322.283 101.82C322.238 101.821 322.189 101.821 322.139 101.823L322.201 105.412C322.18 105.587 322.082 105.867 321.694 105.875C321.712 105.89 320.699 105.892 320.699 105.892L320.456 107.532L322.237 107.5C322.569 107.495 322.895 107.495 323.216 107.491L323.256 109.766L324.624 109.742L324.584 107.492C324.949 107.493 325.314 107.49 325.678 107.483L325.717 109.723L327.086 109.699L327.047 107.428C329.346 107.256 330.947 106.648 331.11 104.483C331.241 102.74 330.409 101.978 329.096 101.687C329.883 101.269 330.367 100.548 330.23 99.3635ZM328.4 104.261C328.43 105.961 325.516 105.819 324.588 105.836L324.535 102.822C325.464 102.806 328.369 102.488 328.4 104.261ZM327.689 100.02C327.715 101.567 325.284 101.428 324.511 101.442L324.464 98.7086C325.237 98.695 327.66 98.4067 327.689 100.02Z" fill="black" fill-opacity="0.1"/>
</g>
<g clip-path="url(#clip35_1722_47977)">
<path d="M358.94 101.004L359.48 103.018C359.926 104.683 364.345 104.949 369.344 103.61C374.344 102.27 378.037 99.8299 377.591 98.165L377.052 96.151C375.471 98.0455 372.082 99.641 368.536 100.591C364.989 101.542 361.256 101.854 358.94 101.004ZM370.529 83.8812C375.528 82.5416 379.221 80.1011 378.775 78.4362C378.329 76.7713 373.91 76.5045 368.911 77.8441C363.912 79.1837 360.218 81.6242 360.664 83.2891C361.11 84.954 365.529 85.2208 370.529 83.8812ZM357.615 96.0564L358.267 98.49C358.713 100.155 363.132 100.422 368.131 99.0821C373.131 97.7425 376.824 95.3021 376.378 93.6372L375.726 91.2035C374.208 93.329 370.864 95.1145 367.322 96.0636C363.78 97.0127 359.992 97.138 357.615 96.0564ZM377.374 91.3179C379.936 90.0702 381.501 88.6096 381.202 87.4918L380.662 85.4779C379.775 86.5446 378.308 87.5037 376.57 88.3182L377.374 91.3179ZM364.896 87.0081C359.897 88.3476 356.293 91.123 356.851 93.2076C357.41 95.2923 361.919 95.8939 366.918 94.5543C371.917 93.2148 375.521 90.4394 374.963 88.3548C374.404 86.2701 369.895 85.6685 364.896 87.0081ZM375.951 86.892C378.644 85.6243 380.296 84.1101 379.989 82.964L379.449 80.9501C378.092 82.5825 375.385 83.9902 372.398 84.9524C373.97 85.2541 375.236 85.8854 375.951 86.892Z" fill="black" fill-opacity="0.1"/>
</g>
<g clip-path="url(#clip36_1722_47977)">
<path d="M240.186 179.411L240.726 181.425C241.172 183.09 245.591 183.357 250.59 182.017C255.59 180.678 259.283 178.237 258.837 176.572L258.298 174.558C256.717 176.453 253.328 178.048 249.782 178.999C246.235 179.949 242.502 180.262 240.186 179.411ZM251.775 162.288C256.774 160.949 260.468 158.508 260.021 156.843C259.575 155.179 255.156 154.912 250.157 156.251C245.158 157.591 241.464 160.031 241.91 161.696C242.356 163.361 246.775 163.628 251.775 162.288ZM238.861 174.464L239.513 176.897C239.959 178.562 244.378 178.829 249.377 177.489C254.377 176.15 258.07 173.709 257.624 172.044L256.972 169.611C255.454 171.736 252.111 173.522 248.568 174.471C245.026 175.42 241.238 175.545 238.861 174.464ZM258.62 169.725C261.182 168.477 262.747 167.017 262.448 165.899L261.908 163.885C261.021 164.952 259.554 165.911 257.816 166.725L258.62 169.725ZM246.142 165.415C241.143 166.755 237.539 169.53 238.097 171.615C238.656 173.7 243.165 174.301 248.164 172.962C253.163 171.622 256.767 168.847 256.209 166.762C255.65 164.677 251.141 164.076 246.142 165.415ZM257.197 165.299C259.89 164.032 261.542 162.517 261.235 161.371L260.695 159.357C259.338 160.99 256.631 162.397 253.644 163.36C255.216 163.661 256.482 164.293 257.197 165.299Z" fill="black" fill-opacity="0.1"/>
</g>
<g clip-path="url(#clip37_1722_47977)">
<path d="M305.537 154.353C307.268 160.813 303.435 167.453 296.975 169.184C290.515 170.915 283.875 167.081 282.144 160.622C280.413 154.162 284.247 147.522 290.707 145.791C297.166 144.06 303.806 147.893 305.537 154.353ZM298.41 154.477C298.226 152.858 296.817 152.339 295.046 152.215L295.007 149.966L293.638 149.99L293.676 152.18C293.316 152.186 292.949 152.2 292.583 152.214L292.545 150.009L291.176 150.033L291.215 152.282C290.919 152.293 290.628 152.303 290.344 152.309L290.344 152.302L288.455 152.334L288.481 153.796C288.481 153.796 289.492 153.759 289.475 153.778C290.03 153.769 290.216 154.087 290.273 154.364L290.318 156.927C290.356 156.926 290.406 156.927 290.463 156.934C290.417 156.934 290.369 156.935 290.318 156.936L290.381 160.526C290.359 160.701 290.262 160.981 289.874 160.988C289.892 161.003 288.879 161.005 288.879 161.005L288.635 162.645L290.417 162.614C290.749 162.609 291.075 162.608 291.395 162.605L291.436 164.88L292.803 164.856L292.764 162.605C293.129 162.606 293.493 162.603 293.858 162.596L293.896 164.837L295.266 164.813L295.226 162.542C297.526 162.37 299.127 161.762 299.289 159.597C299.421 157.854 298.588 157.091 297.276 156.8C298.063 156.382 298.547 155.662 298.41 154.477ZM296.579 159.375C296.61 161.075 293.695 160.932 292.767 160.949L292.715 157.935C293.643 157.919 296.548 157.601 296.579 159.375ZM295.868 155.133C295.895 156.68 293.464 156.542 292.691 156.556L292.643 153.822C293.416 153.808 295.84 153.52 295.868 155.133Z" fill="black" fill-opacity="0.1"/>
</g>
<g clip-path="url(#clip38_1722_47977)">
<path d="M346.633 135.191C345.005 134.97 343.478 135.129 342.014 135.521C337.366 136.766 333.35 140.363 328.702 141.609C327.537 141.921 326.332 142.085 325.068 142.028C324.926 142.021 324.789 142.037 324.661 142.071C324.011 142.245 323.579 142.9 323.766 143.598L326.973 155.568C327.101 156.045 327.495 156.423 327.982 156.489C329.61 156.711 331.137 156.552 332.601 156.16C337.249 154.915 341.266 151.317 345.913 150.072C347.079 149.76 348.283 149.595 349.548 149.653C349.69 149.659 349.826 149.644 349.954 149.609C350.604 149.435 351.037 148.781 350.85 148.083L347.642 136.113C347.514 135.636 347.12 135.258 346.633 135.191ZM325.793 143.92C326.603 143.907 327.421 143.79 328.25 143.623C328.325 144.791 327.574 145.888 326.404 146.202L325.793 143.92ZM328.674 154.674L328.191 152.871C329.488 152.523 330.813 153.271 331.216 154.543C330.348 154.703 329.508 154.746 328.674 154.674ZM338.278 149.463C336.611 149.91 334.825 148.649 334.289 146.649C333.753 144.649 334.67 142.665 336.337 142.218C338.004 141.772 339.79 143.031 340.326 145.032C340.862 147.033 339.945 149.016 338.278 149.463ZM348.822 147.761C348.116 147.772 347.405 147.864 346.687 147.992C346.645 146.948 347.261 145.983 348.238 145.583L348.822 147.761ZM346.435 138.852C345.23 139.017 344.065 138.286 343.707 137.094C344.466 136.978 345.207 136.944 345.94 137.007L346.435 138.852Z" fill="black" fill-opacity="0.1"/>
</g>
<g clip-path="url(#clip39_1722_47977)">
<path d="M370.677 144.808C370.975 145.918 372.118 146.578 373.229 146.281L393.352 140.889C394.463 140.591 395.123 139.448 394.825 138.337L392.848 130.958L368.7 137.429L370.677 144.808ZM377.962 139.8C377.888 139.523 378.054 139.236 378.331 139.162L384.032 137.634C384.309 137.56 384.596 137.726 384.67 138.003L385.12 139.679C385.194 139.956 385.028 140.243 384.751 140.317L379.05 141.845C378.773 141.919 378.486 141.754 378.412 141.477L377.962 139.8ZM372.596 141.238C372.522 140.961 372.688 140.674 372.965 140.6L375.983 139.791C376.26 139.717 376.547 139.883 376.621 140.159L377.07 141.836C377.144 142.113 376.979 142.4 376.702 142.474L373.683 143.283C373.407 143.357 373.12 143.191 373.046 142.915L372.596 141.238ZM390.871 123.58L391.41 125.592L367.262 132.063L366.723 130.05C366.425 128.939 367.085 127.796 368.196 127.499L388.319 122.107C389.43 121.809 390.573 122.469 390.871 123.58Z" fill="black" fill-opacity="0.1"/>
</g>
<defs>
<clipPath id="clip0_1722_47977">
<rect width="25" height="25" fill="white" transform="translate(2.96387 -10.4504) rotate(-15)"/>
</clipPath>
<clipPath id="clip1_1722_47977">
<rect width="25" height="25" fill="white" transform="translate(46.4307 -22.0973) rotate(-15)"/>
</clipPath>
<clipPath id="clip2_1722_47977">
<rect width="25" height="25" fill="white" transform="translate(-28.8564 44.6631) rotate(-15)"/>
</clipPath>
<clipPath id="clip3_1722_47977">
<rect width="25" height="25" fill="white" transform="translate(14.6104 33.0162) rotate(-15)"/>
</clipPath>
<clipPath id="clip4_1722_47977">
<rect width="25" height="25" fill="white" transform="translate(58.0771 21.3694) rotate(-15)"/>
</clipPath>
<clipPath id="clip5_1722_47977">
<rect width="25" height="25" fill="white" transform="translate(101.544 9.7225) rotate(-15)"/>
</clipPath>
<clipPath id="clip6_1722_47977">
<rect width="25" height="25" fill="white" transform="translate(145.01 -1.92435) rotate(-15)"/>
</clipPath>
<clipPath id="clip7_1722_47977">
<rect width="25" height="25" fill="white" transform="translate(188.477 -13.5712) rotate(-15)"/>
</clipPath>
<clipPath id="clip8_1722_47977">
<rect width="25" height="25" fill="white" transform="translate(-17.209 88.1298) rotate(-15)"/>
</clipPath>
<clipPath id="clip9_1722_47977">
<rect width="25" height="25" fill="white" transform="translate(26.2578 76.4829) rotate(-15)"/>
</clipPath>
<clipPath id="clip10_1722_47977">
<rect width="25" height="25" fill="white" transform="translate(69.7246 64.8361) rotate(-15)"/>
</clipPath>
<clipPath id="clip11_1722_47977">
<rect width="25" height="25" fill="white" transform="translate(113.191 53.1892) rotate(-15)"/>
</clipPath>
<clipPath id="clip12_1722_47977">
<rect width="25" height="25" fill="white" transform="translate(156.657 41.5423) rotate(-15)"/>
</clipPath>
<clipPath id="clip13_1722_47977">
<rect width="25" height="25" fill="white" transform="translate(200.124 29.8955) rotate(-15)"/>
</clipPath>
<clipPath id="clip14_1722_47977">
<rect width="25" height="25" fill="white" transform="translate(243.591 18.2486) rotate(-15)"/>
</clipPath>
<clipPath id="clip15_1722_47977">
<rect width="25" height="25" fill="white" transform="translate(287.058 6.60178) rotate(-15)"/>
</clipPath>
<clipPath id="clip16_1722_47977">
<rect width="25" height="25" fill="white" transform="translate(330.524 -5.0451) rotate(-15)"/>
</clipPath>
<clipPath id="clip17_1722_47977">
<rect width="25" height="25" fill="white" transform="translate(373.991 -16.692) rotate(-15)"/>
</clipPath>
<clipPath id="clip18_1722_47977">
<rect width="25" height="25" fill="white" transform="translate(-5.5625 131.596) rotate(-15)"/>
</clipPath>
<clipPath id="clip19_1722_47977">
<rect width="25" height="25" fill="white" transform="translate(37.9043 119.95) rotate(-15)"/>
</clipPath>
<clipPath id="clip20_1722_47977">
<rect width="25" height="25" fill="white" transform="translate(81.3711 108.303) rotate(-15)"/>
</clipPath>
<clipPath id="clip21_1722_47977">
<rect width="25" height="25" fill="white" transform="translate(124.838 96.6558) rotate(-15)"/>
</clipPath>
<clipPath id="clip22_1722_47977">
<rect width="25" height="25" fill="white" transform="translate(168.304 85.009) rotate(-15)"/>
</clipPath>
<clipPath id="clip23_1722_47977">
<rect width="25" height="25" fill="white" transform="translate(211.771 73.3621) rotate(-15)"/>
</clipPath>
<clipPath id="clip24_1722_47977">
<rect width="25" height="25" fill="white" transform="translate(255.237 61.7152) rotate(-15)"/>
</clipPath>
<clipPath id="clip25_1722_47977">
<rect width="25" height="25" fill="white" transform="translate(298.704 50.0684) rotate(-15)"/>
</clipPath>
<clipPath id="clip26_1722_47977">
<rect width="25" height="25" fill="white" transform="translate(342.171 38.4215) rotate(-15)"/>
</clipPath>
<clipPath id="clip27_1722_47977">
<rect width="25" height="25" fill="white" transform="translate(385.638 26.7747) rotate(-15)"/>
</clipPath>
<clipPath id="clip28_1722_47977">
<rect width="25" height="25" fill="white" transform="translate(49.5518 163.416) rotate(-15)"/>
</clipPath>
<clipPath id="clip29_1722_47977">
<rect width="25" height="25" fill="white" transform="translate(93.0186 151.769) rotate(-15)"/>
</clipPath>
<clipPath id="clip30_1722_47977">
<rect width="25" height="25" fill="white" transform="translate(136.485 140.122) rotate(-15)"/>
</clipPath>
<clipPath id="clip31_1722_47977">
<rect width="25" height="25" fill="white" transform="translate(179.951 128.476) rotate(-15)"/>
</clipPath>
<clipPath id="clip32_1722_47977">
<rect width="25" height="25" fill="white" transform="translate(223.418 116.829) rotate(-15)"/>
</clipPath>
<clipPath id="clip33_1722_47977">
<rect width="25" height="25" fill="white" transform="translate(266.885 105.182) rotate(-15)"/>
</clipPath>
<clipPath id="clip34_1722_47977">
<rect width="25" height="25" fill="white" transform="translate(310.352 93.535) rotate(-15)"/>
</clipPath>
<clipPath id="clip35_1722_47977">
<rect width="25" height="25" fill="white" transform="translate(353.818 81.8882) rotate(-15)"/>
</clipPath>
<clipPath id="clip36_1722_47977">
<rect width="25" height="25" fill="white" transform="translate(235.064 160.295) rotate(-15)"/>
</clipPath>
<clipPath id="clip37_1722_47977">
<rect width="25" height="25" fill="white" transform="translate(278.531 148.649) rotate(-15)"/>
</clipPath>
<clipPath id="clip38_1722_47977">
<rect width="25" height="25" fill="white" transform="translate(321.998 137.002) rotate(-15)"/>
</clipPath>
<clipPath id="clip39_1722_47977">
<rect width="25" height="25" fill="white" transform="translate(365.465 125.355) rotate(-15)"/>
</clipPath>
</defs>
</svg>
