<svg width="396" height="161" viewBox="0 0 396 161" fill="none" xmlns="http://www.w3.org/2000/svg">
<g clip-path="url(#clip0_1722_47601)">
<path d="M-1.39721 -9.82555L-10.5456 -7.37426C-10.3732 -6.61931 -10.7771 -6.01813 -11.4574 -5.83584L-13.7515 -5.22115C-14.4567 -5.03219 -15.174 -5.54648 -15.3114 -6.09725L-24.3379 -3.6786C-24.67 -3.58963 -24.8689 -3.24517 -24.7799 -2.91314L-24.6181 -2.30943C-24.2623 -0.981285 -22.8844 -0.18579 -21.5563 -0.541666L-2.23775 -5.71805C-0.909601 -6.07392 -0.114106 -7.45176 -0.469982 -8.77991L-0.631744 -9.38361C-0.720713 -9.71565 -1.06517 -9.91452 -1.39721 -9.82555ZM-6.92884 -23.2255C-7.19575 -24.2216 -8.22913 -24.8182 -9.22524 -24.5513L-24.9215 -20.3455C-25.9176 -20.0786 -26.5143 -19.0452 -26.2474 -18.0491L-22.8504 -5.3713L-3.53184 -10.5477L-6.92884 -23.2255ZM-6.59371 -12.3154L-21.0826 -8.43316L-23.6708 -18.0924L-9.1819 -21.9747L-6.59371 -12.3154Z" fill="black" fill-opacity="0.1"/>
</g>
<g clip-path="url(#clip1_1722_47601)">
<path d="M6.6742 19.8437L-5.51846 18.5576C-5.89445 18.5209 -6.271 18.6218 -6.57824 18.8416L-16.4948 26.0518C-16.6242 26.1443 -16.7222 26.2741 -16.7759 26.4238C-16.8295 26.5735 -16.8362 26.7359 -16.7951 26.8895L-16.3286 28.6304C-16.2169 29.0473 -15.7887 29.2945 -15.3718 29.1828L7.2671 23.1167C7.68403 23.005 7.93125 22.5768 7.81953 22.1599L7.35307 20.4191C7.26878 20.1045 6.99807 19.8752 6.6742 19.8437ZM-12.7035 30.0855L-10.6815 37.6318L-11.4361 37.834C-11.853 37.9457 -12.1002 38.3739 -11.9885 38.7908L-11.3819 41.0547L9.74771 35.393L9.1411 33.1291C9.02939 32.7122 8.6012 32.465 8.18427 32.5767L7.42964 32.7789L5.40762 25.2326L2.3891 26.0414L4.41112 33.5877L-0.116654 34.8009L-2.13868 27.2546L-5.1572 28.0634L-3.13517 35.6097L-7.66295 36.8229L-9.68497 29.2766L-12.7035 30.0855ZM10.9067 36.7001L-11.7321 42.7661C-12.1491 42.8779 -12.3963 43.306 -12.2846 43.723L-11.8802 45.2322C-11.7684 45.6492 -11.3403 45.8964 -10.9233 45.7847L11.7156 39.7186C12.1325 39.6069 12.3797 39.1787 12.268 38.7618L11.8636 37.2525C11.7519 36.8356 11.3237 36.5883 10.9067 36.7001Z" fill="black" fill-opacity="0.1"/>
</g>
<g clip-path="url(#clip2_1722_47601)">
<path d="M39.0221 22.6963L39.0213 22.6965C38.8577 22.086 38.9836 22.3535 33.9772 16.7077C32.9544 15.5546 31.0468 16.0629 30.7372 17.5759C29.2118 25.0317 29.2051 24.693 29.3636 25.2843L29.3628 25.2845C29.8095 26.9514 32.334 27.7236 35.0013 27.0089C37.6685 26.2942 39.4687 24.3633 39.0221 22.6963ZM32.5748 17.9533L36.7474 22.6587L31.314 24.1146L32.5748 17.9533ZM53.5102 18.8142C53.3466 18.2037 53.4725 18.4712 48.4661 12.8254C47.4433 11.6723 45.5357 12.1806 45.2261 13.6936C43.7007 21.1495 43.694 20.8107 43.8525 21.402L43.8517 21.4022C44.2984 23.0692 46.8229 23.8413 49.4901 23.1266C52.1574 22.4119 53.9576 20.481 53.511 18.814L53.5102 18.8142ZM45.8029 20.2323L47.0637 14.071L51.2362 18.7765L45.8029 20.2323ZM50.4174 24.1722L43.7766 25.9516L40.7967 14.8303C41.5797 14.2043 42.0314 13.2264 41.9682 12.2011L46.8586 10.8908C47.1922 10.8014 47.3899 10.4588 47.3006 10.1253L46.977 8.9179C46.8877 8.58435 46.5451 8.38658 46.2116 8.47595L40.7646 9.93545C40.0184 9.35409 39.0243 9.10768 38.0399 9.37145C37.0555 9.63522 36.3177 10.3457 35.9622 11.2223L30.5153 12.6818C30.1817 12.7711 29.984 13.1137 30.0733 13.4472L30.3969 14.6546C30.4862 14.9882 30.8288 15.186 31.1623 15.0966L36.0527 13.7862C36.5105 14.7053 37.3904 15.3269 38.3819 15.4773L41.3618 26.5987L34.7211 28.3781C34.3875 28.4674 34.1898 28.81 34.2791 29.1435L34.6027 30.3509C34.692 30.6845 35.0346 30.8822 35.3681 30.7929L51.0644 26.5871C51.398 26.4977 51.5957 26.1551 51.5064 25.8216L51.1828 24.6142C51.0935 24.2806 50.7509 24.0829 50.4174 24.1722Z" fill="black" fill-opacity="0.1"/>
</g>
<g clip-path="url(#clip3_1722_47601)">
<path d="M97.1829 10.3474L88.0345 12.7987C88.2069 13.5536 87.803 14.1548 87.1227 14.3371L84.8286 14.9518C84.1234 15.1408 83.4061 14.6265 83.2686 14.0757L74.2421 16.4943C73.9101 16.5833 73.7112 16.9278 73.8002 17.2598L73.962 17.8635C74.3178 19.1917 75.6957 19.9872 77.0238 19.6313L96.3423 14.4549C97.6705 14.099 98.466 12.7212 98.1101 11.393L97.9483 10.7893C97.8594 10.4573 97.5149 10.2584 97.1829 10.3474ZM91.6512 -3.05251C91.3843 -4.04862 90.3509 -4.64524 89.3548 -4.37833L73.6585 -0.172525C72.6624 0.0943822 72.0658 1.12776 72.3327 2.12387L75.7297 14.8016L95.0482 9.62527L91.6512 -3.05251ZM91.9864 7.8575L77.4975 11.7398L74.9093 2.08053L89.3982 -1.80176L91.9864 7.8575Z" fill="black" fill-opacity="0.1"/>
</g>
<g clip-path="url(#clip4_1722_47601)">
<path d="M123.282 -5.1386L130.828 -7.16063C131.245 -7.27234 131.492 -7.70052 131.38 -8.11746L131.178 -8.87209C131.066 -9.28902 130.638 -9.53623 130.221 -9.42451L122.675 -7.40249C122.258 -7.29077 122.011 -6.86259 122.123 -6.44566L122.325 -5.69103C122.437 -5.2741 122.865 -5.02689 123.282 -5.1386ZM123.538 -1.16325C123.65 -0.746319 124.078 -0.499108 124.495 -0.610825L132.041 -2.63285C132.458 -2.74457 132.705 -3.17275 132.594 -3.58968L132.391 -4.34431C132.28 -4.76124 131.852 -5.00845 131.435 -4.89674L123.888 -2.87471C123.471 -2.763 123.224 -2.33481 123.336 -1.91788L123.538 -1.16325ZM129.597 3.33655C128.822 3.54406 127.984 3.51292 127.195 3.21232L115.421 -1.27023L118.115 8.78238C118.45 10.0327 119.735 10.7747 120.985 10.4397L140.606 5.1824C141.856 4.84738 142.598 3.56223 142.263 2.31191L139.569 -7.7407L131.615 2.02792C131.081 2.68241 130.371 3.12904 129.597 3.33655ZM137.591 -11.6545C137.086 -11.87 136.608 -12.0719 135.906 -12.3561L135.348 -14.438C135.013 -15.6883 133.728 -16.4303 132.478 -16.0952L128.82 -15.1152C128.649 -15.1805 128.49 -15.2419 128.311 -15.3104C127.363 -15.6766 125.415 -16.6468 124.325 -16.3371C123.226 -16.0604 122.025 -14.2462 121.386 -13.4549C121.266 -13.3064 121.159 -13.1734 121.043 -13.0313L117.385 -12.0512C116.135 -11.7162 115.393 -10.431 115.728 -9.1807L116.286 -7.09887C115.82 -6.5025 115.507 -6.08802 115.178 -5.64885C114.964 -5.36472 114.818 -5.03577 114.751 -4.68689C114.683 -4.338 114.696 -3.97832 114.788 -3.63505L114.922 -3.13275L120.326 -1.07511L117.992 -9.78731L133.085 -13.8314L135.419 -5.11916L139.07 -9.60322L138.936 -10.1055C138.75 -10.8007 138.254 -11.372 137.591 -11.6545Z" fill="black" fill-opacity="0.1"/>
</g>
<g clip-path="url(#clip5_1722_47601)">
<path d="M21.8967 77.1078L12.7484 79.5591C12.9207 80.314 12.5169 80.9152 11.8366 81.0975L9.54248 81.7122C8.83728 81.9011 8.11997 81.3868 7.9825 80.8361L-1.044 83.2547C-1.37604 83.3437 -1.57491 83.6881 -1.48594 84.0202L-1.32418 84.6239C-0.968306 85.952 0.409532 86.7475 1.73768 86.3917L21.0562 81.2153C22.3843 80.8594 23.1798 79.4816 22.824 78.1534L22.6622 77.5497C22.5732 77.2177 22.2288 77.0188 21.8967 77.1078ZM16.3651 63.7079C16.0982 62.7118 15.0648 62.1151 14.0687 62.382L-1.62759 66.5879C-2.6237 66.8548 -3.22032 67.8881 -2.95342 68.8842L0.443585 81.562L19.7621 76.3856L16.3651 63.7079ZM16.7002 74.6179L2.21135 78.5002L-0.376839 68.8409L14.112 64.9586L16.7002 74.6179Z" fill="black" fill-opacity="0.1"/>
</g>
<g clip-path="url(#clip6_1722_47601)">
<path d="M47.9965 61.6218L55.5428 59.5998C55.9597 59.488 56.207 59.0599 56.0952 58.6429L55.893 57.8883C55.7813 57.4714 55.3531 57.2241 54.9362 57.3359L47.3899 59.3579C46.973 59.4696 46.7258 59.8978 46.8375 60.3147L47.0397 61.0693C47.1514 61.4863 47.5796 61.7335 47.9965 61.6218ZM48.2529 65.5971C48.3646 66.0141 48.7928 66.2613 49.2097 66.1496L56.756 64.1275C57.173 64.0158 57.4202 63.5876 57.3085 63.1707L57.1063 62.4161C56.9945 61.9991 56.5664 61.7519 56.1494 61.8636L48.6031 63.8857C48.1862 63.9974 47.939 64.4256 48.0507 64.8425L48.2529 65.5971ZM54.3115 70.0969C53.537 70.3044 52.6987 70.2733 51.9094 69.9727L40.1361 65.4901L42.8297 75.5428C43.1648 76.7931 44.4499 77.5351 45.7002 77.2L65.3206 71.9428C66.5709 71.6078 67.3129 70.3226 66.9779 69.0723L64.2843 59.0197L56.3296 68.7883C55.7963 69.4428 55.0859 69.8894 54.3115 70.0969ZM62.306 55.1059C61.8008 54.8904 61.3226 54.6884 60.6212 54.4042L60.0633 52.3224C59.7283 51.0721 58.4432 50.3301 57.1928 50.6651L53.5352 51.6452C53.3641 51.5798 53.2045 51.5184 53.026 51.45C52.0781 51.0838 50.1297 50.1136 49.0399 50.4233C47.9413 50.6999 46.7395 52.5142 46.1013 53.3055C45.9809 53.454 45.8734 53.5869 45.7578 53.7291L42.1002 54.7092C40.8499 55.0442 40.1079 56.3293 40.443 57.5797L41.0008 59.6615C40.5353 60.2579 40.2222 60.6724 39.8925 61.1115C39.6791 61.3957 39.533 61.7246 39.4655 62.0735C39.3979 62.4224 39.4106 62.7821 39.5025 63.1253L39.6371 63.6276L45.0413 65.6853L42.7069 56.9731L57.7994 52.929L60.1339 61.6412L63.7852 57.1572L63.6506 56.6549C63.4644 55.9597 62.9685 55.3883 62.306 55.1059Z" fill="black" fill-opacity="0.1"/>
</g>
<g clip-path="url(#clip7_1722_47601)">
<path d="M82.3467 43.1165L88.0083 64.2461L109.138 58.5844L103.476 37.4548L82.3467 43.1165ZM101.384 54.4545L98.1422 59.807L92.6586 56.7925L93.3753 47.2991L89.2388 44.0298L97.9595 41.6931L96.0165 46.5914L101.384 54.4545Z" fill="black" fill-opacity="0.1"/>
</g>
<g clip-path="url(#clip8_1722_47601)">
<path d="M148.721 28.3698L136.528 27.0837C136.152 27.047 135.776 27.1479 135.469 27.3677L125.552 34.5779C125.423 34.6704 125.325 34.8001 125.271 34.9498C125.217 35.0995 125.211 35.262 125.252 35.4156L125.718 37.1564C125.83 37.5734 126.258 37.8206 126.675 37.7089L149.314 31.6428C149.731 31.5311 149.978 31.1029 149.866 30.686L149.4 28.9451C149.316 28.6305 149.045 28.4013 148.721 28.3698ZM129.343 38.6115L131.365 46.1578L130.611 46.36C130.194 46.4717 129.947 46.8999 130.058 47.3168L130.665 49.5807L151.795 43.9191L151.188 41.6552C151.076 41.2383 150.648 40.991 150.231 41.1028L149.477 41.305L147.454 33.7587L144.436 34.5675L146.458 42.1138L141.93 43.327L139.908 35.7807L136.89 36.5895L138.912 44.1358L134.384 45.349L132.362 37.8027L129.343 38.6115ZM152.954 45.2261L130.315 51.2922C129.898 51.4039 129.651 51.8321 129.762 52.249L130.167 53.7583C130.278 54.1752 130.707 54.4224 131.124 54.3107L153.762 48.2446C154.179 48.1329 154.427 47.7047 154.315 47.2878L153.91 45.7786C153.799 45.3616 153.371 45.1144 152.954 45.2261Z" fill="black" fill-opacity="0.1"/>
</g>
<g clip-path="url(#clip9_1722_47601)">
<path d="M195.763 30.5203L186.615 32.9716C186.787 33.7266 186.383 34.3278 185.703 34.51L183.409 35.1247C182.703 35.3137 181.986 34.7994 181.849 34.2486L172.822 36.6673C172.49 36.7563 172.291 37.1007 172.38 37.4327L172.542 38.0365C172.898 39.3646 174.276 40.1601 175.604 39.8042L194.922 34.6278C196.251 34.272 197.046 32.8941 196.69 31.566L196.528 30.9623C196.439 30.6302 196.095 30.4314 195.763 30.5203ZM190.231 17.1204C189.964 16.1243 188.931 15.5277 187.935 15.7946L172.239 20.0004C171.243 20.2673 170.646 21.3007 170.913 22.2968L174.31 34.9746L193.628 29.7982L190.231 17.1204ZM190.566 28.0304L176.078 31.9127L173.489 22.2535L187.978 18.3712L190.566 28.0304Z" fill="black" fill-opacity="0.1"/>
</g>
<g clip-path="url(#clip10_1722_47601)">
<path d="M212.746 8.17593L218.408 29.3056L239.537 23.6439L233.876 2.51427L212.746 8.17593ZM231.783 19.514L228.542 24.8664L223.058 21.8519L223.775 12.3586L219.638 9.08926L228.359 6.75256L226.416 11.6509L231.783 19.514Z" fill="black" fill-opacity="0.1"/>
</g>
<g clip-path="url(#clip11_1722_47601)">
<path d="M279.121 -6.57077L266.929 -7.85685C266.553 -7.8936 266.176 -7.7927 265.869 -7.57288L255.952 -0.362647C255.823 -0.27016 255.725 -0.140407 255.671 0.00927867C255.618 0.158965 255.611 0.321458 255.652 0.475053L256.119 2.21589C256.23 2.63282 256.659 2.88003 257.075 2.76832L279.714 -3.29775C280.131 -3.40947 280.379 -3.83765 280.267 -4.25459L279.8 -5.99542C279.716 -6.31001 279.445 -6.53926 279.121 -6.57077ZM259.744 3.67097L261.766 11.2173L261.011 11.4195C260.594 11.5312 260.347 11.9594 260.459 12.3763L261.065 14.6402L282.195 8.97852L281.588 6.71463C281.477 6.2977 281.048 6.05049 280.632 6.1622L279.877 6.36441L277.855 -1.18189L274.836 -0.37308L276.858 7.17322L272.331 8.38643L270.309 0.840135L267.29 1.64894L269.312 9.19524L264.784 10.4085L262.762 2.86216L259.744 3.67097ZM283.354 10.2856L260.715 16.3516C260.298 16.4634 260.051 16.8915 260.163 17.3085L260.567 18.8177C260.679 19.2347 261.107 19.4819 261.524 19.3702L284.163 13.3041C284.58 13.1924 284.827 12.7642 284.715 12.3473L284.311 10.838C284.199 10.4211 283.771 10.1739 283.354 10.2856Z" fill="black" fill-opacity="0.1"/>
</g>
<g clip-path="url(#clip12_1722_47601)">
<path d="M311.469 -3.71821L311.469 -3.71801C311.305 -4.32851 311.431 -4.06096 306.424 -9.70679C305.402 -10.8599 303.494 -10.3516 303.184 -8.83863C301.659 -1.38275 301.652 -1.72148 301.811 -1.13023L301.81 -1.13002C302.257 0.536953 304.781 1.30908 307.449 0.594399C310.116 -0.120285 311.916 -2.05124 311.469 -3.71821ZM305.022 -8.46116L309.195 -3.75575L303.761 -2.29989L305.022 -8.46116ZM325.957 -7.6003C325.794 -8.21079 325.92 -7.94324 320.913 -13.5891C319.891 -14.7422 317.983 -14.2338 317.673 -12.7209C316.148 -5.26504 316.141 -5.60376 316.3 -5.01251L316.299 -5.01231C316.746 -3.34533 319.27 -2.5732 321.937 -3.28789C324.605 -4.00257 326.405 -5.93352 325.958 -7.6005L325.957 -7.6003ZM318.25 -6.18218L319.511 -12.3434L323.684 -7.63804L318.25 -6.18218ZM322.865 -2.24224L316.224 -0.46286L313.244 -11.5842C314.027 -12.2102 314.479 -13.1881 314.416 -14.2133L319.306 -15.5237C319.639 -15.6131 319.837 -15.9556 319.748 -16.2892L319.424 -17.4966C319.335 -17.8301 318.992 -18.0279 318.659 -17.9385L313.212 -16.479C312.466 -17.0604 311.472 -17.3068 310.487 -17.043C309.503 -16.7793 308.765 -16.0688 308.409 -15.1922L302.963 -13.7327C302.629 -13.6434 302.431 -13.3008 302.521 -12.9673L302.844 -11.7599C302.933 -11.4263 303.276 -11.2285 303.61 -11.3179L308.5 -12.6283C308.958 -11.7092 309.838 -11.0876 310.829 -10.9372L313.809 0.184187L307.168 1.96357C306.835 2.05294 306.637 2.39549 306.726 2.72903L307.05 3.93644C307.139 4.26999 307.482 4.46776 307.815 4.37838L323.512 0.172573C323.845 0.0831998 324.043 -0.259346 323.954 -0.592892L323.63 -1.8003C323.541 -2.13385 323.198 -2.33161 322.865 -2.24224Z" fill="black" fill-opacity="0.1"/>
</g>
<g clip-path="url(#clip13_1722_47601)">
<path d="M29.9681 106.777L17.7755 105.491C17.3995 105.454 17.0229 105.555 16.7157 105.775L6.79913 112.985C6.66978 113.078 6.57173 113.207 6.51808 113.357C6.46443 113.507 6.45773 113.669 6.49887 113.823L6.96533 115.564C7.07705 115.981 7.50523 116.228 7.92216 116.116L30.561 110.05C30.978 109.938 31.2252 109.51 31.1135 109.093L30.647 107.352C30.5627 107.038 30.292 106.809 29.9681 106.777ZM10.5905 117.019L12.6125 124.565L11.8578 124.767C11.4409 124.879 11.1937 125.307 11.3054 125.724L11.912 127.988L33.0417 122.326L32.435 120.062C32.3233 119.646 31.8951 119.398 31.4782 119.51L30.7236 119.712L28.7016 112.166L25.683 112.975L27.7051 120.521L23.1773 121.734L21.1553 114.188L18.1367 114.997L20.1588 122.543L15.631 123.756L13.609 116.21L10.5905 117.019ZM34.2007 123.633L11.5618 129.699C11.1449 129.811 10.8977 130.239 11.0094 130.656L11.4138 132.166C11.5255 132.582 11.9537 132.83 12.3706 132.718L35.0095 126.652C35.4264 126.54 35.6736 126.112 35.5619 125.695L35.1575 124.186C35.0458 123.769 34.6176 123.522 34.2007 123.633Z" fill="black" fill-opacity="0.1"/>
</g>
<g clip-path="url(#clip14_1722_47601)">
<path d="M62.316 109.63L62.3153 109.63C62.1517 109.019 62.2776 109.287 57.2711 103.641C56.2484 102.488 54.3407 102.996 54.0311 104.509C52.5057 111.965 52.4991 111.626 52.6575 112.218L52.6568 112.218C53.1034 113.885 55.628 114.657 58.2952 113.942C60.9624 113.228 62.7627 111.297 62.316 109.63ZM55.8688 104.887L60.0413 109.592L54.608 111.048L55.8688 104.887ZM76.8042 105.748C76.6406 105.137 76.7665 105.405 71.76 99.7587C70.7373 98.6056 68.8296 99.114 68.52 100.627C66.9946 108.083 66.988 107.744 67.1464 108.335L67.1457 108.335C67.5923 110.002 70.1169 110.775 72.7841 110.06C75.4513 109.345 77.2516 107.414 76.8049 105.747L76.8042 105.748ZM69.0969 107.166L70.3577 101.004L74.5302 105.71L69.0969 107.166ZM73.7113 111.106L67.0706 112.885L64.0906 101.764C64.8737 101.138 65.3254 100.16 65.2622 99.1345L70.1526 97.8241C70.4861 97.7347 70.6839 97.3922 70.5945 97.0586L70.271 95.8512C70.1816 95.5177 69.8391 95.3199 69.5055 95.4093L64.0586 96.8688C63.3124 96.2874 62.3183 96.041 61.3338 96.3048C60.3494 96.5685 59.6117 97.279 59.2561 98.1556L53.8092 99.6151C53.4757 99.7045 53.2779 100.047 53.3673 100.381L53.6908 101.588C53.7802 101.922 54.1227 102.119 54.4563 102.03L59.3466 100.72C59.8044 101.639 60.6843 102.26 61.6758 102.411L64.6558 113.532L58.015 115.311C57.6815 115.401 57.4837 115.743 57.5731 116.077L57.8966 117.284C57.986 117.618 58.3285 117.816 58.6621 117.726L74.3584 113.52C74.6919 113.431 74.8897 113.088 74.8003 112.755L74.4768 111.548C74.3874 111.214 74.0449 111.016 73.7113 111.106Z" fill="black" fill-opacity="0.1"/>
</g>
<g clip-path="url(#clip15_1722_47601)">
<path d="M120.477 97.2807L111.328 99.732C111.501 100.487 111.097 101.088 110.417 101.27L108.123 101.885C107.417 102.074 106.7 101.56 106.563 101.009L97.5361 103.428C97.204 103.517 97.0052 103.861 97.0941 104.193L97.2559 104.797C97.6118 106.125 98.9896 106.92 100.318 106.565L119.636 101.388C120.964 101.032 121.76 99.6545 121.404 98.3264L121.242 97.7226C121.153 97.3906 120.809 97.1917 120.477 97.2807ZM114.945 83.8808C114.678 82.8847 113.645 82.2881 112.649 82.555L96.9525 86.7608C95.9564 87.0277 95.3598 88.0611 95.6267 89.0572L99.0237 101.735L118.342 96.5586L114.945 83.8808ZM115.28 94.7908L100.791 98.6731L98.2032 89.0138L112.692 85.1316L115.28 94.7908Z" fill="black" fill-opacity="0.1"/>
</g>
<g clip-path="url(#clip16_1722_47601)">
<path d="M146.576 81.7947L154.122 79.7727C154.539 79.661 154.786 79.2328 154.674 78.8159L154.472 78.0612C154.36 77.6443 153.932 77.3971 153.515 77.5088L145.969 79.5308C145.552 79.6425 145.305 80.0707 145.417 80.4877L145.619 81.2423C145.731 81.6592 146.159 81.9064 146.576 81.7947ZM146.832 85.7701C146.944 86.187 147.372 86.4342 147.789 86.3225L155.335 84.3005C155.752 84.1888 155.999 83.7606 155.888 83.3436L155.685 82.589C155.574 82.1721 155.145 81.9249 154.729 82.0366L147.182 84.0586C146.765 84.1703 146.518 84.5985 146.63 85.0154L146.832 85.7701ZM152.891 90.2699C152.116 90.4774 151.278 90.4462 150.488 90.1456L138.715 85.6631L141.409 95.7157C141.744 96.966 143.029 97.708 144.279 97.373L163.9 92.1157C165.15 91.7807 165.892 90.4956 165.557 89.2452L162.863 79.1926L154.909 88.9612C154.375 89.6157 153.665 90.0624 152.891 90.2699ZM160.885 75.2788C160.38 75.0633 159.902 74.8614 159.2 74.5772L158.642 72.4954C158.307 71.245 157.022 70.503 155.772 70.8381L152.114 71.8181C151.943 71.7528 151.784 71.6914 151.605 71.623C150.657 71.2567 148.709 70.2865 147.619 70.5962C146.52 70.8729 145.319 72.6872 144.68 73.4784C144.56 73.627 144.453 73.7599 144.337 73.9021L140.679 74.8821C139.429 75.2171 138.687 76.5023 139.022 77.7526L139.58 79.8344C139.114 80.4308 138.801 80.8453 138.472 81.2845C138.258 81.5686 138.112 81.8975 138.045 82.2464C137.977 82.5953 137.99 82.955 138.082 83.2983L138.216 83.8006L143.62 85.8582L141.286 77.146L156.379 73.102L158.713 81.8142L162.364 77.3301L162.23 76.8278C162.043 76.1326 161.548 75.5613 160.885 75.2788Z" fill="black" fill-opacity="0.1"/>
</g>
<g clip-path="url(#clip17_1722_47601)">
<path d="M207.409 73.987L198.261 76.4383C198.433 77.1932 198.03 77.7944 197.349 77.9767L195.055 78.5914C194.35 78.7804 193.633 78.2661 193.495 77.7153L184.469 80.134C184.137 80.2229 183.938 80.5674 184.027 80.8994L184.189 81.5031C184.544 82.8313 185.922 83.6268 187.25 83.2709L206.569 78.0945C207.897 77.7386 208.693 76.3608 208.337 75.0327L208.175 74.4289C208.086 74.0969 207.741 73.898 207.409 73.987ZM201.878 60.5871C201.611 59.591 200.578 58.9944 199.581 59.2613L183.885 63.4671C182.889 63.734 182.292 64.7674 182.559 65.7635L185.956 78.4413L205.275 73.2649L201.878 60.5871ZM202.213 71.4971L187.724 75.3794L185.136 65.7201L199.625 61.8379L202.213 71.4971Z" fill="black" fill-opacity="0.1"/>
</g>
<g clip-path="url(#clip18_1722_47601)">
<path d="M236.182 63.0422L236.181 63.0424C236.018 62.4319 236.144 62.6994 231.137 57.0536C230.115 55.9005 228.207 56.4088 227.897 57.9217C226.372 65.3776 226.365 65.0389 226.524 65.6301L226.523 65.6304C226.97 67.2973 229.494 68.0695 232.161 67.3548C234.829 66.6401 236.629 64.7091 236.182 63.0422ZM229.735 58.2992L233.908 63.0046L228.474 64.4605L229.735 58.2992ZM250.67 59.1601C250.507 58.5496 250.633 58.8171 245.626 53.1713C244.603 52.0182 242.696 52.5265 242.386 54.0395C240.861 61.4953 240.854 61.1566 241.013 61.7479L241.012 61.7481C241.459 63.415 243.983 64.1872 246.65 63.4725C249.318 62.7578 251.118 60.8269 250.671 59.1599L250.67 59.1601ZM242.963 60.5782L244.224 54.4169L248.396 59.1223L242.963 60.5782ZM247.578 64.5181L240.937 66.2975L237.957 55.1762C238.74 54.5502 239.192 53.5722 239.128 52.547L244.019 51.2367C244.352 51.1473 244.55 50.8047 244.461 50.4712L244.137 49.2638C244.048 48.9302 243.705 48.7325 243.372 48.8218L237.925 50.2813C237.179 49.7 236.184 49.4536 235.2 49.7173C234.216 49.9811 233.478 50.6916 233.122 51.5682L227.675 53.0276C227.342 53.117 227.144 53.4596 227.233 53.7931L227.557 55.0005C227.646 55.3341 227.989 55.5318 228.322 55.4425L233.213 54.1321C233.671 55.0512 234.551 55.6727 235.542 55.8232L238.522 66.9446L231.881 68.7239C231.548 68.8133 231.35 69.1559 231.439 69.4894L231.763 70.6968C231.852 71.0304 232.195 71.2281 232.528 71.1388L248.225 66.9329C248.558 66.8436 248.756 66.501 248.667 66.1675L248.343 64.9601C248.254 64.6265 247.911 64.4288 247.578 64.5181Z" fill="black" fill-opacity="0.1"/>
</g>
<g clip-path="url(#clip19_1722_47601)">
<path d="M294.343 50.6933L285.195 53.1446C285.367 53.8995 284.963 54.5007 284.283 54.683L281.989 55.2977C281.284 55.4867 280.566 54.9724 280.429 54.4216L271.402 56.8403C271.07 56.9292 270.871 57.2737 270.96 57.6057L271.122 58.2094C271.478 59.5376 272.856 60.3331 274.184 59.9772L293.502 54.8008C294.831 54.4449 295.626 53.0671 295.27 51.739L295.108 51.1352C295.02 50.8032 294.675 50.6043 294.343 50.6933ZM288.811 37.2934C288.544 36.2973 287.511 35.7007 286.515 35.9676L270.819 40.1734C269.823 40.4403 269.226 41.4737 269.493 42.4698L272.89 55.1476L292.208 49.9712L288.811 37.2934ZM289.147 48.2034L274.658 52.0857L272.069 42.4264L286.558 38.5442L289.147 48.2034Z" fill="black" fill-opacity="0.1"/>
</g>
<g clip-path="url(#clip20_1722_47601)">
<path d="M320.443 35.2073L327.989 33.1853C328.406 33.0736 328.653 32.6454 328.542 32.2285L328.339 31.4738C328.228 31.0569 327.799 30.8097 327.382 30.9214L319.836 32.9434C319.419 33.0551 319.172 33.4833 319.284 33.9003L319.486 34.6549C319.598 35.0718 320.026 35.319 320.443 35.2073ZM320.699 39.1827C320.811 39.5996 321.239 39.8468 321.656 39.7351L329.202 37.7131C329.619 37.6014 329.866 37.1732 329.755 36.7562L329.553 36.0016C329.441 35.5847 329.013 35.3375 328.596 35.4492L321.049 37.4712C320.632 37.5829 320.385 38.0111 320.497 38.428L320.699 39.1827ZM326.758 43.6825C325.983 43.89 325.145 43.8588 324.356 43.5582L312.582 39.0757L315.276 49.1283C315.611 50.3786 316.896 51.1206 318.147 50.7856L337.767 45.5283C339.017 45.1933 339.759 43.9081 339.424 42.6578L336.731 32.6052L328.776 42.3738C328.243 43.0283 327.532 43.475 326.758 43.6825ZM334.752 28.6914C334.247 28.4759 333.769 28.274 333.067 27.9898L332.51 25.908C332.175 24.6576 330.889 23.9156 329.639 24.2507L325.982 25.2307C325.81 25.1654 325.651 25.104 325.472 25.0356C324.524 24.6693 322.576 23.6991 321.486 24.0088C320.388 24.2855 319.186 26.0998 318.548 26.891C318.427 27.0396 318.32 27.1725 318.204 27.3147L314.547 28.2947C313.296 28.6297 312.554 29.9149 312.889 31.1652L313.447 33.247C312.982 33.8434 312.669 34.2579 312.339 34.6971C312.125 34.9812 311.979 35.3101 311.912 35.659C311.844 36.0079 311.857 36.3676 311.949 36.7109L312.083 37.2132L317.488 39.2708L315.153 30.5586L330.246 26.5146L332.58 35.2268L336.232 30.7427L336.097 30.2404C335.911 29.5452 335.415 28.9739 334.752 28.6914Z" fill="black" fill-opacity="0.1"/>
</g>
<g clip-path="url(#clip21_1722_47601)">
<path d="M354.793 16.702L360.455 37.8317L381.584 32.17L375.923 11.0404L354.793 16.702ZM373.83 28.0401L370.589 33.3925L365.105 30.378L365.822 20.8847L361.685 17.6153L370.406 15.2786L368.463 20.1769L373.83 28.0401Z" fill="black" fill-opacity="0.1"/>
</g>
<g clip-path="url(#clip22_1722_47601)">
<path d="M-12.9711 176.39L-12.9718 176.39C-13.1354 175.78 -13.0095 176.047 -18.016 170.401C-19.0387 169.248 -20.9464 169.757 -21.256 171.27C-22.7814 178.725 -22.788 178.387 -22.6296 178.978L-22.6303 178.978C-22.1837 180.645 -19.6591 181.417 -16.9919 180.703C-14.3247 179.988 -12.5244 178.057 -12.9711 176.39ZM-19.4183 171.647L-15.2458 176.352L-20.6791 177.808L-19.4183 171.647ZM1.51705 172.508C1.35346 171.897 1.47934 172.165 -3.5271 166.519C-4.54985 165.366 -6.45751 165.874 -6.7671 167.387C-8.29248 174.843 -8.29913 174.504 -8.1407 175.096L-8.14146 175.096C-7.69479 176.763 -5.17026 177.535 -2.50302 176.82C0.16422 176.106 1.96447 174.175 1.5178 172.508L1.51705 172.508ZM-6.19026 173.926L-4.92945 167.765L-0.756923 172.47L-6.19026 173.926ZM-1.57579 177.866L-8.21653 179.645L-11.1965 168.524C-10.4135 167.898 -9.96173 166.92 -10.0249 165.895L-5.13455 164.584C-4.80101 164.495 -4.60324 164.153 -4.69261 163.819L-5.01613 162.612C-5.10551 162.278 -5.44805 162.08 -5.7816 162.17L-11.2285 163.629C-11.9747 163.048 -12.9689 162.801 -13.9533 163.065C-14.9377 163.329 -15.6754 164.039 -16.031 164.916L-21.4779 166.375C-21.8114 166.465 -22.0092 166.807 -21.9198 167.141L-21.5963 168.348C-21.5069 168.682 -21.1644 168.88 -20.8308 168.79L-15.9405 167.48C-15.4827 168.399 -14.6028 169.021 -13.6113 169.171L-10.6313 180.292L-17.2721 182.072C-17.6056 182.161 -17.8034 182.504 -17.714 182.837L-17.3905 184.045C-17.3011 184.378 -16.9586 184.576 -16.625 184.487L-0.928743 180.281C-0.595197 180.191 -0.397428 179.849 -0.486801 179.515L-0.810325 178.308C-0.899698 177.974 -1.24224 177.777 -1.57579 177.866Z" fill="black" fill-opacity="0.1"/>
</g>
<g clip-path="url(#clip23_1722_47601)">
<path d="M45.1897 164.041L36.0413 166.492C36.2137 167.247 35.8098 167.849 35.1295 168.031L32.8355 168.645C32.1303 168.834 31.4129 168.32 31.2755 167.769L22.249 170.188C21.9169 170.277 21.7181 170.621 21.807 170.954L21.9688 171.557C22.3247 172.885 23.7025 173.681 25.0306 173.325L44.3492 168.149C45.6773 167.793 46.4728 166.415 46.1169 165.087L45.9552 164.483C45.8662 164.151 45.5217 163.952 45.1897 164.041ZM39.6581 150.641C39.3912 149.645 38.3578 149.048 37.3617 149.315L21.6654 153.521C20.6693 153.788 20.0726 154.821 20.3396 155.818L23.7366 168.495L43.0551 163.319L39.6581 150.641ZM39.9932 161.551L25.5043 165.433L22.9161 155.774L37.405 151.892L39.9932 161.551Z" fill="black" fill-opacity="0.1"/>
</g>
<g clip-path="url(#clip24_1722_47601)">
<path d="M71.2895 148.555L78.8358 146.533C79.2527 146.421 79.4999 145.993 79.3882 145.576L79.186 144.822C79.0743 144.405 78.6461 144.157 78.2292 144.269L70.6829 146.291C70.2659 146.403 70.0187 146.831 70.1305 147.248L70.3327 148.003C70.4444 148.42 70.8726 148.667 71.2895 148.555ZM71.5459 152.53C71.6576 152.947 72.0858 153.195 72.5027 153.083L80.049 151.061C80.4659 150.949 80.7131 150.521 80.6014 150.104L80.3992 149.349C80.2875 148.932 79.8593 148.685 79.4424 148.797L71.8961 150.819C71.4792 150.931 71.2319 151.359 71.3437 151.776L71.5459 152.53ZM77.6044 157.03C76.83 157.238 75.9916 157.207 75.2024 156.906L63.4291 152.423L66.1227 162.476C66.4577 163.726 67.7429 164.468 68.9932 164.133L88.6136 158.876C89.8639 158.541 90.6059 157.256 90.2708 156.006L87.5773 145.953L79.6226 155.722C79.0892 156.376 78.3789 156.823 77.6044 157.03ZM85.5989 142.039C85.0938 141.824 84.6156 141.622 83.9141 141.338L83.3563 139.256C83.0213 138.005 81.7361 137.263 80.4858 137.598L76.8282 138.578C76.657 138.513 76.4975 138.452 76.3189 138.383C75.371 138.017 73.4227 137.047 72.3329 137.357C71.2343 137.633 70.0325 139.448 69.3943 140.239C69.2738 140.387 69.1664 140.52 69.0508 140.662L65.3932 141.642C64.1429 141.978 63.4009 143.263 63.7359 144.513L64.2938 146.595C63.8282 147.191 63.5152 147.606 63.1855 148.045C62.972 148.329 62.826 148.658 62.7584 149.007C62.6909 149.356 62.7035 149.715 62.7955 150.059L62.93 150.561L68.3342 152.619L65.9998 143.906L81.0924 139.862L83.4268 148.575L87.0782 144.09L86.9436 143.588C86.7573 142.893 86.2615 142.322 85.5989 142.039Z" fill="black" fill-opacity="0.1"/>
</g>
<g clip-path="url(#clip25_1722_47601)">
<path d="M105.64 130.05L111.301 151.179L132.431 145.518L126.769 124.388L105.64 130.05ZM124.677 141.388L121.435 146.74L115.952 143.726L116.668 134.232L112.532 130.963L121.252 128.626L119.309 133.525L124.677 141.388Z" fill="black" fill-opacity="0.1"/>
</g>
<g clip-path="url(#clip26_1722_47601)">
<path d="M172.014 115.303L159.821 114.017C159.445 113.98 159.069 114.081 158.762 114.301L148.845 121.511C148.716 121.604 148.618 121.733 148.564 121.883C148.51 122.033 148.504 122.195 148.545 122.349L149.011 124.09C149.123 124.507 149.551 124.754 149.968 124.642L172.607 118.576C173.024 118.464 173.271 118.036 173.159 117.619L172.693 115.878C172.609 115.564 172.338 115.335 172.014 115.303ZM152.636 125.545L154.658 133.091L153.904 133.293C153.487 133.405 153.24 133.833 153.351 134.25L153.958 136.514L175.088 130.852L174.481 128.589C174.369 128.172 173.941 127.924 173.524 128.036L172.769 128.238L170.747 120.692L167.729 121.501L169.751 129.047L165.223 130.26L163.201 122.714L160.183 123.523L162.205 131.069L157.677 132.282L155.655 124.736L152.636 125.545ZM176.247 132.159L153.608 138.226C153.191 138.337 152.944 138.765 153.055 139.182L153.46 140.692C153.571 141.109 154 141.356 154.417 141.244L177.055 135.178C177.472 135.066 177.72 134.638 177.608 134.221L177.203 132.712C177.092 132.295 176.664 132.048 176.247 132.159Z" fill="black" fill-opacity="0.1"/>
</g>
<g clip-path="url(#clip27_1722_47601)">
<path d="M219.056 117.454L209.908 119.905C210.08 120.66 209.676 121.261 208.996 121.443L206.702 122.058C205.996 122.247 205.279 121.733 205.142 121.182L196.115 123.601C195.783 123.69 195.584 124.034 195.673 124.366L195.835 124.97C196.191 126.298 197.569 127.093 198.897 126.738L218.215 121.561C219.544 121.205 220.339 119.827 219.983 118.499L219.821 117.896C219.732 117.564 219.388 117.365 219.056 117.454ZM213.524 104.054C213.257 103.058 212.224 102.461 211.228 102.728L195.532 106.934C194.535 107.201 193.939 108.234 194.206 109.23L197.603 121.908L216.921 116.732L213.524 104.054ZM213.859 114.964L199.371 118.846L196.782 109.187L211.271 105.305L213.859 114.964Z" fill="black" fill-opacity="0.1"/>
</g>
<g clip-path="url(#clip28_1722_47601)">
<path d="M236.039 95.1093L241.701 116.239L262.83 110.577L257.169 89.4476L236.039 95.1093ZM255.076 106.447L251.835 111.8L246.351 108.785L247.068 99.2919L242.931 96.0226L251.652 93.6859L249.709 98.5842L255.076 106.447Z" fill="black" fill-opacity="0.1"/>
</g>
<g clip-path="url(#clip29_1722_47601)">
<path d="M302.414 80.3626L290.222 79.0765C289.846 79.0397 289.469 79.1406 289.162 79.3604L279.245 86.5707C279.116 86.6632 279.018 86.7929 278.964 86.9426C278.911 87.0923 278.904 87.2548 278.945 87.4084L279.412 89.1492C279.523 89.5661 279.952 89.8134 280.368 89.7016L303.007 83.6356C303.424 83.5238 303.671 83.0957 303.56 82.6787L303.093 80.9379C303.009 80.6233 302.738 80.3941 302.414 80.3626ZM283.037 90.6043L285.059 98.1506L284.304 98.3528C283.887 98.4645 283.64 98.8927 283.752 99.3096L284.358 101.574L305.488 95.9118L304.881 93.648C304.77 93.231 304.341 92.9838 303.925 93.0955L303.17 93.2977L301.148 85.7514L298.129 86.5602L300.151 94.1065L295.624 95.3197L293.602 87.7735L290.583 88.5823L292.605 96.1286L288.077 97.3418L286.055 89.7955L283.037 90.6043ZM306.647 97.2189L284.008 103.285C283.591 103.397 283.344 103.825 283.456 104.242L283.86 105.751C283.972 106.168 284.4 106.415 284.817 106.303L307.456 100.237C307.873 100.126 308.12 99.6975 308.008 99.2806L307.604 97.7713C307.492 97.3544 307.064 97.1072 306.647 97.2189Z" fill="black" fill-opacity="0.1"/>
</g>
<g clip-path="url(#clip30_1722_47601)">
<path d="M334.762 83.2151L334.762 83.2153C334.598 82.6048 334.724 82.8724 329.717 77.2265C328.695 76.0734 326.787 76.5818 326.477 78.0947C324.952 85.5506 324.945 85.2118 325.104 85.8031L325.103 85.8033C325.55 87.4703 328.074 88.2424 330.741 87.5277C333.409 86.813 335.209 84.8821 334.762 83.2151ZM328.315 78.4722L332.488 83.1776L327.054 84.6334L328.315 78.4722ZM349.25 79.333C349.087 78.7225 349.213 78.9901 344.206 73.3442C343.184 72.1911 341.276 72.6995 340.966 74.2124C339.441 81.6683 339.434 81.3296 339.593 81.9208L339.592 81.921C340.039 83.588 342.563 84.3601 345.23 83.6454C347.898 82.9307 349.698 80.9998 349.251 79.3328L349.25 79.333ZM341.543 80.7511L342.804 74.5899L346.976 79.2953L341.543 80.7511ZM346.158 84.6911L339.517 86.4705L336.537 75.3491C337.32 74.7232 337.772 73.7452 337.708 72.72L342.599 71.4096C342.932 71.3202 343.13 70.9777 343.041 70.6441L342.717 69.4367C342.628 69.1032 342.285 68.9054 341.952 68.9948L336.505 70.4543C335.759 69.8729 334.765 69.6265 333.78 69.8903C332.796 70.1541 332.058 70.8645 331.702 71.7411L326.256 73.2006C325.922 73.29 325.724 73.6325 325.814 73.9661L326.137 75.1735C326.226 75.507 326.569 75.7048 326.903 75.6154L331.793 74.305C332.251 75.2241 333.131 75.8457 334.122 75.9962L337.102 87.1175L330.461 88.8969C330.128 88.9863 329.93 89.3288 330.019 89.6624L330.343 90.8698C330.432 91.2033 330.775 91.4011 331.108 91.3117L346.805 87.1059C347.138 87.0165 347.336 86.674 347.247 86.3404L346.923 85.133C346.834 84.7995 346.491 84.6017 346.158 84.6911Z" fill="black" fill-opacity="0.1"/>
</g>
<g clip-path="url(#clip31_1722_47601)">
<path d="M392.923 70.8662L383.775 73.3175C383.947 74.0725 383.543 74.6736 382.863 74.8559L380.569 75.4706C379.864 75.6596 379.146 75.1453 379.009 74.5945L369.982 77.0132C369.65 77.1021 369.451 77.4466 369.54 77.7786L369.702 78.3823C370.058 79.7105 371.436 80.506 372.764 80.1501L392.083 74.9737C393.411 74.6178 394.206 73.24 393.85 71.9119L393.689 71.3082C393.6 70.9761 393.255 70.7772 392.923 70.8662ZM387.391 57.4663C387.125 56.4702 386.091 55.8736 385.095 56.1405L369.399 60.3463C368.403 60.6132 367.806 61.6466 368.073 62.6427L371.47 75.3205L390.788 70.1441L387.391 57.4663ZM387.727 68.3763L373.238 72.2586L370.65 62.5994L385.138 58.7171L387.727 68.3763Z" fill="black" fill-opacity="0.1"/>
</g>
<g clip-path="url(#clip32_1722_47601)">
<path d="M169.87 168.728L177.416 166.706C177.833 166.594 178.08 166.166 177.968 165.749L177.766 164.995C177.654 164.578 177.226 164.33 176.809 164.442L169.263 166.464C168.846 166.576 168.599 167.004 168.711 167.421L168.913 168.176C169.024 168.593 169.453 168.84 169.87 168.728ZM170.126 172.703C170.238 173.12 170.666 173.368 171.083 173.256L178.629 171.234C179.046 171.122 179.293 170.694 179.182 170.277L178.979 169.522C178.868 169.105 178.439 168.858 178.022 168.97L170.476 170.992C170.059 171.104 169.812 171.532 169.924 171.949L170.126 172.703ZM176.185 177.203C175.41 177.411 174.572 177.38 173.782 177.079L162.009 172.596L164.703 182.649C165.038 183.899 166.323 184.641 167.573 184.306L187.194 179.049C188.444 178.714 189.186 177.429 188.851 176.179L186.157 166.126L178.203 175.895C177.669 176.549 176.959 176.996 176.185 177.203ZM184.179 162.212C183.674 161.997 183.196 161.795 182.494 161.511L181.936 159.429C181.601 158.178 180.316 157.436 179.066 157.771L175.408 158.751C175.237 158.686 175.078 158.625 174.899 158.556C173.951 158.19 172.003 157.22 170.913 157.53C169.814 157.806 168.613 159.62 167.974 160.412C167.854 160.56 167.746 160.693 167.631 160.835L163.973 161.815C162.723 162.15 161.981 163.436 162.316 164.686L162.874 166.768C162.408 167.364 162.095 167.779 161.766 168.218C161.552 168.502 161.406 168.831 161.339 169.18C161.271 169.529 161.284 169.888 161.376 170.232L161.51 170.734L166.914 172.792L164.58 164.079L179.672 160.035L182.007 168.747L185.658 164.263L185.524 163.761C185.337 163.066 184.842 162.495 184.179 162.212Z" fill="black" fill-opacity="0.1"/>
</g>
<g clip-path="url(#clip33_1722_47601)">
<path d="M230.703 160.92L221.555 163.372C221.727 164.127 221.323 164.728 220.643 164.91L218.349 165.525C217.644 165.714 216.927 165.199 216.789 164.649L207.763 167.067C207.431 167.156 207.232 167.501 207.321 167.833L207.482 168.436C207.838 169.765 209.216 170.56 210.544 170.204L229.863 165.028C231.191 164.672 231.986 163.294 231.631 161.966L231.469 161.362C231.38 161.03 231.035 160.831 230.703 160.92ZM225.172 147.52C224.905 146.524 223.871 145.928 222.875 146.195L207.179 150.4C206.183 150.667 205.586 151.701 205.853 152.697L209.25 165.375L228.569 160.198L225.172 147.52ZM225.507 158.43L211.018 162.313L208.43 152.653L222.919 148.771L225.507 158.43Z" fill="black" fill-opacity="0.1"/>
</g>
<g clip-path="url(#clip34_1722_47601)">
<path d="M259.476 149.975L259.475 149.976C259.312 149.365 259.438 149.633 254.431 143.987C253.409 142.834 251.501 143.342 251.191 144.855C249.666 152.311 249.659 151.972 249.818 152.563L249.817 152.564C250.264 154.231 252.788 155.003 255.455 154.288C258.123 153.573 259.923 151.642 259.476 149.975ZM253.029 145.233L257.201 149.938L251.768 151.394L253.029 145.233ZM273.964 146.093C273.801 145.483 273.927 145.75 268.92 140.105C267.897 138.952 265.99 139.46 265.68 140.973C264.155 148.429 264.148 148.09 264.307 148.681L264.306 148.681C264.752 150.348 267.277 151.12 269.944 150.406C272.611 149.691 274.412 147.76 273.965 146.093L273.964 146.093ZM266.257 147.512L267.518 141.35L271.69 146.056L266.257 147.512ZM270.871 151.451L264.231 153.231L261.251 142.109C262.034 141.484 262.486 140.506 262.422 139.48L267.313 138.17C267.646 138.081 267.844 137.738 267.755 137.405L267.431 136.197C267.342 135.864 266.999 135.666 266.666 135.755L261.219 137.215C260.473 136.633 259.478 136.387 258.494 136.651C257.51 136.914 256.772 137.625 256.416 138.501L250.969 139.961C250.636 140.05 250.438 140.393 250.527 140.726L250.851 141.934C250.94 142.267 251.283 142.465 251.616 142.376L256.507 141.065C256.965 141.984 257.844 142.606 258.836 142.757L261.816 153.878L255.175 155.657C254.842 155.747 254.644 156.089 254.733 156.423L255.057 157.63C255.146 157.964 255.489 158.161 255.822 158.072L271.519 153.866C271.852 153.777 272.05 153.434 271.96 153.101L271.637 151.893C271.548 151.56 271.205 151.362 270.871 151.451Z" fill="black" fill-opacity="0.1"/>
</g>
<g clip-path="url(#clip35_1722_47601)">
<path d="M317.637 137.627L308.489 140.078C308.661 140.833 308.257 141.434 307.577 141.616L305.283 142.231C304.578 142.42 303.86 141.906 303.723 141.355L294.696 143.774C294.364 143.863 294.165 144.207 294.254 144.539L294.416 145.143C294.772 146.471 296.15 147.266 297.478 146.911L316.796 141.734C318.125 141.378 318.92 140 318.564 138.672L318.402 138.069C318.313 137.737 317.969 137.538 317.637 137.627ZM312.105 124.227C311.838 123.231 310.805 122.634 309.809 122.901L294.113 127.107C293.117 127.374 292.52 128.407 292.787 129.403L296.184 142.081L315.502 136.905L312.105 124.227ZM312.44 135.137L297.952 139.019L295.363 129.36L309.852 125.477L312.44 135.137Z" fill="black" fill-opacity="0.1"/>
</g>
<g clip-path="url(#clip36_1722_47601)">
<path d="M343.737 122.141L351.283 120.119C351.7 120.007 351.947 119.579 351.835 119.162L351.633 118.407C351.522 117.99 351.093 117.743 350.676 117.855L343.13 119.877C342.713 119.988 342.466 120.417 342.578 120.834L342.78 121.588C342.892 122.005 343.32 122.252 343.737 122.141ZM343.993 126.116C344.105 126.533 344.533 126.78 344.95 126.668L352.496 124.646C352.913 124.535 353.16 124.106 353.049 123.69L352.846 122.935C352.735 122.518 352.307 122.271 351.89 122.382L344.343 124.405C343.926 124.516 343.679 124.944 343.791 125.361L343.993 126.116ZM350.052 130.616C349.277 130.823 348.439 130.792 347.65 130.492L335.876 126.009L338.57 136.062C338.905 137.312 340.19 138.054 341.44 137.719L361.061 132.462C362.311 132.127 363.053 130.841 362.718 129.591L360.025 119.539L352.07 129.307C351.537 129.962 350.826 130.408 350.052 130.616ZM358.046 115.625C357.541 115.409 357.063 115.207 356.361 114.923L355.804 112.841C355.469 111.591 354.183 110.849 352.933 111.184L349.275 112.164C349.104 112.099 348.945 112.037 348.766 111.969C347.818 111.603 345.87 110.632 344.78 110.942C343.682 111.219 342.48 113.033 341.842 113.824C341.721 113.973 341.614 114.106 341.498 114.248L337.84 115.228C336.59 115.563 335.848 116.848 336.183 118.099L336.741 120.18C336.276 120.777 335.962 121.191 335.633 121.63C335.419 121.915 335.273 122.243 335.206 122.592C335.138 122.941 335.151 123.301 335.243 123.644L335.377 124.146L340.782 126.204L338.447 117.492L353.54 113.448L355.874 122.16L359.525 117.676L359.391 117.174C359.205 116.479 358.709 115.907 358.046 115.625Z" fill="black" fill-opacity="0.1"/>
</g>
<g clip-path="url(#clip37_1722_47601)">
<path d="M378.087 103.635L383.749 124.765L404.878 119.103L399.217 97.9737L378.087 103.635ZM397.124 114.973L393.882 120.326L388.399 117.311L389.116 107.818L384.979 104.549L393.7 102.212L391.757 107.11L397.124 114.973Z" fill="black" fill-opacity="0.1"/>
</g>
<defs>
<clipPath id="clip0_1722_47601">
<rect width="25" height="25" fill="white" transform="translate(-29.7949 -21.628) rotate(-15)"/>
</clipPath>
<clipPath id="clip1_1722_47601">
<rect width="25" height="25" fill="white" transform="translate(-18.1484 21.8387) rotate(-15)"/>
</clipPath>
<clipPath id="clip2_1722_47601">
<rect width="25" height="25" fill="white" transform="translate(25.3184 10.1919) rotate(-15)"/>
</clipPath>
<clipPath id="clip3_1722_47601">
<rect width="25" height="25" fill="white" transform="translate(68.7852 -1.45502) rotate(-15)"/>
</clipPath>
<clipPath id="clip4_1722_47601">
<rect width="25" height="25" fill="white" transform="translate(112.251 -13.1019) rotate(-15)"/>
</clipPath>
<clipPath id="clip5_1722_47601">
<rect width="25" height="25" fill="white" transform="translate(-6.50098 65.3054) rotate(-15)"/>
</clipPath>
<clipPath id="clip6_1722_47601">
<rect width="25" height="25" fill="white" transform="translate(36.9658 53.6585) rotate(-15)"/>
</clipPath>
<clipPath id="clip7_1722_47601">
<rect width="25" height="25" fill="white" transform="translate(80.4326 42.0116) rotate(-15)"/>
</clipPath>
<clipPath id="clip8_1722_47601">
<rect width="25" height="25" fill="white" transform="translate(123.898 30.3648) rotate(-15)"/>
</clipPath>
<clipPath id="clip9_1722_47601">
<rect width="25" height="25" fill="white" transform="translate(167.365 18.7179) rotate(-15)"/>
</clipPath>
<clipPath id="clip10_1722_47601">
<rect width="25" height="25" fill="white" transform="translate(210.832 7.07108) rotate(-15)"/>
</clipPath>
<clipPath id="clip11_1722_47601">
<rect width="25" height="25" fill="white" transform="translate(254.299 -4.57578) rotate(-15)"/>
</clipPath>
<clipPath id="clip12_1722_47601">
<rect width="25" height="25" fill="white" transform="translate(297.766 -16.2226) rotate(-15)"/>
</clipPath>
<clipPath id="clip13_1722_47601">
<rect width="25" height="25" fill="white" transform="translate(5.14551 108.772) rotate(-15)"/>
</clipPath>
<clipPath id="clip14_1722_47601">
<rect width="25" height="25" fill="white" transform="translate(48.6123 97.1252) rotate(-15)"/>
</clipPath>
<clipPath id="clip15_1722_47601">
<rect width="25" height="25" fill="white" transform="translate(92.0791 85.4783) rotate(-15)"/>
</clipPath>
<clipPath id="clip16_1722_47601">
<rect width="25" height="25" fill="white" transform="translate(135.545 73.8315) rotate(-15)"/>
</clipPath>
<clipPath id="clip17_1722_47601">
<rect width="25" height="25" fill="white" transform="translate(179.012 62.1846) rotate(-15)"/>
</clipPath>
<clipPath id="clip18_1722_47601">
<rect width="25" height="25" fill="white" transform="translate(222.479 50.5378) rotate(-15)"/>
</clipPath>
<clipPath id="clip19_1722_47601">
<rect width="25" height="25" fill="white" transform="translate(265.945 38.8909) rotate(-15)"/>
</clipPath>
<clipPath id="clip20_1722_47601">
<rect width="25" height="25" fill="white" transform="translate(309.412 27.244) rotate(-15)"/>
</clipPath>
<clipPath id="clip21_1722_47601">
<rect width="25" height="25" fill="white" transform="translate(352.879 15.5972) rotate(-15)"/>
</clipPath>
<clipPath id="clip22_1722_47601">
<rect width="25" height="25" fill="white" transform="translate(-26.6748 163.886) rotate(-15)"/>
</clipPath>
<clipPath id="clip23_1722_47601">
<rect width="25" height="25" fill="white" transform="translate(16.792 152.239) rotate(-15)"/>
</clipPath>
<clipPath id="clip24_1722_47601">
<rect width="25" height="25" fill="white" transform="translate(60.2588 140.592) rotate(-15)"/>
</clipPath>
<clipPath id="clip25_1722_47601">
<rect width="25" height="25" fill="white" transform="translate(103.726 128.945) rotate(-15)"/>
</clipPath>
<clipPath id="clip26_1722_47601">
<rect width="25" height="25" fill="white" transform="translate(147.191 117.298) rotate(-15)"/>
</clipPath>
<clipPath id="clip27_1722_47601">
<rect width="25" height="25" fill="white" transform="translate(190.658 105.651) rotate(-15)"/>
</clipPath>
<clipPath id="clip28_1722_47601">
<rect width="25" height="25" fill="white" transform="translate(234.125 94.0044) rotate(-15)"/>
</clipPath>
<clipPath id="clip29_1722_47601">
<rect width="25" height="25" fill="white" transform="translate(277.592 82.3575) rotate(-15)"/>
</clipPath>
<clipPath id="clip30_1722_47601">
<rect width="25" height="25" fill="white" transform="translate(321.059 70.7107) rotate(-15)"/>
</clipPath>
<clipPath id="clip31_1722_47601">
<rect width="25" height="25" fill="white" transform="translate(364.525 59.0638) rotate(-15)"/>
</clipPath>
<clipPath id="clip32_1722_47601">
<rect width="25" height="25" fill="white" transform="translate(158.839 160.765) rotate(-15)"/>
</clipPath>
<clipPath id="clip33_1722_47601">
<rect width="25" height="25" fill="white" transform="translate(202.306 149.118) rotate(-15)"/>
</clipPath>
<clipPath id="clip34_1722_47601">
<rect width="25" height="25" fill="white" transform="translate(245.772 137.471) rotate(-15)"/>
</clipPath>
<clipPath id="clip35_1722_47601">
<rect width="25" height="25" fill="white" transform="translate(289.239 125.824) rotate(-15)"/>
</clipPath>
<clipPath id="clip36_1722_47601">
<rect width="25" height="25" fill="white" transform="translate(332.706 114.177) rotate(-15)"/>
</clipPath>
<clipPath id="clip37_1722_47601">
<rect width="25" height="25" fill="white" transform="translate(376.173 102.53) rotate(-15)"/>
</clipPath>
</defs>
</svg>
