<svg width="396" height="161" viewBox="0 0 396 161" fill="none" xmlns="http://www.w3.org/2000/svg">
<g clip-path="url(#clip0_1722_49461)">
<path d="M12.0622 10.6236C11.8474 9.82215 12.3214 9.00118 13.1228 8.78645L18.9184 7.23353C19.7198 7.01879 20.5408 7.49277 20.7555 8.29419L21.1437 9.74308L23.3171 9.16074C24.5169 8.83923 25.7512 9.55187 26.0727 10.7517L27.6256 16.5473L29.8155 16.6787C30.9549 16.7471 31.6062 18.0187 30.9902 18.9797L27.5405 24.3977C26.9211 25.0199 26.1526 25.5024 25.4191 25.699C24.5316 25.9368 23.4783 25.8453 22.4924 25.4981C21.3037 25.0644 19.968 25.4223 19.1554 26.3922C18.5243 27.1339 17.6811 27.7723 16.7212 28.0296C15.9877 28.2261 15.0809 28.1925 14.2334 27.9634L8.53691 24.996C7.52173 24.4673 7.45118 23.0449 8.40368 22.416L10.239 21.206L8.68607 15.4105C8.36457 14.2106 9.0772 12.9763 10.2771 12.6548L12.4504 12.0725L12.0622 10.6236ZM12.8783 19.4652L17.3237 16.5318C17.8635 16.1737 18.5064 16.0014 19.1575 16.0405L24.4695 16.3593L23.3691 12.2526L11.778 15.3585L12.8783 19.4652ZM21.9768 26.8882C23.1836 27.3171 24.5573 27.4634 25.8025 27.1297C27.0204 26.8034 28.1798 25.9686 28.9903 25.009C29.426 24.4797 30.168 24.3149 30.7858 24.6104C31.5822 24.9745 32.5121 25.1669 33.3826 25.1375C34.2099 25.1099 34.9031 25.7589 34.9306 26.5862C34.9582 27.4135 34.3092 28.1066 33.4819 28.1342C32.3035 28.1733 31.2488 27.9318 30.5435 27.7083C29.4197 28.7665 28.0731 29.6272 26.5789 30.0275C25.1346 30.4145 23.715 30.3145 22.7093 30.1472C22.4139 30.0953 22.1424 30.0419 21.9095 29.9878C21.7349 30.1511 21.5322 30.3364 21.2966 30.5257C20.5093 31.1734 19.33 31.9699 17.8856 32.3569C16.3914 32.7573 14.7949 32.6852 13.2938 32.3352C12.789 32.8781 12.0021 33.6179 10.962 34.1733C10.2317 34.563 9.32313 34.2872 8.93335 33.557C8.54356 32.8267 8.81936 31.9181 9.54961 31.5284C10.3182 31.1186 11.0273 30.487 11.5349 29.7735C11.9235 29.2132 12.6485 28.985 13.2892 29.2209C14.4742 29.641 15.8912 29.7855 17.1091 29.4591C18.3543 29.1255 19.4708 28.3119 20.3015 27.3371C20.7083 26.8448 21.3784 26.6652 21.9768 26.8882Z" fill="black" fill-opacity="0.1"/>
</g>
<g clip-path="url(#clip1_1722_49461)">
<path d="M61.4446 -2.6086C60.8424 -2.44724 60.4878 -1.83295 60.6491 -1.23076C60.8105 -0.628565 61.4248 -0.273907 62.027 -0.435265L64.6395 -1.13529L65.7496 0.0376601L62.2991 4.92702L59.6984 3.42552C59.0095 3.02777 58.1902 2.92217 57.4205 3.12841L52.8293 4.35861C52.0279 4.57335 51.5539 5.39431 51.7686 6.19573L52.1569 7.64462L56.5035 6.47993C60.5061 5.40745 64.6166 7.78068 65.6891 11.7832C65.8226 12.2813 65.9026 12.7791 65.9325 13.2709L69.12 12.4168C68.9 11.976 68.7204 11.5048 68.5869 11.0068C67.9536 8.64328 68.5226 6.23908 69.9206 4.44746L70.9649 5.55557C69.9505 6.96779 69.5505 8.80744 70.0358 10.6185C70.8935 13.8197 74.1831 15.7189 77.3843 14.8612C80.5854 14.0034 82.4846 10.7139 81.6269 7.51272C80.7692 4.31158 77.4796 2.41234 74.2784 3.27008C73.6672 3.43386 73.104 3.68666 72.599 4.01126L68.8667 0.0614058L71.6649 -0.68836C72.4663 -0.903099 72.9403 -1.72406 72.7255 -2.52548L72.3373 -3.97437C72.1225 -4.77578 71.3016 -5.24977 70.5002 -5.03503L69.5765 -4.78753C69.2369 -4.69654 68.9425 -4.49147 68.7381 -4.20377L67.0711 -1.84023L66.1218 -2.8476C65.6484 -3.34676 64.9388 -3.54973 64.2733 -3.37138L61.4446 -2.6086ZM73.1042 7.81641L75.0143 9.83779C75.4415 10.2911 76.1547 10.3087 76.6035 9.88269C77.0523 9.4567 77.0744 8.74227 76.6484 8.29348L74.7383 6.2721C74.8388 6.23062 74.9462 6.19697 75.0549 6.16786C76.6532 5.73959 78.3009 6.69087 78.7291 8.28918C79.1574 9.88748 78.2061 11.5351 76.6078 11.9634C75.0095 12.3917 73.3618 11.4404 72.9336 9.84209C72.7455 9.14028 72.8223 8.43061 73.1042 7.81641ZM61.4208 14.0916C61.2758 15.2709 60.4346 16.297 59.2211 16.6222C57.6228 17.0504 55.9752 16.0991 55.5469 14.5008C55.1186 12.9025 56.0699 11.2549 57.6682 10.8266C58.8862 10.5002 60.1278 10.9683 60.8385 11.9183L63.8449 11.1127C62.6196 8.56813 59.7216 7.17056 56.8918 7.92882C53.6906 8.78656 51.7914 12.0762 52.6491 15.2773C53.5069 18.4784 56.7965 20.3777 59.9976 19.5199C62.8275 18.7617 64.6384 16.1024 64.4318 13.2848L61.4253 14.0904L61.4208 14.0916ZM58.8329 15.1733C59.2172 15.0703 59.5448 14.8189 59.7437 14.4744C59.9426 14.1298 59.9965 13.7204 59.8936 13.3361C59.7906 12.9519 59.5392 12.6242 59.1947 12.4253C58.8502 12.2264 58.4407 12.1725 58.0565 12.2755C57.6722 12.3785 57.3446 12.6298 57.1456 12.9744C56.9467 13.3189 56.8928 13.7283 56.9958 14.1126C57.0988 14.4969 57.3502 14.8245 57.6947 15.0234C58.0392 15.2223 58.4486 15.2762 58.8329 15.1733Z" fill="black" fill-opacity="0.1"/>
</g>
<g clip-path="url(#clip2_1722_49461)">
<path d="M111.19 -15.9378C110.588 -15.7764 110.233 -15.1621 110.395 -14.5599C110.556 -13.9577 111.17 -13.6031 111.772 -13.7644L112.936 -14.0762L115.279 -11.5982L108.515 -9.78567L106.813 -11.1738C106.533 -11.4045 106.157 -11.4834 105.809 -11.39L103.273 -10.7106C102.671 -10.5492 102.316 -9.93496 102.478 -9.33277C102.639 -8.73057 103.253 -8.37592 103.856 -8.53727L105.834 -9.06745L107.207 -7.94554L106.647 -5.21858C106.164 -5.21045 105.673 -5.14192 105.188 -5.01211C101.987 -4.15437 100.088 -0.864778 100.946 2.33636C101.804 5.5375 105.093 7.43674 108.294 6.579C111.251 5.78677 113.094 2.91998 112.686 -0.0328917L114.904 -0.627367C115.289 -0.73049 115.588 -1.02887 115.698 -1.41278L117.797 -8.93895L119.266 -7.38657C118.247 -5.97314 117.847 -4.13349 118.332 -2.32238C119.19 0.878756 122.48 2.778 125.681 1.92026C128.882 1.06252 130.781 -2.22707 129.924 -5.42821C129.066 -8.62935 125.776 -10.5286 122.575 -9.67085C121.964 -9.50707 121.401 -9.25427 120.896 -8.92967L114.265 -15.9463C113.885 -16.3492 113.318 -16.508 112.784 -16.3648L111.19 -15.9378ZM121.124 -5.41436L123.311 -3.10314C123.738 -2.64983 124.451 -2.63226 124.9 -3.05824C125.349 -3.48423 125.371 -4.19866 124.945 -4.64745L122.758 -6.95867C122.914 -7.02951 123.082 -7.08919 123.254 -7.1353C125.057 -7.61816 126.905 -6.55087 127.388 -4.74881C127.871 -2.94676 126.804 -1.09816 125.001 -0.615297C123.199 -0.132438 121.351 -1.19973 120.868 -3.00178C120.642 -3.84395 120.754 -4.69407 121.124 -5.41436ZM107.171 1.4448L110.114 0.656214C110.173 2.1982 109.163 3.62853 107.615 4.04345C105.813 4.5263 103.964 3.45902 103.481 1.65696C102.998 -0.145095 104.066 -1.99369 105.868 -2.47655C105.945 -2.49718 106.023 -2.51327 106.101 -2.52937L105.594 -0.0398016C105.406 0.888915 106.257 1.6944 107.172 1.44933L107.171 1.4448ZM108.114 -1.13738L109.181 -6.33912L113.71 -2.64144L113.706 -2.6357L108.114 -1.13738ZM110.664 -8.03211L115.576 -9.34845L114.362 -5.00497L110.659 -8.0309L110.664 -8.03211Z" fill="black" fill-opacity="0.1"/>
</g>
<g clip-path="url(#clip3_1722_49461)">
<path d="M7.84814 55.7518C6.64828 56.0733 5.93565 57.3076 6.25715 58.5074L10.1394 72.9963C10.4609 74.1962 11.6952 74.9088 12.8951 74.5873L13.6196 74.3932C14.2626 76.7929 16.7312 78.2182 19.1309 77.5752C21.5306 76.9322 22.9559 74.4636 22.3129 72.0638L28.1084 70.5109C28.7514 72.9106 31.2201 74.3359 33.6198 73.6929C36.0195 73.0499 37.4448 70.5813 36.8018 68.1815L38.2507 67.7933C39.0521 67.5786 39.5261 66.7576 39.3113 65.9562C39.0966 65.1548 38.2756 64.6808 37.4742 64.8955L36.6977 61.9978L36.3095 60.5489L36.0826 59.7022C35.8764 58.9325 35.3753 58.2757 34.6864 57.878L30.2486 55.3158C29.5597 54.9181 28.7404 54.8125 27.9706 55.0187L25.675 55.6338L25.0927 53.4605C24.7712 52.2606 23.5369 51.548 22.337 51.8695L7.84814 55.7518ZM26.4515 58.5316L28.7471 57.9165L33.1849 60.4786L33.4117 61.3253L27.6162 62.8782L26.4515 58.5316ZM15.7929 73.8109C15.6384 73.2345 15.7193 72.6203 16.0177 72.1035C16.316 71.5867 16.8075 71.2096 17.3839 71.0552C17.9603 70.9007 18.5744 70.9816 19.0912 71.28C19.608 71.5783 19.9851 72.0698 20.1396 72.6462C20.294 73.2226 20.2131 73.8367 19.9148 74.3535C19.6164 74.8703 19.125 75.2474 18.5486 75.4019C17.9722 75.5563 17.358 75.4754 16.8412 75.1771C16.3244 74.8787 15.9473 74.3873 15.7929 73.8109ZM31.8728 67.1729C32.4492 67.0185 33.0633 67.0993 33.5801 67.3977C34.0969 67.696 34.474 68.1875 34.6284 68.7639C34.7829 69.3403 34.702 69.9544 34.4037 70.4712C34.1053 70.988 33.6139 71.3651 33.0374 71.5196C32.461 71.674 31.8469 71.5932 31.3301 71.2948C30.8133 70.9964 30.4362 70.505 30.2818 69.9286C30.1273 69.3522 30.2082 68.738 30.5065 68.2212C30.8049 67.7044 31.2964 67.3273 31.8728 67.1729Z" fill="black" fill-opacity="0.1"/>
</g>
<g clip-path="url(#clip4_1722_49461)">
<path d="M58.1307 47.3256L59.1983 51.3101L63.545 50.1454L62.3803 45.7987L58.3958 46.8664C58.1966 46.9197 58.0773 47.1264 58.1307 47.3256ZM81.0222 45.4624L76.1945 42.0972L72.5225 43.0811L73.6872 47.4278L81.0222 45.4624ZM70.7894 48.2043L69.6247 43.8576L65.2781 45.0223L66.4427 49.3689L70.7894 48.2043ZM85.4343 53.5976L84.7099 53.7918C85.3529 56.1915 83.9276 58.6601 81.5279 59.3031C79.1282 59.9461 76.6596 58.5209 76.0166 56.1211L70.221 57.674C70.864 60.0738 69.4387 62.5424 67.039 63.1854C64.6393 63.8284 62.1707 62.4031 61.5277 60.0034L60.8032 60.1975C59.6034 60.519 58.369 59.8064 58.0475 58.6065L55.2329 48.1021C54.75 46.3 55.8173 44.4514 57.6194 43.9686L63.0527 42.5127L70.2972 40.5716L75.4181 39.1994C76.2738 38.9701 77.185 39.1288 77.9133 39.6373L84.5324 44.2549C85.1111 44.6579 85.5282 45.2547 85.7114 45.9384L87.0253 50.842C87.3468 52.0418 86.6342 53.2761 85.4343 53.5976ZM82.5366 54.3741C82.3821 53.7977 82.005 53.3063 81.4882 53.0079C80.9714 52.7095 80.3573 52.6287 79.7809 52.7831C79.2045 52.9376 78.713 53.3147 78.4147 53.8314C78.1163 54.3482 78.0354 54.9624 78.1899 55.5388C78.3443 56.1152 78.7214 56.6066 79.2382 56.905C79.755 57.2034 80.3692 57.2842 80.9456 57.1298C81.522 56.9753 82.0134 56.5982 82.3118 56.0814C82.6101 55.5647 82.691 54.9505 82.5366 54.3741ZM66.4567 61.0121C67.0331 60.8576 67.5245 60.4805 67.8229 59.9637C68.1213 59.4469 68.2021 58.8328 68.0477 58.2564C67.8932 57.68 67.5161 57.1885 66.9993 56.8902C66.4825 56.5918 65.8684 56.511 65.292 56.6654C64.7156 56.8198 64.2241 57.1969 63.9258 57.7137C63.6274 58.2305 63.5466 58.8447 63.701 59.4211C63.8554 59.9975 64.2325 60.4889 64.7493 60.7873C65.2661 61.0857 65.8803 61.1665 66.4567 61.0121Z" fill="black" fill-opacity="0.1"/>
</g>
<g clip-path="url(#clip5_1722_49461)">
<path d="M102.849 32.6255C102.527 31.4257 103.24 30.1914 104.44 29.8699L118.929 25.9876C120.129 25.6661 121.363 26.3787 121.684 27.5786L122.267 29.7519L124.562 29.1368C125.332 28.9306 126.151 29.0362 126.84 29.4339L131.278 31.9961C131.967 32.3938 132.468 33.0506 132.674 33.8203L132.901 34.667L133.29 36.1159L134.066 39.0136C134.867 38.7989 135.688 39.2729 135.903 40.0743C136.118 40.8757 135.644 41.6967 134.842 41.9114L133.394 42.2996C134.037 44.6994 132.611 47.168 130.212 47.811C127.812 48.454 125.343 47.0287 124.7 44.629L118.905 46.1819C119.548 48.5817 118.122 51.0503 115.723 51.6933C113.323 52.3363 110.854 50.911 110.211 48.5113L109.487 48.7054C108.287 49.0269 107.053 48.3143 106.731 47.1144L102.849 32.6255ZM124.208 36.9963L130.004 35.4434L129.777 34.5967L125.339 32.0346L123.043 32.6497L124.208 36.9963ZM115.14 49.52C115.717 49.3655 116.208 48.9884 116.507 48.4716C116.805 47.9548 116.886 47.3407 116.731 46.7643C116.577 46.1879 116.2 45.6964 115.683 45.3981C115.166 45.0997 114.552 45.0188 113.976 45.1733C113.399 45.3277 112.908 45.7048 112.609 46.2216C112.311 46.7384 112.23 47.3526 112.385 47.929C112.539 48.5054 112.916 48.9968 113.433 49.2952C113.95 49.5935 114.564 49.6744 115.14 49.52ZM131.22 42.882C131.066 42.3056 130.689 41.8141 130.172 41.5158C129.655 41.2174 129.041 41.1366 128.465 41.291C127.888 41.4454 127.397 41.8225 127.098 42.3393C126.8 42.8561 126.719 43.4703 126.874 44.0467C127.028 44.6231 127.405 45.1145 127.922 45.4129C128.439 45.7113 129.053 45.7921 129.629 45.6377C130.206 45.4832 130.697 45.1061 130.995 44.5893C131.294 44.0725 131.375 43.4584 131.22 42.882ZM115.056 31.6356C114.516 31.3241 113.828 31.5085 113.521 32.0469C113.214 32.5854 113.393 33.2748 113.932 33.5818L116.171 34.8745L108.651 36.8942C108.049 37.0555 107.695 37.6698 107.856 38.272C108.017 38.8742 108.632 39.2289 109.234 39.0675L116.754 37.0524L115.462 39.2914C115.15 39.831 115.335 40.5192 115.873 40.8263C116.411 41.1333 117.101 40.9534 117.408 40.415L120.06 35.8222C120.371 35.2826 120.187 34.5943 119.648 34.2873L115.056 31.6356Z" fill="black" fill-opacity="0.1"/>
</g>
<g clip-path="url(#clip6_1722_49461)">
<path d="M158.11 21.1866L157.833 24.881L171.136 21.3165L169.049 18.2555C168.69 17.7305 168.038 17.4879 167.422 17.6529L159.218 19.8513C158.602 20.0163 158.158 20.5525 158.11 21.1866ZM154.745 25.9415L155.119 20.964C155.263 19.057 156.594 17.4485 158.441 16.9535L166.645 14.7551C168.493 14.2602 170.449 14.9879 171.528 16.5673L174.341 20.6907C175.508 20.8439 176.528 21.6818 176.852 22.8907L178.599 29.4107L179.181 31.584C179.396 32.3855 178.922 33.2064 178.121 33.4212L176.672 33.8094C175.87 34.0241 175.049 33.5501 174.835 32.7487L174.252 30.5754L159.763 34.4577L160.346 36.631C160.561 37.4324 160.087 38.2534 159.285 38.4681L157.836 38.8564C157.035 39.0711 156.214 38.5971 155.999 37.7957L155.417 35.6224L153.67 29.1024C153.346 27.8934 153.811 26.6576 154.745 25.9415ZM159.854 28.9983C159.751 28.6141 159.499 28.2864 159.155 28.0875C158.81 27.8886 158.401 27.8347 158.016 27.9377C157.632 28.0406 157.305 28.292 157.106 28.6366C156.907 28.9811 156.853 29.3905 156.956 29.7748C157.059 30.1591 157.31 30.4867 157.655 30.6856C157.999 30.8845 158.409 30.9384 158.793 30.8355C159.177 30.7325 159.505 30.4811 159.704 30.1366C159.903 29.792 159.956 29.3826 159.854 28.9983ZM173.282 26.9532C173.666 26.8502 173.994 26.5988 174.193 26.2543C174.391 25.9098 174.445 25.5003 174.342 25.1161C174.239 24.7318 173.988 24.4042 173.644 24.2052C173.299 24.0063 172.89 23.9524 172.505 24.0554C172.121 24.1584 171.793 24.4098 171.594 24.7543C171.396 25.0988 171.342 25.5082 171.445 25.8925C171.548 26.2768 171.799 26.6044 172.144 26.8033C172.488 27.0022 172.897 27.0561 173.282 26.9532Z" fill="black" fill-opacity="0.1"/>
</g>
<g clip-path="url(#clip7_1722_49461)">
<path d="M193.647 8.29656C193.325 7.0967 194.038 5.86239 195.238 5.54089L209.727 1.6586C210.927 1.3371 212.161 2.04973 212.482 3.24959L213.065 5.42292L215.36 4.80782C216.13 4.60158 216.949 4.70719 217.638 5.10493L222.076 7.66709C222.765 8.06484 223.266 8.72158 223.472 9.4913L223.699 10.338L224.087 11.7869L224.864 14.6847C225.665 14.4699 226.486 14.9439 226.701 15.7453C226.916 16.5467 226.442 17.3677 225.64 17.5824L224.191 17.9707C224.834 20.3704 223.409 22.839 221.009 23.482C218.61 24.125 216.141 22.6998 215.498 20.3L209.703 21.853C210.346 24.2527 208.92 26.7213 206.521 27.3643C204.121 28.0073 201.652 26.582 201.009 24.1823L200.285 24.3764C199.085 24.6979 197.851 23.9853 197.529 22.7855L193.647 8.29656ZM215.006 12.6674L220.801 11.1145L220.575 10.2678L216.137 7.7056L213.841 8.3207L215.006 12.6674ZM205.938 25.191C206.515 25.0365 207.006 24.6594 207.304 24.1426C207.603 23.6259 207.684 23.0117 207.529 22.4353C207.375 21.8589 206.998 21.3675 206.481 21.0691C205.964 20.7707 205.35 20.6899 204.774 20.8443C204.197 20.9988 203.706 21.3759 203.407 21.8926C203.109 22.4094 203.028 23.0236 203.183 23.6C203.337 24.1764 203.714 24.6678 204.231 24.9662C204.748 25.2646 205.362 25.3454 205.938 25.191ZM222.018 18.553C221.864 17.9766 221.487 17.4852 220.97 17.1868C220.453 16.8884 219.839 16.8076 219.262 16.962C218.686 17.1165 218.195 17.4936 217.896 18.0104C217.598 18.5271 217.517 19.1413 217.671 19.7177C217.826 20.2941 218.203 20.7855 218.72 21.0839C219.237 21.3823 219.851 21.4631 220.427 21.3087C221.004 21.1542 221.495 20.7771 221.793 20.2604C222.092 19.7436 222.173 19.1294 222.018 18.553ZM205.853 7.30666C205.314 6.99509 204.626 7.1795 204.318 7.71794C204.011 8.25638 204.191 8.94581 204.73 9.25285L206.969 10.5455L199.449 12.5652C198.847 12.7266 198.492 13.3409 198.654 13.943C198.815 14.5452 199.429 14.8999 200.032 14.7385L207.552 12.7234L206.26 14.9624C205.948 15.502 206.132 16.1903 206.671 16.4973C207.209 16.8043 207.899 16.6245 208.206 16.086L210.857 11.4932C211.169 10.9536 210.985 10.2653 210.446 9.95831L205.853 7.30666Z" fill="black" fill-opacity="0.1"/>
</g>
<g clip-path="url(#clip8_1722_49461)">
<path d="M255.876 -9.15406C255.273 -8.99271 254.919 -8.37842 255.08 -7.77623C255.242 -7.17403 255.856 -6.81937 256.458 -6.98073L257.622 -7.29253L259.965 -4.81452L253.2 -3.00198L251.499 -4.39011C251.218 -4.62077 250.843 -4.69973 250.494 -4.60632L247.959 -3.92692C247.357 -3.76556 247.002 -3.15127 247.163 -2.54908C247.325 -1.94688 247.939 -1.59222 248.541 -1.75358L250.52 -2.28376L251.893 -1.16185L251.333 1.56512C250.85 1.57324 250.358 1.64177 249.874 1.77158C246.673 2.62933 244.774 5.91891 245.631 9.12005C246.489 12.3212 249.779 14.2204 252.98 13.3627C255.936 12.5705 257.779 9.70367 257.371 6.7508L259.59 6.15632C259.975 6.0532 260.273 5.75482 260.384 5.37091L262.483 -2.15525L263.952 -0.602883C262.933 0.81055 262.533 2.6502 263.018 4.46131C263.876 7.66245 267.165 9.56169 270.366 8.70395C273.568 7.84621 275.467 4.55662 274.609 1.35548C273.751 -1.84566 270.462 -3.7449 267.261 -2.88716C266.649 -2.72338 266.086 -2.47058 265.581 -2.14598L258.95 -9.16258C258.57 -9.56552 258.004 -9.72427 257.469 -9.58112L255.876 -9.15406ZM265.81 1.36934L267.996 3.68055C268.424 4.13387 269.137 4.15143 269.586 3.72545C270.034 3.29947 270.057 2.58503 269.631 2.13624L267.444 -0.174975C267.6 -0.245818 267.768 -0.305503 267.94 -0.351605C269.742 -0.834464 271.591 0.232825 272.074 2.03488C272.556 3.83694 271.489 5.68553 269.687 6.16839C267.885 6.65125 266.036 5.58396 265.554 3.78191C265.328 2.93974 265.44 2.08962 265.81 1.36934ZM251.856 8.22849L254.799 7.43991C254.858 8.98189 253.849 10.4122 252.3 10.8271C250.498 11.31 248.65 10.2427 248.167 8.44065C247.684 6.6386 248.751 4.79 250.553 4.30714C250.63 4.28651 250.709 4.27042 250.787 4.25432L250.279 6.74389C250.091 7.67261 250.943 8.47809 251.858 8.23302L251.856 8.22849ZM252.8 5.64631L253.867 0.44457L258.395 4.14225L258.392 4.14799L252.8 5.64631ZM255.349 -1.24842L260.262 -2.56476L259.048 1.77872L255.345 -1.24721L255.349 -1.24842Z" fill="black" fill-opacity="0.1"/>
</g>
<g clip-path="url(#clip9_1722_49461)">
<path d="M298.738 -20.6391C298.523 -21.4405 298.997 -22.2615 299.799 -22.4763L305.594 -24.0292C306.396 -24.2439 307.217 -23.7699 307.431 -22.9685L307.82 -21.5196L309.993 -22.102C311.193 -22.4235 312.427 -21.7108 312.749 -20.511L314.301 -14.7154L316.491 -14.584C317.631 -14.5156 318.282 -13.244 317.666 -12.283L314.216 -6.86495C313.597 -6.2428 312.828 -5.76027 312.095 -5.56373C311.207 -5.32594 310.154 -5.41738 309.168 -5.76464C307.979 -6.19833 306.644 -5.84043 305.831 -4.8705C305.2 -4.12877 304.357 -3.49035 303.397 -3.23314C302.664 -3.0366 301.757 -3.07024 300.909 -3.29931L295.213 -6.26669C294.198 -6.79539 294.127 -8.21779 295.079 -8.84668L296.915 -10.0567L295.362 -15.8522C295.04 -17.0521 295.753 -18.2864 296.953 -18.6079L299.126 -19.1902L298.738 -20.6391ZM299.554 -11.7975L304 -14.7309C304.539 -15.089 305.182 -15.2613 305.833 -15.2222L311.145 -14.9034L310.045 -19.0101L298.454 -15.9042L299.554 -11.7975ZM308.653 -4.37446C309.859 -3.94563 311.233 -3.79932 312.478 -4.13295C313.696 -4.45931 314.856 -5.29407 315.666 -6.25373C316.102 -6.78296 316.844 -6.94781 317.462 -6.65234C318.258 -6.28823 319.188 -6.0958 320.058 -6.12522C320.886 -6.15279 321.579 -5.50382 321.606 -4.67651C321.634 -3.84921 320.985 -3.15606 320.158 -3.1285C318.979 -3.08935 317.925 -3.33085 317.219 -3.55435C316.095 -2.49619 314.749 -1.63553 313.255 -1.23517C311.81 -0.848158 310.391 -0.948215 309.385 -1.1155C309.09 -1.16738 308.818 -1.2208 308.585 -1.27488C308.411 -1.11162 308.208 -0.926278 307.972 -0.736976C307.185 -0.0892592 306.006 0.707182 304.561 1.0942C303.067 1.49456 301.471 1.42249 299.97 1.07252C299.465 1.61542 298.678 2.35523 297.638 2.91056C296.908 3.30034 295.999 3.02454 295.609 2.29429C295.219 1.56404 295.495 0.655448 296.225 0.265664C296.994 -0.144094 297.703 -0.775713 298.211 -1.48922C298.599 -2.0495 299.324 -2.27773 299.965 -2.04177C301.15 -1.62167 302.567 -1.47722 303.785 -1.80358C305.03 -2.13721 306.147 -2.95079 306.977 -3.92557C307.384 -4.41793 308.054 -4.59749 308.653 -4.37446Z" fill="black" fill-opacity="0.1"/>
</g>
<g clip-path="url(#clip10_1722_49461)">
<path d="M-21.9587 111.62C-22.2802 110.42 -21.5675 109.186 -20.3677 108.864L-5.8788 104.982C-4.67893 104.66 -3.44462 105.373 -3.12312 106.573L-2.54078 108.746L-0.245192 108.131C0.52453 107.925 1.34384 108.03 2.03276 108.428L6.47055 110.99C7.15946 111.388 7.66058 112.045 7.86683 112.814L8.0937 113.661L8.48193 115.11L9.25838 118.008C10.0598 117.793 10.8808 118.267 11.0955 119.069C11.3102 119.87 10.8363 120.691 10.0348 120.906L8.58595 121.294C9.22896 123.694 7.80369 126.162 5.40397 126.805C3.00425 127.448 0.535624 126.023 -0.10738 123.623L-5.90293 125.176C-5.25993 127.576 -6.68519 130.044 -9.08491 130.687C-11.4846 131.33 -13.9533 129.905 -14.5963 127.506L-15.3207 127.7C-16.5206 128.021 -17.7549 127.308 -18.0764 126.109L-21.9587 111.62ZM-0.599634 115.991L5.19592 114.438L4.96905 113.591L0.531265 111.029L-1.76432 111.644L-0.599634 115.991ZM-9.66726 128.514C-9.09085 128.36 -8.59941 127.983 -8.30104 127.466C-8.00268 126.949 -7.92182 126.335 -8.07627 125.758C-8.23071 125.182 -8.60781 124.691 -9.1246 124.392C-9.64139 124.094 -10.2555 124.013 -10.8319 124.167C-11.4083 124.322 -11.8998 124.699 -12.1982 125.216C-12.4965 125.733 -12.5774 126.347 -12.4229 126.923C-12.2685 127.5 -11.8914 127.991 -11.3746 128.289C-10.8578 128.588 -10.2437 128.669 -9.66726 128.514ZM6.41262 121.876C6.25817 121.3 5.88107 120.808 5.36428 120.51C4.8475 120.212 4.23335 120.131 3.65694 120.285C3.08054 120.44 2.5891 120.817 2.29073 121.334C1.99236 121.85 1.91151 122.464 2.06595 123.041C2.2204 123.617 2.5975 124.109 3.11429 124.407C3.63108 124.705 4.24523 124.786 4.82163 124.632C5.39803 124.477 5.88947 124.1 6.18784 123.584C6.48621 123.067 6.56707 122.453 6.41262 121.876ZM-9.75207 110.63C-10.2917 110.318 -10.9799 110.503 -11.287 111.041C-11.594 111.58 -11.4142 112.269 -10.8757 112.576L-8.63672 113.869L-16.1561 115.888C-16.7583 116.05 -17.113 116.664 -16.9516 117.266C-16.7903 117.868 -16.176 118.223 -15.5738 118.062L-8.05317 116.047L-9.34585 118.286C-9.65742 118.825 -9.47301 119.513 -8.93457 119.82C-8.39613 120.128 -7.70669 119.948 -7.39965 119.409L-4.748 114.816C-4.43643 114.277 -4.62084 113.589 -5.15928 113.281L-9.75207 110.63Z" fill="black" fill-opacity="0.1"/>
</g>
<g clip-path="url(#clip11_1722_49461)">
<path d="M34.8376 95.625C34.6228 94.8236 35.0968 94.0026 35.8982 93.7879L41.6938 92.235C42.4952 92.0203 43.3161 92.4942 43.5309 93.2957L43.9191 94.7445L46.0924 94.1622C47.2923 93.8407 48.5266 94.5533 48.8481 95.7532L50.401 101.549L52.5909 101.68C53.7303 101.749 54.3816 103.02 53.7655 103.981L50.3159 109.399C49.6965 110.021 48.928 110.504 48.1945 110.7C47.307 110.938 46.2537 110.847 45.2678 110.5C44.0791 110.066 42.7434 110.424 41.9308 111.394C41.2997 112.135 40.4565 112.774 39.4966 113.031C38.7631 113.228 37.8563 113.194 37.0088 112.965L31.3123 109.997C30.2971 109.469 30.2266 108.046 31.1791 107.417L33.0144 106.207L31.4615 100.412C31.14 99.2121 31.8526 97.9778 33.0524 97.6563L35.2258 97.0739L34.8376 95.625ZM35.6537 104.467L40.0991 101.533C40.6389 101.175 41.2818 101.003 41.9329 101.042L47.2448 101.361L46.1445 97.2541L34.5534 100.36L35.6537 104.467ZM44.7522 111.89C45.959 112.319 47.3327 112.465 48.5779 112.131C49.7958 111.805 50.9552 110.97 51.7657 110.01C52.2014 109.481 52.9434 109.316 53.5612 109.612C54.3576 109.976 55.2875 110.168 56.158 110.139C56.9853 110.111 57.6785 110.76 57.706 111.588C57.7336 112.415 57.0846 113.108 56.2573 113.136C55.0789 113.175 54.0242 112.933 53.3188 112.71C52.195 113.768 50.8485 114.629 49.3543 115.029C47.91 115.416 46.4904 115.316 45.4847 115.149C45.1893 115.097 44.9178 115.043 44.6849 114.989C44.5103 115.153 44.3076 115.338 44.072 115.527C43.2847 116.175 42.1053 116.971 40.661 117.358C39.1668 117.759 37.5703 117.687 36.0692 117.337C35.5644 117.88 34.7775 118.619 33.7374 119.175C33.0071 119.564 32.0985 119.289 31.7087 118.558C31.319 117.828 31.5948 116.92 32.325 116.53C33.0936 116.12 33.8027 115.488 34.3103 114.775C34.6989 114.215 35.4239 113.986 36.0646 114.222C37.2496 114.642 38.6666 114.787 39.8845 114.461C41.1297 114.127 42.2462 113.313 43.0769 112.339C43.4836 111.846 44.1538 111.667 44.7522 111.89Z" fill="black" fill-opacity="0.1"/>
</g>
<g clip-path="url(#clip12_1722_49461)">
<path d="M84.22 82.3929C83.6178 82.5542 83.2632 83.1685 83.4245 83.7707C83.5859 84.3729 84.2002 84.7276 84.8023 84.5662L87.4149 83.8662L88.525 85.0391L85.0745 89.9285L82.4738 88.427C81.7849 88.0292 80.9656 87.9236 80.1959 88.1299L75.6047 89.3601C74.8033 89.5748 74.3293 90.3958 74.544 91.1972L74.9323 92.6461L79.2789 91.4814C83.2815 90.4089 87.392 92.7821 88.4645 96.7847C88.598 97.2828 88.678 97.7806 88.7079 98.2724L91.8954 97.4183C91.6754 96.9774 91.4957 96.5063 91.3623 96.0082C90.729 93.6447 91.298 91.2405 92.696 89.4489L93.7403 90.557C92.7259 91.9693 92.3259 93.8089 92.8112 95.62C93.6689 98.8212 96.9585 100.72 100.16 99.8627C103.361 99.0049 105.26 95.7153 104.402 92.5142C103.545 89.313 100.255 87.4138 97.0538 88.2715C96.4426 88.4353 95.8794 88.6881 95.3744 89.0127L91.6421 85.0629L94.4402 84.3131C95.2417 84.0984 95.7156 83.2774 95.5009 82.476L95.1127 81.0271C94.8979 80.2257 94.077 79.7517 93.2756 79.9664L92.3519 80.2139C92.0123 80.3049 91.7179 80.51 91.5135 80.7977L89.8465 83.1612L88.8972 82.1539C88.4238 81.6547 87.7142 81.4517 87.0487 81.6301L84.22 82.3929ZM95.8795 92.8179L97.7897 94.8393C98.2169 95.2926 98.9301 95.3101 99.3789 94.8842C99.8277 94.4582 99.8498 93.7437 99.4238 93.2949L97.5137 91.2736C97.6142 91.2321 97.7216 91.1984 97.8303 91.1693C99.4286 90.7411 101.076 91.6923 101.505 93.2906C101.933 94.8889 100.981 96.5366 99.3832 96.9649C97.7849 97.3931 96.1372 96.4419 95.709 94.8436C95.5209 94.1417 95.5977 93.4321 95.8795 92.8179ZM84.1962 99.0931C84.0512 100.272 83.21 101.298 81.9965 101.624C80.3982 102.052 78.7506 101.101 78.3223 99.5023C77.894 97.904 78.8453 96.2563 80.4436 95.8281C81.6616 95.5017 82.9032 95.9698 83.6139 96.9197L86.6203 96.1142C85.395 93.5696 82.497 92.172 79.6672 92.9303C76.466 93.788 74.5668 97.0776 75.4245 100.279C76.2823 103.48 79.5718 105.379 82.773 104.521C85.6028 103.763 87.4138 101.104 87.2072 98.2863L84.2007 99.0919L84.1962 99.0931ZM81.6083 100.175C81.9926 100.072 82.3202 99.8204 82.5191 99.4758C82.718 99.1313 82.7719 98.7219 82.669 98.3376C82.566 97.9533 82.3146 97.6257 81.9701 97.4268C81.6255 97.2279 81.2161 97.174 80.8318 97.277C80.4476 97.3799 80.1199 97.6313 79.921 97.9758C79.7221 98.3204 79.6682 98.7298 79.7712 99.1141C79.8741 99.4983 80.1255 99.826 80.4701 100.025C80.8146 100.224 81.224 100.278 81.6083 100.175Z" fill="black" fill-opacity="0.1"/>
</g>
<g clip-path="url(#clip13_1722_49461)">
<path d="M133.966 69.0637C133.363 69.2251 133.009 69.8394 133.17 70.4415C133.331 71.0437 133.946 71.3984 134.548 71.237L135.712 70.9252L138.055 73.4033L131.29 75.2158L129.588 73.8277C129.308 73.597 128.933 73.518 128.584 73.6115L126.049 74.2909C125.446 74.4522 125.092 75.0665 125.253 75.6687C125.415 76.2709 126.029 76.6255 126.631 76.4642L128.61 75.934L129.983 77.0559L129.423 79.7829C128.939 79.791 128.448 79.8595 127.964 79.9894C124.763 80.8471 122.863 84.1367 123.721 87.3378C124.579 90.539 127.868 92.4382 131.07 91.5805C134.026 90.7882 135.869 87.9214 135.461 84.9686L137.68 84.3741C138.065 84.271 138.363 83.9726 138.474 83.5887L140.572 76.0625L142.041 77.6149C141.023 79.0283 140.623 80.868 141.108 82.6791C141.966 85.8802 145.255 87.7795 148.456 86.9217C151.657 86.064 153.557 82.7744 152.699 79.5733C151.841 76.3721 148.552 74.4729 145.35 75.3306C144.739 75.4944 144.176 75.7472 143.671 76.0718L137.04 69.0552C136.66 68.6522 136.094 68.4935 135.559 68.6367L133.966 69.0637ZM143.9 79.5871L146.086 81.8983C146.514 82.3516 147.227 82.3692 147.676 81.9432C148.124 81.5172 148.146 80.8028 147.72 80.354L145.534 78.0428C145.689 77.972 145.858 77.9123 146.03 77.8662C147.832 77.3833 149.681 78.4506 150.163 80.2527C150.646 82.0547 149.579 83.9033 147.777 84.3862C145.975 84.869 144.126 83.8017 143.643 81.9997C143.418 81.1575 143.53 80.3074 143.9 79.5871ZM129.946 86.4463L132.889 85.6577C132.948 87.1997 131.939 88.63 130.39 89.0449C128.588 89.5278 126.74 88.4605 126.257 86.6584C125.774 84.8564 126.841 83.0078 128.643 82.5249C128.72 82.5043 128.798 82.4882 128.877 82.4721L128.369 84.9617C128.181 85.8904 129.033 86.6959 129.947 86.4508L129.946 86.4463ZM130.89 83.8641L131.956 78.6623L136.485 82.36L136.482 82.3658L130.89 83.8641ZM133.439 76.9694L138.352 75.653L137.138 79.9965L133.435 76.9706L133.439 76.9694Z" fill="black" fill-opacity="0.1"/>
</g>
<g clip-path="url(#clip14_1722_49461)">
<path d="M175.292 62.1345L175.016 65.8288L188.318 62.2644L186.232 59.2034C185.872 58.6784 185.22 58.4358 184.604 58.6008L176.4 60.7991C175.784 60.9641 175.341 61.5003 175.292 62.1345ZM171.927 66.8894L172.302 61.9119C172.446 60.0049 173.776 58.3964 175.624 57.9014L183.828 55.703C185.675 55.208 187.632 55.9358 188.71 57.5152L191.523 61.6386C192.69 61.7918 193.711 62.6297 194.035 63.8386L195.782 70.3586L196.364 72.5319C196.579 73.3333 196.105 74.1543 195.303 74.369L193.854 74.7573C193.053 74.972 192.232 74.498 192.017 73.6966L191.435 71.5233L176.946 75.4056L177.528 77.5789C177.743 78.3803 177.269 79.2013 176.468 79.416L175.019 79.8042C174.217 80.019 173.396 79.545 173.182 78.7436L172.599 76.5702L170.852 70.0502C170.528 68.8413 170.993 67.6055 171.927 66.8894ZM177.036 69.9462C176.933 69.5619 176.682 69.2343 176.337 69.0354C175.993 68.8365 175.583 68.7826 175.199 68.8856C174.815 68.9885 174.487 69.2399 174.288 69.5844C174.089 69.929 174.035 70.3384 174.138 70.7227C174.241 71.1069 174.493 71.4346 174.837 71.6335C175.182 71.8324 175.591 71.8863 175.975 71.7833C176.36 71.6804 176.687 71.429 176.886 71.0844C177.085 70.7399 177.139 70.3305 177.036 69.9462ZM190.464 67.901C190.849 67.7981 191.176 67.5467 191.375 67.2022C191.574 66.8576 191.628 66.4482 191.525 66.0639C191.422 65.6797 191.171 65.352 190.826 65.1531C190.482 64.9542 190.072 64.9003 189.688 65.0033C189.304 65.1062 188.976 65.3576 188.777 65.7022C188.578 66.0467 188.524 66.4561 188.627 66.8404C188.73 67.2247 188.982 67.5523 189.326 67.7512C189.671 67.9501 190.08 68.004 190.464 67.901Z" fill="black" fill-opacity="0.1"/>
</g>
<g clip-path="url(#clip15_1722_49461)">
<path d="M239.224 39.3065L244.077 57.4176C244.828 60.2203 243.168 63.0965 240.365 63.8475C237.603 64.5875 234.771 62.983 233.968 60.2574L218.539 69.254C217.821 69.6698 216.907 69.4293 216.487 68.7121C216.067 67.9948 216.312 67.0799 217.029 66.6597L230.477 58.8198L226.961 45.6983C226.533 44.1 227.484 42.4523 229.082 42.0241L239.224 39.3065ZM241.179 58.194C241.025 57.6176 240.648 57.1262 240.131 56.8278C239.614 56.5294 239 56.4486 238.424 56.603C237.847 56.7575 237.356 57.1346 237.058 57.6514C236.759 58.1682 236.678 58.7823 236.833 59.3587C236.987 59.9351 237.364 60.4266 237.881 60.7249C238.398 61.0233 239.012 61.1041 239.588 60.9497C240.165 60.7952 240.656 60.4182 240.955 59.9014C241.253 59.3846 241.334 58.7704 241.179 58.194ZM213.812 56.195C213.397 55.4765 213.646 54.5604 214.36 54.1459L216.311 53.0215L218.186 56.2704C218.393 56.6273 218.853 56.7515 219.21 56.5442L220.509 55.7935C220.865 55.5863 220.99 55.1259 220.782 54.769L218.907 51.5201L220.858 50.3958C221.576 49.98 222.492 50.2295 222.907 50.9435L226.656 57.4366C227.071 58.155 226.822 59.0712 226.108 59.4857L219.612 63.2403C218.893 63.6561 217.977 63.4066 217.563 62.6926L213.812 56.195Z" fill="black" fill-opacity="0.1"/>
</g>
<g clip-path="url(#clip16_1722_49461)">
<path d="M260.717 33.5477C259.517 33.8692 258.805 35.1035 259.126 36.3034L263.009 50.7923C263.33 51.9921 264.564 52.7048 265.764 52.3833L266.489 52.1892C267.132 54.5889 269.6 56.0141 272 55.3711C274.4 54.7281 275.825 52.2595 275.182 49.8598L280.978 48.3069C281.621 50.7066 284.089 52.1319 286.489 51.4889C288.889 50.8459 290.314 48.3772 289.671 45.9775L291.12 45.5893C291.921 45.3745 292.395 44.5536 292.18 43.7522C291.966 42.9507 291.145 42.4768 290.343 42.6915L289.567 39.7937L289.179 38.3448L288.952 37.4981C288.746 36.7284 288.244 36.0717 287.556 35.6739L283.118 33.1118C282.429 32.714 281.609 32.6084 280.84 32.8147L278.544 33.4298L277.962 31.2564C277.64 30.0566 276.406 29.3439 275.206 29.6654L260.717 33.5477ZM279.321 36.3275L281.616 35.7124L286.054 38.2746L286.281 39.1213L280.485 40.6742L279.321 36.3275ZM268.662 51.6068C268.508 51.0304 268.588 50.4163 268.887 49.8995C269.185 49.3827 269.677 49.0056 270.253 48.8511C270.829 48.6967 271.444 48.7776 271.96 49.0759C272.477 49.3743 272.854 49.8657 273.009 50.4421C273.163 51.0185 273.082 51.6327 272.784 52.1495C272.486 52.6663 271.994 53.0434 271.418 53.1978C270.841 53.3523 270.227 53.2714 269.71 52.973C269.194 52.6747 268.816 52.1832 268.662 51.6068ZM284.742 44.9689C285.318 44.8144 285.932 44.8953 286.449 45.1936C286.966 45.492 287.343 45.9834 287.498 46.5598C287.652 47.1363 287.571 47.7504 287.273 48.2672C286.974 48.784 286.483 49.1611 285.907 49.3155C285.33 49.47 284.716 49.3891 284.199 49.0907C283.682 48.7924 283.305 48.3009 283.151 47.7245C282.996 47.1481 283.077 46.534 283.376 46.0172C283.674 45.5004 284.166 45.1233 284.742 44.9689Z" fill="black" fill-opacity="0.1"/>
</g>
<g clip-path="url(#clip17_1722_49461)">
<path d="M311 25.1216L312.067 29.106L316.414 27.9414L315.249 23.5947L311.265 24.6623C311.066 24.7157 310.946 24.9224 311 25.1216ZM333.891 23.2584L329.064 19.8932L325.392 20.8771L326.556 25.2238L333.891 23.2584ZM323.659 26.0002L322.494 21.6536L318.147 22.8182L319.312 27.1649L323.659 26.0002ZM338.303 31.3936L337.579 31.5877C338.222 33.9874 336.797 36.4561 334.397 37.0991C331.997 37.7421 329.529 36.3168 328.886 33.9171L323.09 35.47C323.733 37.8697 322.308 40.3384 319.908 40.9814C317.508 41.6244 315.04 40.1991 314.397 37.7994L313.672 37.9935C312.473 38.315 311.238 37.6024 310.917 36.4025L308.102 25.8981C307.619 24.096 308.686 22.2474 310.489 21.7645L315.922 20.3087L323.166 18.3675L328.287 16.9954C329.143 16.7661 330.054 16.9247 330.782 17.4333L337.402 22.0509C337.98 22.4539 338.397 23.0507 338.581 23.7343L339.894 28.6379C340.216 29.8378 339.503 31.0721 338.303 31.3936ZM335.406 32.1701C335.251 31.5937 334.874 31.1022 334.357 30.8039C333.841 30.5055 333.226 30.4246 332.65 30.5791C332.074 30.7335 331.582 31.1106 331.284 31.6274C330.985 32.1442 330.905 32.7583 331.059 33.3348C331.213 33.9112 331.591 34.4026 332.107 34.701C332.624 34.9993 333.238 35.0802 333.815 34.9257C334.391 34.7713 334.883 34.3942 335.181 33.8774C335.479 33.3606 335.56 32.7465 335.406 32.1701ZM319.326 38.808C319.902 38.6536 320.394 38.2765 320.692 37.7597C320.99 37.2429 321.071 36.6288 320.917 36.0524C320.762 35.4759 320.385 34.9845 319.868 34.6861C319.352 34.3878 318.738 34.3069 318.161 34.4614C317.585 34.6158 317.093 34.9929 316.795 35.5097C316.497 36.0265 316.416 36.6406 316.57 37.217C316.725 37.7934 317.102 38.2849 317.618 38.5833C318.135 38.8816 318.749 38.9625 319.326 38.808Z" fill="black" fill-opacity="0.1"/>
</g>
<g clip-path="url(#clip18_1722_49461)">
<path d="M355.718 10.4215C355.397 9.22164 356.109 7.98733 357.309 7.66583L371.798 3.78354C372.998 3.46204 374.232 4.17467 374.554 5.37453L375.136 7.54786L377.432 6.93276C378.201 6.72652 379.021 6.83212 379.71 7.22987L384.147 9.79203C384.836 10.1898 385.337 10.8465 385.544 11.6162L385.77 12.4629L386.159 13.9118L386.935 16.8096C387.737 16.5949 388.558 17.0688 388.772 17.8703C388.987 18.6717 388.513 19.4926 387.712 19.7074L386.263 20.0956C386.906 22.4953 385.48 24.964 383.081 25.607C380.681 26.25 378.212 24.8247 377.569 22.425L371.774 23.9779C372.417 26.3776 370.992 28.8462 368.592 29.4892C366.192 30.1322 363.723 28.707 363.08 26.3073L362.356 26.5014C361.156 26.8229 359.922 26.1103 359.6 24.9104L355.718 10.4215ZM377.077 14.7923L382.873 13.2394L382.646 12.3927L378.208 9.83054L375.912 10.4456L377.077 14.7923ZM368.009 27.3159C368.586 27.1615 369.077 26.7844 369.376 26.2676C369.674 25.7508 369.755 25.1366 369.6 24.5602C369.446 23.9838 369.069 23.4924 368.552 23.194C368.035 22.8957 367.421 22.8148 366.845 22.9692C366.268 23.1237 365.777 23.5008 365.479 24.0176C365.18 24.5344 365.099 25.1485 365.254 25.7249C365.408 26.3013 365.785 26.7928 366.302 27.0911C366.819 27.3895 367.433 27.4704 368.009 27.3159ZM384.089 20.678C383.935 20.1015 383.558 19.6101 383.041 19.3117C382.524 19.0134 381.91 18.9325 381.334 19.087C380.757 19.2414 380.266 19.6185 379.967 20.1353C379.669 20.6521 379.588 21.2662 379.743 21.8426C379.897 22.419 380.274 22.9105 380.791 23.2089C381.308 23.5072 381.922 23.5881 382.498 23.4336C383.075 23.2792 383.566 22.9021 383.865 22.3853C384.163 21.8685 384.244 21.2544 384.089 20.678ZM367.925 9.4316C367.385 9.12003 366.697 9.30444 366.39 9.84288C366.083 10.3813 366.263 11.0708 366.801 11.3778L369.04 12.6705L361.521 14.6901C360.918 14.8515 360.564 15.4658 360.725 16.068C360.886 16.6702 361.501 17.0248 362.103 16.8635L369.624 14.8483L368.331 17.0873C368.019 17.627 368.204 18.3152 368.742 18.6222C369.281 18.9293 369.97 18.7494 370.277 18.211L372.929 13.6182C373.24 13.0785 373.056 12.3903 372.517 12.0832L367.925 9.4316Z" fill="black" fill-opacity="0.1"/>
</g>
<g clip-path="url(#clip19_1722_49461)">
<path d="M-6.50349 156.399L-6.78019 160.093L6.52242 156.529L4.43562 153.468C4.07657 152.943 3.42438 152.7 2.8086 152.865L-5.39573 155.064C-6.01151 155.229 -6.45503 155.765 -6.50349 156.399ZM-9.86876 161.154L-9.49426 156.176C-9.3501 154.269 -8.01952 152.661 -6.17219 152.166L2.03214 149.968C3.87948 149.473 5.83607 150.2 6.91441 151.78L9.72746 155.903C10.8944 156.056 11.9148 156.894 12.2387 158.103L13.9857 164.623L14.5681 166.796C14.7828 167.598 14.3088 168.419 13.5074 168.634L12.0585 169.022C11.2571 169.237 10.4361 168.763 10.2214 167.961L9.63905 165.788L-4.84984 169.67L-4.2675 171.843C-4.05276 172.645 -4.52674 173.466 -5.32816 173.681L-6.77704 174.069C-7.57846 174.283 -8.39942 173.81 -8.61416 173.008L-9.1965 170.835L-10.9435 164.315C-11.2675 163.106 -10.8027 161.87 -9.86876 161.154ZM-4.75975 164.211C-4.86271 163.826 -5.11411 163.499 -5.45864 163.3C-5.80316 163.101 -6.2126 163.047 -6.59687 163.15C-6.98114 163.253 -7.30876 163.504 -7.50768 163.849C-7.70659 164.193 -7.76049 164.603 -7.65753 164.987C-7.55456 165.371 -7.30316 165.699 -6.95864 165.898C-6.61411 166.097 -6.20468 166.151 -5.82041 166.048C-5.43614 165.945 -5.10851 165.693 -4.9096 165.349C-4.71069 165.004 -4.65678 164.595 -4.75975 164.211ZM8.66848 162.166C9.05275 162.063 9.38038 161.811 9.57929 161.467C9.7782 161.122 9.8321 160.713 9.72914 160.328C9.62617 159.944 9.37478 159.617 9.03025 159.418C8.68572 159.219 8.27629 159.165 7.89202 159.268C7.50775 159.371 7.18012 159.622 6.98121 159.967C6.7823 160.311 6.7284 160.721 6.83136 161.105C6.93432 161.489 7.18572 161.817 7.53025 162.016C7.87478 162.215 8.28421 162.269 8.66848 162.166Z" fill="black" fill-opacity="0.1"/>
</g>
<g clip-path="url(#clip20_1722_49461)">
<path d="M30.6245 140.753C29.4246 141.075 28.712 142.309 29.0335 143.509L32.9158 157.998C33.2373 159.198 34.4716 159.91 35.6715 159.589L36.3959 159.395C37.0389 161.794 39.5076 163.22 41.9073 162.577C44.307 161.934 45.7323 159.465 45.0893 157.065L50.8848 155.512C51.5278 157.912 53.9964 159.337 56.3962 158.694C58.7959 158.051 60.2211 155.583 59.5781 153.183L61.027 152.795C61.8284 152.58 62.3024 151.759 62.0877 150.958C61.873 150.156 61.052 149.682 60.2506 149.897L59.4741 146.999L59.0859 145.55L58.859 144.704C58.6528 143.934 58.1517 143.277 57.4627 142.879L53.0249 140.317C52.336 139.92 51.5167 139.814 50.747 140.02L48.4514 140.635L47.8691 138.462C47.5476 137.262 46.3133 136.549 45.1134 136.871L30.6245 140.753ZM49.2279 143.533L51.5235 142.918L55.9612 145.48L56.1881 146.327L50.3926 147.88L49.2279 143.533ZM38.5693 158.812C38.4148 158.236 38.4957 157.622 38.794 157.105C39.0924 156.588 39.5838 156.211 40.1602 156.057C40.7366 155.902 41.3508 155.983 41.8676 156.281C42.3844 156.58 42.7615 157.071 42.9159 157.648C43.0704 158.224 42.9895 158.838 42.6911 159.355C42.3928 159.872 41.9013 160.249 41.3249 160.403C40.7485 160.558 40.1344 160.477 39.6176 160.179C39.1008 159.88 38.7237 159.389 38.5693 158.812ZM54.6491 152.174C55.2255 152.02 55.8397 152.101 56.3565 152.399C56.8733 152.698 57.2504 153.189 57.4048 153.765C57.5593 154.342 57.4784 154.956 57.18 155.473C56.8817 155.989 56.3902 156.367 55.8138 156.521C55.2374 156.675 54.6233 156.595 54.1065 156.296C53.5897 155.998 53.2126 155.506 53.0581 154.93C52.9037 154.354 52.9845 153.739 53.2829 153.223C53.5813 152.706 54.0727 152.329 54.6491 152.174Z" fill="black" fill-opacity="0.1"/>
</g>
<g clip-path="url(#clip21_1722_49461)">
<path d="M80.907 132.327L81.9747 136.312L86.3213 135.147L85.1566 130.8L81.1722 131.868C80.973 131.921 80.8537 132.128 80.907 132.327ZM103.799 130.464L98.9709 127.099L95.2989 128.083L96.4635 132.429L103.799 130.464ZM93.5658 133.206L92.4011 128.859L88.0544 130.024L89.2191 134.37L93.5658 133.206ZM108.211 138.599L107.486 138.793C108.129 141.193 106.704 143.662 104.304 144.305C101.905 144.948 99.4359 143.522 98.7929 141.123L92.9974 142.676C93.6404 145.075 92.2151 147.544 89.8154 148.187C87.4157 148.83 84.947 147.405 84.304 145.005L83.5796 145.199C82.3797 145.521 81.1454 144.808 80.8239 143.608L78.0093 133.104C77.5264 131.302 78.5937 129.453 80.3957 128.97L85.8291 127.514L93.0735 125.573L98.1944 124.201C99.0502 123.972 99.9614 124.13 100.69 124.639L107.309 129.256C107.887 129.659 108.305 130.256 108.488 130.94L109.802 135.843C110.123 137.043 109.411 138.278 108.211 138.599ZM105.313 139.376C105.158 138.799 104.781 138.308 104.265 138.009C103.748 137.711 103.134 137.63 102.557 137.785C101.981 137.939 101.489 138.316 101.191 138.833C100.893 139.35 100.812 139.964 100.966 140.54C101.121 141.117 101.498 141.608 102.015 141.906C102.531 142.205 103.146 142.286 103.722 142.131C104.298 141.977 104.79 141.6 105.088 141.083C105.387 140.566 105.467 139.952 105.313 139.376ZM89.233 146.014C89.8094 145.859 90.3009 145.482 90.5993 144.965C90.8976 144.448 90.9785 143.834 90.824 143.258C90.6696 142.681 90.2925 142.19 89.7757 141.892C89.2589 141.593 88.6448 141.512 88.0684 141.667C87.492 141.821 87.0005 142.198 86.7021 142.715C86.4038 143.232 86.3229 143.846 86.4774 144.423C86.6318 144.999 87.0089 145.49 87.5257 145.789C88.0425 146.087 88.6566 146.168 89.233 146.014Z" fill="black" fill-opacity="0.1"/>
</g>
<g clip-path="url(#clip22_1722_49461)">
<path d="M125.625 117.627C125.304 116.427 126.016 115.193 127.216 114.871L141.705 110.989C142.905 110.668 144.139 111.38 144.461 112.58L145.043 114.753L147.339 114.138C148.109 113.932 148.928 114.038 149.617 114.435L154.055 116.998C154.743 117.395 155.245 118.052 155.451 118.822L155.678 119.668L156.066 121.117L156.842 124.015C157.644 123.8 158.465 124.274 158.679 125.076C158.894 125.877 158.42 126.698 157.619 126.913L156.17 127.301C156.813 129.701 155.388 132.169 152.988 132.812C150.588 133.455 148.12 132.03 147.477 129.63L141.681 131.183C142.324 133.583 140.899 136.052 138.499 136.695C136.099 137.338 133.631 135.912 132.988 133.513L132.263 133.707C131.063 134.028 129.829 133.316 129.508 132.116L125.625 117.627ZM146.984 121.998L152.78 120.445L152.553 119.598L148.115 117.036L145.82 117.651L146.984 121.998ZM137.917 134.521C138.493 134.367 138.985 133.99 139.283 133.473C139.581 132.956 139.662 132.342 139.508 131.766C139.353 131.189 138.976 130.698 138.459 130.4C137.943 130.101 137.328 130.02 136.752 130.175C136.176 130.329 135.684 130.706 135.386 131.223C135.087 131.74 135.007 132.354 135.161 132.93C135.315 133.507 135.693 133.998 136.209 134.297C136.726 134.595 137.34 134.676 137.917 134.521ZM153.997 127.883C153.842 127.307 153.465 126.816 152.948 126.517C152.431 126.219 151.817 126.138 151.241 126.292C150.665 126.447 150.173 126.824 149.875 127.341C149.576 127.858 149.495 128.472 149.65 129.048C149.804 129.625 150.181 130.116 150.698 130.414C151.215 130.713 151.829 130.794 152.406 130.639C152.982 130.485 153.473 130.108 153.772 129.591C154.07 129.074 154.151 128.46 153.997 127.883ZM137.832 116.637C137.292 116.326 136.604 116.51 136.297 117.048C135.99 117.587 136.17 118.276 136.708 118.583L138.947 119.876L131.428 121.896C130.826 122.057 130.471 122.671 130.632 123.273C130.794 123.876 131.408 124.23 132.01 124.069L139.531 122.054L138.238 124.293C137.927 124.832 138.111 125.521 138.649 125.828C139.188 126.135 139.877 125.955 140.184 125.416L142.836 120.824C143.148 120.284 142.963 119.596 142.425 119.289L137.832 116.637Z" fill="black" fill-opacity="0.1"/>
</g>
<g clip-path="url(#clip23_1722_49461)">
<path d="M180.886 106.188L180.609 109.882L193.912 106.318L191.825 103.257C191.466 102.732 190.814 102.489 190.198 102.654L181.994 104.853C181.378 105.018 180.935 105.554 180.886 106.188ZM177.521 110.943L177.895 105.965C178.04 104.059 179.37 102.45 181.217 101.955L189.422 99.7566C191.269 99.2616 193.226 99.9894 194.304 101.569L197.117 105.692C198.284 105.845 199.304 106.683 199.628 107.892L201.375 114.412L201.958 116.586C202.172 117.387 201.698 118.208 200.897 118.423L199.448 118.811C198.647 119.026 197.826 118.552 197.611 117.75L197.029 115.577L182.54 119.459L183.122 121.632C183.337 122.434 182.863 123.255 182.061 123.47L180.613 123.858C179.811 124.073 178.99 123.599 178.775 122.797L178.193 120.624L176.446 114.104C176.122 112.895 176.587 111.659 177.521 110.943ZM182.63 114C182.527 113.616 182.276 113.288 181.931 113.089C181.586 112.89 181.177 112.836 180.793 112.939C180.409 113.042 180.081 113.294 179.882 113.638C179.683 113.983 179.629 114.392 179.732 114.776C179.835 115.161 180.086 115.488 180.431 115.687C180.776 115.886 181.185 115.94 181.569 115.837C181.954 115.734 182.281 115.483 182.48 115.138C182.679 114.794 182.733 114.384 182.63 114ZM196.058 111.955C196.442 111.852 196.77 111.6 196.969 111.256C197.168 110.911 197.222 110.502 197.119 110.118C197.016 109.733 196.764 109.406 196.42 109.207C196.075 109.008 195.666 108.954 195.282 109.057C194.897 109.16 194.57 109.411 194.371 109.756C194.172 110.1 194.118 110.51 194.221 110.894C194.324 111.278 194.575 111.606 194.92 111.805C195.264 112.004 195.674 112.058 196.058 111.955Z" fill="black" fill-opacity="0.1"/>
</g>
<g clip-path="url(#clip24_1722_49461)">
<path d="M216.423 93.298C216.102 92.0982 216.814 90.8639 218.014 90.5424L232.503 86.6601C233.703 86.3386 234.937 87.0512 235.259 88.2511L235.841 90.4244L238.137 89.8093C238.906 89.603 239.726 89.7087 240.415 90.1064L244.852 92.6686C245.541 93.0663 246.042 93.723 246.249 94.4928L246.476 95.3395L246.864 96.7884L247.64 99.6861C248.442 99.4714 249.263 99.9454 249.477 100.747C249.692 101.548 249.218 102.369 248.417 102.584L246.968 102.972C247.611 105.372 246.186 107.84 243.786 108.483C241.386 109.126 238.917 107.701 238.274 105.302L232.479 106.854C233.122 109.254 231.697 111.723 229.297 112.366C226.897 113.009 224.429 111.584 223.786 109.184L223.061 109.378C221.861 109.699 220.627 108.987 220.305 107.787L216.423 93.298ZM237.782 97.6688L243.578 96.1159L243.351 95.2692L238.913 92.7071L236.618 93.3222L237.782 97.6688ZM228.715 110.192C229.291 110.038 229.782 109.661 230.081 109.144C230.379 108.627 230.46 108.013 230.306 107.437C230.151 106.86 229.774 106.369 229.257 106.071C228.74 105.772 228.126 105.691 227.55 105.846C226.973 106 226.482 106.377 226.184 106.894C225.885 107.411 225.804 108.025 225.959 108.601C226.113 109.178 226.49 109.669 227.007 109.968C227.524 110.266 228.138 110.347 228.715 110.192ZM244.794 103.554C244.64 102.978 244.263 102.487 243.746 102.188C243.229 101.89 242.615 101.809 242.039 101.963C241.462 102.118 240.971 102.495 240.673 103.012C240.374 103.529 240.293 104.143 240.448 104.719C240.602 105.296 240.979 105.787 241.496 106.085C242.013 106.384 242.627 106.465 243.203 106.31C243.78 106.156 244.271 105.779 244.57 105.262C244.868 104.745 244.949 104.131 244.794 103.554ZM228.63 92.3081C228.09 91.9966 227.402 92.181 227.095 92.7194C226.788 93.2578 226.968 93.9473 227.506 94.2543L229.745 95.547L222.226 97.5667C221.623 97.728 221.269 98.3423 221.43 98.9445C221.592 99.5467 222.206 99.9014 222.808 99.74L230.329 97.7249L229.036 99.9638C228.724 100.503 228.909 101.192 229.447 101.499C229.986 101.806 230.675 101.626 230.982 101.087L233.634 96.4947C233.945 95.955 233.761 95.2668 233.223 94.9598L228.63 92.3081Z" fill="black" fill-opacity="0.1"/>
</g>
<g clip-path="url(#clip25_1722_49461)">
<path d="M278.652 75.8474C278.05 76.0088 277.695 76.623 277.857 77.2252C278.018 77.8274 278.632 78.1821 279.234 78.0207L280.398 77.7089L282.741 80.1869L275.977 81.9995L274.275 80.6114C273.995 80.3807 273.619 80.3017 273.271 80.3951L270.735 81.0745C270.133 81.2359 269.778 81.8502 269.94 82.4524C270.101 83.0546 270.715 83.4092 271.318 83.2479L273.296 82.7177L274.669 83.8396L274.109 86.5666C273.626 86.5747 273.135 86.6432 272.65 86.773C269.449 87.6308 267.55 90.9204 268.408 94.1215C269.265 97.3227 272.555 99.2219 275.756 98.3642C278.713 97.5719 280.555 94.7051 280.148 91.7523L282.366 91.1578C282.751 91.0547 283.05 90.7563 283.16 90.3724L285.259 82.8462L286.728 84.3986C285.709 85.812 285.309 87.6517 285.794 89.4628C286.652 92.6639 289.942 94.5632 293.143 93.7054C296.344 92.8477 298.243 89.5581 297.385 86.3569C296.528 83.1558 293.238 81.2566 290.037 82.1143C289.426 82.2781 288.863 82.5309 288.358 82.8555L281.726 75.8389C281.347 75.4359 280.78 75.2772 280.246 75.4203L278.652 75.8474ZM288.586 86.3708L290.773 88.682C291.2 89.1353 291.913 89.1529 292.362 88.7269C292.811 88.3009 292.833 87.5865 292.407 87.1377L290.22 84.8265C290.376 84.7556 290.544 84.696 290.716 84.6499C292.518 84.167 294.367 85.2343 294.85 87.0363C295.333 88.8384 294.265 90.687 292.463 91.1699C290.661 91.6527 288.813 90.5854 288.33 88.7834C288.104 87.9412 288.216 87.0911 288.586 86.3708ZM274.633 93.23L277.576 92.4414C277.635 93.9834 276.625 95.4137 275.077 95.8286C273.275 96.3115 271.426 95.2442 270.943 93.4421C270.46 91.6401 271.528 89.7915 273.33 89.3086C273.407 89.288 273.485 89.2719 273.563 89.2558L273.056 91.7454C272.868 92.6741 273.719 93.4796 274.634 93.2345L274.633 93.23ZM275.576 90.6478L276.643 85.446L281.171 89.1437L281.168 89.1495L275.576 90.6478ZM278.126 83.753L283.038 82.4367L281.824 86.7802L278.121 83.7543L278.126 83.753Z" fill="black" fill-opacity="0.1"/>
</g>
<g clip-path="url(#clip26_1722_49461)">
<path d="M321.514 64.3623C321.3 63.5609 321.774 62.74 322.575 62.5252L328.371 60.9723C329.172 60.7576 329.993 61.2315 330.208 62.033L330.596 63.4818L332.769 62.8995C333.969 62.578 335.203 63.2906 335.525 64.4905L337.078 70.2861L339.268 70.4175C340.407 70.4859 341.058 71.7575 340.442 72.7184L336.993 78.1365C336.373 78.7587 335.605 79.2412 334.871 79.4377C333.984 79.6755 332.93 79.5841 331.945 79.2368C330.756 78.8031 329.42 79.161 328.608 80.131C327.976 80.8727 327.133 81.5111 326.173 81.7683C325.44 81.9649 324.533 81.9312 323.686 81.7022L317.989 78.7348C316.974 78.2061 316.903 76.7837 317.856 76.1548L319.691 74.9448L318.138 69.1492C317.817 67.9494 318.529 66.7151 319.729 66.3936L321.903 65.8112L321.514 64.3623ZM322.33 73.2039L326.776 70.2706C327.316 69.9125 327.959 69.7402 328.61 69.7793L333.922 70.0981L332.821 65.9914L321.23 69.0972L322.33 73.2039ZM331.429 80.627C332.636 81.0558 334.009 81.2021 335.255 80.8685C336.473 80.5422 337.632 79.7074 338.442 78.7477C338.878 78.2185 339.62 78.0537 340.238 78.3491C341.034 78.7132 341.964 78.9057 342.835 78.8762C343.662 78.8487 344.355 79.4976 344.383 80.325C344.41 81.1523 343.761 81.8454 342.934 81.873C341.756 81.9121 340.701 81.6706 339.996 81.4471C338.872 82.5053 337.525 83.3659 336.031 83.7663C334.587 84.1533 333.167 84.0532 332.161 83.886C331.866 83.8341 331.595 83.7807 331.362 83.7266C331.187 83.8898 330.984 84.0752 330.749 84.2645C329.961 84.9122 328.782 85.7086 327.338 86.0957C325.844 86.496 324.247 86.424 322.746 86.074C322.241 86.6169 321.454 87.3567 320.414 87.912C319.684 88.3018 318.775 88.026 318.385 87.2958C317.996 86.5655 318.272 85.6569 319.002 85.2671C319.77 84.8574 320.479 84.2258 320.987 83.5122C321.376 82.952 322.101 82.7237 322.741 82.9597C323.926 83.3798 325.343 83.5242 326.561 83.1979C327.806 82.8643 328.923 82.0507 329.754 81.0759C330.16 80.5835 330.831 80.404 331.429 80.627Z" fill="black" fill-opacity="0.1"/>
</g>
<g clip-path="url(#clip27_1722_49461)">
<path d="M370.897 51.1302C370.295 51.2915 369.94 51.9058 370.101 52.508C370.263 53.1102 370.877 53.4649 371.479 53.3035L374.092 52.6035L375.202 53.7764L371.751 58.6658L369.151 57.1643C368.462 56.7665 367.642 56.6609 366.873 56.8672L362.281 58.0974C361.48 58.3121 361.006 59.1331 361.221 59.9345L361.609 61.3834L365.956 60.2187C369.958 59.1462 374.069 61.5194 375.141 65.522C375.275 66.0201 375.355 66.5179 375.385 67.0097L378.572 66.1556C378.352 65.7147 378.173 65.2436 378.039 64.7455C377.406 62.382 377.975 59.9779 379.373 58.1862L380.417 59.2943C379.403 60.7066 379.003 62.5462 379.488 64.3573C380.346 67.5585 383.635 69.4577 386.836 68.6C390.038 67.7422 391.937 64.4526 391.079 61.2515C390.221 58.0503 386.932 56.1511 383.731 57.0088C383.119 57.1726 382.556 57.4254 382.051 57.75L378.319 53.8002L381.117 53.0504C381.918 52.8357 382.392 52.0147 382.178 51.2133L381.789 49.7644C381.575 48.963 380.754 48.489 379.952 48.7037L379.029 48.9512C378.689 49.0422 378.395 49.2473 378.19 49.535L376.523 51.8985L375.574 50.8912C375.101 50.392 374.391 50.189 373.725 50.3674L370.897 51.1302ZM382.556 61.5552L384.466 63.5766C384.894 64.0299 385.607 64.0474 386.056 63.6215C386.504 63.1955 386.527 62.481 386.101 62.0322L384.19 60.0109C384.291 59.9694 384.398 59.9357 384.507 59.9066C386.105 59.4784 387.753 60.4296 388.181 62.0279C388.61 63.6263 387.658 65.2739 386.06 65.7022C384.462 66.1304 382.814 65.1792 382.386 63.5809C382.198 62.8791 382.274 62.1694 382.556 61.5552ZM370.873 67.8304C370.728 69.0097 369.887 70.0358 368.673 70.3609C367.075 70.7892 365.427 69.8379 364.999 68.2396C364.571 66.6413 365.522 64.9936 367.12 64.5654C368.338 64.239 369.58 64.7071 370.291 65.657L373.297 64.8515C372.072 62.3069 369.174 60.9093 366.344 61.6676C363.143 62.5253 361.244 65.8149 362.101 69.0161C362.959 72.2172 366.249 74.1164 369.45 73.2587C372.28 72.5004 374.091 69.8411 373.884 67.0236L370.877 67.8292L370.873 67.8304ZM368.285 68.912C368.669 68.8091 368.997 68.5577 369.196 68.2131C369.395 67.8686 369.449 67.4592 369.346 67.0749C369.243 66.6906 368.991 66.363 368.647 66.1641C368.302 65.9652 367.893 65.9113 367.509 66.0143C367.124 66.1172 366.797 66.3686 366.598 66.7131C366.399 67.0577 366.345 67.4671 366.448 67.8514C366.551 68.2356 366.802 68.5633 367.147 68.7622C367.491 68.9611 367.901 69.015 368.285 68.912Z" fill="black" fill-opacity="0.1"/>
</g>
<g clip-path="url(#clip28_1722_49461)">
<path d="M156.742 154.065C156.14 154.227 155.785 154.841 155.946 155.443C156.108 156.045 156.722 156.4 157.324 156.239L158.488 155.927L160.831 158.405L154.066 160.217L152.365 158.829C152.085 158.598 151.709 158.52 151.361 158.613L148.825 159.292C148.223 159.454 147.868 160.068 148.03 160.67C148.191 161.272 148.805 161.627 149.407 161.466L151.386 160.935L152.759 162.057L152.199 164.784C151.716 164.792 151.225 164.861 150.74 164.991C147.539 165.849 145.64 169.138 146.498 172.339C147.355 175.54 150.645 177.44 153.846 176.582C156.803 175.79 158.645 172.923 158.237 169.97L160.456 169.376C160.841 169.272 161.14 168.974 161.25 168.59L163.349 161.064L164.818 162.616C163.799 164.03 163.399 165.869 163.884 167.681C164.742 170.882 168.032 172.781 171.233 171.923C174.434 171.065 176.333 167.776 175.475 164.575C174.618 161.374 171.328 159.474 168.127 160.332C167.516 160.496 166.952 160.749 166.447 161.073L159.816 154.057C159.437 153.654 158.87 153.495 158.336 153.638L156.742 154.065ZM166.676 164.589L168.863 166.9C169.29 167.353 170.003 167.371 170.452 166.945C170.901 166.519 170.923 165.804 170.497 165.355L168.31 163.044C168.466 162.973 168.634 162.914 168.806 162.868C170.608 162.385 172.457 163.452 172.94 165.254C173.423 167.056 172.355 168.905 170.553 169.388C168.751 169.87 166.903 168.803 166.42 167.001C166.194 166.159 166.306 165.309 166.676 164.589ZM152.723 171.448L155.666 170.659C155.725 172.201 154.715 173.631 153.167 174.046C151.365 174.529 149.516 173.462 149.033 171.66C148.55 169.858 149.618 168.009 151.42 167.526C151.497 167.506 151.575 167.49 151.653 167.474L151.146 169.963C150.958 170.892 151.809 171.697 152.724 171.452L152.723 171.448ZM153.666 168.866L154.733 163.664L159.261 167.361L159.258 167.367L153.666 168.866ZM156.215 161.971L161.128 160.654L159.914 164.998L156.211 161.972L156.215 161.971Z" fill="black" fill-opacity="0.1"/>
</g>
<g clip-path="url(#clip29_1722_49461)">
<path d="M198.069 147.136L197.792 150.83L211.095 147.266L209.008 144.205C208.649 143.68 207.997 143.437 207.381 143.602L199.177 145.801C198.561 145.966 198.117 146.502 198.069 147.136ZM194.704 151.891L195.078 146.913C195.222 145.006 196.553 143.398 198.4 142.903L206.604 140.704C208.452 140.209 210.408 140.937 211.487 142.517L214.3 146.64C215.467 146.793 216.487 147.631 216.811 148.84L218.558 155.36L219.14 157.533C219.355 158.335 218.881 159.156 218.08 159.37L216.631 159.759C215.829 159.973 215.008 159.499 214.794 158.698L214.211 156.525L199.722 160.407L200.305 162.58C200.52 163.382 200.046 164.203 199.244 164.417L197.795 164.806C196.994 165.02 196.173 164.546 195.958 163.745L195.376 161.572L193.629 155.052C193.305 153.843 193.77 152.607 194.704 151.891ZM199.813 154.948C199.71 154.563 199.458 154.236 199.114 154.037C198.769 153.838 198.36 153.784 197.975 153.887C197.591 153.99 197.264 154.241 197.065 154.586C196.866 154.93 196.812 155.34 196.915 155.724C197.018 156.108 197.269 156.436 197.614 156.635C197.958 156.834 198.368 156.888 198.752 156.785C199.136 156.682 199.464 156.43 199.663 156.086C199.862 155.741 199.915 155.332 199.813 154.948ZM213.241 152.903C213.625 152.8 213.953 152.548 214.152 152.204C214.35 151.859 214.404 151.45 214.301 151.065C214.198 150.681 213.947 150.353 213.603 150.155C213.258 149.956 212.849 149.902 212.464 150.005C212.08 150.108 211.752 150.359 211.553 150.704C211.355 151.048 211.301 151.458 211.404 151.842C211.507 152.226 211.758 152.554 212.103 152.753C212.447 152.952 212.856 153.005 213.241 152.903Z" fill="black" fill-opacity="0.1"/>
</g>
<g clip-path="url(#clip30_1722_49461)">
<path d="M262.001 124.308L266.854 142.419C267.605 145.222 265.944 148.098 263.141 148.849C260.379 149.589 257.547 147.985 256.744 145.259L241.316 154.255C240.597 154.671 239.684 154.431 239.263 153.714C238.843 152.996 239.088 152.081 239.805 151.661L253.253 143.821L249.737 130.7C249.309 129.101 250.26 127.454 251.859 127.026L262.001 124.308ZM263.956 143.195C263.801 142.619 263.424 142.128 262.908 141.829C262.391 141.531 261.777 141.45 261.2 141.604C260.624 141.759 260.132 142.136 259.834 142.653C259.536 143.17 259.455 143.784 259.609 144.36C259.764 144.937 260.141 145.428 260.658 145.726C261.174 146.025 261.788 146.106 262.365 145.951C262.941 145.797 263.433 145.42 263.731 144.903C264.029 144.386 264.11 143.772 263.956 143.195ZM236.589 141.196C236.173 140.478 236.423 139.562 237.136 139.147L239.087 138.023L240.962 141.272C241.169 141.629 241.63 141.753 241.986 141.546L243.285 140.795C243.642 140.588 243.766 140.127 243.559 139.77L241.684 136.522L243.634 135.397C244.353 134.981 245.269 135.231 245.683 135.945L249.432 142.438C249.848 143.157 249.598 144.073 248.884 144.487L242.388 148.242C241.67 148.658 240.753 148.408 240.339 147.694L236.589 141.196Z" fill="black" fill-opacity="0.1"/>
</g>
<g clip-path="url(#clip31_1722_49461)">
<path d="M283.494 118.549C282.294 118.871 281.581 120.105 281.903 121.305L285.785 135.794C286.106 136.994 287.341 137.706 288.541 137.385L289.265 137.191C289.908 139.59 292.377 141.016 294.776 140.373C297.176 139.73 298.601 137.261 297.958 134.861L303.754 133.308C304.397 135.708 306.866 137.133 309.265 136.49C311.665 135.847 313.09 133.379 312.447 130.979L313.896 130.591C314.698 130.376 315.172 129.555 314.957 128.754C314.742 127.952 313.921 127.478 313.12 127.693L312.343 124.795L311.955 123.346L311.728 122.5C311.522 121.73 311.021 121.073 310.332 120.675L305.894 118.113C305.205 117.715 304.386 117.61 303.616 117.816L301.321 118.431L300.738 116.258C300.417 115.058 299.182 114.345 297.983 114.667L283.494 118.549ZM302.097 121.329L304.393 120.714L308.83 123.276L309.057 124.123L303.262 125.676L302.097 121.329ZM291.438 136.608C291.284 136.032 291.365 135.418 291.663 134.901C291.962 134.384 292.453 134.007 293.029 133.853C293.606 133.698 294.22 133.779 294.737 134.077C295.254 134.376 295.631 134.867 295.785 135.444C295.94 136.02 295.859 136.634 295.56 137.151C295.262 137.668 294.77 138.045 294.194 138.199C293.618 138.354 293.004 138.273 292.487 137.974C291.97 137.676 291.593 137.185 291.438 136.608ZM307.518 129.97C308.095 129.816 308.709 129.897 309.226 130.195C309.742 130.493 310.12 130.985 310.274 131.561C310.428 132.138 310.348 132.752 310.049 133.269C309.751 133.785 309.259 134.163 308.683 134.317C308.107 134.471 307.492 134.391 306.976 134.092C306.459 133.794 306.082 133.302 305.927 132.726C305.773 132.15 305.854 131.535 306.152 131.019C306.45 130.502 306.942 130.125 307.518 129.97Z" fill="black" fill-opacity="0.1"/>
</g>
<g clip-path="url(#clip32_1722_49461)">
<path d="M333.776 110.123L334.844 114.108L339.19 112.943L338.026 108.596L334.041 109.664C333.842 109.717 333.723 109.924 333.776 110.123ZM356.668 108.26L351.84 104.895L348.168 105.879L349.333 110.225L356.668 108.26ZM346.435 111.002L345.27 106.655L340.924 107.82L342.088 112.166L346.435 111.002ZM361.08 116.395L360.355 116.589C360.998 118.989 359.573 121.458 357.173 122.101C354.774 122.744 352.305 121.318 351.662 118.919L345.867 120.471C346.51 122.871 345.084 125.34 342.685 125.983C340.285 126.626 337.816 125.201 337.173 122.801L336.449 122.995C335.249 123.316 334.015 122.604 333.693 121.404L330.878 110.9C330.396 109.097 331.463 107.249 333.265 106.766L338.698 105.31L345.943 103.369L351.064 101.997C351.919 101.768 352.83 101.926 353.559 102.435L360.178 107.052C360.757 107.455 361.174 108.052 361.357 108.736L362.671 113.639C362.992 114.839 362.28 116.074 361.08 116.395ZM358.182 117.172C358.028 116.595 357.651 116.104 357.134 115.805C356.617 115.507 356.003 115.426 355.426 115.581C354.85 115.735 354.359 116.112 354.06 116.629C353.762 117.146 353.681 117.76 353.835 118.336C353.99 118.913 354.367 119.404 354.884 119.702C355.401 120.001 356.015 120.082 356.591 119.927C357.167 119.773 357.659 119.396 357.957 118.879C358.256 118.362 358.337 117.748 358.182 117.172ZM342.102 123.809C342.679 123.655 343.17 123.278 343.468 122.761C343.767 122.244 343.848 121.63 343.693 121.054C343.539 120.477 343.162 119.986 342.645 119.688C342.128 119.389 341.514 119.308 340.937 119.463C340.361 119.617 339.87 119.994 339.571 120.511C339.273 121.028 339.192 121.642 339.347 122.219C339.501 122.795 339.878 123.286 340.395 123.585C340.912 123.883 341.526 123.964 342.102 123.809Z" fill="black" fill-opacity="0.1"/>
</g>
<g clip-path="url(#clip33_1722_49461)">
<path d="M378.494 95.423C378.173 94.2231 378.886 92.9888 380.085 92.6673L394.574 88.785C395.774 88.4635 397.009 89.1761 397.33 90.376L397.912 92.5493L400.208 91.9342C400.978 91.728 401.797 91.8336 402.486 92.2313L406.924 94.7935C407.613 95.1912 408.114 95.848 408.32 96.6177L408.547 97.4644L408.935 98.9133L409.712 101.811C410.513 101.596 411.334 102.07 411.549 102.872C411.763 103.673 411.289 104.494 410.488 104.709L409.039 105.097C409.682 107.497 408.257 109.965 405.857 110.608C403.457 111.251 400.989 109.826 400.346 107.426L394.55 108.979C395.193 111.379 393.768 113.848 391.368 114.491C388.968 115.134 386.5 113.708 385.857 111.309L385.132 111.503C383.933 111.824 382.698 111.112 382.377 109.912L378.494 95.423ZM399.853 99.7938L405.649 98.2409L405.422 97.3942L400.984 94.832L398.689 95.4471L399.853 99.7938ZM390.786 112.317C391.362 112.163 391.854 111.786 392.152 111.269C392.45 110.752 392.531 110.138 392.377 109.562C392.222 108.985 391.845 108.494 391.329 108.195C390.812 107.897 390.198 107.816 389.621 107.971C389.045 108.125 388.553 108.502 388.255 109.019C387.957 109.536 387.876 110.15 388.03 110.726C388.185 111.303 388.562 111.794 389.079 112.093C389.595 112.391 390.209 112.472 390.786 112.317ZM406.866 105.679C406.711 105.103 406.334 104.612 405.817 104.313C405.301 104.015 404.686 103.934 404.11 104.088C403.534 104.243 403.042 104.62 402.744 105.137C402.445 105.654 402.365 106.268 402.519 106.844C402.674 107.421 403.051 107.912 403.567 108.21C404.084 108.509 404.698 108.59 405.275 108.435C405.851 108.281 406.343 107.904 406.641 107.387C406.939 106.87 407.02 106.256 406.866 105.679ZM390.701 94.4331C390.161 94.1215 389.473 94.3059 389.166 94.8443C388.859 95.3828 389.039 96.0722 389.577 96.3793L391.816 97.6719L384.297 99.6916C383.695 99.853 383.34 100.467 383.501 101.069C383.663 101.672 384.277 102.026 384.879 101.865L392.4 99.8498L391.107 102.089C390.796 102.628 390.98 103.317 391.519 103.624C392.057 103.931 392.746 103.751 393.053 103.212L395.705 98.6196C396.017 98.08 395.832 97.3918 395.294 97.0847L390.701 94.4331Z" fill="black" fill-opacity="0.1"/>
</g>
<g clip-path="url(#clip34_1722_49461)">
<path d="M301.427 160.849C300.825 161.01 300.471 161.625 300.632 162.227C300.793 162.829 301.408 163.184 302.01 163.022L303.173 162.71L305.516 165.188L298.752 167.001L297.05 165.613C296.77 165.382 296.395 165.303 296.046 165.397L293.511 166.076C292.908 166.237 292.554 166.852 292.715 167.454C292.876 168.056 293.491 168.411 294.093 168.249L296.072 167.719L297.445 168.841L296.884 171.568C296.401 171.576 295.91 171.645 295.426 171.775C292.225 172.632 290.325 175.922 291.183 179.123C292.041 182.324 295.33 184.223 298.532 183.366C301.488 182.573 303.331 179.707 302.923 176.754L305.142 176.159C305.526 176.056 305.825 175.758 305.936 175.374L308.034 167.848L309.503 169.4C308.484 170.813 308.084 172.653 308.57 174.464C309.427 177.665 312.717 179.565 315.918 178.707C319.119 177.849 321.019 174.56 320.161 171.358C319.303 168.157 316.014 166.258 312.812 167.116C312.201 167.28 311.638 167.532 311.133 167.857L304.502 160.84C304.122 160.437 303.556 160.279 303.021 160.422L301.427 160.849ZM311.361 171.372L313.548 173.683C313.975 174.137 314.689 174.154 315.137 173.728C315.586 173.302 315.608 172.588 315.182 172.139L312.996 169.828C313.151 169.757 313.32 169.697 313.492 169.651C315.294 169.168 317.142 170.236 317.625 172.038C318.108 173.84 317.041 175.688 315.239 176.171C313.437 176.654 311.588 175.587 311.105 173.785C310.88 172.943 310.992 172.093 311.361 171.372ZM297.408 178.231L300.351 177.443C300.41 178.985 299.401 180.415 297.852 180.83C296.05 181.313 294.201 180.246 293.719 178.444C293.236 176.642 294.303 174.793 296.105 174.31C296.182 174.289 296.26 174.273 296.338 174.257L295.831 176.747C295.643 177.676 296.495 178.481 297.409 178.236L297.408 178.231ZM298.352 175.649L299.418 170.447L303.947 174.145L303.944 174.151L298.352 175.649ZM300.901 168.755L305.814 167.438L304.6 171.782L300.896 168.756L300.901 168.755Z" fill="black" fill-opacity="0.1"/>
</g>
<g clip-path="url(#clip35_1722_49461)">
<path d="M344.29 149.364C344.075 148.562 344.549 147.741 345.35 147.527L351.146 145.974C351.947 145.759 352.768 146.233 352.983 147.034L353.371 148.483L355.545 147.901C356.744 147.579 357.979 148.292 358.3 149.492L359.853 155.288L362.043 155.419C363.182 155.487 363.834 156.759 363.218 157.72L359.768 163.138C359.149 163.76 358.38 164.243 357.647 164.439C356.759 164.677 355.706 164.586 354.72 164.238C353.531 163.805 352.196 164.162 351.383 165.132C350.752 165.874 349.909 166.513 348.949 166.77C348.215 166.966 347.308 166.933 346.461 166.704L340.764 163.736C339.749 163.208 339.679 161.785 340.631 161.156L342.467 159.946L340.914 154.151C340.592 152.951 341.305 151.717 342.505 151.395L344.678 150.813L344.29 149.364ZM345.106 158.205L349.551 155.272C350.091 154.914 350.734 154.742 351.385 154.781L356.697 155.1L355.597 150.993L344.005 154.099L345.106 158.205ZM354.204 165.628C355.411 166.057 356.785 166.204 358.03 165.87C359.248 165.544 360.407 164.709 361.218 163.749C361.654 163.22 362.396 163.055 363.013 163.351C363.81 163.715 364.74 163.907 365.61 163.878C366.437 163.85 367.131 164.499 367.158 165.326C367.186 166.154 366.537 166.847 365.709 166.874C364.531 166.914 363.476 166.672 362.771 166.449C361.647 167.507 360.301 168.367 358.806 168.768C357.362 169.155 355.943 169.055 354.937 168.887C354.641 168.836 354.37 168.782 354.137 168.728C353.962 168.891 353.76 169.077 353.524 169.266C352.737 169.914 351.557 170.71 350.113 171.097C348.619 171.497 347.022 171.425 345.521 171.075C345.017 171.618 344.23 172.358 343.19 172.913C342.459 173.303 341.551 173.027 341.161 172.297C340.771 171.567 341.047 170.658 341.777 170.269C342.546 169.859 343.255 169.227 343.762 168.514C344.151 167.953 344.876 167.725 345.517 167.961C346.702 168.381 348.119 168.526 349.337 168.199C350.582 167.866 351.698 167.052 352.529 166.077C352.936 165.585 353.606 165.405 354.204 165.628Z" fill="black" fill-opacity="0.1"/>
</g>
<g clip-path="url(#clip36_1722_49461)">
<path d="M393.672 136.132C393.07 136.293 392.715 136.907 392.877 137.509C393.038 138.112 393.652 138.466 394.254 138.305L396.867 137.605L397.977 138.778L394.527 143.667L391.926 142.166C391.237 141.768 390.418 141.662 389.648 141.869L385.057 143.099C384.255 143.314 383.781 144.135 383.996 144.936L384.384 146.385L388.731 145.22C392.734 144.148 396.844 146.521 397.917 150.523C398.05 151.022 398.13 151.519 398.16 152.011L401.348 151.157C401.128 150.716 400.948 150.245 400.814 149.747C400.181 147.384 400.75 144.979 402.148 143.188L403.192 144.296C402.178 145.708 401.778 147.548 402.263 149.359C403.121 152.56 406.411 154.459 409.612 153.601C412.813 152.744 414.712 149.454 413.854 146.253C412.997 143.052 409.707 141.153 406.506 142.01C405.895 142.174 405.332 142.427 404.827 142.751L401.094 138.802L403.892 138.052C404.694 137.837 405.168 137.016 404.953 136.215L404.565 134.766C404.35 133.964 403.529 133.49 402.728 133.705L401.804 133.953C401.464 134.044 401.17 134.249 400.966 134.536L399.299 136.9L398.349 135.893C397.876 135.393 397.166 135.191 396.501 135.369L393.672 136.132ZM405.332 146.557L407.242 148.578C407.669 149.031 408.382 149.049 408.831 148.623C409.28 148.197 409.302 147.483 408.876 147.034L406.966 145.012C407.066 144.971 407.174 144.937 407.282 144.908C408.881 144.48 410.528 145.431 410.957 147.029C411.385 148.628 410.434 150.275 408.835 150.704C407.237 151.132 405.589 150.181 405.161 148.582C404.973 147.881 405.05 147.171 405.332 146.557ZM393.648 152.832C393.503 154.011 392.662 155.037 391.449 155.362C389.85 155.791 388.203 154.839 387.774 153.241C387.346 151.643 388.297 149.995 389.896 149.567C391.114 149.24 392.355 149.709 393.066 150.659L396.072 149.853C394.847 147.308 391.949 145.911 389.119 146.669C385.918 147.527 384.019 150.816 384.877 154.018C385.734 157.219 389.024 159.118 392.225 158.26C395.055 157.502 396.866 154.843 396.659 152.025L393.653 152.831L393.648 152.832ZM391.06 153.913C391.445 153.811 391.772 153.559 391.971 153.215C392.17 152.87 392.224 152.461 392.121 152.076C392.018 151.692 391.767 151.364 391.422 151.166C391.078 150.967 390.668 150.913 390.284 151.016C389.9 151.119 389.572 151.37 389.373 151.715C389.174 152.059 389.12 152.469 389.223 152.853C389.326 153.237 389.578 153.565 389.922 153.764C390.267 153.963 390.676 154.016 391.06 153.913Z" fill="black" fill-opacity="0.1"/>
</g>
<defs>
<clipPath id="clip0_1722_49461">
<rect width="27" height="24" fill="white" transform="translate(2.98047 11.504) rotate(-15)"/>
</clipPath>
<clipPath id="clip1_1722_49461">
<rect width="30" height="24" fill="white" transform="translate(48.3789 -0.660461) rotate(-15)"/>
</clipPath>
<clipPath id="clip2_1722_49461">
<rect width="30" height="24" fill="white" transform="translate(96.6748 -13.6014) rotate(-15)"/>
</clipPath>
<clipPath id="clip3_1722_49461">
<rect width="30" height="24" fill="white" transform="translate(5.6748 56.3341) rotate(-15)"/>
</clipPath>
<clipPath id="clip4_1722_49461">
<rect width="30" height="24" fill="white" transform="translate(53.9707 43.3932) rotate(-15)"/>
</clipPath>
<clipPath id="clip5_1722_49461">
<rect width="30" height="24" fill="white" transform="translate(102.267 30.4522) rotate(-15)"/>
</clipPath>
<clipPath id="clip6_1722_49461">
<rect width="24" height="24" fill="white" transform="translate(150.563 17.5112) rotate(-15)"/>
</clipPath>
<clipPath id="clip7_1722_49461">
<rect width="30" height="24" fill="white" transform="translate(193.064 6.12323) rotate(-15)"/>
</clipPath>
<clipPath id="clip8_1722_49461">
<rect width="30" height="24" fill="white" transform="translate(241.36 -6.81775) rotate(-15)"/>
</clipPath>
<clipPath id="clip9_1722_49461">
<rect width="27" height="24" fill="white" transform="translate(289.656 -19.7587) rotate(-15)"/>
</clipPath>
<clipPath id="clip10_1722_49461">
<rect width="30" height="24" fill="white" transform="translate(-22.541 109.446) rotate(-15)"/>
</clipPath>
<clipPath id="clip11_1722_49461">
<rect width="27" height="24" fill="white" transform="translate(25.7559 96.5055) rotate(-15)"/>
</clipPath>
<clipPath id="clip12_1722_49461">
<rect width="30" height="24" fill="white" transform="translate(71.1543 84.341) rotate(-15)"/>
</clipPath>
<clipPath id="clip13_1722_49461">
<rect width="30" height="24" fill="white" transform="translate(119.45 71.4) rotate(-15)"/>
</clipPath>
<clipPath id="clip14_1722_49461">
<rect width="24" height="24" fill="white" transform="translate(167.746 58.4591) rotate(-15)"/>
</clipPath>
<clipPath id="clip15_1722_49461">
<rect width="30" height="24" fill="white" transform="translate(210.247 47.071) rotate(-15)"/>
</clipPath>
<clipPath id="clip16_1722_49461">
<rect width="30" height="24" fill="white" transform="translate(258.544 34.1301) rotate(-15)"/>
</clipPath>
<clipPath id="clip17_1722_49461">
<rect width="30" height="24" fill="white" transform="translate(306.84 21.1891) rotate(-15)"/>
</clipPath>
<clipPath id="clip18_1722_49461">
<rect width="30" height="24" fill="white" transform="translate(355.136 8.24817) rotate(-15)"/>
</clipPath>
<clipPath id="clip19_1722_49461">
<rect width="24" height="24" fill="white" transform="translate(-14.0498 152.724) rotate(-15)"/>
</clipPath>
<clipPath id="clip20_1722_49461">
<rect width="30" height="24" fill="white" transform="translate(28.4512 141.336) rotate(-15)"/>
</clipPath>
<clipPath id="clip21_1722_49461">
<rect width="30" height="24" fill="white" transform="translate(76.7471 128.395) rotate(-15)"/>
</clipPath>
<clipPath id="clip22_1722_49461">
<rect width="30" height="24" fill="white" transform="translate(125.043 115.454) rotate(-15)"/>
</clipPath>
<clipPath id="clip23_1722_49461">
<rect width="24" height="24" fill="white" transform="translate(173.34 102.513) rotate(-15)"/>
</clipPath>
<clipPath id="clip24_1722_49461">
<rect width="30" height="24" fill="white" transform="translate(215.841 91.1247) rotate(-15)"/>
</clipPath>
<clipPath id="clip25_1722_49461">
<rect width="30" height="24" fill="white" transform="translate(264.137 78.1837) rotate(-15)"/>
</clipPath>
<clipPath id="clip26_1722_49461">
<rect width="27" height="24" fill="white" transform="translate(312.433 65.2428) rotate(-15)"/>
</clipPath>
<clipPath id="clip27_1722_49461">
<rect width="30" height="24" fill="white" transform="translate(357.831 53.0783) rotate(-15)"/>
</clipPath>
<clipPath id="clip28_1722_49461">
<rect width="30" height="24" fill="white" transform="translate(142.227 156.401) rotate(-15)"/>
</clipPath>
<clipPath id="clip29_1722_49461">
<rect width="24" height="24" fill="white" transform="translate(190.522 143.461) rotate(-15)"/>
</clipPath>
<clipPath id="clip30_1722_49461">
<rect width="30" height="24" fill="white" transform="translate(233.023 132.073) rotate(-15)"/>
</clipPath>
<clipPath id="clip31_1722_49461">
<rect width="30" height="24" fill="white" transform="translate(281.32 119.132) rotate(-15)"/>
</clipPath>
<clipPath id="clip32_1722_49461">
<rect width="30" height="24" fill="white" transform="translate(329.616 106.191) rotate(-15)"/>
</clipPath>
<clipPath id="clip33_1722_49461">
<rect width="30" height="24" fill="white" transform="translate(377.912 93.2496) rotate(-15)"/>
</clipPath>
<clipPath id="clip34_1722_49461">
<rect width="30" height="24" fill="white" transform="translate(286.912 163.185) rotate(-15)"/>
</clipPath>
<clipPath id="clip35_1722_49461">
<rect width="27" height="24" fill="white" transform="translate(335.208 150.244) rotate(-15)"/>
</clipPath>
<clipPath id="clip36_1722_49461">
<rect width="30" height="24" fill="white" transform="translate(380.606 138.08) rotate(-15)"/>
</clipPath>
</defs>
</svg>
