<svg width="396" height="161" viewBox="0 0 396 161" fill="none" xmlns="http://www.w3.org/2000/svg">
<g clip-path="url(#clip0_1726_54504)">
<path d="M16.2725 -16.8525L14.6682 -14.0739L22.1315 -9.76492L23.7357 -12.5436C24.5644 -13.9788 24.073 -15.8126 22.6378 -16.6412L20.3746 -17.9517C18.9394 -18.7803 17.1056 -18.289 16.277 -16.8537L16.2725 -16.8525ZM13.9191 -12.7764L6.19409 0.610389C5.84937 1.20745 5.66177 1.88374 5.64266 2.57311L5.49933 8.44951C5.48925 8.8647 5.7038 9.24882 6.05974 9.45432C6.41568 9.65983 6.85561 9.65356 7.20683 9.44299L12.2243 6.38066C12.8117 6.01943 13.3036 5.51881 13.6483 4.92175L21.3824 -8.46746L13.9191 -12.7764Z" fill="black" fill-opacity="0.1"/>
</g>
<g clip-path="url(#clip1_1726_54504)">
<path d="M7.37333 31.0842L8.71673 31.8598C10.152 32.6885 10.6433 34.5222 9.81469 35.9575L7.94527 39.1954L1.40176 35.4213L3.27117 32.1834C4.09981 30.7481 5.93356 30.2568 7.36881 31.0854L7.37333 31.0842ZM-7.79163 51.3513L0.652665 36.7188L7.1974 40.4974L-1.25264 55.1266C-1.47472 55.5113 -1.7956 55.835 -2.17609 56.0632L-6.52465 58.6697C-6.87587 58.8802 -7.31127 58.8853 -7.66721 58.6798C-8.02315 58.4743 -8.23648 58.0947 -8.22972 57.6852L-8.14672 52.616C-8.14061 52.1679 -8.01945 51.7327 -7.79737 51.348L-7.79163 51.3513ZM-1.56294 37.5599L-6.4022 45.9418L-11.421 43.0403C-12.4946 42.4205 -12.8634 41.044 -12.2448 39.966L-9.65492 35.4868C-9.0351 34.4132 -7.65865 34.0444 -6.58056 34.663L-5.44384 35.3193C-5.45379 35.3365 -5.46826 35.3549 -5.4782 35.3722L-7.59952 39.0464C-7.80503 39.4023 -7.68128 39.8642 -7.32534 40.0697C-6.9694 40.2752 -6.50756 40.1514 -6.30206 39.7955L-4.18074 36.1213C-4.1708 36.104 -4.16207 36.0823 -4.15212 36.0651L-1.56294 37.5599ZM7.57672 42.8367L10.1659 44.3316C10.156 44.3488 10.1415 44.3672 10.1316 44.3845L8.01023 48.0587C7.80473 48.4146 7.92848 48.8765 8.28442 49.082C8.64036 49.2875 9.10219 49.1637 9.3077 48.8078L11.429 45.1335C11.439 45.1163 11.4477 45.0946 11.4576 45.0774L12.5956 45.7382C13.6691 46.358 14.0379 47.7344 13.4193 48.8125L10.8295 53.2917C10.2096 54.3653 8.83318 54.7341 7.75509 54.1155L2.73746 51.2186L7.57672 42.8367Z" fill="black" fill-opacity="0.1"/>
</g>
<g clip-path="url(#clip2_1726_54504)">
<path d="M28.9739 26.6893C28.6524 25.4894 29.3651 24.2551 30.5649 23.9336L37.8094 21.9924C39.0092 21.6709 40.2436 22.3836 40.5651 23.5834L41.1474 25.7568L37.5252 26.7273C37.1267 26.8341 36.8881 27.2475 36.9948 27.6459C37.1016 28.0443 37.515 28.283 37.9134 28.1762L41.5356 27.2057L42.3121 30.1034L38.6899 31.074C38.2914 31.1808 38.0528 31.5941 38.1595 31.9926C38.2663 32.391 38.6796 32.6297 39.0781 32.5229L42.7003 31.5523L43.4768 34.4501L39.8545 35.4207C39.4561 35.5274 39.2175 35.9408 39.3242 36.3392C39.431 36.7377 39.8443 36.9763 40.2428 36.8696L43.865 35.899L44.6415 38.7968L41.0192 39.7673C40.6208 39.8741 40.3821 40.2875 40.4889 40.6859C40.5957 41.0843 41.009 41.323 41.4075 41.2162L45.0297 40.2457L45.612 42.419C45.9335 43.6188 45.2209 44.8532 44.021 45.1747L36.7766 47.1158C35.5767 47.4373 34.3424 46.7247 34.0209 45.5248L28.9739 26.6893Z" fill="black" fill-opacity="0.1"/>
</g>
<g clip-path="url(#clip3_1726_54504)">
<path d="M76.541 12.9294C77.0115 11.9686 77.8739 11.2571 78.9062 10.9805C80.8803 10.4515 82.9127 11.6249 83.4416 13.599C83.7182 14.6313 83.5345 15.7385 82.9377 16.6263L75.7447 27.3082L75.1534 26.9668L71.4792 24.8455L70.8821 24.5008L76.541 12.9294ZM70.1285 25.7995L70.7256 26.1442L74.3998 28.2655L74.9969 28.6102L75.1394 32.6193C75.1702 33.4409 74.7466 34.2144 74.0384 34.6322L66.5922 39.0441L69.7543 33.5672C69.8805 33.5674 70.0122 33.5515 70.1435 33.5163C70.9449 33.3016 71.4189 32.4806 71.2041 31.6792C70.9894 30.8778 70.1684 30.4038 69.367 30.6186C68.5656 30.8333 68.0916 31.6543 68.3064 32.4557C68.3415 32.587 68.3924 32.7044 68.4569 32.8181L65.2936 38.2905L65.3937 29.645C65.4015 28.8228 65.8596 28.0692 66.5865 27.6851L70.1297 25.804L70.1285 25.7995Z" fill="black" fill-opacity="0.1"/>
</g>
<g clip-path="url(#clip4_1726_54504)">
<path d="M118.458 1.3192L116.854 4.09784L124.317 8.40677L125.921 5.62813C126.75 4.19288 126.259 2.35913 124.823 1.53049L122.56 0.220026C121.125 -0.608615 119.291 -0.117263 118.463 1.31798L118.458 1.3192ZM116.105 5.3953L108.38 18.7821C108.035 19.3791 107.847 20.0554 107.828 20.7448L107.685 26.6212C107.675 27.0364 107.889 27.4205 108.245 27.626C108.601 27.8315 109.041 27.8253 109.392 27.6147L114.41 24.5523C114.997 24.1911 115.489 23.6905 115.834 23.0934L123.568 9.70423L116.105 5.3953Z" fill="black" fill-opacity="0.1"/>
</g>
<g clip-path="url(#clip5_1726_54504)">
<path d="M161.205 -10.1833L159.36 -6.98101L166.548 -2.83117L168.394 -6.02891C169.12 -7.28618 168.69 -8.88902 167.433 -9.61491L164.791 -11.1441C163.534 -11.87 161.931 -11.4405 161.205 -10.1833ZM158.49 -5.75315L158.108 -5.51476L152.107 -1.81051C151.279 -1.29742 150.748 -0.417507 150.689 0.559065L149.883 13.5964C149.848 14.1541 150.128 14.6906 150.607 14.9748L155.699 6.16116C155.487 5.91231 155.325 5.61599 155.235 5.28093C154.914 4.08107 155.626 2.84676 156.826 2.52525C158.026 2.20375 159.26 2.91638 159.582 4.11625C159.903 5.31611 159.191 6.55042 157.991 6.87192C157.656 6.9617 157.318 6.96965 156.997 6.91025L151.905 15.7284C152.396 15.9999 152.997 15.9795 153.461 15.6659L164.353 8.44773C165.165 7.90989 165.666 7.00888 165.696 6.03506L165.904 -1.01358L165.915 -1.46289L158.49 -5.75315Z" fill="black" fill-opacity="0.1"/>
</g>
<g clip-path="url(#clip6_1726_54504)">
<path d="M189.7 -12.9125C188.702 -13.1788 187.867 -13.9596 187.579 -15.0326C187.151 -16.6309 188.102 -18.2786 189.701 -18.7069C190.774 -18.9944 191.867 -18.6615 192.597 -17.9301L207.86 -22.0199C208.131 -23.0193 208.912 -23.8545 209.985 -24.1421C211.583 -24.5703 213.231 -23.6191 213.659 -22.0208C213.947 -20.9477 213.614 -19.8539 212.882 -19.1241L216.196 -6.75878C217.195 -6.48792 218.029 -5.7117 218.317 -4.63862C218.745 -3.04031 217.794 -1.39265 216.195 -0.964386C215.122 -0.676854 214.029 -1.0098 213.299 -1.74115L198.036 2.34859C197.765 3.34806 196.989 4.18207 195.915 4.4696C194.317 4.89787 192.67 3.94659 192.241 2.34828C191.954 1.2752 192.287 0.181443 193.018 -0.548336L189.705 -12.9137L189.7 -12.9125ZM208.641 -19.1233L193.374 -15.0323C193.238 -14.5252 192.969 -14.0602 192.598 -13.6889L195.911 -1.32358C196.418 -1.18771 196.883 -0.919227 197.255 -0.547973L212.518 -4.63772C212.654 -5.14485 212.922 -5.60987 213.293 -5.98111L209.98 -18.3465C209.473 -18.4823 209.008 -18.7508 208.637 -19.1221L208.641 -19.1233ZM194.539 -12.2389C194.325 -13.0403 194.799 -13.8613 195.6 -14.076L201.396 -15.6289C202.197 -15.8437 203.018 -15.3697 203.233 -14.5683L204.397 -10.2216C204.612 -9.42018 204.138 -8.59922 203.337 -8.38448L197.541 -6.83156C196.74 -6.61683 195.919 -7.09081 195.704 -7.89222L194.539 -12.2389ZM202.276 -6.54736L203.725 -6.93559C205.323 -7.36385 206.275 -9.01152 205.846 -10.6098L205.458 -12.0587L208.356 -12.8352C209.157 -13.0499 209.978 -12.5759 210.193 -11.7745L211.358 -7.42784C211.572 -6.62643 211.098 -5.80547 210.297 -5.59073L204.501 -4.03781C203.7 -3.82307 202.879 -4.29706 202.664 -5.09847L202.276 -6.54736Z" fill="black" fill-opacity="0.1"/>
</g>
<g clip-path="url(#clip7_1726_54504)">
<path d="M-11.8611 82.9258L-13.397 84.0216C-13.5195 84.1078 -13.5749 84.2634 -13.5361 84.4082C-13.4972 84.5531 -13.3715 84.6602 -13.2223 84.6736L-11.3443 84.8546L-10.2485 86.3905C-10.1623 86.513 -10.0067 86.5684 -9.86184 86.5296C-9.71695 86.4907 -9.6099 86.365 -9.5965 86.2158L-9.41546 84.3378L-7.87955 83.242C-7.75706 83.1558 -7.70169 83.0002 -7.74052 82.8553C-7.77934 82.7104 -7.90508 82.6034 -8.05426 82.59L-9.93229 82.409L-11.0281 80.8731C-11.1143 80.7506 -11.2699 80.6952 -11.4147 80.734C-11.5596 80.7728 -11.6667 80.8986 -11.6801 81.0478L-11.8611 82.9258ZM-16.1215 101.183C-16.7413 102.257 -16.3725 103.633 -15.2977 104.258L-13.3114 105.405C-12.2378 106.024 -10.8613 105.656 -10.237 104.581L2.40023 82.6859C3.02005 81.6123 2.65123 80.2359 1.57646 79.6115L-0.408717 78.4692C-1.48228 77.8494 -2.85873 78.2182 -3.48308 79.293L-16.1215 101.183ZM-0.0621352 81.7006L-3.54243 87.7286L-4.88008 86.9563L-1.39979 80.9283L-0.0621352 81.7006ZM-21.2444 89.0554C-21.4275 89.187 -21.5112 89.4181 -21.4529 89.6354C-21.3947 89.8527 -21.2067 90.011 -20.9823 90.0334L-18.1669 90.3078L-16.5216 92.6088C-16.39 92.7919 -16.1589 92.8756 -15.9416 92.8174C-15.7243 92.7591 -15.566 92.5711 -15.5436 92.3468L-15.2692 89.5314L-12.9682 87.886C-12.785 87.7545 -12.7014 87.5234 -12.7596 87.306C-12.8178 87.0887 -13.0058 86.9304 -13.2302 86.908L-16.0456 86.6336L-17.691 84.3326C-17.8225 84.1495 -18.0536 84.0658 -18.271 84.124C-18.4883 84.1823 -18.6466 84.3703 -18.669 84.5947L-18.9434 87.4101L-21.2444 89.0554ZM-2.20078 96.376C-2.38391 96.5076 -2.46758 96.7387 -2.40934 96.956C-2.35111 97.1733 -2.16311 97.3316 -1.93873 97.354L0.876665 97.6284L2.52202 99.9294C2.65359 100.113 2.88468 100.196 3.10201 100.138C3.31934 100.08 3.47764 99.8917 3.50002 99.6674L3.77444 96.852L6.07544 95.2066C6.25856 95.075 6.34223 94.844 6.28399 94.6266C6.22576 94.4093 6.03776 94.251 5.81338 94.2286L2.99799 93.9542L1.35263 91.6532C1.22106 91.4701 0.989973 91.3864 0.77264 91.4446C0.555306 91.5029 0.397009 91.6909 0.374632 91.9153L0.100208 94.7306L-2.20078 96.376Z" fill="black" fill-opacity="0.1"/>
</g>
<g clip-path="url(#clip8_1726_54504)">
<path d="M39.0488 68.1489L37.4446 70.9275L44.9079 75.2365L46.5121 72.4578C47.3408 71.0226 46.8494 69.1888 45.4142 68.3602L43.151 67.0497C41.7157 66.2211 39.882 66.7124 39.0534 68.1477L39.0488 68.1489ZM36.6955 72.225L28.9705 85.6118C28.6257 86.2089 28.4381 86.8851 28.419 87.5745L28.2757 93.4509C28.2656 93.8661 28.4802 94.2502 28.8361 94.4557C29.192 94.6612 29.632 94.655 29.9832 94.4444L35.0006 91.3821C35.5881 91.0208 36.08 90.5202 36.4247 89.9232L44.1588 76.5339L36.6955 72.225Z" fill="black" fill-opacity="0.1"/>
</g>
<g clip-path="url(#clip9_1726_54504)">
<path d="M81.7948 56.6465L79.9498 59.8488L87.1375 63.9986L88.9837 60.8009C89.7096 59.5436 89.2801 57.9408 88.0229 57.2149L85.3808 55.6856C84.1235 54.9598 82.5207 55.3892 81.7948 56.6465ZM79.0801 61.0766L78.6976 61.315L72.6971 65.0193C71.8689 65.5324 71.3379 66.4123 71.2793 67.3888L70.473 80.4261C70.438 80.9839 70.7177 81.5204 71.1966 81.8046L76.289 72.9909C76.0767 72.7421 75.9148 72.4458 75.8251 72.1107C75.5036 70.9108 76.2162 69.6765 77.4161 69.355C78.6159 69.0335 79.8502 69.7462 80.1717 70.946C80.4932 72.1459 79.7806 73.3802 78.5807 73.7017C78.2457 73.7915 77.9081 73.7994 77.5865 73.74L72.4953 82.5582C72.9854 82.8297 73.5865 82.8093 74.0509 82.4956L84.9429 75.2775C85.7548 74.7397 86.2558 73.8386 86.2861 72.8648L86.4938 65.8162L86.5045 65.3669L79.0801 61.0766Z" fill="black" fill-opacity="0.1"/>
</g>
<g clip-path="url(#clip10_1726_54504)">
<path d="M115.338 66.9584L117.219 55.0355C117.495 53.2924 118.274 51.6715 119.464 50.3723L124.975 44.3339C125.088 44.2115 125.234 44.1238 125.392 44.0813C125.853 43.953 126.33 44.2282 126.455 44.6945L126.474 44.767C126.505 44.8847 126.513 45.0039 126.502 45.1235L125.604 52.6045C125.575 52.8403 125.595 53.0776 125.656 53.304C125.722 53.5531 125.843 53.7875 126.005 53.9918L132.725 62.2997L123.348 64.8122L123.453 63.0662L125.118 61.9649C125.386 61.7864 125.511 61.4568 125.427 61.1444C125.343 60.832 125.07 60.6092 124.749 60.5884L122.756 60.4673L121.655 58.8019C121.477 58.5388 121.148 58.4136 120.835 58.4973C120.523 58.581 120.3 58.8542 120.28 59.1752L120.158 61.1682L118.493 62.2696C118.225 62.4481 118.1 62.7777 118.184 63.0901C118.268 63.4025 118.541 63.6253 118.862 63.6461L120.855 63.7672L121.817 65.2223L115.338 66.9584ZM121.77 51.914C121.68 51.7779 121.517 51.7147 121.359 51.7572C121.2 51.7996 121.091 51.9356 121.081 52.0984L121.023 53.0943L120.19 53.6427C120.054 53.7326 119.991 53.8951 120.033 54.0536C120.075 54.212 120.211 54.3212 120.374 54.3309L121.37 54.3892L121.919 55.2226C122.008 55.3586 122.171 55.4218 122.329 55.3794C122.488 55.3369 122.597 55.2009 122.607 55.0381L122.665 54.0422L123.498 53.4938C123.634 53.404 123.698 53.2415 123.655 53.083C123.613 52.9245 123.477 52.8154 123.314 52.8056L122.318 52.7473L121.77 51.914ZM114.277 68.7955L134.562 63.3603C135.363 63.1456 136.184 63.6196 136.399 64.421C136.614 65.2224 136.14 66.0434 135.338 66.2581L115.054 71.6933C114.252 71.9081 113.431 71.4341 113.217 70.6327C113.002 69.8312 113.476 69.0103 114.277 68.7955Z" fill="black" fill-opacity="0.1"/>
</g>
<g clip-path="url(#clip11_1726_54504)">
<path d="M166.797 33.8704L164.952 37.0726L172.139 41.2225L173.986 38.0247C174.712 36.7675 174.282 35.1646 173.025 34.4387L170.383 32.9095C169.125 32.1836 167.523 32.6131 166.797 33.8704ZM164.082 38.3005L163.7 38.5389L157.699 42.2431C156.871 42.7562 156.34 43.6361 156.281 44.6127L155.475 57.65C155.44 58.2077 155.72 58.7443 156.199 59.0284L161.291 50.2148C161.079 49.966 160.917 49.6696 160.827 49.3346C160.506 48.1347 161.218 46.9004 162.418 46.5789C163.618 46.2574 164.852 46.97 165.174 48.1699C165.495 49.3698 164.783 50.6041 163.583 50.9256C163.248 51.0153 162.91 51.0233 162.588 50.9639L157.497 59.7821C157.987 60.0535 158.588 60.0332 159.053 59.7195L169.945 52.5014C170.757 51.9635 171.258 51.0625 171.288 50.0887L171.496 43.0401L171.506 42.5908L164.082 38.3005Z" fill="black" fill-opacity="0.1"/>
</g>
<g clip-path="url(#clip12_1726_54504)">
<path d="M195.293 31.1412C194.295 30.8748 193.459 30.0941 193.172 29.021C192.744 27.4227 193.695 25.775 195.293 25.3468C196.366 25.0592 197.46 25.3922 198.19 26.1235L207.657 23.5867C207.928 22.5872 208.709 21.752 209.782 21.4645C211.38 21.0362 213.028 21.9875 213.456 23.5858C213.744 24.6589 213.411 25.7526 212.68 26.4824L214.052 31.6033C215.051 31.8742 215.885 32.6504 216.173 33.7235C216.601 35.3218 215.65 36.9695 214.051 37.3977C212.978 37.6853 211.885 37.3523 211.155 36.621L201.687 39.1578C201.416 40.1573 200.64 40.9913 199.567 41.2788C197.969 41.7071 196.321 40.7558 195.893 39.1575C195.605 38.0844 195.938 36.9906 196.67 36.2609L195.298 31.14L195.293 31.1412ZM198.966 29.0213C198.83 29.5285 198.562 29.9935 198.191 30.3647L199.563 35.4856C200.07 35.6215 200.535 35.89 200.906 36.2612L210.374 33.7244C210.51 33.2173 210.778 32.7522 211.149 32.381L209.777 27.2601C209.27 27.1242 208.805 26.8557 208.434 26.4845L198.966 29.0213ZM212.318 44.0786C212.048 45.0781 211.271 45.9121 210.198 46.1996C208.6 46.6279 206.952 45.6766 206.524 44.0783C206.237 43.0052 206.569 41.9115 207.301 41.1817L206.808 39.3434L209.706 38.5669L210.199 40.4052C210.706 40.5411 211.171 40.8096 211.542 41.1808L221.01 38.644C221.145 38.1369 221.414 37.6718 221.785 37.3006L220.413 32.1797C219.906 32.0438 219.441 31.7753 219.07 31.4041L216.987 31.9622C216.556 31.3304 215.975 30.8308 215.307 30.4907L215.011 29.3859L218.298 28.5051C218.569 27.5056 219.345 26.6716 220.418 26.3841C222.016 25.9558 223.664 26.9071 224.092 28.5054C224.38 29.5785 224.047 30.6722 223.315 31.402L224.687 36.5229C225.687 36.7938 226.521 37.57 226.808 38.6431C227.237 40.2414 226.285 41.8891 224.687 42.3173C223.614 42.6049 222.52 42.2719 221.791 41.5406L212.323 44.0774L212.318 44.0786Z" fill="black" fill-opacity="0.1"/>
</g>
<g clip-path="url(#clip13_1726_54504)">
<path d="M246.487 11.6294L249.385 10.8529C250.186 10.6382 251.007 11.1122 251.222 11.9136L252.387 16.2603L246.591 17.8132L245.426 13.4665C245.212 12.6651 245.686 11.8441 246.487 11.6294ZM243.797 24.7734C243.154 22.3737 244.579 19.9051 246.979 19.2621L252.775 17.7092C255.174 17.0662 257.643 18.4914 258.286 20.8911L260.81 30.3089C261.131 31.5088 260.418 32.7431 259.219 33.0646L249.076 35.7822C247.877 36.1037 246.642 35.3911 246.321 34.1912L243.797 24.7734ZM255.634 25.4839C255.377 24.5233 254.749 23.7042 253.887 23.2069C253.026 22.7096 252.002 22.5749 251.042 22.8323C250.081 23.0897 249.262 23.7182 248.765 24.5795C248.267 25.4408 248.133 26.4644 248.39 27.4251C248.647 28.3857 249.276 29.2048 250.137 29.7021C250.999 30.1994 252.022 30.3341 252.983 30.0767C253.943 29.8193 254.763 29.1908 255.26 28.3295C255.757 27.4682 255.892 26.4446 255.634 25.4839ZM253.059 12.9743C252.956 12.59 253.01 12.1806 253.209 11.836C253.408 11.4915 253.735 11.2401 254.12 11.1371C254.504 11.0342 254.913 11.0881 255.258 11.287C255.602 11.4859 255.854 11.8135 255.957 12.1978C256.06 12.5821 256.006 12.9915 255.807 13.336C255.608 13.6806 255.28 13.932 254.896 14.0349C254.512 14.1379 254.102 14.084 253.758 13.8851C253.413 13.6862 253.162 13.3585 253.059 12.9743ZM258.466 9.97246C258.851 9.86949 259.26 9.9234 259.605 10.1223C259.949 10.3212 260.2 10.6488 260.303 11.0331C260.406 11.4174 260.352 11.8268 260.154 12.1713C259.955 12.5159 259.627 12.7673 259.243 12.8702C258.858 12.9732 258.449 12.9193 258.105 12.7204C257.76 12.5215 257.509 12.1938 257.406 11.8096C257.303 11.4253 257.357 11.0159 257.555 10.6713C257.754 10.3268 258.082 10.0754 258.466 9.97246ZM261.752 10.6449C261.649 10.2606 261.703 9.85119 261.902 9.50666C262.101 9.16213 262.429 8.91074 262.813 8.80777C263.197 8.70481 263.607 8.75871 263.951 8.95762C264.296 9.15654 264.547 9.48416 264.65 9.86843C264.753 10.2527 264.699 10.6621 264.5 11.0067C264.301 11.3512 263.974 11.6026 263.589 11.7055C263.205 11.8085 262.796 11.7546 262.451 11.5557C262.107 11.3568 261.855 11.0292 261.752 10.6449ZM263.978 13.1544C264.362 13.0515 264.771 13.1054 265.116 13.3043C265.46 13.5032 265.712 13.8308 265.815 14.2151C265.918 14.5994 265.864 15.0088 265.665 15.3533C265.466 15.6979 265.138 15.9493 264.754 16.0522C264.37 16.1552 263.96 16.1013 263.616 15.9024C263.271 15.7035 263.02 15.3758 262.917 14.9916C262.814 14.6073 262.868 14.1979 263.067 13.8533C263.266 13.5088 263.593 13.2574 263.978 13.1544ZM264.082 19.3382C263.979 18.954 264.033 18.5445 264.232 18.2C264.43 17.8555 264.758 17.6041 265.142 17.5011C265.527 17.3981 265.936 17.452 266.281 17.651C266.625 17.8499 266.876 18.1775 266.979 18.5618C267.082 18.946 267.029 19.3555 266.83 19.7C266.631 20.0445 266.303 20.2959 265.919 20.3989C265.535 20.5018 265.125 20.4479 264.781 20.249C264.436 20.0501 264.185 19.7225 264.082 19.3382ZM259.631 14.3191C260.015 14.2162 260.425 14.2701 260.769 14.469C261.114 14.6679 261.365 14.9955 261.468 15.3798C261.571 15.7641 261.517 16.1735 261.318 16.518C261.119 16.8625 260.792 17.1139 260.407 17.2169C260.023 17.3199 259.614 17.266 259.269 17.067C258.925 16.8681 258.673 16.5405 258.57 16.1562C258.467 15.772 258.521 15.3625 258.72 15.018C258.919 14.6735 259.247 14.4221 259.631 14.3191Z" fill="black" fill-opacity="0.1"/>
</g>
<g clip-path="url(#clip14_1726_54504)">
<path d="M283.775 3.96758C283.453 2.76772 284.166 1.53341 285.366 1.21191L292.61 -0.729235C293.81 -1.05074 295.044 -0.338106 295.366 0.861755L295.948 3.03509L292.326 4.00566C291.928 4.11242 291.689 4.52577 291.796 4.92422C291.902 5.32266 292.316 5.56131 292.714 5.45455L296.336 4.48398L297.113 7.38175L293.491 8.35233C293.092 8.45909 292.854 8.87244 292.96 9.27088C293.067 9.66933 293.48 9.90798 293.879 9.80121L297.501 8.83064L298.278 11.7284L294.655 12.699C294.257 12.8058 294.018 13.2191 294.125 13.6176C294.232 14.016 294.645 14.2546 295.044 14.1479L298.666 13.1773L299.442 16.0751L295.82 17.0457C295.422 17.1524 295.183 17.5658 295.29 17.9642C295.396 18.3627 295.81 18.6013 296.208 18.4945L299.83 17.524L300.413 19.6973C300.734 20.8972 300.022 22.1315 298.822 22.453L291.577 24.3941C290.378 24.7156 289.143 24.003 288.822 22.8031L283.775 3.96758Z" fill="black" fill-opacity="0.1"/>
</g>
<g clip-path="url(#clip15_1726_54504)">
<path d="M316.999 -1.47004C316.001 -1.73637 315.166 -2.51712 314.878 -3.5902C314.45 -5.1885 315.401 -6.83617 316.999 -7.26443C318.072 -7.55197 319.166 -7.21902 319.896 -6.48767L329.364 -9.0245C329.634 -10.024 330.415 -10.8592 331.488 -11.1467C333.087 -11.575 334.734 -10.6237 335.162 -9.0254C335.45 -7.95232 335.117 -6.85856 334.386 -6.12878L335.758 -1.00787C336.757 -0.737006 337.591 0.0392111 337.879 1.11229C338.307 2.7106 337.356 4.35826 335.758 4.78653C334.684 5.07406 333.591 4.74111 332.861 4.00976L323.393 6.54659C323.122 7.54606 322.346 8.38007 321.273 8.6676C319.675 9.09587 318.027 8.14459 317.599 6.54628C317.311 5.4732 317.644 4.37944 318.376 3.64966L317.004 -1.47125L316.999 -1.47004ZM320.672 -3.58989C320.537 -3.08275 320.268 -2.61773 319.897 -2.2465L321.269 2.87442C321.776 3.01029 322.241 3.27877 322.612 3.65003L332.08 1.1132C332.216 0.606062 332.484 0.141042 332.856 -0.230195L331.483 -5.35111C330.976 -5.48698 330.511 -5.75546 330.14 -6.12672L320.672 -3.58989ZM334.024 11.4674C333.754 12.4669 332.977 13.3009 331.904 13.5884C330.306 14.0167 328.658 13.0654 328.23 11.4671C327.943 10.394 328.276 9.30026 329.007 8.57048L328.514 6.7322L331.412 5.95574L331.905 7.79402C332.412 7.92989 332.877 8.19837 333.248 8.56963L342.716 6.0328C342.851 5.52566 343.12 5.06064 343.491 4.68941L342.119 -0.431511C341.612 -0.567385 341.147 -0.835864 340.776 -1.20712L338.693 -0.64904C338.262 -1.2808 337.681 -1.78044 337.013 -2.12054L336.717 -3.22532L340.004 -4.10611C340.275 -5.10558 341.051 -5.93959 342.124 -6.22712C343.722 -6.65538 345.37 -5.7041 345.798 -4.1058C346.086 -3.03271 345.753 -1.93896 345.021 -1.20918L346.394 3.91174C347.393 4.18259 348.227 4.95881 348.515 6.03189C348.943 7.6302 347.992 9.27786 346.393 9.70613C345.32 9.99366 344.226 9.66071 343.497 8.92936L334.029 11.4662L334.024 11.4674Z" fill="black" fill-opacity="0.1"/>
</g>
<g clip-path="url(#clip16_1726_54504)">
<path d="M370.343 -1.36977L372.224 -13.2927C372.5 -15.0358 373.279 -16.6567 374.469 -17.9559L379.98 -23.9942C380.093 -24.1167 380.239 -24.2044 380.397 -24.2469C380.858 -24.3751 381.334 -24.1 381.459 -23.6337L381.479 -23.5612C381.51 -23.4435 381.518 -23.3242 381.506 -23.2047L380.609 -15.7237C380.58 -15.4879 380.6 -15.2505 380.661 -15.0242C380.727 -14.7751 380.848 -14.5407 381.01 -14.3364L387.73 -6.02851L378.353 -3.51594L378.457 -5.26194L380.123 -6.36333C380.39 -6.5418 380.516 -6.87137 380.432 -7.18379C380.348 -7.4962 380.075 -7.71902 379.754 -7.73977L377.761 -7.86088L376.66 -9.52632C376.482 -9.78941 376.153 -9.91462 375.84 -9.83091C375.528 -9.7472 375.305 -9.47397 375.284 -9.15297L375.163 -7.15997L373.498 -6.05858C373.23 -5.88011 373.105 -5.55053 373.189 -5.23812C373.272 -4.9257 373.546 -4.70289 373.867 -4.68213L375.86 -4.56102L376.822 -3.10588L370.343 -1.36977ZM376.775 -16.4142C376.685 -16.5503 376.522 -16.6135 376.364 -16.571C376.205 -16.5286 376.096 -16.3926 376.086 -16.2298L376.028 -15.2339L375.195 -14.6855C375.059 -14.5956 374.995 -14.4331 375.038 -14.2746C375.08 -14.1162 375.216 -14.007 375.379 -13.9972L376.375 -13.939L376.923 -13.1056C377.013 -12.9696 377.176 -12.9063 377.334 -12.9488C377.493 -12.9913 377.602 -13.1273 377.612 -13.29L377.67 -14.2859L378.503 -14.8344C378.639 -14.9242 378.703 -15.0867 378.66 -15.2452C378.618 -15.4037 378.482 -15.5128 378.319 -15.5226L377.323 -15.5809L376.775 -16.4142ZM369.282 0.46735L389.567 -4.96785C390.368 -5.18259 391.189 -4.70861 391.404 -3.90719C391.619 -3.10577 391.145 -2.28481 390.343 -2.07007L370.059 3.36513C369.257 3.57987 368.436 3.10588 368.222 2.30447C368.007 1.50305 368.481 0.682089 369.282 0.46735Z" fill="black" fill-opacity="0.1"/>
</g>
<g clip-path="url(#clip17_1726_54504)">
<path d="M30.1487 116.086L31.4921 116.861C32.9274 117.69 33.4187 119.524 32.5901 120.959L30.7207 124.197L24.1771 120.423L26.0466 117.185C26.8752 115.75 28.709 115.258 30.1442 116.087L30.1487 116.086ZM14.9838 136.353L23.4281 121.72L29.9728 125.499L21.5228 140.128C21.3007 140.513 20.9798 140.836 20.5993 141.065L16.2507 143.671C15.8995 143.882 15.4641 143.887 15.1082 143.681C14.7522 143.476 14.5389 143.096 14.5457 142.687L14.6287 137.617C14.6348 137.169 14.7559 136.734 14.978 136.349L14.9838 136.353ZM21.2125 122.561L16.3732 130.943L11.3544 128.042C10.2808 127.422 9.91197 126.045 10.5306 124.967L13.1205 120.488C13.7403 119.415 15.1167 119.046 16.1948 119.664L17.3315 120.321C17.3216 120.338 17.3071 120.356 17.2972 120.374L15.1759 124.048C14.9704 124.404 15.0941 124.866 15.4501 125.071C15.806 125.277 16.2678 125.153 16.4733 124.797L18.5947 121.123C18.6046 121.105 18.6133 121.084 18.6233 121.066L21.2125 122.561ZM30.3521 127.838L32.9413 129.333C32.9314 129.35 32.9169 129.369 32.9069 129.386L30.7856 133.06C30.5801 133.416 30.7039 133.878 31.0598 134.083C31.4158 134.289 31.8776 134.165 32.0831 133.809L34.2044 130.135C34.2144 130.118 34.2231 130.096 34.233 130.079L35.371 130.74C36.4445 131.359 36.8133 132.736 36.1947 133.814L33.6048 138.293C32.985 139.367 31.6086 139.735 30.5305 139.117L25.5129 136.22L30.3521 127.838Z" fill="black" fill-opacity="0.1"/>
</g>
<g clip-path="url(#clip18_1726_54504)">
<path d="M51.7493 111.691C51.4278 110.491 52.1405 109.256 53.3403 108.935L60.5848 106.994C61.7846 106.672 63.0189 107.385 63.3404 108.585L63.9228 110.758L60.3006 111.729C59.9021 111.836 59.6635 112.249 59.7702 112.647C59.877 113.046 60.2904 113.284 60.6888 113.178L64.311 112.207L65.0875 115.105L61.4653 116.075C61.0668 116.182 60.8282 116.596 60.9349 116.994C61.0417 117.392 61.455 117.631 61.8535 117.524L65.4757 116.554L66.2522 119.452L62.6299 120.422C62.2315 120.529 61.9928 120.942 62.0996 121.341C62.2064 121.739 62.6197 121.978 63.0182 121.871L66.6404 120.9L67.4168 123.798L63.7946 124.769C63.3962 124.876 63.1575 125.289 63.2643 125.687C63.3711 126.086 63.7844 126.324 64.1829 126.218L67.8051 125.247L68.3874 127.42C68.7089 128.62 67.9963 129.855 66.7964 130.176L59.552 132.117C58.3521 132.439 57.1178 131.726 56.7963 130.526L51.7493 111.691Z" fill="black" fill-opacity="0.1"/>
</g>
<g clip-path="url(#clip19_1726_54504)">
<path d="M99.3164 97.9309C99.7869 96.9701 100.649 96.2586 101.682 95.982C103.656 95.453 105.688 96.6264 106.217 98.6005C106.494 99.6328 106.31 100.74 105.713 101.628L98.5201 112.31L97.9288 111.968L94.2546 109.847L93.6575 109.502L99.3164 97.9309ZM92.9039 110.801L93.501 111.146L97.1752 113.267L97.7723 113.612L97.9147 117.621C97.9456 118.442 97.522 119.216 96.8138 119.634L89.3676 124.046L92.5297 118.569C92.6559 118.569 92.7876 118.553 92.9189 118.518C93.7203 118.303 94.1943 117.482 93.9795 116.681C93.7648 115.879 92.9438 115.405 92.1424 115.62C91.341 115.835 90.867 116.656 91.0818 117.457C91.1169 117.589 91.1678 117.706 91.2323 117.82L88.069 123.292L88.1691 114.647C88.1769 113.824 88.6349 113.071 89.3619 112.687L92.9051 110.806L92.9039 110.801Z" fill="black" fill-opacity="0.1"/>
</g>
<g clip-path="url(#clip20_1726_54504)">
<path d="M141.233 86.3207L139.629 89.0993L147.092 93.4082L148.697 90.6296C149.525 89.1943 149.034 87.3606 147.599 86.532L145.336 85.2215C143.9 84.3928 142.067 84.8842 141.238 86.3194L141.233 86.3207ZM138.88 90.3968L131.155 103.784C130.81 104.381 130.623 105.057 130.604 105.746L130.46 111.623C130.45 112.038 130.665 112.422 131.021 112.627C131.377 112.833 131.817 112.827 132.168 112.616L137.185 109.554C137.773 109.193 138.265 108.692 138.609 108.095L146.343 94.7057L138.88 90.3968Z" fill="black" fill-opacity="0.1"/>
</g>
<g clip-path="url(#clip21_1726_54504)">
<path d="M183.98 74.8183L182.135 78.0205L189.323 82.1704L191.169 78.9726C191.895 77.7153 191.466 76.1125 190.208 75.3866L187.566 73.8574C186.309 73.1315 184.706 73.561 183.98 74.8183ZM181.266 79.2484L180.883 79.4868L174.883 83.191C174.054 83.7041 173.523 84.584 173.465 85.5606L172.659 98.5979C172.624 99.1556 172.903 99.6922 173.382 99.9763L178.475 91.1627C178.262 90.9138 178.1 90.6175 178.011 90.2825C177.689 89.0826 178.402 87.8483 179.602 87.5268C180.801 87.2053 182.036 87.9179 182.357 89.1178C182.679 90.3176 181.966 91.5519 180.766 91.8734C180.431 91.9632 180.094 91.9712 179.772 91.9118L174.681 100.73C175.171 101.001 175.772 100.981 176.236 100.667L187.128 93.4493C187.94 92.9114 188.441 92.0104 188.472 91.0366L188.679 83.9879L188.69 83.5386L181.266 79.2484Z" fill="black" fill-opacity="0.1"/>
</g>
<g clip-path="url(#clip22_1726_54504)">
<path d="M212.476 72.089C211.477 71.8227 210.642 71.0419 210.355 69.9688C209.926 68.3705 210.878 66.7229 212.476 66.2946C213.549 66.0071 214.643 66.34 215.373 67.0714L230.636 62.9816C230.907 61.9821 231.687 61.1469 232.76 60.8594C234.359 60.4311 236.006 61.3824 236.435 62.9807C236.722 64.0538 236.389 65.1475 235.658 65.8773L238.971 78.2427C239.971 78.5135 240.805 79.2898 241.092 80.3628C241.52 81.9612 240.569 83.6088 238.971 84.0371C237.898 84.3246 236.804 83.9917 236.074 83.2603L220.811 87.3501C220.54 88.3495 219.764 89.1835 218.691 89.4711C217.093 89.8993 215.445 88.9481 215.017 87.3497C214.729 86.2767 215.062 85.1829 215.793 84.4531L212.48 72.0878L212.476 72.089ZM231.417 65.8782L216.149 69.9691C216.013 70.4763 215.745 70.9413 215.373 71.3125L218.687 83.6779C219.194 83.8138 219.659 84.0822 220.03 84.4535L235.293 80.3637C235.429 79.8566 235.698 79.3916 236.069 79.0204L232.756 66.655C232.248 66.5191 231.783 66.2506 231.412 65.8794L231.417 65.8782ZM217.315 72.7626C217.1 71.9612 217.574 71.1402 218.375 70.9255L224.171 69.3725C224.972 69.1578 225.793 69.6318 226.008 70.4332L227.173 74.7799C227.388 75.5813 226.914 76.4022 226.112 76.617L220.317 78.1699C219.515 78.3846 218.694 77.9107 218.48 77.1092L217.315 72.7626ZM225.052 78.4541L226.5 78.0659C228.099 77.6376 229.05 75.9899 228.622 74.3916L228.234 72.9428L231.131 72.1663C231.933 71.9516 232.754 72.4255 232.968 73.227L234.133 77.5736C234.348 78.375 233.874 79.196 233.072 79.4107L227.277 80.9637C226.475 81.1784 225.654 80.7044 225.44 79.903L225.052 78.4541Z" fill="black" fill-opacity="0.1"/>
</g>
<g clip-path="url(#clip23_1726_54504)">
<path d="M255.365 56.3555C255.15 55.5541 255.624 54.7331 256.425 54.5184L262.221 52.9655C263.022 52.7507 263.843 53.2247 264.058 54.0261L268.717 71.4128C269.36 73.8125 267.935 76.2811 265.535 76.9242C263.135 77.5672 260.667 76.1419 260.024 73.7422L255.365 56.3555ZM270.268 71.4777C270.241 71.3246 270.206 71.174 270.166 71.0246L266.987 59.1618L269.486 54.8331C269.901 54.1155 270.82 53.8692 271.537 54.2835L276.733 57.2832C277.451 57.6975 277.697 58.6166 277.283 59.3343L270.268 71.4777ZM269.465 75.8711L275.829 64.8484L280.592 63.5721C281.394 63.3573 282.215 63.8313 282.429 64.6327L283.982 70.4283C284.197 71.2297 283.723 72.0507 282.922 72.2654L269.465 75.8711ZM261.549 56.2515L258.651 57.0279L259.427 59.9257L262.325 59.1493L261.549 56.2515ZM260.204 62.8235L260.98 65.7213L263.878 64.9448L263.101 62.047L260.204 62.8235ZM264.661 73.6642C264.95 73.5869 265.195 73.3984 265.344 73.14C265.494 72.8816 265.534 72.5745 265.457 72.2863C265.38 71.9981 265.191 71.7524 264.933 71.6032C264.674 71.454 264.367 71.4136 264.079 71.4908C263.791 71.568 263.545 71.7566 263.396 72.015C263.247 72.2734 263.206 72.5805 263.284 72.8687C263.361 73.1569 263.549 73.4026 263.808 73.5518C264.066 73.7009 264.373 73.7414 264.661 73.6642Z" fill="black" fill-opacity="0.1"/>
</g>
<g clip-path="url(#clip24_1726_54504)">
<path d="M300.375 48.5365C299.377 48.2702 298.542 47.4894 298.254 46.4163C297.826 44.818 298.777 43.1704 300.375 42.7421C301.448 42.4546 302.542 42.7875 303.272 43.5189L312.74 40.982C313.01 39.9826 313.791 39.1473 314.864 38.8598C316.463 38.4315 318.11 39.3828 318.538 40.9811C318.826 42.0542 318.493 43.148 317.762 43.8777L319.134 48.9987C320.133 49.2695 320.967 50.0457 321.255 51.1188C321.683 52.7171 320.732 54.3648 319.134 54.7931C318.06 55.0806 316.967 54.7476 316.237 54.0163L306.769 56.5531C306.498 57.5526 305.722 58.3866 304.649 58.6741C303.051 59.1024 301.403 58.1511 300.975 56.5528C300.687 55.4797 301.02 54.386 301.752 53.6562L300.38 48.5353L300.375 48.5365ZM304.048 46.4166C303.913 46.9238 303.644 47.3888 303.273 47.76L304.645 52.881C305.152 53.0168 305.617 53.2853 305.988 53.6566L315.456 51.1197C315.592 50.6126 315.86 50.1476 316.232 49.7763L314.859 44.6554C314.352 44.5195 313.887 44.2511 313.516 43.8798L304.048 46.4166ZM317.4 61.4739C317.13 62.4734 316.353 63.3074 315.28 63.5949C313.682 64.0232 312.034 63.0719 311.606 61.4736C311.319 60.4005 311.651 59.3068 312.383 58.577L311.89 56.7387L314.788 55.9623L315.281 57.8006C315.788 57.9364 316.253 58.2049 316.624 58.5762L326.092 56.0393C326.227 55.5322 326.496 55.0672 326.867 54.6959L325.495 49.575C324.988 49.4391 324.523 49.1707 324.152 48.7994L322.069 49.3575C321.638 48.7257 321.057 48.2261 320.389 47.886L320.093 46.7812L323.38 45.9004C323.651 44.9009 324.427 44.0669 325.5 43.7794C327.098 43.3511 328.746 44.3024 329.174 45.9007C329.462 46.9738 329.129 48.0676 328.397 48.7973L329.77 53.9183C330.769 54.1891 331.603 54.9653 331.891 56.0384C332.319 57.6367 331.367 59.2844 329.769 59.7127C328.696 60.0002 327.602 59.6672 326.873 58.9359L317.405 61.4727L317.4 61.4739Z" fill="black" fill-opacity="0.1"/>
</g>
<g clip-path="url(#clip25_1726_54504)">
<path d="M353.719 48.6367L355.6 36.7138C355.876 34.9706 356.655 33.3498 357.845 32.0506L363.356 26.0122C363.469 25.8898 363.615 25.8021 363.773 25.7596C364.234 25.6313 364.71 25.9064 364.835 26.3728L364.855 26.4452C364.886 26.563 364.894 26.6822 364.882 26.8018L363.985 34.2828C363.956 34.5186 363.976 34.7559 364.036 34.9823C364.103 35.2313 364.224 35.4658 364.386 35.67L371.106 43.978L361.729 46.4905L361.833 44.7445L363.499 43.6431C363.766 43.4647 363.892 43.1351 363.808 42.8227C363.724 42.5103 363.451 42.2875 363.13 42.2667L361.137 42.1456L360.036 40.4802C359.858 40.2171 359.529 40.0918 359.216 40.1756C358.904 40.2593 358.681 40.5325 358.66 40.8535L358.539 42.8465L356.874 43.9479C356.606 44.1264 356.481 44.4559 356.565 44.7684C356.648 45.0808 356.922 45.3036 357.243 45.3243L359.236 45.4454L360.198 46.9006L353.719 48.6367ZM360.151 33.5923C360.061 33.4562 359.898 33.393 359.74 33.4354C359.581 33.4779 359.472 33.6139 359.462 33.7767L359.404 34.7726L358.571 35.321C358.435 35.4108 358.371 35.5734 358.414 35.7318C358.456 35.8903 358.592 35.9995 358.755 36.0092L359.751 36.0675L360.299 36.9008C360.389 37.0369 360.552 37.1001 360.71 37.0577C360.869 37.0152 360.978 36.8792 360.988 36.7164L361.046 35.7205L361.879 35.1721C362.015 35.0823 362.079 34.9197 362.036 34.7613C361.994 34.6028 361.858 34.4936 361.695 34.4839L360.699 34.4256L360.151 33.5923ZM352.658 50.4738L372.943 45.0386C373.744 44.8239 374.565 45.2979 374.78 46.0993C374.995 46.9007 374.521 47.7217 373.719 47.9364L353.435 53.3716C352.633 53.5863 351.812 53.1124 351.598 52.3109C351.383 51.5095 351.857 50.6886 352.658 50.4738Z" fill="black" fill-opacity="0.1"/>
</g>
<g clip-path="url(#clip26_1726_54504)">
<path d="M394.07 17.6366L396.968 16.8601C397.769 16.6454 398.59 17.1194 398.805 17.9208L399.97 22.2675L394.174 23.8204L393.009 19.4737C392.795 18.6723 393.269 17.8513 394.07 17.6366ZM391.38 30.7806C390.737 28.3809 392.163 25.9123 394.562 25.2693L400.358 23.7164C402.757 23.0734 405.226 24.4986 405.869 26.8983L408.393 36.3161C408.714 37.516 408.001 38.7503 406.802 39.0718L396.659 41.7894C395.46 42.1109 394.225 41.3983 393.904 40.1984L391.38 30.7806ZM403.217 31.4911C402.96 30.5305 402.332 29.7114 401.47 29.2141C400.609 28.7168 399.585 28.5821 398.625 28.8395C397.664 29.0969 396.845 29.7254 396.348 30.5867C395.85 31.448 395.716 32.4716 395.973 33.4323C396.23 34.3929 396.859 35.212 397.72 35.7093C398.582 36.2066 399.605 36.3413 400.566 36.0839C401.527 35.8265 402.346 35.198 402.843 34.3367C403.34 33.4754 403.475 32.4518 403.217 31.4911ZM400.642 18.9815C400.539 18.5972 400.593 18.1878 400.792 17.8432C400.991 17.4987 401.318 17.2473 401.703 17.1443C402.087 17.0414 402.496 17.0953 402.841 17.2942C403.185 17.4931 403.437 17.8207 403.54 18.205C403.643 18.5893 403.589 18.9987 403.39 19.3432C403.191 19.6878 402.863 19.9392 402.479 20.0421C402.095 20.1451 401.685 20.0912 401.341 19.8923C400.996 19.6934 400.745 19.3657 400.642 18.9815ZM406.049 15.9797C406.434 15.8767 406.843 15.9306 407.188 16.1295C407.532 16.3284 407.783 16.6561 407.886 17.0403C407.989 17.4246 407.935 17.834 407.737 18.1785C407.538 18.5231 407.21 18.7745 406.826 18.8774C406.441 18.9804 406.032 18.9265 405.688 18.7276C405.343 18.5287 405.092 18.201 404.989 17.8168C404.886 17.4325 404.94 17.0231 405.138 16.6785C405.337 16.334 405.665 16.0826 406.049 15.9797ZM409.335 16.6521C409.232 16.2678 409.286 15.8584 409.485 15.5139C409.684 15.1693 410.012 14.9179 410.396 14.815C410.78 14.712 411.19 14.7659 411.534 14.9648C411.879 15.1637 412.13 15.4914 412.233 15.8756C412.336 16.2599 412.282 16.6693 412.083 17.0139C411.884 17.3584 411.557 17.6098 411.172 17.7128C410.788 17.8157 410.379 17.7618 410.034 17.5629C409.69 17.364 409.438 17.0364 409.335 16.6521ZM411.561 19.1616C411.945 19.0587 412.354 19.1126 412.699 19.3115C413.043 19.5104 413.295 19.838 413.398 20.2223C413.501 20.6066 413.447 21.016 413.248 21.3605C413.049 21.7051 412.721 21.9565 412.337 22.0594C411.953 22.1624 411.543 22.1085 411.199 21.9096C410.854 21.7107 410.603 21.383 410.5 20.9988C410.397 20.6145 410.451 20.2051 410.65 19.8605C410.849 19.516 411.176 19.2646 411.561 19.1616ZM411.665 25.3454C411.562 24.9612 411.616 24.5517 411.815 24.2072C412.013 23.8627 412.341 23.6113 412.725 23.5083C413.11 23.4053 413.519 23.4592 413.864 23.6582C414.208 23.8571 414.459 24.1847 414.562 24.569C414.665 24.9532 414.612 25.3627 414.413 25.7072C414.214 26.0517 413.886 26.3031 413.502 26.4061C413.118 26.509 412.708 26.4551 412.364 26.2562C412.019 26.0573 411.768 25.7297 411.665 25.3454ZM407.214 20.3263C407.598 20.2234 408.008 20.2773 408.352 20.4762C408.697 20.6751 408.948 21.0027 409.051 21.387C409.154 21.7713 409.1 22.1807 408.901 22.5252C408.702 22.8697 408.375 23.1211 407.99 23.2241C407.606 23.3271 407.197 23.2732 406.852 23.0743C406.508 22.8753 406.256 22.5477 406.153 22.1634C406.05 21.7792 406.104 21.3697 406.303 21.0252C406.502 20.6807 406.83 20.4293 407.214 20.3263Z" fill="black" fill-opacity="0.1"/>
</g>
<g clip-path="url(#clip27_1726_54504)">
<path d="M61.8252 153.15L60.2209 155.929L67.6842 160.238L69.2885 157.459C70.1171 156.024 69.6258 154.19 68.1905 153.362L65.9274 152.051C64.4921 151.223 62.6584 151.714 61.8297 153.149L61.8252 153.15ZM59.4719 157.226L51.7468 170.613C51.4021 171.21 51.2145 171.887 51.1954 172.576L51.0521 178.452C51.042 178.868 51.2565 179.252 51.6125 179.457C51.9684 179.663 52.4083 179.656 52.7596 179.446L57.777 176.384C58.3645 176.022 58.8563 175.522 59.2011 174.925L66.9351 161.535L59.4719 157.226Z" fill="black" fill-opacity="0.1"/>
</g>
<g clip-path="url(#clip28_1726_54504)">
<path d="M104.571 141.648L102.726 144.85L109.914 149L111.76 145.802C112.486 144.545 112.057 142.942 110.799 142.216L108.157 140.687C106.9 139.961 105.297 140.391 104.571 141.648ZM101.857 146.078L101.474 146.316L95.4735 150.021C94.6453 150.534 94.1143 151.414 94.0557 152.39L93.2494 165.428C93.2144 165.985 93.4941 166.522 93.973 166.806L99.0654 157.992C98.8531 157.744 98.6912 157.447 98.6014 157.112C98.2799 155.912 98.9926 154.678 100.192 154.356C101.392 154.035 102.627 154.748 102.948 155.947C103.27 157.147 102.557 158.382 101.357 158.703C101.022 158.793 100.684 158.801 100.363 158.741L95.2717 167.56C95.7617 167.831 96.3629 167.811 96.8272 167.497L107.719 160.279C108.531 159.741 109.032 158.84 109.062 157.866L109.27 150.818L109.281 150.368L101.857 146.078Z" fill="black" fill-opacity="0.1"/>
</g>
<g clip-path="url(#clip29_1726_54504)">
<path d="M138.114 151.96L139.996 140.037C140.271 138.294 141.05 136.673 142.24 135.374L147.751 129.335C147.864 129.213 148.01 129.125 148.169 129.083C148.629 128.955 149.106 129.23 149.231 129.696L149.25 129.768C149.282 129.886 149.29 130.005 149.278 130.125L148.38 137.606C148.351 137.842 148.371 138.079 148.432 138.305C148.499 138.555 148.62 138.789 148.781 138.993L155.501 147.301L146.124 149.814L146.229 148.068L147.894 146.966C148.162 146.788 148.287 146.458 148.203 146.146C148.12 145.833 147.847 145.611 147.526 145.59L145.532 145.469L144.431 143.803C144.254 143.54 143.924 143.415 143.612 143.499C143.299 143.582 143.077 143.856 143.056 144.177L142.935 146.17L141.269 147.271C141.002 147.45 140.876 147.779 140.96 148.092C141.044 148.404 141.317 148.627 141.638 148.648L143.631 148.769L144.594 150.224L138.114 151.96ZM144.546 136.915C144.456 136.779 144.294 136.716 144.135 136.759C143.977 136.801 143.868 136.937 143.858 137.1L143.8 138.096L142.966 138.644C142.83 138.734 142.767 138.897 142.809 139.055C142.852 139.213 142.988 139.323 143.151 139.332L144.147 139.391L144.695 140.224C144.785 140.36 144.947 140.423 145.106 140.381C145.264 140.338 145.373 140.202 145.383 140.04L145.441 139.044L146.275 138.495C146.411 138.405 146.474 138.243 146.432 138.084C146.389 137.926 146.253 137.817 146.09 137.807L145.094 137.749L144.546 136.915ZM137.054 153.797L157.338 148.362C158.14 148.147 158.961 148.621 159.175 149.422C159.39 150.224 158.916 151.045 158.115 151.26L137.83 156.695C137.029 156.91 136.208 156.436 135.993 155.634C135.778 154.833 136.252 154.012 137.054 153.797Z" fill="black" fill-opacity="0.1"/>
</g>
<g clip-path="url(#clip30_1726_54504)">
<path d="M189.573 118.872L187.728 122.074L194.916 126.224L196.762 123.026C197.488 121.769 197.058 120.166 195.801 119.44L193.159 117.911C191.902 117.185 190.299 117.615 189.573 118.872ZM186.858 123.302L186.476 123.54L180.475 127.245C179.647 127.758 179.116 128.638 179.058 129.614L178.251 142.651C178.216 143.209 178.496 143.746 178.975 144.03L184.067 135.216C183.855 134.967 183.693 134.671 183.603 134.336C183.282 133.136 183.995 131.902 185.194 131.58C186.394 131.259 187.629 131.971 187.95 133.171C188.272 134.371 187.559 135.606 186.359 135.927C186.024 136.017 185.686 136.025 185.365 135.965L180.274 144.784C180.764 145.055 181.365 145.035 181.829 144.721L192.721 137.503C193.533 136.965 194.034 136.064 194.064 135.09L194.272 128.042L194.283 127.592L186.858 123.302Z" fill="black" fill-opacity="0.1"/>
</g>
<g clip-path="url(#clip31_1726_54504)">
<path d="M218.069 116.143C217.071 115.876 216.236 115.096 215.948 114.023C215.52 112.424 216.471 110.777 218.07 110.348C219.143 110.061 220.236 110.394 220.966 111.125L230.434 108.588C230.705 107.589 231.485 106.754 232.559 106.466C234.157 106.038 235.805 106.989 236.233 108.587C236.52 109.66 236.187 110.754 235.456 111.484L236.828 116.605C237.828 116.876 238.662 117.652 238.949 118.725C239.377 120.323 238.426 121.971 236.828 122.399C235.755 122.687 234.661 122.354 233.931 121.622L224.464 124.159C224.193 125.159 223.417 125.993 222.343 126.28C220.745 126.709 219.098 125.757 218.669 124.159C218.382 123.086 218.715 121.992 219.446 121.262L218.074 116.141L218.069 116.143ZM221.743 114.023C221.607 114.53 221.338 114.995 220.967 115.366L222.339 120.487C222.846 120.623 223.311 120.892 223.683 121.263L233.15 118.726C233.286 118.219 233.555 117.754 233.926 117.383L232.554 112.262C232.047 112.126 231.582 111.857 231.21 111.486L221.743 114.023ZM235.095 129.08C234.824 130.08 234.048 130.914 232.975 131.201C231.376 131.629 229.729 130.678 229.3 129.08C229.013 128.007 229.346 126.913 230.077 126.183L229.585 124.345L232.482 123.568L232.975 125.407C233.482 125.543 233.947 125.811 234.318 126.182L243.786 123.646C243.922 123.138 244.19 122.673 244.562 122.302L243.189 117.181C242.682 117.045 242.217 116.777 241.846 116.406L239.763 116.964C239.332 116.332 238.752 115.832 238.083 115.492L237.787 114.387L241.074 113.507C241.345 112.507 242.121 111.673 243.194 111.386C244.793 110.957 246.44 111.909 246.868 113.507C247.156 114.58 246.823 115.674 246.092 116.404L247.464 121.524C248.463 121.795 249.297 122.572 249.585 123.645C250.013 125.243 249.062 126.891 247.464 127.319C246.39 127.606 245.297 127.273 244.567 126.542L235.099 129.079L235.095 129.08Z" fill="black" fill-opacity="0.1"/>
</g>
<g clip-path="url(#clip32_1726_54504)">
<path d="M269.263 96.6308L272.161 95.8543C272.963 95.6396 273.783 96.1136 273.998 96.915L275.163 101.262L269.367 102.815L268.203 98.4679C267.988 97.6665 268.462 96.8455 269.263 96.6308ZM266.574 109.775C265.931 107.375 267.356 104.906 269.756 104.263L275.551 102.711C277.951 102.068 280.419 103.493 281.062 105.893L283.586 115.31C283.907 116.51 283.195 117.744 281.995 118.066L271.853 120.784C270.653 121.105 269.419 120.392 269.097 119.193L266.574 109.775ZM278.411 110.485C278.153 109.525 277.525 108.706 276.664 108.208C275.802 107.711 274.779 107.576 273.818 107.834C272.857 108.091 272.038 108.72 271.541 109.581C271.044 110.442 270.909 111.466 271.166 112.426C271.424 113.387 272.052 114.206 272.914 114.703C273.775 115.201 274.799 115.336 275.759 115.078C276.72 114.821 277.539 114.192 278.036 113.331C278.533 112.47 278.668 111.446 278.411 110.485ZM275.835 97.9757C275.732 97.5914 275.786 97.182 275.985 96.8374C276.184 96.4929 276.512 96.2415 276.896 96.1385C277.28 96.0356 277.69 96.0895 278.034 96.2884C278.379 96.4873 278.63 96.8149 278.733 97.1992C278.836 97.5835 278.782 97.9929 278.583 98.3374C278.384 98.682 278.057 98.9334 277.672 99.0363C277.288 99.1393 276.879 99.0854 276.534 98.8865C276.19 98.6876 275.938 98.3599 275.835 97.9757ZM281.243 94.9739C281.627 94.8709 282.036 94.9248 282.381 95.1237C282.725 95.3226 282.977 95.6503 283.08 96.0345C283.183 96.4188 283.129 96.8282 282.93 97.1728C282.731 97.5173 282.403 97.7687 282.019 97.8716C281.635 97.9746 281.225 97.9207 280.881 97.7218C280.536 97.5229 280.285 97.1952 280.182 96.811C280.079 96.4267 280.133 96.0173 280.332 95.6728C280.531 95.3282 280.858 95.0768 281.243 94.9739ZM284.529 95.6463C284.426 95.262 284.48 94.8526 284.679 94.5081C284.877 94.1635 285.205 93.9121 285.589 93.8092C285.974 93.7062 286.383 93.7601 286.728 93.959C287.072 94.1579 287.323 94.4856 287.426 94.8698C287.529 95.2541 287.476 95.6635 287.277 96.0081C287.078 96.3526 286.75 96.604 286.366 96.707C285.982 96.8099 285.572 96.756 285.228 96.5571C284.883 96.3582 284.632 96.0306 284.529 95.6463ZM286.754 98.1558C287.138 98.0529 287.548 98.1068 287.892 98.3057C288.237 98.5046 288.488 98.8322 288.591 99.2165C288.694 99.6008 288.64 100.01 288.441 100.355C288.242 100.699 287.915 100.951 287.53 101.054C287.146 101.157 286.737 101.103 286.392 100.904C286.048 100.705 285.796 100.377 285.693 99.993C285.59 99.6087 285.644 99.1993 285.843 98.8547C286.042 98.5102 286.37 98.2588 286.754 98.1558ZM286.858 104.34C286.755 103.955 286.809 103.546 287.008 103.201C287.207 102.857 287.534 102.605 287.919 102.503C288.303 102.4 288.712 102.453 289.057 102.652C289.401 102.851 289.653 103.179 289.756 103.563C289.859 103.947 289.805 104.357 289.606 104.701C289.407 105.046 289.079 105.297 288.695 105.4C288.311 105.503 287.901 105.449 287.557 105.25C287.212 105.052 286.961 104.724 286.858 104.34ZM282.407 99.3205C282.792 99.2176 283.201 99.2715 283.546 99.4704C283.89 99.6693 284.142 99.9969 284.244 100.381C284.347 100.765 284.294 101.175 284.095 101.519C283.896 101.864 283.568 102.115 283.184 102.218C282.8 102.321 282.39 102.267 282.046 102.068C281.701 101.87 281.45 101.542 281.347 101.158C281.244 100.773 281.298 100.364 281.497 100.019C281.695 99.6749 282.023 99.4235 282.407 99.3205Z" fill="black" fill-opacity="0.1"/>
</g>
<g clip-path="url(#clip33_1726_54504)">
<path d="M306.551 88.9691C306.23 87.7692 306.942 86.5349 308.142 86.2134L315.387 84.2723C316.586 83.9508 317.821 84.6634 318.142 85.8633L318.725 88.0366L315.102 89.0072C314.704 89.1139 314.465 89.5273 314.572 89.9257C314.679 90.3242 315.092 90.5628 315.491 90.4561L319.113 89.4855L319.889 92.3833L316.267 93.3539C315.869 93.4606 315.63 93.874 315.737 94.2724C315.843 94.6709 316.257 94.9095 316.655 94.8027L320.277 93.8322L321.054 96.7299L317.432 97.7005C317.033 97.8073 316.795 98.2206 316.901 98.6191C317.008 99.0175 317.421 99.2562 317.82 99.1494L321.442 98.1788L322.219 101.077L318.596 102.047C318.198 102.154 317.959 102.567 318.066 102.966C318.173 103.364 318.586 103.603 318.985 103.496L322.607 102.526L323.189 104.699C323.511 105.899 322.798 107.133 321.598 107.455L314.354 109.396C313.154 109.717 311.92 109.005 311.598 107.805L306.551 88.9691Z" fill="black" fill-opacity="0.1"/>
</g>
<g clip-path="url(#clip34_1726_54504)">
<path d="M339.775 83.5315C338.777 83.2652 337.942 82.4844 337.654 81.4113C337.226 79.813 338.177 78.1654 339.776 77.7371C340.849 77.4496 341.943 77.7825 342.672 78.5139L352.14 75.977C352.411 74.9776 353.192 74.1423 354.265 73.8548C355.863 73.4265 357.511 74.3778 357.939 75.9761C358.226 77.0492 357.893 78.143 357.162 78.8727L358.534 83.9937C359.534 84.2645 360.368 85.0407 360.655 86.1138C361.083 87.7121 360.132 89.3598 358.534 89.7881C357.461 90.0756 356.367 89.7426 355.637 89.0113L346.17 91.5481C345.899 92.5476 345.123 93.3816 344.05 93.6691C342.451 94.0974 340.804 93.1461 340.375 91.5478C340.088 90.4747 340.421 89.381 341.152 88.6512L339.78 83.5303L339.775 83.5315ZM343.449 81.4116C343.313 81.9188 343.044 82.3838 342.673 82.755L344.045 87.8759C344.552 88.0118 345.017 88.2803 345.389 88.6516L354.856 86.1147C354.992 85.6076 355.261 85.1426 355.632 84.7713L354.26 79.6504C353.753 79.5145 353.288 79.2461 352.916 78.8748L343.449 81.4116ZM356.801 96.4689C356.53 97.4684 355.754 98.3024 354.681 98.5899C353.082 99.0182 351.435 98.0669 351.006 96.4686C350.719 95.3955 351.052 94.3018 351.783 93.572L351.291 91.7337L354.188 90.9573L354.681 92.7955C355.188 92.9314 355.653 93.1999 356.024 93.5712L365.492 91.0343C365.628 90.5272 365.896 90.0622 366.268 89.6909L364.895 84.57C364.388 84.4341 363.923 84.1657 363.552 83.7944L361.469 84.3525C361.038 83.7207 360.458 83.2211 359.789 82.881L359.493 81.7762L362.78 80.8954C363.051 79.8959 363.827 79.0619 364.9 78.7744C366.499 78.3461 368.146 79.2974 368.575 80.8957C368.862 81.9688 368.529 83.0626 367.798 83.7923L369.17 88.9133C370.169 89.1841 371.003 89.9603 371.291 91.0334C371.719 92.6317 370.768 94.2794 369.17 94.7077C368.097 94.9952 367.003 94.6622 366.273 93.9309L356.805 96.4677L356.801 96.4689Z" fill="black" fill-opacity="0.1"/>
</g>
<g clip-path="url(#clip35_1726_54504)">
<path d="M393.119 83.6316L395.001 71.7088C395.276 69.9656 396.055 68.3447 397.245 67.0455L402.756 61.0072C402.869 60.8847 403.015 60.797 403.174 60.7545C403.634 60.6263 404.111 60.9014 404.236 61.3677L404.255 61.4402C404.287 61.5579 404.294 61.6772 404.283 61.7967L403.385 69.2777C403.356 69.5135 403.376 69.7509 403.437 69.9772C403.504 70.2263 403.625 70.4607 403.786 70.665L410.506 78.9729L401.129 81.4855L401.234 79.7395L402.899 78.6381C403.167 78.4596 403.292 78.13 403.208 77.8176C403.125 77.5052 402.851 77.2824 402.53 77.2616L400.537 77.1405L399.436 75.4751C399.259 75.212 398.929 75.0868 398.617 75.1705C398.304 75.2542 398.082 75.5274 398.061 75.8484L397.94 77.8414L396.274 78.9428C396.007 79.1213 395.881 79.4509 395.965 79.7633C396.049 80.0757 396.322 80.2985 396.643 80.3193L398.636 80.4404L399.599 81.8955L393.119 83.6316ZM399.551 68.5872C399.461 68.4511 399.299 68.3879 399.14 68.4304C398.982 68.4728 398.872 68.6088 398.863 68.7716L398.804 69.7675L397.971 70.3159C397.835 70.4058 397.772 70.5683 397.814 70.7268C397.857 70.8852 397.993 70.9944 398.156 71.0042L399.151 71.0624L399.7 71.8958C399.79 72.0318 399.952 72.0951 400.111 72.0526C400.269 72.0101 400.378 71.8741 400.388 71.7114L400.446 70.7155L401.28 70.167C401.416 70.0772 401.479 69.9147 401.437 69.7562C401.394 69.5977 401.258 69.4886 401.095 69.4788L400.099 69.4205L399.551 68.5872ZM392.059 85.4688L412.343 80.0336C413.145 79.8188 413.965 80.2928 414.18 81.0942C414.395 81.8956 413.921 82.7166 413.12 82.9313L392.835 88.3665C392.034 88.5813 391.213 88.1073 390.998 87.3059C390.783 86.5045 391.257 85.6835 392.059 85.4688Z" fill="black" fill-opacity="0.1"/>
</g>
<g clip-path="url(#clip36_1726_54504)">
<path d="M206.757 159.82L204.912 163.022L212.099 167.172L213.946 163.974C214.672 162.717 214.242 161.114 212.985 160.388L210.343 158.859C209.085 158.133 207.483 158.562 206.757 159.82ZM204.042 164.25L203.659 164.488L197.659 168.192C196.831 168.706 196.3 169.585 196.241 170.562L195.435 183.599C195.4 184.157 195.68 184.694 196.159 184.978L201.251 176.164C201.039 175.915 200.877 175.619 200.787 175.284C200.465 174.084 201.178 172.85 202.378 172.528C203.578 172.207 204.812 172.919 205.134 174.119C205.455 175.319 204.743 176.553 203.543 176.875C203.208 176.965 202.87 176.973 202.548 176.913L197.457 185.731C197.947 186.003 198.548 185.983 199.013 185.669L209.905 178.451C210.717 177.913 211.218 177.012 211.248 176.038L211.456 168.989L211.466 168.54L204.042 164.25Z" fill="black" fill-opacity="0.1"/>
</g>
<g clip-path="url(#clip37_1726_54504)">
<path d="M235.252 157.09C234.254 156.824 233.418 156.043 233.131 154.97C232.703 153.372 233.654 151.724 235.252 151.296C236.325 151.009 237.419 151.341 238.149 152.073L253.412 147.983C253.683 146.984 254.464 146.148 255.537 145.861C257.135 145.433 258.783 146.384 259.211 147.982C259.498 149.055 259.166 150.149 258.434 150.879L261.747 163.244C262.747 163.515 263.581 164.291 263.868 165.364C264.297 166.963 263.345 168.61 261.747 169.039C260.674 169.326 259.58 168.993 258.851 168.262L243.587 172.352C243.317 173.351 242.54 174.185 241.467 174.473C239.869 174.901 238.221 173.95 237.793 172.351C237.505 171.278 237.838 170.184 238.57 169.455L235.256 157.089L235.252 157.09ZM254.193 150.88L238.925 154.971C238.789 155.478 238.521 155.943 238.15 156.314L241.463 168.679C241.97 168.815 242.435 169.084 242.806 169.455L258.07 165.365C258.205 164.858 258.474 164.393 258.845 164.022L255.532 151.656C255.025 151.521 254.56 151.252 254.188 150.881L254.193 150.88ZM240.091 157.764C239.876 156.963 240.35 156.142 241.152 155.927L246.947 154.374C247.749 154.159 248.57 154.633 248.785 155.435L249.949 159.781C250.164 160.583 249.69 161.404 248.889 161.618L243.093 163.171C242.292 163.386 241.471 162.912 241.256 162.111L240.091 157.764ZM247.828 163.456L249.277 163.067C250.875 162.639 251.826 160.991 251.398 159.393L251.01 157.944L253.908 157.168C254.709 156.953 255.53 157.427 255.745 158.228L256.909 162.575C257.124 163.377 256.65 164.197 255.849 164.412L250.053 165.965C249.252 166.18 248.431 165.706 248.216 164.904L247.828 163.456Z" fill="black" fill-opacity="0.1"/>
</g>
<g clip-path="url(#clip38_1726_54504)">
<path d="M278.141 141.357C277.926 140.556 278.4 139.735 279.202 139.52L284.997 137.967C285.799 137.752 286.62 138.226 286.834 139.028L291.493 156.414C292.136 158.814 290.711 161.283 288.311 161.926C285.912 162.569 283.443 161.143 282.8 158.744L278.141 141.357ZM293.044 156.479C293.018 156.326 292.982 156.175 292.942 156.026L289.764 144.163L292.263 139.835C292.677 139.117 293.596 138.871 294.314 139.285L299.509 142.285C300.227 142.699 300.473 143.618 300.059 144.336L293.044 156.479ZM292.241 160.873L298.605 149.85L303.369 148.574C304.17 148.359 304.991 148.833 305.206 149.634L306.759 155.43C306.973 156.231 306.499 157.052 305.698 157.267L292.241 160.873ZM284.325 141.253L281.427 142.029L282.204 144.927L285.101 144.151L284.325 141.253ZM282.98 147.825L283.757 150.723L286.654 149.946L285.878 147.048L282.98 147.825ZM287.438 158.666C287.726 158.588 287.972 158.4 288.121 158.141C288.27 157.883 288.31 157.576 288.233 157.288C288.156 157 287.967 156.754 287.709 156.605C287.451 156.455 287.144 156.415 286.855 156.492C286.567 156.57 286.321 156.758 286.172 157.016C286.023 157.275 285.983 157.582 286.06 157.87C286.137 158.158 286.326 158.404 286.584 158.553C286.842 158.702 287.15 158.743 287.438 158.666Z" fill="black" fill-opacity="0.1"/>
</g>
<g clip-path="url(#clip39_1726_54504)">
<path d="M323.151 133.538C322.153 133.272 321.318 132.491 321.03 131.418C320.602 129.819 321.553 128.172 323.152 127.744C324.225 127.456 325.319 127.789 326.048 128.52L335.516 125.983C335.787 124.984 336.567 124.149 337.641 123.861C339.239 123.433 340.887 124.384 341.315 125.983C341.602 127.056 341.269 128.149 340.538 128.879L341.91 134C342.91 134.271 343.744 135.047 344.031 136.12C344.459 137.719 343.508 139.366 341.91 139.795C340.837 140.082 339.743 139.749 339.013 139.018L329.546 141.555C329.275 142.554 328.499 143.388 327.426 143.676C325.827 144.104 324.18 143.153 323.751 141.554C323.464 140.481 323.797 139.387 324.528 138.658L323.156 133.537L323.151 133.538ZM326.825 131.418C326.689 131.925 326.42 132.39 326.049 132.762L327.421 137.882C327.928 138.018 328.393 138.287 328.765 138.658L338.232 136.121C338.368 135.614 338.637 135.149 339.008 134.778L337.636 129.657C337.129 129.521 336.664 129.253 336.292 128.881L326.825 131.418ZM340.177 146.475C339.906 147.475 339.13 148.309 338.057 148.596C336.458 149.025 334.811 148.073 334.382 146.475C334.095 145.402 334.428 144.308 335.159 143.578L334.667 141.74L337.564 140.964L338.057 142.802C338.564 142.938 339.029 143.206 339.4 143.578L348.868 141.041C349.004 140.534 349.272 140.069 349.644 139.697L348.271 134.576C347.764 134.441 347.299 134.172 346.928 133.801L344.845 134.359C344.414 133.727 343.834 133.228 343.165 132.887L342.869 131.783L346.156 130.902C346.427 129.902 347.203 129.068 348.276 128.781C349.875 128.353 351.522 129.304 351.95 130.902C352.238 131.975 351.905 133.069 351.174 133.799L352.546 138.92C353.545 139.191 354.379 139.967 354.667 141.04C355.095 142.638 354.144 144.286 352.546 144.714C351.472 145.002 350.379 144.669 349.649 143.937L340.181 146.474L340.177 146.475Z" fill="black" fill-opacity="0.1"/>
</g>
<g clip-path="url(#clip40_1726_54504)">
<path d="M376.495 133.638L378.377 121.715C378.652 119.972 379.431 118.351 380.621 117.052L386.132 111.014C386.245 110.891 386.391 110.803 386.55 110.761C387.01 110.633 387.487 110.908 387.612 111.374L387.631 111.447C387.663 111.564 387.67 111.684 387.659 111.803L386.761 119.284C386.732 119.52 386.752 119.757 386.813 119.984C386.88 120.233 387.001 120.467 387.162 120.671L393.882 128.979L384.505 131.492L384.61 129.746L386.275 128.645C386.543 128.466 386.668 128.137 386.584 127.824C386.501 127.512 386.227 127.289 385.906 127.268L383.913 127.147L382.812 125.482C382.635 125.218 382.305 125.093 381.993 125.177C381.68 125.261 381.457 125.534 381.437 125.855L381.316 127.848L379.65 128.949C379.383 129.128 379.257 129.457 379.341 129.77C379.425 130.082 379.698 130.305 380.019 130.326L382.012 130.447L382.975 131.902L376.495 133.638ZM382.927 118.594C382.837 118.458 382.675 118.394 382.516 118.437C382.358 118.479 382.248 118.615 382.239 118.778L382.18 119.774L381.347 120.322C381.211 120.412 381.148 120.575 381.19 120.733C381.233 120.892 381.369 121.001 381.531 121.011L382.527 121.069L383.076 121.902C383.166 122.038 383.328 122.102 383.487 122.059C383.645 122.017 383.754 121.881 383.764 121.718L383.822 120.722L384.656 120.174C384.792 120.084 384.855 119.921 384.812 119.763C384.77 119.604 384.634 119.495 384.471 119.485L383.475 119.427L382.927 118.594ZM375.435 135.475L395.719 130.04C396.521 129.825 397.341 130.299 397.556 131.101C397.771 131.902 397.297 132.723 396.496 132.938L376.211 138.373C375.41 138.588 374.589 138.114 374.374 137.312C374.159 136.511 374.633 135.69 375.435 135.475Z" fill="black" fill-opacity="0.1"/>
</g>
<g clip-path="url(#clip41_1726_54504)">
<path d="M362.551 168.533C361.553 168.267 360.717 167.486 360.43 166.413C360.002 164.814 360.953 163.167 362.551 162.739C363.624 162.451 364.718 162.784 365.448 163.515L374.915 160.978C375.186 159.979 375.967 159.144 377.04 158.856C378.638 158.428 380.286 159.379 380.714 160.978C381.002 162.051 380.669 163.144 379.937 163.874L381.31 168.995C382.309 169.266 383.143 170.042 383.431 171.115C383.859 172.714 382.908 174.361 381.309 174.79C380.236 175.077 379.142 174.744 378.413 174.013L368.945 176.55C368.674 177.549 367.898 178.383 366.825 178.671C365.227 179.099 363.579 178.148 363.151 176.549C362.863 175.476 363.196 174.382 363.927 173.653L362.555 168.532L362.551 168.533ZM366.224 166.413C366.088 166.92 365.82 167.385 365.449 167.756L366.821 172.877C367.328 173.013 367.793 173.282 368.164 173.653L377.632 171.116C377.768 170.609 378.036 170.144 378.407 169.773L377.035 164.652C376.528 164.516 376.063 164.248 375.692 163.876L366.224 166.413ZM379.576 181.47C379.305 182.47 378.529 183.304 377.456 183.591C375.858 184.02 374.21 183.068 373.782 181.47C373.494 180.397 373.827 179.303 374.559 178.573L374.066 176.735L376.964 175.959L377.456 177.797C377.964 177.933 378.429 178.201 378.8 178.573L388.267 176.036C388.403 175.529 388.672 175.064 389.043 174.692L387.671 169.571C387.164 169.436 386.699 169.167 386.327 168.796L384.245 169.354C383.813 168.722 383.233 168.223 382.564 167.882L382.268 166.778L385.556 165.897C385.826 164.897 386.603 164.063 387.676 163.776C389.274 163.348 390.922 164.299 391.35 165.897C391.637 166.97 391.304 168.064 390.573 168.794L391.945 173.915C392.945 174.186 393.779 174.962 394.066 176.035C394.495 177.633 393.543 179.281 391.945 179.709C390.872 179.997 389.778 179.664 389.048 178.932L379.581 181.469L379.576 181.47Z" fill="black" fill-opacity="0.1"/>
</g>
<defs>
<clipPath id="clip0_1726_54504">
<rect width="24" height="24" fill="white" transform="translate(-0.383789 -13.326) rotate(-15)"/>
</clipPath>
<clipPath id="clip1_1726_54504">
<rect width="24" height="24" fill="white" transform="translate(-14.1094 35.9039) rotate(-15)"/>
</clipPath>
<clipPath id="clip2_1726_54504">
<rect width="12" height="24" fill="white" transform="translate(28.3916 24.5159) rotate(-15)"/>
</clipPath>
<clipPath id="clip3_1726_54504">
<rect width="24" height="24" fill="white" transform="translate(59.3008 16.2337) rotate(-15)"/>
</clipPath>
<clipPath id="clip4_1726_54504">
<rect width="24" height="24" fill="white" transform="translate(101.802 4.84564) rotate(-15)"/>
</clipPath>
<clipPath id="clip5_1726_54504">
<rect width="24" height="24" fill="white" transform="translate(144.303 -6.54236) rotate(-15)"/>
</clipPath>
<clipPath id="clip6_1726_54504">
<rect width="27" height="24" fill="white" transform="translate(186.803 -17.9304) rotate(-15)"/>
</clipPath>
<clipPath id="clip7_1726_54504">
<rect width="27" height="24" fill="white" transform="translate(-23.0059 83.8398) rotate(-15)"/>
</clipPath>
<clipPath id="clip8_1726_54504">
<rect width="24" height="24" fill="white" transform="translate(22.3926 71.6754) rotate(-15)"/>
</clipPath>
<clipPath id="clip9_1726_54504">
<rect width="24" height="24" fill="white" transform="translate(64.8926 60.2874) rotate(-15)"/>
</clipPath>
<clipPath id="clip10_1726_54504">
<rect width="24" height="24" fill="white" transform="translate(107.394 48.8993) rotate(-15)"/>
</clipPath>
<clipPath id="clip11_1726_54504">
<rect width="24" height="24" fill="white" transform="translate(149.895 37.5113) rotate(-15)"/>
</clipPath>
<clipPath id="clip12_1726_54504">
<rect width="30" height="24" fill="white" transform="translate(192.396 26.1232) rotate(-15)"/>
</clipPath>
<clipPath id="clip13_1726_54504">
<rect width="24" height="24" fill="white" transform="translate(240.691 13.1823) rotate(-15)"/>
</clipPath>
<clipPath id="clip14_1726_54504">
<rect width="12" height="24" fill="white" transform="translate(283.192 1.79425) rotate(-15)"/>
</clipPath>
<clipPath id="clip15_1726_54504">
<rect width="30" height="24" fill="white" transform="translate(314.102 -6.48798) rotate(-15)"/>
</clipPath>
<clipPath id="clip16_1726_54504">
<rect width="24" height="24" fill="white" transform="translate(362.398 -19.4289) rotate(-15)"/>
</clipPath>
<clipPath id="clip17_1726_54504">
<rect width="24" height="24" fill="white" transform="translate(8.66602 120.905) rotate(-15)"/>
</clipPath>
<clipPath id="clip18_1726_54504">
<rect width="12" height="24" fill="white" transform="translate(51.167 109.517) rotate(-15)"/>
</clipPath>
<clipPath id="clip19_1726_54504">
<rect width="24" height="24" fill="white" transform="translate(82.0762 101.235) rotate(-15)"/>
</clipPath>
<clipPath id="clip20_1726_54504">
<rect width="24" height="24" fill="white" transform="translate(124.577 89.8472) rotate(-15)"/>
</clipPath>
<clipPath id="clip21_1726_54504">
<rect width="24" height="24" fill="white" transform="translate(167.078 78.4591) rotate(-15)"/>
</clipPath>
<clipPath id="clip22_1726_54504">
<rect width="27" height="24" fill="white" transform="translate(209.578 67.071) rotate(-15)"/>
</clipPath>
<clipPath id="clip23_1726_54504">
<rect width="24" height="24" fill="white" transform="translate(254.977 54.9066) rotate(-15)"/>
</clipPath>
<clipPath id="clip24_1726_54504">
<rect width="30" height="24" fill="white" transform="translate(297.478 43.5186) rotate(-15)"/>
</clipPath>
<clipPath id="clip25_1726_54504">
<rect width="24" height="24" fill="white" transform="translate(345.774 30.5776) rotate(-15)"/>
</clipPath>
<clipPath id="clip26_1726_54504">
<rect width="24" height="24" fill="white" transform="translate(388.274 19.1895) rotate(-15)"/>
</clipPath>
<clipPath id="clip27_1726_54504">
<rect width="24" height="24" fill="white" transform="translate(45.1689 156.677) rotate(-15)"/>
</clipPath>
<clipPath id="clip28_1726_54504">
<rect width="24" height="24" fill="white" transform="translate(87.6689 145.289) rotate(-15)"/>
</clipPath>
<clipPath id="clip29_1726_54504">
<rect width="24" height="24" fill="white" transform="translate(130.17 133.901) rotate(-15)"/>
</clipPath>
<clipPath id="clip30_1726_54504">
<rect width="24" height="24" fill="white" transform="translate(172.671 122.513) rotate(-15)"/>
</clipPath>
<clipPath id="clip31_1726_54504">
<rect width="30" height="24" fill="white" transform="translate(215.172 111.125) rotate(-15)"/>
</clipPath>
<clipPath id="clip32_1726_54504">
<rect width="24" height="24" fill="white" transform="translate(263.468 98.1837) rotate(-15)"/>
</clipPath>
<clipPath id="clip33_1726_54504">
<rect width="12" height="24" fill="white" transform="translate(305.969 86.7958) rotate(-15)"/>
</clipPath>
<clipPath id="clip34_1726_54504">
<rect width="30" height="24" fill="white" transform="translate(336.878 78.5135) rotate(-15)"/>
</clipPath>
<clipPath id="clip35_1726_54504">
<rect width="24" height="24" fill="white" transform="translate(385.175 65.5725) rotate(-15)"/>
</clipPath>
<clipPath id="clip36_1726_54504">
<rect width="24" height="24" fill="white" transform="translate(189.854 163.461) rotate(-15)"/>
</clipPath>
<clipPath id="clip37_1726_54504">
<rect width="27" height="24" fill="white" transform="translate(232.354 152.073) rotate(-15)"/>
</clipPath>
<clipPath id="clip38_1726_54504">
<rect width="24" height="24" fill="white" transform="translate(277.753 139.908) rotate(-15)"/>
</clipPath>
<clipPath id="clip39_1726_54504">
<rect width="30" height="24" fill="white" transform="translate(320.254 128.52) rotate(-15)"/>
</clipPath>
<clipPath id="clip40_1726_54504">
<rect width="24" height="24" fill="white" transform="translate(368.551 115.579) rotate(-15)"/>
</clipPath>
<clipPath id="clip41_1726_54504">
<rect width="30" height="24" fill="white" transform="translate(359.653 163.515) rotate(-15)"/>
</clipPath>
</defs>
</svg>
