<svg width="118" height="124" viewBox="0 0 118 124" fill="none" xmlns="http://www.w3.org/2000/svg">
<path d="M85.6014 11.9551C120.505 35.6128 126.192 76.8964 105.297 103.207C84.4018 129.517 36.2445 128.128 9.93419 107.233C-16.3762 86.3384 21.1421 66.0303 22.494 35.6127C23.8458 5.19512 50.6974 -11.7025 85.6014 11.9551Z" fill="#BBE8D7"/>
<mask id="mask0_3060_4813" style="mask-type:alpha" maskUnits="userSpaceOnUse" x="40" y="51" width="37" height="36">
<rect x="40.75" y="51" width="36" height="36" fill="#D9D9D9"/>
</mask>
<g mask="url(#mask0_3060_4813)">
<path d="M53.65 84.75L50.8 79.95L45.4 78.75L45.925 73.2L42.25 69L45.925 64.8L45.4 59.25L50.8 58.05L53.65 53.25L58.75 55.425L63.85 53.25L66.7 58.05L72.1 59.25L71.575 64.8L75.25 69L71.575 73.2L72.1 78.75L66.7 79.95L63.85 84.75L58.75 82.575L53.65 84.75ZM54.925 80.925L58.75 79.275L62.65 80.925L64.75 77.325L68.875 76.35L68.5 72.15L71.275 69L68.5 65.775L68.875 61.575L64.75 60.675L62.575 57.075L58.75 58.725L54.85 57.075L52.75 60.675L48.625 61.575L49 65.775L46.225 69L49 72.15L48.625 76.425L52.75 77.325L54.925 80.925ZM57.175 74.325L65.65 65.85L63.55 63.675L57.175 70.05L53.95 66.9L51.85 69L57.175 74.325Z" fill="black" fill-opacity="0.3"/>
</g>
</svg>
