<?xml version="1.0" encoding="utf-8"?>
<!-- Generator: Adobe Illustrator 23.1.0, SVG Export Plug-In . SVG Version: 6.00 Build 0)  -->
<svg version="1.1" id="Слой_1" xmlns="http://www.w3.org/2000/svg" xmlns:xlink="http://www.w3.org/1999/xlink" x="0px" y="0px"
	 viewBox="0 0 95 94" style="enable-background:new 0 0 95 94;" xml:space="preserve">
<style type="text/css">
	.st0{fill:#4577E5;}
	.st1{fill:#FFFFFF;}
</style>
<path class="st0" d="M9.8,19.6C-7.4,46.7,1.1,77.2,23.7,89.3c22.6,12,55.7-3.5,67.7-26.1C103.4,40.6,71.1,37.8,61,17
	C50.8-3.8,26.9-7.4,9.8,19.6z"/>
<path class="st1" d="M43.7,68.3c-3,0-5.6-0.6-7.8-1.7c-2.2-1.2-3.9-2.8-5.1-4.8l4.6-6.2c2.5,2.9,5.1,4.3,7.7,4.3
	c1.6,0,2.8-0.4,3.6-1.1s1.3-1.6,1.3-2.7c0-2.9-2.2-4.3-6.7-4.3H39v-8.4h2.2c1.6,0,2.9-0.3,3.9-1c1-0.7,1.5-1.7,1.5-2.9
	c0-1-0.3-1.8-0.9-2.4c-0.6-0.6-1.5-1-2.7-1c-2.6,0-4.9,1.2-6.8,3.5l-4.6-6c2.4-3.9,6.4-5.9,12.2-5.9c3.5,0,6.3,0.9,8.5,2.7
	c2.2,1.8,3.3,4.2,3.3,7.3c0,4.4-1.9,7.4-5.8,9.2v0.2c2.3,0.4,4.1,1.5,5.4,3.2c1.3,1.6,2,3.7,2,6.1c0,3.6-1.3,6.5-3.8,8.7
	C50.8,67.2,47.6,68.3,43.7,68.3z"/>
</svg>
