<svg width="49" height="50" viewBox="0 0 49 50" fill="none" xmlns="http://www.w3.org/2000/svg">
<circle cx="24.2522" cy="24.2536" r="21.7659" fill="#B9CCF5"/>
<circle cx="24.2534" cy="24.2534" r="20.2534" stroke="#2E66E2" stroke-width="8"/>
<path fill-rule="evenodd" clip-rule="evenodd" d="M21.7663 45.8784C32.6158 44.644 41.0445 35.4329 41.0445 24.2531C41.0445 13.0734 32.6158 3.86224 21.7663 2.62781C10.9168 3.86224 2.48804 13.0734 2.48804 24.2531C2.48804 35.4329 10.9168 44.644 21.7663 45.8784Z" fill="#5C88E8"/>
<path d="M42.9499 35.4731C44.8984 32.2122 46.0181 28.399 46.0181 24.3242C46.0181 17.1758 42.5721 10.8322 37.2507 6.86412C32.006 8.00271 25.432 10.3549 28.2946 13.5355C30.718 16.2282 33.5042 15.76 35.6958 15.3917C37.0005 15.1724 38.0945 14.9885 38.7757 15.5281C39.1012 15.7859 39.1329 16.2452 39.0807 16.6572C38.7973 18.8966 39.3198 20.1558 40.8877 21.1536C42.5979 22.2419 40.7323 24.4185 36.2236 23.9521C34.1065 23.733 32.4008 23.1027 31.1064 22.6243C29.6442 22.084 28.7069 21.7376 28.2946 22.3973C28.2217 22.514 28.142 22.6388 28.0583 22.7698L28.0579 22.7705L28.0576 22.7709C27.2483 24.0379 26.0649 25.8908 27.0509 26.5951C28.021 27.2881 31.7591 32.1822 31.303 37.422C31.1928 38.6889 31.5102 40.0822 32.6547 39.5277C34.4876 38.6397 37.2362 35.6108 38.4002 30.6373C39.7362 27.0469 40.5788 29.3759 41.6026 32.2053C42.0091 33.3287 42.4441 34.531 42.9499 35.4731Z" fill="#F7AD30"/>
<path d="M5.81515 12.7504C3.7062 16.1029 2.48633 20.0711 2.48633 24.3242C2.48633 34.2866 9.17946 42.6858 18.3143 45.2703C19.9822 40.0057 14.7672 36.5053 10.6974 33.7735C7.22315 31.4416 4.58345 29.6697 7.77233 27.8387C11.2147 27.2401 11.2471 23.2794 10.3663 21.7825C10.3058 21.6797 10.2939 21.5523 10.3594 21.4526C11.0818 20.3529 12.9139 19.651 14.2767 19.1289C15.6342 18.6087 16.5259 18.2671 15.3904 17.8886C14.9547 17.7434 14.4049 17.6198 13.7848 17.4805C11.3291 16.9286 7.76972 16.1288 5.81515 12.7504Z" fill="#F7AD30"/>
<path fill-rule="evenodd" clip-rule="evenodd" d="M38.5076 7.87548C36.1569 8.33261 33.384 9.0615 31.3459 10.0011C30.0637 10.5922 29.2893 11.1712 28.9796 11.6431C28.849 11.8421 28.8368 11.9669 28.8465 12.0534C28.8577 12.1539 28.9188 12.3698 29.2193 12.7037C30.7721 14.429 32.4499 14.5616 34.1585 14.3651C34.599 14.3145 35.0297 14.2427 35.4708 14.1686L35.5084 14.1622C35.9248 14.0922 36.3652 14.0182 36.7811 13.9742C37.5751 13.8902 38.6727 13.8599 39.5483 14.5533C40.4382 15.2581 40.3726 16.3588 40.315 16.8136C40.1871 17.8246 40.2633 18.46 40.4433 18.9047C40.6126 19.323 40.9272 19.7045 41.5559 20.1046C42.2231 20.5292 42.7711 21.2228 42.7585 22.1331C42.7465 23.0008 42.2265 23.6801 41.6419 24.1255C40.4745 25.0149 38.5136 25.4397 36.096 25.1896C33.8178 24.9539 31.9806 24.2742 30.6876 23.7958C30.5995 23.7632 30.514 23.7316 30.431 23.7011C29.8291 23.4798 29.4498 23.3535 29.1939 23.3035C29.1568 23.362 29.1193 23.4208 29.0817 23.4797C28.7226 24.0431 28.3534 24.622 28.1122 25.1714C28.0033 25.4195 27.9524 25.5948 27.932 25.7056C28.3074 26.0166 28.7509 26.5204 29.1831 27.0953C29.7044 27.7887 30.2872 28.6904 30.8208 29.7404C31.8796 31.8234 32.7978 34.596 32.5424 37.5303C32.523 37.7539 32.5216 37.9721 32.5374 38.1646C33.9898 37.2095 36.1898 34.6257 37.1895 30.3543L37.2074 30.2777L37.2349 30.204C37.5529 29.3492 37.9135 28.6077 38.3878 28.1393C38.6444 27.886 39.0187 27.6289 39.5126 27.5747C40.0243 27.5186 40.4492 27.7033 40.7467 27.9203C41.2604 28.2951 41.6001 28.9157 41.8285 29.3918C42.0842 29.9248 42.3281 30.5645 42.5612 31.2009C42.6331 31.3971 42.7043 31.5935 42.7752 31.789L42.7783 31.7978L42.7794 31.8008C43.0777 32.624 43.3703 33.4318 43.6848 34.1403C43.244 35.0113 42.7464 35.8485 42.1968 36.6473C42.0724 36.4533 41.9578 36.2546 41.852 36.0573C41.3001 35.0281 40.8293 33.7253 40.4265 32.6103C40.3575 32.4195 40.2906 32.2342 40.2255 32.0568C40.0377 31.544 39.8661 31.0948 39.7027 30.7232C39.6678 30.8076 39.6311 30.8999 39.5928 31.0008C38.3569 36.1892 35.4428 39.5596 33.1973 40.6476C32.7117 40.8828 32.1085 41.0058 31.5002 40.7727C30.9097 40.5463 30.5707 40.081 30.386 39.6939C30.0354 38.9589 30.0021 38.0287 30.0642 37.3147C30.2649 35.0091 29.5421 32.7146 28.6033 30.8674C28.1381 29.9522 27.633 29.173 27.1948 28.5901C26.9757 28.2986 26.7784 28.0631 26.6171 27.8883C26.5365 27.8009 26.4687 27.733 26.4151 27.6829C26.3885 27.6581 26.3672 27.6394 26.3513 27.6261C26.3366 27.6138 26.329 27.6081 26.3282 27.6075C25.6479 27.1216 25.4241 26.4057 25.4334 25.7683C25.4418 25.1895 25.6351 24.6257 25.8345 24.1715C26.1622 23.425 26.6704 22.6309 27.032 22.0659L27.0326 22.065L27.0336 22.0634C27.1101 21.9439 27.18 21.8347 27.2401 21.7385C27.4814 21.3525 27.8305 21.0655 28.2633 20.9141C28.6631 20.7744 29.0568 20.7773 29.375 20.8153C29.9762 20.887 30.6659 21.1371 31.2893 21.3663C31.3657 21.3944 31.4431 21.423 31.5215 21.4519L31.5227 21.4523C32.8207 21.9315 34.3953 22.5128 36.3519 22.7152C38.4421 22.9314 39.6682 22.5015 40.1337 22.1473C39.2361 21.559 38.5377 20.8269 38.1374 19.8379C37.735 18.8437 37.6917 17.7298 37.8472 16.5013C37.8496 16.482 37.8516 16.4638 37.8531 16.4467C37.7187 16.419 37.4758 16.4022 37.0427 16.448C36.705 16.4837 36.331 16.5464 35.883 16.6217C35.4486 16.6947 34.9568 16.7773 34.4428 16.8364C32.3338 17.079 29.6838 16.9382 27.3704 14.3678C26.8313 13.7688 26.4588 13.0875 26.3742 12.3289C26.2881 11.5562 26.5182 10.8599 26.8998 10.2783C27.6146 9.18911 28.9449 8.36879 30.3044 7.74204C31.9444 6.98601 33.9468 6.37162 35.8591 5.90784C36.7923 6.49715 37.6775 7.15541 38.5076 7.87548ZM40.3185 22.2788C40.3184 22.2788 40.3171 22.2774 40.3149 22.2745C40.3176 22.2773 40.3187 22.2787 40.3185 22.2788ZM40.2877 21.9984C40.2897 21.9937 40.2911 21.9914 40.2913 21.9915C40.2914 21.9915 40.2912 21.992 40.2907 21.9932L40.2895 21.9953L40.2877 21.9984Z" fill="#2E66E2"/>
<path d="M19.5224 45.5752C19.7804 44.7365 19.8948 43.9157 19.8753 43.1133C19.8408 41.6861 19.3851 40.4034 18.6967 39.2643C17.349 37.0341 15.0422 35.2536 12.9699 33.8139C12.443 33.4478 11.9197 33.0963 11.4221 32.7623L11.3954 32.7444L11.395 32.7441L11.3947 32.7439C10.904 32.4146 10.4409 32.1037 10.009 31.8031C9.11279 31.1792 8.43291 30.6543 7.99857 30.193C7.63955 29.8118 7.59048 29.625 7.58337 29.5843C7.60258 29.5395 7.71103 29.3377 8.22402 29.0179C10.3591 28.5549 11.4819 27.034 11.8937 25.4632C12.2237 24.2049 12.1288 22.8218 11.733 21.7745C11.9532 21.5869 12.2575 21.3857 12.6537 21.177C13.2943 20.8394 14.0218 20.5588 14.714 20.2936L14.7376 20.2845C15.0624 20.1601 15.3919 20.0338 15.672 19.9128C15.9327 19.8002 16.2704 19.6433 16.5353 19.4352C16.6639 19.3343 16.8924 19.1329 17.0336 18.8114C17.2097 18.4103 17.1948 17.9436 16.9611 17.543C16.7737 17.2217 16.5024 17.0416 16.3419 16.9498C16.1619 16.847 15.9671 16.77 15.7839 16.7089C15.2828 16.5419 14.6412 16.3979 14.0032 16.2547L14.0027 16.2545C13.8053 16.2102 13.6083 16.166 13.4159 16.1212C12.5488 15.9193 11.6376 15.6792 10.7472 15.3177C9.09569 14.6473 7.55198 13.5777 6.605 11.5808C6.05655 12.339 5.55576 13.1339 5.10702 13.9612C6.38522 15.843 8.12343 16.9373 9.81157 17.6226C10.7706 18.0119 11.7208 18.2729 12.5591 18.4747C12.2052 18.6258 11.8426 18.7926 11.4941 18.9762C10.7249 19.3815 9.85741 19.9518 9.31993 20.77C8.92751 21.3673 9.06216 22.0189 9.29441 22.4136C9.54499 22.8394 9.74346 23.8561 9.48751 24.8323C9.25785 25.7083 8.7113 26.4134 7.55929 26.6137L7.34325 26.6513L7.15308 26.7605C6.14437 27.3396 5.27378 28.1233 5.11751 29.241C4.96182 30.3546 5.59191 31.2658 6.18756 31.8984C6.81463 32.5643 7.68337 33.2151 8.58788 33.8447C9.03734 34.1576 9.51586 34.4788 9.99994 34.8037L10.0357 34.8277C10.5351 35.1629 11.0425 35.5038 11.5506 35.8568C13.6183 37.2933 15.5196 38.8166 16.5677 40.5509C17.0773 41.3941 17.3664 42.2589 17.3885 43.1735C17.4013 43.7008 17.326 44.2736 17.128 44.8979C17.907 45.1676 18.7061 45.3943 19.5224 45.5752Z" fill="#2E66E2"/>
<path fill-rule="evenodd" clip-rule="evenodd" d="M10.7342 49.9116L10.4143 49.3783C10.7342 49.9116 10.7346 49.9114 10.7346 49.9114L10.7351 49.9111L10.7363 49.9104L10.74 49.9081L10.7522 49.9007L10.7951 49.874C10.8317 49.8511 10.884 49.8179 10.9495 49.7748C11.0806 49.6886 11.2656 49.5628 11.4865 49.4008C11.9273 49.0775 12.5167 48.6063 13.1084 48.0146C14.2697 46.8532 15.5449 45.1228 15.5449 43.0661C15.5449 40.2326 13.2478 37.9356 10.4143 37.9356C7.58073 37.9356 5.28369 40.2326 5.28369 43.0661C5.28369 45.1121 6.49017 46.8398 7.63012 48.009C8.20903 48.6027 8.79446 49.0771 9.25283 49.405C9.48189 49.5689 9.68389 49.6996 9.84215 49.792C9.92034 49.8377 9.99479 49.8781 10.0606 49.9092C10.0929 49.9245 10.1318 49.9417 10.1733 49.9565L10.1754 49.9572L10.1754 49.9572C10.1998 49.9659 10.2957 50.0002 10.4143 50.0002H10.5865L10.7342 49.9116Z" fill="#F7AD30"/>
<path fill-rule="evenodd" clip-rule="evenodd" d="M10.7342 49.9116L10.4143 49.3783C10.7342 49.9116 10.7344 49.9115 10.7346 49.9114L10.7351 49.9111L10.7363 49.9104L10.74 49.9081L10.7522 49.9007L10.7951 49.874C10.8317 49.8511 10.884 49.8179 10.9495 49.7748C11.0806 49.6886 11.2656 49.5628 11.4865 49.4008C11.9273 49.0775 12.5167 48.6063 13.1084 48.0146C14.2697 46.8532 15.5449 45.1228 15.5449 43.0661C15.5449 40.2326 13.2478 37.9356 10.4143 37.9356C7.58073 37.9356 5.28369 40.2326 5.28369 43.0661C5.28369 45.1121 6.49017 46.8398 7.63012 48.009C8.20903 48.6027 8.79446 49.0771 9.25283 49.405C9.48189 49.5689 9.68389 49.6996 9.84215 49.792C9.92034 49.8377 9.99479 49.8781 10.0606 49.9092C10.0929 49.9245 10.1318 49.9417 10.1733 49.9565L10.1754 49.9572L10.1754 49.9572C10.1998 49.9659 10.2957 50.0002 10.4143 50.0002H10.5865L10.7342 49.9116ZM7.42921 43.0661C7.42921 41.4175 8.76567 40.0811 10.4143 40.0811C12.0629 40.0811 13.3993 41.4175 13.3993 43.0661C13.3993 44.2494 12.6345 45.4542 11.5913 46.4975C11.1584 46.9304 10.7212 47.2914 10.3652 47.5608C10.0151 47.3001 9.58745 46.9431 9.16631 46.5112C8.16789 45.4872 7.42921 44.2757 7.42921 43.0661Z" fill="#2E66E2"/>
<ellipse cx="10.2596" cy="43.2209" rx="1.24378" ry="1.24378" fill="#2E66E2"/>
<path fill-rule="evenodd" clip-rule="evenodd" d="M24.3681 43.5319L24.2757 43.5317H24.4606L24.3681 43.5319ZM10.9547 10.4063C13.4023 8.03485 16.9052 10.2388 16.9052 13.6468V13.9437C16.9052 15.1219 16.3705 16.2144 15.6256 17.1273C14.6359 18.34 13.2522 19.2777 11.6869 19.2777H11.492C8.58706 19.2777 6.48209 16.4819 8.026 14.0213C8.85501 12.7 9.83981 11.4864 10.9547 10.4063ZM6.02234 23.3198C6.70926 23.3198 7.26612 22.763 7.26612 22.076C7.26612 21.3891 6.70926 20.8323 6.02234 20.8323C5.33542 20.8323 4.77856 21.3891 4.77856 22.076C4.77856 22.763 5.33542 23.3198 6.02234 23.3198Z" fill="white"/>
</svg>
